<svg version="1.1" id="Livello_1" xmlns="http://www.w3.org/2000/svg" xmlns:xlink="http://www.w3.org/1999/xlink" x="0px" y="0px"
	 viewBox="0 0 300 300" style="enable-background:new 0 0 300 300;" xml:space="preserve">
<path id="pathOttagono" style="fill:#128442;stroke:#FFFFFF;stroke-width:10;" d="M25,25L150,5l125,20l20,125l-20,125l-125,20
	L25,275L5,150L25,25z"/>
<g id="flowRoot4447" transform="matrix(20.765072,0,0,20.765072,-1385.9513,-2075.9915)">
	<path id="path4674" style="fill:#FFFFFF;" d="M71.645,107.896l0.17-1.213l0.17,1.213H71.645z M71.512,108.857h0.602l0.115,0.96
		h1.259l-0.873-5.261h-1.608l-0.887,5.261h1.25L71.512,108.857z"/>
	<path id="path4676" style="fill:#FFFFFF;" d="M76.225,107.772c-0.061,0.144-0.092,0.273-0.092,0.386
		c0,0.119,0.031,0.245,0.092,0.377c0.07,0.144,0.159,0.216,0.266,0.216c0.113,0,0.198-0.075,0.255-0.225
		c0.057-0.15,0.085-0.279,0.085-0.386c0-0.107-0.029-0.233-0.087-0.377c-0.067-0.144-0.155-0.216-0.262-0.216
		C76.369,107.547,76.283,107.622,76.225,107.772L76.225,107.772z M77.865,105.778l-0.988,0.312
		c-0.095-0.328-0.205-0.492-0.331-0.492c-0.101,0-0.194,0.092-0.28,0.276c-0.089,0.193-0.133,0.387-0.133,0.583
		c0,0.043,0.006,0.109,0.018,0.198c0.233-0.172,0.452-0.257,0.657-0.257c0.315,0,0.567,0.17,0.753,0.51
		c0.178,0.306,0.266,0.68,0.266,1.121c0,0.487-0.11,0.904-0.331,1.25c-0.251,0.383-0.599,0.574-1.043,0.574
		c-0.401,0-0.75-0.27-1.048-0.809c-0.3-0.533-0.45-1.142-0.45-1.829c0-0.827,0.162-1.489,0.487-1.985
		c0.291-0.45,0.652-0.675,1.084-0.675C77.132,104.556,77.578,104.964,77.865,105.778L77.865,105.778z"/>
</g>
</svg>