<svg xmlns="http://www.w3.org/2000/svg" xml:space="preserve" style="enable-background:new -273 273.93 20 20" width="20" height="20" viewBox="-273 273.93 20 20">
    <path d="M-256.391 284.298a.475.475 0 0 0-.326-.145h-.648l.292-.499a.457.457 0 0 0-.809-.428l-.339.58-.362-.61a.45.45 0 0 0-.595-.16.46.46 0 0 0-.166.594l.306.523h-.651a.476.476 0 0 0-.475.476.5.5 0 0 0 .238.428.457.457 0 0 0 .238.047h.708l-.375.642a.48.48 0 0 0 .19.594h.024a.455.455 0 0 0 .595-.166l.346-.591.332.567c.047.095.142.142.19.19a.669.669 0 0 0 .428-.024h.036a.418.418 0 0 0 .194-.438.403.403 0 0 0-.064-.156l-.367-.618h.735a.475.475 0 0 0 .325-.806z" style="fill:#2c9c52"/>
    <path d="m-257.776 290.372-2.778-1.282.013 1.084h-2.47v-1.163h-.494v1.163h-.862v-2.191h-.494v2.191h-.942l-.011-2.248-.493.002.012 2.739h5.759l.011 1.017z" style="fill:#00a551"/>
    <path d="M-257.187 277.597a2.51 2.51 0 0 0-.787.053 2.414 2.414 0 0 0-.838-1.253 2.154 2.154 0 0 0-1.376-.456c-1.107 0-1.968.737-2.091 1.683a.79.79 0 0 0-.265-.026h-.308c-1.082.079-1.943.92-1.943 1.946 0 1.078.923 1.946 2.091 1.946h4.705c1.132 0 2.313-.473 2.313-2.13a1.83 1.83 0 0 0-.43-1.193 1.61 1.61 0 0 0-1.071-.57zm1.009 1.999c-.123 1.236-1.353 1.341-1.722 1.341h-4.846c-.467 0-1.451-.421-1.538-1.21a1.491 1.491 0 0 1 .052-.56c.053-.181.14-.348.255-.492.128-.163.285-.295.463-.39.178-.095.372-.15.57-.162h.252a.995.995 0 0 1 .522.122c.161.087.299.218.4.378 0 0 .049.052.049.079a.306.306 0 0 0 .27.184.193.193 0 0 0 .197-.132.466.466 0 0 0-.001-.243.439.439 0 0 0-.122-.204c-.123-.131-.197-.184-.246-.237-.049-.053-.098-.079-.123-.158.044-.399.227-.766.511-1.029.284-.263.65-.402 1.026-.391.391-.009.775.119 1.091.367s.546.599.656 1.001a1.79 1.79 0 0 0-.733.603c-.19.267-.311.583-.349.915-.049.237.024.421.196.447h.074c.172 0 .246-.237.271-.421.057-.325.202-.624.416-.862.214-.238.488-.405.789-.479h.221a1.39 1.39 0 0 1 .611.094c.195.077.373.197.521.353.123.145.211.32.259.509.047.189.051.388.012.579l-.004-.002zM-262.725 286.854c-.932-.206-1.509-1.111-1.184-1.911.106-.26.286-.506.486-.714.469-.487.968-.948 1.46-1.416.102-.097.216-.075.272.049.347.77.66 1.549.831 2.366.214 1.022-.68 1.745-1.624 1.665-.081-.008-.161-.026-.241-.039zm-.176-.421c.151.033.263-.015.295-.113.034-.105-.005-.203-.113-.245-.378-.145-.504-.516-.459-.875.018-.147-.046-.245-.183-.268-.137-.023-.233.048-.255.196-.037.245-.008.486.097.72.126.281.343.479.618.585zM-266.284 279.198v-.347h-1.289l-.002-.298c-.005-.591-.603-1.041-1.179-.913-.53.118-.824.501-.825 1.087-.002 1.408-.002 2.815.002 4.223a.321.321 0 0 1-.154.3c-1.039.741-1.099 2.272-.134 3.108.309.268.675.393 1.059.488h.451c.031-.012.062-.029.094-.034.784-.134 1.322-.582 1.571-1.326.252-.752.123-1.482-.477-2.007-.295-.258-.413-.515-.415-.836h1.294v-.377h-1.281l-.001-.043v-.435h.64v-.373h-.64v-.487h1.282v-.363h-1.282v-.5h.641v-.358h-.641l-.002-.507c.435-.002.861-.002 1.288-.002zm-.686 5.817c-.098.702-.541 1.208-1.213 1.387-.748.198-1.532-.19-1.853-.917-.309-.702-.063-1.561.595-1.958.215-.129.266-.271.265-.503-.01-1.443-.006-2.885-.004-4.328.001-.431.277-.716.657-.688.339.026.575.286.576.65.003.759.001 1.518.001 2.277 0 .752.004 1.504-.003 2.256-.001.134.04.202.157.268.574.327.905.964.822 1.556z" style="fill:#2c9c52"/>
    <path d="M-268.812 279.253h.498v.227c0 1.306.003 2.612-.004 3.917-.001.152.035.226.187.279.593.207.916.798.802 1.438-.101.57-.642 1-1.254.997-.623-.003-1.122-.433-1.238-1.066-.104-.571.252-1.176.825-1.372.154-.053.187-.129.186-.28-.006-1.292-.003-2.584-.003-3.876l.001-.264zm-.814 5.527c-.01.155.043.274.207.301.172.028.28-.058.297-.229.03-.292.182-.468.46-.558.139-.045.197-.165.146-.312-.05-.146-.162-.196-.307-.169-.423.081-.796.531-.803.967z" style="fill:#2c9c52"/>
</svg>
