<?xml version="1.0" encoding="iso-8859-1"?>
<!-- Generator: Adobe Illustrator 18.1.0, SVG Export Plug-In . SVG Version: 6.00 Build 0)  -->
<svg 
  version="1.1"
	id="svg1198"
  xmlns:svg="http://www.w3.org/2000/svg"
  xmlns:dc="http://purl.org/dc/elements/1.1/"
  xmlns:rdf="http://www.w3.org/1999/02/22-rdf-syntax-ns#"
  xmlns:cc="http://creativecommons.org/ns#"
  xmlns:sodipodi="http://sodipodi.sourceforge.net/DTD/sodipodi-0.dtd"
  xmlns:inkscape="http://www.inkscape.org/namespaces/inkscape"
  sodipodi:docname="ozono_logo.svg"
  inkscape:version="1.0.2 (e86c870879, 2021-01-15)"
  xmlns="http://www.w3.org/2000/svg"
  xmlns:xlink="http://www.w3.org/1999/xlink"
  width="20"
  height="20"
  viewBox="-273 273.93 20 20"
	style="enable-background:new -273 273.93 20 20;"
  >
<sodipodi:namedview
  width="49px"
  units="px"
  showgrid="false"
  inkscape:cy="8.2818214"
  inkscape:cx="9.9148328"
  pagecolor="#ffffff"
  inkscape:zoom="44.8"
  bordercolor="#666666"
  borderopacity="1.0"
  id="base"
  inkscape:window-maximized="1"
  inkscape:window-y="27"
  inkscape:window-x="0"
  inkscape:window-height="948"
  inkscape:current-layer="layer1"
  inkscape:window-width="1920"
  inkscape:pageshadow="2"
  inkscape:document-units="mm"
  inkscape:pageopacity="0.0"
  inkscape:document-rotation="0">
	</sodipodi:namedview>
<g>
	<path style="fill:#2C9C52;" d="M-256.391,284.298c-0.086-0.089-0.203-0.141-0.326-0.145h-0.648l0.292-0.499
		c0.05-0.106,0.056-0.228,0.019-0.339c-0.037-0.111-0.116-0.204-0.22-0.259c-0.104-0.055-0.225-0.068-0.338-0.036
		c-0.113,0.032-0.21,0.105-0.27,0.206l-0.339,0.58l-0.362-0.61c-0.06-0.098-0.155-0.169-0.265-0.199
		c-0.111-0.03-0.229-0.016-0.33,0.039c-0.097,0.061-0.167,0.155-0.198,0.265c-0.031,0.11-0.019,0.227,0.032,0.329l0.306,0.523
		h-0.651c-0.126,0-0.247,0.051-0.336,0.14c-0.089,0.089-0.139,0.21-0.139,0.336c0,0.086,0.021,0.17,0.063,0.245
		c0.042,0.075,0.102,0.138,0.175,0.183c0.074,0.037,0.156,0.053,0.238,0.047h0.708l-0.375,0.642
		c-0.044,0.106-0.049,0.223-0.014,0.332c0.035,0.109,0.107,0.202,0.204,0.262h0.024c0.102,0.052,0.22,0.063,0.33,0.032
		c0.11-0.031,0.205-0.102,0.265-0.198l0.346-0.591l0.332,0.567c0.047,0.095,0.142,0.142,0.19,0.19
		c0.141,0.039,0.291,0.031,0.428-0.024h0.036c0.048-0.03,0.09-0.069,0.123-0.115c0.033-0.046,0.056-0.099,0.068-0.154
		c0.012-0.056,0.013-0.113,0.003-0.169c-0.01-0.056-0.032-0.109-0.064-0.156l-0.367-0.618h0.735c0.123-0.004,0.24-0.056,0.326-0.145
		c0.086-0.089,0.134-0.207,0.134-0.331C-256.258,284.505-256.306,284.386-256.391,284.298z"/>
</g>
<polygon style="fill:#00A551;" points="-257.776,290.372 -260.554,289.09 -260.541,290.174 -263.011,290.174 -263.011,289.011 
	-263.505,289.011 -263.505,290.174 -264.367,290.174 -264.367,287.983 -264.861,287.983 -264.861,290.174 -265.803,290.174 
	-265.814,287.926 -266.307,287.928 -266.295,290.667 -260.536,290.667 -260.525,291.684 "/>
<g>
	<path style="fill:#2C9C52;" d="M-257.187,277.597c-0.263-0.024-0.529-0.006-0.787,0.053c-0.144-0.504-0.438-0.945-0.838-1.253
		c-0.4-0.309-0.883-0.469-1.376-0.456c-1.107,0-1.968,0.737-2.091,1.683c-0.086-0.024-0.176-0.032-0.265-0.026h-0.308
		c-1.082,0.079-1.943,0.92-1.943,1.946c0,1.078,0.923,1.946,2.091,1.946h4.705c1.132,0,2.313-0.473,2.313-2.13
		c0.002-0.441-0.152-0.867-0.43-1.193C-256.393,277.84-256.776,277.637-257.187,277.597z M-256.178,279.596
		c-0.123,1.236-1.353,1.341-1.722,1.341h-4.846c-0.467,0-1.451-0.421-1.538-1.21c-0.018-0.188-0.001-0.379,0.052-0.56
		c0.053-0.181,0.14-0.348,0.255-0.492c0.128-0.163,0.285-0.295,0.463-0.39c0.178-0.095,0.372-0.15,0.57-0.162h0.252
		c0.181-0.008,0.361,0.034,0.522,0.122c0.161,0.087,0.299,0.218,0.4,0.378c0,0,0.049,0.052,0.049,0.079
		c0.051,0.111,0.155,0.182,0.27,0.184c0.086,0.008,0.166-0.046,0.197-0.132c0.021-0.079,0.021-0.164-0.001-0.243
		c-0.022-0.079-0.064-0.15-0.122-0.204c-0.123-0.131-0.197-0.184-0.246-0.237c-0.049-0.053-0.098-0.079-0.123-0.158
		c0.044-0.399,0.227-0.766,0.511-1.029c0.284-0.263,0.65-0.402,1.026-0.391c0.391-0.009,0.775,0.119,1.091,0.367
		s0.546,0.599,0.656,1.001c-0.29,0.128-0.543,0.336-0.733,0.603c-0.19,0.267-0.311,0.583-0.349,0.915
		c-0.049,0.237,0.024,0.421,0.196,0.447h0.074c0.172,0,0.246-0.237,0.271-0.421c0.057-0.325,0.202-0.624,0.416-0.862
		c0.214-0.238,0.488-0.405,0.789-0.479h0.221c0.207-0.015,0.416,0.017,0.611,0.094c0.195,0.077,0.373,0.197,0.521,0.353
		c0.123,0.145,0.211,0.32,0.259,0.509c0.047,0.189,0.051,0.388,0.012,0.579L-256.178,279.596z"/>
</g>
<path style="fill:#2C9C52;" d="M-262.725,286.854c-0.932-0.206-1.509-1.111-1.184-1.911c0.106-0.26,0.286-0.506,0.486-0.714
	c0.469-0.487,0.968-0.948,1.46-1.416c0.102-0.097,0.216-0.075,0.272,0.049c0.347,0.77,0.66,1.549,0.831,2.366
	c0.214,1.022-0.68,1.745-1.624,1.665C-262.565,286.885-262.645,286.867-262.725,286.854z M-262.901,286.433
	c0.151,0.033,0.263-0.015,0.295-0.113c0.034-0.105-0.005-0.203-0.113-0.245c-0.378-0.145-0.504-0.516-0.459-0.875
	c0.018-0.147-0.046-0.245-0.183-0.268c-0.137-0.023-0.233,0.048-0.255,0.196c-0.037,0.245-0.008,0.486,0.097,0.72
	C-263.393,286.129-263.176,286.327-262.901,286.433z"/>
<g>
	<path style="fill:#2C9C52;" d="M-266.284,279.198c0-0.122,0-0.228,0-0.347c-0.434,0-0.86,0-1.289,0
		c-0.001-0.099-0.001-0.199-0.002-0.298c-0.005-0.591-0.603-1.041-1.179-0.913c-0.53,0.118-0.824,0.501-0.825,1.087
		c-0.002,1.408-0.002,2.815,0.002,4.223c0,0.136-0.038,0.217-0.154,0.3c-1.039,0.741-1.099,2.272-0.134,3.108
		c0.309,0.268,0.675,0.393,1.059,0.488c0.15,0,0.301,0,0.451,0c0.031-0.012,0.062-0.029,0.094-0.034
		c0.784-0.134,1.322-0.582,1.571-1.326c0.252-0.752,0.123-1.482-0.477-2.007c-0.295-0.258-0.413-0.515-0.415-0.836
		c0.432,0,0.858,0,1.294,0c0-0.13,0-0.248,0-0.377c-0.432,0-0.854,0-1.281,0c0-0.014-0.001-0.028-0.001-0.043
		c0-0.145,0-0.29,0-0.435c0.214,0,0.425,0,0.64,0c0-0.128,0-0.246,0-0.373c-0.217,0-0.427,0-0.64,0c0-0.162,0-0.325,0-0.487
		c0.427,0,0.849,0,1.282,0c0-0.133,0-0.246,0-0.363c-0.434,0-0.858,0-1.282,0c0-0.167,0-0.333,0-0.5c0.216,0,0.427,0,0.641,0
		c0-0.124,0-0.235,0-0.358c-0.217,0-0.427,0-0.641,0c0-0.169-0.001-0.338-0.002-0.507
		C-267.137,279.198-266.711,279.198-266.284,279.198z M-266.97,285.015c-0.098,0.702-0.541,1.208-1.213,1.387
		c-0.748,0.198-1.532-0.19-1.853-0.917c-0.309-0.702-0.063-1.561,0.595-1.958c0.215-0.129,0.266-0.271,0.265-0.503
		c-0.01-1.443-0.006-2.885-0.004-4.328c0.001-0.431,0.277-0.716,0.657-0.688c0.339,0.026,0.575,0.286,0.576,0.65
		c0.003,0.759,0.001,1.518,0.001,2.277c0,0.752,0.004,1.504-0.003,2.256c-0.001,0.134,0.04,0.202,0.157,0.268
		C-267.218,283.786-266.887,284.423-266.97,285.015z"/>
	<path style="fill:#2C9C52;" d="M-268.812,279.253c0.177,0,0.325,0,0.498,0c0,0.081,0,0.154,0,0.227
		c0,1.306,0.003,2.612-0.004,3.917c-0.001,0.152,0.035,0.226,0.187,0.279c0.593,0.207,0.916,0.798,0.802,1.438
		c-0.101,0.57-0.642,1-1.254,0.997c-0.623-0.003-1.122-0.433-1.238-1.066c-0.104-0.571,0.252-1.176,0.825-1.372
		c0.154-0.053,0.187-0.129,0.186-0.28c-0.006-1.292-0.003-2.584-0.003-3.876C-268.812,279.436-268.812,279.355-268.812,279.253z
		 M-269.626,284.78c-0.01,0.155,0.043,0.274,0.207,0.301c0.172,0.028,0.28-0.058,0.297-0.229c0.03-0.292,0.182-0.468,0.46-0.558
		c0.139-0.045,0.197-0.165,0.146-0.312c-0.05-0.146-0.162-0.196-0.307-0.169C-269.246,283.894-269.619,284.344-269.626,284.78z"/>
</g>
</svg>
