<?xml version="1.0" encoding="iso-8859-1"?>
<!-- Generator: Adobe Illustrator 18.1.0, SVG Export Plug-In . SVG Version: 6.00 Build 0)  -->
<svg version="1.1" id="Livello_3" xmlns="http://www.w3.org/2000/svg" xmlns:xlink="http://www.w3.org/1999/xlink" x="0px" y="0px"
	 viewBox="0 0 300 300" style="enable-background:new 0 0 300 300;" xml:space="preserve">
<g id="goccia_x5F_flat_x5F_DX_1_">
	<path id="goccia_x5F_intermedia_1_" style="fill:#009444;" d="M266.165,119.04c0,0,1.292,21.346-0.79,26.597
		c-1.682,4.243-5.841,6.979-11.233,5.732c-5.694-1.318-10.699-6.322-7.985-14.368C248.935,128.767,266.165,119.04,266.165,119.04z"
		/>
</g>
<path style="fill:#009444;" d="M271.958,70.232c-0.486-0.755-0.969-1.384-1.303-2.084c-0.145-0.303-0.076-0.789,0.054-1.131
	c1.746-4.596,1.931-9.225,0.513-13.951c-2.607-8.688-11.563-14.976-20.668-14.469c-6.938,0.386-12.314,3.538-16.423,9.246
	c-0.655-0.517-1.311-1.036-1.966-1.553c6.115-9.649,20.132-13.636,31.251-6.972C274.75,46.111,277.516,60.466,271.958,70.232z"/>
<path style="fill:#009444;" d="M214.389,108.377c5.103,0,9.923,0,15.12,0c-7.006,13.384-13.893,26.54-20.779,39.696
	c-0.106-0.025-0.212-0.049-0.317-0.074c2.872-10.622,5.744-21.243,8.7-32.174c-5.029,0-9.868,0-15.147,0
	c7.077-13.099,13.952-25.822,20.826-38.544c0.102,0.029,0.204,0.058,0.306,0.087C220.222,87.606,217.346,97.845,214.389,108.377z"/>
<path style="fill:#009444;" d="M287.523,49.533c2.088-0.49,4.174-0.987,6.264-1.468c1.143-0.263,1.783,0.032,1.942,0.902
	c0.189,1.031-0.467,1.398-1.316,1.597c-4.176,0.978-8.353,1.954-12.527,2.94c-0.887,0.21-1.682,0.222-1.992-0.851
	c-0.241-0.833,0.222-1.378,1.366-1.649C283.346,50.509,285.435,50.022,287.523,49.533z"/>
<path style="fill:#009444;" d="M292.595,77.771c-0.543-0.121-0.918-0.15-1.248-0.288c-3.989-1.664-7.968-3.351-11.958-5.012
	c-0.842-0.351-1.384-0.89-1.022-1.808c0.363-0.918,1.139-0.945,1.969-0.596c4.088,1.717,8.189,3.405,12.25,5.184
	c0.423,0.185,0.797,0.892,0.843,1.388C293.461,76.988,292.895,77.391,292.595,77.771z"/>
<path style="fill:#009444;" d="M281.749,25.512c-0.228,0.516-0.321,0.975-0.586,1.286c-2.902,3.402-5.82,6.79-8.762,10.158
	c-0.516,0.59-1.251,0.814-1.898,0.232c-0.621-0.56-0.58-1.275-0.034-1.912c2.911-3.392,5.813-6.794,8.772-10.143
	c0.305-0.345,0.979-0.512,1.47-0.49C281.039,24.659,281.346,25.154,281.749,25.512z"/>
<path style="fill:#009444;" d="M252.691,29.535c0.029-0.716,0.03-1.131,0.064-1.543c0.344-4.161,0.691-8.322,1.044-12.483
	c0.094-1.111,0.595-1.634,1.537-1.5c0.956,0.136,1.117,0.851,1.046,1.683c-0.37,4.348-0.745,8.696-1.088,13.046
	c-0.066,0.833-0.427,1.45-1.235,1.453C253.571,30.194,253.082,29.736,252.691,29.535z"/>
<path style="fill:#009444;" d="M227.087,21.58c0.231-0.334,0.434-0.898,0.832-1.14c0.653-0.396,1.329-0.181,1.751,0.499
	c0.972,1.567,1.928,3.143,2.882,4.722c1.264,2.094,2.519,4.193,3.778,6.29c0.097,0.161,0.203,0.318,0.283,0.488
	c0.356,0.756,0.44,1.473-0.428,1.945c-0.829,0.451-1.379-0.039-1.779-0.673c-1.064-1.687-2.085-3.401-3.118-5.107
	c-1.208-1.996-2.412-3.994-3.616-5.992C227.517,22.354,227.376,22.089,227.087,21.58z"/>
<path style="fill:#009444;" d="M277.696,44.933c-0.423-0.251-1.115-0.426-1.252-0.803c-0.162-0.447-0.035-1.349,0.292-1.566
	c1.999-1.334,4.067-2.573,6.176-3.727c0.334-0.183,1.24,0.075,1.436,0.399c0.233,0.385,0.195,1.37-0.088,1.563
	C282.187,42.212,280.023,43.492,277.696,44.933z"/>
<path style="fill:#009444;" d="M221.776,35.045c0.167-0.314,0.294-0.921,0.653-1.13c0.371-0.216,1.133-0.255,1.436-0.012
	c1.843,1.476,3.641,3.015,5.354,4.638c0.302,0.286,0.356,1.226,0.113,1.581c-0.232,0.339-1.233,0.602-1.5,0.392
	c-1.977-1.544-3.857-3.213-5.759-4.853C221.97,35.573,221.941,35.397,221.776,35.045z"/>
<path style="fill:#009444;" d="M289.799,61.748c0.31,1.21-0.262,2.022-1.174,1.962c-2.366-0.155-4.732-0.357-7.081-0.666
	c-0.381-0.05-0.967-0.772-0.936-1.14c0.038-0.45,0.599-0.881,0.992-1.26c0.12-0.116,0.432-0.059,0.653-0.041
	c2.102,0.171,4.207,0.313,6.301,0.556C289.064,61.218,289.535,61.617,289.799,61.748z"/>
<path style="fill:#009444;" d="M267.227,24.381c-0.109,0.563-0.121,0.939-0.254,1.265c-0.769,1.883-1.561,3.757-2.359,5.628
	c-0.345,0.809-0.785,1.527-1.856,1.119c-0.796-0.303-0.979-1.04-0.537-2.108c0.791-1.914,1.547-3.847,2.435-5.715
	c0.208-0.437,0.859-0.827,1.359-0.907C266.366,23.607,266.807,24.113,267.227,24.381z"/>
<path style="fill:#009444;" d="M244.885,26.103c0.25,1.063,0.495,2.127,0.751,3.189c0.204,0.849-0.096,1.406-0.956,1.59
	c-0.826,0.177-1.295-0.266-1.478-1.018c-0.525-2.159-1.02-4.325-1.534-6.487c-0.199-0.836,0.094-1.483,0.906-1.665
	c0.794-0.178,1.361,0.216,1.541,1.091c0.228,1.106,0.509,2.201,0.768,3.301C244.882,26.104,244.883,26.103,244.885,26.103z"/>
<path style="fill:#009444;" d="M195.535,84.398c-2.881-7.288-1.828-13.674,4.332-18.562c5.173-4.104,10.884-3.974,16.681-0.974
	c3.476-10.098,10.272-15.577,21.147-14.777c7.597,0.559,15.43,6.45,17.158,16.922c5.066-0.831,9.667,0.187,13.476,3.844
	c3.808,3.656,5.103,8.164,4.427,13.545c2.001,0,3.95,0.036,5.896-0.01c1.943-0.046,3.621,0.577,5.057,1.848
	c2.306,2.042,3.266,4.587,2.534,7.611c-0.738,3.05-2.702,5.002-5.753,5.767c-0.861,0.216-1.78,0.277-2.672,0.278
	c-28.172,0.014-56.343,0.013-84.515,0.011c-4.919,0-8.419-3.02-8.652-7.444c-0.23-4.358,3.289-8.059,7.663-8.059
	C193.334,84.398,194.352,84.398,195.535,84.398z"/>
<g id="goccia_x5F_flat_x5F_DX_2_">
	<path id="goccia_x5F_intermedia_2_" style="fill:#009444;" d="M249.906,102.69c0,0,0.996,16.46-0.609,20.509
		c-1.297,3.272-4.504,5.382-8.662,4.42c-4.391-1.016-8.25-4.875-6.157-11.079C236.62,110.191,249.906,102.69,249.906,102.69z"/>
</g>
<path style="fill:#009444;" d="M143.099,23.739c-0.059,0.722-0.505,1.354-1.157,1.653c-0.158,0.2-0.354,0.368-0.575,0.494
	l-0.366,0.209c-0.358,0.206-0.769,0.291-1.176,0.255l-0.208,0.162c-0.319,0.249-0.707,0.394-1.11,0.418l-1.776,0.104
	c-0.447,0.028-0.88-0.096-1.245-0.345c-0.14,0.124-0.296,0.228-0.464,0.309l-0.172,0.345c-0.037,0.074-0.079,0.146-0.125,0.215
	l-0.313,0.47c-0.228,0.341-0.553,0.603-0.931,0.751l-0.098,0.138c0,0-0.001,0.001-0.001,0.001c0.494,0.229,0.879,0.654,1.055,1.182
	l0.104,0.313c0.04,0.118,0.067,0.24,0.084,0.363c0.176,0.162,0.324,0.357,0.434,0.577l0.108,0.183
	c0.038,0.018,0.074,0.036,0.11,0.056c0.739,0.146,1.336,0.697,1.539,1.427l0.261,0.94c0.015,0.053,0.027,0.107,0.038,0.161
	l0.082,0.428c0.243,0.245,0.419,0.549,0.51,0.883l0.157,0.575c0.046,0.171,0.07,0.349,0.07,0.526v0.175
	c0.02,0.024,0.04,0.048,0.059,0.073l0.679,0.888c0.301,0.394,0.445,0.886,0.404,1.381l-0.052,0.627
	c-0.053,0.63-0.399,1.197-0.934,1.531l-0.126,0.28c-0.037,0.081-0.079,0.158-0.125,0.233l0.045,0.136
	c0.068,0.204,0.103,0.417,0.103,0.632l0.037,0.536c0.056,0.444-0.039,0.894-0.27,1.277l-0.313,0.522
	c-0.084,0.141-0.185,0.27-0.301,0.385l-0.366,0.366c-0.135,0.135-0.289,0.25-0.457,0.342l-0.575,0.313
	c-0.332,0.181-0.705,0.266-1.071,0.241l-0.041,0.366c-0.05,0.452-0.252,0.873-0.574,1.193l-0.007,0.007
	c-0.252,0.687-0.863,1.186-1.595,1.29l-0.032,0.004c-0.253,0.201-0.553,0.339-0.875,0.399l-0.782,0.186
	c-0.338,0.144-0.71,0.192-1.071,0.142l-0.546-0.064l-0.006,0.001l-0.416,0.256c-0.361,0.222-0.782,0.323-1.199,0.291
	c-0.007,0.003-0.014,0.006-0.021,0.009l-0.026,0.42c-0.019,0.305-0.108,0.602-0.26,0.867l-0.209,0.366
	c-0.013,0.022-0.025,0.044-0.039,0.066c0.021,0.099,0.034,0.2,0.039,0.302c0.068,0.159,0.115,0.327,0.139,0.5l0.012,0.082
	l0.143,0.313c0.057,0.126,0.102,0.258,0.131,0.394l0.051,0.23l0.151,0.302c0.249,0.498,0.279,1.076,0.083,1.597l-0.157,0.418
	c-0.207,0.551-0.646,0.983-1.2,1.181l-0.103,0.037c0.061,0.438-0.026,0.882-0.242,1.263v0.423c0,1.006-0.747,1.854-1.741,1.983
	c-0.103,0.381-0.316,0.724-0.614,0.985l-0.418,0.366c-0.438,0.383-1.021,0.555-1.599,0.475l-0.366-0.052
	c-0.207-0.03-0.408-0.091-0.595-0.183l-1.082,0.216c-0.393,0.08-0.801,0.038-1.168-0.118h-1.583
	c-0.165,0.069-0.337,0.116-0.513,0.139c-0.071,0.082-0.148,0.159-0.231,0.229c-0.046,0.084-0.099,0.166-0.156,0.243l-0.231,0.309
	l-0.195,0.351c-0.175,0.315-0.432,0.576-0.741,0.757c0,0.393-0.117,0.773-0.33,1.097c0.021,0.167,0.022,0.337,0.001,0.506
	l-0.052,0.418c-0.051,0.412-0.228,0.787-0.493,1.084l0.036,0.072c0.114,0.228,0.183,0.475,0.204,0.729l0.052,0.627
	c0.038,0.45-0.079,0.899-0.329,1.275l-0.386,0.58c0.143,0.445,0.13,0.939-0.066,1.397l-0.157,0.366
	c-0.004,0.01-0.008,0.02-0.013,0.029l0.104,0.381c0.03,0.111,0.051,0.224,0.062,0.338l9.534,4.54l9.18-4.589l5.885-7.743
	l-0.983-11.798c-0.036-0.428,0.067-0.856,0.294-1.221l5.925-9.546l-0.982-10.145c-0.053-0.552,0.125-1.101,0.491-1.516l4.06-4.602
	l-3.517-3.939c-0.017,0.013-0.033,0.026-0.05,0.039C143.217,23.511,143.164,23.628,143.099,23.739z"/>
<path style="fill:#009444;" d="M113.846,79.016l-0.209,0.418c-0.042,0.084-0.09,0.166-0.144,0.243c0.083,0.133,0.15,0.275,0.2,0.425
	l0.157,0.47c0.068,0.204,0.103,0.417,0.103,0.632v0.47c0,0.656-0.317,1.245-0.815,1.611l0.019,0.458l0.084,0.282
	c0.08,0.267,0.104,0.547,0.069,0.823l-0.052,0.418c-0.015,0.118-0.04,0.235-0.075,0.349l-0.028,0.09l0.297,0.511l0.68,0.771
	c0.352,0.399,0.526,0.915,0.498,1.432c0.168,0.17,0.306,0.371,0.405,0.594l0.088,0.184l0.431,0.118l10.742-2.892l8.488-2.719
	l3.945-1.972l2.221-7.552l3.156-9.819c0.15-0.467,0.467-0.863,0.89-1.112l11.732-6.901l7.558-6.184
	c0.644-0.527,1.547-0.6,2.269-0.183l6.472,3.747l8.682,3.087c-0.011-0.041-0.021-0.082-0.03-0.124l-0.261-1.254
	c-0.012-0.056-0.021-0.112-0.028-0.169l-0.228-1.581l-0.157-0.584l-0.479-1.197c-0.143-0.356-0.18-0.747-0.106-1.124
	c-0.476-0.083-0.906-0.335-1.211-0.711c-0.343-0.034-0.677-0.156-0.967-0.363l-0.159-0.113l-0.441-0.17
	c-0.438-0.168-0.803-0.485-1.031-0.896l-0.073-0.132l-0.495-0.027l-0.333,0.083c-0.158,0.04-0.321,0.06-0.485,0.06h-0.679
	c-0.918,0-1.718-0.625-1.94-1.515l-0.157-0.627c-0.024-0.097-0.041-0.195-0.05-0.294c-0.032-0.041-0.063-0.083-0.091-0.126
	l-0.102-0.153c-0.739-0.309-1.227-1.034-1.227-1.844v-0.313c0-0.059,0.002-0.118,0.008-0.177c-0.018-0.022-0.034-0.045-0.051-0.068
	c-0.295-0.098-0.563-0.264-0.782-0.483l-0.261-0.261c-0.273-0.272-0.461-0.618-0.542-0.995l-0.235-1.096
	c-0.642-0.23-1.132-0.778-1.28-1.461c-0.186-0.095-0.356-0.219-0.504-0.367l-0.261-0.261c-0.211-0.211-0.373-0.467-0.472-0.749
	l-0.313-0.888c-0.027-0.076-0.049-0.153-0.066-0.231l-0.027-0.123c-0.221-0.028-0.437-0.093-0.639-0.194l-0.313-0.157
	c-0.093-0.047-0.183-0.101-0.268-0.162l-0.816-0.555l-0.468-0.138l-0.517-0.037c-0.138-0.01-0.274-0.034-0.407-0.072l-0.366-0.104
	c-0.246-0.07-0.477-0.187-0.679-0.344l-0.47-0.366c-0.311-0.242-0.543-0.57-0.668-0.943l-0.091-0.272
	c-0.494-0.065-0.95-0.314-1.273-0.702l-0.261-0.313c-0.192-0.231-0.331-0.503-0.404-0.795l-0.104-0.418
	c-0.17-0.681,0.029-1.402,0.526-1.899l0.01-0.01c0.023-0.085,0.053-0.168,0.087-0.249l-0.648-0.822
	c-0.028-0.034-0.054-0.069-0.08-0.104l-0.261-0.366c-0.207-0.289-0.332-0.628-0.364-0.981l-0.031-0.344l-0.24-0.72
	c-0.265-0.795-0.006-1.67,0.648-2.194l0.244-0.195c-0.018-0.485,0.142-0.961,0.451-1.339l0.47-0.575
	c0.17-0.208,0.38-0.378,0.615-0.502c0.103-0.194,0.237-0.371,0.396-0.521l-0.049-1.002c-0.002-0.035-0.003-0.069-0.003-0.104
	l-0.032-0.396c-0.054-0.38,0.002-0.767,0.161-1.113c0.042-0.275,0.142-0.536,0.29-0.768v-0.158l-0.157-1.147l-0.197-0.552
	c-0.2-0.56-0.141-1.178,0.161-1.69l0.005-0.008c-0.083-0.222-0.126-0.458-0.126-0.699v-0.47c0-0.138,0.014-0.275,0.042-0.409
	c-0.075-0.099-0.141-0.205-0.197-0.316l-0.157-0.313c-0.139-0.278-0.211-0.584-0.211-0.895V9.625c0-0.186,0.026-0.371,0.077-0.548
	c-0.148-0.519-0.08-1.076,0.189-1.545l-0.046-0.046c-0.091-0.091-0.172-0.19-0.244-0.296c-0.076,0.017-0.154,0.029-0.232,0.037
	l-0.077,0.007l-0.139,0.083c-0.287,0.172-0.61,0.269-0.94,0.283l-0.01,0.009c-0.178,0.148-0.378,0.263-0.592,0.341
	c-0.483,0.454-1.161,0.636-1.8,0.493l-0.231,0.051c-0.323,0.073-0.657,0.062-0.971-0.025l-0.077,0.055l-0.154,0.242
	c-0.111,0.174-0.249,0.331-0.407,0.463l-0.404,0.336l-0.153,0.229c-0.13,0.195-0.292,0.365-0.481,0.503l-0.784,0.575
	c-0.028,0.021-0.058,0.041-0.087,0.061c-0.222,0.257-0.504,0.451-0.818,0.567l0.144,0.167c0.422,0.492,0.579,1.158,0.422,1.787
	l-0.013,0.05c0.3,0.666,0.22,1.465-0.255,2.064c-0.035,0.133-0.083,0.262-0.145,0.385l-0.209,0.418
	c-0.226,0.452-0.614,0.801-1.087,0.978l-0.418,0.157c-0.058,0.022-0.117,0.041-0.177,0.057l-0.031,0.035
	c-0.187,0.208-0.415,0.373-0.667,0.486c-0.166,0.272-0.396,0.504-0.676,0.673c-0.244,0.147-0.514,0.238-0.79,0.272
	c-0.06,0.152-0.138,0.297-0.235,0.432c-0.041,0.481-0.256,0.939-0.617,1.282c-0.058,0.055-0.119,0.106-0.183,0.153l4.512,5.053
	c0.675,0.755,0.678,1.896,0.008,2.655l-4.66,5.281l0.963,9.954c0.042,0.437-0.06,0.875-0.292,1.248l-5.933,9.558l0.992,11.904
	c0.041,0.493-0.102,0.983-0.401,1.376l-6.631,8.725c-0.185,0.244-0.424,0.442-0.698,0.579l-10.469,5.234
	c-0.14,0.07-0.286,0.122-0.436,0.158c-0.017,0.004-0.034,0.003-0.051,0.006c-0.133,0.028-0.267,0.046-0.402,0.046
	c-0.002,0-0.004,0.001-0.006,0.001c-0.062,0-0.124-0.015-0.186-0.021c-0.083-0.008-0.167-0.009-0.249-0.028
	c-0.145-0.032-0.288-0.081-0.424-0.146l-8.122-3.867C113.96,78.752,113.91,78.887,113.846,79.016z"/>
<path style="fill:#009444;" d="M167.795,110.497l8.53-3.412l0.244-0.09c-0.005-0.11,0-0.221,0.014-0.333l0.052-0.418
	c0-0.004,0.001-0.009,0.001-0.014l-0.119-0.209c-0.229-0.4-0.312-0.867-0.236-1.321l0.052-0.313c0.041-0.248,0.128-0.485,0.258-0.7
	l0.157-0.261c0.145-0.241,0.336-0.446,0.56-0.604l-0.011-0.034c-0.029-0.086-0.052-0.175-0.068-0.264
	c-0.033-0.008-0.066-0.018-0.099-0.028l-0.993-0.313c-0.793-0.25-1.349-0.966-1.395-1.796l-0.052-0.94
	c-0.021-0.376,0.065-0.751,0.249-1.082l0.445-0.841l0.201-0.737c-0.233-0.013-0.463-0.066-0.678-0.159l-0.698-0.256h-0.133
	c-0.061,0-0.121-0.003-0.181-0.008l-0.575-0.052c-0.362-0.033-0.708-0.164-1.001-0.379l-0.784-0.575
	c-0.281-0.206-0.503-0.482-0.645-0.8l-0.209-0.47c-0.03-0.069-0.057-0.139-0.08-0.21l-0.266-0.842l-0.229-0.458l-1.967-2.752
	c-0.072-0.096-0.135-0.198-0.189-0.306l-0.261-0.522c-0.079-0.159-0.137-0.328-0.172-0.502l-0.104-0.522
	c-0.017-0.085-0.029-0.172-0.035-0.259l-0.052-0.784c-0.003-0.044-0.004-0.088-0.004-0.133v-0.366c0-0.141,0.015-0.281,0.044-0.419
	l0.157-0.731c0.016-0.072,0.035-0.144,0.058-0.213l0.104-0.313c0.021-0.061,0.044-0.121,0.07-0.18l0.209-0.47
	c0.116-0.26,0.286-0.493,0.499-0.682l0.47-0.418c0.131-0.117,0.277-0.216,0.434-0.294l0.313-0.157
	c0.055-0.027,0.112-0.053,0.169-0.075l0.544-0.211l0.271-0.298l0.237-0.557l0.055-0.238l-0.023-0.256
	c-0.005-0.06-0.008-0.121-0.008-0.181v-0.552l-0.107-0.456l-0.379-0.802c-0.024-0.05-0.045-0.102-0.065-0.154l-0.157-0.418
	c-0.014-0.038-0.027-0.076-0.039-0.114l-0.477-1.565l-0.48-0.917c-0.082-0.156-0.143-0.322-0.181-0.494l-0.104-0.47
	c-0.011-0.05-0.021-0.101-0.028-0.151l-0.052-0.366c-0.03-0.209-0.026-0.422,0.01-0.63l0.157-0.888
	c0.059-0.33,0.199-0.64,0.408-0.902l0.209-0.261c0.078-0.098,0.165-0.188,0.26-0.269l0.083-0.071l0.189-0.351
	c0.047-0.088,0.101-0.172,0.161-0.252l0.993-1.268c0.042-0.051,0.086-0.101,0.134-0.147l1.985-1.985l6.504-6.818l-8.436-3
	c-0.115-0.041-0.227-0.092-0.332-0.153l-5.433-3.146l-6.606,5.405c-0.08,0.065-0.164,0.124-0.252,0.176l-11.208,6.593l-2.908,9.046
	l-2.493,8.477c0,0.002,0,0.003-0.001,0.005l-0.83,2.82l1.937,7.988l6.979-5.429c0.467-0.364,1.064-0.483,1.635-0.363
	c0.088,0.018,0.177,0.027,0.263,0.057c0.482,0.172,0.874,0.519,1.105,0.962c0.077,0.148,0.136,0.306,0.174,0.473l3.071,13.307
	l4.722,7.968L167.795,110.497z"/>
<path style="fill:#009444;" d="M122.982,82.674c-0.064,0-0.128-0.014-0.192-0.02c0.062,0.006,0.124,0.021,0.186,0.021
	C122.978,82.675,122.98,82.674,122.982,82.674z"/>
<path style="fill:#009444;" d="M128.75,135.769l11.702-2.229l-1.626-7.048c-0.203-0.88,0.208-1.786,1.004-2.213l9.428-5.051
	l6.974-8.369l-3.22-5.434c-0.105-0.177-0.182-0.369-0.228-0.57l-2.437-10.558l-6.95,5.406c-0.537,0.417-1.248,0.533-1.887,0.31
	c-0.641-0.224-1.125-0.757-1.285-1.417l-2.792-11.517c-0.017-0.069-0.03-0.139-0.039-0.21l-0.961,0.481
	c-0.092,0.046-0.187,0.084-0.285,0.116l-8.725,2.792l-8.731,2.353c0.005,0.021,0.01,0.041,0.015,0.062
	c0.319,0.504,0.4,1.129,0.208,1.704l-0.338,0.958c-0.038,0.1-0.083,0.197-0.136,0.29l-0.048,0.084l-0.041,0.204
	c-0.059,0.293-0.182,0.569-0.361,0.808l-0.198,0.338c-0.061,0.164-0.144,0.318-0.245,0.46l-0.261,0.366
	c-0.169,0.237-0.387,0.433-0.639,0.576c0.125,0.24,0.203,0.506,0.223,0.784l0.017,0.239l0.424,0.518
	c0.313,0.382,0.47,0.861,0.451,1.345l0.047,0.065c0.051,0.071,0.097,0.146,0.138,0.223c0.025,0.02,0.05,0.041,0.074,0.062
	l0.418,0.366c0.238,0.208,0.423,0.469,0.54,0.763l0.104,0.261c0.18,0.45,0.19,0.951,0.029,1.408l-0.313,0.888
	c-0.316,0.896-1.219,1.445-2.156,1.316c-0.111,0.209-0.259,0.398-0.438,0.558l-0.337,0.358l-0.236,0.425
	c-0.034,0.061-0.07,0.119-0.11,0.176l-0.014,0.019c0.013,0.13,0.012,0.261,0,0.392l-0.008,0.081l0.219,0.626
	c0.333,0.95-0.093,2-0.993,2.45l-0.418,0.209c-0.411,0.206-0.865,0.258-1.291,0.171l-1.186,9.882l16.574,13.447L128.75,135.769z"/>
<path style="fill:#009444;" d="M152.083,122.087c-0.165,0.197-0.366,0.361-0.592,0.483l-8.423,4.512l1.75,7.583
	c0.123,0.53,0.023,1.087-0.273,1.542c-0.297,0.456-0.767,0.771-1.301,0.873l-14.657,2.792c-0.041,0.008-0.082,0.014-0.123,0.02
	l-1.458,5.507c-0.011,0.041-0.023,0.081-0.036,0.121l-4.283,12.848l9.04,3.5l4.692,1.6c0.001,0,0.001,0,0.002,0l8.31,2.838
	l0.343,0.117c3.913-2.392,8.152-5.151,10.226-6.72c0.479-0.362,0.842-0.661,1.059-0.877c0.041-0.105,0.09-0.208,0.149-0.306
	c0.298-0.5,0.799-0.845,1.373-0.946l6.883-1.206c-0.205-0.321-0.315-0.694-0.315-1.077v-0.418c0-0.395,0.117-0.781,0.336-1.109
	l0.209-0.314c0-0.002-0.001-0.004-0.001-0.006c-0.005-0.007-0.01-0.014-0.015-0.021l-0.261-0.366
	c-0.278-0.39-0.408-0.867-0.364-1.344l0.052-0.575c0.02-0.217,0.075-0.427,0.161-0.623c-0.635-0.39-1.007-1.107-0.946-1.863
	c-0.512-0.188-0.932-0.579-1.151-1.092c-0.24-0.56-0.209-1.194,0.072-1.724c0.04-0.252,0.127-0.496,0.261-0.718l0.469-0.875
	c0.047-0.125,0.106-0.245,0.177-0.358l0.261-0.418c0.048-0.077,0.101-0.15,0.159-0.22l0.261-0.313
	c0.258-0.31,0.592-0.523,0.956-0.633c-0.11-0.216-0.182-0.455-0.208-0.708l-0.052-0.522c-0.018-0.176-0.012-0.354,0.018-0.528
	l0.052-0.313c0.128-0.772,0.688-1.379,1.408-1.59c0.206-0.342,0.513-0.623,0.894-0.794c0.234-0.789,0.931-1.357,1.757-1.423
	c0.858-0.074,1.66,0.417,1.998,1.206l0.083,0.193c0.068-0.015,0.138-0.027,0.209-0.035l0.47-0.052
	c0.073-0.008,0.147-0.012,0.221-0.012h0.625c0.276-0.137,0.579-0.208,0.886-0.209c0.404-0.286,0.899-0.414,1.404-0.351l0.418,0.053
	c0.542,0.068,1.021,0.354,1.34,0.772c0.207,0.071,0.404,0.177,0.581,0.315c0.485,0.379,0.769,0.96,0.769,1.576v0.31
	c0.044,0.062,0.084,0.127,0.122,0.195l0.109,0.2c0.333,0.068,0.646,0.221,0.909,0.448c0.438,0.38,0.689,0.931,0.689,1.511
	l0.027,0.13c0.049,0.172,0.075,0.351,0.077,0.529l0.166,0.266c0.176,0.281,0.276,0.597,0.299,0.919
	c0.221-0.301,0.525-0.537,0.879-0.676c0.016-0.132,0.045-0.263,0.088-0.39l0.104-0.313c0.048-0.145,0.112-0.281,0.189-0.408
	l0.146-0.514c-0.192-0.692,0.001-1.445,0.522-1.959c0.243-0.239,0.535-0.407,0.849-0.498l-0.268-0.312
	c-0.304-0.071-0.591-0.214-0.835-0.421c-0.448-0.38-0.707-0.938-0.707-1.526l-0.032-0.658c-0.089-0.623,0.121-1.252,0.566-1.697
	c0.444-0.445,1.074-0.652,1.697-0.566l0.366,0.052c0.224,0.032,0.44,0.102,0.64,0.205l0.289-0.045
	c0.101-0.016,0.202-0.023,0.304-0.023h0.084c0.101-0.131,0.217-0.249,0.345-0.351c0.234-0.44,0.625-0.778,1.098-0.945
	c0.512-0.181,1.076-0.146,1.562,0.096l0.418,0.209c0.107,0.054,0.209,0.117,0.306,0.189l0.158,0.119l0.28,0.094
	c0.16-0.234,0.371-0.437,0.624-0.588l0.261-0.157c0.167-0.1,0.347-0.175,0.535-0.223c-0.016-0.076-0.028-0.154-0.035-0.232
	l-0.001-0.01l-0.13-0.173c-0.23-0.308-0.368-0.675-0.395-1.058v-0.001l-0.362-0.181c-0.926-0.463-1.345-1.557-0.967-2.52
	c-0.009-0.014-0.017-0.029-0.026-0.043l-0.353-0.61l-0.542-0.384c-0.621-0.444-0.936-1.203-0.81-1.956l0.052-0.313
	c0.007-0.043,0.016-0.086,0.025-0.128c-0.247-0.083-0.477-0.215-0.676-0.389l-0.418-0.366c-0.133-0.116-0.25-0.249-0.347-0.396
	l-0.242-0.363c-0.009,0-0.018,0-0.027,0h-0.575c-0.526,0-1.031-0.208-1.406-0.577c-0.391-0.094-0.748-0.304-1.021-0.607l-0.47-0.522
	c-0.095-0.106-0.179-0.222-0.25-0.346l-0.209-0.366c-0.109-0.19-0.186-0.397-0.227-0.611c-0.119-0.145-0.218-0.307-0.292-0.481
	l-0.157-0.365c-0.074-0.171-0.123-0.353-0.146-0.538l-0.053-0.418c-0.035-0.277-0.011-0.559,0.069-0.826l0.115-0.383l-0.088-0.264
	c-0.173-0.221-0.298-0.477-0.366-0.75l-0.156-0.627c-0.022-0.086-0.038-0.174-0.047-0.263l-0.052-0.47
	c-0.008-0.073-0.012-0.147-0.012-0.221v-0.366c0-0.11,0.009-0.22,0.027-0.329l0.006-0.04l-0.023-0.205
	c-0.046-0.043-0.091-0.088-0.133-0.136l-0.418-0.47c-0.236-0.265-0.397-0.588-0.466-0.937l-0.052-0.261
	c-0.095-0.474-0.015-0.965,0.225-1.384l0.209-0.366c0.039-0.067,0.081-0.133,0.127-0.195c-0.133-0.121-0.25-0.261-0.347-0.415
	l-1.618,0.599l-8.676,3.471c-0.129,0.052-0.263,0.09-0.4,0.113l-8.026,1.396c-0.115,0.02-0.229,0.03-0.343,0.03
	c-0.05,0-0.097-0.015-0.147-0.019c-0.078-0.006-0.154-0.015-0.23-0.03c-0.11-0.021-0.215-0.054-0.319-0.093
	c-0.07-0.026-0.139-0.05-0.206-0.084c-0.11-0.056-0.209-0.126-0.307-0.202c-0.05-0.038-0.104-0.069-0.15-0.113
	c-0.138-0.128-0.262-0.273-0.362-0.44l-0.165-0.279l-0.034-0.058L152.083,122.087z"/>
<path style="fill:#009444;" d="M158.958,115.288c-0.137-0.128-0.262-0.273-0.361-0.44l-0.166-0.279l0.165,0.279
	C158.696,115.015,158.82,115.159,158.958,115.288z"/>
<path style="fill:#009444;" d="M160.66,115.798c-0.165,0.029-0.328,0.023-0.49,0.011c0.05,0.004,0.097,0.019,0.147,0.019
	C160.431,115.828,160.545,115.818,160.66,115.798z"/>
<path style="fill:#009444;" d="M159.108,115.4c0.098,0.075,0.197,0.146,0.307,0.202C159.306,115.546,159.206,115.475,159.108,115.4z
	"/>
<path style="fill:#009444;" d="M159.621,115.686c0.104,0.039,0.209,0.071,0.319,0.093
	C159.83,115.757,159.725,115.725,159.621,115.686z"/>
<path style="fill:#009444;" d="M87.31,114.183c-0.301-0.369-0.459-0.831-0.45-1.303c-0.204,0.004-0.401-0.022-0.597-0.079
	c-0.484-0.141-0.896-0.459-1.154-0.888c-0.065-0.048-0.126-0.099-0.184-0.154l-0.167,0.075c-0.119,0.191-0.271,0.362-0.447,0.503
	l-0.413,0.377c-0.375,0.374-0.883,0.584-1.413,0.584h-0.94c-0.38,0-0.752-0.108-1.073-0.313l-0.417-0.235
	c-0.119-0.034-0.234-0.079-0.345-0.134l-0.273-0.103c-0.266,0.225-0.587,0.375-0.93,0.438l-0.343,0.063l-0.202,0.243
	c-0.039,0.046-0.08,0.091-0.123,0.134l-0.226,0.226l-0.308,0.462c-0.002,0.003-0.004,0.005-0.005,0.008
	c-0.118,0.694-0.595,1.286-1.27,1.539l-0.184,0.116c-0.125,0.106-0.261,0.197-0.407,0.271l-0.522,0.261
	c-0.05,0.024-0.1,0.047-0.152,0.068l-0.204,0.082c-0.078,0.234-0.2,0.455-0.361,0.648l-0.261,0.313
	c-0.311,0.373-0.746,0.62-1.225,0.695l-0.283,0.044c-0.094,0.137-0.205,0.262-0.332,0.374l-0.53,0.528
	c-0.072,0.084-0.151,0.162-0.237,0.233l-0.313,0.262c-0.133,0.111-0.28,0.205-0.437,0.278l-0.784,0.365
	c-0.462,0.216-0.991,0.247-1.477,0.084l-0.313-0.104c-0.335-0.112-0.63-0.309-0.858-0.564l-0.124,0.042
	c-0.204,0.068-0.417,0.103-0.632,0.103l-0.146,0.012c-0.308,0.396-0.752,0.661-1.247,0.744l-0.313,0.053
	c-0.381,0.063-0.771,0.017-1.124-0.136c-0.065-0.005-0.13-0.014-0.194-0.026l-0.706-0.108c-0.24,0.165-0.514,0.274-0.801,0.322
	l-0.313,0.052c-0.004,0.001-0.008,0.001-0.012,0.002l-0.194,0.467c-0.285,0.685-0.926,1.156-1.665,1.223l-0.16,0.015l-0.094,0.063
	l-0.092,0.137c-0.073,0.109-0.157,0.212-0.25,0.305l-0.479,0.488c-0.077,0.537-0.369,1.025-0.817,1.345l-0.253,0.228
	c-0.455,0.545-1.167,0.81-1.865,0.692l-0.676-0.089c-0.235-0.026-0.463-0.093-0.674-0.199l-0.418-0.209
	c-0.386-0.193-0.697-0.505-0.89-0.886l-0.122-0.014c-0.135-0.016-0.269-0.046-0.398-0.089l-0.106-0.036l-0.512,0.068
	c-0.319,0.042-0.641,0.007-0.938-0.1c-0.464,0.465-1.138,0.683-1.808,0.548l-0.261-0.052c-0.221-0.044-0.431-0.125-0.622-0.237
	c-0.056,0.075-0.118,0.146-0.185,0.212l-0.338,0.338c0.257,0.231,0.45,0.525,0.56,0.854l0.152,0.319
	c0.104,0.181,0.177,0.375,0.22,0.575c0.145,0.085,0.279,0.189,0.398,0.309l0.018,0.018l0.324,0.075
	c0.073,0.017,0.145,0.038,0.216,0.063l0.888,0.313c0.543,0.191,0.978,0.608,1.191,1.143l0.06,0.15l0.313,0.198l0.597,0.221
	c0.183,0.061,0.356,0.148,0.515,0.259l0.522,0.366c0.376,0.263,0.65,0.648,0.776,1.089l0.104,0.366
	c0.207,0.721-0.009,1.494-0.55,2.004c-0.009,0.403-0.14,0.799-0.382,1.132l-0.418,0.575c-0.218,0.299-0.512,0.53-0.85,0.67
	l-0.029,0.072c0,0,0,0,0,0.001c0.271,0.379,0.404,0.845,0.367,1.32c-0.05,0.637-0.401,1.212-0.945,1.546l-0.479,0.295l-0.252,0.252
	c-0.207,0.207-0.456,0.366-0.73,0.465l-0.346,0.126c0.244,0.763,0.008,1.602-0.604,2.126l-0.366,0.313
	c-0.096,0.082-0.2,0.155-0.31,0.218l-0.127,0.073c0.032,0.16,0.043,0.325,0.035,0.491c0.048,0.112,0.085,0.229,0.112,0.349
	l0.104,0.47c0.016,0.069,0.027,0.139,0.035,0.209l0.114,0.135c0.137,0.162,0.246,0.343,0.325,0.536
	c0.031,0.038,0.061,0.076,0.089,0.116l0.261,0.366c0.193,0.271,0.316,0.585,0.357,0.915l0.052,0.418
	c0.056,0.444-0.039,0.894-0.27,1.277l-0.09,0.15c0.026,0.105,0.044,0.211,0.054,0.319c0.075,0.149,0.132,0.307,0.168,0.472
	l0.104,0.47c0.179,0.806-0.156,1.64-0.843,2.098l-0.106,0.071l-0.216,0.37c-0.177,0.303-0.431,0.555-0.735,0.729l-0.366,0.209
	c-0.261,0.149-0.549,0.236-0.841,0.258c-0.197,0.296-0.47,0.537-0.793,0.693c-0.174,0.258-0.406,0.471-0.676,0.623
	c-0.026,0.039-0.053,0.076-0.082,0.113c-0.046,0.695-0.451,1.32-1.075,1.644l-1.411,0.731c-0.922,0.477-2.053,0.172-2.608-0.703
	l-0.213-0.335c-0.201,0.158-0.432,0.277-0.685,0.349l-0.366,0.104c-0.14,0.04-0.281,0.064-0.422,0.073
	c-0.431,0.148-0.914,0.149-1.367-0.025l-0.148-0.057c-0.421,0.467-1.049,0.716-1.691,0.65c-0.018,0.161-0.054,0.32-0.111,0.475
	c-0.182,0.496-0.551,0.898-1.027,1.122v0.019c0,0.587-0.258,1.145-0.706,1.525c-0.008,0.007-0.016,0.014-0.024,0.02
	c-0.076,0.331-0.236,0.643-0.474,0.903c-0.512,0.56-1.296,0.781-2.025,0.573l-0.13-0.027h-0.206
	c-0.184,0.13-0.387,0.228-0.604,0.289l-0.366,0.104c-0.206,0.059-0.418,0.085-0.632,0.075c0.179,0.367,0.244,0.786,0.174,1.204
	l-0.052,0.313c-0.05,0.301-0.168,0.586-0.346,0.834l-0.261,0.365c-0.375,0.525-0.981,0.837-1.627,0.837h-0.354l-0.319,0.106
	c-0.195,0.065-0.398,0.1-0.602,0.103c-0.12,0.076-0.249,0.141-0.383,0.189l-1.204,0.452c-0.236,0.094-0.488,0.143-0.743,0.143
	h-0.522c-0.813,0-1.542-0.491-1.85-1.239c-0.222-0.122-0.421-0.286-0.585-0.486l-0.229-0.279l-0.478-0.244
	c-0.192-0.097-0.368-0.223-0.52-0.375l-0.119-0.068c-0.156-0.026-0.309-0.071-0.454-0.134l-0.366-0.156
	c-0.152-0.064-0.294-0.147-0.426-0.247l-0.202-0.027c-0.324-0.043-0.632-0.165-0.896-0.354c0,0-0.001,0.001-0.001,0.001l-0.14,0.321
	c-0.13,0.297-0.33,0.558-0.583,0.76l-0.115,0.092l-0.191,0.224c-0.235,0.274-0.541,0.479-0.883,0.594l-0.47,0.157
	c-0.502,0.168-1.051,0.13-1.524-0.105H12.63c-0.312,0-0.618-0.072-0.896-0.212l-0.313-0.157c-0.106-0.054-0.208-0.116-0.303-0.188
	l-0.083-0.063l-0.096,0.053c-0.074,0.042-0.151,0.078-0.23,0.11l-0.261,0.104c-0.149,0.06-0.305,0.101-0.463,0.123l-0.051,0.229
	c-0.175,0.785-0.803,1.391-1.595,1.534l-0.044,0.008c-0.254,0.205-0.549,0.34-0.857,0.402l-0.028,0.028
	c-0.209,0.21-0.463,0.37-0.743,0.47l0.003,0.004c0.077,0.097,0.144,0.199,0.201,0.307c0.429,0.339,0.699,0.84,0.75,1.381
	c0.744,0.295,1.263,1.021,1.263,1.859v0.93l0.057,0.255c0.058,0.26,0.063,0.525,0.018,0.781l0.196,0.354
	c0.119,0.213,0.197,0.447,0.232,0.689l0.052,0.366c0.041,0.284,0.019,0.568-0.058,0.835l0.011,0.003l1.02-0.093
	c0.237-0.021,0.478-0.001,0.709,0.063l0.162,0.044l0.381-0.076c0.451-0.092,0.917-0.022,1.324,0.191l0.993,0.522
	c0.061,0.032,0.12,0.067,0.178,0.105l0.784,0.522c0.585,0.39,0.917,1.054,0.889,1.744l0.103,0.181
	c0.173,0.303,0.264,0.645,0.264,0.993v0.471c0,0.146-0.016,0.292-0.048,0.435l-0.104,0.47c-0.026,0.118-0.063,0.231-0.108,0.341
	c0.035,0.102,0.061,0.207,0.078,0.314l0.337,0.225c0.498,0.332,0.821,0.869,0.881,1.465l0.104,1.045
	c0.015,0.149,0.013,0.299-0.006,0.447l-0.052,0.418c-0.032,0.26-0.115,0.511-0.244,0.738l-0.581,1.025
	c0.036,0.104,0.063,0.213,0.082,0.323l0.104,0.627c0.097,0.58-0.066,1.173-0.447,1.622c-0.051,0.061-0.106,0.118-0.164,0.172
	c0.002,0.023,0.004,0.048,0.006,0.071c0.338,0.065,0.658,0.217,0.926,0.446l0.366,0.313c0.139,0.119,0.261,0.257,0.362,0.409
	l0.209,0.313h0c0.061,0.003,0.122,0.009,0.183,0.018l0.366,0.052c0.577,0.082,1.09,0.411,1.404,0.902
	c0.254,0.396,0.357,0.866,0.3,1.327c0.083,0.047,0.162,0.1,0.237,0.158l0.313,0.244l0.24,0.12c0.087,0.044,0.17,0.094,0.25,0.149
	c0.477,0.155,0.88,0.486,1.126,0.93l0.062,0.11c0.098,0.031,0.194,0.07,0.287,0.117l1.029,0.489
	c0.242,0.109,0.459,0.267,0.638,0.459c0.345-0.033,0.7,0.02,1.02,0.162l0.47,0.209c0.035,0.016,0.07,0.032,0.105,0.05l0.158-0.01
	c0.042-0.003,0.084-0.004,0.126-0.004h0.418c0.098,0,0.196,0.007,0.293,0.021c0.081-0.248,0.211-0.48,0.383-0.682l-0.487-6.497
	l-7.052-6.09c-0.804-0.694-0.925-1.896-0.275-2.736l5.594-7.239l0.633-5.382c0.117-0.99,0.944-1.743,1.941-1.766l14.466-0.329
	l8.144-9.447c0.334-0.389,0.806-0.633,1.315-0.685l10.958-1.096l-4.837-8.869c-0.511-0.937-0.196-2.111,0.716-2.666l6.431-3.915
	l-4.026-7.765c-0.33-0.636-0.294-1.401,0.094-2.004c0.389-0.604,1.07-0.957,1.786-0.914c4.101,0.216,9.904,0.513,12.67,0.637
	c0.024-1.661-0.177-4.639-0.455-7.144c-0.111-1.004,0.543-1.934,1.527-2.167l11.692-2.77l-0.038-2.019
	C87.798,114.646,87.524,114.445,87.31,114.183z"/>
<path style="fill:#009444;" d="M48.324,183.82l-0.2-0.676c-0.313-1.054,0.284-2.162,1.335-2.481l7.431-2.263l10.431-13.121
	c0.208-0.262,0.477-0.467,0.784-0.597l4.031-1.711c0,0,0.001,0,0.001,0l5.74-2.435l-3.894-10.783
	c-0.239-0.662-0.112-1.4,0.333-1.945c0.445-0.545,1.144-0.818,1.84-0.713l9.863,1.451l1.474-10.907
	c0.107-0.794,0.678-1.447,1.45-1.66l10.12-2.792l8.097-2.024l-5.603-6.621c-0.458-0.542-0.595-1.285-0.36-1.955
	c0.235-0.669,0.807-1.164,1.503-1.3l5.318-1.041l1.081-9.006c-0.134,0.018-0.271,0.023-0.408,0.016l-0.439-0.027l-0.325,0.186
	c-0.097,0.056-0.198,0.103-0.302,0.141c-0.061,0.061-0.125,0.119-0.193,0.171l-0.47,0.366c-0.209,0.163-0.445,0.28-0.695,0.349
	l-0.334,0.382c-0.029,0.034-0.06,0.066-0.091,0.097l-0.418,0.418c-0.084,0.085-0.177,0.162-0.276,0.23l-0.679,0.47
	c-0.054,0.037-0.109,0.072-0.167,0.104l-0.862,0.459c-0.049,0.024-0.099,0.047-0.15,0.067l-0.522,0.209
	c-0.125,0.05-0.254,0.087-0.386,0.111l-0.126,0.087c-0.103,0.165-0.23,0.314-0.377,0.443l-0.687,0.64
	c-0.279,0.279-0.635,0.47-1.022,0.547l-0.261,0.052c-0.592,0.12-1.208-0.038-1.672-0.424l-0.313-0.261
	c-0.003-0.003-0.007-0.006-0.01-0.008l-0.011,0.003c-0.391,0.13-0.813,0.137-1.207,0.018l-0.132-0.04l-0.065,0.007
	c-0.073,0.008-0.147,0.012-0.221,0.012h-0.266c-0.065,0.037-0.132,0.07-0.201,0.1l-0.366,0.157
	c-0.699,0.298-1.506,0.177-2.084-0.316l-1.129-0.961c-0.041-0.007-0.081-0.015-0.121-0.024l0.061,3.305
	c0.018,0.941-0.623,1.767-1.539,1.983l-11.551,2.736c0.741,7.717-0.048,8.599-0.533,9.141c-0.421,0.471-1.018,0.741-1.638,0.741
	c-0.75,0-6.868-0.31-10.925-0.519l3.278,6.323c0.424,0.816,0.23,1.798-0.426,2.397c-0.094,0.086-0.197,0.163-0.309,0.232
	l-6.397,3.894l5.368,9.842c0.321,0.588,0.326,1.299,0.013,1.892s-0.902,0.989-1.569,1.056l-13.165,1.316l-8.203,9.516
	c-0.369,0.429-0.903,0.681-1.469,0.693l-13.617,0.31l-0.495,4.206c-0.042,0.36-0.182,0.702-0.404,0.989l-4.774,6.18l6.244,5.392
	c0.4,0.346,0.647,0.836,0.688,1.364l0.547,7.294l0.202,0.1c0.033,0.017,0.065,0.034,0.098,0.053l0.731,0.418
	c0.115,0.065,0.224,0.143,0.324,0.23l0.284,0.248l0.331,0.198c0.001,0,0.001,0,0.002,0c0.146,0,0.292,0.016,0.434,0.048l0.47,0.104
	c0.241,0.054,0.47,0.151,0.675,0.288l0.15,0.08c0.122,0.041,0.239,0.093,0.351,0.155l0.109,0.009
	c0.365,0.027,0.715,0.155,1.012,0.368l0.366,0.262c0.541,0.387,0.851,1.015,0.835,1.673c0.167,0.073,0.324,0.168,0.466,0.283
	l12.369-8.639l-2.181-7.36C48.324,183.822,48.324,183.821,48.324,183.82z"/>
<path style="fill:#009444;" d="M69.265,138.731c0.423,0.816,0.23,1.798-0.426,2.397C69.496,140.53,69.689,139.548,69.265,138.731z"
	/>
<polygon style="fill:#009444;" points="31.295,195.304 31.295,195.304 30.748,188.01 "/>
<path style="fill:#009444;" d="M80.845,200.024c0-0.299,0.067-0.594,0.196-0.863l3.838-8.026c0.108-0.226,0.258-0.43,0.441-0.601
	l3.247-3.022l-7.087-6.614c-0.572-0.533-0.78-1.353-0.533-2.095l0.867-2.603c-0.001,0-0.003,0-0.004,0c-0.004,0-0.008,0-0.013,0
	c-0.548,0-1.074-0.225-1.453-0.626l-7.925-8.378l-1.708,0.724l-0.577,0.245l-10.502,13.211c-0.252,0.317-0.595,0.551-0.983,0.669
	l-6.127,1.865l2.228,7.519c0.061,0.206,0.088,0.417,0.082,0.624c-0.017,0.622-0.325,1.214-0.854,1.584l-9.664,6.749l3.892,9.731
	l6.547-0.569c1.081-0.111,2.041,0.692,2.161,1.771l0.538,4.835l12.185,2.5c0.404,0.083,0.772,0.288,1.055,0.588l4.025,4.277
	l6.129-7.461V200.024z"/>
<polygon style="fill:#009444;" points="72.419,167.196 70.712,167.921 72.419,167.197 "/>
<path style="fill:#009444;" d="M54.832,192.054c-0.017,0.621-0.325,1.214-0.854,1.584C54.507,193.268,54.814,192.675,54.832,192.054
	z"/>
<polygon style="fill:#009444;" points="53.978,193.638 44.313,200.387 44.314,200.387 "/>
<path style="fill:#009444;" d="M155.004,221.772l-6.226,5.88c-0.298,0.281-0.675,0.464-1.08,0.524l-4.872,0.722l-2.268,0.336
	l2.285,7.671c0.417,0.058,0.819,0.246,1.139,0.565l0.261,0.261c0.037,0.037,0.072,0.076,0.106,0.115l0.313,0.366
	c0.131,0.153,0.239,0.326,0.318,0.512l0.157,0.365c0.014,0.033,0.027,0.066,0.04,0.1l0.111,0.11
	c0.032,0.032,0.063,0.065,0.094,0.101c0.382,0.028,0.753,0.166,1.066,0.405c0.11,0.084,0.21,0.18,0.3,0.282l0.094-0.008
	c0.656-0.057,1.288,0.216,1.7,0.708c0.166,0.091,0.32,0.205,0.456,0.342l0.313,0.313c0.108,0.108,0.204,0.229,0.285,0.358
	c0.264,0.018,0.522,0.087,0.762,0.207l0.218,0.108l0.08,0.01c0.109,0.014,0.217,0.037,0.323,0.068l0.522,0.156
	c0.5,0.149,0.904,0.481,1.152,0.905l0.052-0.143c0.12-0.329,0.323-0.618,0.585-0.841c0.006-0.037,0.013-0.075,0.021-0.112
	l0.104-0.47c0.036-0.163,0.093-0.32,0.168-0.469l0.005-0.049c0.086-0.775,0.614-1.429,1.354-1.676l1.207-0.465
	c0.864-0.37,1.848-0.082,2.388,0.641c0.155-0.313,0.391-0.583,0.685-0.779l0.954-0.667c0.434-0.325,0.981-0.466,1.515-0.375
	c0.535,0.085,1.012,0.383,1.323,0.827l0.366,0.521c0.009,0.013,0.018,0.025,0.026,0.038l0.027,0.002
	c0.11,0.007,0.219,0.022,0.326,0.047l0.718,0.166c0.161-0.057,0.328-0.092,0.497-0.105c0.292-0.126,0.612-0.179,0.932-0.158
	l0.009,0.001c0.539-0.312,1.196-0.355,1.776-0.11h0.006c0.242,0,0.477,0.044,0.695,0.125c0.108-0.363,0.318-0.695,0.616-0.95
	l0.366-0.313c0.144-0.123,0.304-0.225,0.473-0.302c0.097-0.184,0.224-0.354,0.377-0.503c0.136-0.132,0.289-0.243,0.453-0.33
	c0.01-0.012,0.02-0.024,0.03-0.036c-0.036-0.089-0.066-0.18-0.09-0.273l-0.104-0.418c-0.116-0.464-0.062-0.953,0.151-1.38
	l0.017-0.033c-0.02-0.144-0.024-0.29-0.012-0.438c0.048-0.586,0.352-1.12,0.829-1.463l0.044-0.031
	c0.039-0.081,0.084-0.159,0.135-0.235l0.209-0.313c0.166-0.249,0.38-0.451,0.624-0.599c0.321-0.716,1.034-1.18,1.824-1.18h0.47
	c0.31,0,0.615,0.072,0.892,0.21l0.205,0.103c0.551-0.274,1.21-0.283,1.783,0.003l0.012,0.006c0.475-0.166,1.008-0.15,1.487,0.066
	l0.284,0.129c0.54-0.304,1.202-0.346,1.784-0.087c0.163-0.043,0.332-0.064,0.502-0.064h0.732c0.186,0,0.371,0.026,0.549,0.077
	l0.366,0.104c0.12,0.034,0.237,0.08,0.349,0.136l0.313,0.157c0.322,0.162,0.594,0.407,0.788,0.712l0.297,0.465
	c0.474,0.289,0.81,0.766,0.919,1.315l0.114,0.436l0.326,0.653c0.36,0.22,0.65,0.553,0.814,0.965l0.104,0.262
	c0.066,0.166,0.11,0.342,0.13,0.521l0.027,0.243c0.246,0.254,0.413,0.563,0.497,0.89c0.039,0.029,0.077,0.06,0.113,0.092
	c0.102-0.137,0.222-0.262,0.358-0.371l0.784-0.627c0.139-0.111,0.291-0.202,0.452-0.272c0.003-0.111,0.016-0.224,0.038-0.335
	l0.065-0.392c0-0.423,0.134-0.835,0.383-1.177l0.418-0.574c0.3-0.413,0.747-0.694,1.247-0.789l0.058-0.032
	c0.617-0.354,1.365-0.348,1.971-0.008l0.158,0.011c0.005,0.001,0.011,0.001,0.016,0.002c0.28-0.258,0.632-0.436,1.023-0.502
	l0.313-0.053c0.569-0.095,1.152,0.06,1.599,0.426l0.575,0.471c0.038,0.03,0.074,0.062,0.108,0.095
	c-0.163-0.301-0.244-0.637-0.241-0.973l-0.082-0.123c-0.313-0.47-0.413-1.049-0.276-1.595l-0.04-0.276
	c-0.029-0.203-0.026-0.409,0.007-0.611l0.077-0.462c-0.047-0.083-0.088-0.17-0.124-0.259c-0.454-0.203-0.817-0.569-1.017-1.028
	c-0.454-0.321-0.759-0.821-0.829-1.385l-0.125-0.703c-0.179-0.807,0.156-1.64,0.843-2.098l0.313-0.209
	c0.278-0.186,0.598-0.298,0.93-0.328l0.11-0.017l0.637-0.419c0.037-0.403,0.195-0.787,0.455-1.099l0.114-0.137
	c0.006-0.109,0.021-0.217,0.045-0.324l0.104-0.47c0.181-0.812,0.84-1.416,1.642-1.541c0.213-0.113,0.446-0.188,0.687-0.218
	l0.418-0.053c0.334-0.043,0.67,0,0.982,0.123c0.289-0.114,0.602-0.16,0.914-0.13l0.575,0.053c0.429,0.039,0.834,0.216,1.155,0.504
	l0.522,0.47c0.155,0.14,0.287,0.302,0.391,0.48h0.026c0.207-0.16,0.443-0.278,0.696-0.347l0.575-0.157
	c0.437-0.121,0.901-0.087,1.318,0.091l0.366,0.157c0.146,0.063,0.283,0.143,0.41,0.238l0.418,0.313
	c0.106,0.08,0.205,0.17,0.294,0.271l0.418,0.47c0.144,0.161,0.26,0.344,0.345,0.542l0.157,0.366c0.043,0.101,0.078,0.204,0.104,0.31
	c0.283,0.164,0.524,0.396,0.699,0.68c0.102,0.165,0.178,0.342,0.229,0.525c0.264,0.305,0.437,0.69,0.479,1.11l0.083,0.39
	c0.628-0.483,1.491-0.552,2.191-0.161c0.43,0.239,0.745,0.62,0.906,1.062c0.055,0.05,0.106,0.104,0.155,0.16
	c0.614,0.063,1.178,0.409,1.507,0.956c0.429,0.317,0.714,0.794,0.79,1.324l0.052,0.365c0.032,0.225,0.026,0.453-0.019,0.675
	l-0.099,0.496l0.009,0.096c0.049,0.056,0.095,0.114,0.137,0.176c0.317,0.09,0.608,0.257,0.846,0.487l0.076,0.027
	c0.147,0.054,0.287,0.124,0.417,0.21c0.058-0.008,0.116-0.013,0.174-0.015l0.171-0.136c0.125-0.222,0.292-0.418,0.492-0.577
	l0.261-0.209c0.045-0.036,0.092-0.07,0.14-0.103l0.313-0.209c0.122-0.082,0.253-0.149,0.39-0.202l0.462-0.228
	c0.235-0.201,0.512-0.344,0.808-0.42l-0.001-0.018c-0.164-0.296-0.251-0.63-0.251-0.97l-0.037-0.745
	c-0.025-0.203-0.02-0.408,0.017-0.608l-0.035-0.104c-0.094-0.284-0.124-0.585-0.087-0.881l0.016-0.129l-0.004-0.025
	c-0.029-0.175-0.035-0.353-0.018-0.528l0.014-0.142c-0.117-0.412-0.099-0.85,0.051-1.25l0.157-0.418
	c0.067-0.178,0.159-0.346,0.272-0.498l0.032-0.043c0.002-0.01,0.005-0.019,0.008-0.028c-0.015-0.097-0.022-0.195-0.022-0.294
	l-0.05-0.1c-0.042-0.085-0.079-0.173-0.108-0.263l-0.157-0.471c-0.038-0.113-0.065-0.23-0.083-0.349l-0.052-0.365
	c-0.006-0.043-0.011-0.087-0.014-0.13l-0.052-0.68c-0.036-0.47,0.095-0.936,0.367-1.316c0-0.002,0.001-0.004,0.001-0.007
	c-0.038-0.401,0.046-0.807,0.243-1.16l0.03-0.055c-0.083-0.223-0.125-0.459-0.125-0.697l-0.039-0.802l-0.095-0.619
	c-0.059-0.385-0.005-0.777,0.156-1.132l0.261-0.574c0.039-0.087,0.084-0.17,0.136-0.25c0.006-0.14,0.026-0.279,0.062-0.415
	c-0.424-0.092-0.811-0.319-1.098-0.654l-0.314-0.358l-0.391-0.249c-0.331-0.211-0.59-0.513-0.748-0.864l-0.07-0.057
	c-0.334-0.273-0.57-0.646-0.675-1.064l-0.157-0.628c-0.063-0.252-0.076-0.514-0.039-0.771l0.053-0.365
	c0.031-0.216,0.098-0.425,0.195-0.617c-0.188-0.153-0.347-0.339-0.468-0.548c-0.012-0.001-0.024-0.002-0.037-0.002
	c-0.336,0.239-0.741,0.37-1.16,0.37h-0.366c-0.263,0-0.52-0.052-0.757-0.149c-0.495,0.203-1.053,0.2-1.551-0.015
	c-0.459-0.198-0.821-0.559-1.025-1.003c-0.553,0.2-1.168,0.151-1.682-0.142l-0.366-0.209c-0.199-0.113-0.376-0.26-0.525-0.434
	l-0.173-0.202l-10.965,2.924l-4.907,3.925c-0.355,0.284-0.795,0.438-1.25,0.438h-12.145l-6.409,5.769
	c-0.107,0.096-0.225,0.176-0.347,0.246c-0.038,0.022-0.078,0.038-0.117,0.058c-0.089,0.043-0.18,0.081-0.274,0.11
	c-0.046,0.014-0.091,0.028-0.138,0.039c-0.099,0.024-0.2,0.038-0.302,0.046c-0.039,0.003-0.077,0.01-0.117,0.011
	c-0.014,0-0.029,0.004-0.043,0.004c-0.13,0-0.262-0.013-0.392-0.039l-13.039-2.607L155.004,221.772z"/>
<path style="fill:#009444;" d="M146.347,170.328c-0.139,0.084-0.286,0.15-0.438,0.197l-0.348,4.526
	c-0.032,0.42-0.194,0.807-0.45,1.117l0.289,4.911l0.115,1.964l11.615,10.619c0.517,0.473,0.749,1.181,0.611,1.868l-1.596,7.983
	l5.113,8.833c0.05,0.006,0.099,0.015,0.149,0.024l12.975,2.595l6.233-5.61c0.367-0.331,0.844-0.514,1.338-0.514h12.21l4.687-3.749
	c0.216-0.174,0.466-0.3,0.734-0.371l10.342-2.758c-0.182-0.271-0.296-0.585-0.33-0.915l-0.052-0.522
	c-0.069-0.697,0.23-1.379,0.79-1.799l0.066-0.05l0.157-0.291c0.02-0.038,0.042-0.074,0.064-0.11
	c-0.014-0.067-0.024-0.137-0.032-0.206l-0.002-0.028c-0.343-0.01-0.682-0.108-0.981-0.291c-0.224-0.066-0.438-0.173-0.63-0.317
	l-0.418-0.313c-0.27-0.202-0.483-0.469-0.622-0.774l-0.262-0.24c-0.066-0.061-0.129-0.126-0.187-0.195l-0.51-0.204
	c-0.304-0.122-0.573-0.316-0.785-0.566l-0.575-0.68c-0.295-0.349-0.459-0.785-0.472-1.233c-0.087-0.123-0.161-0.257-0.219-0.399
	c-0.083-0.069-0.162-0.146-0.233-0.229c-0.161-0.186-0.285-0.397-0.368-0.623c-0.276-0.255-0.48-0.587-0.579-0.962
	c-0.042-0.053-0.081-0.107-0.117-0.164c-0.003-0.003-0.007-0.006-0.011-0.009l-0.313-0.261c-0.614-0.511-0.865-1.337-0.64-2.103
	l0.104-0.354c-0.094-0.551,0.047-1.118,0.391-1.563c0.001-0.033,0.003-0.067,0.006-0.101l-0.11-0.195
	c-0.406,0.184-0.867,0.229-1.308,0.118l-0.331-0.082l-0.584,0.034c-0.679,0.031-1.291-0.261-1.684-0.754
	c-0.542-0.25-0.955-0.734-1.104-1.332l-0.093-0.335c-0.026-0.033-0.051-0.066-0.076-0.102l-0.366-0.522
	c-0.086-0.123-0.157-0.254-0.213-0.391c-0.142-0.171-0.256-0.365-0.334-0.576l-0.157-0.418c-0.108-0.287-0.148-0.596-0.118-0.901
	l0.104-1.045c0.006-0.059,0.015-0.117,0.025-0.175l0.174-0.913l-0.07-0.257c-0.106-0.097-0.202-0.203-0.284-0.317
	c-0.354,0.248-0.789,0.385-1.248,0.358c-0.161-0.008-0.317-0.035-0.467-0.079c-0.395,0.32-0.894,0.478-1.394,0.443
	c-0.18,0.235-0.409,0.427-0.668,0.563c-0.107,0.176-0.243,0.337-0.407,0.477c-0.184,0.157-0.39,0.276-0.606,0.356
	c-0.153,0.27-0.368,0.501-0.629,0.676l-0.47,0.313c-0.234,0.156-0.5,0.262-0.777,0.309l-0.109,0.018
	c-0.01,0.014-0.019,0.027-0.029,0.04c-0.155,0.522-0.52,0.969-1.021,1.221l-0.313,0.157c-0.535,0.267-1.162,0.282-1.709,0.039
	l-0.322-0.143c-0.054-0.002-0.107-0.007-0.161-0.014l-0.157-0.02c-0.576,0.173-1.204,0.084-1.706-0.257
	c-0.429-0.29-0.724-0.732-0.833-1.228c-0.302-0.019-0.599-0.106-0.867-0.26l-0.366-0.209c-0.076-0.043-0.148-0.091-0.217-0.144
	l-0.14,0.122c-0.516,0.451-1.227,0.608-1.882,0.412c-0.142-0.042-0.278-0.099-0.404-0.169c-0.14,0.115-0.296,0.213-0.464,0.287
	l-0.47,0.209c-0.595,0.267-1.281,0.223-1.839-0.11l-0.261-0.156c-0.175-0.105-0.333-0.236-0.469-0.389l-0.418-0.471
	c-0.285-0.321-0.449-0.71-0.492-1.108c-0.089-0.051-0.174-0.108-0.254-0.173l-0.261-0.209c-0.385-0.308-0.642-0.747-0.723-1.232
	l-0.052-0.313c-0.062-0.371-0.018-0.752,0.126-1.099l0.144-0.344l0.024-0.27c0.019-0.204,0.068-0.401,0.145-0.586
	c-0.464-0.604-0.549-1.43-0.198-2.122c-0.156-0.073-0.302-0.165-0.435-0.275l-0.313-0.261c-0.413-0.344-0.661-0.829-0.711-1.343
	c-0.128-0.104-0.244-0.223-0.343-0.355l-0.313-0.419c-0.213-0.285-0.347-0.623-0.386-0.978l-0.052-0.47
	c-0.025-0.224-0.012-0.448,0.038-0.665c-0.004-0.017-0.007-0.034-0.011-0.052l-0.038-0.189c-0.399-0.111-0.761-0.346-1.027-0.679
	l-0.209-0.262c-0.251-0.315-0.402-0.698-0.432-1.101l-0.052-0.706c-0.053-0.019-0.106-0.038-0.157-0.061
	c-0.415-0.035-0.813-0.198-1.135-0.475l-0.059-0.051l-0.17-0.038c-0.553-0.123-1.027-0.474-1.306-0.967
	c-0.15-0.265-0.236-0.556-0.255-0.853c-0.081-0.104-0.152-0.216-0.211-0.335l-0.418-0.836c-0.139-0.278-0.211-0.584-0.211-0.895
	v-0.313c0-0.06,0.003-0.12,0.008-0.179c-0.122-0.048-0.239-0.109-0.349-0.181l-6.292,1.102
	C158.027,162.875,154.527,165.377,146.347,170.328z"/>
<polygon style="fill:#009444;" points="159.432,161.362 165.724,160.26 165.724,160.26 "/>
<path style="fill:#009444;" d="M113.945,264.518c-0.551,0.359-1.244,0.424-1.853,0.17l-8.652-3.579l-4.311,6.035
	c-0.086,0.121-0.187,0.225-0.294,0.321c-0.028,0.025-0.056,0.048-0.085,0.071c-0.095,0.076-0.195,0.144-0.301,0.201
	c-0.02,0.011-0.037,0.024-0.057,0.034c-0.125,0.062-0.256,0.109-0.391,0.144c-0.032,0.008-0.065,0.013-0.098,0.02
	c-0.11,0.023-0.222,0.036-0.335,0.04c-0.023,0.001-0.044,0.008-0.067,0.008c-0.014,0-0.028-0.004-0.043-0.004
	c-0.08-0.002-0.159-0.011-0.239-0.023c-0.039-0.006-0.079-0.008-0.118-0.016c-0.119-0.024-0.237-0.058-0.352-0.105l-10.621-4.315
	l-12.333,2.334c-0.157,0.029-0.316,0.04-0.472,0.032c-0.47-0.024-0.921-0.211-1.27-0.54l-5.563-5.235l-12.34-3.248l-4.183,0.761
	l6.741,2.661c1.026,0.405,1.531,1.564,1.127,2.592l-3.64,9.266l1.083,6.863l0.069,0.039c0.72,0.4,1.12,1.201,1.009,2.017
	l0.166,0.083c0.268,0.134,0.5,0.324,0.68,0.555c0.212,0.064,0.412,0.164,0.591,0.294l0.411-0.051
	c0.213-0.029,0.431-0.02,0.639,0.023c0.283-0.089,0.578-0.113,0.862-0.074c0.262-0.07,0.539-0.089,0.814-0.048
	c0.292,0.043,0.567,0.15,0.808,0.309c0.147-0.018,0.296-0.021,0.445-0.008c0.02-0.005,0.039-0.01,0.059-0.014l0.471-0.104
	c0.668-0.15,1.365,0.055,1.848,0.538l0.313,0.313c0.331,0.331,0.535,0.768,0.578,1.233l0.031,0.344l0.083,0.249
	c0.037,0.109,0.064,0.223,0.081,0.338l0.019,0.033c0.009,0.016,0.018,0.032,0.027,0.048l0.743-0.318
	c0.16-0.068,0.328-0.116,0.5-0.141l0.366-0.053c0.513-0.075,1.031,0.053,1.45,0.354l0.212,0.151
	c0.069-0.127,0.152-0.247,0.248-0.358c0.38-0.438,0.931-0.689,1.511-0.689h0.313c0.204,0,0.407,0.031,0.602,0.093l0.342,0.107
	c0.273-0.057,0.557-0.058,0.833,0.001l0.307,0.065l0.493-0.295c0.311-0.187,0.667-0.285,1.029-0.285h0.114
	c0.239-0.357,0.588-0.63,0.997-0.773l0.888-0.313c0.37-0.131,0.771-0.15,1.15-0.055l0.418,0.104
	c0.053,0.014,0.106,0.029,0.158,0.047c0.174-0.147,0.373-0.265,0.59-0.346l0.418-0.156c0.453-0.169,0.946-0.168,1.39-0.005
	c0.147-0.322,0.381-0.606,0.687-0.816c0.663-0.454,1.532-0.469,2.207-0.037c0.359,0.006,0.717,0.107,1.031,0.305
	c0.401-0.129,0.837-0.128,1.243,0.007l0.313,0.104c0.009,0.003,0.017,0.006,0.026,0.009c0.026-0.12,0.063-0.238,0.111-0.352
	c0.007-0.293,0.078-0.583,0.21-0.849l0.209-0.418c0.073-0.146,0.164-0.282,0.27-0.406l0.313-0.366
	c0.358-0.418,0.872-0.67,1.42-0.696l1.045-0.052c0.115-0.009,0.23-0.002,0.345,0.013l0.296,0.036h0.503
	c0.205,0,0.407,0.031,0.601,0.093c0.454-0.143,0.949-0.122,1.391,0.07l0.58,0.242c0.129,0.051,0.251,0.115,0.367,0.192l0.313,0.209
	c0.796,0.53,1.104,1.551,0.737,2.434l-0.502,1.255c-0.052,0.134-0.117,0.261-0.194,0.379c0.005,0.015,0.011,0.03,0.016,0.046
	l0.104,0.313c0.137,0.411,0.137,0.854,0,1.265l-0.157,0.471c-0.056,0.169-0.135,0.329-0.233,0.478l-0.209,0.313
	c-0.011,0.018-0.023,0.034-0.035,0.051l0.022,0.134l0.621,0.552c0.016-0.079,0.037-0.156,0.063-0.232l0.157-0.47
	c0.114-0.344,0.32-0.65,0.595-0.886l0.366-0.313c0.311-0.267,0.695-0.431,1.1-0.472l0.406-0.416c0.203-0.203,0.446-0.359,0.715-0.46
	l0.418-0.156c0.104-0.039,0.211-0.069,0.321-0.091l0.313-0.183c0.37-0.216,0.801-0.307,1.226-0.26l0.47,0.052
	c0.038,0.005,0.076,0.01,0.113,0.016l0.243,0.025c0.49,0,0.963,0.18,1.329,0.505l0.295,0.263l0.473,0.254
	c0.119,0.064,0.231,0.14,0.334,0.227l0.141,0.117c0.212,0.019,0.421,0.07,0.618,0.154l0.225,0.075
	c0.438,0.074,0.829,0.288,1.123,0.6h0.061c0.384,0,0.755,0.11,1.073,0.313c0.003,0,0.007,0.001,0.01,0.002l0.009-0.003
	c0.553-0.186,1.153-0.116,1.645,0.173l0.637,0.043c0.349,0.023,0.685,0.138,0.975,0.331l0.313,0.209
	c0.064,0.043,0.125,0.089,0.184,0.139l0.2,0.046c0.4,0.092,0.753,0.302,1.021,0.592c0.225-0.06,0.458-0.077,0.691-0.06
	c0.309-0.107,0.639-0.139,0.965-0.089l0.064,0.01c0.236-0.093,0.483-0.138,0.728-0.138c0.579,0,1.147,0.251,1.538,0.72l0.143,0.171
	c0.146-0.218,0.333-0.407,0.555-0.555l0.313-0.209c0.075-0.05,0.152-0.095,0.232-0.134c-0.105-0.276-0.148-0.575-0.124-0.876
	l0.052-0.627c0.043-0.521,0.289-1.003,0.683-1.345l0.784-0.68c0.033-0.028,0.067-0.057,0.102-0.083l1.515-1.149
	c0.033-0.024,0.066-0.048,0.1-0.07l0.313-0.209c0.329-0.219,0.714-0.336,1.109-0.336h0.627c0.229,0,0.458,0.04,0.674,0.117
	l0.273,0.098c0.607-0.047,1.185,0.18,1.6,0.615l0.498,0.522c0.063-0.372,0.231-0.723,0.489-1.008
	c0.12-0.132,0.255-0.246,0.401-0.341l0.128-0.257c0.156-0.313,0.389-0.574,0.672-0.765l-0.104-0.466
	c-0.045-0.203-0.058-0.411-0.04-0.617c-0.285-0.216-0.512-0.509-0.649-0.853l-0.025-0.063c-0.481-0.175-0.878-0.527-1.108-0.986
	l-0.209-0.418c-0.244-0.487-0.274-1.045-0.102-1.546c-0.021-0.32,0.035-0.645,0.167-0.943l0.209-0.471
	c0.049-0.111,0.109-0.218,0.177-0.317c-0.071-0.149-0.124-0.308-0.156-0.473c-0.424-0.354-0.682-0.869-0.713-1.423
	c-0.031-0.567,0.181-1.122,0.583-1.524l0.313-0.313c0.083-0.083,0.172-0.158,0.268-0.226l0.522-0.365
	c0.003-0.002,0.007-0.004,0.011-0.007c-0.841-0.173-1.498-0.875-1.586-1.76l-0.052-0.522c-0.003-0.029-0.005-0.058-0.006-0.087
	c-0.313-0.439-0.435-0.989-0.335-1.523c0.109-0.585,0.473-1.092,0.994-1.381l0.159-0.089c0.149-0.375,0.409-0.699,0.75-0.926
	l0.313-0.209c0.128-0.085,0.265-0.155,0.409-0.209l0.418-0.156c0.342-0.129,0.705-0.158,1.051-0.096
	c0.014-0.061,0.031-0.12,0.05-0.18l0.261-0.783c0.244-0.729,0.884-1.255,1.647-1.352l0.418-0.053
	c0.116-0.016,0.234-0.021,0.351-0.013l0.377,0.019c0.123-0.233,0.291-0.438,0.492-0.606l0.027-0.099l-0.058-0.185l-0.226-0.542
	c-0.03-0.072-0.055-0.145-0.077-0.22l-0.104-0.365c-0.216-0.755,0.031-1.554,0.607-2.057c0.02-0.258,0.089-0.512,0.206-0.746
	l0.157-0.313c0.046-0.092,0.099-0.18,0.158-0.263c-0.066,0.049-0.14,0.084-0.211,0.124c-0.043,0.024-0.082,0.054-0.127,0.075
	c-0.139,0.066-0.284,0.119-0.436,0.152l-4.525,0.97L113.945,264.518z"/>
<path style="fill:#009444;" d="M133.294,254.153c0.046-0.014,0.093-0.025,0.14-0.035c0.167-0.444,0.491-0.823,0.923-1.057
	l0.625-0.337c-0.05-0.073-0.103-0.151-0.152-0.22l-2.209,1.869c0.098-0.046,0.201-0.085,0.307-0.115L133.294,254.153z"/>
<path style="fill:#009444;" d="M73.935,261.62c0.029-0.105,0.077-0.204,0.122-0.304c0.022-0.047,0.033-0.098,0.058-0.144
	c0.078-0.141,0.174-0.274,0.287-0.395l4.736-5.075l1.062-1.796l-4.165,2.01c-0.8,0.389-1.761,0.198-2.356-0.463l-3.141-3.49
	c-0.24-0.267-0.404-0.594-0.474-0.945l-1.396-6.979c-0.107-0.534,0.009-1.089,0.32-1.536l7.895-11.327l0.105-0.264l0-0.001
	l3.008-7.519l-3.635,4.424c-0.365,0.444-0.903,0.71-1.478,0.729c-0.022,0.001-0.045,0.001-0.067,0.001
	c-0.053,0-0.104-0.012-0.156-0.016c-0.08-0.006-0.16-0.009-0.238-0.024c-0.042-0.009-0.082-0.025-0.124-0.036
	c-0.09-0.024-0.181-0.047-0.267-0.084c-0.05-0.021-0.095-0.053-0.144-0.078c-0.072-0.038-0.146-0.072-0.213-0.119
	c-0.113-0.079-0.219-0.169-0.315-0.271l-5.149-5.472l-12.989-2.665c-0.85-0.174-1.49-0.876-1.586-1.738l-0.482-4.34l-6.081,0.528
	c-0.881,0.069-1.703-0.432-2.03-1.249l-4.097-10.243l-3.168,2.213c-0.024,0.105-0.057,0.208-0.097,0.309
	c0.014,0.024,0.027,0.051,0.041,0.076l0.143,0.286l0.243,0.273c0.254,0.286,0.421,0.64,0.48,1.018
	c0.172,0.323,0.25,0.685,0.23,1.043c0.088,0.205,0.14,0.425,0.155,0.649l0.052,0.784c0.021,0.314-0.033,0.627-0.154,0.912
	c0.164,0.328,0.231,0.688,0.205,1.043l0.015,0.027c0.101,0.181,0.173,0.377,0.213,0.58l0.016,0.079
	c0.066,0.083,0.125,0.17,0.178,0.262l0.16,0.244l0.426,0.179c0.066,0.01,0.133,0.022,0.198,0.039l0.627,0.156
	c0.947,0.235,1.585,1.121,1.511,2.094l-0.008,0.108c0.046,0.128,0.079,0.261,0.099,0.396l0.023,0.16l0.324,0.842
	c0.057,0.142,0.097,0.289,0.12,0.439l0.193,1.113c0.124,0.616-0.05,1.253-0.467,1.722l-0.418,0.47
	c-0.407,0.457-1.001,0.7-1.61,0.668l-0.888-0.052c-0.295-0.018-0.582-0.1-0.841-0.241l-0.311-0.169
	c-0.091-0.021-0.181-0.047-0.268-0.08l-0.418-0.156c-0.066-0.024-0.131-0.053-0.194-0.084l-0.418-0.209
	c-0.199-0.1-0.38-0.231-0.535-0.391c-0.024,0.007-0.048,0.014-0.072,0.02l-0.627,0.156c-0.201,0.051-0.41,0.069-0.616,0.056
	l-0.021,0.007c-0.4,0.131-0.816,0.132-1.198,0.02c-0.088,0.071-0.182,0.136-0.281,0.191c-0.021,0.02-0.041,0.039-0.062,0.058
	l-0.522,0.47c-0.105,0.096-0.22,0.178-0.342,0.247c-0.035,0.316-0.145,0.622-0.324,0.891l-0.209,0.313
	c-0.052,0.078-0.11,0.153-0.173,0.224c0.155,0.324,0.22,0.686,0.187,1.044c0.037,0.027,0.073,0.058,0.108,0.088l0.418,0.365
	c0.487,0.426,0.739,1.061,0.674,1.705l-0.026,0.257l0.008,0.051c0.162,0.971-0.407,1.915-1.34,2.227l-0.313,0.104
	c-0.102,0.034-0.206,0.06-0.31,0.076l-0.229,0.431c-0.17,0.319-0.424,0.587-0.735,0.773l-0.062,0.036
	c-0.025,0.054-0.053,0.105-0.083,0.156l0.01,0.105c0.027,0.299-0.013,0.6-0.118,0.88l0.029,0.138
	c0.057,0.268,0.059,0.543,0.005,0.812l-0.104,0.522c-0.126,0.631-0.548,1.163-1.135,1.429l-0.417,0.189
	c-0.069,0.185-0.167,0.36-0.292,0.522l-0.366,0.471c-0.275,0.354-0.661,0.604-1.096,0.713l-0.183,0.046
	c-0.399,0.316-0.894,0.455-1.386,0.427c-0.2,0.101-0.417,0.168-0.64,0.197l-0.012,0.069c-0.11,0.661-0.54,1.207-1.122,1.481
	c0,0.006,0,0.013,0,0.019v0.365c0,0.088-0.006,0.176-0.018,0.263c0.021,0.077,0.037,0.156,0.049,0.235l0.053,0.365
	c0.006,0.04,0.01,0.081,0.014,0.121c0.081,0.188,0.133,0.388,0.154,0.593l0.008,0.077l0.083,0.14
	c0.009,0.016,0.019,0.031,0.028,0.048l0.521,0.429c0.476,0.393,0.742,0.979,0.728,1.589l0.037,0.027
	c0.027,0.02,0.053,0.041,0.079,0.062l0.046,0.038l0.247,0.09c0.043,0.017,0.086,0.033,0.129,0.053l0.47,0.209
	c0.326,0.145,0.608,0.375,0.816,0.666l0.261,0.366c0.186,0.26,0.306,0.562,0.352,0.878l0.02,0.142l0.18,0.469
	c0.034,0.087,0.061,0.177,0.082,0.268l0.018,0.078c0.032,0.025,0.063,0.052,0.093,0.078l0.662,0.591
	c0.395,0.132,0.74,0.383,0.985,0.721l0.427,0.585l0.355,0.284c0.688,0.55,0.935,1.485,0.608,2.303l-0.104,0.262
	c-0.314,0.788-1.089,1.283-1.938,1.257l-0.166-0.007c-0.255,0.184-0.555,0.307-0.878,0.354l-0.473,0.102
	c-0.262,0.074-0.532,0.095-0.794,0.06c0.016,0.299-0.035,0.597-0.149,0.872c0.06,0.271,0.064,0.553,0.009,0.828l-0.065,0.496v0.313
	c0,0.095-0.007,0.189-0.02,0.283l-0.042,0.295l0.03,0.102c0.098,0.324,0.11,0.666,0.04,0.993c0.115,0.067,0.224,0.146,0.324,0.236
	l0.153,0.139c0.223,0.084,0.43,0.208,0.61,0.366l0.418,0.366c0.509,0.445,0.758,1.118,0.662,1.787l-0.032,0.225l0.124,0.33
	c0.329,0.17,0.601,0.428,0.791,0.741c0.146,0.107,0.276,0.235,0.389,0.38l0.045,0.027c0.59,0.215,1.038,0.69,1.223,1.275
	c0.063,0.071,0.122,0.146,0.175,0.227l0.209,0.313c0.273,0.409,0.385,0.905,0.316,1.393l-0.008,0.056
	c0.28,0.193,0.501,0.451,0.651,0.747c0.238,0.12,0.454,0.288,0.631,0.499l0.253,0.126c0.247,0.124,0.465,0.297,0.642,0.509
	l0.261,0.313c0.354,0.426,0.517,0.979,0.448,1.528l-0.025,0.204l0.033,0.36c0.01,0.109,0.011,0.22,0.003,0.33l0.019,0.048
	c0.128,0.321,0.171,0.671,0.125,1.014l-0.101,0.743c0.09,0.175,0.154,0.361,0.19,0.553c0.009,0.016,0.019,0.03,0.027,0.046
	c0.389,0.032,0.768,0.178,1.085,0.432l0.13,0.054c0.19,0.07,0.366,0.169,0.522,0.29c0.039-0.009,0.078-0.017,0.117-0.023
	l0.818-0.116c0.006-0.001,0.012-0.002,0.018-0.003c0.006-0.004,0.013-0.007,0.02-0.011l0.366-0.209
	c0.545-0.312,1.205-0.351,1.782-0.101l0.479,0.158c0.243,0.061,0.472,0.167,0.676,0.312l0.239,0.171l0.384,0.192
	c0.334,0.167,0.611,0.423,0.804,0.734c0.108,0.037,0.213,0.084,0.314,0.14l0.261,0.145l0.343,0.095
	c0.175,0.048,0.343,0.119,0.499,0.212l0.261,0.156c0.195,0.117,0.368,0.266,0.513,0.44c0.308,0.126,0.58,0.326,0.792,0.584
	l0.276,0.338c0.012-0.002,0.024-0.004,0.036-0.006l0.351-0.225c0.918-0.591,2.14-0.334,2.745,0.573l0.019,0.028
	c0.117-0.021,0.236-0.031,0.354-0.031c0.229,0,0.459,0.039,0.679,0.119c0.169,0.061,0.327,0.144,0.471,0.245l-0.508-3.218
	c-0.056-0.352-0.016-0.712,0.114-1.043l3.108-7.913l-11.404-4.501c-0.831-0.328-1.343-1.167-1.256-2.056
	c0.087-0.89,0.753-1.612,1.632-1.772l11.516-2.095c0.289-0.053,0.583-0.041,0.867,0.033l13.261,3.49
	c0.322,0.085,0.619,0.25,0.861,0.479l5.074,4.775C73.934,261.622,73.935,261.621,73.935,261.62z"/>
<path style="fill:#009444;" d="M76.363,227.816c-0.365,0.444-0.903,0.71-1.478,0.729C75.46,228.526,75.999,228.261,76.363,227.816z"
	/>
<path style="fill:#009444;" d="M74.033,228.386c-0.05-0.022-0.096-0.053-0.144-0.078C73.938,228.333,73.983,228.364,74.033,228.386z
	"/>
<path style="fill:#009444;" d="M73.676,228.189c-0.113-0.079-0.219-0.169-0.315-0.271C73.457,228.02,73.563,228.11,73.676,228.189z"
	/>
<path style="fill:#009444;" d="M74.424,228.507c-0.042-0.008-0.082-0.025-0.124-0.036C74.342,228.481,74.382,228.498,74.424,228.507
	z"/>
<path style="fill:#009444;" d="M74.818,228.547c0.022,0,0.045,0,0.067-0.001c-0.075,0.003-0.149-0.01-0.223-0.015
	C74.714,228.535,74.765,228.547,74.818,228.547z"/>
<polygon style="fill:#009444;" points="40.946,202.739 40.946,202.739 45.043,212.982 "/>
<path style="fill:#009444;" d="M141.439,184.315c-0.328,0.159-0.655,0.32-0.98,0.482c-0.074,0.037-0.146,0.073-0.219,0.11
	c-0.267,0.134-0.532,0.267-0.793,0.4c-0.11,0.056-0.221,0.112-0.329,0.168c-0.288,0.147-0.571,0.293-0.846,0.436
	c-0.129,0.067-0.253,0.132-0.379,0.198c-0.169,0.088-0.335,0.175-0.497,0.261c-0.241,0.127-0.472,0.249-0.694,0.367
	c-0.103,0.055-0.209,0.111-0.308,0.164c-0.16,0.086-0.311,0.167-0.458,0.246c-0.065,0.035-0.129,0.069-0.192,0.103
	c-0.269,0.145-0.513,0.277-0.724,0.393c-0.025,0.013-0.053,0.029-0.077,0.042c-0.109,0.059-0.207,0.113-0.297,0.162
	c-0.107,0.059-0.221,0.121-0.298,0.164l-10.64,11.458l4.659,3.494c0.155,0.116,0.293,0.255,0.408,0.411l5.729,7.752l9.489,6.438
	c0.574,0.39,0.905,1.049,0.875,1.742l-0.229,5.281l1.853-0.274l5.824-5.501c0.037-0.035,0.075-0.068,0.115-0.101l5.373-4.351
	l-5.497-9.495c-0.244-0.421-0.326-0.917-0.23-1.395l1.523-7.617l-11.381-10.406c-0.092-0.083-0.173-0.176-0.247-0.273
	c-0.025-0.033-0.044-0.069-0.066-0.103c-0.045-0.068-0.089-0.135-0.125-0.207c-0.022-0.044-0.038-0.089-0.056-0.135
	c-0.028-0.068-0.055-0.136-0.075-0.206c-0.014-0.049-0.023-0.099-0.034-0.149c-0.009-0.043-0.023-0.085-0.029-0.129
	C141.536,184.268,141.488,184.291,141.439,184.315z"/>
<polygon style="fill:#009444;" points="144.637,224.587 146.49,224.313 144.637,224.587 "/>
<path style="fill:#009444;" d="M141.904,185.07c0.023,0.034,0.041,0.07,0.066,0.103C141.945,185.141,141.927,185.105,141.904,185.07
	z"/>
<path style="fill:#009444;" d="M141.723,184.729c0.018,0.045,0.034,0.091,0.056,0.135
	C141.758,184.82,141.742,184.774,141.723,184.729z"/>
<polygon style="fill:#009444;" points="157.802,214.36 152.305,204.865 157.802,214.36 "/>
<path style="fill:#009444;" d="M141.614,184.373c0.01,0.05,0.02,0.1,0.034,0.149C141.634,184.473,141.625,184.423,141.614,184.373z"
	/>
<path style="fill:#009444;" d="M83.682,172.066l34.408-21.206c0.164-0.101,0.34-0.177,0.525-0.228l2.673-0.724l1.865-5.595
	l1.729-6.532l-16.427-13.328c-0.068-0.056-0.133-0.116-0.193-0.179l-1.45,0.284l5.477,6.473c0.446,0.527,0.589,1.248,0.377,1.905
	c-0.212,0.658-0.749,1.16-1.419,1.327l-11.167,2.792l-8.8,2.428l-1.568,11.603c-0.071,0.53-0.352,1.009-0.779,1.331
	c-0.426,0.321-0.963,0.461-1.494,0.38l-8.558-1.258l3.401,9.419c0.09,0.25,0.128,0.506,0.118,0.757
	c-0.03,0.752-0.485,1.453-1.218,1.763l-4.834,2.051l6.253,6.611L83.682,172.066z"/>
<polygon style="fill:#009444;" points="108.456,124.454 124.882,137.782 124.882,137.782 "/>
<polygon style="fill:#009444;" points="108.263,124.275 106.813,124.559 108.263,124.275 "/>
<path style="fill:#009444;" d="M82.401,161.715c-0.03,0.752-0.485,1.453-1.218,1.763l-4.834,2.051l0,0l4.834-2.051
	C81.916,163.168,82.371,162.467,82.401,161.715z"/>
<polygon style="fill:#009444;" points="82.602,172.141 83.682,172.066 83.682,172.066 "/>
<path style="fill:#009444;" d="M136.78,167.817l-2.592,5.184c-0.286,0.572-0.829,0.973-1.46,1.078l-4.988,0.831l-1.776,7.104
	c-0.135,0.537-0.486,0.995-0.971,1.264l-14.52,8.046c0.343,0.364,0.545,0.853,0.545,1.369c0,0.145-0.016,0.29-0.048,0.437
	c-0.042,0.187-0.109,0.363-0.196,0.524L110.717,196l8.141,0.281c0.409,0.015,0.804,0.153,1.131,0.398l0.404,0.303l0.095,0.071
	l11.144-12.001c0.142-0.152,0.308-0.283,0.49-0.385c0.022-0.013,0.106-0.059,0.216-0.12c0.028-0.016,0.051-0.028,0.084-0.047
	c0.045-0.025,0.098-0.054,0.152-0.084c0.049-0.027,0.093-0.051,0.149-0.082c0.066-0.036,0.139-0.076,0.215-0.118
	c0.06-0.033,0.119-0.065,0.184-0.101c0.08-0.044,0.164-0.089,0.252-0.137c0.072-0.039,0.145-0.078,0.222-0.12
	c0.1-0.054,0.203-0.11,0.311-0.168c0.08-0.043,0.162-0.087,0.245-0.132c0.106-0.057,0.211-0.113,0.324-0.173
	c0.108-0.057,0.219-0.117,0.332-0.177c0.105-0.056,0.209-0.111,0.319-0.169c0.127-0.067,0.259-0.137,0.392-0.206
	c0.103-0.054,0.204-0.107,0.31-0.163c0.167-0.087,0.339-0.177,0.513-0.267c0.079-0.041,0.155-0.081,0.236-0.123
	c0.522-0.27,1.069-0.55,1.629-0.831c0.045-0.023,0.09-0.045,0.135-0.068c0.233-0.117,0.467-0.234,0.703-0.35
	c0.069-0.034,0.138-0.068,0.208-0.102c0.219-0.107,0.437-0.214,0.656-0.32c0.07-0.034,0.139-0.067,0.208-0.1
	c0.219-0.105,0.437-0.209,0.655-0.312c0.07-0.033,0.141-0.066,0.211-0.099c0.114-0.053,0.228-0.108,0.341-0.16l-0.281-4.769
	c-0.036-0.602,0.201-1.168,0.615-1.563l0.309-4.018L136.78,167.817z"/>
<rect x="136.633" y="168.703" transform="matrix(-0.9463 -0.3232 0.3232 -0.9463 216.7529 373.3943)" style="fill:#009444;" width="5.483" height="0"/>
<polygon style="fill:#009444;" points="141.66,173.607 141.969,169.589 141.969,169.589 "/>
<polygon style="fill:#009444;" points="141.326,179.939 141.045,175.171 141.326,179.94 "/>
<rect x="141.969" y="169.589" style="fill:#009444;" width="0" height="0"/>
<path style="fill:#009444;" d="M133.123,184.118c0.079-0.043,0.165-0.09,0.252-0.137
	C133.287,184.028,133.203,184.074,133.123,184.118z"/>
<path style="fill:#009444;" d="M133.597,183.86c0.099-0.054,0.203-0.11,0.311-0.168C133.8,183.75,133.697,183.806,133.597,183.86z"
	/>
<path style="fill:#009444;" d="M132.122,184.669c0.023-0.013,0.104-0.058,0.216-0.12
	C132.227,184.61,132.144,184.656,132.122,184.669z"/>
<path style="fill:#009444;" d="M132.723,184.336c0.065-0.036,0.141-0.077,0.215-0.118C132.863,184.26,132.789,184.3,132.723,184.336
	z"/>
<path style="fill:#009444;" d="M132.422,184.502c0.044-0.024,0.1-0.055,0.152-0.084
	C132.521,184.448,132.467,184.477,132.422,184.502z"/>
<path style="fill:#009444;" d="M138.207,181.45c0.045-0.022,0.09-0.045,0.135-0.068C138.297,181.405,138.252,181.427,138.207,181.45
	z"/>
<path style="fill:#009444;" d="M134.154,183.56c0.105-0.056,0.212-0.114,0.324-0.173C134.365,183.446,134.26,183.503,134.154,183.56
	z"/>
<polygon style="fill:#009444;" points="131.632,185.054 120.488,197.054 120.488,197.055 "/>
<path style="fill:#009444;" d="M139.046,181.032c0.069-0.034,0.139-0.068,0.208-0.102
	C139.184,180.964,139.115,180.998,139.046,181.032z"/>
<path style="fill:#009444;" d="M140.774,180.198c0.07-0.033,0.141-0.066,0.211-0.099
	C140.914,180.132,140.844,180.165,140.774,180.198z"/>
<path style="fill:#009444;" d="M136.342,182.404c0.079-0.041,0.155-0.081,0.236-0.123
	C136.497,182.323,136.421,182.363,136.342,182.404z"/>
<path style="fill:#009444;" d="M139.91,180.61c0.07-0.034,0.139-0.067,0.208-0.1C140.049,180.543,139.98,180.576,139.91,180.61z"/>
<path style="fill:#009444;" d="M134.809,183.21c0.105-0.056,0.21-0.111,0.319-0.169C135.018,183.098,134.915,183.154,134.809,183.21
	z"/>
<path style="fill:#009444;" d="M135.52,182.834c0.103-0.054,0.204-0.108,0.31-0.163C135.723,182.726,135.623,182.779,135.52,182.834
	z"/>
<path style="fill:#009444;" d="M92.19,171.521c0.92,0.126,1.656,0.881,1.723,1.844c0.076,1.102-0.755,2.057-1.857,2.133
	l-5.926,0.409l-0.981,2.942l9.132,8.522l10.756,2.391l17.258-9.562l1.883-7.533c0.193-0.772,0.826-1.356,1.612-1.487l5.276-0.88
	l1.894-3.788l-2.603-0.889l-10.894-4.216c-0.996-0.385-1.513-1.484-1.175-2.497l1.457-4.372l-0.161,0.099L92.19,171.521z"/>
<polygon style="fill:#009444;" points="119.745,154.539 119.745,154.539 118.288,158.911 "/>
<polygon style="fill:#009444;" points="132.959,166.513 132.96,166.513 130.357,165.624 119.463,161.408 130.357,165.624 "/>
<polygon style="fill:#009444;" points="85.148,178.85 86.129,175.907 86.129,175.907 "/>
<polygon style="fill:#009444;" points="92.182,171.52 92.19,171.521 119.584,154.638 "/>
<polygon style="fill:#009444;" points="132.959,166.513 131.065,170.301 132.96,166.513 "/>
<rect x="132.96" y="166.512" style="fill:#009444;" width="0" height="0"/>
<path style="fill:#009444;" d="M118.092,200.258l-9.492-0.328c-1.096-0.038-1.958-0.951-1.931-2.048l0.089-3.639l-1.849-0.411
	c0,0-0.001,0-0.001,0l-12.028-2.674c-0.348-0.077-0.669-0.246-0.931-0.49l-0.18-0.168l-0.271-0.252l-3.175,2.955l-3.479,7.275
	v16.297c0,0.463-0.161,0.912-0.455,1.27l-1.253,1.526l0.602,0.301c0.931,0.465,1.349,1.566,0.963,2.532l-3.783,9.457l0.445,2.427
	l16.407-0.299l3.962-6.401c0.399-0.644,1.126-1.003,1.882-0.939c0.003,0,0.033,0.003,0.057,0.005
	c0.018,0.002,0.039,0.003,0.065,0.006c0.036,0.003,0.084,0.007,0.135,0.012c0.042,0.004,0.09,0.008,0.141,0.012
	c0.059,0.005,0.124,0.011,0.194,0.017c0.041,0.003,0.082,0.007,0.126,0.011c0.12,0.01,0.253,0.021,0.399,0.033
	c0.032,0.003,0.069,0.006,0.102,0.008c0.134,0.011,0.277,0.023,0.429,0.035c0.038,0.003,0.075,0.006,0.114,0.009
	c0.193,0.015,0.397,0.031,0.614,0.048c0.01,0.001,0.02,0.001,0.029,0.002c0.202,0.015,0.414,0.031,0.633,0.048
	c0.042,0.003,0.084,0.006,0.127,0.009c0.213,0.016,0.435,0.031,0.66,0.047c0.084,0.006,0.169,0.012,0.255,0.018
	c0.147,0.01,0.297,0.02,0.448,0.03c0.114,0.008,0.227,0.015,0.342,0.023c0.188,0.012,0.378,0.024,0.569,0.036
	c0.173,0.011,0.347,0.021,0.522,0.031c0.018,0.001,0.037,0.002,0.055,0.003c0.945,0.055,1.809,0.096,2.59,0.124
	c0.037,0.001,0.074,0.003,0.111,0.004c0.365,0.013,0.712,0.023,1.038,0.029c0.015,0,0.031,0.001,0.046,0.001
	c0.348,0.007,0.675,0.01,0.978,0.01c0.271,0,0.51-0.003,0.721-0.008c0.052-1.843,0.723-4.92,2.868-10.186
	c0.088-0.217,0.214-0.417,0.372-0.591l8.344-9.178l-0.97-1.313L118.092,200.258z"/>
<path style="fill:#009444;" d="M84.39,218.045c0.294-0.357,0.455-0.807,0.455-1.27C84.845,217.238,84.684,217.687,84.39,218.045z"/>
<polygon style="fill:#009444;" points="83.137,219.571 83.739,219.872 83.137,219.571 "/>
<polygon style="fill:#009444;" points="84.702,222.404 80.919,231.861 80.919,231.861 "/>
<polygon style="fill:#009444;" points="104.909,193.832 106.758,194.243 104.909,193.832 "/>
<path style="fill:#009444;" d="M91.769,190.5l0.18,0.168c0.261,0.244,0.583,0.413,0.931,0.49c-0.348-0.077-0.669-0.246-0.93-0.49
	L91.769,190.5z"/>
<polygon style="fill:#009444;" points="104.909,193.832 92.88,191.158 104.908,193.832 104.909,193.832 104.909,193.832 "/>
<rect x="104.909" y="193.832" style="fill:#009444;" width="0" height="0.001"/>
<path style="fill:#009444;" d="M104.488,230.738l-3.89,6.283c-0.358,0.578-0.985,0.935-1.664,0.947l-19.194,0.35
	c-0.013,0-0.025,0-0.037,0c-0.219,0-0.429-0.04-0.628-0.106c-0.001,0-0.003-0.001-0.005-0.001c-0.188-0.063-0.362-0.155-0.521-0.268
	c-0.024-0.017-0.049-0.033-0.073-0.051c-0.14-0.109-0.263-0.238-0.371-0.382c-0.023-0.031-0.045-0.06-0.066-0.092
	c-0.101-0.152-0.18-0.318-0.237-0.498c-0.005-0.014-0.015-0.025-0.019-0.04l-5.025,7.21l1.121,5.605l1.77,1.966l8.769-4.232
	c0.795-0.384,1.746-0.201,2.342,0.447c0.597,0.648,0.698,1.612,0.25,2.371l-4.537,7.678c-0.074,0.125-0.161,0.241-0.26,0.347
	l-2.171,2.327l4.436-0.839l1.485-0.281c0,0,0.001,0,0.001,0c0.123-0.023,0.248-0.035,0.371-0.035c0.045,0,0.089,0.01,0.133,0.013
	c0.043,0.003,0.085,0.007,0.128,0.012c0.168,0.022,0.334,0.058,0.492,0.122l9.704,3.942l4.317-6.044
	c0.541-0.759,1.532-1.044,2.392-0.686l9.149,3.785l3.861-2.504l-4.297-3.882c-0.442-0.399-0.684-0.976-0.658-1.571l0.671-15.431
	l-3.876-6.181c-0.029-0.002-0.056-0.004-0.085-0.006C106.773,230.919,105.411,230.814,104.488,230.738z"/>
<path style="fill:#009444;" d="M86.468,259.457c0.043,0.003,0.085,0.007,0.128,0.012C86.552,259.464,86.511,259.46,86.468,259.457z"
	/>
<polygon style="fill:#009444;" points="116.511,258.086 116.511,258.086 112.65,260.59 "/>
<polygon style="fill:#009444;" points="84.477,259.761 85.963,259.479 85.963,259.479 85.962,259.479 "/>
<path style="fill:#009444;" d="M78.549,237.943c0.159,0.113,0.333,0.205,0.521,0.268C78.88,238.149,78.708,238.054,78.549,237.943z"
	/>
<path style="fill:#009444;" d="M104.488,230.738c0.923,0.076,2.285,0.181,3.778,0.278
	C106.778,230.92,105.415,230.814,104.488,230.738z"/>
<path style="fill:#009444;" d="M79.74,238.318c-0.235-0.001-0.458-0.038-0.665-0.106c0.199,0.066,0.409,0.106,0.628,0.106
	C79.715,238.318,79.728,238.318,79.74,238.318z"/>
<path style="fill:#009444;" d="M78.477,237.892c-0.141-0.109-0.264-0.238-0.371-0.382C78.213,237.654,78.336,237.783,78.477,237.892
	z"/>
<path style="fill:#009444;" d="M77.803,236.921c0.057,0.179,0.136,0.346,0.237,0.498C77.941,237.267,77.86,237.101,77.803,236.921z"
	/>
<path style="fill:#009444;" d="M140.822,220.247l-8.848-6.004c-0.187-0.127-0.351-0.285-0.485-0.467l-2.364-3.198l-7.568,8.324
	c-0.181,0.452-0.356,0.908-0.524,1.362c-1.094,2.951-1.893,5.823-1.951,7.039c-0.004,0.093-0.004,0.177,0,0.25
	c0.215,0.308,0.346,0.652,0.388,1.006c0.011,0.096-0.001,0.193-0.003,0.289c-0.002,0.082,0.009,0.164-0.003,0.246
	c-0.01,0.07-0.04,0.139-0.057,0.208c-0.026,0.107-0.044,0.215-0.087,0.32c0,0,0,0,0,0.001l0,0c-0.631,1.524-2.36,1.639-4.926,1.639
	c-0.375,0-0.772-0.006-1.18-0.014l2.733,4.357c0.215,0.344,0.321,0.744,0.304,1.149l-0.657,15.112l4.391,3.966l4.696-3.046
	c0.204-0.133,0.431-0.227,0.669-0.278l4.396-0.941l4.154-3.515c0.419-0.355,0.965-0.521,1.512-0.462
	c0.159,0.018,0.311,0.059,0.459,0.113c0.015,0.005,0.032,0.006,0.046,0.011c-0.372-0.529-0.468-1.214-0.242-1.833
	c-0.005-0.038-0.009-0.075-0.012-0.113l-0.052-0.731c-0.065-0.911,0.496-1.751,1.363-2.04l0.313-0.104
	c0.019-0.006,0.037-0.012,0.056-0.018c-0.037-0.327,0.007-0.66,0.13-0.968l0.144-0.436c0.041-0.144,0.098-0.282,0.17-0.413
	c0.029-0.146,0.074-0.288,0.135-0.425l0.217-0.572c0.114-0.399,0.35-0.754,0.674-1.013l0.261-0.209
	c0.046-0.037,0.093-0.071,0.142-0.103l-3.149-10.571c-0.166-0.557-0.082-1.156,0.23-1.646s0.82-0.819,1.394-0.904l2.917-0.432
	L140.822,220.247z"/>
<polygon style="fill:#009444;" points="137.69,225.615 140.607,225.184 140.607,225.183 "/>
<polygon style="fill:#009444;" points="139.215,238.736 136.066,228.165 139.215,238.736 "/>
<polygon style="fill:#009444;" points="119.985,255.833 124.68,252.787 119.985,255.833 "/>
<path style="fill:#009444;" d="M135.87,247.703c-0.148-0.054-0.3-0.095-0.459-0.113C135.569,247.609,135.722,247.65,135.87,247.703z
	"/>
<polygon style="fill:#009444;" points="140.607,225.183 140.607,225.183 140.822,220.247 "/>
<rect x="140.607" y="225.183" style="fill:#009444;" width="0" height="0"/>
<path style="fill:#009444;" d="M119.47,228.559c0.011,0.096-0.001,0.193-0.003,0.289
	C119.469,228.751,119.482,228.655,119.47,228.559z"/>
<path style="fill:#009444;" d="M119.465,229.094c-0.01,0.07-0.04,0.139-0.057,0.208
	C119.425,229.232,119.455,229.164,119.465,229.094z"/>
<polygon style="fill:#009444;" points="121.557,218.902 129.125,210.578 129.125,210.578 "/>
<path style="fill:#009444;" d="M119.082,227.303c0.057-1.216,0.857-4.088,1.951-7.039
	C119.938,223.216,119.139,226.088,119.082,227.303z"/>
<path style="fill:#009444;" d="M114.395,231.261c-0.364,0-0.758-0.005-1.181-0.014l0,0
	C113.623,231.256,114.02,231.262,114.395,231.261c2.565,0.001,4.294-0.113,4.926-1.638l0,0
	C118.689,231.146,116.96,231.261,114.395,231.261z"/>
<polygon style="fill:#009444;" points="115.947,235.604 113.214,231.247 113.214,231.247 "/>
<polygon style="fill:#009444;" points="119.985,255.833 115.593,251.866 119.984,255.833 "/>
<rect x="119.984" y="255.833" style="fill:#009444;" width="0" height="0"/>
<rect x="113.214" y="231.247" style="fill:#009444;" width="0" height="0"/>
</svg>
