<?xml version="1.0" encoding="UTF-8"?>
<!-- Created with Inkscape (http://www.inkscape.org/) -->
<svg  width="340.000000pt" height="294.000000pt" viewBox="0 0 340.000000 294.000000" xmlns="http://www.w3.org/2000/svg" xmlns:xlink="http://www.w3.org/1999/xlink">
 <g fill-opacity="1" stroke-width="1.87018" fill="#2e9d53" stroke="#2e9d53" transform="translate(0.000000,294.000000) scale(0.100000,-0.100000)"
>
<path d="M691 2656 c-20 -21 -22 -32 -19 -111 3 -81 5 -89 29 -107 24 -18 32
-19 130 -7 110 13 149 34 149 78 0 34 -51 151 -71 161 -10 6 -58 10 -107 10
-80 0 -91 -2 -111 -24z m193 -87 c10 -23 13 -45 9 -49 -4 -5 -41 -11 -80 -15
l-73 -7 0 49 c0 27 3 53 7 56 3 4 32 7 64 7 l57 0 16 -41z"/>
<path d="M1230 2533 c-60 -41 -336 -277 -344 -293 -16 -35 2 -70 54 -102 28
-17 50 -32 50 -34 0 -12 -25 -54 -32 -54 -5 0 -90 75 -189 167 -99 93 -189
171 -201 176 -33 12 -75 -1 -98 -30 -19 -24 -20 -40 -20 -239 0 -209 0 -214
22 -225 18 -10 24 -8 40 11 17 21 19 42 18 214 -1 115 2 192 8 194 15 5 474
-425 495 -464 18 -33 18 -36 -9 -187 -16 -95 -24 -168 -20 -189 4 -21 81 -145
201 -323 107 -159 195 -290 195 -291 0 -1 -27 -11 -60 -23 -72 -27 -148 -85
-191 -147 l-31 -46 -29 48 c-16 27 -29 52 -29 56 0 3 22 20 50 37 52 32 70 66
54 100 -14 28 -356 311 -376 311 -30 0 -60 -38 -54 -68 3 -15 19 -108 36 -207
39 -225 43 -240 80 -255 26 -11 35 -9 84 18 l56 30 29 -51 30 -51 -52 -28
c-29 -15 -71 -48 -94 -73 l-42 -45 -166 2 -166 3 1 640 c0 690 1 681 -51 673
l-24 -3 -3 -672 c-2 -662 -2 -673 18 -693 20 -20 32 -20 1260 -20 1227 0 1240
0 1260 20 27 27 25 54 -9 104 -36 52 -83 89 -156 122 -48 22 -55 29 -55 54 0
44 -18 81 -57 122 -34 35 -59 48 -125 62 l-26 6 40 70 41 70 23 -25 c32 -35
60 -31 127 16 75 53 76 74 6 174 -59 85 -76 95 -101 65 -20 -24 -21 -22 35
-102 l40 -58 -24 -19 c-13 -11 -26 -20 -29 -20 -3 0 -72 96 -153 213 -82 118
-156 221 -165 230 -13 11 -78 20 -267 36 -310 26 -295 23 -295 60 0 27 3 30
33 30 59 0 522 -40 545 -48 15 -4 53 -49 101 -117 61 -87 82 -110 100 -110 13
0 28 7 34 16 8 13 -8 42 -77 142 -57 82 -97 129 -114 136 -15 5 -57 13 -94 17
-38 3 -68 9 -68 13 0 3 11 24 25 46 49 81 25 110 -99 120 -102 9 -107 6 -160
-90 l-35 -61 -73 7 c-168 17 -178 12 -189 -87 -9 -80 3 -109 51 -121 l30 -8
-86 -150 c-48 -83 -87 -151 -88 -152 0 0 -52 11 -113 25 l-113 26 0 84 c0 105
-17 143 -79 183 -51 32 -78 34 -95 6 -9 -15 -6 -22 17 -40 90 -71 81 -54 87
-172 4 -84 9 -109 22 -119 9 -7 80 -27 157 -45 l141 -33 27 -46 c46 -82 46
-81 137 -79 78 2 86 0 135 -30 29 -18 60 -33 70 -33 9 0 30 14 47 31 63 68
161 87 241 48 50 -24 86 -67 108 -129 9 -24 21 -47 27 -51 6 -4 34 -5 62 -2
39 3 58 0 82 -15 38 -24 64 -77 64 -130 0 -45 8 -54 65 -72 22 -7 51 -20 65
-28 32 -20 90 -74 90 -84 0 -4 -439 -8 -976 -8 -887 0 -975 1 -963 16 19 23
85 54 132 62 36 6 44 14 70 57 39 68 92 122 152 153 44 24 61 27 150 27 90 0
105 -3 156 -28 31 -16 65 -27 75 -25 23 4 30 34 12 55 -22 27 -129 72 -187 79
l-56 6 -203 302 c-199 297 -202 302 -202 354 0 55 5 61 36 37 24 -18 58 -19
73 -1 18 21 3 44 -46 73 -36 21 -43 30 -39 47 3 12 9 53 12 91 8 82 -5 116
-64 177 l-35 37 19 36 c10 19 22 35 26 35 5 0 31 -12 58 -26 45 -23 54 -25 80
-14 37 15 41 28 80 260 17 96 33 187 36 202 4 19 -1 33 -15 47 -25 25 -39 26
-71 4z m-4 -130 c-3 -16 -15 -82 -26 -148 -11 -66 -23 -130 -25 -142 -5 -21
-10 -19 -111 39 l-106 61 38 31 c21 17 79 66 129 108 49 42 94 77 98 77 5 1 6
-11 3 -26z m1012 -675 c-20 -37 -29 -43 -58 -46 -57 -4 -67 9 -41 52 21 34 26
36 73 36 l49 0 -23 -42z m-83 -264 c105 -9 195 -20 201 -25 19 -15 234 -327
234 -339 0 -6 -18 -42 -40 -80 l-40 -69 -41 44 c-22 24 -60 53 -84 64 -37 17
-45 26 -45 49 -1 44 -35 107 -75 138 -30 22 -50 29 -99 32 -92 4 -127 -20
-195 -136 l-54 -92 -44 0 c-23 0 -46 -1 -50 -1 -5 -1 -23 24 -40 55 l-33 58
92 159 c57 99 98 159 107 159 9 0 102 -7 206 -16z m78 -294 c15 -17 27 -41 27
-55 0 -19 -7 -26 -27 -31 -62 -13 -93 -26 -132 -55 -40 -28 -43 -29 -71 -14
-17 9 -30 18 -30 21 0 22 79 140 104 155 43 27 93 19 129 -21z m-1155 -295
c11 -10 -7 -24 -88 -70 -56 -31 -105 -53 -109 -49 -4 5 -18 70 -30 144 -13 74
-26 148 -29 164 -5 27 5 21 119 -74 68 -57 130 -109 137 -115z"/>
<path d="M1655 2303 c-11 -2 -30 -6 -43 -9 -31 -6 -51 -56 -53 -133 -2 -61 -1
-63 42 -107 26 -27 52 -44 66 -44 13 0 59 18 102 39 106 54 116 77 71 158 -50
90 -66 103 -119 102 -25 -1 -55 -3 -66 -6z m107 -111 l26 -47 -49 -28 c-59
-32 -70 -33 -94 -7 -16 17 -17 28 -9 68 9 45 11 47 49 53 22 3 42 7 45 8 3 0
17 -20 32 -47z"/>
<path d="M1358 1933 c-26 -30 -78 -128 -78 -148 0 -20 103 -150 137 -172 41
-27 76 -3 122 87 61 117 58 131 -45 201 -78 52 -111 60 -136 32z m109 -105
l41 -28 -30 -55 c-33 -62 -35 -62 -89 6 l-30 39 22 39 c12 23 27 37 33 34 6
-4 30 -19 53 -35z"/>
</g>
</svg>
