<svg version="1.1" id="Livello_2" xmlns="http://www.w3.org/2000/svg" xmlns:xlink="http://www.w3.org/1999/xlink" x="0px" y="0px"
	 viewBox="0 0 300 300" style="enable-background:new 0 0 300 300;" xml:space="preserve">
<g>
	<path style="fill:#009444;" d="M83.561,296.609l-11.732-1.528l-1.827-1.074c29.174-13.97,75.782-35.049,111.356-58.214
		c41.513-27.031,62.91-50.128,63.597-68.648c0.429-11.594-6.887-21.719-21.745-30.094c-46.782-26.366-73.467-51.743-73.214-69.622
		c0.087-6.085,3.32-10.992,9.352-14.192c7.432-3.942,14.605-6.88,20.933-9.471c8.527-3.492,16.137-6.553,16.572-9.318
		c0.12-0.773-0.576-2.616-3.43-4.88c-6.723-5.334-9-8.804-8.267-11.972c0.776-3.355,6.247-4.622,10.762-5.83h-1.485h12.439
		l1.147,2.291l-1.003,0.937c-2.051,0.548-6.745,2.032-7.082,3.487c-0.167,0.719,0.113,3.179,7.193,8.797
		c4.585,3.637,6.818,6.527,6.451,9.536c-0.636,5.216-8.036,8.796-20.295,14.725c-3.049,1.475-6.483,3.136-10.129,4.976
		c-4.367,2.204-6.546,4.718-6.662,7.686c-0.528,13.532,38.099,37.658,88.651,67.793c20.777,12.385,31.232,29.337,30.236,49.024
		c-0.975,19.274-11.156,39.953-29.444,59.801c-19.039,20.664-40.724,40.392-73.697,56.181l0,0L83.561,296.609z"/>
	<path style="fill:#FFFFFF;" d="M83.607,295.985l-9.591-1.249c60.051-28.756,170.011-84.533,171.607-127.568
		c0.439-11.837-6.986-22.15-22.068-30.65c-46.573-26.249-73.141-51.427-72.891-69.079c0.083-5.851,3.2-10.573,9.014-13.657
		c7.402-3.926,14.558-6.857,20.871-9.442c9.067-3.713,16.229-6.646,16.716-9.754c0.212-1.352-0.937-3.034-3.415-5.001
		c-6.513-5.167-9.116-8.772-8.442-11.688c0.698-3.018,6.153-5.43,10.466-6.584l11.875-0.063l1.063,3.375
		c-3.244,0.868-8.89,2.151-9.279,3.831c-0.291,1.258,0.776,3.88,7.512,9.225c4.397,3.488,6.207,6.284,5.868,9.064
		c-0.595,4.886-7.876,8.407-19.938,14.241c-3.038,1.47-6.481,3.135-10.139,4.98c-4.594,2.318-6.888,5.004-7.013,8.213
		c-0.541,13.862,38.225,38.098,88.959,68.342c20.563,12.258,30.912,29.018,29.928,48.468
		c-1.921,37.99-39.971,82.139-108.586,114.995h-6.055H83.607z"/>
	<path style="fill:#009444;" d="M206.291,13.641c-7.782,2.082-13.495,4.372-0.111,14.992c13.383,10.619,0.78,13.743-23.98,26.236
		c-24.759,12.493,12.029,37.078,81.864,78.706C327.636,171.47,282.054,246.653,179,296l-97.833,0.333
		c103.053-49.347,214.014-120.907,143.081-160.885c-70.933-39.978-83.536-70.169-63.907-80.58
		c24.47-12.979,47.76-15.617,34.377-26.236c-13.383-10.619-7.782-12.909,0-14.992H206.291z"/>
	<g>
		<path style="fill:#FFFFFF;" d="M132.77,292.856l4.371-2.427c0.716-0.397,1.618-0.139,2.015,0.576
			c0.396,0.712,0.142,1.61-0.566,2.01l-0.006,0.003l-4.353,2.458c-0.721,0.407-1.636,0.153-2.044-0.569
			c-0.407-0.721-0.153-1.636,0.569-2.044l0.009-0.005L132.77,292.856z"/>
		<path style="fill:#FFFFFF;" d="M145.782,285.489l8.613-5.069c0.671-0.395,1.536-0.171,1.931,0.5
			c0.393,0.668,0.173,1.528-0.492,1.926l-8.576,5.131c-0.685,0.41-1.574,0.187-1.984-0.499c-0.41-0.685-0.187-1.574,0.499-1.984
			L145.782,285.489z"/>
		<path style="fill:#FFFFFF;" d="M162.921,275.268l8.494-5.268c0.628-0.39,1.454-0.196,1.843,0.432
			c0.388,0.625,0.198,1.446-0.424,1.838l-8.456,5.329c-0.642,0.405-1.491,0.212-1.896-0.43s-0.212-1.491,0.43-1.896L162.921,275.268
			z"/>
		<path style="fill:#FFFFFF;" d="M179.807,264.654l8.35-5.471c0.585-0.384,1.371-0.22,1.754,0.365
			c0.382,0.583,0.221,1.364-0.358,1.749l-8.311,5.531c-0.599,0.399-1.408,0.236-1.807-0.363c-0.399-0.599-0.236-1.408,0.363-1.807
			L179.807,264.654z"/>
		<path style="fill:#FFFFFF;" d="M196.403,253.616l8.192-5.716c0.541-0.378,1.286-0.245,1.664,0.296
			c0.376,0.539,0.246,1.28-0.289,1.66l-8.151,5.774c-0.555,0.393-1.323,0.262-1.716-0.292c-0.393-0.555-0.262-1.323,0.292-1.716
			L196.403,253.616z"/>
		<path style="fill:#FFFFFF;" d="M212.657,242.068l7.981-6.016c0.495-0.374,1.2-0.275,1.574,0.22
			c0.372,0.493,0.275,1.194-0.214,1.569l-7.938,6.073c-0.508,0.389-1.236,0.293-1.626-0.216c-0.389-0.508-0.293-1.236,0.216-1.626
			L212.657,242.068z"/>
		<path style="fill:#FFFFFF;" d="M228.438,229.89l7.673-6.405c0.446-0.373,1.109-0.314,1.482,0.132
			c0.371,0.444,0.313,1.104-0.127,1.478l-7.627,6.46c-0.458,0.389-1.145,0.333-1.533-0.126c-0.389-0.458-0.333-1.145,0.126-1.533
			L228.438,229.89z"/>
		<path style="fill:#FFFFFF;" d="M243.529,216.868c0,0,1.828-1.689,3.614-3.421c1.79-1.727,3.531-3.502,3.531-3.502
			c0.379-0.386,1-0.392,1.386-0.013c0.385,0.377,0.391,0.996,0.017,1.383c0,0-1.746,1.806-3.54,3.562
			c-1.788,1.76-3.619,3.476-3.619,3.476l-0.004,0.004c-0.41,0.384-1.053,0.363-1.436-0.047c-0.384-0.409-0.363-1.053,0.047-1.436
			L243.529,216.868z"/>
		<path style="fill:#FFFFFF;" d="M257.422,202.659c0,0,1.632-1.871,3.176-3.813c1.553-1.932,2.998-3.942,2.998-3.942
			c0.293-0.407,0.861-0.5,1.268-0.207c0.406,0.292,0.498,0.858,0.21,1.265c0,0-1.459,2.06-3.024,4.035
			c-1.553,1.982-3.193,3.89-3.193,3.89l-0.007,0.008c-0.34,0.396-0.936,0.441-1.332,0.101c-0.396-0.34-0.441-0.936-0.101-1.332
			L257.422,202.659z"/>
		<path style="fill:#FFFFFF;" d="M268.844,186.557c0,0,0.28-0.55,0.7-1.374c0.408-0.826,0.925-1.941,1.382-3.077
			c0.942-2.266,1.536-4.632,1.536-4.632c0.113-0.448,0.567-0.72,1.016-0.608c0.445,0.112,0.716,0.56,0.611,1.005l-0.002,0.009
			c0,0-0.148,0.624-0.421,1.545c-0.27,0.921-0.681,2.132-1.152,3.316c-0.468,1.186-0.995,2.344-1.41,3.201
			c-0.425,0.849-0.708,1.414-0.708,1.414c-0.216,0.431-0.74,0.605-1.171,0.39c-0.431-0.216-0.605-0.74-0.39-1.171l0.003-0.006
			L268.844,186.557z"/>
		<path style="fill:#FFFFFF;" d="M273.029,167.915c0,0-0.028-0.154-0.077-0.423c-0.051-0.271-0.12-0.612-0.231-1.055
			c-0.213-0.873-0.582-2.017-1.078-3.109c-0.489-1.096-1.1-2.136-1.607-2.883c-0.25-0.376-0.474-0.68-0.632-0.891
			c-0.164-0.219-0.258-0.344-0.258-0.344c-0.254-0.338-0.185-0.818,0.153-1.071c0.337-0.252,0.814-0.185,1.068,0.149
			c0,0,0.095,0.124,0.26,0.342c0.171,0.225,0.412,0.549,0.684,0.951c0.551,0.799,1.218,1.916,1.757,3.099
			c0.546,1.18,0.956,2.421,1.194,3.366c0.12,0.465,0.209,0.889,0.261,1.155c0.051,0.269,0.08,0.422,0.08,0.422
			c0.082,0.435-0.204,0.854-0.639,0.936c-0.435,0.082-0.854-0.204-0.936-0.639L273.029,167.915z"/>
		<path style="fill:#FFFFFF;" d="M262.417,152.026c0,0-1.821-1.683-3.728-3.282c-1.897-1.606-3.854-3.147-3.854-3.147
			c-0.301-0.237-0.353-0.674-0.116-0.975c0.236-0.3,0.673-0.35,0.974-0.117c0,0,1.981,1.537,3.91,3.147
			c1.934,1.599,3.796,3.295,3.796,3.295l0.004,0.003c0.298,0.271,0.32,0.733,0.048,1.031s-0.733,0.319-1.031,0.048L262.417,152.026z
			"/>
		<path style="fill:#FFFFFF;" d="M246.894,139.583l-8.132-5.789c-0.28-0.2-0.346-0.589-0.146-0.869
			c0.199-0.279,0.587-0.344,0.867-0.148l8.174,5.731c0.298,0.209,0.37,0.62,0.161,0.917c-0.209,0.298-0.62,0.37-0.917,0.161
			L246.894,139.583z"/>
		<path style="fill:#FFFFFF;" d="M230.551,128.136l-8.255-5.624c-0.252-0.172-0.317-0.515-0.145-0.767
			c0.171-0.251,0.513-0.316,0.765-0.147l8.295,5.565c0.27,0.181,0.341,0.546,0.161,0.815c-0.181,0.27-0.546,0.341-0.815,0.161
			L230.551,128.136z"/>
		<path style="fill:#FFFFFF;" d="M214.045,116.859l-8.187-5.733c-0.218-0.152-0.271-0.452-0.118-0.67
			c0.152-0.217,0.45-0.27,0.668-0.12l8.227,5.675c0.235,0.162,0.294,0.484,0.132,0.719s-0.484,0.294-0.719,0.132L214.045,116.859z"
			/>
		<path style="fill:#FFFFFF;" d="M197.768,105.23c0,0-1.991-1.515-3.982-3.03c-1.981-1.53-3.928-3.104-3.928-3.104
			c-0.176-0.142-0.204-0.4-0.062-0.577c0.142-0.175,0.399-0.203,0.575-0.063c0,0,1.951,1.554,3.936,3.065
			c1.996,1.497,3.993,2.994,3.993,2.994l0.005,0.004c0.197,0.148,0.237,0.427,0.089,0.624s-0.427,0.237-0.624,0.089L197.768,105.23z
			"/>
		<path style="fill:#FFFFFF;" d="M182.233,92.6c0,0-1.863-1.676-3.647-3.437c-1.795-1.751-3.488-3.604-3.488-3.604
			c-0.127-0.138-0.117-0.352,0.021-0.479c0.137-0.126,0.351-0.117,0.478,0.019c0,0,1.692,1.826,3.488,3.553
			c1.786,1.737,3.651,3.392,3.651,3.392c0.155,0.137,0.169,0.374,0.032,0.529c-0.137,0.155-0.374,0.169-0.529,0.032L182.233,92.6z"
			/>
		<path style="fill:#FFFFFF;" d="M168.898,77.66c0,0-0.34-0.521-0.823-1.338c-0.479-0.814-1.086-1.92-1.606-3.071
			c-0.526-1.147-0.962-2.336-1.228-3.247c-0.27-0.91-0.397-1.531-0.397-1.531l-0.001-0.007c-0.03-0.145,0.064-0.287,0.209-0.316
			c0.144-0.029,0.285,0.063,0.316,0.207c0,0,0.128,0.604,0.398,1.489c0.265,0.886,0.7,2.046,1.224,3.167
			c1.033,2.255,2.422,4.322,2.422,4.322c0.094,0.139,0.057,0.328-0.083,0.421c-0.139,0.094-0.328,0.057-0.421-0.083
			c0-0.001-0.001-0.001-0.001-0.002L168.898,77.66z"/>
		<path style="fill:#FFFFFF;" d="M166.528,58.854c0,0,0.453-0.439,1.219-1.006c0.759-0.569,1.819-1.25,2.91-1.87
			c2.182-1.243,4.455-2.291,4.455-2.291c0.098-0.048,0.217-0.007,0.264,0.091c0.048,0.098,0.003,0.217-0.094,0.266
			c0,0-2.259,1.062-4.411,2.307c-1.076,0.621-2.115,1.3-2.852,1.86c-0.737,0.553-1.181,0.989-1.181,0.989
			c-0.092,0.09-0.239,0.089-0.329-0.003c-0.09-0.092-0.089-0.239,0.003-0.329l0.001-0.001L166.528,58.854z"/>
		<path style="fill:#FFFFFF;" d="M184.268,49.661c0,0,2.298-0.98,4.596-1.959c2.296-0.985,4.561-2.034,4.561-2.034
			c0.064-0.03,0.14-0.002,0.17,0.062c0.03,0.064,0.002,0.14-0.061,0.17c0,0-2.263,1.067-4.553,2.069
			c-2.292,0.996-4.585,1.992-4.585,1.992c-0.083,0.036-0.178-0.002-0.214-0.084c-0.036-0.083,0.002-0.178,0.084-0.214
			L184.268,49.661z"/>
		<path style="fill:#FFFFFF;" d="M202.083,40.765c0,0,0.121-0.099,0.332-0.272c0.208-0.175,0.499-0.428,0.826-0.76
			c0.325-0.33,0.686-0.739,0.98-1.235c0.292-0.492,0.521-1.083,0.501-1.694c0.004-0.615-0.305-1.172-0.546-1.702
			c-0.25-0.528-0.498-1.014-0.718-1.427c-0.441-0.825-0.763-1.36-0.763-1.36c-0.016-0.027-0.008-0.062,0.019-0.078
			c0.027-0.016,0.062-0.007,0.079,0.02c0,0,0.328,0.533,0.776,1.358c0.224,0.412,0.477,0.899,0.732,1.427
			c0.242,0.522,0.57,1.101,0.573,1.758c0.025,0.649-0.212,1.271-0.511,1.782c-0.301,0.515-0.667,0.935-0.996,1.274
			c-0.329,0.339-0.626,0.6-0.835,0.779c-0.21,0.175-0.33,0.274-0.33,0.274c-0.04,0.033-0.098,0.028-0.131-0.012
			C202.037,40.857,202.043,40.798,202.083,40.765L202.083,40.765z"/>
		<path style="fill:#FFFFFF;" d="M196.616,24.322c0,0-0.854-0.913-1.759-1.775c-0.899-0.869-1.858-1.672-1.858-1.672
			s0.965,0.795,1.871,1.658c0.912,0.856,1.773,1.763,1.773,1.763c0.007,0.007,0.007,0.02,0,0.027
			C196.636,24.33,196.624,24.33,196.616,24.322L196.616,24.322z"/>
	</g>
</g>
<rect x="129.258" y="158" style="fill:#009444;" width="13.093" height="90"/>
<g style="display:none;">
	<g style="display:inline;">
		<g>
			<path style="fill:#E6E6E6;" d="M96.168,298.852c-0.449,0-0.879-0.26-1.073-0.698c-0.263-0.592,0.004-1.285,0.596-1.549
				c1.07-0.475,2.139-0.952,3.207-1.432c0.589-0.268,1.285-0.002,1.551,0.59c0.266,0.591,0.002,1.285-0.589,1.551
				c-1.071,0.481-2.144,0.96-3.217,1.437C96.489,298.819,96.327,298.852,96.168,298.852z"/>
		</g>
		<g>
			<path style="fill:#E6E6E6;" d="M112.582,291.326c-0.452,0-0.868-0.264-1.062-0.669c-0.276-0.587-0.024-1.291,0.557-1.566
				c2.212-1.05,4.265-2.036,6.283-3.016c0.569-0.281,1.291-0.029,1.566,0.54c0.282,0.575,0.041,1.279-0.54,1.566
				c-2.024,0.986-4.101,1.983-6.183,2.975l0,0l-0.117,0.058C112.929,291.285,112.758,291.326,112.582,291.326z M131.866,281.763
				c-0.44,0-0.839-0.241-1.044-0.634c-0.088-0.164-0.129-0.346-0.135-0.534c0-0.44,0.241-0.845,0.634-1.044
				c2.142-1.114,4.212-2.206,6.16-3.256c0.551-0.293,1.291-0.07,1.59,0.481c0.305,0.569,0.088,1.279-0.481,1.59
				c-2.042,1.091-4.124,2.194-6.183,3.262C132.236,281.717,132.054,281.763,131.866,281.763z M150.745,271.438
				c-0.422,0-0.81-0.229-1.015-0.587c-0.106-0.182-0.158-0.381-0.158-0.587c0-0.417,0.223-0.81,0.587-1.015
				c1.977-1.138,3.995-2.329,6.002-3.526c0.54-0.323,1.291-0.129,1.608,0.404c0.164,0.27,0.211,0.581,0.135,0.886
				c-0.076,0.305-0.27,0.563-0.54,0.722c-1.971,1.179-4.001,2.376-6.031,3.543l-0.011,0.006
				C151.144,271.385,150.944,271.438,150.745,271.438z M169.114,260.227c-0.399,0-0.769-0.199-0.986-0.534
				c-0.117-0.188-0.187-0.405-0.187-0.634c0-0.387,0.187-0.751,0.51-0.968v-0.006l0.029-0.018c0.011-0.011,0.035-0.017,0.053-0.029
				c1.977-1.284,3.913-2.564,5.749-3.801c0.516-0.352,1.279-0.206,1.625,0.311c0.176,0.258,0.24,0.575,0.182,0.88
				c-0.058,0.311-0.235,0.575-0.493,0.751c-1.865,1.262-3.778,2.523-5.843,3.866l-0.018,0.012l-0.006-0.006
				C169.547,260.168,169.337,260.227,169.114,260.227z M186.766,247.918c-0.375,0-0.716-0.164-0.939-0.463
				c-0.152-0.199-0.234-0.446-0.234-0.698c-0.006-0.376,0.164-0.716,0.464-0.945c1.848-1.402,3.69-2.845,5.462-4.283
				c0.487-0.393,1.262-0.311,1.655,0.176c0.194,0.241,0.288,0.552,0.252,0.862c-0.029,0.311-0.182,0.593-0.428,0.786
				c-1.766,1.432-3.626,2.887-5.521,4.33C187.265,247.837,187.024,247.918,186.766,247.918z M203.217,234.056
				c-0.329,0-0.634-0.129-0.857-0.364c-0.206-0.223-0.323-0.51-0.317-0.81c0-0.317,0.123-0.61,0.346-0.827h-0.006l0.024-0.024
				c0.017-0.011,0.029-0.029,0.047-0.041c1.197-1.133,2.358-2.265,3.461-3.362c0.493-0.498,0.974-0.985,1.432-1.461
				c0.434-0.446,1.208-0.457,1.66-0.023c0.463,0.452,0.469,1.197,0.023,1.66c-0.487,0.499-0.98,0.997-1.455,1.479
				c-1.156,1.156-2.352,2.317-3.555,3.455C203.803,233.944,203.516,234.056,203.217,234.056z M217.678,218.157
				c-0.258,0-0.498-0.082-0.704-0.235c-0.3-0.223-0.47-0.569-0.47-0.945c0-0.252,0.082-0.493,0.235-0.698
				c0.029-0.041,0.058-0.076,0.094-0.112c0.393-0.417,1.091-0.475,1.554-0.129c0.247,0.188,0.411,0.463,0.458,0.775
				c0.041,0.311-0.041,0.622-0.229,0.868C218.394,217.987,218.048,218.157,217.678,218.157z"/>
		</g>
		<g>
			<path style="fill:#E6E6E6;" d="M217.683,218.147c-0.245,0-0.492-0.076-0.703-0.235c-0.519-0.389-0.623-1.124-0.234-1.643
				c0.699-0.932,1.383-1.88,2.033-2.819c0.369-0.532,1.1-0.665,1.633-0.297c0.533,0.369,0.666,1.1,0.297,1.633
				c-0.667,0.962-1.368,1.935-2.085,2.891C218.392,217.985,218.04,218.147,217.683,218.147z"/>
		</g>
	</g>
	<g style="display:inline;">
		<g>
			<path style="fill:#E6E6E6;" d="M222.909,209.904c-0.13,0-0.261-0.034-0.38-0.107c-0.346-0.21-0.456-0.662-0.246-1.008
				c0.643-1.057,2.077-3.506,2.963-5.079c0.199-0.353,0.645-0.478,0.999-0.279c0.353,0.198,0.478,0.646,0.279,0.999
				c-0.892,1.585-2.338,4.055-2.987,5.121C223.398,209.779,223.156,209.904,222.909,209.904z"/>
		</g>
		<g>
			<path style="fill:#E6E6E6;" d="M227.686,199.976c-0.088,0-0.17-0.012-0.252-0.041c-0.376-0.141-0.575-0.563-0.44-0.938
				c0.857-2.376,1.513-4.776,1.953-7.128c0.071-0.387,0.458-0.657,0.857-0.587c0.193,0.041,0.357,0.147,0.469,0.311
				c0.111,0.158,0.152,0.352,0.117,0.545c-0.452,2.417-1.127,4.876-2.001,7.316l-0.012,0.035
				C228.273,199.783,227.991,199.976,227.686,199.976z M230.368,185.268h-0.006c-0.399,0-0.733-0.328-0.733-0.728
				c-0.011-2.493-0.287-4.945-0.821-7.292c-0.047-0.194-0.012-0.387,0.094-0.551c0.1-0.17,0.264-0.282,0.457-0.329
				c0.387-0.088,0.786,0.164,0.874,0.552c0.563,2.441,0.851,5.004,0.862,7.615c0,0.194-0.07,0.376-0.211,0.516
				C230.749,185.192,230.561,185.268,230.368,185.268z M227.082,170.731c-0.288,0-0.551-0.17-0.669-0.429
				c-1.003-2.153-2.253-4.295-3.719-6.354c-0.235-0.329-0.159-0.792,0.17-1.027c0.323-0.223,0.798-0.141,1.027,0.176
				c1.519,2.141,2.816,4.359,3.854,6.588c0.047,0.1,0.065,0.199,0.065,0.305c0.006,0.282-0.159,0.546-0.422,0.669
				C227.288,170.708,227.187,170.731,227.082,170.731z M218.488,158.487c-0.2,0-0.387-0.082-0.528-0.223
				c-1.608-1.684-3.432-3.391-5.432-5.075c-0.147-0.129-0.241-0.305-0.258-0.499c-0.011-0.199,0.047-0.387,0.176-0.534
				c0.246-0.299,0.733-0.34,1.033-0.088c2.03,1.713,3.89,3.456,5.544,5.18c0.129,0.135,0.2,0.317,0.2,0.504
				c0,0.2-0.077,0.393-0.223,0.528C218.857,158.417,218.681,158.487,218.488,158.487z M207.1,148.719
				c-0.164,0-0.317-0.053-0.446-0.147c-1.83-1.384-3.801-2.845-6.025-4.471c-0.158-0.117-0.258-0.287-0.288-0.481
				c-0.029-0.194,0.018-0.387,0.129-0.546c0.229-0.317,0.71-0.387,1.027-0.158c2.182,1.59,4.153,3.057,6.043,4.482
				c0.187,0.141,0.293,0.352,0.293,0.587c0,0.164-0.053,0.311-0.147,0.44C207.546,148.613,207.329,148.719,207.1,148.719z
				 M194.974,139.843c-0.153,0-0.3-0.047-0.429-0.141c-2.1-1.502-4.183-2.98-6.113-4.353c-0.158-0.117-0.264-0.287-0.299-0.481
				c-0.035-0.194,0.011-0.387,0.123-0.546c0.229-0.317,0.704-0.399,1.027-0.17c2.176,1.543,4.142,2.939,6.119,4.359l0.076,0.053
				h-0.011c0.152,0.141,0.241,0.34,0.241,0.546c0,0.152-0.047,0.299-0.135,0.422C195.431,139.725,195.208,139.843,194.974,139.843z
				 M182.736,131.125c-0.152,0-0.299-0.047-0.429-0.135l-0.006-0.006c-0.334-0.235-0.411-0.698-0.176-1.027
				c0.223-0.317,0.704-0.399,1.021-0.17c0.006,0,0.006,0.006,0.011,0.006v0.006c0.194,0.135,0.311,0.358,0.311,0.598
				c0,0.153-0.047,0.299-0.141,0.423C183.194,131.013,182.971,131.125,182.736,131.125z"/>
		</g>
		<g>
			<path style="fill:#E6E6E6;" d="M182.722,131.118c-0.147,0-0.296-0.044-0.425-0.136c-0.956-0.682-1.911-1.365-2.865-2.05
				c-0.329-0.236-0.404-0.694-0.168-1.023c0.236-0.33,0.695-0.404,1.024-0.168c0.952,0.684,1.906,1.366,2.86,2.047
				c0.33,0.235,0.407,0.693,0.171,1.023C183.176,131.012,182.951,131.118,182.722,131.118z"/>
		</g>
	</g>
	<g style="display:inline;">
		<g>
			<path style="fill:#E6E6E6;" d="M182.655,130.63c-0.058,0-0.116-0.017-0.167-0.052l-2.895-2.002
				c-0.134-0.092-0.167-0.275-0.075-0.408c0.092-0.134,0.274-0.166,0.408-0.074l2.896,2.002c0.133,0.092,0.167,0.275,0.074,0.408
				C182.84,130.586,182.748,130.63,182.655,130.63z"/>
		</g>
		<g>
			<path style="fill:#E6E6E6;" d="M176.781,126.561c-0.058,0-0.117-0.017-0.17-0.053c-2.311-1.613-4.194-2.939-5.925-4.171
				c-0.129-0.094-0.158-0.282-0.065-0.411c0.088-0.129,0.282-0.158,0.405-0.07c1.742,1.244,3.62,2.57,5.925,4.171
				c0.129,0.094,0.164,0.276,0.07,0.411C176.969,126.514,176.875,126.561,176.781,126.561z M167.923,120.266
				c-0.065,0-0.123-0.017-0.176-0.059c-2.083-1.525-3.972-2.951-5.79-4.37c-0.123-0.1-0.147-0.282-0.047-0.411
				c0.094-0.123,0.288-0.147,0.411-0.047c1.795,1.396,3.684,2.822,5.778,4.359c0.07,0.053,0.117,0.141,0.117,0.235
				c0,0.059-0.018,0.123-0.058,0.176C168.104,120.219,168.017,120.266,167.923,120.266z M159.304,113.642
				c-0.064,0-0.129-0.023-0.182-0.064c-1.954-1.584-3.755-3.127-5.526-4.705c-0.058-0.053-0.094-0.129-0.094-0.205
				c-0.006-0.076,0.018-0.152,0.07-0.211c0.105-0.117,0.299-0.129,0.417-0.024c1.754,1.566,3.549,3.104,5.503,4.687
				c0.07,0.059,0.105,0.141,0.105,0.229c0,0.064-0.024,0.135-0.064,0.188C159.481,113.601,159.392,113.642,159.304,113.642z
				 M151.126,106.497c-0.076,0-0.147-0.03-0.206-0.082c-1.76-1.655-3.49-3.379-5.151-5.11c-0.053-0.059-0.082-0.135-0.082-0.211
				c0.006-0.082,0.035-0.152,0.094-0.205c0.111-0.111,0.305-0.106,0.416,0.006c1.648,1.731,3.373,3.444,5.127,5.092
				c0.058,0.059,0.094,0.141,0.094,0.223c-0.006,0.07-0.029,0.141-0.082,0.194C151.285,106.462,151.203,106.497,151.126,106.497z
				 M143.517,98.741c-0.082,0-0.164-0.035-0.217-0.094c-1.59-1.754-3.185-3.602-4.746-5.497c-0.047-0.065-0.07-0.141-0.064-0.217
				c0.012-0.076,0.047-0.147,0.106-0.194c0.123-0.1,0.316-0.082,0.416,0.035c1.555,1.895,3.138,3.737,4.723,5.474
				c0.047,0.058,0.076,0.129,0.076,0.199c0,0.082-0.035,0.164-0.1,0.217C143.658,98.717,143.588,98.741,143.517,98.741z
				 M136.606,90.369c-0.106,0-0.2-0.053-0.252-0.141c-1.39-2.177-2.382-4.506-2.863-6.729c-0.018-0.076-0.006-0.153,0.035-0.217
				c0.047-0.07,0.111-0.111,0.188-0.129c0.153-0.035,0.317,0.07,0.346,0.223c0.47,2.153,1.432,4.417,2.793,6.541
				c0.029,0.041,0.041,0.094,0.041,0.147c0.006,0.106-0.047,0.199-0.135,0.258C136.712,90.352,136.659,90.369,136.606,90.369z
				 M133.462,80.132c-0.006,0-0.012,0-0.018,0c-0.152-0.006-0.276-0.135-0.276-0.293c0-0.006,0-0.012,0-0.017
				c0.141-2.64,1.144-4.875,2.986-6.641c0.117-0.106,0.311-0.1,0.417,0.012c0.111,0.117,0.106,0.299-0.006,0.417
				c-1.73,1.654-2.675,3.76-2.81,6.248C133.743,80.009,133.614,80.132,133.462,80.132z M139.299,71.584
				c-0.1,0-0.194-0.053-0.246-0.141c-0.029-0.041-0.047-0.094-0.047-0.147c0-0.106,0.053-0.2,0.135-0.258
				c1.924-1.214,4.001-2.376,6.354-3.543c0.141-0.071,0.323-0.006,0.393,0.135c0.035,0.07,0.041,0.147,0.018,0.223
				c-0.03,0.07-0.082,0.135-0.153,0.17c-2.329,1.156-4.394,2.305-6.295,3.514l-0.006,0.006
				C139.405,71.567,139.352,71.584,139.299,71.584z M148.897,66.498c-0.117,0-0.217-0.071-0.264-0.17
				c-0.023-0.041-0.03-0.088-0.03-0.129c0-0.117,0.07-0.217,0.17-0.264c1.649-0.751,3.332-1.484,4.963-2.194
				c0.557-0.24,1.114-0.481,1.672-0.727c0.147-0.064,0.323,0.006,0.387,0.152c0.065,0.147-0.006,0.323-0.152,0.387
				c-0.546,0.235-1.086,0.475-1.631,0.71c-1.643,0.716-3.338,1.449-4.993,2.206C148.979,66.486,148.938,66.498,148.897,66.498z
				 M158.835,62.104c-0.117,0-0.217-0.064-0.27-0.17c-0.018-0.041-0.023-0.082-0.023-0.129c0-0.111,0.07-0.211,0.17-0.258
				c2.493-1.138,4.552-2.153,6.477-3.203c0.135-0.076,0.323-0.018,0.399,0.117c0.077,0.141,0.024,0.323-0.117,0.399
				c-1.93,1.05-4.001,2.077-6.512,3.221C158.917,62.098,158.876,62.104,158.835,62.104z M168.468,57.088
				c-0.111,0-0.205-0.059-0.258-0.152c-0.023-0.047-0.035-0.094-0.035-0.141c0-0.111,0.059-0.205,0.159-0.258
				c1.085-0.575,2.182-1.69,2.716-2.769c0.404-0.81,0.598-1.566,0.598-2.311c0-0.182-0.011-0.364-0.035-0.54
				c-0.012-0.082,0.012-0.158,0.059-0.217c0.047-0.064,0.117-0.105,0.194-0.111c0.159-0.029,0.311,0.088,0.329,0.252
				c0.029,0.199,0.041,0.41,0.041,0.616c0,0.827-0.223,1.696-0.657,2.57c-0.604,1.197-1.766,2.388-2.969,3.027
				C168.562,57.076,168.515,57.088,168.468,57.088z M170.304,47.977c-0.082,0-0.164-0.035-0.217-0.1
				c-0.927-1.079-2.183-2.106-3.403-3.097c-0.669-0.546-1.361-1.115-1.994-1.684c-0.059-0.053-0.094-0.123-0.1-0.199
				c0-0.082,0.024-0.158,0.076-0.211c0.105-0.117,0.299-0.129,0.417-0.023c0.61,0.551,1.296,1.115,1.959,1.654
				c1.232,1.003,2.511,2.042,3.485,3.18c0.046,0.053,0.07,0.111,0.07,0.182c0.006,0.088-0.035,0.17-0.1,0.229
				C170.445,47.953,170.375,47.977,170.304,47.977z M162.408,40.532c-0.082,0-0.158-0.029-0.217-0.094
				c-0.687-0.739-1.39-1.689-1.385-3.103c0-0.399,0.053-0.827,0.164-1.261l0.006-0.018c0.317-0.962,0.88-1.76,1.666-2.37
				c0.123-0.1,0.317-0.07,0.411,0.053c0.1,0.123,0.076,0.311-0.047,0.41c-0.704,0.551-1.185,1.232-1.472,2.089
				c-0.094,0.381-0.147,0.751-0.147,1.097c0.006,1.132,0.493,1.895,1.226,2.699l0.011,0.012c0.047,0.053,0.076,0.123,0.076,0.193
				c0,0.082-0.035,0.164-0.093,0.217C162.554,40.509,162.484,40.532,162.408,40.532z M166.151,32.735v-0.006
				c-0.153,0.023-0.282-0.064-0.323-0.211c-0.011-0.023-0.011-0.053-0.011-0.082c0-0.088,0.041-0.164,0.105-0.223h-0.094
				l0.199-0.053c0.006-0.006,0.012-0.006,0.012-0.006c0.018-0.006,0.035-0.012,0.053-0.012c0.147-0.041,0.317,0.047,0.364,0.199
				c0.041,0.158-0.053,0.317-0.205,0.364L166.151,32.735z"/>
		</g>
		<g>
			<path style="fill:#E6E6E6;" d="M166.169,32.717c-0.128,0-0.245-0.084-0.282-0.213c-0.045-0.156,0.046-0.318,0.202-0.363
				c0.308-0.088,0.619-0.172,0.929-0.256c0.858-0.231,1.668-0.449,2.412-0.747c0.15-0.061,0.321,0.013,0.381,0.164
				c0.06,0.15-0.013,0.321-0.163,0.381c-0.776,0.31-1.641,0.543-2.477,0.769c-0.307,0.083-0.615,0.166-0.922,0.253
				C166.223,32.713,166.196,32.717,166.169,32.717z"/>
		</g>
	</g>
</g>
<rect x="18" y="32.113" style="display:none;fill:none;" width="264" height="264"/>
<g>
	<path style="fill:#FFFFFF;" d="M244.895,152H23.289c-4.21,0-7.622-3.413-7.622-7.622V86.781c0-4.21,3.413-7.622,7.622-7.622
		h221.606c4.21,0,7.622,3.413,7.622,7.622v57.596C252.517,148.587,249.105,152,244.895,152z"/>
	<path style="fill:#009444;" d="M244.895,154H23.289c-5.306,0-9.622-4.316-9.622-9.622V86.781c0-5.306,4.316-9.622,9.622-9.622
		h221.606c5.306,0,9.622,4.316,9.622,9.622v57.597C254.517,149.684,250.201,154,244.895,154z M23.289,81.159
		c-3.1,0-5.622,2.522-5.622,5.622v57.597c0,3.1,2.522,5.622,5.622,5.622h221.606c3.1,0,5.622-2.522,5.622-5.622V86.781
		c0-3.1-2.522-5.622-5.622-5.622H23.289z"/>
</g>
<g>
	<path style="fill:#009444;" d="M51.034,94.071h12.722c2.518,0,4.396,0.135,5.633,0.403c1.237,0.27,2.345,0.831,3.321,1.684
		c0.977,0.854,1.791,1.99,2.442,3.41c0.651,1.419,0.977,3.01,0.977,4.773c0,1.911-0.402,3.665-1.205,5.26
		c-0.803,1.596-1.892,2.793-3.267,3.59c1.939,0.724,3.43,1.958,4.472,3.702c1.042,1.744,1.563,3.795,1.563,6.151
		c0,1.855-0.336,3.66-1.01,5.414c-0.673,1.753-1.592,3.154-2.757,4.202c-1.165,1.049-2.602,1.694-4.309,1.935
		c-1.071,0.149-3.655,0.241-7.75,0.278H51.034V94.071z M57.459,100.862v9.435h4.211c2.504,0,4.06-0.046,4.667-0.139
		c1.1-0.167,1.965-0.654,2.594-1.461c0.63-0.808,0.944-1.869,0.944-3.187c0-1.262-0.271-2.287-0.814-3.076
		c-0.542-0.788-1.35-1.266-2.42-1.433c-0.637-0.093-2.468-0.139-5.493-0.139H57.459z M57.459,117.088v10.91h5.948
		c2.315,0,3.785-0.083,4.407-0.25c0.955-0.223,1.733-0.766,2.333-1.628c0.601-0.863,0.901-2.018,0.901-3.465
		c0-1.225-0.231-2.264-0.695-3.117c-0.463-0.853-1.132-1.475-2.008-1.865c-0.876-0.39-2.775-0.584-5.699-0.584H57.459z"/>
	<path style="fill:#009444;" d="M87.37,134.873V94.071h6.426v40.802H87.37z"/>
	<path style="fill:#009444;" d="M104.364,134.873V94.071h23.598v6.902H110.79v9.045h15.978v6.875H110.79v11.105h17.779v6.875
		H104.364z"/>
	<path style="fill:#009444;" d="M138.638,134.873V94.405h6.426v33.593h15.978v6.875H138.638z"/>
	<path style="fill:#009444;" d="M170.242,134.873V94.405h6.426v33.593h15.978v6.875H170.242z"/>
	<path style="fill:#009444;" d="M230.372,134.873h-6.99l-2.779-9.268h-12.722l-2.627,9.268h-6.816l12.396-40.802h6.795
		L230.372,134.873z M218.54,118.73l-4.385-15.141l-4.298,15.141H218.54z"/>
</g>
</svg>
