<svg version="1.1" id="Livello_1" xmlns="http://www.w3.org/2000/svg" xmlns:xlink="http://www.w3.org/1999/xlink" x="0px" y="0px"
	 viewBox="0 0 300 300" style="enable-background:new 0 0 300 300;" xml:space="preserve">
<path id="pathOttagono" style="fill:#128442;stroke:#FFFFFF;stroke-width:10;" d="M25,25L150,5l125,20l20,125l-20,125l-125,20
	L25,275L5,150L25,25z"/>
<g id="flowRoot4447_1_" transform="matrix(17.942951,0,0,17.942951,-1175.4685,-1775.4699)">
	<path id="path5071" style="fill:#FFFFFF;" d="M69.324,108.161l0.198-1.413l0.198,1.413H69.324z M69.169,109.28h0.701l0.134,1.119
		h1.467l-1.017-6.131H68.58l-1.033,6.131h1.456L69.169,109.28z"/>
	<path id="path5073" style="fill:#FFFFFF;" d="M74.964,107.176c0.71,0.371,1.065,0.882,1.065,1.531c0,0.507-0.202,0.935-0.605,1.285
		c-0.3,0.271-0.666,0.407-1.098,0.407c-0.414,0-0.775-0.132-1.082-0.396c-0.339-0.293-0.537-0.701-0.594-1.226l1.237-0.289
		c0.007,0.482,0.143,0.723,0.407,0.723c0.111,0,0.209-0.057,0.294-0.171c0.089-0.111,0.134-0.253,0.134-0.428
		c0-0.503-0.366-0.734-1.098-0.691l-0.011-1.183c0.585-0.089,0.9-0.368,0.942-0.835c0.032-0.264-0.059-0.396-0.273-0.396
		c-0.286,0-0.45,0.237-0.493,0.712l-1.13-0.161c0.043-0.593,0.228-1.046,0.557-1.36c0.293-0.278,0.641-0.418,1.044-0.418
		c0.357,0,0.671,0.105,0.942,0.316c0.396,0.307,0.594,0.71,0.594,1.21C75.799,106.38,75.521,106.837,74.964,107.176L74.964,107.176z
		"/>
	<path id="path5075" style="fill:#FFFFFF;" d="M79.332,107.176c0.71,0.371,1.065,0.882,1.065,1.531c0,0.507-0.202,0.935-0.605,1.285
		c-0.3,0.271-0.666,0.407-1.098,0.407c-0.414,0-0.775-0.132-1.082-0.396c-0.339-0.293-0.537-0.701-0.594-1.226l1.237-0.289
		c0.007,0.482,0.143,0.723,0.407,0.723c0.111,0,0.209-0.057,0.294-0.171c0.089-0.111,0.134-0.253,0.134-0.428
		c0-0.503-0.366-0.734-1.098-0.691l-0.011-1.183c0.585-0.089,0.9-0.368,0.942-0.835c0.032-0.264-0.059-0.396-0.273-0.396
		c-0.286,0-0.45,0.237-0.493,0.712l-1.13-0.161c0.043-0.593,0.228-1.046,0.557-1.36c0.293-0.278,0.641-0.418,1.044-0.418
		c0.357,0,0.671,0.105,0.942,0.316c0.396,0.307,0.594,0.71,0.594,1.21C80.168,106.38,79.889,106.837,79.332,107.176L79.332,107.176z
		"/>
</g>
</svg>