<svg version="1.1" id="Livello_1" xmlns="http://www.w3.org/2000/svg" xmlns:xlink="http://www.w3.org/1999/xlink" x="0px" y="0px"
	 viewBox="0 0 504 164" style="enable-background:new 0 0 504 164;" xml:space="preserve">
<path style="fill:#265EAB;" d="M158.099,151.29l18.123-60.426h6.647l19.244,60.426h-7.115l-5.466-18.301h-19.769l-5.108,18.301
	H158.099z M171.581,126.477h16.007l-4.884-16.735c-1.511-5.138-2.618-9.315-3.321-12.53c-0.607,3.875-1.465,7.722-2.575,11.541
	L171.581,126.477z"/>
<path style="fill:#265EAB;" d="M204.813,136.188l6.375-0.125c0.353,3.245,0.299,6.108,1.875,7.688s4.32,1.626,6.928,1.626
	c2.608,0,4.625-0.685,6.051-2.055c1.426-1.37,2.139-3.108,2.139-5.214c0-1.818-0.612-3.23-1.838-4.241
	c-0.844-0.692-2.886-1.558-6.127-2.596c-4.683-1.529-7.815-2.827-9.394-3.894c-1.579-1.067-2.804-2.495-3.676-4.284
	c-0.871-1.788-1.307-3.822-1.307-6.101c0-3.923,1.184-7.111,3.553-9.563c2.369-2.451,5.65-3.678,9.844-3.678
	c2.641,0,4.963,0.505,6.964,1.515c2.001,1.01,3.533,2.366,4.595,4.067c1.062,1.702,2.234,6.433,2.643,9.605H227.5
	c-0.545-5.019-3.499-8.784-8.1-8.784c-2.614,0-4.561,0.553-5.841,1.659c-1.28,1.106-1.92,2.521-1.92,4.245
	c0,1.696,0.614,3.031,1.842,4.008c0.736,0.575,2.918,1.494,6.547,2.758c4.99,1.677,8.217,3.014,9.682,4.011
	c1.465,0.997,2.604,2.355,3.418,4.075c0.814,1.719,1.221,3.764,1.221,6.133c0,4.392-1.314,7.947-3.941,10.663
	c-2.628,2.716-6.216,4.074-10.762,4.074C211.122,151.779,205.125,148.313,204.813,136.188z"/>
<path style="fill:#265EAB;" d="M259.192,143.791c-1.435,0.203-2.599,0.303-3.495,0.303c-1.863,0-3.137-0.52-3.817-1.559
	c-0.465-0.721-0.7-2.323-0.7-4.805v-26.884h8.011v-6.061h-8.011V92.8h-6.887l-1.013,0.6v11.386h-5.805v6.061h5.805v26.451
	c0,4.56,0.314,7.605,0.941,9.134c0.626,1.53,1.782,2.735,3.467,3.615c1.684,0.88,3.905,1.321,6.665,1.321
	c1.757,0,3.727-0.231,5.913-0.693L259.192,143.791z"/>
<path style="fill:#265EAB;" d="M263.699,98.896v-8.532h7.147v8.532H263.699z M263.699,150.79v-46.024h7.147v46.024H263.699z"/>
<path style="fill:#265EAB;" d="M279.739,130.154v-6.46h20.906v6.46H279.739z"/>
<path style="fill:#265EAB;" d="M338.213,141.166c-2.416,2.542-5.287,3.813-8.612,3.813c-4.502,0-8.107-2.069-10.817-6.208
	c-2.711-4.138-3.395-28.622-2.05-32.198c1.344-3.575,3.144-6.208,5.397-7.9c2.254-1.691,4.917-2.538,7.991-2.538
	c5.61,0,10.128,2.282,9.128,11.449l7.083-0.083c0.583-5.5-1.478-10.828-4.616-13.746c-3.2-2.974-7.027-4.462-11.481-4.462
	c-4.071,0-7.756,1.176-11.058,3.527c-3.303,2.351-5.92,5.829-7.852,10.435c-1.932,4.606-1.934,29.471-0.003,34.42
	c1.93,4.95,4.412,8.544,7.442,10.786c3.031,2.241,6.682,3.361,10.952,3.361c4.859,0,8.983-1.669,12.371-5.008
	c3.201-3.154,5.287-8.313,4.662-16.479l-7.229,0.083C339.5,134.25,340.115,139.166,338.213,141.166z"/>
<path style="fill:#265EAB;" d="M377.752,150.518v-6.574c-1.451,2.528-3.158,4.425-5.121,5.689c-1.963,1.264-4.182,1.896-6.657,1.896
	c-2.93,0-5.434-0.78-7.511-2.339c-2.077-1.559-3.463-3.532-4.16-5.92c-0.697-2.388-1.046-5.647-1.046-9.777v-27.727l7.577-0.016
	v25.5c0,4.608-0.22,7.274,0.25,8.833c0.47,1.559,0.488,2.562,1.753,3.503c1.266,0.941,2.71,1.412,4.332,1.412
	c3.015,0,5.49-1.222,7.425-3.667c1.65-2.107,2.475-5.969,2.475-11.588v-23.977h6.315v44.752H377.752z"/>
<path style="fill:#265EAB;" d="M392.076,150.707V105.71h5.549v6.356c1.332-2.471,2.964-4.318,4.894-5.54
	c1.929-1.222,4.143-1.833,6.643-1.833c1.944,0,3.741,0.388,5.393,1.165c1.652,0.777,2.985,1.794,3.999,3.051
	c1.014,1.257,1.77,2.889,2.27,4.894c0.499,2.006,0.75,5.084,0.75,9.237v27.667h-6.134v-27.4c0-3.309-0.278-5.727-0.835-7.253
	c-0.557-1.527-1.425-2.708-2.608-3.542c-1.182-0.834-2.552-1.251-4.109-1.251c-2.949,0-5.299,1.118-7.052,3.351
	c-1.752,2.234-2.629,6.066-2.629,11.494v24.601H392.076z"/>
<path style="fill:#265EAB;" d="M453.5,136.333h5.917c-0.989,4.799-2.257,9.258-4.846,11.7c-2.591,2.442-5.799,3.663-9.625,3.663
	c-4.816,0-8.714-1.983-11.694-5.949c-2.981-3.966-4.471-9.69-4.471-17.171c0-7.763,1.503-13.684,4.509-17.763
	c3.007-4.079,6.814-6.119,11.421-6.119c4.399,0,8.069,2.005,11.011,6.013c2.941,4.009,4.412,9.81,4.412,17.404l-0.039,2.033h-25.379
	c0.234,5.053,1.314,8.864,3.24,11.433c1.926,2.569,4.269,3.853,7.028,3.853C449.305,145.429,451.808,142.488,453.5,136.333z
	 M435.067,123.876h18.976c-0.261-3.896-1.029-6.803-2.304-8.723c-1.849-2.795-4.204-4.193-7.067-4.193
	c-2.577,0-4.777,1.165-6.599,3.494C436.251,116.783,435.249,119.924,435.067,123.876z"/>
<path style="fill:#265EAB;" d="M465.083,127.973c0-7.863,1.527-13.797,4.58-17.801c3.053-4.003,6.919-6.005,11.598-6.005
	c4.6,0,8.446,2.002,11.539,6.005c3.093,4.004,4.639,9.78,4.639,17.329c0,8.179-1.52,14.27-4.56,18.273
	c-3.04,4.004-6.913,6.005-11.618,6.005c-4.626,0-8.48-2.009-11.558-6.026C466.623,141.736,465.083,135.809,465.083,127.973z
	 M471.667,127.75c0,5.898,0.396,10.488,2.378,13.365c1.983,2.878,4.441,4.317,7.376,4.317c2.748,0,5.108-1.453,7.078-4.359
	c1.969-2.906,2.335-7.064,2.335-12.905c0-5.869-0.373-10.458-2.355-13.335c-1.982-2.878-4.441-4.317-7.375-4.317
	c-2.775,0-5.142,1.447-7.098,4.338C472.049,117.745,471.667,121.91,471.667,127.75z"/>
<g>
	<path style="fill:#265EAB;" d="M148.47,115.673H14.236c-1.035,6.772-2.204,13.472-3.04,20.213
		c-0.601,4.845-0.757,9.746-1.111,14.623H148.47V115.673z"/>
	<path style="fill:#265EAB;" d="M148.47,10.26h-2.765c-0.658,0.187-8.008,0.779-11.001,1.107c-4.246,0.465-8.468,1.137-12.701,1.721
		c0.015,0.076,0.03,0.152,0.044,0.228h26.423V10.26z"/>
	<path style="fill:#265EAB;" d="M148.47,90.253C110.8,90.3,71.318,90.301,33.673,90.309c-3.259,0.001-6.518,0-10.245,0
		c-2.753,7.389-5.528,14.838-8.388,22.513c1.032,0.068,1.557,0.132,2.081,0.132c43.162,0.014,88.158,0.015,131.348,0.067V90.253z"/>
	<path style="fill:#265EAB;" d="M148.47,70.728c-0.544-0.088-1.116-0.127-1.684-0.126c-35.253,0.085-70.507,0.061-105.76,0.065
		c-1.553,0-3.112-0.051-4.655,0.077c-0.601,0.05-1.414,0.376-1.709,0.843c-3.25,5.162-6.418,10.377-9.914,16.079
		c1.935,0,3.018,0,4.102,0c39.253,0.002,80.342-0.012,119.62,0.052V70.728z"/>
	<path style="fill:#265EAB;" d="M148.47,55.304c-32.497,0.038-66.787,0.013-99.25,0.036c-0.706,0-1.658,0.181-2.08,0.652
		c-3.387,3.785-6.673,7.661-10.437,12.028c1.985,0,3.19,0,4.395,0c35.17,0.006,72.169-0.003,107.372,0.063V55.304z"/>
	<path style="fill:#265EAB;" d="M148.47,43.461c-0.932-0.066-2.143-0.053-3.737-0.055c-27.865-0.043-55.73-0.08-83.595-0.111
		c-0.371,0-0.861-0.04-1.096,0.167c-3.268,2.876-6.502,5.792-10.221,9.126h98.65V43.461z"/>
	<path style="fill:#265EAB;" d="M148.47,33.82c-24.241-0.015-50.24-0.023-74.43-0.008c-0.661,0-1.445,0.095-1.963,0.452
		c-2.729,1.879-5.39,3.856-8.075,5.798c0.073,0.174,0.146,0.347,0.219,0.52c0.45,0,0.9,0,1.35,0
		c22.207-0.011,44.414-0.025,66.621-0.031c4.811-0.001,11.267-0.03,16.278,0.054V33.82z"/>
	<path style="fill:#265EAB;" d="M148.47,26.834c-0.634-0.064-1.352-0.083-2.148-0.083c-19.181-0.001-38.363,0.121-57.542-0.1
		c-2.043-0.024-3.705-0.166-4.946,0.076c-1.334,0.26-4.031,2.704-6.781,4.366h71.416V26.834z"/>
	<path style="fill:#265EAB;" d="M148.47,21.338c-0.536-0.072-1.004-0.113-1.253-0.114c-16.076-0.048-33.093-0.533-49.166-0.316
		c-0.631,0.009-1.21,0.05-1.899,0.084c-1.066,0.054-5.316,2.182-7.544,3.084c0.06,0.229,25.152,0,36.929,0.004
		c7.028,0.002,15.745-0.015,22.933,0.044V21.338z"/>
	<path style="fill:#265EAB;" d="M148.47,16.011c-11.637-0.011-24.988-0.132-36.549,0.074c-2.65,0.047-5.279,1.285-7.917,1.975
		l0.13,0.393h44.336V16.011z"/>
</g>
</svg>
