<?xml version="1.0" encoding="UTF-8" standalone="no"?>
<svg
   xmlns:dc="http://purl.org/dc/elements/1.1/"
   xmlns:cc="http://creativecommons.org/ns#"
   xmlns:rdf="http://www.w3.org/1999/02/22-rdf-syntax-ns#"
   xmlns:svg="http://www.w3.org/2000/svg"
   xmlns="http://www.w3.org/2000/svg"
   version="1.1"
   id="svg2"
   xml:space="preserve"
   width="664"
   height="306.66666"
   viewBox="0 0 664 306.66666"><metadata
     id="metadata8"><rdf:RDF><cc:Work
         rdf:about=""><dc:format>image/svg+xml</dc:format><dc:type
           rdf:resource="http://purl.org/dc/dcmitype/StillImage" /><dc:title></dc:title></cc:Work></rdf:RDF></metadata><defs
     id="defs6" /><path
     d="m 166.26666,306.42344 h 6.2 v -7.83802 c 0.49867,0.55417 1.924,1.6625 4.24,1.6625 5.38134,0 9.05067,-4.31458 9.05067,-11.40058 0,-5.8192 -3.884,-10.05467 -8.40933,-10.05467 -2.672,0 -4.16934,1.50427 -4.81067,2.61253 h -0.0707 v -2.13746 h -6.2 z m 13.29067,-16.90317 c 0,2.1376 -1.532,3.83963 -3.492,3.83963 -1.924,0 -3.456,-1.70203 -3.456,-3.83963 0,-2.13747 1.532,-3.84 3.456,-3.84 1.96,0 3.492,1.70253 3.492,3.84"
     style="fill:#fffff6;fill-opacity:1;fill-rule:evenodd;stroke:none;stroke-width:0.13333333"
     id="path14" /><path
     d="m 205.15066,290.98494 c -1.176,1.38533 -3.66933,2.92913 -5.772,2.92913 -0.89066,0 -1.81733,-0.31667 -2.13866,-0.55417 l 9.29999,-7.3235 c -0.712,-2.53333 -2.13733,-7.24373 -8.19466,-7.24373 -4.24,0 -9.65733,3.40427 -9.65733,10.7672 0,8.51096 6.12933,10.68805 9.15733,10.68805 3.92,0 6.59333,-1.78125 7.73333,-2.53333 z m -10.40533,-1.34587 c -0.0707,-0.39587 -0.14133,-0.75213 -0.14133,-1.1084 0,-2.45413 1.42533,-3.8004 3.13466,-3.8004 0.5,0 1.64,0.15827 2.032,0.7124 l -5.02533,4.1964"
     style="fill:#fffff6;fill-opacity:1;fill-rule:evenodd;stroke:none;stroke-width:0.13333333"
     id="path16" /><path
     d="m 209.72533,299.77292 h 6.2 v -9.93598 c 0,-2.33534 0.60533,-3.6812 4.06266,-3.6812 v -6.888 c -2.17466,0 -3.208,0.47493 -3.992,2.05826 h -0.0707 v -2.05826 h -6.2 v 20.50518"
     style="fill:#fffff6;fill-opacity:1;fill-rule:nonzero;stroke:none;stroke-width:0.13333333"
     id="path18" /><path
     d="m 234.85599,299.77292 h 6.2 v -28.50158 h -6.2 v 28.50158"
     style="fill:#fffff6;fill-opacity:1;fill-rule:nonzero;stroke:none;stroke-width:0.13333333"
     id="path20" /><path
     d="m 246.33866,284.4136 c 1.14,-0.198 2.032,-0.47506 3.956,-0.47506 2.74267,0 3.34933,0.63333 3.34933,2.69173 -0.57066,-0.31627 -1.604,-0.55373 -2.708,-0.55373 -4.13333,0 -6.37866,3.44373 -6.37866,6.96666 0,4.6318 2.672,7.20472 5.73733,7.20472 2.49333,0 3.77733,-1.54376 3.99067,-1.97917 h 0.0707 v 1.50417 h 5.34534 v -14.05265 c 0,-5.46293 -2.67334,-6.45253 -7.55467,-6.45253 -1.67467,0 -3.38533,0.15826 -5.05867,0.27706 z m 6.02267,6.09627 c 1.03333,0 1.888,0.95 1.888,2.098 0,1.14787 -0.85467,2.09787 -1.888,2.09787 -1.03334,0 -1.88934,-0.95 -1.88934,-2.09787 0,-1.148 0.856,-2.098 1.88934,-2.098"
     style="fill:#fffff6;fill-opacity:1;fill-rule:evenodd;stroke:none;stroke-width:0.13333333"
     id="path22" /><path
     d="m 275.82799,299.77292 h 6.69867 v -7.52132 c 6.44933,0.11867 11.04667,-2.69173 11.04667,-10.41093 0,-6.57133 -2.99334,-10.56933 -8.908,-10.56933 h -8.83734 z m 6.69867,-21.77185 h 1.28267 c 2.28133,0 3.064,1.702 3.064,3.52293 0,1.8208 -0.78267,3.52294 -3.064,3.52294 h -1.28267 v -7.04587"
     style="fill:#fffff6;fill-opacity:1;fill-rule:evenodd;stroke:none;stroke-width:0.13333333"
     id="path24" /><path
     d="m 297.45733,299.77292 h 6.2 v -9.93598 c 0,-2.33534 0.60666,-3.6812 4.06266,-3.6812 v -6.888 c -2.17333,0 -3.20666,0.47493 -3.99066,2.05826 h -0.072 v -2.05826 h -6.2 v 20.50518"
     style="fill:#fffff6;fill-opacity:1;fill-rule:nonzero;stroke:none;stroke-width:0.13333333"
     id="path26" /><path
     d="m 310.56933,289.52027 c 0,5.93807 4.312,10.72765 9.65733,10.72765 5.34533,0 9.656,-4.78958 9.656,-10.72765 0,-5.938 -4.31067,-10.7276 -9.656,-10.7276 -5.34533,0 -9.65733,4.7896 -9.65733,10.7276 z m 6.2,0 c 0,-2.13747 1.53333,-3.84 3.45733,-3.84 1.924,0 3.456,1.70253 3.456,3.84 0,2.1376 -1.532,3.83963 -3.456,3.83963 -1.924,0 -3.45733,-1.70203 -3.45733,-3.83963"
     style="fill:#fffff6;fill-opacity:1;fill-rule:evenodd;stroke:none;stroke-width:0.13333333"
     id="path28" /><path
     d="m 334.15999,279.26774 h -1.284 v 5.93746 h 1.284 v 9.38178 c 0,5.18594 2.77867,5.18594 8.016,5.18594 l 0.92667,-7.04638 c -0.21334,0.0792 -0.39067,0.1584 -0.92667,0.1584 -1.816,0 -1.816,-1.0688 -1.816,-2.0584 v -5.62134 h 2.28 v -5.93746 h -2.28 v -6.49227 l -6.2,3.9584 v 2.53387"
     style="fill:#fffff6;fill-opacity:1;fill-rule:nonzero;stroke:none;stroke-width:0.13333333"
     id="path30" /><path
     d="m 362.47999,290.98494 c -1.176,1.38533 -3.67067,2.92913 -5.77333,2.92913 -0.88934,0 -1.816,-0.31667 -2.13734,-0.55417 l 9.3,-7.3235 c -0.712,-2.53333 -2.13866,-7.24373 -8.196,-7.24373 -4.24,0 -9.656,3.40427 -9.656,10.7672 0,8.51096 6.12934,10.68805 9.15734,10.68805 3.92,0 6.592,-1.78125 7.732,-2.53333 z m -10.40533,-1.34587 c -0.0707,-0.39587 -0.14267,-0.75213 -0.14267,-1.1084 0,-2.45413 1.42533,-3.8004 3.136,-3.8004 0.49867,0 1.63867,0.15827 2.032,0.7124 l -5.02533,4.1964"
     style="fill:#fffff6;fill-opacity:1;fill-rule:evenodd;stroke:none;stroke-width:0.13333333"
     id="path32" /><path
     d="m 366.01999,286.15574 h 5.02533 l -5.16666,13.61718 h 13.896 l 1.212,-6.88798 h -5.88 l 5.34533,-13.6172 h -14.432 v 6.888"
     style="fill:#fffff6;fill-opacity:1;fill-rule:nonzero;stroke:none;stroke-width:0.13333333"
     id="path34" /><path
     d="m 384.43866,299.77292 h 6.2 v -20.50518 h -6.2 z m 0,-22.32598 h 6.2 v -6.1756 h -6.2 v 6.1756"
     style="fill:#fffff6;fill-opacity:1;fill-rule:evenodd;stroke:none;stroke-width:0.13333333"
     id="path36" /><path
     d="m 394.24666,289.52027 c 0,5.93807 4.31066,10.72765 9.656,10.72765 5.34533,0 9.65733,-4.78958 9.65733,-10.72765 0,-5.938 -4.312,-10.7276 -9.65733,-10.7276 -5.34534,0 -9.656,4.7896 -9.656,10.7276 z m 6.2,0 c 0,-2.13747 1.532,-3.84 3.456,-3.84 1.924,0 3.45733,1.70253 3.45733,3.84 0,2.1376 -1.53333,3.83963 -3.45733,3.83963 -1.924,0 -3.456,-1.70203 -3.456,-3.83963"
     style="fill:#fffff6;fill-opacity:1;fill-rule:evenodd;stroke:none;stroke-width:0.13333333"
     id="path38" /><path
     d="m 417.26532,299.77292 h 6.2 v -11.24225 c 0,-1.30613 0.25067,-2.8504 1.78267,-2.8504 1.67467,0 1.888,1.54427 1.888,2.8504 v 11.24225 h 6.2 v -15.08225 c 0,-4.35427 -2.77867,-5.898 -5.34533,-5.898 -1.852,0 -3.31334,0.9104 -4.52534,2.37507 v -1.9 h -6.2 v 20.50518"
     style="fill:#fffff6;fill-opacity:1;fill-rule:evenodd;stroke:none;stroke-width:0.13333333"
     id="path40" /><path
     d="m 453.48932,290.98494 c -1.176,1.38533 -3.67066,2.92913 -5.772,2.92913 -0.89066,0 -1.81733,-0.31667 -2.13866,-0.55417 l 9.3,-7.3235 c -0.712,-2.53333 -2.13734,-7.24373 -8.19467,-7.24373 -4.24133,0 -9.65733,3.40427 -9.65733,10.7672 0,8.51096 6.12933,10.68805 9.15866,10.68805 3.92,0 6.59067,-1.78125 7.732,-2.53333 z m -10.40533,-1.34587 c -0.0707,-0.39587 -0.14133,-0.75213 -0.14133,-1.1084 0,-2.45413 1.42533,-3.8004 3.13466,-3.8004 0.5,0 1.64,0.15827 2.032,0.7124 l -5.02533,4.1964"
     style="fill:#fffff6;fill-opacity:1;fill-rule:evenodd;stroke:none;stroke-width:0.13333333"
     id="path42" /><path
     d="m 467.55199,299.77292 h 7.23333 l 0.92667,-3.16666 h 8.83733 l 0.92667,3.16666 h 7.23333 l -8.624,-28.50158 h -7.55333 z m 15.00133,-10.21305 h -4.77467 l 2.316,-7.9172 h 0.072 l 2.38667,7.9172"
     style="fill:#fffff6;fill-opacity:1;fill-rule:evenodd;stroke:none;stroke-width:0.13333333"
     id="path44" /><path
     d="m 495.70132,299.77292 h 6.2 V 288.4912 c 0,-0.9896 0,-2.49386 1.78267,-2.49386 1.70933,0 1.70933,1.78133 1.70933,2.77093 v 11.00465 h 6.2 V 288.4912 c 0,-0.9896 0,-2.49386 1.78267,-2.49386 1.70933,0 1.70933,1.78133 1.70933,2.77093 v 11.00465 h 6.2 v -15.08225 c 0,-2.9688 -1.816,-5.898 -5.736,-5.898 -1.31867,0 -3.31333,0.55427 -4.88267,2.37507 -1.816,-2.37507 -3.456,-2.37507 -4.34666,-2.37507 -2.45867,0 -3.99067,1.9 -4.34667,2.37507 h -0.072 v -1.9 h -6.2 v 20.50518"
     style="fill:#fffff6;fill-opacity:1;fill-rule:nonzero;stroke:none;stroke-width:0.13333333"
     id="path46" /><path
     d="m 525.73599,289.3224 c 0,3.40414 0,10.92552 9.264,10.92552 4.88133,0 9.728,-2.81042 9.728,-10.96512 0,-7.64013 -4.81067,-10.49013 -8.37334,-10.49013 -1.88933,0 -3.884,0.87093 -4.348,1.66253 h -0.0707 v -9.18386 h -6.2 z m 6.05733,0.19787 c 0,-2.13747 1.532,-3.84 3.38533,-3.84 1.816,0 3.34934,1.70253 3.34934,3.84 0,2.1376 -1.53334,3.83963 -3.34934,3.83963 -1.85333,0 -3.38533,-1.70203 -3.38533,-3.83963"
     style="fill:#fffff6;fill-opacity:1;fill-rule:evenodd;stroke:none;stroke-width:0.13333333"
     id="path48" /><path
     d="m 548.61332,299.77292 h 6.2 v -20.50518 h -6.2 z m 0,-22.32598 h 6.2 v -6.1756 h -6.2 v 6.1756"
     style="fill:#fffff6;fill-opacity:1;fill-rule:evenodd;stroke:none;stroke-width:0.13333333"
     id="path50" /><path
     d="m 574.88399,290.98494 c -1.176,1.38533 -3.66934,2.92913 -5.772,2.92913 -0.89067,0 -1.81734,-0.31667 -2.13867,-0.55417 l 9.3,-7.3235 c -0.712,-2.53333 -2.13733,-7.24373 -8.19467,-7.24373 -4.24,0 -9.65733,3.40427 -9.65733,10.7672 0,8.51096 6.12933,10.68805 9.15733,10.68805 3.92134,0 6.59334,-1.78125 7.73334,-2.53333 z m -10.404,-1.34587 c -0.072,-0.39587 -0.14267,-0.75213 -0.14267,-1.1084 0,-2.45413 1.424,-3.8004 3.136,-3.8004 0.49867,0 1.63867,0.15827 2.03067,0.7124 l -5.024,4.1964"
     style="fill:#fffff6;fill-opacity:1;fill-rule:evenodd;stroke:none;stroke-width:0.13333333"
     id="path52" /><path
     d="m 579.45865,299.77292 h 6.2 v -11.24225 c 0,-1.30613 0.248,-2.8504 1.78134,-2.8504 1.67466,0 1.888,1.54427 1.888,2.8504 v 11.24225 h 6.2 v -15.08225 c 0,-4.35427 -2.77867,-5.898 -5.344,-5.898 -1.85334,0 -3.31467,0.9104 -4.52534,2.37507 v -1.9 h -6.2 v 20.50518"
     style="fill:#fffff6;fill-opacity:1;fill-rule:evenodd;stroke:none;stroke-width:0.13333333"
     id="path54" /><path
     d="m 600.75198,279.26774 h -1.28266 v 5.93746 h 1.28266 v 9.38178 c 0,5.18594 2.77867,5.18594 8.01734,5.18594 l 0.92533,-7.04638 c -0.21333,0.0792 -0.39067,0.1584 -0.92533,0.1584 -1.81734,0 -1.81734,-1.0688 -1.81734,-2.0584 v -5.62134 h 2.28 v -5.93746 h -2.28 v -6.49227 l -6.2,3.9584 v 2.53387"
     style="fill:#fffff6;fill-opacity:1;fill-rule:nonzero;stroke:none;stroke-width:0.13333333"
     id="path56" /><path
     d="m 614.28398,284.4136 c 1.14,-0.198 2.032,-0.47506 3.956,-0.47506 2.744,0 3.34934,0.63333 3.34934,2.69173 -0.57067,-0.31627 -1.604,-0.55373 -2.708,-0.55373 -4.13334,0 -6.37867,3.44373 -6.37867,6.96666 0,4.6318 2.672,7.20472 5.73733,7.20472 2.49467,0 3.77734,-1.54376 3.99067,-1.97917 h 0.072 v 1.50417 h 5.344 v -14.05265 c 0,-5.46293 -2.672,-6.45253 -7.55333,-6.45253 -1.676,0 -3.38534,0.15826 -5.06,0.27706 z m 6.02267,6.09627 c 1.03333,0 1.888,0.95 1.888,2.098 0,1.14787 -0.85467,2.09787 -1.888,2.09787 -1.03333,0 -1.88933,-0.95 -1.88933,-2.09787 0,-1.148 0.856,-2.098 1.88933,-2.098"
     style="fill:#fffff6;fill-opacity:1;fill-rule:evenodd;stroke:none;stroke-width:0.13333333"
     id="path58" /><path
     d="m 632.28932,299.77292 h 6.2 v -28.50158 h -6.2 v 28.50158"
     style="fill:#fffff6;fill-opacity:1;fill-rule:nonzero;stroke:none;stroke-width:0.13333333"
     id="path60" /><path
     d="m 658.55998,290.98494 c -1.176,1.38533 -3.66933,2.92913 -5.772,2.92913 -0.892,0 -1.81733,-0.31667 -2.13733,-0.55417 l 9.3,-7.3235 c -0.71333,-2.53333 -2.13867,-7.24373 -8.196,-7.24373 -4.24,0 -9.65733,3.40427 -9.65733,10.7672 0,8.51096 6.12933,10.68805 9.15733,10.68805 3.92,0 6.59333,-1.78125 7.73333,-2.53333 z m -10.404,-1.34587 c -0.072,-0.39587 -0.14266,-0.75213 -0.14266,-1.1084 0,-2.45413 1.42533,-3.8004 3.13466,-3.8004 0.49867,0 1.64,0.15827 2.032,0.7124 l -5.024,4.1964"
     style="fill:#fffff6;fill-opacity:1;fill-rule:evenodd;stroke:none;stroke-width:0.13333333"
     id="path62" /><path
     d="m 367.98132,259.86094 h 7.23334 l 0.92533,-3.16667 h 8.83733 l 0.92534,3.16667 h 7.23333 l -8.62133,-28.5016 h -7.55467 z m 15,-10.21307 h -4.77466 l 2.316,-7.9172 h 0.072 l 2.38666,7.9172"
     style="fill:#fffff6;fill-opacity:1;fill-rule:evenodd;stroke:none;stroke-width:0.13333333"
     id="path64" /><path
     d="m 394.15999,263.0276 c 2.316,2.2568 4.91733,3.80054 8.05333,3.80054 6.164,0 8.76534,-4.47347 8.76534,-8.47134 0,-2.85053 -0.99734,-4.1568 -1.532,-4.82973 0.85466,-0.8708 1.74533,-2.85 1.74533,-5.06667 0,-3.1672 -1.24667,-5.50253 -1.78133,-6.0172 l 1.85333,-3.08746 h -3.77733 v -0.0792 c 0.32,0.0792 -3.31334,-0.39587 -5.06,-0.39587 -3.34934,0 -7.87467,2.37507 -7.87467,9.57973 0,3.9584 2.388,9.06507 8.33867,9.06507 0.56933,0 1.28266,-0.0395 1.888,-0.23747 v 0.95 c 0,1.38547 -1.03334,2.25627 -2.388,2.25627 -1.852,0 -3.95467,-0.9896 -5.16534,-2.57293 z m 6.30667,-14.80466 c 0,-1.4256 1.03333,-2.61307 2.28133,-2.61307 1.176,0 2.244,1.18747 2.244,2.61307 0,1.34586 -1.068,2.57293 -2.244,2.57293 -1.248,0 -2.28133,-1.22707 -2.28133,-2.57293"
     style="fill:#fffff6;fill-opacity:1;fill-rule:evenodd;stroke:none;stroke-width:0.13333333"
     id="path66" /><path
     d="m 429.68799,251.07294 c -1.17467,1.38533 -3.66933,2.92973 -5.77067,2.92973 -0.89066,0 -1.81733,-0.3172 -2.13866,-0.5548 l 9.3,-7.32293 c -0.71334,-2.53374 -2.13867,-7.24427 -8.19467,-7.24427 -4.24133,0 -9.656,3.40427 -9.656,10.7672 0,8.51093 6.128,10.68813 9.156,10.68813 3.92,0 6.592,-1.78133 7.73333,-2.53333 z m -10.404,-1.34587 c -0.0707,-0.39587 -0.14133,-0.75213 -0.14133,-1.10827 0,-2.4548 1.424,-3.80053 3.13466,-3.80053 0.49867,0 1.64,0.15827 2.03067,0.71293 l -5.024,4.19587"
     style="fill:#fffff6;fill-opacity:1;fill-rule:evenodd;stroke:none;stroke-width:0.13333333"
     id="path68" /><path
     d="m 433.18532,259.86094 h 6.2 V 248.6188 c 0,-1.30626 0.24934,-2.85053 1.78134,-2.85053 1.67466,0 1.888,1.54427 1.888,2.85053 v 11.24214 h 6.2 v -15.08227 c 0,-4.35413 -2.77867,-5.898 -5.344,-5.898 -1.85334,0 -3.31467,0.91054 -4.52534,2.37507 v -1.9 h -6.2 v 20.5052"
     style="fill:#fffff6;fill-opacity:1;fill-rule:evenodd;stroke:none;stroke-width:0.13333333"
     id="path70" /><path
     d="m 451.79599,246.24374 h 5.02533 l -5.16666,13.6172 h 13.896 l 1.21066,-6.888 h -5.87866 l 5.344,-13.6172 h -14.43067 v 6.888"
     style="fill:#fffff6;fill-opacity:1;fill-rule:nonzero;stroke:none;stroke-width:0.13333333"
     id="path72" /><path
     d="m 469.13599,259.86094 h 6.2 v -20.5052 h -6.2 z m 0,-22.326 h 6.2 v -6.1756 h -6.2 v 6.1756"
     style="fill:#fffff6;fill-opacity:1;fill-rule:evenodd;stroke:none;stroke-width:0.13333333"
     id="path74" /><path
     d="m 479.53999,244.5016 c 1.14133,-0.198 2.032,-0.47506 3.95466,-0.47506 2.744,0 3.35067,0.63333 3.35067,2.69226 -0.57067,-0.3172 -1.604,-0.5548 -2.70933,-0.5548 -4.132,0 -6.37734,3.44427 -6.37734,6.9672 0,4.63187 2.672,7.2048 5.736,7.2048 2.49467,0 3.77734,-1.54386 3.99067,-1.9792 h 0.072 v 1.50414 h 5.34533 v -14.05307 c 0,-5.46253 -2.67333,-6.45213 -7.55466,-6.45213 -1.67467,0 -3.38534,0.15827 -5.06,0.27707 z m 6.02133,6.09627 c 1.03333,0 1.88933,0.95 1.88933,2.098 0,1.14787 -0.856,2.09787 -1.88933,2.09787 -1.03333,0 -1.888,-0.95 -1.888,-2.09787 0,-1.148 0.85467,-2.098 1.888,-2.098"
     style="fill:#fffff6;fill-opacity:1;fill-rule:evenodd;stroke:none;stroke-width:0.13333333"
     id="path76" /><path
     d="m 506.87199,259.86094 h 6.7 v -11.7568 h 0.0707 l 4.52534,11.7568 h 7.55333 l -4.91733,-12.35054 c 2.24533,-1.66306 3.492,-3.9588 3.492,-7.0068 0,-6.05666 -3.52667,-9.14426 -8.62267,-9.14426 h -8.80133 z m 6.7,-22.16827 c 2.49333,0 4.02533,0.95054 4.02533,3.52347 0,2.57293 -1.532,3.52293 -4.02533,3.52293 v -7.0464"
     style="fill:#fffff6;fill-opacity:1;fill-rule:evenodd;stroke:none;stroke-width:0.13333333"
     id="path78" /><path
     d="m 542.92265,251.07294 c -1.176,1.38533 -3.66933,2.92973 -5.772,2.92973 -0.89066,0 -1.81733,-0.3172 -2.13866,-0.5548 l 9.3,-7.32293 c -0.712,-2.53374 -2.13734,-7.24427 -8.19467,-7.24427 -4.24,0 -9.656,3.40427 -9.656,10.7672 0,8.51093 6.128,10.68813 9.15733,10.68813 3.91867,0 6.592,-1.78133 7.732,-2.53333 z m -10.404,-1.34587 c -0.0707,-0.39587 -0.14266,-0.75213 -0.14266,-1.10827 0,-2.4548 1.42533,-3.80053 3.136,-3.80053 0.49866,0 1.63866,0.15827 2.03066,0.71293 l -5.024,4.19587"
     style="fill:#fffff6;fill-opacity:1;fill-rule:evenodd;stroke:none;stroke-width:0.13333333"
     id="path80" /><path
     d="m 545.38532,263.0276 c 2.31733,2.2568 4.91733,3.80054 8.05333,3.80054 6.164,0 8.76534,-4.47347 8.76534,-8.47134 0,-2.85053 -0.99867,-4.1568 -1.532,-4.82973 0.85466,-0.8708 1.74533,-2.85 1.74533,-5.06667 0,-3.1672 -1.24667,-5.50253 -1.78133,-6.0172 l 1.852,-3.08746 h -3.776 v -0.0792 c 0.32,0.0792 -3.31467,-0.39587 -5.06,-0.39587 -3.34934,0 -7.87467,2.37507 -7.87467,9.57973 0,3.9584 2.388,9.06507 8.33733,9.06507 0.57067,0 1.28267,-0.0395 1.88934,-0.23747 v 0.95 c 0,1.38547 -1.03334,2.25627 -2.38667,2.25627 -1.85333,0 -3.956,-0.9896 -5.16667,-2.57293 z m 6.30667,-14.80466 c 0,-1.4256 1.03333,-2.61307 2.28133,-2.61307 1.176,0 2.244,1.18747 2.244,2.61307 0,1.34586 -1.068,2.57293 -2.244,2.57293 -1.248,0 -2.28133,-1.22707 -2.28133,-2.57293"
     style="fill:#fffff6;fill-opacity:1;fill-rule:evenodd;stroke:none;stroke-width:0.13333333"
     id="path82" /><path
     d="m 565.41465,259.86094 h 6.2 v -20.5052 h -6.2 z m 0,-22.326 h 6.2 v -6.1756 h -6.2 v 6.1756"
     style="fill:#fffff6;fill-opacity:1;fill-rule:evenodd;stroke:none;stroke-width:0.13333333"
     id="path84" /><path
     d="m 574.14532,249.60827 c 0,5.9376 4.31067,10.72773 9.656,10.72773 5.344,0 9.656,-4.79013 9.656,-10.72773 0,-5.938 -4.312,-10.7276 -9.656,-10.7276 -5.34533,0 -9.656,4.7896 -9.656,10.7276 z m 6.19867,0 c 0,-2.13747 1.53333,-3.84 3.45733,-3.84 1.92267,0 3.456,1.70253 3.456,3.84 0,2.1376 -1.53333,3.8396 -3.456,3.8396 -1.924,0 -3.45733,-1.702 -3.45733,-3.8396"
     style="fill:#fffff6;fill-opacity:1;fill-rule:evenodd;stroke:none;stroke-width:0.13333333"
     id="path86" /><path
     d="m 596.08532,259.86094 h 6.2 V 248.6188 c 0,-1.30626 0.24933,-2.85053 1.78133,-2.85053 1.67333,0 1.888,1.54427 1.888,2.85053 v 11.24214 h 6.2 v -15.08227 c 0,-4.35413 -2.77867,-5.898 -5.34533,-5.898 -1.852,0 -3.312,0.91054 -4.524,2.37507 v -1.9 h -6.2 v 20.5052"
     style="fill:#fffff6;fill-opacity:1;fill-rule:evenodd;stroke:none;stroke-width:0.13333333"
     id="path88" /><path
     d="m 616.44265,244.5016 c 1.14,-0.198 2.03067,-0.47506 3.95467,-0.47506 2.744,0 3.34933,0.63333 3.34933,2.69226 -0.56933,-0.3172 -1.604,-0.5548 -2.708,-0.5548 -4.13333,0 -6.37733,3.44427 -6.37733,6.9672 0,4.63187 2.672,7.2048 5.736,7.2048 2.49466,0 3.77733,-1.54386 3.99066,-1.9792 h 0.072 v 1.50414 h 5.344 v -14.05307 c 0,-5.46253 -2.672,-6.45213 -7.55333,-6.45213 -1.67467,0 -3.38533,0.15827 -5.06,0.27707 z m 6.02133,6.09627 c 1.03334,0 1.88934,0.95 1.88934,2.098 0,1.14787 -0.856,2.09787 -1.88934,2.09787 -1.03333,0 -1.888,-0.95 -1.888,-2.09787 0,-1.148 0.85467,-2.098 1.888,-2.098"
     style="fill:#fffff6;fill-opacity:1;fill-rule:evenodd;stroke:none;stroke-width:0.13333333"
     id="path90" /><path
     d="m 633.36932,259.86094 h 6.19866 v -28.5016 h -6.19866 v 28.5016"
     style="fill:#fffff6;fill-opacity:1;fill-rule:nonzero;stroke:none;stroke-width:0.13333333"
     id="path92" /><path
     d="m 658.55998,251.07294 c -1.17466,1.38533 -3.66933,2.92973 -5.772,2.92973 -0.89066,0 -1.816,-0.3172 -2.13733,-0.5548 l 9.3,-7.32293 c -0.71333,-2.53374 -2.13867,-7.24427 -8.196,-7.24427 -4.24,0 -9.656,3.40427 -9.656,10.7672 0,8.51093 6.128,10.68813 9.15733,10.68813 3.92,0 6.592,-1.78133 7.732,-2.53333 z m -10.404,-1.34587 c -0.0707,-0.39587 -0.14266,-0.75213 -0.14266,-1.10827 0,-2.4548 1.42533,-3.80053 3.136,-3.80053 0.49866,0 1.63866,0.15827 2.03066,0.71293 l -5.024,4.19587"
     style="fill:#fffff6;fill-opacity:1;fill-rule:evenodd;stroke:none;stroke-width:0.13333333"
     id="path94" /><path
     d="m 546.77732,117.90401 c 9.904,-1.28934 17.64133,-3.096 34.35467,-3.096 23.83199,0 29.09333,4.128 29.09333,17.54 -4.952,-2.064 -13.928,-3.612 -23.52267,-3.612 -35.90266,0 -55.40133,22.44 -55.40133,45.39426 0,30.17707 23.21333,46.9416 49.83067,46.9416 21.66533,0 32.80799,-10.0588 34.66399,-12.89586 h 0.62 v 9.80053 h 46.42534 v -91.56187 c 0,-35.593328 -23.21334,-42.041328 -65.61467,-42.041328 -14.54666,0 -29.40266,1.032 -43.95066,1.806667 z m 52.30667,39.72 c 8.97466,0 16.40266,6.18933 16.40266,13.66933 0,7.4796 -7.428,13.66973 -16.40266,13.66973 -8.97734,0 -16.404,-6.19013 -16.404,-13.66973 0,-7.48 7.42666,-13.66933 16.404,-13.66933"
     style="fill:#f9ffff;fill-opacity:1;fill-rule:evenodd;stroke:none;stroke-width:0.13333333"
     id="path96" /><path
     d="M 613.86665,46.69201 H 396.65866 l 108.77199,170.23293 z"
     style="fill:#80d6f7;fill-opacity:1;fill-rule:nonzero;stroke:none;stroke-width:0.13333333"
     id="path98" /><path
     d="M 613.86665,46.69201 H 396.65866 l 108.77199,170.23293 z"
     style="fill:none;stroke:#80d6f7;stroke-width:3.78320003;stroke-linecap:butt;stroke-linejoin:miter;stroke-miterlimit:3.8636899;stroke-dasharray:none;stroke-opacity:1"
     id="path100" /><path
     d="m 529.38132,119.52801 25.17333,-43.236001 -27.196,-17.370666 -8.94133,23.350666 -6.216,-1.994667 5.96667,-26.077332 -31.92667,-1.678667 v 27.730666 l -8.70933,-0.721333 -1.27734,25.918664 53.12667,14.07867"
     style="fill:#231f20;fill-opacity:1;fill-rule:nonzero;stroke:none;stroke-width:0.13333333"
     id="path102" /><path
     d="m 529.38132,119.52801 25.17333,-43.236001 -27.196,-17.370666 -8.94133,23.350666 -6.216,-1.994667 5.96667,-26.077332 -31.92667,-1.678667 v 27.730666 l -8.70933,-0.721333 -1.27734,25.918664 z"
     style="fill:none;stroke:#231f20;stroke-width:0.6673333;stroke-linecap:butt;stroke-linejoin:miter;stroke-miterlimit:3.86370993;stroke-dasharray:none;stroke-opacity:1"
     id="path104" /><path
     d="m 544.99065,104.69734 -9.75466,16.67733 -8.18134,-2.51733 10.384,-17.308 7.552,3.148"
     style="fill:#ca6f1f;fill-opacity:1;fill-rule:nonzero;stroke:none;stroke-width:0.13333333"
     id="path106" /><path
     d="m 544.99065,104.69734 -9.75466,16.67733 -8.18134,-2.51733 10.384,-17.308 z"
     style="fill:none;stroke:#ca6f1f;stroke-width:1;stroke-linecap:butt;stroke-linejoin:round;stroke-miterlimit:3.8636899;stroke-dasharray:none;stroke-opacity:1"
     id="path108" /><path
     d="m 543.24265,123.59467 -108.12399,-31.219995 24.36666,37.091995 77.13733,3.752 6.62,-9.624"
     style="fill:#a7a5a6;fill-opacity:1;fill-rule:nonzero;stroke:none;stroke-width:0.13333333"
     id="path110" /><path
     d="m 543.24265,123.59467 -108.12399,-31.219995 24.36666,37.091995 77.13733,3.752 z"
     style="fill:none;stroke:#a7a5a6;stroke-width:1;stroke-linecap:butt;stroke-linejoin:round;stroke-miterlimit:3.8636899;stroke-dasharray:none;stroke-opacity:1"
     id="path112" /><path
     d="m 528.98132,130.81467 -75.66666,-10.872 20.28266,31.64 35.24533,-5.97866 20.13867,-14.78934"
     style="fill:#b2db18;fill-opacity:1;fill-rule:nonzero;stroke:none;stroke-width:0.13333333"
     id="path114" /><path
     d="m 528.98132,130.81467 -75.66666,-10.872 20.28266,31.64 35.24533,-5.97866 z"
     style="fill:none;stroke:#b2db18;stroke-width:1;stroke-linecap:butt;stroke-linejoin:round;stroke-miterlimit:3.8636899;stroke-dasharray:none;stroke-opacity:1"
     id="path116" /><path
     d="m 505.20399,57.76801 -7.66134,-0.688 -0.344,8.347999 6.90934,2.606667 1.096,-10.266666"
     style="fill:#ffffff;fill-opacity:1;fill-rule:nonzero;stroke:none;stroke-width:0.13333333"
     id="path118" /><path
     d="m 503.23465,72.576009 -5.83466,-0.313333 0.0653,7.837333 4.692,0.688 1.07733,-8.212"
     style="fill:#ffffff;fill-opacity:1;fill-rule:nonzero;stroke:none;stroke-width:0.13333333"
     id="path120" /><path
     d="m 540.76399,72.446676 -7.1,-2.970667 -5.036,11.318667 5.036,2.753333 7.1,-11.101333"
     style="fill:#ffffff;fill-opacity:1;fill-rule:nonzero;stroke:none;stroke-width:0.13333333"
     id="path122" /><path
     d="m 541.35999,93.546675 c 0,-3.422666 3.80666,-6.197333 8.5,-6.197333 4.69466,0 8.5,2.774667 8.5,6.197333 0,3.422667 -3.80534,6.197334 -8.5,6.197334 -4.69334,0 -8.5,-2.774667 -8.5,-6.197334"
     style="fill:#009857;fill-opacity:1;fill-rule:nonzero;stroke:none;stroke-width:0.13333333"
     id="path124" /><path
     d="m 541.35999,93.546675 c 0,-3.422666 3.80666,-6.197333 8.5,-6.197333 4.69466,0 8.5,2.774667 8.5,6.197333 0,3.422667 -3.80534,6.197334 -8.5,6.197334 -4.69334,0 -8.5,-2.774667 -8.5,-6.197334 z"
     style="fill:none;stroke:#009857;stroke-width:1;stroke-linecap:butt;stroke-linejoin:round;stroke-miterlimit:3.8636899;stroke-dasharray:none;stroke-opacity:1"
     id="path126" /><path
     d="m 530.82799,86.473342 c 0,-5.345333 4.28,-9.678666 9.56133,-9.678666 5.28,0 9.56133,4.333333 9.56133,9.678666 0,5.346667 -4.28133,9.681333 -9.56133,9.681333 -5.28133,0 -9.56133,-4.334666 -9.56133,-9.681333"
     style="fill:#009857;fill-opacity:1;fill-rule:nonzero;stroke:none;stroke-width:0.13333333"
     id="path128" /><path
     d="m 530.82799,86.473342 c 0,-5.345333 4.28,-9.678666 9.56133,-9.678666 5.28,0 9.56133,4.333333 9.56133,9.678666 0,5.346667 -4.28133,9.681333 -9.56133,9.681333 -5.28133,0 -9.56133,-4.334666 -9.56133,-9.681333 z"
     style="fill:none;stroke:#009857;stroke-width:1;stroke-linecap:butt;stroke-linejoin:round;stroke-miterlimit:3.8636899;stroke-dasharray:none;stroke-opacity:1"
     id="path130" /><path
     d="m 525.96532,98.633342 c 0,-4.874667 4.52933,-8.826667 10.116,-8.826667 5.58533,0 10.11467,3.952 10.11467,8.826667 0,4.875998 -4.52934,8.827998 -10.11467,8.827998 -5.58667,0 -10.116,-3.952 -10.116,-8.827998"
     style="fill:#009857;fill-opacity:1;fill-rule:nonzero;stroke:none;stroke-width:0.13333333"
     id="path132" /><path
     d="m 525.96532,98.633342 c 0,-4.874667 4.52933,-8.826667 10.116,-8.826667 5.58533,0 10.11467,3.952 10.11467,8.826667 0,4.875998 -4.52934,8.827998 -10.11467,8.827998 -5.58667,0 -10.116,-3.952 -10.116,-8.827998 z"
     style="fill:none;stroke:#009857;stroke-width:1;stroke-linecap:butt;stroke-linejoin:round;stroke-miterlimit:3.8636899;stroke-dasharray:none;stroke-opacity:1"
     id="path134" /><path
     d="m 541.84799,102.41334 c 0,-4.819998 3.55066,-8.726665 7.932,-8.726665 4.38,0 7.932,3.906667 7.932,8.726665 0,4.81867 -3.552,8.72533 -7.932,8.72533 -4.38134,0 -7.932,-3.90666 -7.932,-8.72533"
     style="fill:#009857;fill-opacity:1;fill-rule:nonzero;stroke:none;stroke-width:0.13333333"
     id="path136" /><path
     d="m 541.84799,102.41334 c 0,-4.819998 3.55066,-8.726665 7.932,-8.726665 4.38,0 7.932,3.906667 7.932,8.726665 0,4.81867 -3.552,8.72533 -7.932,8.72533 -4.38134,0 -7.932,-3.90666 -7.932,-8.72533 z"
     style="fill:none;stroke:#009857;stroke-width:1;stroke-linecap:butt;stroke-linejoin:round;stroke-miterlimit:3.8636899;stroke-dasharray:none;stroke-opacity:1"
     id="path138" /><path
     d="m 473.85332,86.969342 -17.88133,-28.375999 5.836,28.375999"
     style="fill:none;stroke:#231f20;stroke-width:1.71959996;stroke-linecap:butt;stroke-linejoin:round;stroke-miterlimit:3.8636899;stroke-dasharray:none;stroke-opacity:1"
     id="path140" /><path
     d="m 469.60932,68.142676 -17.74266,4.753333 6.68133,-7.908 z"
     style="fill:none;stroke:#231f20;stroke-width:1.8058666;stroke-linecap:butt;stroke-linejoin:round;stroke-miterlimit:3.8636899;stroke-dasharray:none;stroke-opacity:1"
     id="path142" /><path
     d="m 465.51466,62.624009 -14.372,3.850667 5.424,-6.074667 z"
     style="fill:none;stroke:#231f20;stroke-width:1.45093334;stroke-linecap:butt;stroke-linejoin:round;stroke-miterlimit:3.8636899;stroke-dasharray:none;stroke-opacity:1"
     id="path144" /><path
     d="m 470.10265,73.737342 -14.37199,3.850667 5.38266,-6.490666 z"
     style="fill:none;stroke:#231f20;stroke-width:1.45093334;stroke-linecap:butt;stroke-linejoin:round;stroke-miterlimit:3.8636899;stroke-dasharray:none;stroke-opacity:1"
     id="path146" /><path
     d="m 518.96399,95.294675 -6.49734,7.645335 6.49734,4.20533 4.97066,-6.5 -4.97066,-5.350665"
     style="fill:#b2db18;fill-opacity:1;fill-rule:nonzero;stroke:none;stroke-width:0.13333333"
     id="path148" /><path
     d="m 518.96399,95.294675 -6.49734,7.645335 6.49734,4.20533 4.97066,-6.5 z"
     style="fill:none;stroke:#b2db18;stroke-width:1;stroke-linecap:butt;stroke-linejoin:round;stroke-miterlimit:3.8636899;stroke-dasharray:none;stroke-opacity:1"
     id="path150" /><path
     d="m 497.93599,86.436009 c 0,-2.102667 1.704,-3.805333 3.80533,-3.805333 2.10267,0 3.80667,1.702666 3.80667,3.805333 0,2.102666 -1.704,3.806666 -3.80667,3.806666 -2.10133,0 -3.80533,-1.704 -3.80533,-3.806666"
     style="fill:#0e88d3;fill-opacity:1;fill-rule:nonzero;stroke:none;stroke-width:0.13333333"
     id="path152" /><path
     d="m 497.93599,86.436009 c 0,-2.102667 1.704,-3.805333 3.80533,-3.805333 2.10267,0 3.80667,1.702666 3.80667,3.805333 0,2.102666 -1.704,3.806666 -3.80667,3.806666 -2.10133,0 -3.80533,-1.704 -3.80533,-3.806666 z"
     style="fill:none;stroke:#0e88d3;stroke-width:1;stroke-linecap:butt;stroke-linejoin:round;stroke-miterlimit:3.8636899;stroke-dasharray:none;stroke-opacity:1"
     id="path154" /><path
     d="m 497.70932,91.806675 9.09333,0.04667 8.41067,7.645333 -7.64667,-2.674666 5.31334,23.299998 -9.17334,-13.02534 -2.24666,2.90667 -0.472,7.852 -4.048,-8.63867 3.364,-5.89733 -2.59467,-11.514662"
     style="fill:#0e88d3;fill-opacity:1;fill-rule:nonzero;stroke:none;stroke-width:0.13333333"
     id="path156" /><path
     d="m 515.84799,122.02801 -0.38534,1.91333 -7.30266,-1.528 0.46266,-2.07867 7.22534,1.69334"
     style="fill:#ffffff;fill-opacity:1;fill-rule:nonzero;stroke:none;stroke-width:0.13333333"
     id="path158" /><path
     d="m 515.84799,122.02801 -0.38534,1.91333 -7.30266,-1.528 0.46266,-2.07867 z"
     style="fill:none;stroke:#ffffff;stroke-width:0.50400001;stroke-linecap:butt;stroke-linejoin:miter;stroke-miterlimit:3.86370993;stroke-dasharray:none;stroke-opacity:1"
     id="path160" /><path
     d="m 500.09999,118.19067 -0.44934,2.37467 -10.06266,-2.144 0.53866,-2.61733 9.97334,2.38666"
     style="fill:#ffffff;fill-opacity:1;fill-rule:nonzero;stroke:none;stroke-width:0.13333333"
     id="path162" /><path
     d="m 500.09999,118.19067 -0.44934,2.37467 -10.06266,-2.144 0.53866,-2.61733 z"
     style="fill:none;stroke:#ffffff;stroke-width:0.50400001;stroke-linecap:butt;stroke-linejoin:miter;stroke-miterlimit:3.86370993;stroke-dasharray:none;stroke-opacity:1"
     id="path164" /><path
     d="m 481.68132,113.89067 -0.54,2.60667 -10.12667,-2.14533 0.692,-2.92534 9.97467,2.464"
     style="fill:#ffffff;fill-opacity:1;fill-rule:nonzero;stroke:none;stroke-width:0.13333333"
     id="path166" /><path
     d="m 481.68132,113.89067 -0.54,2.60667 -10.12667,-2.14533 0.692,-2.92534 z"
     style="fill:none;stroke:#ffffff;stroke-width:0.50400001;stroke-linecap:butt;stroke-linejoin:miter;stroke-miterlimit:3.86370993;stroke-dasharray:none;stroke-opacity:1"
     id="path168" /><path
     d="m 564.58532,113.02534 -11.10933,17.69733 c -8.84934,2.088 -11.62934,7.63734 -13.36,9.72534 -1.80267,2.176 -6.788,12.36 -13.37067,18.21733 -9.23333,8.21333 -16.62667,11.11067 -28.808,13.19867 -4.616,0.79066 -7.29467,0.984 -11.976,0.864 l -17.352,-28.80667 c 9.36933,1.03867 14.744,1.55733 23.60533,0.51867 8.99334,-1.05334 17.59067,-3.25334 22.23067,-6.784 6.24267,-4.74934 10.548,-13.216 19.764,-18.20534 10.648,-5.76533 18.748,-7.29066 30.376,-6.42533"
     style="fill:#0e88d3;fill-opacity:1;fill-rule:nonzero;stroke:none;stroke-width:0.13333333"
     id="path170" /><path
     d="m 564.58532,113.02534 -11.10933,17.69733 c -8.84934,2.088 -11.62934,7.63734 -13.36,9.72534 -1.80267,2.176 -6.788,12.36 -13.37067,18.21733 -9.23333,8.21333 -16.62667,11.11067 -28.808,13.19867 -4.616,0.79066 -7.29467,0.984 -11.976,0.864 l -17.352,-28.80667 c 9.36933,1.03867 14.744,1.55733 23.60533,0.51867 8.99334,-1.05334 17.59067,-3.25334 22.23067,-6.784 6.24267,-4.74934 10.548,-13.216 19.764,-18.20534 10.648,-5.76533 18.748,-7.29066 30.376,-6.42533 z"
     style="fill:none;stroke:#0e88d3;stroke-width:0.28559998;stroke-linecap:butt;stroke-linejoin:miter;stroke-miterlimit:3.8636899;stroke-dasharray:none;stroke-opacity:1"
     id="path172" /><path
     d="m 471.15732,83.077342 c -5.476,-5.476 -18.44133,-4.650666 -22.76266,2.342667 -3.04,4.92 -2.644,11.785333 0.65866,15.473331 3.13334,3.496 7.33067,5.864 11.884,4.05867 2.228,-0.88267 4.68134,-3.94533 4.69734,-3.96133 0.0253,-0.0253 3.97199,7.24266 9.58399,6.75866 7.65334,-0.66 6.80534,-9.209331 7.41867,-9.363998 4.336,-1.098667 10.31467,-4.46 10.98667,-10.292 0.68533,-5.968 -2.964,-11.245333 -8.80934,-12.636 -5.93333,-1.410666 -11.74133,1.829334 -13.65733,7.62"
     style="fill:#0e88d3;fill-opacity:1;fill-rule:nonzero;stroke:none;stroke-width:0.13333333"
     id="path174" /><path
     d="m 471.15732,83.077342 c -5.476,-5.476 -18.44133,-4.650666 -22.76266,2.342667 -3.04,4.92 -2.644,11.785333 0.65866,15.473331 3.13334,3.496 7.33067,5.864 11.884,4.05867 2.228,-0.88267 4.68134,-3.94533 4.69734,-3.96133 0.0253,-0.0253 3.97199,7.24266 9.58399,6.75866 7.65334,-0.66 6.80534,-9.209331 7.41867,-9.363998 4.336,-1.098667 10.31467,-4.46 10.98667,-10.292 0.68533,-5.968 -2.964,-11.245333 -8.80934,-12.636 -5.93333,-1.410666 -11.74133,1.829334 -13.65733,7.62 z"
     style="fill:none;stroke:#0e88d3;stroke-width:0.28559998;stroke-linecap:butt;stroke-linejoin:miter;stroke-miterlimit:3.8636899;stroke-dasharray:none;stroke-opacity:1"
     id="path176" /><path
     d="M 393.18666,1.2266776 H 617.62932 V 38.657343 H 393.18666 V 1.2266776"
     style="fill:#009857;fill-opacity:1;fill-rule:nonzero;stroke:none;stroke-width:0.13333333"
     id="path178" /><path
     d="m 409.67866,31.541344 c -0.0707,-0.641334 -0.072,-3.965334 -0.072,-4.574667 l -10e-4,-0.824 c 8.632,-1.216 12.94667,-5.514667 12.94534,-9.478666 -10e-4,-3.446667 -3.14134,-5.248 -6.70934,-6.012 -2.96,-0.610667 -7.312,-0.7653336 -14.124,-0.7680002 0,0.4573332 0.10934,6.7706662 0.10934,7.4720002 l 10e-4,3.354666 c 0,2.165333 -0.068,9.516 -0.10267,10.828 z m -0.0773,-17.384 c 3.816,0.245333 4.85067,1.649333 4.852,3.357333 0.001,2.530667 -2.78,4.054667 -4.84933,4.328 l -0.003,-7.685333"
     style="fill:#ffffff;fill-opacity:1;fill-rule:evenodd;stroke:none;stroke-width:0.13333333"
     id="path180" /><path
     d="m 435.55466,19.048011 c -0.001,-3.66 0.104,-8.601334 0.13866,-9.1506669 l -8.27466,-0.00267 c 0,0.7319999 0.10933,8.5693339 0.11066,9.0879999 l 0.001,3.293333 c 0,0.793334 -0.0333,7.930667 -0.104,9.272 l 8.276,0.004 c -0.036,-0.702666 -0.14534,-6.161333 -0.14667,-9.210666 l -0.001,-3.293333"
     style="fill:#ffffff;fill-opacity:1;fill-rule:nonzero;stroke:none;stroke-width:0.13333333"
     id="path182" /><path
     d="m 459.15066,26.62001 c -1.67734,0.121334 -7.06267,0.05867 -7.99067,0.05867 v -3.629333 c 0.784,0 5.528,0.124 6.49067,0.124 l -0.108,-4.88 c -1.56934,0.121333 -5.672,0.272 -6.38534,0.272 l -0.001,-4.025333 c 0.64133,0 6.24133,-0.150667 7.56133,-0.149334 l -0.144,-5.0333329 c -1.32,0.092 -13.304,0.544 -15.30266,0.544 0.036,0.8839999 0.11066,8.2346669 0.11066,8.7226669 l 0.001,4.085333 c 10e-4,0.702666 0.003,7.229333 -0.10267,8.845333 1.85467,0 14.73067,0.310667 16.01467,0.312 l -0.144,-5.246667"
     style="fill:#ffffff;fill-opacity:1;fill-rule:nonzero;stroke:none;stroke-width:0.13333333"
     id="path184" /><path
     d="m 469.27599,32.510677 c 0.64133,-1.433333 3.20666,-9.301333 3.812,-10.886667 0.572,0.914667 4.31866,6.101334 7.06666,9.64 h 0.356 c 2.67467,-3.201333 7.23734,-9.206666 7.66534,-9.756 0.39333,0.824 3.784,8.572 4.92666,11.012 l 7.204,-2.741333 c -0.964,-1.678667 -8.13866,-15.528 -10.60133,-20.0426662 h -0.35733 c -1.888,2.6226662 -6.91467,9.7573332 -8.30534,11.5559992 -1.10666,-1.555999 -6.388,-9.030666 -8.56533,-12.0506659 h -0.35733 c -2.068,3.8733329 -9.26667,19.8199999 -9.872,21.0399999 l 7.028,2.229333"
     style="fill:#ffffff;fill-opacity:1;fill-rule:nonzero;stroke:none;stroke-width:0.13333333"
     id="path186" /><path
     d="m 516.20265,32.07201 c 11.948,0.004 15.548,-7.282666 15.54667,-11.888 -0.003,-6.710666 -5.31867,-10.7373326 -13.80933,-10.7413326 -10.52134,-0.004 -15.51334,6.3066666 -15.51067,12.1933326 10e-4,4.878667 4.24933,10.401334 13.77333,10.436 z m 0.38934,-4.728 c -2.92534,-0.0013 -5.45734,-2.076 -5.46,-6.162666 -10e-4,-3.72 2.28,-7.013333 6.34666,-7.012 3.424,0.0027 5.56534,2.290667 5.53067,6.224 -0.0333,4.544 -2.564,6.953333 -6.41733,6.950666"
     style="fill:#ffffff;fill-opacity:1;fill-rule:evenodd;stroke:none;stroke-width:0.13333333"
     id="path188" /><path
     d="m 543.34799,31.80801 c -0.036,-1.006666 -0.0747,-9.821333 -0.0747,-11.070666 0.53467,0.365333 13.41467,9.093333 17.696,11.474666 l 0.35733,-0.152 c 0.10534,-1.984 0.35334,-6.313333 0.63734,-10.736 0.31866,-4.451999 0.63866,-8.995999 0.85066,-11.3759992 l -7.276,-0.1546667 c -0.0347,1.3119999 0.0747,9.4853329 0.076,11.1626659 -1.24933,-0.794666 -12.70266,-8.209333 -17.768,-11.3839992 l -0.356,0.1826666 c -0.356,4.0573336 -1.20533,19.6719996 -1.41866,21.8359996 l 7.276,0.217333"
     style="fill:#ffffff;fill-opacity:1;fill-rule:nonzero;stroke:none;stroke-width:0.13333333"
     id="path190" /><path
     d="m 581.51199,31.609344 c -0.072,-0.609334 -0.10934,-4.818667 -0.11067,-7.96 l -0.003,-8.478667 c 0.57067,0.0013 7.16934,0.156 7.84667,0.186667 l -10e-4,-5.337333 c -1.748,0.121333 -9.524,0.24 -10.20134,0.24 l -3.104,-0.0013 c -0.392,0 -8.84533,-0.125333 -10.45066,-0.248 l 0.003,5.337334 c 1.10534,-0.03067 6.17067,-0.181334 7.88134,-0.18 l 0.004,7.990666 c 10e-4,3.324 -0.0333,7.654667 -0.104,8.448 l 8.24,0.0027"
     style="fill:#ffffff;fill-opacity:1;fill-rule:nonzero;stroke:none;stroke-width:0.13333333"
     id="path192" /><path
     d="m 608.94532,26.68001 c -1.67467,0.121334 -7.06134,0.05733 -7.98934,0.05733 l -10e-4,-3.629334 c 0.78533,0 5.52933,0.124 6.492,0.125334 l -0.108,-4.88 c -1.57067,0.121333 -5.672,0.272 -6.38533,0.272 l -0.001,-4.026667 c 0.64134,0.0013 6.24134,-0.149333 7.56134,-0.149333 l -0.144,-5.0319999 c -1.32,0.090667 -13.30533,0.544 -15.30267,0.5426667 0.036,0.8853332 0.11067,8.2346662 0.11067,8.7226662 l 10e-4,4.086667 c 0,0.701333 0.003,7.228 -0.10266,8.845333 1.85466,0 14.73066,0.310667 16.01466,0.310667 l -0.14533,-5.245334"
     style="fill:#ffffff;fill-opacity:1;fill-rule:nonzero;stroke:none;stroke-width:0.13333333"
     id="path194" /><path
     d="m 208.69466,217.61974 h 54.9 l -0.248,-57.2864 c 0.78267,-15.43333 13.21733,-33.344 42.18667,-26.948 V 87.760009 c -18.30934,-3.581333 -29.376,-2.181333 -40.73734,8.954666 l -1.20133,2.046667 V 81.422676 h -54.9 V 217.61974"
     style="fill:#f9ffff;fill-opacity:1;fill-rule:nonzero;stroke:none;stroke-width:0.13333333"
     id="path196" /><path
     d="M 0.52291732,217.76774 H 65.075065 l 8.268133,-21.0344 h 78.862132 l 8.268,21.0344 h 64.552 L 148.07066,28.458677 H 80.656798 Z M 134.39733,149.93201 H 91.786931 L 112.45626,97.345342 h 0.63587 l 21.3052,52.586668"
     style="fill:#f9ffff;fill-opacity:1;fill-rule:evenodd;stroke:none;stroke-width:0.13333333"
     id="path198" /><path
     d="m 419.83332,148.53201 c 0,-14.19867 -12.63066,-25.504 -28.78666,-25.504 -15.86267,0 -28.49334,11.30533 -28.49334,25.504 0,14.19866 12.63067,25.5044 28.49334,25.5044 16.156,0 28.78666,-11.30574 28.78666,-25.5044 z M 301.33333,260.36614 V 80.816009 l 58.28266,-0.088 -0.04,13.768 h 0.588 c 5.28667,-7.361334 17.624,-17.353333 39.65467,-17.353333 37.30533,0 69.32399,28.133334 69.32399,66.783994 0,47.06494 -30.25599,75.7244 -74.61066,75.7244 -19.09333,0 -30.844,-7.362 -34.956,-11.0432 l -0.056,51.8088 -58.18666,-0.0505"
     style="fill:#f9ffff;fill-opacity:1;fill-rule:evenodd;stroke:none;stroke-width:0.13333333"
     id="path200" /></svg>