<?xml version="1.0" encoding="iso-8859-1"?>
<!-- Generator: Adobe Illustrator 18.1.0, SVG Export Plug-In . SVG Version: 6.00 Build 0)  -->
<svg version="1.1" id="Livello_2" xmlns="http://www.w3.org/2000/svg" xmlns:xlink="http://www.w3.org/1999/xlink" x="0px" y="0px"
	 viewBox="0 0 300 300" style="enable-background:new 0 0 300 300;" xml:space="preserve">
<g>
	<path style="fill:#FFFFFF;stroke:#009444;stroke-width:6;" d="M11.525,121.582c-4.487-6.824,52.999,8.242,52.999,8.242
		l39.961,155.798l-39.449-0.067c0,0-19.715-5.661-25.197-29.718C34.355,231.782,28.521,147.433,11.525,121.582z"/>
	<path style="fill:#FFFFFF;stroke:#009444;stroke-width:6;" d="M19.029,97.378c-3.143-7.68,47.499,4.393,47.499,4.393
		l46.288,183.866l-39.447-1.346c0,0-19.717-4.382-25.2-28.438S33.412,132.522,19.029,97.378z"/>
	<path style="fill:#FFFFFF;stroke:#009444;stroke-width:6;" d="M41.04,22.014c-3.265-6.497-8.102,25.344-1.085,75.05
		S55.95,203.717,68.153,219.66c38.343,50.094,8.174,65.147,8.174,65.147s153.066-1.189,184.623-0.171
		c20.495,0.661,34.349-16.829,26.885-35.175c-9.136-22.455-34.28-27.559-46.464-51.22c-16.908-32.837-34.142-105.719-20.32-114.863
		C234.659,74.377,80.358,100.241,41.04,22.014z"/>
	<path style="fill:#FFFFFF;stroke:#009444;stroke-width:6;" d="M58.445,11.306C52.483,6.744,41.838,33.79,48.85,86.501
		S64.833,199.6,77.034,216.505c38.338,53.118,8.168,69.085,8.168,69.085s153.066-1.276,184.623-0.2
		c20.495,0.699,28.845-27.58,21.382-47.035c-9.134-23.812-21.743-29.918-33.924-55.009c-16.904-34.82-16.694-110.997,4.501-147.412
		C271.379,19.448,132.036,67.62,58.445,11.306z"/>
</g>
<g>
	<path style="fill:#009444;" d="M173,61c1.639,0.224,2.61,1.114,2.539,2.654c-0.071,1.537-1.08,2.431-2.76,2.37
		c-1.574-0.057-2.351-1.066-2.365-2.415C170.398,62.083,171.374,61.196,173,61z"/>
	<g>
		<path style="fill:#009444;" d="M167.938,89.132c4.862-1.341,4.212-4.275,4.106-7.092c-0.096-2.554,0.032-5.172-0.3-7.803
			c-0.387-3.061-2.101-3.646-5.03-1.87c-1.571,0.953-3.093,0.678-4.79,0.103c-4.158-1.408-6.956,0.226-6.736,3.907
			c0.16,2.671,0.448,5.293,0.654,7.866c0.166,2.065,0.414,4.031,3.783,4.367c0.548,0.055,1.093,0.311,1.061,0.816
			c-0.041,0.663-0.774,0.823-1.43,0.845c-3.668,0.125-7.374,0.221-11.119,0.296c-0.697,0.014-1.434-0.126-1.549-0.828
			c-0.09-0.549,0.477-0.751,1.002-0.842c2.908-0.503,2.935-2.302,2.766-4.105c-0.315-3.377-0.617-6.848-1.279-10.381
			c-0.453-2.418-1.94-4.143-5.081-2.097c-1.719,1.12-3.44,0.762-5.469,0.051c-3.872-1.357-7.008,0.407-6.604,3.661
			c0.357,2.879,0.938,5.702,1.37,8.468c0.331,2.121,0.709,4.147,4.272,4.58c0.584,0.071,1.169,0.286,1.211,0.824
			c0.056,0.727-0.722,0.853-1.413,0.876c-3.883,0.132-7.81,0.244-11.786,0.302c-0.496,0.007-1.343-0.276-1.537-0.569
			c-0.422-0.637,0.234-0.958,0.975-1.143c0.409-0.102,0.85-0.196,1.177-0.384c3.183-1.836,0.059-15.904-4.156-17.696
			c-0.824-0.35-2.185-0.213-2.272-1.272c-0.1-1.221,1.523-1.334,2.375-1.178c3.125,0.575,6.676-3.151,9.279,1.576
			c0.744-0.333,1.519-0.632,2.227-1.005c3.085-1.625,6.226-2.677,10.228-0.777c2.072,0.984,4.101-0.244,6.181-0.098
			c1.694,0.119,3.768-1.188,4.783,1.414c0.447,1.145,1.44,0.18,1.998-0.16c3.047-1.857,6.154-2.643,10.067-1.244
			c2.228,0.797,4.784,0.1,7.088-0.389c2.322-0.492,3.017,0.31,3.005,2.17c-0.029,4.557,0.038,8.973,0.071,13.254
			c0.014,1.88,0.138,3.659,2.82,4.337c1.164,0.294,1.429,1.226,0.149,1.399C176.201,89.83,172.283,89.885,167.938,89.132z"/>
		<path style="fill:#009444;" d="M115.741,44.255c-3.153,2.708-6.491,0.012-9.812-1.193c-4.682-1.699-9.321-2.269-13.937-2.088
			c-24.934,0.981-39.889,21.734-30.761,39.924c3.616,7.205,10.18,12.28,19.982,14.925c9.209,2.485,16.773,1.532,22.83-2.327
			c1.917-1.221,3.825-2.196,6.419-1.676c8.485-0.108,13.096-3.387,13.251-9.237c0.171-6.501-5.334-12.886-13.28-14.529
			c-6.298-1.302-11.928-0.734-15.353,3.161c-3.474,3.95-2.321,10.726,2.301,15.482c3.021,3.108,2.682,4.509-1.368,5.928
			c-6.565,2.301-15.543-0.61-20.141-6.747c-9.814-13.101-3.891-31.49,13.607-37.746c11.132-3.98,20.413,0.276,24.27,10.676
			c0.578,1.558,1.07,2.654,3.383,2.635c1.866-0.016,3.211-0.288,3.007-2.105c-0.483-4.303-0.936-8.724-1.462-13.277
			C118.484,44.407,116.664,43.462,115.741,44.255z M100.436,73.764c0.667-2.126,2.181-3.627,5.424-3.726
			c3.387-0.103,6.151,1.192,7.835,3.447c3.365,4.508,4.378,8.992,2.952,13.305c-0.4,1.209-1.394,2.122-3.047,2.531
			c-1.117,0.276-2.368,0.677-3.518-0.039c-1.174-0.731-0.072-1.448,0.055-2.169c0.233-1.327,0.742-2.628,0.735-4.001
			c-0.009-1.746-0.894-3.378-3.654-4.141c-2.645-0.731-3.957,0.198-4.777,1.71c-0.208,0.383-0.486,0.737-0.967,1.454
			C99.786,78.969,99.629,76.338,100.436,73.764z"/>
		<path style="fill:#009444;" d="M230.101,76.869c0.442-0.129,0.924-0.028,1.386-0.029c1.499-0.012,2.99-0.014,4.48-0.048
			c3.416-0.077,4.137-0.865,3.454-3.787c-1.083-4.635-6.78-6.53-12.999-4.278c-0.903,0.327-1.903,1.747-2.875,0.642
			c-2.497-2.839-5.565-1.426-8.687-0.03c-0.7,0.313-1.655,1.563-2.145,0.623c-1.952-3.738-5.465-0.439-8.156-0.89
			c-0.295-0.049-0.977,0.451-1.114,0.791c-0.306,0.758,0.486,0.932,1.052,1.071c2.285,0.561,2.485,2.098,2.282,3.899
			c-0.344,3.055-0.636,6.045-0.883,8.97c-0.14,1.664-0.562,3.1-2.891,3.572c-0.651,0.132-1.253,0.414-1.139,1.009
			c0.109,0.566,0.818,0.601,1.416,0.587c3.103-0.073,6.181-0.161,9.233-0.251c0.603-0.018,1.278-0.135,1.489-0.688
			c0.231-0.605-0.33-0.816-0.933-0.913c-1.372-0.219-2.341-0.856-2.229-2.143c0.296-3.395,0.511-6.89,1.191-10.449
			c0.418-2.188,2.772-3.394,4.857-2.902c1.844,0.435,4.883,0.659,2.875,4.139c-1.954,3.387-1.326,6.676,0.508,9.408
			c3.094,4.61,12.079,4.473,16.314-0.069c0.495-0.531,1.448-1.138,0.656-1.768c-0.772-0.615-1.405,0.122-1.974,0.685
			c-2.135,2.109-4.583,2.726-7.234,2.275c-3.089-0.525-5.491-4.588-4.097-7.787C225.293,75.397,228.036,77.471,230.101,76.869z
			 M230.985,69.962c2.59,0.093,4.457,1.494,3.708,3.673c-0.897,2.612-3.443,0.346-5.014,1.454c-1.549-0.645-4.123,0.878-4.37-1.381
			C225.132,72.079,228.662,69.879,230.985,69.962z"/>
		<path style="fill:#009444;" d="M197.453,68.63c-4.17-1.715-9.889-1.115-13.177,1.687c-4.429,3.774-5.119,8.275-3.373,12.847
			c1.463,3.832,4.622,6.079,9.487,6.392c3.606,0.232,6.897-0.553,9.61-2.841c0.834-0.703,2.337-1.651,1.205-2.589
			c-1.208-1.001-1.789,0.591-2.499,1.165c-4.114,3.324-9.761,2.642-11.966-1.572c-2.505-4.787-1.353-6.32,4.927-6.418
			c0.776-0.012,1.551-0.017,2.324-0.026c0-0.004,0-0.009,0.001-0.013c1.156-0.013,2.314,0.055,3.457-0.057
			c1.704-0.167,4.019,0.738,4.935-0.866c0.914-1.6-0.159-3.422-1.219-4.943C200.285,70.134,198.994,69.265,197.453,68.63z
			 M196.997,73.718c-0.504,2.92-3.778,0.744-5.634,1.644c-1.62-0.677-4.257,1.025-4.932-1.306c-0.487-1.684,3.093-4.058,5.685-4.06
			C195.056,69.994,197.379,71.503,196.997,73.718z"/>
	</g>
	<g>
		<path style="fill:#009444;" d="M183.804,130.124c-0.566,0.783-1.133,1.568-1.701,2.355c-2.337-0.829-2.202,1.776-2.547,3.175
			c-1.376,5.581-2.508,11.35-3.791,17.118c-0.344,1.547-0.304,3.583-2.184,3.628c-1.894,0.045-2.114-2.094-2.758-3.546
			c-1.664-3.749-2.8-7.795-4.879-11.263c-1.348-1.367-1.463-3.483-2.301-5.135c-0.824-1.624-1.022-4.131-3.263-4.091
			c-0.494-0.491-0.989-0.982-1.483-1.473c2.961-3.262,6.821-1.564,10.288-1.696c0.955-0.036,1.14,1.48,0.074,1.903
			c-1.945,0.771-1.371,2.391-0.767,4.015c1.71,4.602,3.475,9.205,5.627,13.902c1.285-4.964,2.485-9.821,2.867-14.965
			c0.061-0.817-0.193-1.618-0.691-2.34c-0.551-0.8-2.17-0.474-1.776-2.091c0.347-1.42,1.691-1,2.625-0.927
			C179.376,128.866,181.728,127.404,183.804,130.124z"/>
		<path style="fill:#009444;" d="M90.08,125.608c-0.077,0.972-0.504,1.731-1.32,1.824c-1.028,0.116-1.649-0.639-1.699-1.832
			c-0.041-0.987,0.447-1.722,1.278-1.817C89.384,123.664,89.908,124.462,90.08,125.608z"/>
		<path style="fill:#009444;" d="M238.678,150.967c-0.203-0.698-0.676-0.769-1.064-0.664c-2.656,0.718-3.107-1.81-3.492-4.209
			c-0.613-3.815-1.134-7.616-1.646-11.394c-0.551-4.063-2.38-6.385-5.541-7.403c-3.101-0.999-5.796-0.316-8.428,1.09
			c-0.64,0.342-1.078,1.686-2.144,0.488c-2.926-3.291-5.152-1.432-7.421,0.355c-0.513,0.404-1.064,2.013-1.662,0.819
			c-2.359-4.716-4.503-0.385-6.735-1.003c-0.276-0.076-0.81,0.472-0.874,0.87c-0.131,0.812,0.438,1.206,1.015,1.369
			c2.229,0.629,2.717,2.683,2.97,5.043c0.416,3.867,0.918,7.755,1.359,11.668c0.215,1.903,0.299,3.915-1.597,4.133
			c-2.095,0.241-2.656-1.883-2.949-3.925c-0.522-3.638-0.919-7.267-1.376-10.872c-0.857-6.758-3.218-9.369-8.577-9.466
			c-2.457-0.044-4.757,0.517-6.713,2.259c-1.126,0.146-1.612,1.024-1.701,2.355c-1.064,1.884-0.933,3.801,1.022,4.729
			c1.809,0.859,2.719-0.557,2.597-2.774c-0.134-2.438,0.933-3.453,2.591-3.756c1.871-0.341,3.795-0.323,5.28,1.822
			c2.032,2.936,1.15,6.406-1.705,7.111c-2.773,0.684-5.53,1.491-7.797,3.654c-1.773,1.692-2.564,4.052-1.955,6.979
			c0.621,2.984,2.414,4.662,4.694,5.47c1.481,0.525,3.063,0.649,4.33-0.016c3.017-1.583,5.459-2.799,9.418-0.806
			c3.47,1.746,7.754-0.132,11.643-0.423c0.543-0.041,1.137-0.184,1.166-1.01c0.031-0.879-0.519-1.178-1.113-1.293
			c-2.139-0.416-2.672-2.553-3.015-4.677c-0.471-2.913-0.699-5.84-1.167-8.728c-0.48-2.96-0.528-5.785,1.881-6.716
			c2.147-0.83,4.317,0.607,6.068,2.648c0.849,0.99,1.583,1.658,2.579,1.36c1.061-0.317,1.173-1.498,1.278-2.744
			c0.324-3.833,4.288-5.303,6.831-2.602c1.49,1.583,1.634,3.691,1.705,5.678c0.075,2.126-1.54,1.535-2.536,1.842
			c-2.479,0.766-5.018,1.406-7.095,3.3c-1.89,1.724-2.763,4.183-1.857,7.399c0.907,3.221,2.947,4.838,5.416,5.219
			c2.322,0.358,4.52-0.072,6.204-1.897c1.193-1.293,2.063-1.717,3.703,0.081c1.944,2.131,4.077,1.574,5.936,0.296
			C238.665,152.306,238.905,151.749,238.678,150.967z M188.879,152.367c-2.563-1.267-3.188-5.305-1.095-7.631
			c1.617-1.798,3.671-2.639,5.882-2.854c2.677-0.261,1.194,2.701,1.978,3.445C196.137,150.155,192.191,154.005,188.879,152.367z
			 M229.554,143.876c0.61,4.457-2.334,7.965-5.703,6.942c-2.595-0.788-3.746-4.621-2.059-7.117c1.485-2.197,3.632-3.05,5.938-3.22
			C229.932,140.319,229.022,142.796,229.554,143.876z"/>
		<path style="fill:#009444;" d="M184.401,106.191c-2.182-9.203-10.623-15.133-18.709-12.875
			c-9.472,2.645-15.197,10.635-19.089,21.039c-2.86,7.644-5.348,15.67-8.064,23.716c-0.326,0.967-0.418,2.153-1.714,2.646
			c-2.962-8.502-5.86-16.784-8.707-25c-3.438-9.922-3.43-9.926-12.283-9.169c-2.569,0.22-3.506,2.216-1.668,4.232
			c1.864,2.044,1.622,3.926,1.07,6.13c-2.174,8.688-4.884,17.276-8.616,25.515c-2.44,5.388-5.389,10.394-9.831,13.902
			c-6.584,5.199-13.625,5.345-20.617,1.26c-6.272-3.664-9.206-10.233-9.425-18.243c-0.341-12.487,7.948-24.419,18.152-26.714
			c4.822-1.084,9.59-0.87,12.968,4.098c3.302,4.856,1.342,9.552-0.772,14.157c-1.828,3.98-1.417,7.503,0.92,9.031
			c2.313,1.513,5.056-0.173,6.776-4.142c4.671-10.782-1.278-25.116-11.663-27.552c-10.002-2.347-18.21,2.131-24.485,11.149
			c-6.445,9.262-8.463,20.085-3.938,31.406c6.073,15.193,23.848,18.984,35.92,8.338c6.576-5.799,10.7-13.67,13.958-22.087
			c1.999-5.164,3.741-10.411,5.779-16.129c0.739,1.895,1.261,3.159,1.731,4.45c3.559,9.787,7.17,19.673,10.755,29.702
			c0.748,2.092,1.474,3.56,3.697,3.389c2.098-0.161,3.252-0.894,3.668-3.572c0.547-3.526,1.424-6.932,2.306-11.077
			c2.668,9.775,5.742,13.556,10.905,13.982c5.857,0.483,9.123-2.238,11.222-9.265c0.971-6.195,1.337-12.188-3.505-16.999
			c-0.718-0.46-1.497-0.416-2.247-0.617c-4.541-3.27-8.789-1.986-13.421,0.868c2.783-10.071,5.022-19.306,10.091-26.607
			c3.223-4.643,7.346-7.304,12.454-7.956c7.047-0.899,13.607,5.609,13.731,13.899c0.068,4.537-1.281,8.369-4.854,10.081
			c-3.355,1.607-6.28,0.146-8.682-3.619c-1.541-2.416-3.523-3.151-5.296-1.292c-1.939,2.032-1.337,4.679,0.443,6.9
			c2.865,3.573,6.338,4.896,10.095,4.256C182.192,125.932,186.874,116.623,184.401,106.191z M148.699,135.688
			c0.79-2.354,2.059-3.905,4.304-3.984c2.385-0.084,4.083,1.453,5.134,3.928c2.006,4.728,2.398,9.689,1.439,14.693
			c-0.49,2.559-1.796,4.284-4.004,4.575c-2.276,0.3-4.142-0.744-5.542-3.26c-1.45-2.605-1.728-5.48-1.969-8.379
			C147.851,140.639,147.895,138.084,148.699,135.688z"/>
		<g>
			<path style="fill:#009444;" d="M85.099,132.244c-0.003-0.317-0.007-0.634-0.01-0.95l0,0c-0.051-1.183-0.101-2.364-0.152-3.544
				c-0.198-4.545-0.26-4.581-4.578-2.234c1.443,1.027,2.482,2.442,1.965,4.241c-0.673,2.344-2.404,0.528-3.625,0.801
				c-2.09,0.467-3.551,1.594-4.321,3.893c-1.111,3.315-0.972,6.522,0.917,9.428c2.246,3.454,5.064,1.863,7.762,1.051
				c1.031-0.318,2.059-0.636,3.086-0.953C84.496,140.197,85.459,136.131,85.099,132.244z M80.035,143.844
				c-3.08,0.272-3.253-2.752-3.328-5.328c-0.079-2.712-0.132-5.853,3.082-5.993c3.259-0.141,2.755,3.045,2.862,4.764
				C82.806,140.589,83.101,143.573,80.035,143.844z"/>
			<path style="fill:#009444;" d="M90.282,135.966c-0.246-5.837-0.224-5.838-5.193-4.672v0c0.417,0.593,0.833,1.186,1,1.938
				c1.898,2.496,2.18,7.139,0.484,10.089c0.004,0.29,0.015,0.58,0.015,0.87c-0.979,1.563-2.235,1.283-3.532,0.739
				c2.93,1.583,5.834,0.462,9.234,0.201C89.958,142.189,90.409,138.996,90.282,135.966z"/>
			<path style="fill:#009444;" d="M86.089,133.231c-0.167-0.752-0.584-1.345-1-1.938c0.003,0.317,0.007,0.633,0.01,0.95
				C85.467,132.513,85.797,132.847,86.089,133.231z"/>
			<path style="fill:#009444;" d="M86.588,144.19c0-0.29-0.011-0.58-0.015-0.87c-0.132,0.229-0.275,0.448-0.431,0.655
				c-1.027,0.317-2.056,0.635-3.086,0.953C84.353,145.472,85.609,145.753,86.588,144.19z"/>
		</g>
	</g>
</g>
<g>
	<path style="fill:#009444;" d="M140.864,186.186c2.743,6.875,5.832,14.581,9.26,23.277c0.337,0.854,0.88,1.311,1.993,1.758
		c10.828,4.348,19.703,13.339,22.579,23.553c3.252,11.553-1.554,23.756-13.693,29.492c-20.861,9.856-48.466-2.395-53.601-24.24
		c-3.062-13.025,2.115-22.438,13.216-28.405c1.042-0.56,1.338-1.084,1.15-2.008c-3.605-17.736-6.394-31.585-8.621-42.698
		c-0.44-2.193,1.265-3.486,4.965-3.803c3.567-0.306,7.286,0.434,10.947,2.13c2.808,1.301,4.558,2.788,5.212,4.423
		C136.265,174.646,138.447,180.126,140.864,186.186z M138.462,186.806c-2.411-6.393-4.559-12.144-6.551-17.352
		c-0.995-2.602-6.257-5.048-10.994-5.146c-3.387-0.07-5.464,1.134-5.023,3.075c2.553,11.255,5.733,25.305,9.906,43.34
		c0.316,1.364-0.094,2.074-1.616,2.807c-10.255,4.937-15.464,15.769-11.349,27.059c6.557,17.992,29.59,27.129,46.799,18.734
		c10.977-5.356,14.899-17.848,10.546-27.86c-3.911-8.995-10.734-14.995-20.752-18.745c-1.053-0.394-1.525-0.808-1.824-1.609
		C144.203,201.994,141.158,193.953,138.462,186.806z"/>
	<path style="fill:#009444;" d="M142.274,181.481c-0.277-0.649-0.52-1.217-0.783-1.832c0.325,0.02,0.63,0.027,0.945,0.059
		c4.288,0.436,8.446,0.861,12.479,1.276c1.173,0.121,1.956,0.486,2.287,1.057c0.332,0.573-0.124,0.856-1.281,0.746
		C151.567,182.374,147.062,181.94,142.274,181.481z"/>
	<path style="fill:#009444;" d="M148.214,195.431c-0.351-0.822-0.646-1.513-0.966-2.263c0.302-0.006,0.588-0.031,0.89-0.015
		c4.839,0.26,9.508,0.511,14.019,0.764c1.042,0.058,1.839,0.47,2.236,1.118c0.385,0.628,0.06,1.129-0.916,1.088
		C158.633,195.923,153.582,195.678,148.214,195.431z"/>
	<path style="fill:#009444;" d="M139.696,175.419c-0.208-0.486-0.39-0.913-0.595-1.392c3.118,0.379,6.11,0.733,9.051,1.107
		c0.674,0.086,1.252,0.389,1.466,0.802c0.217,0.417-0.11,0.618-0.782,0.543C145.883,176.151,142.85,175.787,139.696,175.419z"/>
	<path style="fill:#009444;" d="M144.974,187.799c-0.232-0.542-0.45-1.054-0.711-1.665c1.063,0.084,2.113,0.168,3.155,0.251
		c2.129,0.169,4.221,0.33,6.288,0.502c1.076,0.09,1.847,0.45,2.059,0.971c0.257,0.632-0.305,0.774-1.158,0.711
		c-2.934-0.214-5.934-0.434-9.004-0.663C145.416,187.893,145.215,187.841,144.974,187.799z"/>
	<path style="fill:#009444;" d="M151.671,203.444c-0.315-0.737-0.59-1.38-0.911-2.131c2.411,0.059,4.748,0.115,7.044,0.172
		c1.24,0.03,2.461,0.047,3.687,0.098c0.832,0.035,1.641,0.441,1.821,1.025c0.117,0.38-0.239,0.968-0.658,0.971
		C159.153,203.602,155.489,203.507,151.671,203.444z"/>
	<path style="fill:#FFFFFF;" d="M138.462,186.806c2.695,7.146,5.741,15.187,9.139,24.302c0.299,0.801,0.771,1.215,1.824,1.609
		c10.018,3.75,16.842,9.75,20.752,18.745c4.353,10.013,0.432,22.505-10.546,27.86c-17.209,8.396-40.242-0.742-46.799-18.734
		c-4.115-11.291,1.094-22.122,11.349-27.059c1.523-0.733,1.932-1.442,1.616-2.807c-4.172-18.035-7.353-32.085-9.906-43.34
		c-0.44-1.941,1.637-3.145,5.023-3.075c4.737,0.098,9.999,2.544,10.994,5.146C133.902,174.662,136.051,180.413,138.462,186.806z
		 M124.771,183.545c0.103,0.38,0.185,0.683,0.268,0.987c2.416,8.897,5.209,19.231,8.553,31.381c0.261,0.949-0.021,1.367-1.1,1.736
		c-9.348,3.198-13.729,12.373-8.948,21.676c5.358,10.427,18.677,15.732,29.694,11.887c8.346-2.913,12.234-10.952,9.929-18.475
		c-2.311-7.546-9.366-13.61-17.811-15.542c-1.208-0.276-1.674-0.658-1.977-1.564c-3.936-11.773-7.345-21.834-10.281-30.531
		c-0.098-0.29-0.195-0.578-0.3-0.888C130.11,183.988,127.56,183.776,124.771,183.545z"/>
	<path style="fill:#009444;" d="M124.771,183.545c2.789,0.232,5.339,0.443,8.028,0.667c0.105,0.31,0.202,0.599,0.3,0.888
		c2.937,8.697,6.345,18.758,10.281,30.531c0.303,0.906,0.769,1.288,1.977,1.564c8.444,1.932,15.5,7.996,17.811,15.542
		c2.304,7.523-1.583,15.562-9.929,18.475c-11.018,3.846-24.336-1.459-29.694-11.887c-4.78-9.303-0.4-18.479,8.948-21.676
		c1.079-0.369,1.361-0.786,1.1-1.736c-3.344-12.149-6.137-22.484-8.553-31.381C124.956,184.227,124.874,183.924,124.771,183.545z"/>
</g>
<g>
	<g>
		<path style="fill:#009444;" d="M178.992,184.815c18.004,0.44,36.01,0.318,54.006-0.368c3.207-0.122,3.223-5.123,0-5
			c-17.996,0.686-36.002,0.809-54.006,0.368C175.773,179.736,175.775,184.736,178.992,184.815L178.992,184.815z"/>
	</g>
</g>
<g>
	<g>
		<path style="fill:#009444;" d="M186.5,199.459c19.001,0.153,38.003,0.119,57.004-0.103c3.215-0.038,3.224-5.038,0-5
			c-19.001,0.222-38.002,0.256-57.004,0.103C183.282,194.433,183.279,199.433,186.5,199.459L186.5,199.459z"/>
	</g>
</g>
<g>
	<g>
		<path style="fill:#009444;" d="M194,217c21.333,0,42.667,0,64,0c3.217,0,3.223-5,0-5c-21.333,0-42.667,0-64,0
			C190.783,212,190.777,217,194,217L194,217z"/>
	</g>
</g>
<g>
	<g>
		<path style="fill:#009444;" d="M205,259.5c13.833,0,27.667,0,41.5,0c3.217,0,3.223-5,0-5c-13.833,0-27.667,0-41.5,0
			C201.783,254.5,201.777,259.5,205,259.5L205,259.5z"/>
	</g>
</g>
<g>
	<g>
		<path style="fill:#009444;" d="M204,237c21.333,0,42.667,0,64,0c3.217,0,3.223-5,0-5c-21.333,0-42.667,0-64,0
			C200.783,232,200.777,237,204,237L204,237z"/>
	</g>
</g>
<g>
	<g>
		<path style="fill:#019547;" d="M59.854,245.777c6.27-0.558,12.518-0.572,18.79-0.044c3.42,0.288,3.401-5.046,0-5.333
			c-6.272-0.528-12.521-0.514-18.79,0.044C56.462,240.746,56.43,246.081,59.854,245.777L59.854,245.777z"/>
	</g>
</g>
<g>
	<g>
		<path style="fill:#019547;" d="M63.834,259.031c6.825,0.198,13.65,0.397,20.475,0.594c3.434,0.099,3.43-5.234,0-5.333
			c-6.825-0.198-13.65-0.397-20.475-0.594C60.402,253.597,60.404,258.931,63.834,259.031L63.834,259.031z"/>
	</g>
</g>
<g>
	<g>
		<path style="fill:#019547;" d="M68.1,272.86c5.405,0,10.809,0,16.213,0c3.431,0,3.438-5.333,0-5.333c-5.405,0-10.809,0-16.213,0
			C64.669,267.527,64.662,272.86,68.1,272.86L68.1,272.86z"/>
	</g>
</g>
<g>
	<g>
		<path style="fill:#019547;" d="M60.5,233.006c3.997-0.214,7.995-0.427,11.992-0.641c3.201-0.171,3.221-5.172,0-5
			c-3.997,0.214-7.995,0.427-11.992,0.641C57.3,228.177,57.279,233.178,60.5,233.006L60.5,233.006z"/>
	</g>
</g>
</svg>
