<svg version="1.1" id="Livello_1" xmlns="http://www.w3.org/2000/svg" xmlns:xlink="http://www.w3.org/1999/xlink" x="0px" y="0px"
	 viewBox="0 0 300 300" style="enable-background:new 0 0 300 300;" xml:space="preserve">
<path id="pathOttagono" style="fill:#128442;stroke:#FFFFFF;stroke-width:10;" d="M25,25L150,5l125,20l20,125l-20,125l-125,20
	L25,275L5,150L25,25z"/>
<g id="flowRoot4447_2_" transform="matrix(17.942951,0,0,17.942951,-1177.2045,-1773.4634)">
	<path id="path5022" style="fill:#FFFFFF;" d="M69.712,111.396l0.177-1.263l0.177,1.263H69.712z
		 M69.573,112.396H70.2l0.12,1h1.311l-0.909-5.479h-1.675l-0.924,5.479h1.302L69.573,112.396z"/>
	<path id="path5024" style="fill:#FFFFFF;" d="M72.986,113.425v-0.933
		c0.523-0.836,0.868-1.4,1.034-1.694c0.325-0.581,0.501-1.035,0.526-1.364c0.026-0.242-0.056-0.364-0.244-0.364
		c-0.099,0-0.177,0.049-0.234,0.148c-0.067,0.118-0.097,0.279-0.091,0.483l-1.086,0.01c0.051-0.81,0.322-1.349,0.814-1.617
		c0.437-0.236,0.898-0.22,1.383,0.048c0.475,0.274,0.713,0.68,0.713,1.215c0,0.131-0.019,0.265-0.057,0.402
		c-0.137,0.523-0.552,1.359-1.244,2.508h1.206v1.158L72.986,113.425z"/>
	<path id="path5026" style="fill:#FFFFFF;" d="M78.087,111.267
		c-0.064,0.15-0.096,0.284-0.096,0.402c0,0.124,0.032,0.255,0.096,0.392c0.073,0.15,0.166,0.225,0.278,0.225
		c0.118,0,0.207-0.078,0.266-0.234c0.059-0.156,0.089-0.29,0.089-0.402c0-0.112-0.03-0.242-0.091-0.392
		c-0.07-0.15-0.161-0.225-0.273-0.225C78.237,111.032,78.148,111.11,78.087,111.267L78.087,111.267z M79.795,109.19l-1.029,0.325
		c-0.099-0.341-0.214-0.512-0.345-0.512c-0.105,0-0.203,0.096-0.292,0.287c-0.093,0.201-0.139,0.404-0.139,0.608
		c0,0.045,0.006,0.113,0.019,0.206c0.242-0.179,0.471-0.268,0.684-0.268c0.329,0,0.59,0.177,0.785,0.531
		c0.185,0.319,0.278,0.708,0.278,1.168c0,0.507-0.115,0.941-0.345,1.302c-0.262,0.399-0.624,0.598-1.086,0.598
		c-0.418,0-0.782-0.281-1.091-0.842c-0.313-0.555-0.469-1.19-0.469-1.905c0-0.861,0.169-1.55,0.507-2.067
		c0.303-0.469,0.68-0.703,1.129-0.703C79.031,107.917,79.496,108.341,79.795,109.19L79.795,109.19z"/>
</g>
<g id="flowRoot4447_3_" transform="matrix(20.765072,0,0,20.765072,-1384.5571,-2075.5454)">
	<path id="path4679" style="fill:#FFFFFF;" d="M72.095,104.806l0.154-1.099l0.154,1.099H72.095z
		 M71.975,105.676h0.545l0.104,0.87h1.141l-0.791-4.768h-1.457l-0.804,4.768h1.133L71.975,105.676z"/>
	<path id="path4681" style="fill:#FFFFFF;" d="M75.959,102.782l-1.024,3.764h1.103l1.074-3.931
		v-0.829h-2.236v0.995H75.959z"/>
</g>
</svg>