<!--<svg version="1.1"
	 xmlns="http://www.w3.org/2000/svg" x="0px" y="0px" viewBox="0 0 294.729 48"
	 enable-background="new 0 0 294.729 48" xml:space="preserve">
<g>
	<path fill="#0064A5" d="M111.654,32c-1.296,0.112-2.573-0.371-3.469-1.314c-0.637-0.883-0.836-2.009-0.539-3.057
		c0.724-3.411,3.655-5.002,9.263-5.002h0.842l0.312-1.482c0.098-0.282,0.057-0.594-0.109-0.842c-0.263-0.244-0.62-0.361-0.977-0.32
		c-0.842,0-1.356,0.244-1.684,1.491h-5.667c0.417-1.693,1.601-3.094,3.2-3.789c1.611-0.636,3.339-0.923,5.069-0.842
		c2.998,0,4.8,0.505,5.684,1.6c0.657,0.842,0.842,1.912,0.472,3.486l-2.038,9.684H116l0.118-1.364
		C114.939,31.429,113.321,32.064,111.654,32z M116.21,25.314c-1.465,0-2.324,0.556-2.526,1.684
		c-0.115,0.366-0.053,0.765,0.168,1.078c0.287,0.296,0.693,0.445,1.103,0.404c1.061,0,1.684-0.615,1.971-1.937l0.253-1.204
		L116.21,25.314z M21.49,32c-1.236,0.122-2.46-0.332-3.318-1.229c-0.716-0.842-0.842-2.223-0.514-4l2.013-9.541h6.863l-1.878,8.876
		c-0.152,0.451-0.1,0.946,0.143,1.356c0.192,0.213,0.472,0.325,0.758,0.303c0.884-0.034,1.604-0.719,1.684-1.6l1.895-8.935H36
		l-3.032,14.316h-6.686l0.286-2.173h-0.051C25.376,31.022,23.496,32.005,21.49,32z M4.143,32c-1.294,0.11-2.569-0.37-3.469-1.305
		c-0.637-0.887-0.835-2.015-0.539-3.065c0.724-3.411,3.655-5.002,9.263-5.002h0.842l0.32-1.482c0.09-0.284,0.047-0.594-0.118-0.842
		c-0.263-0.245-0.62-0.362-0.977-0.32c-0.842,0-1.347,0.244-1.684,1.491H2.029c0.42-1.692,1.602-3.092,3.2-3.789
		c1.627-0.643,3.373-0.93,5.12-0.842c2.998,0,4.8,0.505,5.684,1.6c0.657,0.842,0.842,1.912,0.472,3.495l-2.038,9.642H8.463
		l0.118-1.373C7.414,31.394,5.807,32.043,4.143,32z M8.673,25.314c-1.465,0-2.324,0.556-2.526,1.684
		c-0.111,0.366-0.049,0.763,0.168,1.078c0.287,0.295,0.693,0.444,1.103,0.404c1.069,0,1.684-0.615,1.971-1.937l0.253-1.204
		L8.673,25.314z M150.568,32c-2.526,0-4.413-0.699-5.474-2.013c-1.061-1.314-1.339-3.208-0.842-5.676
		c0.408-2.242,1.65-4.247,3.478-5.608c1.933-1.296,4.226-1.947,6.552-1.861c2.611,0,4.463,0.665,5.516,1.962
		s1.331,3.309,0.783,5.895l-0.211,0.977h-9.802l-0.084,0.429c-0.238,0.631-0.182,1.334,0.152,1.92
		c0.331,0.339,0.801,0.504,1.272,0.446c0.927-0.029,1.734-0.64,2.013-1.524h6.004c-0.542,1.591-1.66,2.921-3.133,3.731
		C154.864,31.642,152.721,32.097,150.568,32z M151.208,22.627h3.629v-0.194c0.172-0.55,0.091-1.148-0.219-1.634
		c-0.285-0.319-0.702-0.487-1.128-0.455c-1.179,0.019-2.159,0.915-2.282,2.088V22.627z M129.684,32
		c-1.335,0.072-2.629-0.478-3.503-1.491c-1.095-1.347-1.364-3.52-0.783-6.282c0.363-2.172,1.414-4.17,2.998-5.701
		c1.215-1.094,2.795-1.694,4.429-1.684c1.49-0.142,2.948,0.495,3.857,1.684l1.6-7.579h6.863l-4.354,20.623h-6.459l0.236-1.684
		C133.323,31.265,131.541,32.036,129.684,32z M134.585,20.859c-1.373,0-1.853,1.145-2.358,3.545c-0.32,1.516-0.446,2.627,0,3.183
		c0.224,0.253,0.556,0.385,0.893,0.354c0.585,0.032,1.14-0.263,1.44-0.766c0.421-0.875,0.705-1.809,0.842-2.771l0,0
		c0.187-0.722,0.303-1.461,0.345-2.206c0.026-0.366-0.095-0.726-0.337-1.002c-0.226-0.215-0.531-0.328-0.842-0.312L134.585,20.859z
		 M88.732,32c-1.878,0-3.175-0.421-3.848-1.246c-0.565-0.81-0.724-1.836-0.429-2.779l1.373-6.509h-1.844l0.893-4.211h1.861
		l0.488-2.316l7.36-2.4l-0.994,4.716h3.091l-0.893,4.211h-3.091l-0.909,4.396c-0.147,0.394-0.119,0.832,0.076,1.204
		c0.21,0.197,0.497,0.29,0.783,0.253c0.566,0.021,1.133-0.035,1.684-0.168L93.44,31.36C91.896,31.729,90.319,31.944,88.732,32z
		 M73.094,32c-2.964,0-4.867-0.564-5.819-1.684c-0.731-0.999-0.952-2.283-0.598-3.469h6.181c-0.16,0.516-0.127,1.073,0.093,1.566
		c0.246,0.32,0.644,0.483,1.044,0.429c0.792,0.11,1.525-0.438,1.642-1.229c0.069-0.217,0.042-0.453-0.076-0.648
		c-0.187-0.227-0.456-0.373-0.749-0.404h-0.135l-2.771-0.573c-2.055-0.421-3.158-0.943-3.688-1.752
		c-0.414-0.776-0.502-1.685-0.244-2.526c0.308-1.398,1.167-2.612,2.383-3.368c1.737-1.048,3.741-1.568,5.768-1.499
		c3.082,0,4.968,0.531,5.895,1.684c0.673,0.918,0.893,2.092,0.598,3.192H76.8c0.152-0.691,0.135-1.103-0.051-1.339
		c-0.24-0.274-0.598-0.415-0.96-0.379c-1.002,0-1.541,0.337-1.684,1.061c-0.065,0.196-0.044,0.41,0.059,0.589
		c0.194,0.278,0.707,0.455,1.785,0.606c3.368,0.488,5.053,1.095,5.743,2.097c0.446,0.765,0.544,1.684,0.269,2.526
		C81.238,30.316,78.316,32,73.094,32z M55.41,32c-1.288,0.028-2.571-0.172-3.789-0.589c-0.942-0.329-1.776-0.912-2.408-1.684
		c-1.053-1.305-1.364-3.158-0.901-5.364c0.422-2.18,1.618-4.133,3.368-5.499c2.022-1.425,4.46-2.136,6.931-2.021
		c1.288-0.024,2.57,0.176,3.789,0.589c0.941,0.332,1.774,0.914,2.408,1.684c1.053,1.229,1.364,3.082,0.876,5.305
		c-0.422,2.18-1.618,4.133-3.368,5.499C60.308,31.36,57.879,32.092,55.41,32z M57.793,20.691c-1.179,0-1.827,1.011-2.4,3.714
		c-0.387,1.861-0.396,2.905,0,3.368c0.212,0.238,0.524,0.363,0.842,0.337c1.179,0,1.827-1.011,2.4-3.714
		c0.387-1.869,0.396-2.914,0-3.368c-0.212-0.238-0.525-0.36-0.842-0.328V20.691z M41.01,32c-1.878,0-3.175-0.421-3.84-1.246
		c-0.564-0.81-0.725-1.834-0.438-2.779l1.373-6.518h-1.836l0.842-4.211h1.844l0.488-2.307l7.36-2.4l-0.994,4.716h3.091l-0.842,4.211
		h-3.091l-0.926,4.396c-0.126,0.598-0.101,0.977,0.076,1.196c0.204,0.201,0.49,0.298,0.775,0.261
		c0.566,0.022,1.133-0.035,1.684-0.168l-0.893,4.211C44.151,31.727,42.585,31.941,41.01,32z M101.642,31.571h-6.855l3.023-14.316
		h6.686l-0.16,1.575c1.154-1.171,2.189-1.743,3.175-1.743c0.602-0.031,1.201,0.109,1.726,0.404l-1.095,5.196
		c-0.902-0.269-1.838-0.405-2.779-0.404c-1.067-0.028-1.986,0.746-2.139,1.802l-1.583,7.512L101.642,31.571z"/>
	<path fill="#0064A5" d="M169.692,0l-5.314,23.933L159.158,48h7.175l5.196-24.067L176.842,0H169.692z"/>
	<path fill="#0064A5" d="M179.798,0l-5.314,23.933L169.263,48h7.183l5.187-24.067L186.947,0H179.798z"/>
	<path fill="#0064A5" d="M184.421,36.211h-1.684l3.495-16.059c0.202-0.842,0.328-1.684,0.438-2.434l0.101-0.691h1.76
		l-0.362,2.046l0.042,0.059c1.361-1.578,3.332-2.497,5.415-2.526c1.318-0.091,2.603,0.442,3.469,1.44
		c0.573,0.764,0.917,1.675,0.994,2.627c0.096,1.08,0.022,2.168-0.219,3.225c-0.378,1.857-1.208,3.593-2.417,5.053
		c-1.206,1.499-3.019,2.379-4.943,2.4c-1.841,0.132-3.578-0.868-4.387-2.526h-0.017L184.421,36.211z M187.158,23.638L187.158,23.638
		c-0.337,1.549-0.522,3.672,0.531,4.985c0.749,0.835,1.846,1.271,2.964,1.179c3.781,0,5.053-4.657,5.398-6.08
		c0.421-1.92,0.211-3.562-0.564-4.522c-0.629-0.731-1.563-1.127-2.526-1.069c-4.211,0-5.499,4.211-5.777,5.507H187.158z
		 M286.088,31.318c-1.226,0.081-2.424-0.395-3.259-1.297c-0.63-0.861-0.826-1.965-0.531-2.989c0.481-1.882,1.887-3.389,3.73-4
		c1.566-0.496,3.21-0.702,4.851-0.606c0.598,0,1.154,0,1.684,0l0.278-1.272c0.204-0.775,0.056-1.601-0.404-2.257
		c-0.626-0.574-1.474-0.842-2.316-0.733c-2.147,0-3.461,0.783-4.008,2.408h-1.811c1.196-3.251,4.017-3.924,6.181-3.924
		c1.735,0,2.956,0.421,3.621,1.272c0.648,0.978,0.801,2.203,0.413,3.309l-1.373,6.56c-0.194,0.8-0.32,1.642-0.429,2.383l0,0
		c0,0.253-0.067,0.497-0.109,0.733h-1.752l0.387-2.038h-0.059l-0.126,0.194c-0.564,0.671-1.272,1.207-2.072,1.566
		c-0.894,0.434-1.87,0.669-2.863,0.691H286.088z M292.261,23.907L292.261,23.907h-0.977c-2.585,0-6.484,0.051-7.149,3.107
		c-0.195,0.651-0.074,1.355,0.328,1.903c0.591,0.605,1.422,0.914,2.265,0.842c3.082,0.034,4.943-1.971,5.566-5.853H292.261z
		 M260.505,31.318c-1.226,0.081-2.424-0.395-3.259-1.297c-0.63-0.861-0.826-1.965-0.531-2.989c0.483-1.883,1.887-3.392,3.731-4.008
		c1.568-0.488,3.211-0.691,4.851-0.598c0.598,0,1.154,0,1.684,0l0.278-1.272c0.237-0.772,0.123-1.61-0.312-2.291
		c-0.626-0.574-1.474-0.842-2.316-0.733c-2.147,0-3.461,0.783-4.008,2.408h-1.844c1.196-3.251,4.017-3.924,6.181-3.924
		c1.735,0,2.956,0.421,3.621,1.272c0.641,0.984,0.793,2.207,0.413,3.318l-1.432,6.585c-0.202,0.842-0.32,1.684-0.43,2.408
		c-0.042,0.244-0.076,0.48-0.109,0.707h-1.76l0.387-2.038H265.6l-0.135,0.194c-0.564,0.671-1.272,1.207-2.072,1.566
		c-0.893,0.437-1.87,0.675-2.863,0.699L260.505,31.318z M266.678,23.907h-0.977c-2.585,0-6.484,0.051-7.149,3.107
		c-0.195,0.651-0.074,1.355,0.328,1.903c0.591,0.605,1.422,0.914,2.265,0.842c3.048,0,4.909-1.979,5.533-5.895L266.678,23.907z
		 M252.219,31.318c-1.238,0-2.046-0.261-2.467-0.792c-0.606-0.758-0.345-1.92-0.101-3.048l0,0c0-0.093,0.042-0.185,0.067-0.278
		l1.92-8.674H248.8l0.337-1.524h2.821l0.648-2.956l1.853-0.716l-0.8,3.672h3.234l-0.337,1.524h-3.234l-2.021,9.263
		c-0.169,0.486-0.107,1.022,0.168,1.457c0.355,0.366,0.856,0.552,1.364,0.505c0.508,0.007,1.014-0.049,1.507-0.168l-0.312,1.432
		c-0.581,0.151-1.177,0.236-1.777,0.253L252.219,31.318z M205.179,31.318c-1.436,0.093-2.833-0.493-3.773-1.583
		c-1.053-1.314-1.364-3.411-0.842-5.768c0.41-1.902,1.344-3.652,2.695-5.053c1.366-1.44,3.262-2.258,5.246-2.265
		c1.878,0,3.259,0.531,4.109,1.592c1.053,1.314,1.288,3.368,0.682,6.147h-10.947c-0.362,1.827-0.143,3.301,0.632,4.211
		c0.798,0.86,1.947,1.304,3.116,1.204c2.111-0.085,3.986-1.371,4.825-3.309h1.785c-0.649,1.475-1.696,2.74-3.023,3.655
		c-1.33,0.815-2.87,1.222-4.429,1.171H205.179z M208.193,18.139c-2.981,0-4.825,2.526-5.499,4.691h9.086
		c0.286-1.252,0.016-2.567-0.741-3.604c-0.732-0.759-1.761-1.156-2.813-1.086L208.193,18.139z M278.172,30.905h-1.684l3.023-13.869
		h1.684L278.172,30.905z M272.463,30.905h-1.684l4.328-19.958h1.684L272.463,30.905z M243.174,30.905h-1.684l3.015-13.878h1.684
		L243.174,30.905z M232.985,30.905h-1.684l4.328-19.958h1.684L232.985,30.905z M216.8,30.905h-1.684l2.341-10.754
		c0.202-0.842,0.32-1.684,0.429-2.425c0-0.244,0.067-0.472,0.109-0.699h1.752l-0.362,2.046h0.059
		c0.764-1.375,2.149-2.292,3.714-2.459h0.497c0.421,0,0.842,0,1.196,0l-0.345,1.6c-0.136-0.008-0.271-0.025-0.404-0.051
		c-0.206-0.032-0.414-0.052-0.623-0.059c-2.383,0-4.211,1.684-4.867,4.421L216.8,30.88L216.8,30.905z M239.882,16.589h-1.465
		l2.425-5.642h2.291l-3.267,5.667L239.882,16.589z M282.206,12.994h-1.979l0.455-2.072h1.979L282.206,12.994z M247.2,12.994h-1.979
		l0.455-2.072h1.979L247.2,12.994L247.2,12.994z"/>
</g>
</svg>-->
<svg xmlns="http://www.w3.org/2000/svg" version="1.0" width="1890.000000pt" height="955.000000pt" viewBox="0 0 1790.000000 955.000000" preserveAspectRatio="xMidYMid meet">
<g transform="scale(1.7)">
<g transform="translate(0.900000,750.000000) scale(0.060000,-0.100000)" fill="#0A3A84" stroke="none">
<path d="M14165 6585 c-167 -31 -367 -117 -495 -214 -82 -62 -214 -198 -267 -276 -51 -77 -103 -180 -137 -275 -57 -157 -58 -174 -63 -622 l-5 -418 -519 0 -519 0 0 -260 0 -260 520 0 520 0 0 -520 0 -520 258 2 257 3 3 518 2 517 649 0 649 0 5 -262 c4 -226 7 -275 26 -346 85 -332 334 -577 675 -664 104 -27 299 -29 398 -5 413 101 694 432 715 842 13 260 -71 486 -251 673 -134 140 -287 225 -471 263 -73 15 -135 19 -332 19 l-241 0 -5 413 c-4 329 -8 425 -20 477 -59 241 -157 421 -320 585 -165 165 -359 273 -582 322 -100 22 -350 26 -450 8z m408 -522 c162 -54 303 -177 378 -328 64 -130 69 -170 69 -587 l0 -368 -650 0 -650 0 0 378 c0 455 5 485 106 642 99 154 255 256 442 290 78 15 217 2 305 -27z m1519 -1835 c182 -85 270 -286 209 -476 -41 -128 -144 -224 -278 -259 -172 -45 -362 47 -445 215 l-33 66 -3 244 -4 243 249 -3 c245 -3 249 -3 305 -30z"/>
<path d="M3320 6210 l0 -130 -75 0 -75 0 0 -95 0 -95 75 0 74 0 3 -337 c3 -332 3 -339 26 -382 53 -99 152 -153 282 -155 41 -1 92 3 114 7 l39 8 -6 47 c-3 26 -11 71 -17 101 l-12 53 -40 -6 c-23 -4 -56 -2 -75 5 -61 20 -63 33 -63 364 l0 295 100 0 100 0 0 95 0 95 -100 0 -100 0 0 130 0 130 -125 0 -125 0 0 -130z"/>
<path d="M6170 6210 l0 -130 -75 0 -75 0 0 -95 0 -95 74 0 75 0 3 -332 c3 -323 4 -334 26 -375 69 -131 199 -189 363 -165 39 6 73 13 76 15 2 3 -4 48 -13 102 l-18 97 -50 -6 c-63 -8 -95 7 -118 54 -16 31 -18 69 -18 323 l0 287 105 0 105 0 0 95 0 95 -105 0 -105 0 0 130 0 130 -125 0 -125 0 0 -130z"/>
<path d="M9360 6125 c0 -118 -4 -215 -8 -215 -4 0 -16 13 -25 30 -35 59 -72 93 -130 121 -233 110 -485 -34 -563 -322 -24 -88 -24 -271 -1 -359 54 -203 177 -330 349 -360 118 -21 225 16 308 107 28 30 50 59 50 64 0 5 5 9 10 9 6 0 10 -35 10 -85 l0 -85 120 0 120 0 0 655 0 655 -120 0 -120 0 0 -215z m-154 -246 c33 -12 93 -68 111 -103 28 -54 43 -128 43 -216 0 -146 -44 -256 -122 -308 -37 -24 -51 -27 -122 -27 -75 0 -84 2 -128 33 -174 120 -163 514 17 610 57 30 139 34 201 11z"/>
<path d="M1300 6089 c-76 -13 -187 -68 -237 -117 -41 -40 -93 -127 -93 -155 0 -20 222 -46 228 -27 13 38 77 91 130 106 129 38 245 -18 259 -124 10 -76 -52 -108 -247 -127 -232 -23 -358 -92 -395 -219 -49 -164 27 -328 180 -386 81 -31 217 -34 290 -6 63 24 124 67 150 106 11 16 23 30 28 30 4 0 7 -31 7 -70 l0 -70 115 0 116 0 -3 408 c-3 401 -3 408 -26 457 -40 87 -115 149 -218 180 -63 19 -213 27 -284 14z m288 -669 c-5 -84 -22 -124 -70 -169 -87 -82 -260 -80 -326 4 -53 67 -31 151 49 192 27 14 87 29 153 39 60 9 127 21 150 28 50 15 50 13 44 -94z"/>
<path d="M4290 6089 c-80 -13 -186 -69 -247 -130 -100 -100 -146 -225 -147 -399 -1 -171 42 -293 139 -398 92 -100 206 -146 360 -146 155 0 268 46 362 148 93 100 143 237 143 391 0 360 -262 590 -610 534z m206 -208 c51 -23 98 -80 126 -151 18 -46 22 -75 22 -175 0 -146 -22 -213 -89 -281 -89 -89 -234 -86 -322 7 -144 152 -108 515 59 598 55 27 147 28 204 2z"/>
<path d="M5366 6090 c-154 -28 -269 -114 -302 -225 -30 -106 -5 -213 68 -282 49 -47 127 -78 283 -113 180 -40 221 -58 241 -106 23 -54 3 -101 -56 -134 -39 -22 -58 -25 -135 -25 -112 0 -149 18 -184 89 l-24 48 -51 -6 c-28 -3 -81 -8 -118 -12 -38 -3 -68 -10 -68 -15 0 -35 48 -126 88 -167 84 -86 205 -127 367 -126 229 2 400 107 435 266 24 114 -24 228 -119 285 -62 37 -107 51 -275 88 -140 30 -182 48 -208 89 -33 54 -3 122 69 152 46 20 150 17 198 -5 38 -17 88 -65 97 -92 3 -9 28 -10 106 -2 56 6 105 13 108 16 9 8 -16 76 -42 119 -36 57 -116 115 -192 138 -76 24 -213 33 -286 20z"/>
<path d="M7329 6090 c-25 -4 -64 -17 -86 -29 -45 -23 -111 -93 -119 -128 -13 -49 -24 -19 -24 62 l0 85 -120 0 -120 0 0 -525 0 -525 125 0 125 0 0 328 c1 351 3 370 54 436 14 19 47 45 73 57 40 20 62 24 136 22 l87 -1 0 109 c0 106 -1 109 -22 109 -13 0 -32 2 -43 4 -11 2 -41 0 -66 -4z"/>
<path d="M7930 6093 c-105 -16 -205 -62 -268 -123 -40 -39 -92 -125 -92 -153 0 -20 222 -46 228 -27 13 38 77 91 130 106 133 39 247 -19 260 -131 8 -75 -30 -95 -213 -115 -335 -37 -460 -136 -442 -351 10 -124 78 -215 193 -259 79 -31 216 -34 289 -6 63 24 124 67 150 106 11 16 23 30 28 30 4 0 7 -31 7 -70 l0 -70 115 0 115 0 0 388 c0 438 -2 455 -70 541 -79 100 -269 159 -430 134z m236 -777 c-14 -29 -39 -62 -56 -74 -136 -101 -347 -44 -344 92 2 89 60 127 229 152 59 9 126 21 149 28 l41 12 3 -80 c2 -68 -1 -86 -22 -130z"/>
<path d="M10210 6093 c-198 -30 -328 -137 -392 -320 -20 -60 -23 -87 -23 -218 0 -130 3 -159 23 -216 72 -210 239 -324 472 -323 154 1 273 46 365 138 34 34 59 70 72 106 l21 55 -42 6 c-22 4 -73 9 -113 13 l-72 7 -15 -30 c-33 -64 -112 -101 -210 -101 -146 1 -243 86 -262 229 l-7 51 362 0 361 0 0 93 c0 168 -46 294 -139 388 -31 30 -77 65 -102 77 -82 40 -211 59 -299 45z m185 -214 c71 -33 113 -94 129 -181 l7 -38 -246 0 -245 0 0 25 c0 34 23 87 55 130 61 80 202 110 300 64z"/>
<path d="M2053 5693 c4 -419 7 -445 61 -538 115 -195 457 -191 579 7 l32 51 3 -91 3 -92 119 0 120 0 0 525 0 525 -125 0 -125 0 0 -338 0 -338 -25 -51 c-53 -105 -179 -152 -279 -103 -23 11 -52 36 -65 55 -46 68 -51 116 -51 457 l0 318 -126 0 -125 0 4 -387z"/>
<path d="M4710 3900 l0 -680 195 0 195 0 0 680 0 680 -195 0 -195 0 0 -680z"/>
<path d="M5320 4576 c0 -6 -69 -376 -75 -404 l-6 -23 142 3 143 3 83 204 c46 112 83 208 83 212 0 5 -83 9 -185 9 -102 0 -185 -2 -185 -4z"/>
<path d="M5880 3900 l0 -680 195 0 195 0 0 680 0 680 -195 0 -195 0 0 -680z"/>
<path d="M6580 4420 l0 -160 -70 0 -70 0 0 -140 0 -140 70 0 70 0 0 -250 c0 -141 5 -271 11 -300 28 -130 134 -208 296 -217 84 -5 246 10 271 26 8 5 3 43 -16 138 l-27 132 -47 -6 c-35 -4 -54 -1 -73 11 l-25 16 0 225 0 225 90 0 90 0 0 140 0 140 -90 0 -89 0 -3 158 -3 157 -192 3 -193 2 0 -160z"/>
<path d="M8540 3900 l0 -680 195 0 195 0 0 680 0 680 -195 0 -195 0 0 -680z"/>
<path d="M9140 4420 l0 -160 195 0 195 0 0 160 0 160 -195 0 -195 0 0 -160z"/>
<path d="M1560 4301 c-79 -25 -157 -89 -185 -150 -10 -22 -22 -38 -26 -35 -5 3 -9 45 -9 95 l0 89 -190 0 -190 0 0 -740 0 -740 195 0 195 0 0 293 c1 292 1 292 20 256 28 -54 100 -114 166 -139 85 -32 207 -26 290 15 192 94 292 369 240 664 -31 178 -111 303 -234 363 -59 29 -77 33 -157 35 -49 1 -101 -1 -115 -6z m27 -308 c86 -56 120 -261 65 -387 -52 -116 -176 -138 -256 -45 -41 48 -56 103 -56 202 0 96 21 164 63 205 55 53 126 63 184 25z"/>
<path d="M2582 4294 c-96 -25 -164 -65 -233 -133 -107 -107 -152 -228 -152 -406 1 -257 113 -432 329 -512 55 -20 93 -26 189 -30 196 -8 341 35 445 133 49 45 101 135 114 197 l6 27 -178 0 -179 0 -11 -25 c-23 -50 -130 -84 -203 -65 -81 22 -118 64 -133 153 l-7 37 357 0 357 0 -6 108 c-11 182 -52 288 -151 388 -67 66 -154 114 -244 133 -73 15 -236 13 -300 -5z m254 -270 c42 -20 73 -62 81 -109 l6 -35 -174 2 -174 3 3 25 c6 41 41 89 80 110 46 24 132 26 178 4z"/>
<path d="M3974 4291 c-52 -24 -109 -90 -131 -155 l-18 -51 -3 108 -3 107 -189 0 -190 0 0 -540 0 -540 195 0 195 0 0 298 c0 176 4 312 11 335 14 52 61 102 115 123 34 13 63 16 129 12 l85 -6 0 158 c0 135 -2 159 -16 164 -33 13 -140 5 -180 -13z"/>
<path d="M7650 4292 c-149 -42 -254 -132 -290 -249 -11 -36 -20 -71 -20 -79 0 -11 33 -14 180 -14 169 0 180 1 180 19 0 10 12 30 26 44 67 67 214 36 214 -45 0 -68 -23 -80 -208 -103 -331 -43 -445 -142 -429 -375 12 -180 133 -280 339 -280 134 0 231 40 285 119 16 22 31 40 36 41 4 0 7 -34 7 -75 l0 -75 181 0 180 0 -3 403 c-3 382 -4 405 -24 453 -42 103 -102 157 -221 202 -59 22 -87 25 -218 28 -123 3 -162 1 -215 -14z m298 -673 c-8 -111 -56 -160 -163 -167 -61 -4 -66 -3 -95 26 -33 34 -38 67 -15 111 16 33 64 54 154 71 34 6 72 15 84 20 38 15 40 12 35 -61z"/>
<path d="M10042 4290 c-94 -25 -163 -63 -213 -118 -44 -47 -83 -124 -93 -184 l-7 -38 181 0 c149 0 180 2 180 14 0 8 11 28 25 45 31 36 96 50 156 32 78 -24 88 -116 15 -146 -18 -8 -76 -19 -127 -25 -261 -31 -380 -85 -435 -197 -26 -52 -29 -68 -28 -153 1 -108 14 -148 71 -211 67 -74 164 -105 304 -97 113 6 175 34 239 106 l50 56 0 -77 0 -77 180 0 181 0 -3 408 -3 407 -26 55 c-14 31 -40 72 -57 91 -40 46 -131 94 -213 114 -93 22 -284 19 -377 -5z m296 -670 c-4 -77 -21 -109 -78 -147 -48 -33 -138 -32 -177 1 -22 19 -28 32 -28 66 0 57 41 94 122 110 32 7 78 18 103 25 25 7 49 13 54 14 4 1 6 -30 4 -69z"/>
<path d="M9140 3685 l0 -465 195 0 195 0 0 465 0 465 -195 0 -195 0 0 -465z"/>
</g>
</g>
</svg>
