<svg xmlns="http://www.w3.org/2000/svg" xml:space="preserve" width="20" height="20" style="enable-background:new 0 0 300 300" viewBox="0 0 300 300">
    <path d="M25 25 150 5l125 20 20 125-20 125-125 20-125-20L5 150 25 25z" style="fill:#128442;stroke:#fff;stroke-width:10"/>
    <path d="m69.712 111.396.177-1.263.177 1.263h-.354zm-.139 1h.627l.12 1h1.311l-.909-5.479h-1.675l-.924 5.479h1.302l.148-1zM72.986 113.425v-.933c.523-.836.868-1.4 1.034-1.694.325-.581.501-1.035.526-1.364.026-.242-.056-.364-.244-.364-.099 0-.177.049-.234.148-.067.118-.097.279-.091.483l-1.086.01c.051-.81.322-1.349.814-1.617.437-.236.898-.22 1.383.048.475.274.713.68.713 1.215a1.5 1.5 0 0 1-.057.402c-.137.523-.552 1.359-1.244 2.508h1.206v1.158h-2.72zM78.087 111.267c-.064.15-.096.284-.096.402 0 .124.032.255.096.392.073.15.166.225.278.225.118 0 .207-.078.266-.234.059-.156.089-.29.089-.402 0-.112-.03-.242-.091-.392-.07-.15-.161-.225-.273-.225-.119-.001-.208.077-.269.234zm1.708-2.077-1.029.325c-.099-.341-.214-.512-.345-.512-.105 0-.203.096-.292.287a1.436 1.436 0 0 0-.139.608c0 .045.006.113.019.206.242-.179.471-.268.684-.268.329 0 .59.177.785.531.185.319.278.708.278 1.168 0 .507-.115.941-.345 1.302-.262.399-.624.598-1.086.598-.418 0-.782-.281-1.091-.842-.313-.555-.469-1.19-.469-1.905 0-.861.169-1.55.507-2.067.303-.469.68-.703 1.129-.703.63-.001 1.095.423 1.394 1.272z" style="fill:#fff" transform="translate(-1177.205 -1773.463) scale(17.94295)"/>
    <path d="m72.095 104.806.154-1.099.154 1.099h-.308zm-.12.87h.545l.104.87h1.141l-.791-4.768h-1.457l-.804 4.768h1.133l.129-.87zM75.959 102.782l-1.024 3.764h1.103l1.074-3.931v-.829h-2.236v.995h1.083z" style="fill:#fff" transform="translate(-1384.557 -2075.545) scale(20.76507)"/>
</svg>
