<svg version="1.1"
	 xmlns="http://www.w3.org/2000/svg" x="0px" y="0px" viewBox="0 0 294.729 48"
	 enable-background="new 0 0 294.729 48" xml:space="preserve">
<g>
	<path fill="#0064A5" d="M111.654,32c-1.296,0.112-2.573-0.371-3.469-1.314c-0.637-0.883-0.836-2.009-0.539-3.057
		c0.724-3.411,3.655-5.002,9.263-5.002h0.842l0.312-1.482c0.098-0.282,0.057-0.594-0.109-0.842c-0.263-0.244-0.62-0.361-0.977-0.32
		c-0.842,0-1.356,0.244-1.684,1.491h-5.667c0.417-1.693,1.601-3.094,3.2-3.789c1.611-0.636,3.339-0.923,5.069-0.842
		c2.998,0,4.8,0.505,5.684,1.6c0.657,0.842,0.842,1.912,0.472,3.486l-2.038,9.684H116l0.118-1.364
		C114.939,31.429,113.321,32.064,111.654,32z M116.21,25.314c-1.465,0-2.324,0.556-2.526,1.684
		c-0.115,0.366-0.053,0.765,0.168,1.078c0.287,0.296,0.693,0.445,1.103,0.404c1.061,0,1.684-0.615,1.971-1.937l0.253-1.204
		L116.21,25.314z M21.49,32c-1.236,0.122-2.46-0.332-3.318-1.229c-0.716-0.842-0.842-2.223-0.514-4l2.013-9.541h6.863l-1.878,8.876
		c-0.152,0.451-0.1,0.946,0.143,1.356c0.192,0.213,0.472,0.325,0.758,0.303c0.884-0.034,1.604-0.719,1.684-1.6l1.895-8.935H36
		l-3.032,14.316h-6.686l0.286-2.173h-0.051C25.376,31.022,23.496,32.005,21.49,32z M4.143,32c-1.294,0.11-2.569-0.37-3.469-1.305
		c-0.637-0.887-0.835-2.015-0.539-3.065c0.724-3.411,3.655-5.002,9.263-5.002h0.842l0.32-1.482c0.09-0.284,0.047-0.594-0.118-0.842
		c-0.263-0.245-0.62-0.362-0.977-0.32c-0.842,0-1.347,0.244-1.684,1.491H2.029c0.42-1.692,1.602-3.092,3.2-3.789
		c1.627-0.643,3.373-0.93,5.12-0.842c2.998,0,4.8,0.505,5.684,1.6c0.657,0.842,0.842,1.912,0.472,3.495l-2.038,9.642H8.463
		l0.118-1.373C7.414,31.394,5.807,32.043,4.143,32z M8.673,25.314c-1.465,0-2.324,0.556-2.526,1.684
		c-0.111,0.366-0.049,0.763,0.168,1.078c0.287,0.295,0.693,0.444,1.103,0.404c1.069,0,1.684-0.615,1.971-1.937l0.253-1.204
		L8.673,25.314z M150.568,32c-2.526,0-4.413-0.699-5.474-2.013c-1.061-1.314-1.339-3.208-0.842-5.676
		c0.408-2.242,1.65-4.247,3.478-5.608c1.933-1.296,4.226-1.947,6.552-1.861c2.611,0,4.463,0.665,5.516,1.962
		s1.331,3.309,0.783,5.895l-0.211,0.977h-9.802l-0.084,0.429c-0.238,0.631-0.182,1.334,0.152,1.92
		c0.331,0.339,0.801,0.504,1.272,0.446c0.927-0.029,1.734-0.64,2.013-1.524h6.004c-0.542,1.591-1.66,2.921-3.133,3.731
		C154.864,31.642,152.721,32.097,150.568,32z M151.208,22.627h3.629v-0.194c0.172-0.55,0.091-1.148-0.219-1.634
		c-0.285-0.319-0.702-0.487-1.128-0.455c-1.179,0.019-2.159,0.915-2.282,2.088V22.627z M129.684,32
		c-1.335,0.072-2.629-0.478-3.503-1.491c-1.095-1.347-1.364-3.52-0.783-6.282c0.363-2.172,1.414-4.17,2.998-5.701
		c1.215-1.094,2.795-1.694,4.429-1.684c1.49-0.142,2.948,0.495,3.857,1.684l1.6-7.579h6.863l-4.354,20.623h-6.459l0.236-1.684
		C133.323,31.265,131.541,32.036,129.684,32z M134.585,20.859c-1.373,0-1.853,1.145-2.358,3.545c-0.32,1.516-0.446,2.627,0,3.183
		c0.224,0.253,0.556,0.385,0.893,0.354c0.585,0.032,1.14-0.263,1.44-0.766c0.421-0.875,0.705-1.809,0.842-2.771l0,0
		c0.187-0.722,0.303-1.461,0.345-2.206c0.026-0.366-0.095-0.726-0.337-1.002c-0.226-0.215-0.531-0.328-0.842-0.312L134.585,20.859z
		 M88.732,32c-1.878,0-3.175-0.421-3.848-1.246c-0.565-0.81-0.724-1.836-0.429-2.779l1.373-6.509h-1.844l0.893-4.211h1.861
		l0.488-2.316l7.36-2.4l-0.994,4.716h3.091l-0.893,4.211h-3.091l-0.909,4.396c-0.147,0.394-0.119,0.832,0.076,1.204
		c0.21,0.197,0.497,0.29,0.783,0.253c0.566,0.021,1.133-0.035,1.684-0.168L93.44,31.36C91.896,31.729,90.319,31.944,88.732,32z
		 M73.094,32c-2.964,0-4.867-0.564-5.819-1.684c-0.731-0.999-0.952-2.283-0.598-3.469h6.181c-0.16,0.516-0.127,1.073,0.093,1.566
		c0.246,0.32,0.644,0.483,1.044,0.429c0.792,0.11,1.525-0.438,1.642-1.229c0.069-0.217,0.042-0.453-0.076-0.648
		c-0.187-0.227-0.456-0.373-0.749-0.404h-0.135l-2.771-0.573c-2.055-0.421-3.158-0.943-3.688-1.752
		c-0.414-0.776-0.502-1.685-0.244-2.526c0.308-1.398,1.167-2.612,2.383-3.368c1.737-1.048,3.741-1.568,5.768-1.499
		c3.082,0,4.968,0.531,5.895,1.684c0.673,0.918,0.893,2.092,0.598,3.192H76.8c0.152-0.691,0.135-1.103-0.051-1.339
		c-0.24-0.274-0.598-0.415-0.96-0.379c-1.002,0-1.541,0.337-1.684,1.061c-0.065,0.196-0.044,0.41,0.059,0.589
		c0.194,0.278,0.707,0.455,1.785,0.606c3.368,0.488,5.053,1.095,5.743,2.097c0.446,0.765,0.544,1.684,0.269,2.526
		C81.238,30.316,78.316,32,73.094,32z M55.41,32c-1.288,0.028-2.571-0.172-3.789-0.589c-0.942-0.329-1.776-0.912-2.408-1.684
		c-1.053-1.305-1.364-3.158-0.901-5.364c0.422-2.18,1.618-4.133,3.368-5.499c2.022-1.425,4.46-2.136,6.931-2.021
		c1.288-0.024,2.57,0.176,3.789,0.589c0.941,0.332,1.774,0.914,2.408,1.684c1.053,1.229,1.364,3.082,0.876,5.305
		c-0.422,2.18-1.618,4.133-3.368,5.499C60.308,31.36,57.879,32.092,55.41,32z M57.793,20.691c-1.179,0-1.827,1.011-2.4,3.714
		c-0.387,1.861-0.396,2.905,0,3.368c0.212,0.238,0.524,0.363,0.842,0.337c1.179,0,1.827-1.011,2.4-3.714
		c0.387-1.869,0.396-2.914,0-3.368c-0.212-0.238-0.525-0.36-0.842-0.328V20.691z M41.01,32c-1.878,0-3.175-0.421-3.84-1.246
		c-0.564-0.81-0.725-1.834-0.438-2.779l1.373-6.518h-1.836l0.842-4.211h1.844l0.488-2.307l7.36-2.4l-0.994,4.716h3.091l-0.842,4.211
		h-3.091l-0.926,4.396c-0.126,0.598-0.101,0.977,0.076,1.196c0.204,0.201,0.49,0.298,0.775,0.261
		c0.566,0.022,1.133-0.035,1.684-0.168l-0.893,4.211C44.151,31.727,42.585,31.941,41.01,32z M101.642,31.571h-6.855l3.023-14.316
		h6.686l-0.16,1.575c1.154-1.171,2.189-1.743,3.175-1.743c0.602-0.031,1.201,0.109,1.726,0.404l-1.095,5.196
		c-0.902-0.269-1.838-0.405-2.779-0.404c-1.067-0.028-1.986,0.746-2.139,1.802l-1.583,7.512L101.642,31.571z"/>
	<path fill="#0064A5" d="M169.692,0l-5.314,23.933L159.158,48h7.175l5.196-24.067L176.842,0H169.692z"/>
	<path fill="#0064A5" d="M179.798,0l-5.314,23.933L169.263,48h7.183l5.187-24.067L186.947,0H179.798z"/>
	<path fill="#0064A5" d="M184.421,36.211h-1.684l3.495-16.059c0.202-0.842,0.328-1.684,0.438-2.434l0.101-0.691h1.76
		l-0.362,2.046l0.042,0.059c1.361-1.578,3.332-2.497,5.415-2.526c1.318-0.091,2.603,0.442,3.469,1.44
		c0.573,0.764,0.917,1.675,0.994,2.627c0.096,1.08,0.022,2.168-0.219,3.225c-0.378,1.857-1.208,3.593-2.417,5.053
		c-1.206,1.499-3.019,2.379-4.943,2.4c-1.841,0.132-3.578-0.868-4.387-2.526h-0.017L184.421,36.211z M187.158,23.638L187.158,23.638
		c-0.337,1.549-0.522,3.672,0.531,4.985c0.749,0.835,1.846,1.271,2.964,1.179c3.781,0,5.053-4.657,5.398-6.08
		c0.421-1.92,0.211-3.562-0.564-4.522c-0.629-0.731-1.563-1.127-2.526-1.069c-4.211,0-5.499,4.211-5.777,5.507H187.158z
		 M286.088,31.318c-1.226,0.081-2.424-0.395-3.259-1.297c-0.63-0.861-0.826-1.965-0.531-2.989c0.481-1.882,1.887-3.389,3.73-4
		c1.566-0.496,3.21-0.702,4.851-0.606c0.598,0,1.154,0,1.684,0l0.278-1.272c0.204-0.775,0.056-1.601-0.404-2.257
		c-0.626-0.574-1.474-0.842-2.316-0.733c-2.147,0-3.461,0.783-4.008,2.408h-1.811c1.196-3.251,4.017-3.924,6.181-3.924
		c1.735,0,2.956,0.421,3.621,1.272c0.648,0.978,0.801,2.203,0.413,3.309l-1.373,6.56c-0.194,0.8-0.32,1.642-0.429,2.383l0,0
		c0,0.253-0.067,0.497-0.109,0.733h-1.752l0.387-2.038h-0.059l-0.126,0.194c-0.564,0.671-1.272,1.207-2.072,1.566
		c-0.894,0.434-1.87,0.669-2.863,0.691H286.088z M292.261,23.907L292.261,23.907h-0.977c-2.585,0-6.484,0.051-7.149,3.107
		c-0.195,0.651-0.074,1.355,0.328,1.903c0.591,0.605,1.422,0.914,2.265,0.842c3.082,0.034,4.943-1.971,5.566-5.853H292.261z
		 M260.505,31.318c-1.226,0.081-2.424-0.395-3.259-1.297c-0.63-0.861-0.826-1.965-0.531-2.989c0.483-1.883,1.887-3.392,3.731-4.008
		c1.568-0.488,3.211-0.691,4.851-0.598c0.598,0,1.154,0,1.684,0l0.278-1.272c0.237-0.772,0.123-1.61-0.312-2.291
		c-0.626-0.574-1.474-0.842-2.316-0.733c-2.147,0-3.461,0.783-4.008,2.408h-1.844c1.196-3.251,4.017-3.924,6.181-3.924
		c1.735,0,2.956,0.421,3.621,1.272c0.641,0.984,0.793,2.207,0.413,3.318l-1.432,6.585c-0.202,0.842-0.32,1.684-0.43,2.408
		c-0.042,0.244-0.076,0.48-0.109,0.707h-1.76l0.387-2.038H265.6l-0.135,0.194c-0.564,0.671-1.272,1.207-2.072,1.566
		c-0.893,0.437-1.87,0.675-2.863,0.699L260.505,31.318z M266.678,23.907h-0.977c-2.585,0-6.484,0.051-7.149,3.107
		c-0.195,0.651-0.074,1.355,0.328,1.903c0.591,0.605,1.422,0.914,2.265,0.842c3.048,0,4.909-1.979,5.533-5.895L266.678,23.907z
		 M252.219,31.318c-1.238,0-2.046-0.261-2.467-0.792c-0.606-0.758-0.345-1.92-0.101-3.048l0,0c0-0.093,0.042-0.185,0.067-0.278
		l1.92-8.674H248.8l0.337-1.524h2.821l0.648-2.956l1.853-0.716l-0.8,3.672h3.234l-0.337,1.524h-3.234l-2.021,9.263
		c-0.169,0.486-0.107,1.022,0.168,1.457c0.355,0.366,0.856,0.552,1.364,0.505c0.508,0.007,1.014-0.049,1.507-0.168l-0.312,1.432
		c-0.581,0.151-1.177,0.236-1.777,0.253L252.219,31.318z M205.179,31.318c-1.436,0.093-2.833-0.493-3.773-1.583
		c-1.053-1.314-1.364-3.411-0.842-5.768c0.41-1.902,1.344-3.652,2.695-5.053c1.366-1.44,3.262-2.258,5.246-2.265
		c1.878,0,3.259,0.531,4.109,1.592c1.053,1.314,1.288,3.368,0.682,6.147h-10.947c-0.362,1.827-0.143,3.301,0.632,4.211
		c0.798,0.86,1.947,1.304,3.116,1.204c2.111-0.085,3.986-1.371,4.825-3.309h1.785c-0.649,1.475-1.696,2.74-3.023,3.655
		c-1.33,0.815-2.87,1.222-4.429,1.171H205.179z M208.193,18.139c-2.981,0-4.825,2.526-5.499,4.691h9.086
		c0.286-1.252,0.016-2.567-0.741-3.604c-0.732-0.759-1.761-1.156-2.813-1.086L208.193,18.139z M278.172,30.905h-1.684l3.023-13.869
		h1.684L278.172,30.905z M272.463,30.905h-1.684l4.328-19.958h1.684L272.463,30.905z M243.174,30.905h-1.684l3.015-13.878h1.684
		L243.174,30.905z M232.985,30.905h-1.684l4.328-19.958h1.684L232.985,30.905z M216.8,30.905h-1.684l2.341-10.754
		c0.202-0.842,0.32-1.684,0.429-2.425c0-0.244,0.067-0.472,0.109-0.699h1.752l-0.362,2.046h0.059
		c0.764-1.375,2.149-2.292,3.714-2.459h0.497c0.421,0,0.842,0,1.196,0l-0.345,1.6c-0.136-0.008-0.271-0.025-0.404-0.051
		c-0.206-0.032-0.414-0.052-0.623-0.059c-2.383,0-4.211,1.684-4.867,4.421L216.8,30.88L216.8,30.905z M239.882,16.589h-1.465
		l2.425-5.642h2.291l-3.267,5.667L239.882,16.589z M282.206,12.994h-1.979l0.455-2.072h1.979L282.206,12.994z M247.2,12.994h-1.979
		l0.455-2.072h1.979L247.2,12.994L247.2,12.994z"/>
</g>
</svg>
