<svg xmlns="http://www.w3.org/2000/svg" width="20" height="20" viewBox="0 0 5.292 5.292">
    <path d="M87.784 67.54c.958-.095.975 2.592 0 2.564-.165-.005-.502-.139-.597-.417-.275-.807-.02-2.087.597-2.147M92.554 69.508c.113-.011.613.037.656.536.035.403-.484.843-.656 1.014-.28.281-1.426 1.198-1.55.12-.057-.493 1.073-1.624 1.55-1.67M82.774 69.567c.964-.375 1.825 1.534.715 1.61-.413.03-1.721-1.218-.715-1.61M83.132 73.205c-1.743.057-2.59 1.386-2.862 3.042-1.257.185-2.289.781-2.446 1.968-.147 1.115.537 2.223 1.491 2.504 1.205.356 7.789.332 8.886 0 1.767-.533 1.977-3.2.358-4.114-.682-.386-1.338-.197-2.326-.358-.164-1.827-1.332-3.1-3.101-3.042m3.1-.06c.425.61.798 1.271 1.134 1.968 1.147-.05 1.877.625 2.564.835 1.37-2.323-2.003-4.629-3.697-2.802m-7.097 2.087c.787-1.921 2.032-3.477 4.592-3.22.397.039.843.374 1.252.358.485-.02.824-.593 1.372-.835 2.785-1.235 5.68 1.355 5.01 4.293-.092.4-.602.857-.656 1.372-.042.395.238.898.238 1.371 0 1.686-1.297 3.143-2.743 3.4-1.208.214-7.664.217-8.886 0-3.463-.615-3.614-6.003-.179-6.739M94.94 75.412c-.835.028-2.339.37-2.386-.477-.064-1.177 3.694-.824 2.386.477M92.017 78.692c.845-.23 1.704 1.49.657 1.61-.592.067-1.725-1.318-.657-1.61" style="fill:#2e9d53;fill-opacity:1;fill-rule:evenodd;stroke:none;stroke-width:.352778" transform="matrix(.26502 0 0 .26502 -20.126 -17.187)"/>
    <path d="M82.571 78.967h1.062v1.187H82.57zm.686-3.916c.471 0 .826.096 1.065.288.24.192.357.48.357.863s-.037.662-.114.837c-.076.174-.237.354-.482.538-.247.185-.401.326-.465.424a.584.584 0 0 0-.097.324v.23h-.788c-.152-.168-.229-.391-.229-.672 0-.177.157-.39.47-.641.31-.251.502-.424.574-.52a.57.57 0 0 0 .106-.35c0-.29-.208-.436-.626-.436-.295 0-.597.03-.906.09l-.156.028-.052-.744c.424-.172.87-.259 1.343-.259" style="fill:#2e9d53;fill-opacity:1;fill-rule:nonzero;stroke:none;stroke-width:.352778" transform="matrix(.26502 0 0 .26502 -20.126 -17.187)"/>
</svg>
