<svg
   xmlns:dc="http://purl.org/dc/elements/1.1/"
   xmlns:cc="http://creativecommons.org/ns#"
   xmlns:rdf="http://www.w3.org/1999/02/22-rdf-syntax-ns#"
   xmlns:svg="http://www.w3.org/2000/svg"
   xmlns="http://www.w3.org/2000/svg"
   xmlns:sodipodi="http://sodipodi.sourceforge.net/DTD/sodipodi-0.dtd"
   xmlns:inkscape="http://www.inkscape.org/namespaces/inkscape"
   width="20"
   height="20"
   viewBox="0 0 5.2916666 5.2916666"
   version="1.1"
   id="svg2215"
   inkscape:version="1.0.2 (e86c870879, 2021-01-15)"
   sodipodi:docname="meteo_logo.svg">
  <defs
     id="defs2209" />
  <sodipodi:namedview
     id="base"
     pagecolor="#ffffff"
     bordercolor="#666666"
     borderopacity="1.0"
     inkscape:pageopacity="0.0"
     inkscape:pageshadow="2"
     inkscape:zoom="32"
     inkscape:cx="8.1244029"
     inkscape:cy="10.954621"
     inkscape:document-units="mm"
     inkscape:current-layer="layer1"
     inkscape:document-rotation="0"
     showgrid="false"
     units="px"
     width="18.61px"
     inkscape:window-width="1920"
     inkscape:window-height="948"
     inkscape:window-x="0"
     inkscape:window-y="27"
     inkscape:window-maximized="1" />
  <metadata
     id="metadata2212">
    <rdf:RDF>
      <cc:Work
         rdf:about="">
        <dc:format>image/svg+xml</dc:format>
        <dc:type
           rdf:resource="http://purl.org/dc/dcmitype/StillImage" />
        <dc:title></dc:title>
      </cc:Work>
    </rdf:RDF>
  </metadata>
  <g
     inkscape:label="Livello 1"
     inkscape:groupmode="layer"
     id="layer1">
    <g
       transform="matrix(0.26501764,0,0,0.26501764,-20.126378,-17.186886)"
       id="g338">
      <path
         d="m 87.783502,67.539791 c 0.958497,-0.09454 0.975078,2.591858 0,2.564694 -0.164747,-0.0053 -0.501297,-0.138994 -0.596194,-0.417688 -0.275167,-0.80645 -0.02046,-2.086328 0.596194,-2.147006"
         style="fill:#2e9d53;fill-opacity:1;fill-rule:evenodd;stroke:none;stroke-width:0.352778"
         id="path324" />
      <path
         d="m 92.554257,69.507621 c 0.112889,-0.01058 0.613128,0.03775 0.655814,0.536575 0.03493,0.403225 -0.484364,0.842433 -0.655814,1.014236 -0.281164,0.280811 -1.425928,1.198033 -1.550811,0.118886 -0.0568,-0.492125 1.073855,-1.623483 1.550811,-1.669697"
         style="fill:#2e9d53;fill-opacity:1;fill-rule:evenodd;stroke:none;stroke-width:0.352778"
         id="path326" />
      <path
         d="m 82.774341,69.567382 c 0.964142,-0.375708 1.824214,1.533172 0.714728,1.610078 -0.413456,0.02893 -1.721556,-1.218142 -0.714728,-1.610078"
         style="fill:#2e9d53;fill-opacity:1;fill-rule:evenodd;stroke:none;stroke-width:0.352778"
         id="path328" />
      <path
         d="m 83.131598,73.205261 c -1.742722,0.05715 -2.588683,1.385711 -2.862086,3.04165 -1.256594,0.184855 -2.288469,0.781403 -2.445456,1.967794 -0.147461,1.115131 0.536928,2.222853 1.491192,2.504723 1.204736,0.355599 7.788628,0.331258 8.885767,0 1.766711,-0.533753 1.976966,-3.2004 0.358069,-4.1148 -0.681919,-0.385234 -1.338086,-0.19685 -2.326217,-0.357717 -0.164041,-1.826683 -1.332088,-3.099858 -3.101269,-3.04165 m 3.101269,-0.05962 c 0.423686,0.610305 0.797278,1.270352 1.133123,1.967794 1.14688,-0.05115 1.877483,0.624769 2.564341,0.835025 1.369836,-2.323042 -2.003072,-4.629503 -3.697464,-2.802819 m -7.096477,2.087386 c 0.786341,-1.921228 2.031294,-3.476625 4.591755,-3.220509 0.396522,0.03951 0.842434,0.374298 1.252009,0.35807 0.484716,-0.0194 0.824088,-0.592314 1.372305,-0.835025 2.784475,-1.234722 5.679369,1.355725 5.008739,4.293658 -0.09102,0.398992 -0.601486,0.856897 -0.655461,1.3716 -0.04127,0.394758 0.238477,0.897819 0.238477,1.3716 0,1.685219 -1.296811,3.142544 -2.743199,3.399367 -1.208264,0.214488 -7.664097,0.216958 -8.885767,0 -3.462867,-0.614892 -3.614208,-6.002867 -0.178858,-6.738761"
         style="fill:#2e9d53;fill-opacity:1;fill-rule:evenodd;stroke:none;stroke-width:0.352778"
         id="path330" />
      <path
         d="m 94.939986,75.411815 c -0.834672,0.02857 -2.338917,0.370769 -2.385836,-0.476956 -0.06421,-1.176513 3.694289,-0.823736 2.385836,0.476956"
         style="fill:#2e9d53;fill-opacity:1;fill-rule:evenodd;stroke:none;stroke-width:0.352778"
         id="path332" />
      <path
         d="m 92.017187,78.691732 c 0.844903,-0.230364 1.703564,1.491192 0.656872,1.610078 -0.591961,0.06703 -1.72473,-1.317978 -0.656872,-1.610078"
         style="fill:#2e9d53;fill-opacity:1;fill-rule:evenodd;stroke:none;stroke-width:0.352778"
         id="path334" />
      <path
         d="m 82.571076,78.967352 h 1.061862 v 1.186744 h -1.061862 z m 0.685448,-3.916186 c 0.471664,0 0.826911,0.09631 1.065741,0.288219 0.238831,0.191558 0.357011,0.479072 0.357011,0.862542 0,0.383469 -0.03704,0.662516 -0.113947,0.836789 -0.0762,0.174625 -0.237067,0.354188 -0.4826,0.538338 -0.246239,0.184503 -0.400755,0.325614 -0.464961,0.424039 -0.06385,0.09843 -0.09631,0.206375 -0.09631,0.324203 v 0.228953 h -0.788811 c -0.152048,-0.167217 -0.228248,-0.390525 -0.228248,-0.671336 0,-0.176742 0.156281,-0.390525 0.468842,-0.64135 0.311503,-0.250825 0.503061,-0.423686 0.575028,-0.519642 0.07126,-0.09595 0.106186,-0.212725 0.106186,-0.350308 0,-0.289984 -0.208492,-0.435328 -0.626533,-0.435328 -0.295275,0 -0.597253,0.02963 -0.906286,0.0889 l -0.155575,0.02928 -0.05186,-0.744714 c 0.423334,-0.172156 0.870303,-0.258586 1.34232,-0.258586"
         style="fill:#2e9d53;fill-opacity:1;fill-rule:nonzero;stroke:none;stroke-width:0.352778"
         id="path336" />
    </g>
  </g>
</svg>
