<svg version="1.1" id="Livello_1" xmlns="http://www.w3.org/2000/svg" xmlns:xlink="http://www.w3.org/1999/xlink" x="0px" y="0px"
	 viewBox="0 0 300 300" style="enable-background:new 0 0 300 300;" xml:space="preserve">
<path id="pathOttagono" style="fill:#128442;stroke:#FFFFFF;stroke-width:10;" d="M25,25L150,5l125,20l20,125l-20,125l-125,20
	L25,275L5,150L25,25z"/>
<path id="path4987" style="fill:#FFFFFF;" d="M88.322,225.578l3.182-22.707l3.182,22.707H88.322z
	 M85.827,243.554h11.267l2.15,17.976h23.567l-16.342-98.483H76.366l-16.6,98.483h23.395L85.827,243.554z"/>
<path id="path4989" style="fill:#FFFFFF;" d="M147.183,262.047v-16.772
	c9.404-15.023,15.597-25.173,18.578-30.448c5.849-10.436,9.002-18.607,9.461-24.513c0.459-4.358-1.003-6.537-4.387-6.537
	c-1.778,0-3.182,0.889-4.215,2.666c-1.204,2.122-1.749,5.017-1.634,8.687l-19.525,0.173c0.917-14.565,5.791-24.255,14.622-29.072
	c7.856-4.243,16.141-3.957,24.857,0.86c8.544,4.931,12.816,12.214,12.816,21.847c0,2.351-0.344,4.759-1.032,7.225
	c-2.466,9.404-9.92,24.427-22.363,45.07h21.675v20.815L147.183,262.047z"/>
<path id="path4991" style="fill:#FFFFFF;" d="M220.457,262.047v-62.874l-10.923,0.171v-16.944
	c8.83-0.458,13.303-6.737,13.418-18.837h19.869v98.483L220.457,262.047z"/>
<path id="path4664"  style="fill:#FFFFFF;" d="M107.463,100.237l3.182-22.707l3.182,22.707H107.463
	z M104.969,118.214h11.268l2.15,17.976h23.567l-16.342-98.483H95.507l-16.6,98.483h23.395L104.969,118.214z"/>
<path id="path4666"  style="fill:#FFFFFF;" d="M185.122,99.549h9.375V77.874L185.122,99.549z
	 M215.57,38.223v61.326h7.053v20.213l-7.053-0.171v17.116h-21.073v-16.944h-31.394v-12.988l28.556-68.551L215.57,38.223z"/>
</svg>
