<svg xmlns="http://www.w3.org/2000/svg" version="1.1" width="287px" height="175px" style="shape-rendering:geometricPrecision; text-rendering:geometricPrecision; image-rendering:optimizeQuality; fill-rule:evenodd; clip-rule:evenodd" xmlns:xlink="http://www.w3.org/1999/xlink">
<g><path style="opacity:1" fill="#fefeff" d="M -0.5,-0.5 C 95.1667,-0.5 190.833,-0.5 286.5,-0.5C 286.5,57.8333 286.5,116.167 286.5,174.5C 190.833,174.5 95.1667,174.5 -0.5,174.5C -0.5,116.167 -0.5,57.8333 -0.5,-0.5 Z"/></g>
<g><path style="opacity:1" fill="#3025ff" d="M 141.5,7.5 C 187.397,33.7876 233.063,60.6209 278.5,88C 233.332,115.418 187.999,142.585 142.5,169.5C 97.001,142.585 51.6677,115.418 6.5,88C 51.5633,61.1406 96.5633,34.3073 141.5,7.5 Z"/></g>
<g><path style="opacity:1" fill="#f7f6ff" d="M 140.5,10.5 C 142.655,10.372 144.655,10.872 146.5,12C 189.167,37.3333 231.833,62.6667 274.5,88C 230.665,114.418 186.665,140.585 142.5,166.5C 98.7024,140.532 55.0357,114.366 11.5,88C 54.5635,62.1408 97.5635,36.3074 140.5,10.5 Z"/></g>
<g><path style="opacity:1" fill="#0c07ff" d="M 140.5,17.5 C 145.089,18.5531 149.422,20.3865 153.5,23C 189.668,44.9184 226.001,66.5851 262.5,88C 222.665,112.085 182.665,135.918 142.5,159.5C 102.369,135.866 62.3693,112.032 22.5,88C 62.0622,64.7257 101.396,41.2257 140.5,17.5 Z"/></g>
<g><path style="opacity:1" fill="#c1c0ff" d="M 159.5,56.5 C 158.51,50.3554 158.177,44.0221 158.5,37.5C 147.833,37.5 137.167,37.5 126.5,37.5C 126.824,44.3543 126.491,51.021 125.5,57.5C 125.5,50.5 125.5,43.5 125.5,36.5C 136.833,36.5 148.167,36.5 159.5,36.5C 159.5,43.1667 159.5,49.8333 159.5,56.5 Z"/></g>
<g><path style="opacity:1" fill="#ece9ff" d="M 159.5,56.5 C 170.169,52.2264 181.169,51.393 192.5,54C 202.09,57.0835 207.424,63.5835 208.5,73.5C 201.468,73.8303 194.468,73.497 187.5,72.5C 183.922,67.4325 179.255,66.2658 173.5,69C 170.833,71 170.833,73 173.5,75C 182.396,78.2484 191.396,81.2484 200.5,84C 210.929,91.8931 213.096,101.726 207,113.5C 199.684,121.056 190.684,124.722 180,124.5C 172.702,124.49 165.869,122.824 159.5,119.5C 158.51,125.645 158.177,131.978 158.5,138.5C 147.833,138.5 137.167,138.5 126.5,138.5C 126.833,131.738 126.5,125.738 125.5,120.5C 112.402,125.987 99.402,125.82 86.5,120C 80.0666,115.576 76.0666,109.576 74.5,102C 81.856,101.169 89.1893,101.335 96.5,102.5C 100.427,108.553 105.76,110.053 112.5,107C 114.648,104.925 114.982,102.592 113.5,100C 105.239,97.1354 96.9059,94.4687 88.5,92C 75.9077,84.7604 73.0744,74.5938 80,61.5C 84.3906,57.2219 89.5573,54.3886 95.5,53C 106.089,51.2412 116.089,52.7412 125.5,57.5C 126.491,51.021 126.824,44.3543 126.5,37.5C 137.167,37.5 147.833,37.5 158.5,37.5C 158.177,44.0221 158.51,50.3554 159.5,56.5 Z"/></g>
<g><path style="opacity:1" fill="#5649ff" d="M 80.5,66.5 C 78.8661,72.7617 79.5328,78.7617 82.5,84.5C 80.5905,83.0254 79.4238,81.0254 79,78.5C 78.3333,75.1667 78.3333,71.8333 79,68.5C 79.2784,67.5842 79.7784,66.9175 80.5,66.5 Z"/></g>
<g><path style="opacity:1" fill="#5e4cff" d="M 169.5,69.5 C 169.372,71.6547 169.872,73.6547 171,75.5C 174.181,77.3382 177.347,79.0048 180.5,80.5C 176.895,80.2014 173.561,79.0347 170.5,77C 168.502,74.5608 168.169,72.0608 169.5,69.5 Z"/></g>
<g><path style="opacity:1" fill="#5146ff" d="M 98.5,77.5 C 101.443,77.9802 104.11,78.9802 106.5,80.5C 103.351,80.5848 100.684,79.5848 98.5,77.5 Z"/></g>
<g><path style="opacity:1" fill="#4b3cff" d="M 154.5,60.5 C 154.5,60.8333 154.5,61.1667 154.5,61.5C 149.992,68.7522 149.326,76.4189 152.5,84.5C 151.034,83.653 150.2,82.3197 150,80.5C 148.939,74.2757 149.606,68.2757 152,62.5C 152.708,61.6195 153.542,60.9528 154.5,60.5 Z"/></g>
<g><path style="opacity:1" fill="#4c41ff" d="M 95.5,74.5 C 96.5,74.8333 97.1667,75.5 97.5,76.5C 96.1667,76.5 95.5,75.8333 95.5,74.5 Z"/></g>
<g><path style="opacity:1" fill="#3526ff" d="M 130.5,61.5 C 133.915,65.065 135.581,69.3983 135.5,74.5C 133.833,74.5 132.167,74.5 130.5,74.5C 130.5,78.5 130.5,82.5 130.5,86.5C 129.515,82.3656 129.182,78.0323 129.5,73.5C 130.833,73.5 132.167,73.5 133.5,73.5C 133.674,69.1888 132.674,65.1888 130.5,61.5 Z"/></g>
<g><path style="opacity:1" fill="#271bff" d="M 113.5,67.5 C 114.627,68.1217 115.627,68.955 116.5,70C 121.155,70.4992 125.821,70.6658 130.5,70.5C 130.5,69.5 130.5,68.5 130.5,67.5C 131.249,68.531 131.915,69.6976 132.5,71C 126.833,71.6667 121.167,71.6667 115.5,71C 114.177,70.1841 113.511,69.0174 113.5,67.5 Z"/></g>
<g><path style="opacity:1" fill="#2418ff" d="M 187.5,67.5 C 192.646,70.2617 198.313,71.2617 204.5,70.5C 204.5,69.5 204.5,68.5 204.5,67.5C 205.249,68.531 205.915,69.6976 206.5,71C 200.472,71.8303 194.472,71.6636 188.5,70.5C 187.873,69.5832 187.539,68.5832 187.5,67.5 Z"/></g>
<g><path style="opacity:1" fill="#110bff" d="M 101.5,67.5 C 106.748,66.4644 110.748,68.1311 113.5,72.5C 117.445,73.4909 121.445,73.8242 125.5,73.5C 125.82,76.8984 125.487,80.2317 124.5,83.5C 116.55,80.8109 108.55,78.3109 100.5,76C 96.4458,72.6598 96.7792,69.8265 101.5,67.5 Z"/></g>
<g><path style="opacity:1" fill="#5341ff" d="M 82.5,63.5 C 82.573,65.0269 81.9063,66.0269 80.5,66.5C 80.427,64.9731 81.0937,63.9731 82.5,63.5 Z"/></g>
<g><path style="opacity:1" fill="#6358ff" d="M 127.5,62.5 C 129.25,63.6594 130.25,65.326 130.5,67.5C 128.75,66.3406 127.75,64.674 127.5,62.5 Z"/></g>
<g><path style="opacity:1" fill="#7763ff" d="M 200.5,61.5 C 202.822,62.8021 204.155,64.8021 204.5,67.5C 202.674,65.8525 201.34,63.8525 200.5,61.5 Z"/></g>
<g><path style="opacity:1" fill="#5c4eff" d="M 160.5,59.5 C 158.471,61.8585 156.471,64.1918 154.5,66.5C 155.092,62.9111 157.092,60.5778 160.5,59.5 Z"/></g>
<g><path style="opacity:1" fill="#5249ff" d="M 86.5,59.5 C 85.5,61.1667 84.1667,62.5 82.5,63.5C 82.8333,61.1667 84.1667,59.8333 86.5,59.5 Z"/></g>
<g><path style="opacity:1" fill="#5241ff" d="M 122.5,58.5 C 124.749,59.0798 126.415,60.4131 127.5,62.5C 125.251,61.9202 123.585,60.5869 122.5,58.5 Z"/></g>
<g><path style="opacity:1" fill="#4640ff" d="M 196.5,58.5 C 198.404,58.7376 199.738,59.7376 200.5,61.5C 198.596,61.2624 197.262,60.2624 196.5,58.5 Z"/></g>
<g><path style="opacity:1" fill="#4b42ff" d="M 89.5,57.5 C 89.0269,58.9063 88.0269,59.573 86.5,59.5C 86.9731,58.0937 87.9731,57.427 89.5,57.5 Z"/></g>
<g><path style="opacity:1" fill="#fcfcff" d="M 191.5,56.5 C 192.93,57.5375 194.597,58.2041 196.5,58.5C 197.262,60.2624 198.596,61.2624 200.5,61.5C 201.34,63.8525 202.674,65.8525 204.5,67.5C 204.5,68.5 204.5,69.5 204.5,70.5C 198.313,71.2617 192.646,70.2617 187.5,67.5C 186.713,65.8958 185.38,65.2291 183.5,65.5C 180.36,64.3592 177.027,64.1925 173.5,65C 171.249,65.7475 169.916,67.2475 169.5,69.5C 168.169,72.0608 168.502,74.5608 170.5,77C 173.561,79.0347 176.895,80.2014 180.5,80.5C 182.838,82.0395 185.505,82.7062 188.5,82.5C 191.518,84.3999 194.851,85.7333 198.5,86.5C 198.842,87.3382 199.508,87.6716 200.5,87.5C 201.793,89.2959 203.293,90.9625 205,92.5C 205.698,95.0037 206.531,97.337 207.5,99.5C 206.908,102.127 206.575,104.794 206.5,107.5C 205.833,107.5 205.5,107.833 205.5,108.5C 203.36,113.729 199.693,117.395 194.5,119.5C 189.499,120.084 184.499,120.75 179.5,121.5C 175.173,120.723 170.84,120.056 166.5,119.5C 163.869,117.847 161.203,116.181 158.5,114.5C 158.144,112.81 157.144,111.81 155.5,111.5C 154.545,109.254 153.878,106.921 153.5,104.5C 158.5,104.5 163.5,104.5 168.5,104.5C 168.328,105.492 168.662,106.158 169.5,106.5C 170.457,109.168 172.457,110.668 175.5,111C 179.477,111.879 183.144,111.379 186.5,109.5C 191.278,108.593 192.944,105.927 191.5,101.5C 191.573,99.9731 190.906,98.9731 189.5,98.5C 186.232,95.2935 182.232,93.6268 177.5,93.5C 174.417,91.9754 171.084,90.9754 167.5,90.5C 166.22,89.0687 164.553,88.4021 162.5,88.5C 162.158,87.6618 161.492,87.3284 160.5,87.5C 159.738,85.7376 158.404,84.7376 156.5,84.5C 153.436,78.7781 152.769,72.7781 154.5,66.5C 156.471,64.1918 158.471,61.8585 160.5,59.5C 170.469,55.421 180.803,54.421 191.5,56.5 Z"/></g>
<g><path style="opacity:1" fill="#4437ff" d="M 183.5,65.5 C 178.085,64.6039 173.418,65.9372 169.5,69.5C 169.916,67.2475 171.249,65.7475 173.5,65C 177.027,64.1925 180.36,64.3592 183.5,65.5 Z"/></g>
<g><path style="opacity:1" fill="#413bff" d="M 183.5,65.5 C 185.38,65.2291 186.713,65.8958 187.5,67.5C 185.847,67.3404 184.514,66.6737 183.5,65.5 Z"/></g>
<g><path style="opacity:1" fill="#fcfcff" d="M 117.5,56.5 C 118.93,57.5375 120.597,58.2041 122.5,58.5C 123.585,60.5869 125.251,61.9202 127.5,62.5C 127.75,64.674 128.75,66.3406 130.5,67.5C 130.5,68.5 130.5,69.5 130.5,70.5C 125.821,70.6658 121.155,70.4992 116.5,70C 115.627,68.955 114.627,68.1217 113.5,67.5C 112.713,65.8958 111.38,65.2291 109.5,65.5C 106.36,64.3592 103.027,64.1925 99.5,65C 97.249,65.7475 95.9156,67.2475 95.5,69.5C 94.1667,71.1667 94.1667,72.8333 95.5,74.5C 95.5,75.8333 96.1667,76.5 97.5,76.5C 97.5,77.1667 97.8333,77.5 98.5,77.5C 100.684,79.5848 103.351,80.5848 106.5,80.5C 111.617,82.537 116.95,84.2036 122.5,85.5C 123.514,86.6737 124.847,87.3404 126.5,87.5C 127.833,89.5 129.5,91.1667 131.5,92.5C 132.329,97.453 132.663,102.453 132.5,107.5C 130.929,109.635 129.596,111.968 128.5,114.5C 125.797,116.181 123.131,117.847 120.5,119.5C 115.499,120.084 110.499,120.75 105.5,121.5C 101.173,120.723 96.8396,120.056 92.5,119.5C 90.8185,117.992 88.8185,116.992 86.5,116.5C 85.1667,114.5 83.5,112.833 81.5,111.5C 81.0388,109.45 80.3721,107.45 79.5,105.5C 84.456,104.506 89.456,104.173 94.5,104.5C 94.3284,105.492 94.6618,106.158 95.5,106.5C 96.4567,109.168 98.4567,110.668 101.5,111C 105.477,111.879 109.144,111.379 112.5,109.5C 117.278,108.593 118.944,105.927 117.5,101.5C 117.141,99.629 116.141,98.129 114.5,97C 111.107,94.9243 107.44,93.7576 103.5,93.5C 100.381,92.1301 97.0477,91.1301 93.5,90.5C 91.351,89.2638 89.0177,88.2638 86.5,87.5C 85.7377,85.7376 84.4044,84.7376 82.5,84.5C 79.5328,78.7617 78.8661,72.7617 80.5,66.5C 81.9063,66.0269 82.573,65.0269 82.5,63.5C 84.1667,62.5 85.5,61.1667 86.5,59.5C 88.0269,59.573 89.0269,58.9063 89.5,57.5C 90.4916,57.6716 91.1583,57.3382 91.5,56.5C 100.171,55.2053 108.838,55.2053 117.5,56.5 Z"/></g>
<g><path style="opacity:1" fill="#433cff" d="M 109.5,65.5 C 111.38,65.2291 112.713,65.8958 113.5,67.5C 111.847,67.3404 110.514,66.6737 109.5,65.5 Z"/></g>
<g><path style="opacity:1" fill="#483bff" d="M 109.5,65.5 C 104.085,64.6039 99.4183,65.9372 95.5,69.5C 95.9156,67.2475 97.249,65.7475 99.5,65C 103.027,64.1925 106.36,64.3592 109.5,65.5 Z"/></g>
<g><path style="opacity:1" fill="#4f45ff" d="M 191.5,56.5 C 180.803,54.421 170.469,55.421 160.5,59.5C 162.649,57.2542 165.316,55.7542 168.5,55C 175.167,54.3333 181.833,54.3333 188.5,55C 189.737,55.2321 190.737,55.7321 191.5,56.5 Z"/></g>
<g><path style="opacity:1" fill="#473fff" d="M 117.5,56.5 C 108.838,55.2053 100.171,55.2053 91.5,56.5C 92.2625,55.7321 93.2625,55.2321 94.5,55C 101.167,54.3333 107.833,54.3333 114.5,55C 115.737,55.2321 116.737,55.7321 117.5,56.5 Z"/></g>
<g><path style="opacity:1" fill="#9a97ff" d="M 154.5,41.5 C 155.167,47.5 155.833,53.5 156.5,59.5C 156.167,60.5 155.5,61.1667 154.5,61.5C 154.5,61.1667 154.5,60.8333 154.5,60.5C 154.5,54.1667 154.5,47.8333 154.5,41.5 Z"/></g>
<g><path style="opacity:1" fill="#fcfcff" d="M 154.5,41.5 C 154.5,47.8333 154.5,54.1667 154.5,60.5C 153.542,60.9528 152.708,61.6195 152,62.5C 149.606,68.2757 148.939,74.2757 150,80.5C 150.2,82.3197 151.034,83.653 152.5,84.5C 152.733,86.0618 153.4,87.3951 154.5,88.5C 154.5,92.1667 154.5,95.8333 154.5,99.5C 152.167,99.5 149.833,99.5 147.5,99.5C 147.216,101.415 147.549,103.081 148.5,104.5C 148.935,107.157 149.935,109.491 151.5,111.5C 151.427,113.027 152.094,114.027 153.5,114.5C 154.46,121.078 154.793,127.745 154.5,134.5C 146.684,135.492 138.684,135.826 130.5,135.5C 129.953,128.26 130.62,121.26 132.5,114.5C 134.539,113.089 135.539,111.089 135.5,108.5C 137.569,104.956 137.902,101.29 136.5,97.5C 136.741,95.1016 136.074,93.1016 134.5,91.5C 134.573,89.9731 133.906,88.9731 132.5,88.5C 132.5,87.1667 131.833,86.5 130.5,86.5C 130.5,82.5 130.5,78.5 130.5,74.5C 132.167,74.5 133.833,74.5 135.5,74.5C 135.581,69.3983 133.915,65.065 130.5,61.5C 130.5,54.8333 130.5,48.1667 130.5,41.5C 138.5,41.5 146.5,41.5 154.5,41.5 Z"/></g>
<g><path style="opacity:1" fill="#655dff" d="M 156.5,59.5 C 155.833,53.5 155.167,47.5 154.5,41.5C 146.5,41.5 138.5,41.5 130.5,41.5C 130.5,48.1667 130.5,54.8333 130.5,61.5C 129.508,54.3524 129.175,47.0191 129.5,39.5C 138.5,39.5 147.5,39.5 156.5,39.5C 156.5,46.1667 156.5,52.8333 156.5,59.5 Z"/></g>
<g><path style="opacity:1" fill="#5b4eff" d="M 154.5,66.5 C 152.769,72.7781 153.436,78.7781 156.5,84.5C 154.864,83.2511 153.697,81.5844 153,79.5C 152.333,75.8333 152.333,72.1667 153,68.5C 153.278,67.5842 153.778,66.9175 154.5,66.5 Z"/></g>
<g><path style="opacity:1" fill="#6255ff" d="M 180.5,80.5 C 183.495,80.2938 186.162,80.9605 188.5,82.5C 185.505,82.7062 182.838,82.0395 180.5,80.5 Z"/></g>
<g><path style="opacity:1" fill="#584dff" d="M 106.5,80.5 C 112.409,80.6385 117.743,82.3052 122.5,85.5C 116.95,84.2036 111.617,82.537 106.5,80.5 Z"/></g>
<g><path style="opacity:1" fill="#5348ff" d="M 188.5,82.5 C 192.332,82.8816 195.665,84.2149 198.5,86.5C 194.851,85.7333 191.518,84.3999 188.5,82.5 Z"/></g>
<g><path style="opacity:1" fill="#5f52ff" d="M 82.5,84.5 C 84.4044,84.7376 85.7377,85.7376 86.5,87.5C 84.5956,87.2624 83.2623,86.2624 82.5,84.5 Z"/></g>
<g><path style="opacity:1" fill="#3931ff" d="M 156.5,84.5 C 158.404,84.7376 159.738,85.7376 160.5,87.5C 158.596,87.2624 157.262,86.2624 156.5,84.5 Z"/></g>
<g><path style="opacity:1" fill="#4940ff" d="M 132.5,88.5 C 133.906,88.9731 134.573,89.9731 134.5,91.5C 133.094,91.0269 132.427,90.0269 132.5,88.5 Z"/></g>
<g><path style="opacity:1" fill="#6f5fff" d="M 162.5,88.5 C 164.553,88.4021 166.22,89.0687 167.5,90.5C 165.447,90.5979 163.78,89.9313 162.5,88.5 Z"/></g>
<g><path style="opacity:1" fill="#5853ff" d="M 126.5,87.5 C 129.167,88.1667 130.833,89.8333 131.5,92.5C 129.5,91.1667 127.833,89.5 126.5,87.5 Z"/></g>
<g><path style="opacity:1" fill="#1c12ff" d="M 159.5,90.5 C 168.717,93.972 178.051,97.1387 187.5,100C 189.138,106.047 186.638,108.881 180,108.5C 175.569,108.374 172.402,106.374 170.5,102.5C 166.893,101.511 163.226,101.177 159.5,101.5C 159.5,97.8333 159.5,94.1667 159.5,90.5 Z"/></g>
<g><path style="opacity:1" fill="#4e44ff" d="M 200.5,87.5 C 205.789,89.6373 208.122,93.6373 207.5,99.5C 206.531,97.337 205.698,95.0037 205,92.5C 203.293,90.9625 201.793,89.2959 200.5,87.5 Z"/></g>
<g><path style="opacity:1" fill="#5246ff" d="M 93.5,90.5 C 97.0477,91.1301 100.381,92.1301 103.5,93.5C 99.7144,93.68 96.381,92.68 93.5,90.5 Z"/></g>
<g><path style="opacity:1" fill="#5f51ff" d="M 167.5,90.5 C 171.084,90.9754 174.417,91.9754 177.5,93.5C 173.714,93.68 170.381,92.68 167.5,90.5 Z"/></g>
<g><path style="opacity:1" fill="#6658ff" d="M 103.5,93.5 C 107.44,93.7576 111.107,94.9243 114.5,97C 116.141,98.129 117.141,99.629 117.5,101.5C 113.328,97.8945 108.661,95.2278 103.5,93.5 Z"/></g>
<g><path style="opacity:1" fill="#6556ff" d="M 177.5,93.5 C 182.232,93.6268 186.232,95.2935 189.5,98.5C 185.261,97.2042 181.261,95.5375 177.5,93.5 Z"/></g>
<g><path style="opacity:1" fill="#423dff" d="M 131.5,92.5 C 132.222,92.9175 132.722,93.5842 133,94.5C 133.814,99.0204 133.647,103.354 132.5,107.5C 132.663,102.453 132.329,97.453 131.5,92.5 Z"/></g>
<g><path style="opacity:1" fill="#3b38ff" d="M 136.5,97.5 C 137.902,101.29 137.569,104.956 135.5,108.5C 136.114,104.865 136.448,101.198 136.5,97.5 Z"/></g>
<g><path style="opacity:1" fill="#c0beff" d="M 154.5,88.5 C 155.483,92.2984 155.817,96.2984 155.5,100.5C 153.167,100.5 150.833,100.5 148.5,100.5C 148.5,101.833 148.5,103.167 148.5,104.5C 147.549,103.081 147.216,101.415 147.5,99.5C 149.833,99.5 152.167,99.5 154.5,99.5C 154.5,95.8333 154.5,92.1667 154.5,88.5 Z"/></g>
<g><path style="opacity:1" fill="#6449ff" d="M 189.5,98.5 C 190.906,98.9731 191.573,99.9731 191.5,101.5C 190.094,101.027 189.427,100.027 189.5,98.5 Z"/></g>
<g><path style="opacity:1" fill="#2a1dff" d="M 94.5,104.5 C 89.456,104.173 84.456,104.506 79.5,105.5C 80.3721,107.45 81.0388,109.45 81.5,111.5C 79.0181,109.497 78.0181,106.831 78.5,103.5C 84.0262,103.179 89.3595,103.512 94.5,104.5 Z"/></g>
<g><path style="opacity:1" fill="#5e51ff" d="M 117.5,101.5 C 118.944,105.927 117.278,108.593 112.5,109.5C 115.626,107.84 117.293,105.174 117.5,101.5 Z"/></g>
<g><path style="opacity:1" fill="#3022ff" d="M 168.5,104.5 C 163.5,104.5 158.5,104.5 153.5,104.5C 153.878,106.921 154.545,109.254 155.5,111.5C 153.018,109.497 152.018,106.831 152.5,103.5C 158.026,103.179 163.36,103.512 168.5,104.5 Z"/></g>
<g><path style="opacity:1" fill="#826fff" d="M 207.5,99.5 C 208.917,102.34 208.584,105.007 206.5,107.5C 206.575,104.794 206.908,102.127 207.5,99.5 Z"/></g>
<g><path style="opacity:1" fill="#4a3fff" d="M 191.5,101.5 C 192.944,105.927 191.278,108.593 186.5,109.5C 189.666,107.846 191.333,105.179 191.5,101.5 Z"/></g>
<g><path style="opacity:1" fill="#463dff" d="M 152.5,84.5 C 153.794,85.2899 154.961,86.2899 156,87.5C 156.499,92.1548 156.666,96.8215 156.5,101.5C 154.167,101.5 151.833,101.5 149.5,101.5C 149.959,104.877 150.626,108.211 151.5,111.5C 149.935,109.491 148.935,107.157 148.5,104.5C 148.5,103.167 148.5,101.833 148.5,100.5C 150.833,100.5 153.167,100.5 155.5,100.5C 155.817,96.2984 155.483,92.2984 154.5,88.5C 153.4,87.3951 152.733,86.0618 152.5,84.5 Z"/></g>
<g><path style="opacity:1" fill="#6f67ff" d="M 95.5,106.5 C 96.6828,107.504 98.0161,108.338 99.5,109C 103.821,109.499 108.154,109.666 112.5,109.5C 109.144,111.379 105.477,111.879 101.5,111C 98.4567,110.668 96.4567,109.168 95.5,106.5 Z"/></g>
<g><path style="opacity:1" fill="#736cff" d="M 169.5,106.5 C 174.718,109.273 180.384,110.273 186.5,109.5C 183.144,111.379 179.477,111.879 175.5,111C 172.457,110.668 170.457,109.168 169.5,106.5 Z"/></g>
<g><path style="opacity:1" fill="#5e4fff" d="M 135.5,108.5 C 135.539,111.089 134.539,113.089 132.5,114.5C 132.992,112.181 133.992,110.181 135.5,108.5 Z"/></g>
<g><path style="opacity:1" fill="#6659ff" d="M 132.5,107.5 C 132.416,110.682 131.083,113.015 128.5,114.5C 129.596,111.968 130.929,109.635 132.5,107.5 Z"/></g>
<g><path style="opacity:1" fill="#403aff" d="M 151.5,111.5 C 152.906,111.973 153.573,112.973 153.5,114.5C 152.094,114.027 151.427,113.027 151.5,111.5 Z"/></g>
<g><path style="opacity:1" fill="#6a56ff" d="M 81.5,111.5 C 83.5,112.833 85.1667,114.5 86.5,116.5C 83.8333,115.833 82.1667,114.167 81.5,111.5 Z"/></g>
<g><path style="opacity:1" fill="#6955ff" d="M 155.5,111.5 C 157.144,111.81 158.144,112.81 158.5,114.5C 156.856,114.19 155.856,113.19 155.5,111.5 Z"/></g>
<g><path style="opacity:1" fill="#4e47ff" d="M 86.5,116.5 C 88.8185,116.992 90.8185,117.992 92.5,119.5C 89.911,119.539 87.911,118.539 86.5,116.5 Z"/></g>
<g><path style="opacity:1" fill="#4f46ff" d="M 158.5,114.5 C 161.203,116.181 163.869,117.847 166.5,119.5C 162.791,119.321 160.124,117.654 158.5,114.5 Z"/></g>
<g><path style="opacity:1" fill="#6659ff" d="M 128.5,114.5 C 126.876,117.654 124.209,119.321 120.5,119.5C 123.131,117.847 125.797,116.181 128.5,114.5 Z"/></g>
<g><path style="opacity:1" fill="#9a97ff" d="M 153.5,114.5 C 154.833,114.5 155.5,115.167 155.5,116.5C 155.823,122.69 155.49,128.69 154.5,134.5C 154.793,127.745 154.46,121.078 153.5,114.5 Z"/></g>
<g><path style="opacity:1" fill="#6f60ff" d="M 205.5,108.5 C 205.784,112.711 203.784,115.878 199.5,118C 197.975,119.009 196.308,119.509 194.5,119.5C 199.693,117.395 203.36,113.729 205.5,108.5 Z"/></g>
<g><path style="opacity:1" fill="#6356ff" d="M 166.5,119.5 C 170.84,120.056 175.173,120.723 179.5,121.5C 184.499,120.75 189.499,120.084 194.5,119.5C 194.082,120.222 193.416,120.722 192.5,121C 183.52,123.381 174.853,122.881 166.5,119.5 Z"/></g>
<g><path style="opacity:1" fill="#7467ff" d="M 92.5,119.5 C 96.8396,120.056 101.173,120.723 105.5,121.5C 110.499,120.75 115.499,120.084 120.5,119.5C 120.082,120.222 119.416,120.722 118.5,121C 110.5,123 102.5,123 94.5,121C 93.5842,120.722 92.9175,120.222 92.5,119.5 Z"/></g>
<g><path style="opacity:1" fill="#423dff" d="M 132.5,114.5 C 130.62,121.26 129.953,128.26 130.5,135.5C 138.684,135.826 146.684,135.492 154.5,134.5C 155.49,128.69 155.823,122.69 155.5,116.5C 156.491,122.979 156.824,129.646 156.5,136.5C 147.5,136.5 138.5,136.5 129.5,136.5C 129.334,129.825 129.5,123.158 130,116.5C 130.708,115.619 131.542,114.953 132.5,114.5 Z"/></g>
<g><path style="opacity:1" fill="#cdccff" d="M 159.5,119.5 C 159.5,126.167 159.5,132.833 159.5,139.5C 148.167,139.5 136.833,139.5 125.5,139.5C 125.5,133.167 125.5,126.833 125.5,120.5C 126.5,125.738 126.833,131.738 126.5,138.5C 137.167,138.5 147.833,138.5 158.5,138.5C 158.177,131.978 158.51,125.645 159.5,119.5 Z"/></g>
</svg>


