<svg version="1.1" id="Livello_1" xmlns="http://www.w3.org/2000/svg" xmlns:xlink="http://www.w3.org/1999/xlink" x="0px" y="0px"
	 viewBox="0 0 374 164" style="enable-background:new 0 0 374 164;" xml:space="preserve">
<g>
	<path style="fill:#265EAB;" d="M149.608,114.596H11.226c-1.067,6.981-2.272,13.888-3.134,20.838
		c-0.619,4.995-0.78,10.047-1.145,15.074h142.661V114.596z"/>
	<path style="fill:#265EAB;" d="M149.608,5.926h-2.851c-0.679,0.193-8.256,0.803-11.341,1.141c-4.377,0.479-8.73,1.173-13.093,1.774
		c0.015,0.078,0.03,0.157,0.046,0.235h27.239V5.926z"/>
	<path style="fill:#265EAB;" d="M149.608,88.391c-38.834,0.049-79.536,0.049-118.344,0.058c-3.36,0.001-6.72,0-10.562,0
		c-2.838,7.617-5.699,15.296-8.647,23.208c1.064,0.07,1.605,0.136,2.146,0.136c44.496,0.015,90.882,0.016,135.407,0.069V88.391z"/>
	<path style="fill:#265EAB;" d="M149.608,68.263c-0.56-0.091-1.151-0.131-1.736-0.13c-36.342,0.088-72.685,0.063-109.028,0.067
		c-1.601,0-3.208-0.053-4.799,0.08c-0.619,0.052-1.458,0.387-1.761,0.869c-3.351,5.322-6.616,10.698-10.221,16.575
		c1.994,0,3.112,0,4.229,0c40.466,0.002,82.825-0.012,123.316,0.054V68.263z"/>
	<path style="fill:#265EAB;" d="M149.608,52.362c-33.501,0.039-68.85,0.014-102.316,0.037c-0.728,0-1.71,0.186-2.144,0.672
		c-3.491,3.902-6.879,7.898-10.76,12.399c2.046,0,3.288,0,4.531,0c36.257,0.006,74.399-0.003,110.689,0.065V52.362z"/>
	<path style="fill:#265EAB;" d="M149.608,40.154c-0.961-0.068-2.209-0.054-3.852-0.057c-28.726-0.044-57.452-0.082-86.178-0.115
		c-0.383,0-0.888-0.041-1.13,0.172c-3.369,2.965-6.703,5.971-10.537,9.408h101.698V40.154z"/>
	<path style="fill:#265EAB;" d="M149.608,30.214c-24.99-0.015-51.792-0.024-76.729-0.008c-0.682,0-1.49,0.098-2.023,0.466
		c-2.813,1.937-5.557,3.975-8.325,5.977c0.075,0.179,0.15,0.358,0.225,0.537c0.464,0,0.928,0,1.392,0
		c22.893-0.011,45.786-0.026,68.68-0.032c4.96-0.001,11.615-0.031,16.781,0.056V30.214z"/>
	<path style="fill:#265EAB;" d="M149.608,23.012c-0.654-0.066-1.393-0.086-2.214-0.086c-19.774-0.001-39.549,0.124-59.319-0.103
		c-2.106-0.024-3.82-0.171-5.099,0.078c-1.376,0.268-4.156,2.787-6.99,4.501h73.623V23.012z"/>
	<path style="fill:#265EAB;" d="M149.608,17.347c-0.552-0.074-1.035-0.116-1.292-0.117c-16.573-0.05-34.115-0.55-50.685-0.325
		c-0.65,0.009-1.247,0.051-1.958,0.087c-1.099,0.055-5.48,2.249-7.777,3.179c0.062,0.236,25.929,0,38.07,0.004
		c7.246,0.003,16.232-0.016,23.642,0.045V17.347z"/>
	<path style="fill:#265EAB;" d="M149.608,11.855c-11.997-0.011-25.76-0.136-37.678,0.076c-2.732,0.049-5.442,1.325-8.162,2.037
		l0.134,0.405h45.706V11.855z"/>
</g>
<path style="fill:#265EAB;" d="M166.358,128.283l5.88-0.691c0.314,3.483,1.025,6.195,2.136,8.137
	c1.11,1.943,2.698,3.504,4.763,4.684c2.064,1.18,4.39,1.77,6.977,1.77c3.71,0,6.591-0.997,8.643-2.993
	c2.051-1.996,3.077-4.588,3.077-7.776c0-1.866-0.373-3.496-1.117-4.889c-0.745-1.393-1.869-2.535-3.371-3.425
	c-1.503-0.89-4.749-2.149-9.741-3.776c-4.443-1.452-7.604-2.913-9.486-4.38c-1.881-1.468-3.345-3.331-4.39-5.591
	c-1.046-2.259-1.568-4.813-1.568-7.662c0-5.122,1.502-9.31,4.508-12.562c3.004-3.252,7.056-4.878,12.151-4.878
	c3.502,0,6.566,0.763,9.192,2.288c2.626,1.526,4.665,3.713,6.115,6.562c1.45,2.849,2.228,6.203,2.332,10.059l-5.997,0.604
	c-0.313-4.115-1.431-7.166-3.351-9.152c-1.921-1.986-4.619-2.979-8.094-2.979c-3.528,0-6.22,0.871-8.075,2.612
	c-1.856,1.741-2.783,3.992-2.783,6.755c0,2.562,0.68,4.547,2.039,5.957c1.359,1.41,4.415,2.838,9.169,4.283
	c4.648,1.417,7.914,2.646,9.794,3.686c2.873,1.619,5.043,3.744,6.509,6.374c1.466,2.631,2.2,5.771,2.2,9.423
	c0,3.622-0.771,6.921-2.313,9.897c-1.542,2.975-3.639,5.239-6.291,6.792c-2.653,1.552-5.847,2.328-9.584,2.328
	c-5.828,0-10.472-1.928-13.935-5.785C168.285,140.097,166.489,134.873,166.358,128.283z"/>
<path style="fill:#265EAB;" d="M207.631,148.672l19.196-62.485h7.041l20.384,62.485h-7.536l-5.79-18.924h-20.94l-5.41,18.924
	H207.631z M221.912,123.014h16.955l-5.173-17.305c-1.6-5.313-2.773-9.632-3.518-12.957c-0.643,4.006-1.552,7.985-2.727,11.934
	L221.912,123.014z"/>
<path style="fill:#265EAB;" d="M263.306,148.672V93.561h-15.94v-7.374h38.362v7.374h-16.023v55.111H263.306z"/>
<path style="fill:#265EAB;" d="M281.003,148.672l18.682-62.485h6.853l19.837,62.485h-7.334l-5.634-18.924h-20.379l-5.266,18.924
	H281.003z M294.9,123.014h16.501l-5.035-17.305c-1.557-5.313-2.699-9.632-3.424-12.957c-0.625,4.006-1.51,7.985-2.653,11.934
	L294.9,123.014z"/>
<path style="fill:#265EAB;" d="M331.89,148.672V86.188h16.305c3.839,0,6.671,0.398,8.495,1.193c2.496,1.081,4.487,3.083,5.975,6.01
	c1.487,2.927,2.232,6.521,2.232,10.784c0,5.626-1.212,10.215-3.636,13.767c-2.424,3.552-6.611,5.328-12.562,5.328h-11.086v25.403
	H331.89z M337.613,115.896h11.193c3.528,0,6.107-0.944,7.739-2.834c1.632-1.889,2.447-4.738,2.447-8.546
	c0-2.472-0.402-4.588-1.205-6.351c-0.804-1.762-1.777-2.969-2.916-3.623c-1.14-0.653-3.197-0.98-6.173-0.98h-11.086V115.896z"/>
</svg>
