<svg xmlns="http://www.w3.org/2000/svg" xml:space="preserve" style="enable-background:new 0 0 750 600" viewBox="0 0 750 600"><path style="fill:#f3a51e;fill-opacity:1" d="m333.435 91.293 44.007 57.122 46.351-57.122 8.971 71.085 64.124-35.543-12.573 68.547 62.866-13.964-31.433 64.738 62.867 11.425-55.323 38.716 55.323 42.524-70.411 16.679 37.72 54.405-66.638-7.616 11.316 63.469-55.323-33.004-11.486 66.007-46.351-55.852-38.977 55.852-13.831-66.007-64.124 35.543 16.346-66.008-75.44 8.886 42.749-55.675-66.638-15.41 52.808-43.793-59.095-41.255 72.925-17.771-41.492-59.661 74.183 12.694-23.89-67.277 70.411 33.004z"/><path d="m336.676 507.55-14.526-69.328-67.057 37.168 17.072-68.938-78.737 9.274 44.523-57.985-68.267-15.786 54.759-45.412-61.747-43.107 75.566-18.415-43.384-62.382 76.587 13.105-24.708-69.582 73.843 34.612 10.6-68.226 46.315 60.118 48.759-60.089 9.356 74.122 66.115-36.647-12.962 70.664 64.831-14.399-32.605 67.15 66.687 12.119-58.364 40.844 57.427 44.142-72.637 17.207 39.228 56.582-69.723-7.969 11.844 66.433-57.581-34.35-11.918 68.493-48.285-58.184-41.011 58.766zm40.523-70.517 44.416 53.521 11.053-63.522 53.064 31.656-10.788-60.504 63.555 7.264-36.211-52.231 68.183-16.152-53.217-40.906 52.28-36.587-59.045-10.73 30.262-62.325-60.902 13.527 12.185-66.428-62.132 34.438-8.588-68.048-43.942 54.154-41.698-54.125-9.517 61.25-66.979-31.395 23.071 64.972-71.778-12.282 39.599 56.94-70.284 17.127 56.442 39.402-50.856 42.176 65.009 15.032-40.976 53.367 72.144-8.497-15.62 63.076 61.192-33.917 13.134 62.686 36.944-52.939z" style="fill:#f7ee85"/><ellipse ry="125.668" rx="124.476" cy="296.297" cx="377.442" style="fill:#ffff62;fill-opacity:.57839721"/><ellipse ry="119.638" rx="118.503" cy="296.614" cx="377.756" style="fill:#fbca0c;fill-opacity:1"/><ellipse ry="76.48" rx="91.785" cy="262.341" cx="379.328" style="fill:#fbcd12;fill-opacity:.74912894"/><g><path d="M309.828 237.995s-26.848-43.445-88.182-43.445c-120.732 0-133.443 103.024-133.443 103.024s-74.46 8.414-74.508 86.565c-.033 53.332 27.732 76.84 46.065 87.537 7.897 4.608 15.548 9.874 47.381 9.874h292.185c43.433 0 52.026-8.428 59.227-13.165 16.498-10.855 40.143-34.822 40.142-86.165-.001-77.983-82.595-85.779-82.595-85.779s-.187-28.142-33.226-50.547c-36.59-24.813-73.046-7.899-73.046-7.899z" style="fill-rule:evenodd;clip-rule:evenodd;fill:#ccc"/><linearGradient y2="219.928" x2="256.364" y1="467.749" x1="256.364" gradientUnits="userSpaceOnUse" id="a"><stop style="stop-color:#f1f1f2" offset="0"/><stop style="stop-color:#f0f1f2" offset=".005"/><stop style="stop-color:#e6eff4" offset=".087"/><stop style="stop-color:#e3eff5" offset=".19"/></linearGradient><path d="M302.59 259.059s-41.453-56.924-124.821-33.458c-74.966 21.102-71.943 83.486-71.943 83.486s-73.392 8.192-75.603 76.695C28.173 449.295 67 459.827 72.264 462.46c6.558 3.28 13.161 5.266 28.906 5.289l315.924-.023c8.555 0 8.555 0 17.11-2.633 9.071-2.792 52.646-21.722 48.039-71.75-6.271-68.104-76.995-74.383-76.995-74.383s3.934-29.88-27.639-52.661c-34.071-24.582-75.019-7.24-75.019-7.24z" style="fill-rule:evenodd;clip-rule:evenodd;fill:#f1f1f2;fill-opacity:1"/><path d="M306.98 254.451s-41.607-67.899-122.477-46.427c-72.719 19.309-80.697 97.113-80.697 97.113s-73.917 6.408-73.001 69.117c.636 43.543 35.125 63.423 52.012 70.664 6.469 2.774 13.539 4.378 20.758 4.378h314.896c7.973 0 15.435-2.484 22.314-5.924 6.581-3.291 40.414-15.8 40.801-60.56.656-76.036-72.388-69.775-72.388-69.775s.246-34.791-30.381-55.636c-33.051-22.495-71.837-2.95-71.837-2.95z" style="fill-rule:evenodd;clip-rule:evenodd;fill:#b5b7b9;fill-opacity:1"/><path d="M143.336 389.394s16.468 27.034 54.62 26.33c40.35-.745 59.227-29.622 59.227-29.622s7.131 31.55 52.646 32.255c37.478.58 46.065-25.672 46.065-25.672s9.572 43.016 66.465 39.495c14.768-.914 50.316-14.688 50.672-49.067.669-64.788-73.046-61.52-73.046-61.52s0-22.381-20.4-44.103c-30.111-32.063-78.969-10.532-78.969-10.532s-23.486-46-92.901-44.054c-83.981 2.352-95.966 92.106-95.966 92.106s-72.028-2.679-69.098 61.06c1.974 42.944 36.062 46.894 57.91 46.894 30.12.001 42.775-33.57 42.775-33.57z" style="fill-rule:evenodd;clip-rule:evenodd;fill:#f9f9f9;fill-opacity:.78397214"/><path d="M145.966 411.477s21.095 20.986 57.337 20.317c38.331-.708 52.774-20.738 52.774-20.738s15.583 21.783 57.041 21.783c35.79 0 50.672-21.722 50.672-21.722s7.897 22.381 48.039 21.722c39.485-.647 51.988-19.748 51.988-40.812 0-50.218-70.414-42.128-70.414-42.128s3.126-35.06-21.058-55.952c-28.955-25.014-72.388-6.583-72.388-6.583s-23.53-41.47-89.498-41.47c-83.575 0-96.737 93.472-96.737 93.472s-65.149-13.857-65.149 43.445c0 36.204 30.574 46.078 51.33 46.078 28.613 0 46.063-17.412 46.063-17.412z" style="fill-rule:evenodd;clip-rule:evenodd;fill:#d8e0e4;fill-opacity:1"/></g><g><path d="M547.438 273.895s-26.848-43.445-88.182-43.445c-120.732 0-133.443 103.024-133.443 103.024s-74.46 8.414-74.508 86.565c-.033 53.332 27.732 76.84 46.065 87.537 7.897 4.608 15.548 9.874 47.381 9.874h292.185c43.433 0 52.026-8.428 59.227-13.165 16.498-10.855 40.143-34.822 40.142-86.165-.001-77.983-82.595-85.779-82.595-85.779s-.187-28.142-33.226-50.547c-36.591-24.813-73.046-7.899-73.046-7.899z" style="fill-rule:evenodd;clip-rule:evenodd;fill:#ccc;fill-opacity:1"/><path d="M540.199 294.959s-41.453-56.924-124.821-33.458c-74.966 21.102-71.943 83.486-71.943 83.486s-73.392 8.192-75.603 76.695c-2.05 63.513 36.777 74.045 42.041 76.679 6.558 3.28 13.161 5.266 28.906 5.289l315.924-.023c8.555 0 8.555 0 17.11-2.633 9.071-2.792 52.646-21.723 48.039-71.75-6.271-68.104-76.995-74.383-76.995-74.383s3.934-29.88-27.639-52.661c-34.071-24.583-75.019-7.241-75.019-7.241z" style="fill-rule:evenodd;clip-rule:evenodd;fill:#f1f1f2;fill-opacity:1"/><path d="M544.589 290.351s-41.607-67.899-122.477-46.427c-72.719 19.309-80.697 97.113-80.697 97.113s-73.917 6.408-73.001 69.117c.636 43.543 35.125 63.423 52.012 70.664 6.469 2.774 13.539 4.378 20.758 4.378H656.08c7.973 0 15.435-2.484 22.314-5.924 6.581-3.291 40.414-15.8 40.801-60.56.656-76.036-72.388-69.775-72.388-69.775s.246-34.791-30.381-55.636c-33.051-22.495-71.837-2.95-71.837-2.95z" style="fill-rule:evenodd;clip-rule:evenodd;fill:#b5b7b9;fill-opacity:1"/><path d="M380.945 425.294s16.468 27.034 54.62 26.33c40.35-.745 59.227-29.622 59.227-29.622s7.131 31.55 52.646 32.255c37.478.58 46.065-25.672 46.065-25.672s9.572 43.016 66.465 39.495c14.768-.914 50.316-14.688 50.672-49.067.669-64.788-73.046-61.52-73.046-61.52s0-22.381-20.4-44.103c-30.111-32.063-78.969-10.532-78.969-10.532s-23.486-46-92.901-44.054c-83.981 2.352-95.966 92.106-95.966 92.106s-72.028-2.679-69.098 61.06c1.974 42.944 36.062 46.894 57.91 46.894 30.12.001 42.775-33.57 42.775-33.57z" style="fill-rule:evenodd;clip-rule:evenodd;fill:#f2f2f2;fill-opacity:1"/><path d="M383.575 447.377s21.095 20.986 57.337 20.317c38.331-.708 52.774-20.738 52.774-20.738s15.583 21.783 57.041 21.783c35.79 0 50.672-21.722 50.672-21.722s7.897 22.381 48.039 21.722c39.485-.647 51.988-19.748 51.988-40.812 0-50.218-70.414-42.128-70.414-42.128s3.126-35.06-21.058-55.952c-28.955-25.014-72.388-6.583-72.388-6.583s-23.53-41.47-89.498-41.47c-83.575 0-96.737 93.472-96.737 93.472s-65.149-13.857-65.149 43.445c0 36.204 30.574 46.078 51.33 46.078 28.613 0 46.063-17.412 46.063-17.412z" style="fill-rule:evenodd;clip-rule:evenodd;fill:#d8e0e4;fill-opacity:1"/></g></svg>