<svg xmlns="http://www.w3.org/2000/svg" xml:space="preserve" style="enable-background:new 0 0 750 600" viewBox="0 0 750 600"><path style="fill:#f3a51e;fill-opacity:1" d="m320.761 35.356 57.157 74.191 60.202-74.191 11.652 92.326 83.285-46.163-16.33 89.029 81.652-18.135-40.826 84.083 81.652 14.838-71.854 50.285 71.854 55.231-91.45 21.663 48.991 70.664-86.551-9.892 14.697 82.434-71.854-42.866-14.918 85.732-60.202-72.542-50.625 72.542-17.963-85.732-83.286 46.164 21.23-85.732-97.983 11.541 55.524-72.313-86.552-20.014 68.588-56.88-76.753-53.582 94.717-23.082-53.891-77.488 96.35 16.486-31.028-87.38 91.451 42.866z"/><path d="m324.97 576-18.867-90.045-87.095 48.274 22.173-89.539-102.265 12.045 57.827-75.312-88.667-20.503 71.123-58.982L99 245.951l98.147-23.918-56.349-81.023 99.473 17.021-32.091-90.373 95.909 44.955L317.856 24l60.155 78.083 63.33-78.045 12.151 96.271 85.871-47.598-16.835 91.78 84.204-18.702-42.348 87.217L651 248.746l-75.804 53.049 74.587 57.333-94.343 22.348 50.95 73.49-90.558-10.351 15.383 86.285-74.787-44.615-15.48 88.96-62.714-75.57L324.97 576zm52.632-91.589 57.689 69.515 14.356-82.504 68.921 41.116-14.012-78.584 82.546 9.435-47.032-67.839 88.557-20.978-69.12-53.13 67.902-47.52-76.689-13.937 39.305-80.95-79.101 17.569 15.826-86.278-80.698 44.729-11.154-88.382-57.073 70.336-54.159-70.299-12.36 79.553-86.994-40.777 29.965 84.387-93.227-15.953 51.432 73.955-91.286 22.245 73.308 51.177-66.054 54.779 84.435 19.524-53.221 69.314 93.702-11.037-20.287 81.925 79.477-44.052 17.059 81.419 47.987-68.758z" style="fill:#f7ee85"/><ellipse ry="163.22" rx="161.672" cy="301.619" cx="377.918" style="fill:#ff0;fill-opacity:.57491291"/><ellipse ry="155.389" rx="153.915" cy="302.031" cx="378.326" style="fill:#fbca0c;fill-opacity:1"/><g><path d="M384.449 531.891c60.172 3.62 241.125 0 241.125 0 15.018 0 35.877-3.851 39.214-4.621 0 0 60.907-22.336 55.067-94.738-5.521-68.443-87.66-66.547-87.66-66.547S616.348 288.5 512.938 288.5c-84.596 0-102.624 47.754-102.624 47.754s-112.554-10.179-113.061 88.923c-.294 57.41 24.486 102.942 87.196 106.714z" style="fill-rule:evenodd;clip-rule:evenodd;fill:#f2f2f2"/><path d="M402.538 524.21c54.651-.616 218.616 0 218.616 0 40.092 0 90.099-25.945 84.517-85.516-5.276-56.314-90.109-49.294-90.109-49.294s-3.802-57.767-102.624-57.767c-80.843 0-91.778 41.592-91.778 41.592s-91.787-2.847-106.039 46.013c-6.264 21.475 4.633 105.905 87.417 104.972z" style="fill-rule:evenodd;clip-rule:evenodd;fill:#ccc"/><path d="M399.305 505.703h221.787c13.814 0 32.999-3.169 36.069-3.802 0 0 56.022-18.378 50.65-77.949-5.078-56.314-82.69-49.018-82.69-49.018s-13.729-75.651-108.846-75.651c-77.812 0-97.251 52.647-97.251 52.647s-107.983-27.051-107.874 75.995c.038 35.552 32.429 77.778 88.155 77.778z" style="fill-rule:evenodd;clip-rule:evenodd;fill:#b3b3b3"/><linearGradient y2="316.192" x2="509.224" y1="487.225" x1="509.224" gradientUnits="userSpaceOnUse" id="a"><stop style="stop-color:#dfd8d9" offset=".25"/><stop style="stop-color:#e0d9da" offset=".254"/><stop style="stop-color:#eeeaeb" offset=".344"/><stop style="stop-color:#f8f6f6" offset=".456"/><stop style="stop-color:#fdfdfd" offset=".609"/><stop style="stop-color:#fff" offset="1"/></linearGradient><path d="M626.698 383.916c-3.871 0-7.657.275-11.345.774-3.275-38.236-46.07-68.498-98.391-68.498-43.47 0-80.367 20.889-93.486 49.885-9.106-4.337-19.381-6.793-30.267-6.793-37.284 0-67.509 28.641-67.509 63.971s30.225 63.971 67.509 63.971c28.462 0 52.793-16.699 62.721-40.315 16.788 9.838 37.986 15.71 61.032 15.71 17.35 0 33.649-3.332 47.812-9.174 9.341 19.623 33.538 33.607 61.924 33.607 36.478 0 66.048-23.088 66.048-51.568.001-28.482-29.57-51.57-66.048-51.57z" style="fill-rule:evenodd;clip-rule:evenodd;fill:url(#a)"/><path d="M398.625 376.807c10.154 0 19.57 2.633 27.95 6.881 12.674-31.284 47.243-53.774 88.015-53.774 45.943 0 84.035 28.535 91.745 66.062 5.348-1.253 10.892-2.134 16.745-2.134 33.083 0 59.903 21.463 59.903 47.94s-26.82 47.94-59.903 47.94c-19.548 0-36.741-7.605-47.675-19.198-16.335 12.085-37.555 19.44-60.815 19.44-26.041 0-49.562-9.179-66.48-23.948-10.786 15.052-28.914 24.949-49.485 24.949-33.084 0-59.903-25.555-59.903-57.079s26.818-57.079 59.903-57.079z" style="fill-rule:evenodd;clip-rule:evenodd;fill:#dae2e7;fill-opacity:1"/></g><g><path d="M108.085 567.555c54.055 3.251 216.614 0 216.614 0 13.492 0 32.23-3.458 35.228-4.15 0 0 54.716-20.057 49.469-85.071-4.96-61.459-78.749-59.757-78.749-59.757S316.41 349 223.512 349c-75.997 0-92.192 42.881-92.192 42.881s-101.113-9.14-101.568 79.849c-.264 51.552 21.998 92.438 78.333 95.825z" style="fill-rule:evenodd;clip-rule:evenodd;fill:#ececec;fill-opacity:1"/><path d="M124.335 560.658c49.095-.554 196.393 0 196.393 0 36.017 0 80.94-23.298 75.926-76.79-4.74-50.567-80.949-44.264-80.949-44.264s-3.415-51.872-92.192-51.872c-72.625 0-82.448 37.348-82.448 37.348s-82.456-2.556-95.26 41.318c-5.628 19.283 4.161 95.098 78.53 94.26z" style="fill-rule:evenodd;clip-rule:evenodd;fill:#ccc;fill-opacity:1"/><path d="M121.431 544.04h199.241c12.409 0 29.645-2.845 32.403-3.414 0 0 50.327-16.503 45.501-69.995-4.562-50.567-74.284-44.016-74.284-44.016s-12.334-67.932-97.781-67.932c-69.902 0-87.365 47.275-87.365 47.275s-97.006-24.291-96.908 68.24c.033 31.924 29.131 69.842 79.193 69.842z" style="fill-rule:evenodd;clip-rule:evenodd;fill:#b3b3b3;fill-opacity:1"/><linearGradient y2="373.866" x2="220.176" y1="527.447" x1="220.176" gradientUnits="userSpaceOnUse" id="b"><stop style="stop-color:#dfd8d9" offset=".25"/><stop style="stop-color:#e0d9da" offset=".254"/><stop style="stop-color:#eeeaeb" offset=".344"/><stop style="stop-color:#f8f6f6" offset=".456"/><stop style="stop-color:#fdfdfd" offset=".609"/><stop style="stop-color:#fff" offset="1"/></linearGradient><path d="M325.708 434.679c-3.477 0-6.879.247-10.192.695-2.942-34.335-41.387-61.508-88.389-61.508-39.051 0-72.198 18.757-83.983 44.794-8.18-3.894-17.411-6.1-27.19-6.1-33.494 0-60.646 25.718-60.646 57.443 0 31.725 27.152 57.444 60.646 57.444 25.569 0 47.426-14.995 56.345-36.202 15.081 8.834 34.124 14.107 54.828 14.107 15.586 0 30.229-2.992 42.952-8.238 8.392 17.621 30.129 30.178 55.629 30.178 32.769 0 59.334-20.732 59.334-46.306.001-25.575-26.564-46.307-59.334-46.307z" style="fill-rule:evenodd;clip-rule:evenodd;fill:url(#b)"/><path d="M120.819 428.296c9.121 0 17.581 2.364 25.109 6.179 11.385-28.092 42.44-48.287 79.068-48.287 41.273 0 75.493 25.623 82.419 59.321 4.804-1.125 9.784-1.916 15.043-1.916 29.72 0 53.814 19.273 53.814 43.048s-24.094 43.048-53.814 43.048c-17.561 0-33.006-6.829-42.828-17.239-14.674 10.852-33.737 17.456-54.633 17.456-23.393 0-44.524-8.242-59.722-21.504-9.689 13.516-25.975 22.403-44.455 22.403-29.721 0-53.814-22.947-53.814-51.254s24.092-51.255 53.813-51.255z" style="fill-rule:evenodd;clip-rule:evenodd;fill:#dae2e7;fill-opacity:1"/></g></svg>