<svg xmlns="http://www.w3.org/2000/svg" xml:space="preserve" style="enable-background:new 0 0 750 600" viewBox="0 0 750 600"><path d="M432.888 63.977s-28.977-45.11-95.177-45.11c-130.309 0-144.029 106.973-144.029 106.973s-80.366 8.737-80.419 89.882c-.035 55.376 29.932 79.785 49.719 90.892 8.523 4.784 16.781 10.252 51.14 10.252h315.363c46.878 0 56.154-8.751 63.925-13.67 17.807-11.271 43.328-36.156 43.327-89.468-.001-80.972-89.148-89.066-89.148-89.066s-.202-29.221-35.861-52.484c-39.492-25.763-78.84-8.201-78.84-8.201z" style="fill-rule:evenodd;clip-rule:evenodd;fill:#ececec"/><path d="M425.075 85.833s-44.741-59.092-134.723-34.732c-80.913 21.905-77.65 86.665-77.65 86.665s-79.214 8.504-81.601 79.616c-2.212 65.932 39.694 76.865 45.376 79.598 7.078 3.405 14.206 5.467 31.199 5.49l340.986-.023c9.234 0 9.234 0 18.467-2.733 9.791-2.898 56.822-22.55 51.85-74.482-6.768-70.697-83.103-77.215-83.103-77.215s4.246-31.018-29.832-54.666c-36.773-25.52-80.969-7.518-80.969-7.518z" style="fill-rule:evenodd;clip-rule:evenodd;fill:#999"/><path d="M429.813 81.049S384.509 15.71 297.224 38c-78.488 20.044-86.703 95.665-86.703 95.665s-79.78 6.652-78.792 71.749c.686 45.201 37.911 65.838 56.138 73.354 6.982 2.879 14.613 4.544 22.404 4.544h339.877c8.605 0 16.66-2.578 24.084-6.15 7.103-3.417 44.037-16.4 44.037-62.866 0-64.964-78.131-72.432-78.131-72.432s-1.747-31.66-34.804-53.299c-35.671-23.35-75.521-7.516-75.521-7.516z" style="fill-rule:evenodd;clip-rule:evenodd;fill:#b3b3b3"/><path d="M253.187 221.13s17.775 28.064 58.953 27.333c43.551-.773 63.925-30.749 63.925-30.749s7.697 32.752 56.822 33.483c40.452.602 49.719-26.65 49.719-26.65s10.332 44.654 71.738 40.999c15.94-.949 54.308-15.247 54.691-50.936.722-67.255-78.841-63.862-78.841-63.862s0-23.233-22.019-45.783c-32.5-33.284-85.233-10.933-85.233-10.933s-25.349-47.751-100.271-45.731c-90.643 2.442-103.579 95.613-103.579 95.613s-77.742-2.781-74.579 63.385c2.131 44.58 38.922 48.68 62.504 48.68 32.511.001 46.17-34.849 46.17-34.849z" style="fill-rule:evenodd;clip-rule:evenodd;fill:#ccc"/><path d="M256.026 244.054s22.768 21.785 61.886 21.09c41.372-.734 56.961-21.528 56.961-21.528s16.819 22.612 61.567 22.612c38.629 0 54.691-22.55 54.691-22.55s8.523 23.233 51.85 22.55c42.617-.672 56.112-20.5 56.112-42.366 0-52.13-76-43.733-76-43.733s3.374-36.395-22.729-58.082c-31.252-25.966-78.131-6.833-78.131-6.833s-25.397-43.049-96.598-43.049c-90.205 0-104.411 97.032-104.411 97.032s-70.318-14.385-70.318 45.099c0 37.583 33 47.832 55.402 47.832 30.883.001 49.718-18.074 49.718-18.074z" style="fill-rule:evenodd;clip-rule:evenodd;fill:#999;fill-opacity:1"/><path d="M555.303 326.298s5.533 83.169-3.382 103.628c-7.203 16.53-25.012 27.187-48.102 22.331-16.048-3.375-45.814-24.632-34.194-55.98 11.892-32.082 85.678-69.979 85.678-69.979z" style="fill:#626b6e"/><path d="M551.559 332.345s4.659 67.909-2.848 84.614c-6.065 13.497-21.064 22.203-40.506 18.234-20.534-4.192-38.58-20.113-28.795-45.708 10.014-26.196 72.149-57.14 72.149-57.14z" style="fill:#949fa2"/><path d="M539.837 343.849s-6.675 39.598-11.408 50.1c-6.913 15.34-15.301 19.04-28.344 17.16-9.065-1.307-19.419-9.406-13.623-25.578 5.933-16.551 53.375-41.682 53.375-41.682z" style="fill:#fff"/><g><path d="M306.975 451.564s5.533 83.169-3.382 103.628c-7.203 16.53-25.012 27.187-48.102 22.331-16.048-3.375-45.814-24.632-34.194-55.98 11.893-32.082 85.678-69.979 85.678-69.979z" style="fill:#626b6e"/><path d="M303.231 457.611s4.659 67.909-2.848 84.614c-6.065 13.497-21.064 22.203-40.506 18.234-20.534-4.192-38.58-20.113-28.795-45.708 10.014-26.196 72.149-57.14 72.149-57.14z" style="fill:#949fa2"/><path d="M291.51 469.115s-6.675 39.598-11.408 50.1c-6.913 15.34-15.301 19.04-28.344 17.16-9.065-1.307-19.419-9.406-13.623-25.578 5.932-16.551 53.375-41.682 53.375-41.682z" style="fill:#fff"/></g><g><path d="M239.303 325.298s5.533 83.169-3.382 103.628c-7.203 16.53-25.012 27.187-48.102 22.331-16.048-3.375-45.814-24.632-34.194-55.98 11.892-32.082 85.678-69.979 85.678-69.979z" style="fill:#626b6e"/><path d="M235.559 331.345s4.659 67.909-2.848 84.614c-6.065 13.497-21.064 22.203-40.506 18.234-20.534-4.192-38.58-20.113-28.795-45.708 10.014-26.196 72.149-57.14 72.149-57.14z" style="fill:#949fa2"/><path d="M223.837 342.849s-6.675 39.598-11.408 50.1c-6.913 15.34-15.301 19.04-28.344 17.16-9.065-1.307-19.419-9.406-13.623-25.578 5.932-16.551 53.375-41.682 53.375-41.682z" style="fill:#fff"/></g><g><path d="M360.328 309.158c3.961-9.946 6.908-18.145 10.456-26.076 6.056-13.538 16.991-18.572 28.82-13.709 11.861 4.876 16.065 16.338 10.858 30.037-3.093 8.137-6.419 16.186-10.239 25.778 10.196-1.395 18.782-2.746 27.411-3.711 14.844-1.661 25.892 5.863 27.405 18.396 1.505 12.465-6.348 21.646-20.974 24.363-4.154.772-8.368 1.224-12.548 1.86-4.171.635-8.336 1.317-14.652 2.32 6.232 7.97 11.838 14.871 17.144 21.996 6.124 8.224 8.651 17.239 2.825 26.556-8.008 12.807-24.729 13.825-35.145 2.146-6.468-7.253-12.272-15.098-19.362-23.906-3.976 9.983-7.161 18.477-10.724 26.81-5.438 12.719-16.485 17.837-28.127 13.323-11.375-4.411-16.259-14.967-12.051-27.721 2.945-8.926 6.864-17.531 11.104-28.177-10.341 1.362-18.546 2.49-26.764 3.515-15.494 1.932-26.285-4.743-28.019-17.264-1.868-13.491 6.188-22.989 21.975-25.648 7.951-1.339 15.954-2.377 25.959-3.849-5.895-7.604-10.957-13.999-15.873-20.504-9.77-12.928-9.31-25.504 1.135-33.793 10.046-7.972 22.949-5.219 33.102 7.13 5.051 6.142 10.007 12.362 16.284 20.128z" style="fill:#fff"/><path d="M341.699 439.757c-3.043 0-6.151-.607-9.237-1.804-12.924-5.012-18.301-17.263-13.699-31.212 2.03-6.153 4.544-12.225 7.206-18.653.707-1.707 1.427-3.446 2.159-5.237l-4.731.63c-6.297.839-11.734 1.564-17.288 2.257a44.355 44.355 0 0 1-5.469.351c-14.125 0-23.962-7.668-25.672-20.011-2.093-15.117 6.986-25.882 24.286-28.795 5.393-.908 10.684-1.661 16.811-2.533 1.444-.205 2.923-.416 4.447-.635l-2.493-3.198c-3.651-4.682-7.1-9.104-10.449-13.535-10.602-14.029-9.978-28.466 1.628-37.678 4.213-3.344 9.088-5.111 14.098-5.111 8.064 0 16.2 4.495 22.911 12.657 3.419 4.158 6.726 8.265 10.554 13.021l2.723 3.381a1629.6 1629.6 0 0 0 1.819-4.683c2.311-5.969 4.495-11.607 6.922-17.031 4.884-10.918 13.17-17.18 22.733-17.18 3.177 0 6.444.681 9.71 2.024 13.236 5.442 18.108 18.64 12.412 33.624-2.11 5.55-4.351 11.118-6.725 17.013l-1.74 4.328c1.567-.221 3.099-.44 4.603-.654 6.277-.896 12.206-1.741 18.101-2.401a39.084 39.084 0 0 1 4.323-.246c14.355 0 24.63 8.279 26.177 21.091 1.684 13.958-7.223 24.478-23.244 27.454-2.705.503-5.445.874-8.096 1.234-1.516.206-3.032.411-4.544.641-2.781.424-5.561.868-8.98 1.416l-.946.151c.933 1.184 1.852 2.346 2.759 3.493 4.024 5.09 7.825 9.898 11.485 14.812 7.767 10.43 8.761 20.428 2.954 29.715-4.614 7.377-12.013 11.609-20.303 11.61-7.226 0-14.083-3.226-19.309-9.084-4.456-4.997-8.605-10.278-12.999-15.869-1.126-1.432-2.27-2.889-3.446-4.374-.623 1.584-1.23 3.133-1.824 4.652-2.421 6.182-4.708 12.022-7.149 17.731-4.52 10.574-12.713 16.638-22.478 16.638zm-4.8-63.716-1.768 4.439a755.232 755.232 0 0 1-3.984 9.753c-2.621 6.33-5.096 12.308-7.062 18.265-3.699 11.212.191 20.27 10.404 24.231 2.436.945 4.863 1.424 7.21 1.424 7.414 0 13.729-4.825 17.326-13.237 2.407-5.63 4.679-11.43 7.083-17.571 1.149-2.935 2.342-5.978 3.614-9.174l1.776-4.46 3.01 3.739c2.276 2.827 4.42 5.556 6.497 8.197 4.337 5.52 8.434 10.734 12.775 15.601 4.147 4.65 9.519 7.21 15.126 7.21 6.316 0 11.984-3.272 15.551-8.977 4.523-7.233 3.641-14.886-2.696-23.396-3.612-4.85-7.389-9.627-11.387-14.684a1750.004 1750.004 0 0 1-5.718-7.259l-2.931-3.748 10.346-1.647c3.436-.55 6.227-.997 9.022-1.422a290.01 290.01 0 0 1 4.634-.654c2.583-.35 5.255-.713 7.826-1.191 13.221-2.456 20.039-10.21 18.703-21.272-1.203-9.966-9.102-16.158-20.613-16.158-1.203 0-2.447.071-3.699.211-5.811.65-11.7 1.491-17.933 2.38-3.007.429-6.124.874-9.409 1.323l-4.761.652 1.778-4.465c1.228-3.083 2.405-6.007 3.539-8.825 2.363-5.869 4.594-11.413 6.684-16.912 4.658-12.252 1.179-22.14-9.303-26.45-2.587-1.064-5.137-1.603-7.579-1.603-7.361 0-13.618 4.924-17.618 13.865-2.367 5.293-4.427 10.61-6.811 16.766a1008.428 1008.428 0 0 1-3.599 9.202l-1.772 4.449-3.01-3.725a3473.414 3473.414 0 0 1-5.751-7.135c-3.819-4.743-7.117-8.84-10.517-12.976-5.626-6.843-12.226-10.611-18.582-10.611-3.785 0-7.356 1.311-10.613 3.897-9.234 7.328-9.468 18.229-.641 29.909 3.322 4.396 6.758 8.803 10.397 13.467 1.747 2.24 3.557 4.562 5.455 7.009l2.939 3.791-4.746.699c-3.267.481-6.322.915-9.231 1.329-6.09.867-11.348 1.615-16.671 2.511-14.147 2.382-21.315 10.583-19.665 22.499 1.335 9.644 8.669 15.176 20.12 15.176 1.532 0 3.139-.104 4.776-.308 5.53-.69 10.956-1.413 17.24-2.25 2.991-.399 6.134-.818 9.505-1.262l4.734-.622z" style="fill:#808184"/></g><g><path d="M414.882 478.146c3.123-7.843 5.447-14.309 8.245-20.563 4.776-10.675 13.399-14.646 22.727-10.811 9.353 3.845 12.668 12.884 8.562 23.686-2.439 6.417-5.062 12.764-8.074 20.328 8.04-1.1 14.811-2.165 21.615-2.927 11.705-1.31 20.417 4.623 21.611 14.507 1.187 9.829-5.006 17.07-16.539 19.212-3.276.609-6.598.965-9.895 1.467-3.289.501-6.573 1.039-11.554 1.83 4.914 6.285 9.335 11.727 13.519 17.345 4.829 6.486 6.822 13.594 2.228 20.941-6.315 10.099-19.501 10.902-27.714 1.692-5.101-5.719-9.677-11.906-15.269-18.851-3.135 7.872-5.647 14.571-8.456 21.142-4.288 10.03-12.999 14.066-22.18 10.506-8.97-3.478-12.821-11.802-9.503-21.86 2.322-7.039 5.413-13.824 8.756-22.22-8.154 1.074-14.625 1.964-21.105 2.772-12.218 1.523-20.728-3.741-22.095-13.614-1.473-10.639 4.88-18.128 17.329-20.225 6.27-1.056 12.581-1.874 20.471-3.035-4.649-5.997-8.64-11.039-12.517-16.169-7.705-10.195-7.342-20.111.895-26.648 7.922-6.287 18.097-4.115 26.104 5.622 3.981 4.844 7.89 9.749 12.839 15.873z" style="fill:#fff"/><path d="M400.192 581.133c-2.4 0-4.85-.479-7.284-1.422-10.191-3.952-14.432-13.613-10.803-24.613 1.6-4.852 3.583-9.64 5.683-14.709.557-1.346 1.125-2.718 1.703-4.13l-3.73.497c-4.965.662-9.253 1.234-13.633 1.78a35.127 35.127 0 0 1-4.313.277c-11.139 0-18.896-6.047-20.244-15.78-1.651-11.921 5.509-20.41 19.151-22.707 4.253-.716 8.425-1.31 13.257-1.997 1.139-.162 2.305-.328 3.507-.501l-1.966-2.522c-2.879-3.692-5.599-7.179-8.24-10.673-8.361-11.063-7.869-22.447 1.284-29.711 3.323-2.637 7.167-4.031 11.117-4.031 6.359 0 12.775 3.544 18.067 9.981 2.696 3.279 5.304 6.518 8.323 10.268l2.147 2.667c.493-1.264.97-2.492 1.434-3.693 1.823-4.707 3.545-9.153 5.458-13.43 3.851-8.61 10.386-13.548 17.927-13.548 2.505 0 5.081.537 7.657 1.596 10.437 4.291 14.279 14.699 9.788 26.515-1.664 4.377-3.431 8.767-5.303 13.416-.448 1.115-.906 2.251-1.372 3.413 1.236-.174 2.444-.347 3.63-.516 4.95-.706 9.625-1.373 14.274-1.894a30.94 30.94 0 0 1 3.409-.194c11.32 0 19.422 6.529 20.642 16.632 1.328 11.007-5.696 19.303-18.33 21.65-2.133.396-4.294.689-6.384.973-1.195.162-2.391.324-3.583.506-2.193.334-4.385.685-7.082 1.116l-.746.119 2.176 2.755c3.173 4.014 6.17 7.805 9.057 11.681 6.125 8.225 6.908 16.109 2.329 23.433-3.638 5.818-9.473 9.155-16.011 9.155-5.698 0-11.106-2.544-15.227-7.164-3.514-3.941-6.786-8.105-10.25-12.514-.888-1.129-1.79-2.278-2.718-3.449-.491 1.249-.97 2.47-1.439 3.669-1.909 4.875-3.712 9.48-5.637 13.982-3.564 8.335-10.025 13.117-17.725 13.117zm-3.785-50.245-1.394 3.5a584.64 584.64 0 0 1-3.142 7.691c-2.067 4.991-4.019 9.706-5.569 14.403-2.917 8.842.15 15.985 8.205 19.108 1.921.745 3.835 1.123 5.686 1.123 5.847 0 10.826-3.805 13.663-10.438 1.898-4.439 3.689-9.013 5.586-13.856.906-2.314 1.846-4.714 2.85-7.235l1.401-3.517 2.374 2.948a697.02 697.02 0 0 1 5.123 6.464c3.42 4.353 6.651 8.465 10.074 12.303 3.27 3.667 7.506 5.686 11.928 5.686 4.981 0 9.45-2.581 12.263-7.079 3.567-5.704 2.872-11.739-2.126-18.449-2.849-3.825-5.826-7.592-8.979-11.58-1.46-1.846-2.959-3.743-4.509-5.724l-2.311-2.955 8.159-1.299c2.71-.433 4.911-.786 7.115-1.121 1.216-.185 2.435-.351 3.654-.516 2.037-.276 4.144-.562 6.171-.939 10.426-1.937 15.802-8.051 14.749-16.775-.949-7.859-7.177-12.742-16.254-12.742-.949 0-1.93.056-2.917.167-4.583.513-9.226 1.175-14.142 1.877-2.371.338-4.83.689-7.42 1.043l-3.754.514 1.402-3.521c.968-2.431 1.896-4.737 2.791-6.959 1.863-4.628 3.622-9 5.27-13.336 3.673-9.662.93-17.459-7.336-20.857-2.04-.839-4.051-1.264-5.977-1.264-5.805 0-10.739 3.883-13.893 10.933-1.867 4.174-3.491 8.367-5.371 13.221-.891 2.3-1.823 4.706-2.838 7.257l-1.398 3.508-2.374-2.937a3559.867 3559.867 0 0 1-4.535-5.626c-3.012-3.74-5.612-6.971-8.294-10.232-4.437-5.396-9.641-8.368-14.653-8.368-2.984 0-5.801 1.034-8.369 3.073-7.282 5.779-7.467 14.375-.506 23.585 2.62 3.467 5.329 6.941 8.199 10.62 1.378 1.767 2.805 3.598 4.302 5.527l2.318 2.989-3.743.551c-2.577.379-4.986.722-7.28 1.048-4.802.683-8.949 1.273-13.146 1.98-11.156 1.879-16.808 8.346-15.507 17.742 1.053 7.605 6.836 11.967 15.866 11.967 1.208 0 2.475-.082 3.766-.243 4.361-.544 8.64-1.114 13.595-1.775 2.359-.314 4.837-.645 7.495-.995l3.732-.49z" style="fill:#808184"/></g></svg>