<svg xmlns="http://www.w3.org/2000/svg" xml:space="preserve" style="enable-background:new 0 0 750 600" viewBox="0 0 750 600">
    <path d="M494.098 126.585s-28.564-46.177-93.818-46.177c-128.449 0-141.972 109.504-141.972 109.504s-79.219 8.943-79.27 92.009c-.035 56.686 29.505 81.672 49.009 93.042 8.402 4.898 16.542 10.495 50.41 10.495h310.86c46.209 0 55.352-8.958 63.012-13.993 17.553-11.538 42.709-37.012 42.708-91.584-.001-82.888-87.875-91.174-87.875-91.174s-.199-29.912-35.349-53.726c-38.929-26.374-77.715-8.396-77.715-8.396z" style="fill-rule:evenodd;clip-rule:evenodd;fill:#e6e6e6"/>
    <path d="M486.396 148.974s-44.102-60.504-132.799-35.563c-79.758 22.429-76.541 88.736-76.541 88.736s-78.083 8.707-80.435 81.519c-2.181 67.508 39.127 78.702 44.728 81.501 6.977 3.486 14.003 5.597 30.754 5.621l336.117-.024c9.102 0 9.102 0 18.204-2.799 9.651-2.968 56.011-23.089 51.11-76.263-6.672-72.387-81.916-79.061-81.916-79.061s4.186-31.759-29.406-55.972c-36.25-26.127-79.816-7.695-79.816-7.695z" style="fill-rule:evenodd;clip-rule:evenodd;fill:#ccc;fill-opacity:1"/>
    <linearGradient id="a" x1="437.035" x2="437.035" y1="351.175" y2="90.268" gradientUnits="userSpaceOnUse">
        <stop offset="0" style="stop-color:#7a7c7f"/>
        <stop offset=".071" style="stop-color:#818285"/>
        <stop offset=".172" style="stop-color:#939295"/>
        <stop offset=".29" style="stop-color:#b1acaf"/>
        <stop offset=".369" style="stop-color:#cac2c5"/>
        <stop offset=".71" style="stop-color:#b1adae"/>
        <stop offset=".804" style="stop-color:#abaaac"/>
        <stop offset="1" style="stop-color:#a4a7a9"/>
    </linearGradient>
    <path d="M491.067 144.076s-44.266-72.169-130.305-49.347c-77.367 20.523-85.855 103.22-85.855 103.22s-78.641 6.811-77.667 73.464c.676 46.282 37.37 67.412 55.336 75.108 6.883 2.948 14.405 4.653 22.085 4.653h335.023c8.482 0 16.422-2.64 23.74-6.297 7.001-3.498 42.998-16.794 43.408-64.368.698-80.818-77.015-74.164-77.015-74.164s.262-36.979-32.323-59.135c-35.162-23.908-76.427-3.134-76.427-3.134z" style="fill-rule:evenodd;clip-rule:evenodd;fill:url(#a)"/>
    <path d="M316.964 287.506s17.521 28.735 58.111 27.986c42.929-.792 63.012-31.485 63.012-31.485s7.587 33.535 56.011 34.283c39.874.616 49.009-27.287 49.009-27.287s10.184 45.722 70.714 41.979c15.712-.971 53.532-15.612 53.91-52.153.712-68.863-77.715-65.389-77.715-65.389s0-23.788-21.704-46.877c-32.036-34.079-84.016-11.195-84.016-11.195s-24.987-48.893-98.839-46.824c-89.349 2.5-102.099 97.899-102.099 97.899s-76.632-2.848-73.514 64.9c2.1 45.645 38.367 49.843 61.612 49.843 32.044.002 45.508-35.68 45.508-35.68z" style="fill-rule:evenodd;clip-rule:evenodd;fill:#e6e6e6;fill-opacity:.87108016"/>
    <path d="M319.761 310.978s22.443 22.306 61.002 21.595c40.781-.752 56.147-22.043 56.147-22.043s16.579 23.153 60.687 23.153c38.078 0 53.91-23.089 53.91-23.089s8.402 23.788 51.11 23.089c42.008-.688 55.311-20.99 55.311-43.379 0-53.377-74.914-44.778-74.914-44.778s3.326-37.265-22.404-59.471c-30.806-26.587-77.015-6.997-77.015-6.997s-25.034-44.078-95.218-44.078c-88.917 0-102.92 99.351-102.92 99.351s-69.313-14.729-69.313 46.177c0 38.481 32.529 48.976 54.611 48.976 30.441.001 49.006-18.506 49.006-18.506z" style="fill-rule:evenodd;clip-rule:evenodd;fill:#a2a9ae;fill-opacity:.9372822"/>
    <path d="M359.644 269.248s-27.623-44.656-90.727-44.656c-124.217 0-137.295 105.896-137.295 105.896s-76.609 8.649-76.659 88.978c-.034 54.818 28.533 78.982 47.395 89.977 8.125 4.736 15.997 10.149 48.749 10.149h300.619c44.687 0 53.528-8.663 60.936-13.532 16.975-11.158 41.302-35.792 41.301-88.567-.001-80.157-84.98-88.17-84.98-88.17s-.193-28.927-34.185-51.956c-37.645-25.504-75.154-8.119-75.154-8.119z" style="fill-rule:evenodd;clip-rule:evenodd;fill:#e6e6e6;fill-opacity:1"/>
    <path d="M352.197 290.9s-42.649-58.511-128.424-34.391c-77.13 21.69-74.02 85.813-74.02 85.813s-75.511 8.42-77.785 78.833c-2.109 65.284 37.838 76.109 43.255 78.816 6.747 3.371 13.541 5.413 29.741 5.436l325.044-.023c8.802 0 8.802 0 17.604-2.706 9.333-2.87 54.166-22.328 49.426-73.75-6.452-70.003-79.217-76.456-79.217-76.456s4.048-30.713-28.437-54.128c-35.057-25.269-77.187-7.444-77.187-7.444z" style="fill-rule:evenodd;clip-rule:evenodd;fill:#ccc"/>
    <linearGradient id="b" x1="304.461" x2="304.461" y1="486.439" y2="234.128" gradientUnits="userSpaceOnUse">
        <stop offset="0" style="stop-color:#7a7c7f"/>
        <stop offset=".071" style="stop-color:#818285"/>
        <stop offset=".172" style="stop-color:#939295"/>
        <stop offset=".29" style="stop-color:#b1acaf"/>
        <stop offset=".369" style="stop-color:#cac2c5"/>
        <stop offset=".71" style="stop-color:#b1adae"/>
        <stop offset=".804" style="stop-color:#abaaac"/>
        <stop offset="1" style="stop-color:#a4a7a9"/>
    </linearGradient>
    <path d="M356.714 286.164s-42.808-69.792-126.012-47.721c-74.818 19.847-83.026 99.82-83.026 99.82s-76.05 6.586-75.108 71.044c.654 44.757 36.139 65.191 53.513 72.633 6.656 2.851 13.93 4.5 21.357 4.5h323.986c8.203 0 15.881-2.553 22.958-6.089 6.771-3.383 41.581-16.24 41.978-62.248.675-78.155-74.478-71.72-74.478-71.72s.253-35.761-31.258-57.187c-34.005-23.122-73.91-3.032-73.91-3.032z" style="fill-rule:evenodd;clip-rule:evenodd;fill:url(#b)"/>
    <path d="M188.346 424.868s16.944 27.788 56.197 27.064c41.515-.766 60.936-30.447 60.936-30.447s7.337 32.43 54.166 33.154c38.56.596 47.395-26.388 47.395-26.388s9.849 44.216 68.384 40.596c15.195-.939 51.769-15.098 52.134-50.435.689-66.594-75.155-63.235-75.155-63.235s0-23.005-20.989-45.333c-30.98-32.956-81.248-10.826-81.248-10.826s-24.164-47.282-95.583-45.282c-86.405 2.418-98.736 94.674-98.736 94.674s-74.107-2.754-71.092 62.762c2.031 44.141 37.103 48.201 59.582 48.201 30.989.002 44.009-34.505 44.009-34.505z" style="fill-rule:evenodd;clip-rule:evenodd;fill:#e6e6e6"/>
    <path d="M191.052 447.567s21.704 21.571 58.992 20.883c39.437-.727 54.298-21.316 54.298-21.316s16.033 22.39 58.688 22.39c36.823 0 52.134-22.328 52.134-22.328s8.125 23.005 49.426 22.328c40.624-.665 53.488-20.298 53.488-41.95 0-51.618-72.446-43.303-72.446-43.303s3.216-36.037-21.666-57.511c-29.791-25.711-74.478-6.766-74.478-6.766s-24.21-42.626-92.081-42.626c-85.988 0-99.529 96.078-99.529 96.078s-67.03-14.244-67.03 44.656c0 37.213 31.457 47.362 52.811 47.362 29.439 0 47.393-17.897 47.393-17.897z" style="fill-rule:evenodd;clip-rule:evenodd;fill:#a2a9ae;fill-opacity:.90243894"/>
</svg>
