<svg xmlns="http://www.w3.org/2000/svg" xml:space="preserve" style="enable-background:new 0 0 750 600" viewBox="0 0 750 600"><path style="fill:#f4a51d;fill-opacity:1" d="m439.018 37.739 36.831 47.811 38.794-47.811 7.508 59.498 53.668-29.749-10.523 57.372 52.616-11.687-26.308 54.185 52.616 9.562-46.302 32.405 46.302 35.592-58.93 13.961 31.569 45.537-55.772-6.375 9.471 53.122-46.302-27.623-9.613 55.247-38.794-46.748-32.622 46.748-11.575-55.247-53.668 29.748 13.68-55.247-63.139 7.437 35.779-46.599-55.773-12.898 44.197-36.655-49.459-34.53 61.035-14.874-34.727-49.935 62.087 10.624-19.994-56.309 58.93 27.623z"/><path d="m441.396 387.786-12.288-58.648-56.671 31.413 14.423-58.25-66.514 7.835 37.594-48.964-57.441-13.283 46.196-38.312-52.175-36.426 63.738-15.533-36.664-52.722 64.55 11.046-20.833-58.672 62.444 29.272 8.973-57.756 39.196 50.879 41.259-50.85 7.901 62.607 55.707-30.879-10.921 59.543 54.628-12.134-27.508 56.655 56.529 10.274-49.417 34.585 48.457 37.249-61.211 14.501 33.114 47.765-58.931-6.736 10.012 56.159-48.614-29.003-10.056 57.792-40.774-49.135-34.703 49.728zM475.6 326.02l36.812 44.361 9.17-52.702 43.989 26.244-8.93-50.087 52.614 6.014-30.025-43.309 56.649-13.421-44.146-33.935 43.187-30.224-48.703-8.851 25.108-51.715-50.604 11.24 10.125-55.203-51.629 28.618-7.115-56.387-36.327 44.77-34.467-44.741-7.864 50.613-55.415-25.975 19.156 53.949-59.624-10.203 32.788 47.149-58.33 14.215 46.742 32.633-42.198 34.998 54.104 12.512-33.963 44.234 59.763-7.039-12.937 52.246 50.665-28.084 10.863 51.846L475.6 326.02z" style="fill:#f8ef85"/><ellipse ry="105.183" rx="104.179" cy="209.325" cx="475.849" style="fill:#ff0;fill-opacity:.60975611"/><ellipse ry="100.136" rx="99.181" cy="209.591" cx="476.112" style="fill:#fdcb07;fill-opacity:1"/><path d="M401.162 172.164s-27.622-44.687-90.727-44.687c-124.217 0-137.295 105.969-137.295 105.969s-76.609 8.655-76.659 89.039c-.034 54.856 28.533 79.036 47.395 90.039 8.125 4.739 15.997 10.156 48.749 10.156h300.619c44.687 0 53.528-8.669 60.936-13.541 16.975-11.165 41.302-35.817 41.301-88.628-.001-80.212-84.98-88.23-84.98-88.23s-.193-28.947-34.185-51.991c-37.646-25.523-75.154-8.126-75.154-8.126z" style="fill-rule:evenodd;clip-rule:evenodd;fill:#ccc"/><path d="M393.714 193.831s-42.649-58.551-128.424-34.414c-77.13 21.705-74.02 85.872-74.02 85.872s-75.511 8.426-77.785 78.887c-2.109 65.329 37.838 76.162 43.255 78.87 6.747 3.373 13.541 5.417 29.741 5.44l325.044-.023c8.802 0 8.802 0 17.604-2.708 9.333-2.872 54.166-22.343 49.426-73.801-6.452-70.05-79.217-76.509-79.217-76.509s4.048-30.734-28.437-54.166c-35.057-25.286-77.187-7.448-77.187-7.448z" style="fill-rule:evenodd;clip-rule:evenodd;fill:#e6e6e6"/><path d="M398.231 189.091s-42.808-69.839-126.012-47.754c-74.818 19.861-83.026 99.888-83.026 99.888s-76.05 6.591-75.108 71.092c.654 44.788 36.139 65.236 53.513 72.683 6.656 2.853 13.93 4.503 21.357 4.503H512.94c8.203 0 15.881-2.555 22.958-6.094 6.771-3.385 41.581-16.251 41.978-62.29.675-78.209-74.478-71.769-74.478-71.769s.253-35.785-31.258-57.226c-34.003-23.137-73.909-3.033-73.909-3.033z" style="fill-rule:evenodd;clip-rule:evenodd;fill:#999"/><linearGradient y2="154.55" x2="347.631" y1="370.079" x1="347.631" gradientUnits="userSpaceOnUse" id="a"><stop style="stop-color:#dfd8d9" offset=".25"/><stop style="stop-color:#eae6e7" offset=".329"/><stop style="stop-color:#f4f2f2" offset=".443"/><stop style="stop-color:#f9f9f9" offset=".6"/><stop style="stop-color:#fbfbfb" offset="1"/></linearGradient><path d="M229.863 327.89s16.944 27.807 56.197 27.083c41.515-.766 60.936-30.468 60.936-30.468s7.337 32.452 54.166 33.176c38.56.596 47.395-26.406 47.395-26.406s9.849 44.246 68.384 40.624c15.195-.94 51.769-15.108 52.134-50.47.689-66.64-75.155-63.278-75.155-63.278s0-23.02-20.989-45.364c-30.98-32.979-81.248-10.833-81.248-10.833s-24.164-47.314-95.583-45.313c-86.405 2.419-98.736 94.739-98.736 94.739s-74.107-2.756-71.092 62.805c2.031 44.172 37.103 48.234 59.582 48.234 30.989.002 44.009-34.529 44.009-34.529z" style="fill-rule:evenodd;clip-rule:evenodd;fill:url(#a)"/><path d="M232.569 350.605s21.704 21.586 58.992 20.897c39.437-.728 54.298-21.331 54.298-21.331s16.033 22.406 58.688 22.406c36.823 0 52.134-22.343 52.134-22.343s8.125 23.02 49.426 22.343c40.624-.666 53.488-20.312 53.488-41.978 0-51.653-72.446-43.332-72.446-43.332s3.216-36.062-21.666-57.551c-29.791-25.729-74.478-6.771-74.478-6.771s-24.21-42.655-92.081-42.655c-85.988 0-99.529 96.144-99.529 96.144s-67.03-14.253-67.03 44.687c0 37.239 31.457 47.395 52.811 47.395 29.439-.002 47.393-17.911 47.393-17.911z" style="fill-rule:evenodd;clip-rule:evenodd;fill:#ccd4d9;fill-opacity:1"/><g><path d="M490.338 444.075s5.533 83.169-3.382 103.628c-7.203 16.53-25.012 27.187-48.102 22.331-16.048-3.375-45.814-24.632-34.194-55.98 11.892-32.081 85.678-69.979 85.678-69.979z" style="fill:#626b6e"/><path d="M486.594 450.122s4.659 67.909-2.848 84.614c-6.065 13.497-21.064 22.203-40.506 18.234-20.534-4.192-38.58-20.113-28.795-45.708 10.014-26.196 72.149-57.14 72.149-57.14z" style="fill:#949fa2"/><path d="M474.872 461.627s-6.675 39.598-11.408 50.1c-6.913 15.34-15.301 19.04-28.344 17.16-9.065-1.307-19.419-9.406-13.623-25.578 5.932-16.551 53.375-41.682 53.375-41.682z" style="fill:#fff"/></g><g><path d="M375.338 444.075s5.533 83.169-3.382 103.628c-7.203 16.53-25.012 27.187-48.102 22.331-16.048-3.375-45.814-24.632-34.194-55.98 11.892-32.081 85.678-69.979 85.678-69.979z" style="fill:#626b6e"/><path d="M371.594 450.122s4.659 67.909-2.848 84.614c-6.065 13.497-21.064 22.203-40.506 18.234-20.534-4.192-38.58-20.113-28.795-45.708 10.014-26.196 72.149-57.14 72.149-57.14z" style="fill:#949fa2"/><path d="M359.872 461.627s-6.675 39.598-11.408 50.1c-6.913 15.34-15.301 19.04-28.344 17.16-9.065-1.307-19.419-9.406-13.623-25.578 5.932-16.551 53.375-41.682 53.375-41.682z" style="fill:#fff"/></g><g><path d="M260.338 444.075s5.533 83.169-3.382 103.628c-7.203 16.53-25.012 27.187-48.102 22.331-16.048-3.375-45.814-24.632-34.194-55.98 11.892-32.081 85.678-69.979 85.678-69.979z" style="fill:#626b6e"/><path d="M256.594 450.122s4.659 67.909-2.848 84.614c-6.065 13.497-21.064 22.203-40.506 18.234-20.534-4.192-38.58-20.113-28.795-45.708 10.014-26.196 72.149-57.14 72.149-57.14z" style="fill:#949fa2"/><path d="M244.872 461.627s-6.675 39.598-11.408 50.1c-6.913 15.34-15.301 19.04-28.344 17.16-9.065-1.307-19.419-9.406-13.623-25.578 5.932-16.551 53.375-41.682 53.375-41.682z" style="fill:#fff"/></g></svg>