<svg xmlns="http://www.w3.org/2000/svg" xml:space="preserve" style="enable-background:new 0 0 750 600" viewBox="0 0 750 600"><path style="fill:#f3a51e;fill-opacity:1" d="m365.761 35.356 57.157 74.191 60.202-74.191 11.652 92.326 83.285-46.163-16.33 89.029 81.652-18.135-40.826 84.083 81.652 14.838-71.854 50.285 71.854 55.231-91.45 21.663 48.991 70.664-86.551-9.892 14.697 82.434-71.854-42.866-14.918 85.732-60.202-72.542-50.625 72.542-17.963-85.732-83.286 46.164 21.23-85.732-97.983 11.541 55.524-72.313-86.552-20.014 68.588-56.88-76.753-53.582 94.717-23.082-53.891-77.488 96.35 16.486-31.028-87.38 91.451 42.866z"/><path d="m369.97 576-18.867-90.045-87.095 48.274 22.173-89.539-102.265 12.045 57.827-75.312-88.667-20.503 71.123-58.982L144 245.951l98.147-23.918-56.349-81.023 99.473 17.021-32.091-90.373 95.909 44.955L362.856 24l60.155 78.083 63.33-78.045 12.151 96.271 85.871-47.598-16.835 91.78 84.204-18.702-42.348 87.217L696 248.746l-75.804 53.049 74.587 57.333-94.343 22.348 50.95 73.49-90.558-10.351 15.383 86.285-74.787-44.615-15.48 88.96-62.714-75.57L369.97 576zm52.632-91.589 57.689 69.515 14.356-82.504 68.921 41.116-14.012-78.584 82.546 9.435-47.032-67.839 88.557-20.978-69.12-53.13 67.902-47.52-76.689-13.937 39.305-80.95-79.101 17.569 15.826-86.278-80.698 44.729-11.154-88.382-57.073 70.336-54.159-70.299-12.36 79.553-86.994-40.777 29.965 84.387-93.227-15.953 51.432 73.955-91.286 22.245 73.308 51.177-66.054 54.779 84.435 19.524-53.221 69.314 93.702-11.037-20.287 81.925 79.477-44.052 17.059 81.419 47.987-68.758z" style="fill:#f7ee85"/><ellipse ry="163.22" rx="161.672" cy="301.619" cx="422.918" style="fill:#ff0;fill-opacity:.67944252"/><ellipse ry="155.389" rx="153.915" cy="302.031" cx="423.326" style="fill:#fbca0c;fill-opacity:1"/><g><path d="M124.62 512.687c49.076 2.955 196.662 0 196.662 0 12.249 0 29.261-3.144 31.983-3.773 0 0 49.676-18.234 44.913-77.337-4.503-55.872-71.496-54.324-71.496-54.324S313.757 314 229.416 314c-68.997 0-83.701 38.983-83.701 38.983s-91.8-8.309-92.213 72.59c-.239 46.865 19.972 84.034 71.118 87.114z" style="fill-rule:evenodd;clip-rule:evenodd;fill:#b3b3b3"/><path d="M139.373 506.416c44.573-.503 178.304 0 178.304 0 32.699 0 73.485-21.18 68.933-69.809-4.303-45.97-73.493-40.24-73.493-40.24s-3.101-47.157-83.701-47.157c-65.936 0-74.854 33.953-74.854 33.953s-74.862-2.324-86.486 37.562c-5.109 17.53 3.778 86.453 71.297 85.691z" style="fill-rule:evenodd;clip-rule:evenodd;fill:#ececec"/><path d="M136.737 491.309h180.89c11.266 0 26.914-2.587 29.418-3.104 0 0 45.692-15.003 41.31-63.632-4.142-45.97-67.442-40.015-67.442-40.015s-11.198-61.756-88.775-61.756c-63.463 0-79.318 42.977-79.318 42.977s-88.072-22.083-87.982 62.037c.03 29.022 26.448 63.493 71.899 63.493z" style="fill-rule:evenodd;clip-rule:evenodd;fill:#ccc"/><path d="M322.199 391.89c-3.157 0-6.245.224-9.253.632-2.671-31.213-37.575-55.916-80.248-55.916-35.454 0-65.548 17.052-76.247 40.722-7.427-3.54-15.807-5.546-24.686-5.546-30.409 0-55.06 23.38-55.06 52.221 0 28.841 24.651 52.221 55.06 52.221 23.214 0 43.058-13.632 51.156-32.911 13.692 8.031 30.981 12.824 49.778 12.824 14.151 0 27.445-2.72 38.995-7.489 7.619 16.019 27.354 27.434 50.506 27.434 29.751 0 53.869-18.847 53.869-42.097-.001-23.247-24.119-42.095-53.87-42.095z" style="fill-rule:evenodd;clip-rule:evenodd;fill:#ececec"/><path d="M136.181 386.087c8.281 0 15.961 2.149 22.796 5.617 10.337-25.538 38.531-43.897 71.786-43.897 37.471 0 68.539 23.294 74.827 53.928 4.362-1.023 8.883-1.742 13.657-1.742 26.983 0 48.857 17.521 48.857 39.134s-21.874 39.134-48.857 39.134c-15.943 0-29.966-6.208-38.884-15.672-13.322 9.865-30.63 15.869-49.601 15.869-21.239 0-40.423-7.493-54.222-19.549-8.797 12.287-23.582 20.366-40.36 20.366-26.984 0-48.857-20.861-48.857-46.595.001-25.732 21.875-46.593 48.858-46.593z" style="fill-rule:evenodd;clip-rule:evenodd;fill:#dae2e7;fill-opacity:1"/></g></svg>