<svg xmlns="http://www.w3.org/2000/svg" xml:space="preserve" style="enable-background:new 0 0 750 600" viewBox="0 0 750 600"><path d="M368.753 92.196s-28.977-45.11-95.177-45.11c-130.309 0-144.029 106.973-144.029 106.973s-80.366 8.737-80.419 89.882c-.035 55.376 29.932 79.785 49.719 90.892 8.523 4.784 16.781 10.252 51.14 10.252H465.35c46.878 0 56.154-8.751 63.925-13.67 17.807-11.271 43.328-36.156 43.327-89.468-.001-80.972-89.148-89.066-89.148-89.066s-.202-29.221-35.861-52.484c-39.492-25.764-78.84-8.201-78.84-8.201z" style="fill-rule:evenodd;clip-rule:evenodd;fill:#e6e6e6"/><linearGradient y2="73.437" x2="311.047" y1="330.756" x1="311.047" gradientUnits="userSpaceOnUse" id="a"><stop style="stop-color:#838587" offset="0"/><stop style="stop-color:#e3eff5" offset=".249"/></linearGradient><path d="M360.94 114.067s-44.741-59.106-134.723-34.741c-80.913 21.91-77.65 86.686-77.65 86.686s-79.214 8.506-81.601 79.635c-2.212 65.948 39.694 76.883 45.376 79.617 7.078 3.405 14.206 5.468 31.199 5.491l340.986-.023c9.234 0 9.234 0 18.467-2.734 9.791-2.899 56.822-22.555 51.85-74.5-6.768-70.714-83.103-77.234-83.103-77.234s4.246-31.025-29.832-54.679c-36.772-25.524-80.969-7.518-80.969-7.518z" style="fill-rule:evenodd;clip-rule:evenodd;fill:url(#a)"/><path d="M365.679 109.283s-44.908-70.501-132.193-48.206c-78.488 20.049-87.099 100.835-87.099 100.835s-79.78 6.653-78.792 71.766c.686 45.212 37.911 65.854 56.138 73.372 6.982 2.88 14.613 4.545 22.404 4.545h339.877c8.605 0 16.66-2.579 24.084-6.151 7.103-3.417 43.62-16.405 44.037-62.881.708-78.95-78.131-72.45-78.131-72.45s.266-36.124-32.791-57.768c-35.672-23.356-77.534-3.062-77.534-3.062z" style="fill-rule:evenodd;clip-rule:evenodd;fill:#b3b3b3"/><path d="M189.053 249.398s17.775 28.071 58.953 27.339c43.551-.773 63.925-30.757 63.925-30.757s7.697 32.76 56.822 33.491c40.452.602 49.719-26.656 49.719-26.656s10.332 44.665 71.738 41.009c15.94-.949 54.308-15.251 54.691-50.948.722-67.271-78.841-63.878-78.841-63.878s0-23.239-22.019-45.794c-32.5-33.292-85.233-10.936-85.233-10.936s-25.348-47.761-100.27-45.741c-90.643 2.442-103.579 95.637-103.579 95.637s-77.742-2.782-74.579 63.4c2.131 44.59 38.922 48.691 62.504 48.691 32.51 0 46.169-34.857 46.169-34.857z" style="fill-rule:evenodd;clip-rule:evenodd;fill:#e6e6e6"/><path d="M191.891 272.327s22.768 21.79 61.886 21.096c41.372-.735 56.961-21.533 56.961-21.533s16.819 22.618 61.567 22.618c38.629 0 54.691-22.555 54.691-22.555s8.523 23.239 51.85 22.555c42.617-.672 56.112-20.505 56.112-42.376 0-52.143-76-43.743-76-43.743s3.374-36.403-22.729-58.096c-31.252-25.972-78.131-6.835-78.131-6.835s-25.397-43.06-96.598-43.06c-90.205 0-104.411 97.055-104.411 97.055s-70.318-14.389-70.318 45.11c0 37.592 33 47.844 55.402 47.844 30.884 0 49.718-18.08 49.718-18.08z" style="fill-rule:evenodd;clip-rule:evenodd;fill:#999"/><g><path style="fill-rule:evenodd;clip-rule:evenodd;fill:#f2a21e;fill-opacity:1" d="M218.222 252.909h96.506l-82.619 124.527 37.976-.209L83.273 554.486l92.661-160.138-51.741-1.834z"/><path d="M83.273 557.698a2.796 2.796 0 0 1-1.916-.774c-1.108-1.037-1.351-2.805-.572-4.152l89.917-155.396-46.604-1.652c-1.104-.04-2.095-.75-2.566-1.84-.471-1.09-.343-2.376.331-3.33l94.029-139.605c.557-.789 1.418-1.251 2.33-1.251h96.505c1.119 0 2.141.692 2.637 1.786.496 1.095.381 2.402-.298 3.373l-78.99 119.335 31.993-.176h.015c1.225 0 2.321.828 2.753 2.079.434 1.257.106 2.676-.823 3.556L85.203 556.91a2.796 2.796 0 0 1-1.93.788zm46.759-168.19 45.997 1.629c1.054.038 2.01.689 2.504 1.706a3.467 3.467 0 0 1-.111 3.219L96.449 537.729 262.17 380.483l-30.046.164h-.01c-1.121 0-2.141-.689-2.638-1.78-.5-1.095-.386-2.406.294-3.379l79.013-119.368H219.67l-89.638 133.388z" style="fill:#fbf396"/><path style="fill-rule:evenodd;clip-rule:evenodd;fill:#fdda50;fill-opacity:1" d="m219.669 256.12-50.344 74.917 100.308-15.773 39.15-59.144z"/><path style="fill-rule:evenodd;clip-rule:evenodd;fill:#f89c2c;fill-opacity:1" d="M209.39 430.564 96.449 537.729l52.603-90.91z"/></g><g><path d="M412.16 343.717c51.049 3.08 204.569 0 204.569 0 12.741 0 30.438-3.277 33.269-3.932 0 0 51.673-19.005 46.718-80.609-4.684-58.235-74.37-56.623-74.37-56.623s-13.445-65.929-101.177-65.929c-71.771 0-87.066 40.632-87.066 40.632s-95.49-8.661-95.92 75.661c-.249 48.849 20.774 87.59 73.977 90.8z" style="fill-rule:evenodd;clip-rule:evenodd;fill:#e6e6e6"/><path d="M427.507 337.181c46.365-.524 185.472 0 185.472 0 34.014 0 76.439-22.076 71.704-72.762-4.476-47.915-76.448-41.943-76.448-41.943s-3.225-49.152-87.066-49.152c-68.587 0-77.864 35.389-77.864 35.389s-77.871-2.422-89.963 39.151c-5.314 18.273 3.931 90.112 74.165 89.317z" style="fill-rule:evenodd;clip-rule:evenodd;fill:#ccc"/><path d="M424.764 321.435h188.162c11.719 0 27.996-2.696 30.601-3.235 0 0 47.529-15.637 42.971-66.324-4.308-47.915-70.154-41.708-70.154-41.708S604.697 145.8 524.001 145.8c-66.015 0-82.507 44.795-82.507 44.795s-91.612-23.017-91.519 64.661c.031 30.25 27.511 66.179 74.789 66.179z" style="fill-rule:evenodd;clip-rule:evenodd;fill:#999;fill-opacity:1"/><linearGradient y2="160.187" x2="518.018" y1="305.713" x1="518.018" gradientUnits="userSpaceOnUse" id="b"><stop style="stop-color:#d2ccce" offset=".25"/><stop style="stop-color:#dad6d8" offset=".311"/><stop style="stop-color:#e3e2e3" offset=".428"/><stop style="stop-color:#e8e9ea" offset=".589"/><stop style="stop-color:#eaebec" offset="1"/></linearGradient><path d="M617.683 217.81c-3.284 0-6.496.234-9.625.658-2.779-32.534-39.085-58.282-83.474-58.282-36.879 0-68.183 17.773-79.313 42.445-7.725-3.69-16.443-5.78-25.678-5.78-31.631 0-57.274 24.369-57.274 54.431 0 30.061 25.642 54.431 57.274 54.431 24.147 0 44.789-14.209 53.212-34.303 14.243 8.37 32.227 13.367 51.779 13.367 14.72 0 28.548-2.835 40.563-7.806 7.925 16.697 28.454 28.595 52.536 28.595 30.947 0 56.035-19.645 56.035-43.878s-25.088-43.878-56.035-43.878z" style="fill-rule:evenodd;clip-rule:evenodd;fill:url(#b)"/><path d="M424.186 211.762c8.614 0 16.603 2.24 23.713 5.855 10.752-26.618 40.081-45.754 74.672-45.754 38.978 0 71.295 24.279 77.836 56.21 4.537-1.066 9.24-1.816 14.206-1.816 28.068 0 50.822 18.262 50.822 40.79s-22.754 40.79-50.822 40.79c-16.584 0-31.171-6.471-40.447-16.335-13.858 10.283-31.862 16.54-51.595 16.54-22.093 0-42.048-7.81-56.402-20.376-9.151 12.807-24.53 21.228-41.983 21.228-28.068 0-50.822-21.744-50.822-48.566s22.754-48.566 50.822-48.566z" style="fill-rule:evenodd;clip-rule:evenodd;fill:gray;fill-opacity:1"/></g><g><path d="M588.303 366.431s5.533 83.169-3.382 103.628c-7.203 16.53-25.012 27.187-48.102 22.331-16.048-3.375-45.814-24.632-34.194-55.98 11.892-32.082 85.678-69.979 85.678-69.979z" style="fill:#626b6e"/><path d="M584.559 372.478s4.659 67.909-2.848 84.614c-6.065 13.497-21.064 22.203-40.506 18.234-20.534-4.192-38.58-20.113-28.795-45.708 10.014-26.196 72.149-57.14 72.149-57.14z" style="fill:#949fa2"/><path d="M572.837 383.982s-6.675 39.598-11.408 50.1c-6.913 15.34-15.301 19.04-28.344 17.16-9.065-1.307-19.419-9.406-13.623-25.578 5.932-16.551 53.375-41.682 53.375-41.682z" style="fill:#fff"/></g><g><path d="M473.303 431.431s5.533 83.169-3.382 103.628c-7.203 16.531-25.012 27.187-48.102 22.331-16.048-3.375-45.814-24.632-34.194-55.98 11.892-32.082 85.678-69.979 85.678-69.979z" style="fill:#626b6e"/><path d="M469.559 437.478s4.659 67.909-2.848 84.614c-6.065 13.497-21.064 22.203-40.506 18.234-20.534-4.192-38.58-20.113-28.795-45.708 10.014-26.196 72.149-57.14 72.149-57.14z" style="fill:#949fa2"/><path d="M457.837 448.982s-6.675 39.598-11.408 50.1c-6.913 15.34-15.301 19.04-28.344 17.16-9.065-1.307-19.419-9.406-13.623-25.578 5.933-16.551 53.375-41.682 53.375-41.682z" style="fill:#fff"/></g><g><path d="M381.303 366.431s5.533 83.169-3.382 103.628c-7.203 16.53-25.012 27.187-48.102 22.331-16.048-3.375-45.814-24.632-34.194-55.98 11.892-32.082 85.678-69.979 85.678-69.979z" style="fill:#626b6e"/><path d="M377.559 372.478s4.659 67.909-2.848 84.614c-6.065 13.497-21.064 22.203-40.506 18.234-20.534-4.192-38.58-20.113-28.795-45.708 10.014-26.196 72.149-57.14 72.149-57.14z" style="fill:#949fa2"/><path d="M365.837 383.982s-6.675 39.598-11.408 50.1c-6.913 15.34-15.301 19.04-28.344 17.16-9.065-1.307-19.419-9.406-13.623-25.578 5.933-16.551 53.375-41.682 53.375-41.682z" style="fill:#fff"/></g></svg>