<svg xmlns="http://www.w3.org/2000/svg" xml:space="preserve" style="enable-background:new 0 0 750 600" viewBox="0 0 750 600"><path d="m407.836 374.598-12.185-58.158-56.197 31.151 14.303-57.763-65.959 7.769 37.28-48.555-56.961-13.172 45.81-37.992-51.739-36.122 63.206-15.403-36.358-52.281 64.01 10.954-20.658-58.181 61.922 29.028 8.898-57.274 38.868 50.454 40.915-50.425 7.835 62.084 55.242-30.621-10.83 59.045 54.171-12.033-27.278 56.182 56.057 10.188-49.004 34.296 48.052 36.937-60.699 14.38 32.838 47.366-58.439-6.679 9.928 55.689-48.208-28.76-9.972 57.309-40.434-48.725-34.414 49.312zm33.918-61.25 36.505 43.99 9.094-52.262 43.622 26.025-8.856-49.668 52.175 5.964-29.774-42.947 56.176-13.308-43.778-33.652 42.826-29.972-48.296-8.777 24.898-51.282-50.181 11.146 10.041-54.742-51.197 28.379-7.056-55.915-36.024 44.396-34.179-44.368-7.798 50.19L345 60.786l18.996 53.498-59.126-10.118 32.514 46.755-57.842 14.096 46.351 32.361-41.846 34.705 53.652 12.408-33.679 43.864 59.264-6.981-12.829 51.81 50.241-27.849 10.772 51.413 30.286-43.4z" style="fill:#f8ef85"/><path style="fill:#f4a51d;fill-opacity:1" d="m405.478 27.476 36.523 47.411 38.47-47.411 7.445 59 53.22-29.5-10.435 56.893 52.176-11.589-26.088 53.732 52.176 9.482-45.915 32.134 45.915 35.295-58.437 13.844 31.305 45.156-55.306-6.321 9.391 52.678-45.915-27.392-9.532 54.785-38.47-46.357-32.349 46.357-11.479-54.785-53.219 29.5 13.566-54.786-62.612 7.375 35.48-46.21-55.307-12.79 43.828-36.349-49.045-34.241 60.524-14.75-34.436-49.518 61.568 10.536-19.827-55.839 58.437 27.393z"/><ellipse ry="104.304" rx="103.309" cy="197.628" cx="442.001" style="fill:#ff0;fill-opacity:.66202092"/><ellipse ry="99.299" rx="98.352" cy="197.892" cx="442.262" style="fill:#fdcb07;fill-opacity:1"/><path d="M429.132 439.738c49.645 2.995 198.943 0 198.943 0 12.391 0 29.6-3.187 32.354-3.824 0 0 50.252-18.483 45.433-78.392-4.555-56.633-72.325-55.065-72.325-55.065s-13.075-64.116-98.394-64.116c-69.797 0-84.671 39.514-84.671 39.514s-92.864-8.423-93.282 73.58c-.242 47.505 20.203 85.181 71.942 88.303z" style="fill-rule:evenodd;clip-rule:evenodd;fill:#e6e6e6"/><path d="M444.057 433.382c45.09-.51 180.371 0 180.371 0 33.078 0 74.337-21.469 69.732-70.761-4.353-46.597-74.345-40.789-74.345-40.789s-3.137-47.8-84.671-47.8c-66.7 0-75.722 34.416-75.722 34.416s-75.73-2.356-87.489 38.074c-5.169 17.77 3.822 87.632 72.124 86.86z" style="fill-rule:evenodd;clip-rule:evenodd;fill:#ccc"/><path d="M441.389 418.069h182.987c11.397 0 27.226-2.622 29.759-3.146 0 0 46.222-15.207 41.789-64.499-4.19-46.597-68.224-40.561-68.224-40.561s-11.328-62.598-89.804-62.598c-64.199 0-80.238 43.563-80.238 43.563s-89.093-22.384-89.002 62.883c.032 29.417 26.756 64.358 72.733 64.358z" style="fill-rule:evenodd;clip-rule:evenodd;fill:#b3b3b3"/><path d="M629.002 317.294a69.53 69.53 0 0 0-9.36.64c-2.702-31.639-38.01-56.679-81.178-56.679-35.865 0-66.308 17.285-77.131 41.278-7.513-3.589-15.99-5.621-24.972-5.621-30.761 0-55.699 23.699-55.699 52.934 0 29.234 24.937 52.934 55.699 52.934 23.483 0 43.557-13.818 51.749-33.359 13.851 8.14 31.341 12.999 50.355 12.999 14.315 0 27.763-2.757 39.448-7.591 7.707 16.238 27.671 27.808 51.091 27.808 30.096 0 54.494-19.104 54.494-42.671-.002-23.568-24.4-42.672-54.496-42.672z" style="fill-rule:evenodd;clip-rule:evenodd;fill:#f2f2f2"/><path d="M440.828 311.412c8.377 0 16.146 2.179 23.06 5.694 10.457-25.886 38.978-44.496 72.618-44.496 37.906 0 69.334 23.611 75.695 54.664 4.412-1.036 8.986-1.766 13.815-1.766 27.296 0 49.424 17.76 49.424 39.668 0 21.908-22.128 39.668-49.424 39.668-16.128 0-30.314-6.293-39.335-15.886-13.477 10-30.985 16.086-50.176 16.086-21.485 0-40.892-7.595-54.85-19.816-8.899 12.455-23.856 20.644-40.828 20.644-27.297 0-49.424-21.146-49.424-47.23.001-26.084 22.128-47.23 49.425-47.23z" style="fill-rule:evenodd;clip-rule:evenodd;fill:#bbc3c9;fill-opacity:1"/><g><path d="M337.404 151.465s-26.607-43.043-87.39-43.043c-119.648 0-132.245 102.071-132.245 102.071s-73.791 8.336-73.839 85.764c-.033 52.838 27.483 76.129 45.652 86.727 7.826 4.565 15.408 9.783 46.956 9.783H426.1c43.043 0 51.56-8.35 58.695-13.043 16.35-10.755 39.783-34.5 39.782-85.368-.001-77.262-81.854-84.985-81.854-84.985s-.186-27.882-32.927-50.079c-36.263-24.585-72.392-7.827-72.392-7.827z" style="fill-rule:evenodd;clip-rule:evenodd;fill:#e6e6e6"/><linearGradient y2="133.565" x2="284.42" y1="379.093" x1="284.42" gradientUnits="userSpaceOnUse" id="a"><stop style="stop-color:#adafb1" offset="0"/><stop style="stop-color:#e3eff5" offset=".249"/></linearGradient><path d="M330.23 172.334s-41.081-56.398-123.701-33.149c-74.293 20.906-71.297 82.713-71.297 82.713s-72.734 8.116-74.924 75.986c-2.031 62.926 36.447 73.36 41.664 75.969 6.499 3.249 13.043 5.217 28.647 5.24l313.089-.022c8.478 0 8.478 0 16.956-2.609 8.99-2.766 52.173-21.522 47.608-71.086-6.215-67.474-76.304-73.695-76.304-73.695s3.899-29.604-27.391-52.173c-33.766-24.355-74.347-7.174-74.347-7.174z" style="fill-rule:evenodd;clip-rule:evenodd;fill:url(#a)"/><path d="M334.581 167.769s-41.234-67.271-121.378-45.997c-72.067 19.13-79.973 96.214-79.973 96.214s-73.253 6.348-72.346 68.478c.63 43.14 34.809 62.836 51.545 70.01 6.411 2.748 13.418 4.337 20.571 4.337h312.07c7.901 0 15.297-2.461 22.114-5.87 6.522-3.261 40.052-15.654 40.434-59.999.65-75.332-71.738-69.13-71.738-69.13s.244-34.469-30.108-55.121c-32.753-22.287-71.191-2.922-71.191-2.922z" style="fill-rule:evenodd;clip-rule:evenodd;fill:#999"/><path d="M172.406 301.463s16.32 26.784 54.13 26.087c39.988-.738 58.695-29.348 58.695-29.348s7.067 31.259 52.173 31.956c37.142.574 45.652-25.435 45.652-25.435s9.486 42.619 65.869 39.13c14.636-.906 49.865-14.552 50.217-48.613.663-64.189-72.391-60.951-72.391-60.951s0-22.174-20.217-43.695c-29.841-31.766-78.26-10.435-78.26-10.435s-23.275-45.574-92.068-43.646c-83.227 2.33-95.104 91.254-95.104 91.254s-71.381-2.654-68.478 60.495c1.957 42.547 35.738 46.46 57.391 46.46 29.85.002 42.391-33.259 42.391-33.259z" style="fill-rule:evenodd;clip-rule:evenodd;fill:#ececec"/><path d="M175.012 323.342s20.906 20.792 56.823 20.129c37.987-.701 52.301-20.546 52.301-20.546s15.443 21.582 56.53 21.582c35.469 0 50.217-21.522 50.217-21.522s7.826 22.174 47.608 21.522c39.13-.641 51.521-19.565 51.521-40.434 0-49.754-69.782-41.739-69.782-41.739s3.098-34.735-20.869-55.434c-28.695-24.782-71.738-6.522-71.738-6.522s-23.319-41.087-88.695-41.087c-82.825 0-95.869 92.608-95.869 92.608s-64.565-13.729-64.565 43.043c0 35.869 30.3 45.652 50.869 45.652 28.356-.001 45.649-17.252 45.649-17.252z" style="fill-rule:evenodd;clip-rule:evenodd;fill:#b3b3b3;fill-opacity:1"/></g><g><path d="M328.309 423.792s5.091 76.537-3.112 95.364c-6.628 15.212-23.018 25.019-44.266 20.55-14.768-3.106-42.16-22.668-31.467-51.515 10.944-29.523 78.845-64.399 78.845-64.399z" style="fill:#626b6e"/><path d="M324.864 429.357s4.288 62.494-2.62 77.866c-5.582 12.421-19.384 20.433-37.276 16.78-18.896-3.858-35.503-18.509-26.499-42.063 9.215-24.106 66.395-52.583 66.395-52.583z" style="fill:#949fa2"/><path d="M314.077 439.944s-6.143 36.44-10.498 46.105c-6.361 14.117-14.081 17.522-26.084 15.792-8.342-1.203-17.871-8.655-12.537-23.538 5.459-15.232 49.119-38.359 49.119-38.359z" style="fill:#fff"/></g><g><path d="M435.441 463.49s2.778 77.433-6.085 96.189c-7.162 15.155-24.012 24.55-45.327 19.382-14.815-3.592-41.868-24.188-30.181-52.984 11.96-29.471 81.593-62.587 81.593-62.587z" style="fill:#626b6e"/><path d="M431.791 469.002s2.4 63.23-5.049 78.537c-6.019 12.369-20.202 20.032-38.154 15.791-18.96-4.479-35.275-19.783-25.456-43.287 10.048-24.054 68.659-51.041 68.659-51.041z" style="fill:#949fa2"/><path d="M420.573 479.359s-7.327 36.602-12.022 46.226c-6.859 14.057-14.758 17.256-26.823 15.139-8.386-1.472-17.776-9.291-11.931-24.152 5.981-15.211 50.776-37.213 50.776-37.213z" style="fill:#fff"/></g><g><linearGradient y2="315.629" x2="203" y1="530.37" x1="203" gradientUnits="userSpaceOnUse" id="b"><stop style="stop-color:#f2a21e" offset=".6"/><stop style="stop-color:#f7b716" offset=".652"/><stop style="stop-color:#fac112" offset=".69"/></linearGradient><path style="fill-rule:evenodd;clip-rule:evenodd;fill:url(#b)" d="M216.687 315.629h68.718L226.576 404.3l27.041-.149L120.595 530.37l65.98-114.028-36.842-1.306z"/><path d="M120.595 532.657a1.99 1.99 0 0 1-1.364-.551c-.789-.739-.962-1.997-.407-2.956l64.026-110.652-33.185-1.176c-.786-.029-1.492-.534-1.827-1.31a2.46 2.46 0 0 1 .236-2.371l66.954-99.407c.397-.562 1.009-.891 1.659-.891h68.718c.797 0 1.524.493 1.878 1.272.353.78.271 1.71-.212 2.402l-56.246 84.974 22.781-.125h.011c.872 0 1.653.59 1.96 1.48.309.895.075 1.905-.586 2.532L121.97 532.096a1.994 1.994 0 0 1-1.375.561zm33.295-119.761 32.753 1.16c.751.027 1.431.49 1.783 1.215a2.468 2.468 0 0 1-.079 2.292l-58.369 100.876L247.982 406.47l-21.395.117h-.007c-.798 0-1.524-.49-1.879-1.267a2.458 2.458 0 0 1 .21-2.406l56.262-84.997h-63.454l-63.829 94.979z" style="fill:#fbf396"/><linearGradient gradientTransform="rotate(23.648 454.295 177.432)" y2="375.547" x2="317.286" y1="464.246" x1="317.286" gradientUnits="userSpaceOnUse" id="c"><stop style="stop-color:#fdda50" offset=".749"/><stop style="stop-color:#fbca4d" offset=".879"/><stop style="stop-color:#f9c04b" offset="1"/></linearGradient><path style="fill-rule:evenodd;clip-rule:evenodd;fill:url(#c)" d="m217.718 317.916-35.849 53.345 71.426-11.231 27.877-42.114z"/><linearGradient y2="450.157" x2="164.876" y1="510.412" x1="175.5" gradientUnits="userSpaceOnUse" id="d"><stop style="stop-color:#f89c2c" offset="0"/><stop style="stop-color:#f9a82a" offset=".216"/><stop style="stop-color:#fcc725" offset=".83"/></linearGradient><path style="fill-rule:evenodd;clip-rule:evenodd;fill:url(#d)" d="m210.399 442.13-80.422 76.309 37.457-64.735z"/></g></svg>