<svg xmlns="http://www.w3.org/2000/svg" xml:space="preserve" style="enable-background:new 0 0 750 600" viewBox="0 0 750 600"><path d="M525.803 462.431s5.533 83.169-3.382 103.628c-7.203 16.531-25.012 27.187-48.102 22.331-16.048-3.375-45.814-24.632-34.194-55.98 11.892-32.082 85.678-69.979 85.678-69.979z" style="fill:#626b6e"/><path d="M522.059 468.478s4.659 67.91-2.848 84.614c-6.065 13.497-21.064 22.203-40.506 18.234-20.534-4.192-38.58-20.113-28.795-45.708 10.014-26.196 72.149-57.14 72.149-57.14z" style="fill:#949fa2"/><path d="M510.337 479.982s-6.675 39.598-11.408 50.1c-6.913 15.34-15.301 19.04-28.344 17.16-9.065-1.307-19.419-9.406-13.623-25.578 5.933-16.551 53.375-41.682 53.375-41.682z" style="fill:#fff"/><path d="M410.803 462.431s5.533 83.169-3.382 103.628c-7.203 16.531-25.012 27.187-48.102 22.331-16.048-3.375-45.814-24.632-34.194-55.98 11.892-32.082 85.678-69.979 85.678-69.979z" style="fill:#626b6e"/><path d="M407.059 468.478s4.659 67.91-2.848 84.614c-6.065 13.497-21.064 22.203-40.506 18.234-20.534-4.192-38.58-20.113-28.795-45.708 10.014-26.196 72.149-57.14 72.149-57.14z" style="fill:#949fa2"/><path d="M395.337 479.982s-6.675 39.598-11.408 50.1c-6.913 15.34-15.301 19.04-28.344 17.16-9.065-1.307-19.419-9.406-13.623-25.578 5.933-16.551 53.375-41.682 53.375-41.682z" style="fill:#fff"/><path d="M295.803 462.431s5.533 83.169-3.382 103.628c-7.203 16.531-25.012 27.187-48.102 22.331-16.048-3.375-45.814-24.632-34.194-55.98 11.892-32.082 85.678-69.979 85.678-69.979z" style="fill:#626b6e"/><path d="M292.059 468.478s4.659 67.91-2.848 84.614c-6.065 13.497-21.064 22.203-40.506 18.234-20.534-4.192-38.58-20.113-28.795-45.708 10.014-26.196 72.149-57.14 72.149-57.14z" style="fill:#949fa2"/><path d="M280.337 479.982s-6.675 39.598-11.408 50.1c-6.913 15.34-15.301 19.04-28.344 17.16-9.065-1.307-19.419-9.406-13.623-25.578 5.932-16.551 53.375-41.682 53.375-41.682z" style="fill:#fff"/><path d="M180.803 462.431s5.533 83.169-3.382 103.628c-7.203 16.531-25.012 27.187-48.102 22.331-16.048-3.375-45.814-24.632-34.194-55.98 11.892-32.082 85.678-69.979 85.678-69.979z" style="fill:#626b6e"/><path d="M177.059 468.478s4.659 67.91-2.848 84.614c-6.065 13.497-21.064 22.203-40.506 18.234-20.534-4.192-38.58-20.113-28.795-45.708 10.014-26.196 72.149-57.14 72.149-57.14z" style="fill:#949fa2"/><path d="M165.337 479.982s-6.675 39.598-11.408 50.1c-6.913 15.34-15.301 19.04-28.344 17.16-9.065-1.307-19.419-9.406-13.623-25.578 5.932-16.551 53.375-41.682 53.375-41.682z" style="fill:#fff"/><g><path d="M595.803 321.431s5.533 83.169-3.382 103.628c-7.203 16.53-25.012 27.187-48.102 22.331-16.048-3.375-45.814-24.632-34.194-55.98 11.892-32.082 85.678-69.979 85.678-69.979z" style="fill:#626b6e"/><path d="M592.059 327.478s4.659 67.909-2.848 84.614c-6.065 13.497-21.064 22.203-40.506 18.234-20.534-4.192-38.58-20.113-28.795-45.708 10.014-26.196 72.149-57.14 72.149-57.14z" style="fill:#949fa2"/><path d="M580.337 338.982s-6.675 39.598-11.408 50.1c-6.913 15.34-15.301 19.04-28.344 17.16-9.065-1.307-19.419-9.406-13.623-25.578 5.932-16.551 53.375-41.682 53.375-41.682z" style="fill:#fff"/></g><g><path d="M480.803 321.431s5.533 83.169-3.382 103.628c-7.203 16.53-25.012 27.187-48.102 22.331-16.048-3.375-45.814-24.632-34.194-55.98 11.892-32.082 85.678-69.979 85.678-69.979z" style="fill:#626b6e"/><path d="M477.059 327.478s4.659 67.909-2.848 84.614c-6.065 13.497-21.064 22.203-40.506 18.234-20.534-4.192-38.58-20.113-28.795-45.708 10.014-26.196 72.149-57.14 72.149-57.14z" style="fill:#949fa2"/><path d="M465.337 338.982s-6.675 39.598-11.408 50.1c-6.913 15.34-15.301 19.04-28.344 17.16-9.065-1.307-19.419-9.406-13.623-25.578 5.933-16.551 53.375-41.682 53.375-41.682z" style="fill:#fff"/></g><g><path d="M365.803 321.431s5.533 83.169-3.382 103.628c-7.203 16.53-25.012 27.187-48.102 22.331-16.048-3.375-45.814-24.632-34.194-55.98 11.892-32.082 85.678-69.979 85.678-69.979z" style="fill:#626b6e"/><path d="M362.059 327.478s4.659 67.909-2.848 84.614c-6.065 13.497-21.064 22.203-40.506 18.234-20.534-4.192-38.58-20.113-28.795-45.708 10.014-26.196 72.149-57.14 72.149-57.14z" style="fill:#949fa2"/><path d="M350.337 338.982s-6.675 39.598-11.408 50.1c-6.913 15.34-15.301 19.04-28.344 17.16-9.065-1.307-19.419-9.406-13.623-25.578 5.933-16.551 53.375-41.682 53.375-41.682z" style="fill:#fff"/></g><g><path d="M250.803 321.431s5.533 83.169-3.382 103.628c-7.203 16.53-25.012 27.187-48.102 22.331-16.048-3.375-45.814-24.632-34.194-55.98 11.892-32.082 85.678-69.979 85.678-69.979z" style="fill:#626b6e"/><path d="M247.059 327.478s4.659 67.909-2.848 84.614c-6.065 13.497-21.064 22.203-40.506 18.234-20.534-4.192-38.58-20.113-28.795-45.708 10.014-26.196 72.149-57.14 72.149-57.14z" style="fill:#949fa2"/><path d="M235.337 338.982s-6.675 39.598-11.408 50.1c-6.913 15.34-15.301 19.04-28.344 17.16-9.065-1.307-19.419-9.406-13.623-25.578 5.932-16.551 53.375-41.682 53.375-41.682z" style="fill:#fff"/></g><g><path d="M349.42 59.128S322.679 17.5 261.589 17.5c-120.252 0-132.913 98.717-132.913 98.717s-74.164 8.062-74.212 82.945c-.033 51.102 27.622 73.627 45.882 83.877 7.865 4.415 15.486 9.461 47.193 9.461h291.023c43.26 0 51.82-8.075 58.991-12.615 16.433-10.401 39.984-33.366 39.983-82.562-.001-74.722-82.267-82.192-82.267-82.192s-.187-26.966-33.093-48.433c-36.445-23.776-72.756-7.57-72.756-7.57z" style="fill-rule:evenodd;clip-rule:evenodd;fill:#ccc"/><path d="M342.21 79.297s-41.288-54.531-124.325-32.052c-74.668 20.214-71.657 79.976-71.657 79.976s-73.101 7.847-75.303 73.471c-2.042 60.843 36.63 70.932 41.874 73.455 6.532 3.142 13.109 5.045 28.791 5.066l314.669-.022c8.521 0 8.521 0 17.042-2.522 9.035-2.675 52.437-20.809 47.848-68.733-6.246-65.241-76.689-71.256-76.689-71.256s3.919-28.624-27.529-50.447c-33.936-23.549-74.721-6.936-74.721-6.936z" style="fill-rule:evenodd;clip-rule:evenodd;fill:#e6e6e6"/><path d="M346.583 74.883s-41.807-60.296-122.355-39.727c-72.43 18.497-80.011 88.281-80.011 88.281s-73.623 6.138-72.711 66.211c.633 41.713 34.985 60.757 51.805 67.693 6.443 2.657 13.486 4.194 20.675 4.194H457.63c7.941 0 15.374-2.379 22.225-5.675 6.555-3.153 40.638-15.134 40.638-58.014 0-59.95-72.1-66.842-72.1-66.842s-1.612-29.217-32.117-49.185c-32.919-21.548-69.693-6.936-69.693-6.936z" style="fill-rule:evenodd;clip-rule:evenodd;fill:#b3b3b3;fill-opacity:1"/><linearGradient y2="42.713" x2="297.598" y1="243.445" x1="297.598" gradientUnits="userSpaceOnUse" id="a"><stop style="stop-color:#dfd8d9" offset=".25"/><stop style="stop-color:#dfd8d9" offset=".251"/><stop style="stop-color:#d8d7d8" offset=".462"/><stop style="stop-color:#d6d7d8" offset="1"/></linearGradient><path d="M183.589 204.152s16.403 25.898 54.403 25.223c40.19-.714 58.991-28.376 58.991-28.376s7.103 30.224 52.437 30.898c37.33.555 45.882-24.593 45.882-24.593s9.534 41.208 66.201 37.835c14.71-.876 50.116-14.071 50.47-47.004.667-62.064-72.756-58.933-72.756-58.933s0-21.44-20.319-42.249c-29.991-30.715-78.655-10.089-78.655-10.089s-23.392-44.066-92.532-42.201c-83.647 2.253-95.584 88.234-95.584 88.234s-71.742-2.567-68.823 58.493c1.966 41.139 35.918 44.922 57.68 44.922 30 0 42.605-32.16 42.605-32.16z" style="fill-rule:evenodd;clip-rule:evenodd;fill:url(#a)"/><path d="M186.208 225.307s21.011 20.104 57.11 19.463c38.178-.678 52.564-19.866 52.564-19.866s15.521 20.867 56.815 20.867c35.648 0 50.47-20.809 50.47-20.809s7.866 21.44 47.848 20.809c39.328-.62 51.781-18.917 51.781-39.096 0-48.107-70.134-40.357-70.134-40.357s3.113-33.586-20.975-53.599c-28.84-23.962-72.1-6.306-72.1-6.306s-23.437-39.727-89.142-39.727c-83.243 0-96.352 89.543-96.352 89.543s-64.89-13.275-64.89 41.618c0 34.682 30.453 44.141 51.126 44.141 28.498-.001 45.879-16.681 45.879-16.681z" style="fill-rule:evenodd;clip-rule:evenodd;fill:#7d8488;fill-opacity:1"/></g><g><path d="M457.977 312.857c42.61 2.571 170.751 0 170.751 0 10.635 0 25.406-2.735 27.769-3.282 0 0 43.131-15.863 38.995-67.283-3.91-48.608-62.076-47.262-62.076-47.262S622.195 140 548.966 140c-59.906 0-72.673 33.915-72.673 33.915s-79.705-7.229-80.064 63.153c-.208 40.773 17.341 73.11 61.748 75.789z" style="fill-rule:evenodd;clip-rule:evenodd;fill:#e6e6e6"/><path d="M470.787 307.402c38.7-.438 154.812 0 154.812 0 28.391 0 63.803-18.426 59.85-60.734-3.736-39.994-63.81-35.009-63.81-35.009s-2.692-41.026-72.673-41.026c-57.249 0-64.992 29.539-64.992 29.539s-64.998-2.022-75.091 32.679c-4.436 15.251 3.281 75.214 61.904 74.551z" style="fill-rule:evenodd;clip-rule:evenodd;fill:#838587;fill-opacity:1"/><path d="M468.497 294.259h157.057c9.782 0 23.368-2.25 25.542-2.7 0 0 39.672-13.052 35.868-55.36-3.596-39.994-58.556-34.813-58.556-34.813s-9.722-53.728-77.078-53.728c-55.102 0-68.868 37.39-68.868 37.39s-76.468-19.212-76.39 53.972c.026 25.249 22.963 55.239 62.425 55.239z" style="fill-rule:evenodd;clip-rule:evenodd;fill:#b3b3b3"/><path d="M629.524 207.765c-2.741 0-5.422.195-8.034.549-2.319-27.156-32.624-48.647-69.675-48.647-30.783 0-56.912 14.835-66.202 35.428-6.448-3.08-13.725-4.825-21.434-4.825-26.402 0-47.806 20.341-47.806 45.433s21.403 45.433 47.806 45.433c20.155 0 37.385-11.86 44.416-28.632 11.888 6.987 26.899 11.157 43.219 11.157 12.286 0 23.829-2.366 33.858-6.515 6.615 13.937 23.75 23.868 43.851 23.868 25.831 0 46.772-16.397 46.772-36.624.001-20.228-20.939-36.625-46.771-36.625z" style="fill-rule:evenodd;clip-rule:evenodd;fill:#ececec"/><path d="M468.015 202.716c7.19 0 13.858 1.87 19.793 4.887 8.975-22.218 33.455-38.19 62.328-38.19 32.534 0 59.509 20.265 64.969 46.918 3.787-.89 7.713-1.516 11.858-1.516 23.428 0 42.42 15.243 42.42 34.047s-18.992 34.047-42.42 34.047c-13.843 0-26.018-5.401-33.761-13.635-11.567 8.583-26.594 13.806-43.066 13.806-18.44 0-35.097-6.519-47.078-17.008-7.638 10.69-20.475 17.719-35.042 17.719-23.428 0-42.42-18.149-42.42-40.538s18.991-40.537 42.419-40.537z" style="fill-rule:evenodd;clip-rule:evenodd;fill:#7d8488;fill-opacity:1"/></g></svg>