<svg xmlns="http://www.w3.org/2000/svg" version="1.1" height="600" width="750" id="neve_forte"><defs id="defs3727"><linearGradient gradientUnits="userSpaceOnUse" y2="44.33" x2="292.39" y1="234.75" x1="292.39" data-name="Sfumatura senza nome 1310" id="Sfumatura_senza_nome_1310"><stop id="stop3668" stop-color="#a1b0b8" offset=".13"/><stop id="stop3670" stop-color="#dbe4e8" offset=".37"/></linearGradient><linearGradient gradientUnits="userSpaceOnUse" y2="69.89" x2="554.01" y1="220.1" x1="554.01" data-name="Sfumatura senza nome 283" id="Sfumatura_senza_nome_283"><stop id="stop3689" stop-color="#7d939b" offset="0"/><stop id="stop3691" stop-color="#7a9098" offset=".01"/><stop id="stop3693" stop-color="#71868f" offset=".09"/><stop id="stop3695" stop-color="#6e838c" offset=".19"/></linearGradient><style id="style3631">.cls-1,.cls-2{fill:none;stroke:#3e5d72;stroke-linecap:round;stroke-miterlimit:10}.cls-1{stroke-width:12px}.cls-2{stroke-width:9px}</style></defs><g id="fiocco_scuro_dx"><path class="cls-1" id="steli_ore11_SC" d="m484.63 195.38 31.98-3 5.75-26.61"/><path class="cls-1" id="steli_ore9_SC" d="M475.15 210.29 495 228.27l-2.91 25.66"/><path class="cls-1" id="steli_ore7_SC" d="m499.74 267.63 23.88-4.1 15.88 19.52"/><path class="cls-1" id="steli_ore5_SC" d="m592.28 252-26.36 2.12-3.51 23.08"/><path class="cls-1" id="steli_ore3_SC" d="m592.43 192.31-10.81 22.89 16.62 17.45"/><path class="cls-1" id="steli_ore1_SC" d="m539.8 165.82 15.56 16.93 26.36-8.38"/><path class="cls-1" id="braccio_ore11_SC" d="m525.33 203.57-30.17-37.87"/><path class="cls-1" id="braccio_ore9_SC" d="m516.74 225.06-49.17 7.26"/><path class="cls-1" id="braccio_ore7_SC" d="m531.07 243.25-17.95 48.88"/><path class="cls-1" id="braccio_ore5_SC" d="m553.98 239.93 31.4 37.33"/><path class="cls-1" id="braccio_ore3_SC" d="m562.56 218.43 45.96-7.8"/><path class="cls-1" id="braccio_ore1_SC" d="m548.24 200.25 17.93-44.04"/><path class="cls-1" id="esagono_SC" d="m552.85 235.15-19.75 2.86-12.35-15.67 7.4-18.53 19.75-2.87 12.35 15.68-7.4 18.53z"/></g><g id="fiocco_scuro_md_dx"><path class="cls-1" data-name="steli_ore11_SC" id="steli_ore11_SC-2" d="m343.94 282.51 31.98-3 5.76-26.6"/><path class="cls-1" data-name="steli_ore9_SC" id="steli_ore9_SC-2" d="m334.47 297.42 19.85 17.99-2.92 25.66"/><path class="cls-1" data-name="steli_ore7_SC" id="steli_ore7_SC-2" d="m359.06 354.76 23.88-4.09 15.87 19.52"/><path class="cls-1" data-name="steli_ore5_SC" id="steli_ore5_SC-2" d="m451.59 339.13-26.35 2.13-3.51 23.07"/><path class="cls-1" data-name="steli_ore3_SC" id="steli_ore3_SC-2" d="m451.75 279.44-10.82 22.89 16.63 17.46"/><path class="cls-1" data-name="steli_ore1_SC" id="steli_ore1_SC-2" d="m399.11 252.96 15.57 16.93 26.36-8.38"/><path class="cls-1" data-name="braccio_ore11_SC" id="braccio_ore11_SC-2" d="m384.64 290.7-30.16-37.86"/><path class="cls-1" data-name="braccio_ore9_SC" id="braccio_ore9_SC-2" d="m376.06 312.2-49.18 7.25"/><path class="cls-1" data-name="braccio_ore7_SC" id="braccio_ore7_SC-2" d="m390.39 330.38-17.95 48.88"/><path class="cls-1" data-name="braccio_ore5_SC" id="braccio_ore5_SC-2" d="m413.3 327.06 31.39 37.33"/><path class="cls-1" data-name="braccio_ore3_SC" id="braccio_ore3_SC-2" d="m421.88 305.57 45.95-7.8"/><path class="cls-1" data-name="braccio_ore1_SC" id="braccio_ore1_SC-2" d="m407.55 287.38 17.94-44.04"/><path class="cls-1" data-name="esagono_SC" id="esagono_SC-2" d="m412.17 322.29-19.75 2.86-12.35-15.68 7.4-18.53 19.75-2.86 12.35 15.67-7.4 18.54z"/></g><g id="fiocco_scuro_md_sx"><path class="cls-1" data-name="steli_ore11_SC" id="steli_ore11_SC-3" d="m182.82 350.58 31.98-3 5.76-26.61"/><path class="cls-1" data-name="steli_ore9_SC" id="steli_ore9_SC-3" d="m173.35 365.49 19.85 17.98-2.92 25.66"/><path class="cls-1" data-name="steli_ore7_SC" id="steli_ore7_SC-3" d="m197.94 422.83 23.88-4.1 15.87 19.52"/><path class="cls-1" data-name="steli_ore5_SC" id="steli_ore5_SC-3" d="m290.47 407.19-26.35 2.13-3.51 23.07"/><path class="cls-1" data-name="steli_ore3_SC" id="steli_ore3_SC-3" d="m290.63 347.5-10.82 22.89 16.63 17.46"/><path class="cls-1" data-name="steli_ore1_SC" id="steli_ore1_SC-3" d="m237.99 321.02 15.57 16.93 26.36-8.38"/><path class="cls-1" data-name="braccio_ore11_SC" id="braccio_ore11_SC-3" d="m223.52 358.76-30.16-37.86"/><path class="cls-1" data-name="braccio_ore9_SC" id="braccio_ore9_SC-3" d="m214.94 380.26-49.18 7.25"/><path class="cls-1" data-name="braccio_ore7_SC" id="braccio_ore7_SC-3" d="m229.27 398.44-17.95 48.88"/><path class="cls-1" data-name="braccio_ore5_SC" id="braccio_ore5_SC-3" d="m252.18 395.13 31.39 37.32"/><path class="cls-1" data-name="braccio_ore3_SC" id="braccio_ore3_SC-3" d="m260.76 373.63 45.95-7.8"/><path class="cls-1" data-name="braccio_ore1_SC" id="braccio_ore1_SC-3" d="m246.43 355.45 17.94-44.04"/><path class="cls-1" data-name="esagono_SC" id="esagono_SC-3" d="m251.05 390.35-19.75 2.86-12.35-15.67 7.4-18.54 19.75-2.86 12.35 15.68-7.4 18.53z"/></g><g id="fiocco_scuro_sx"><path class="cls-1" data-name="steli_ore11_SC" id="steli_ore11_SC-4" d="m36.48 437.62 31.98-3 5.76-26.61"/><path class="cls-1" data-name="steli_ore9_SC" id="steli_ore9_SC-4" d="m27.01 452.52 19.85 17.99-2.91 25.66"/><path class="cls-1" data-name="steli_ore7_SC" id="steli_ore7_SC-4" d="m51.6 509.87 23.88-4.1 15.87 19.52"/><path class="cls-1" data-name="steli_ore5_SC" id="steli_ore5_SC-4" d="m144.13 494.24-26.35 2.12-3.51 23.07"/><path class="cls-1" data-name="steli_ore3_SC" id="steli_ore3_SC-4" d="m144.29 434.54-10.82 22.89 16.63 17.46"/><path class="cls-1" data-name="steli_ore1_SC" id="steli_ore1_SC-4" d="m91.66 408.06 15.56 16.93 26.36-8.38"/><path class="cls-1" data-name="braccio_ore11_SC" id="braccio_ore11_SC-4" d="m77.18 445.8-30.16-37.86"/><path class="cls-1" data-name="braccio_ore9_SC" id="braccio_ore9_SC-4" d="m68.6 467.3-49.18 7.25"/><path class="cls-1" data-name="braccio_ore7_SC" id="braccio_ore7_SC-4" d="m82.93 485.48-17.95 48.88"/><path class="cls-1" data-name="braccio_ore5_SC" id="braccio_ore5_SC-4" d="m105.84 482.17 31.4 37.32"/><path class="cls-1" data-name="braccio_ore3_SC" id="braccio_ore3_SC-4" d="m114.42 460.67 45.95-7.8"/><path class="cls-1" data-name="braccio_ore1_SC" id="braccio_ore1_SC-4" d="m100.09 442.48 17.94-44.04"/><path class="cls-1" data-name="esagono_SC" id="esagono_SC-4" d="m104.71 477.39-19.75 2.86-12.35-15.68 7.4-18.53 19.75-2.86 12.35 15.68-7.4 18.53z"/></g><g id="fiocco_scuro_picc_dx"><path class="cls-2" data-name="steli_ore11_SC" id="steli_ore11_SC-5" d="m474.64 368.67 19.07-8.68-2.13-17.63"/><path class="cls-2" data-name="steli_ore9_SC" id="steli_ore9_SC-5" d="m471.97 379.88 16.08 6.85 3.68 16.44"/><path class="cls-2" data-name="steli_ore7_SC" id="steli_ore7_SC-5" d="m499.37 409.98 13.85-7.62 13.95 8.65"/><path class="cls-2" data-name="steli_ore5_SC" id="steli_ore5_SC-5" d="m553.08 380.61-15.79 6.93 2.75 14.97"/><path class="cls-2" data-name="steli_ore3_SC" id="steli_ore3_SC-5" d="m540.44 343.77-1.78 16.42 13.97 7.22"/><path class="cls-2" data-name="steli_ore1_SC" id="steli_ore1_SC-5" d="m502.34 338.67 13.21 7.12L530.01 335"/><path class="cls-2" data-name="braccio_ore11_SC" id="braccio_ore11_SC-5" d="m501.47 365.03-26.67-16.91"/><path class="cls-2" data-name="braccio_ore9_SC" id="braccio_ore9_SC-5" d="M500.77 380.12 472 395.08"/><path class="cls-2" data-name="braccio_ore7_SC" id="braccio_ore7_SC-5" d="m513.48 388.27-.64 33.96"/><path class="cls-2" data-name="braccio_ore5_SC" id="braccio_ore5_SC-5" d="m526.9 381.34 27.32 16.31"/><path class="cls-2" data-name="braccio_ore3_SC" id="braccio_ore3_SC-5" d="m527.6 366.25 26.67-14.61"/><path class="cls-2" data-name="braccio_ore1_SC" id="braccio_ore1_SC-5" d="m514.89 358.1 1.66-30.98"/><path class="cls-2" data-name="esagono_SC" id="esagono_SC-5" d="m525.18 378.63-11.56 5.98-10.96-7.03.61-13.01 11.56-5.97 10.96 7.03-.61 13z"/></g><g id="fiocco_scuro_picc_md_dx"><path class="cls-2" data-name="steli_ore11_SC" id="steli_ore11_SC-6" d="m327.32 440.31 19.08-8.67-2.13-17.63"/><path class="cls-2" data-name="steli_ore9_SC" id="steli_ore9_SC-6" d="m324.66 451.53 16.08 6.85 3.68 16.44"/><path class="cls-2" data-name="steli_ore7_SC" id="steli_ore7_SC-6" d="m352.05 481.63 13.85-7.62 13.95 8.65"/><path class="cls-2" data-name="steli_ore5_SC" id="steli_ore5_SC-6" d="m405.77 452.25-15.8 6.94 2.76 14.97"/><path class="cls-2" data-name="steli_ore3_SC" id="steli_ore3_SC-6" d="m393.13 415.42-1.78 16.42 13.97 7.22"/><path class="cls-2" data-name="steli_ore1_SC" id="steli_ore1_SC-6" d="m355.03 410.32 13.21 7.12 14.46-10.79"/><path class="cls-2" data-name="braccio_ore11_SC" id="braccio_ore11_SC-6" d="m354.16 436.68-26.67-16.91"/><path class="cls-2" data-name="braccio_ore9_SC" id="braccio_ore9_SC-6" d="m353.46 451.76-28.78 14.97"/><path class="cls-2" data-name="braccio_ore7_SC" id="braccio_ore7_SC-6" d="m366.17 459.92-.64 33.96"/><path class="cls-2" data-name="braccio_ore5_SC" id="braccio_ore5_SC-6" d="m379.58 452.98 27.32 16.32"/><path class="cls-2" data-name="braccio_ore3_SC" id="braccio_ore3_SC-6" d="m380.29 437.9 26.67-14.61"/><path class="cls-2" data-name="braccio_ore1_SC" id="braccio_ore1_SC-6" d="m367.58 429.75 1.66-30.98"/><path class="cls-2" data-name="esagono_SC" id="esagono_SC-6" d="m377.87 450.28-11.56 5.98-10.96-7.03.6-13.01 11.57-5.97 10.96 7.03-.61 13z"/></g><g id="fiocco_scuro_picc_md_sx"><path class="cls-2" data-name="steli_ore11_SC" id="steli_ore11_SC-7" d="m190.78 517.28 19.08-8.67-2.13-17.63"/><path class="cls-2" data-name="steli_ore9_SC" id="steli_ore9_SC-7" d="m188.12 528.49 16.07 6.85 3.68 16.45"/><path class="cls-2" data-name="steli_ore7_SC" id="steli_ore7_SC-7" d="m215.51 558.6 13.85-7.62 13.95 8.65"/><path class="cls-2" data-name="steli_ore5_SC" id="steli_ore5_SC-7" d="m269.23 529.22-15.8 6.93 2.76 14.98"/><path class="cls-2" data-name="steli_ore3_SC" id="steli_ore3_SC-7" d="m256.59 492.39-1.79 16.42 13.98 7.21"/><path class="cls-2" data-name="steli_ore1_SC" id="steli_ore1_SC-7" d="m218.49 487.29 13.21 7.12 14.46-10.79"/><path class="cls-2" data-name="braccio_ore11_SC" id="braccio_ore11_SC-7" d="m217.62 513.64-26.67-16.9"/><path class="cls-2" data-name="braccio_ore9_SC" id="braccio_ore9_SC-7" d="m216.91 528.73-28.77 14.96"/><path class="cls-2" data-name="braccio_ore7_SC" id="braccio_ore7_SC-7" d="m229.63 536.88-.64 33.97"/><path class="cls-2" data-name="braccio_ore5_SC" id="braccio_ore5_SC-7" d="m243.04 529.95 27.32 16.31"/><path class="cls-2" data-name="braccio_ore3_SC" id="braccio_ore3_SC-7" d="m243.75 514.86 26.66-14.61"/><path class="cls-2" data-name="braccio_ore1_SC" id="braccio_ore1_SC-7" d="m231.04 506.71 1.66-30.98"/><path class="cls-2" data-name="esagono_SC" id="esagono_SC-7" d="m241.33 527.25-11.57 5.97-10.95-7.03.6-13 11.57-5.98 10.96 7.03-.61 13.01z"/></g><g id="fiocco_scuro_picc_sx"><path class="cls-2" data-name="steli_ore11_SC" id="steli_ore11_SC-8" d="m71.62 309.81 19.08-8.67-2.13-17.63"/><path class="cls-2" data-name="steli_ore9_SC" id="steli_ore9_SC-8" d="m68.96 321.03 16.08 6.85 3.68 16.44"/><path class="cls-2" data-name="steli_ore7_SC" id="steli_ore7_SC-8" d="m96.35 351.13 13.85-7.62 13.95 8.65"/><path class="cls-2" data-name="steli_ore5_SC" id="steli_ore5_SC-8" d="m150.07 321.76-15.8 6.93 2.76 14.97"/><path class="cls-2" data-name="steli_ore3_SC" id="steli_ore3_SC-8" d="m137.43 284.92-1.78 16.42 13.97 7.22"/><path class="cls-2" data-name="steli_ore1_SC" id="steli_ore1_SC-8" d="m99.33 279.82 13.21 7.12L127 276.15"/><path class="cls-2" data-name="braccio_ore11_SC" id="braccio_ore11_SC-8" d="m98.46 306.18-26.67-16.91"/><path class="cls-2" data-name="braccio_ore9_SC" id="braccio_ore9_SC-8" d="m97.76 321.27-28.78 14.96"/><path class="cls-2" data-name="braccio_ore7_SC" id="braccio_ore7_SC-8" d="m110.47 329.42-.64 33.96"/><path class="cls-2" data-name="braccio_ore5_SC" id="braccio_ore5_SC-8" d="m123.89 322.49 27.31 16.31"/><path class="cls-2" data-name="braccio_ore3_SC" id="braccio_ore3_SC-8" d="m124.59 307.4 26.67-14.61"/><path class="cls-2" data-name="braccio_ore1_SC" id="braccio_ore1_SC-8" d="m111.88 299.25 1.66-30.98"/><path class="cls-2" data-name="esagono_SC" id="esagono_SC-8" d="m122.17 319.78-11.56 5.98-10.96-7.03.6-13 11.57-5.98 10.96 7.03-.61 13z"/></g><g id="nube_grande_scura"><path style="fill:#506572;fill-opacity:1;fill-rule:evenodd" transform="translate(-70.86 -20.42)" d="M339.6 59.45s-24.36-39-80-39C150 20.42 138.48 113 138.48 113s-67.57 7.56-67.62 77.78c0 47.92 25.17 69 41.8 78.65 7.17 4.14 14.11 8.87 43 8.87h265.16c39.42 0 47.21-7.57 53.75-11.83 15-9.75 36.43-31.29 36.43-77.42C511 119 436 112 436 112s-.17-25.29-30.15-45.42c-33.16-22.33-66.25-7.13-66.25-7.13z" id="nube_5_down_GR-SC"/><path style="fill:#5d7381;fill-opacity:1;fill-rule:evenodd" transform="translate(-70.86 -20.42)" d="M333 79s-37.62-51.73-113.27-30.4c-68 19.18-65.29 75.86-65.29 75.86s-66.6 7.44-68.61 69.69C84 251.91 119.24 261.48 124 263.87c6 3 11.94 4.79 26.23 4.81h286.7c7.76 0 7.76 0 15.53-2.39 8.23-2.54 47.78-19.74 43.6-65.2-5.69-61.89-69.87-67.59-69.87-67.59s3.57-27.15-25.08-47.85C370.2 63.28 333 79 333 79z" id="nube_4_GR-SC"/><path style="fill:gray;fill-opacity:1;fill-rule:evenodd" transform="translate(-70.86 -20.42)" d="M337 74.85s-38.09-57.2-111.48-37.68c-66 17.55-72.9 83.74-72.9 83.74s-67.08 5.82-66.25 62.81c.58 39.57 31.88 57.63 47.2 64.21a47.89 47.89 0 0 0 18.84 4H438.2c7.24 0 14-2.26 20.25-5.38 6-3 37-14.36 37-55 0-56.87-65.69-63.41-65.69-63.41s-1.47-27.71-29.26-46.66C370.52 61 337 74.85 337 74.85z" id="nube_3_GR-SC"/><path transform="translate(-70.86 -20.42)" d="M188.51 197.47s14.95 24.53 49.57 23.93c36.62-.68 53.75-26.92 53.75-26.92s6.47 28.67 47.78 29.31c34 .53 41.8-23.33 41.8-23.33s8.69 39.09 60.32 35.89c13.4-.83 45.66-13.35 46-44.59.61-58.87-66.29-55.9-66.29-55.9s0-20.34-18.51-40.08c-27.33-29.14-71.66-9.57-71.66-9.57s-21.31-41.8-84.31-40c-76.21 2.14-87.09 83.7-87.09 83.7s-65.37-2.43-62.71 55.49c1.79 39 32.73 42.61 52.55 42.61 27.29-.01 38.8-30.54 38.8-30.54z" id="nube_2_GR-SC" style="fill:url(#Sfumatura_senza_nome_1310);fill-rule:evenodd"/><path style="fill:#8da8b9;fill-opacity:1;fill-rule:evenodd" transform="translate(-70.86 -20.42)" d="M190.9 217.54s19.14 19.07 52 18.46c34.79-.64 47.89-18.85 47.89-18.85S305 237 342.59 237c32.48 0 46-19.74 46-19.74s7.17 20.34 43.6 19.74c35.83-.59 47.18-17.95 47.18-37.09 0-45.63-63.9-38.28-63.9-38.28s2.84-31.86-19.11-50.84c-26.28-22.73-65.69-6-65.69-6s-21.35-37.68-81.22-37.68c-75.84 0-87.79 84.94-87.79 84.94s-59.12-12.59-59.12 39.48c0 32.9 27.75 41.87 46.58 41.87a62.8 62.8 0 0 0 41.78-15.86z" id="nube_1_up_GR-SC"/></g><g id="nube_piccola_extrascura"><path style="fill:#475860;fill-opacity:.87108016;fill-rule:evenodd" transform="translate(-70.86 -20.42)" d="M459.14 232.62H640c11.27 0 26.91-3.13 29.42-3.76 0 0 45.69-18.15 41.31-77C706.6 96.27 650 94.3 650 94.3s-16.93-59.46-94.51-59.46c-63.46 0-77 38.8-77 38.8s-64.79-3.38-78.86 57.58c-11.27 48.82 11.52 82 28.16 92 12.57 7.52 26.43 9.4 31.35 9.4z" id="nube_5_down_PI-EXSC"/><path transform="translate(-70.86 -20.42)" d="M464.39 220.1h172.85c10.77 0 25.72-2.57 28.11-3.09 0 0 38.94-11.72 34.75-60.12-4-45.76-67.59-40.06-67.59-40.06s-2.85-46.94-77-46.94c-60.64 0-68.85 33.8-68.85 33.8S430 92.94 410.95 141.24c-9.39 23.78 1.88 55.7 23.53 71.13 10.97 7.82 25.2 7.73 29.91 7.73z" id="nube_4_PI-EXSC" style="fill:url(#Sfumatura_senza_nome_283);fill-rule:evenodd"/><path style="fill:#41525d;fill-opacity:1;fill-rule:evenodd" transform="translate(-70.86 -20.42)" d="M470.28 211.34h166.37c10.36 0 24.75-2.57 27.06-3.09 0 0 42-14.93 38-63.34-3.81-45.76-58.56-44.35-58.56-44.35s-12.86-51.95-84.21-51.95c-58.37 0-70.38 33.17-70.38 33.17s-69.46 1-78.86 51.95c-7.51 40.68 16.49 61.67 31.8 69.88a68.92 68.92 0 0 0 28.78 7.73z" id="nube_3_PI-EXSC"/><path style="fill:#818c93;fill-opacity:1;fill-rule:evenodd" transform="translate(-70.86 -20.42)" d="M561.78 160.64s22.47 35.67 73.23 35.67c30 0 53.82-10 53.82-38.18 0-50.7-51.95-45.69-51.95-45.69S624.17 57.82 563 57.37c-57.9-.43-74.69 39.57-74.69 39.57s-69.26-9.53-69.26 51.81c0 15 11.27 46.31 50.7 47.57 46.9 1.48 92.03-35.68 92.03-35.68z" id="nube_2_PI-EXSC"/><path style="fill:#657b88;fill-opacity:1;fill-rule:evenodd" transform="translate(-70.86 -20.42)" d="M554.27 166.9s31.9 33.17 78.23 33.17c8.76 0 53.2-3.12 53.2-35.67 0-38.18-55.7-35.67-55.7-35.67s-12-49.53-67.59-54.46c-47.24-4.18-68.83 38.59-68.83 38.59s-68.86-9.8-68.86 38.39c0 41.93 34.42 48.82 63 48.6 42.77-.31 66.55-32.95 66.55-32.95z" id="nube_1_up_PI-EXSC"/></g></svg>