<svg xmlns="http://www.w3.org/2000/svg" xml:space="preserve" style="enable-background:new 0 0 750 600" viewBox="0 0 750 600">
    <path d="m320.761 35.356 57.157 74.191 60.202-74.191 11.652 92.326 83.285-46.163-16.33 89.029 81.652-18.135-40.826 84.083 81.652 14.838-71.854 50.285 71.854 55.231-91.45 21.663 48.991 70.664-86.551-9.892 14.697 82.434-71.854-42.866-14.918 85.732-60.202-72.542-50.625 72.542-17.963-85.732-83.286 46.164 21.23-85.732-97.983 11.541 55.524-72.313-86.552-20.014 68.588-56.88-76.753-53.582 94.717-23.082-53.891-77.488 96.35 16.486-31.028-87.38 91.451 42.866z" style="fill:#f3a51e;fill-opacity:1"/>
    <path d="m324.97 576-18.867-90.045-87.095 48.274 22.173-89.539-102.265 12.045 57.827-75.312-88.667-20.503 71.123-58.982L99 245.951l98.147-23.918-56.349-81.023 99.473 17.021-32.091-90.373 95.909 44.955L317.856 24l60.155 78.083 63.33-78.045 12.151 96.271 85.871-47.598-16.835 91.78 84.204-18.702-42.348 87.217L651 248.746l-75.804 53.049 74.587 57.333-94.343 22.348 50.95 73.49-90.558-10.351 15.383 86.285-74.787-44.615-15.48 88.96-62.714-75.57L324.97 576zm52.632-91.589 57.689 69.515 14.356-82.504 68.921 41.116-14.012-78.584 82.546 9.435-47.032-67.839 88.557-20.978-69.12-53.13 67.902-47.52-76.689-13.937 39.305-80.95-79.101 17.569 15.826-86.278-80.698 44.729-11.154-88.382-57.073 70.336-54.159-70.299-12.36 79.553-86.994-40.777 29.965 84.387-93.227-15.953 51.432 73.955-91.286 22.245 73.308 51.177-66.054 54.779 84.435 19.524-53.221 69.314 93.702-11.037-20.287 81.925 79.477-44.052 17.059 81.419 47.987-68.758z" style="fill:#f7ee85"/>
    <linearGradient id="a" x1="377.918" x2="377.918" y1="464.839" y2="138.399" gradientUnits="userSpaceOnUse">
        <stop offset="0" style="stop-color:#fbcd0e"/>
        <stop offset="1" style="stop-color:#fbeb3f"/>
    </linearGradient>
    <ellipse cx="377.918" cy="301.619" rx="161.672" ry="163.22" style="fill:url(#a)"/>
    <ellipse cx="378.326" cy="302.031" rx="153.915" ry="155.389" style="fill:#fbca0c;fill-opacity:1"/>
    <ellipse cx="380.367" cy="257.517" rx="119.212" ry="99.334" style="fill:#fbc212;fill-opacity:1"/>
</svg>
