<?xml version="1.0" encoding="UTF-8" standalone="no"?>
<svg
   xmlns:dc="http://purl.org/dc/elements/1.1/"
   xmlns:cc="http://creativecommons.org/ns#"
   xmlns:rdf="http://www.w3.org/1999/02/22-rdf-syntax-ns#"
   xmlns:svg="http://www.w3.org/2000/svg"
   xmlns="http://www.w3.org/2000/svg"
   xmlns:sodipodi="http://sodipodi.sourceforge.net/DTD/sodipodi-0.dtd"
   xmlns:inkscape="http://www.inkscape.org/namespaces/inkscape"
   inkscape:version="1.0beta2 (2b71d25, 2019-12-03)"
   sodipodi:docname="3.svg"
   xml:space="preserve"
   style="enable-background:new 0 0 750 600;"
   viewBox="0 0 750 600"
   y="0px"
   x="0px"
   id="SERENO"
   version="1.1"><metadata
   id="metadata57"><rdf:RDF><cc:Work
       rdf:about=""><dc:format>image/svg+xml</dc:format><dc:type
         rdf:resource="http://purl.org/dc/dcmitype/StillImage" /></cc:Work></rdf:RDF></metadata><defs
   id="defs55" /><sodipodi:namedview
   inkscape:current-layer="sole_5_"
   inkscape:window-maximized="0"
   inkscape:window-y="25"
   inkscape:window-x="0"
   inkscape:cy="237.71626"
   inkscape:cx="285.20761"
   inkscape:zoom="0.96333333"
   showgrid="false"
   id="namedview53"
   inkscape:window-height="691"
   inkscape:window-width="1294"
   inkscape:pageshadow="2"
   inkscape:pageopacity="0"
   guidetolerance="10"
   gridtolerance="10"
   objecttolerance="10"
   borderopacity="1"
   inkscape:document-rotation="0"
   bordercolor="#666666"
   pagecolor="#ffffff" />
<g
   id="sole_5_">
	<linearGradient
   y2="35.3556"
   x2="374.6517"
   y1="564.5852"
   x1="374.6517"
   gradientUnits="userSpaceOnUse"
   id="corona_1_">
		<stop
   id="stop10"
   style="stop-color:#F3A51E"
   offset="0" />
		<stop
   id="stop12"
   style="stop-color:#F3B01B"
   offset="0.5" />
		<stop
   id="stop14"
   style="stop-color:#F6BE18"
   offset="1" />
	</linearGradient>
	<polygon
   points="320.761,35.356 377.918,109.547 438.12,35.356 449.772,127.682    533.057,81.519 516.727,170.548 598.379,152.413 557.553,236.496 639.205,251.334 567.351,301.619 639.205,356.85 547.755,378.513    596.746,449.177 510.195,439.285 524.892,521.719 453.038,478.853 438.12,564.585 377.918,492.043 327.293,564.585 309.33,478.853    226.044,525.017 247.274,439.285 149.291,450.826 204.815,378.513 118.263,358.499 186.851,301.619 110.098,248.037    204.815,224.955 150.924,147.467 247.274,163.953 216.246,76.573 307.697,119.439  "
   style="fill:#f3a51e;fill-opacity:1"
   id="corona_4_" />
	<path
   d="M324.97,576l-18.867-90.045l-87.095,48.274l22.173-89.539l-102.265,12.045   l57.827-75.312l-88.667-20.503l71.123-58.982L99,245.951l98.147-23.918l-56.349-81.023l99.473,17.021L208.18,67.658l95.909,44.955   L317.856,24l60.155,78.083l63.33-78.045l12.151,96.271l85.871-47.598l-16.835,91.78l84.204-18.702l-42.348,87.217L651,248.746   l-75.804,53.049l74.587,57.333l-94.343,22.348l50.95,73.49l-90.558-10.351l15.383,86.285l-74.787-44.615l-15.48,88.96   l-62.714-75.57L324.97,576z M377.602,484.411l57.689,69.515l14.356-82.504l68.921,41.116l-14.012-78.584l82.546,9.435   L540.07,375.55l88.557-20.978l-69.12-53.13l67.902-47.52l-76.689-13.937l39.305-80.95l-79.101,17.569l15.826-86.278l-80.698,44.729   l-11.154-88.382l-57.073,70.336l-54.159-70.299l-12.36,79.553l-86.994-40.777l29.965,84.387l-93.227-15.953l51.432,73.955   l-91.286,22.245l73.308,51.177l-66.054,54.779l84.435,19.524l-53.221,69.314l93.702-11.037l-20.287,81.925l79.477-44.052   l17.059,81.419L377.602,484.411z"
   style="fill:#F7EE85;"
   id="bordo_x5F_corona_4_" />
	
		<linearGradient
   y2="138.3988"
   x2="377.9178"
   y1="464.8394"
   x1="377.9178"
   gradientUnits="userSpaceOnUse"
   id="cerchio_x5F_down_1_">
		<stop
   id="stop19"
   style="stop-color:#FBCD0E"
   offset="0" />
		<stop
   id="stop21"
   style="stop-color:#FBEB3F"
   offset="1" />
	</linearGradient>
	<ellipse
   ry="163.22"
   rx="161.672"
   cy="301.619"
   cx="377.918"
   style="fill:url(#cerchio_x5F_down_1_);"
   id="cerchio_x5F_down_5_" />
	<linearGradient
   y2="146.6422"
   x2="378.326"
   y1="457.4203"
   x1="378.326"
   gradientUnits="userSpaceOnUse"
   id="cerchio_x5F_up_1_">
		<stop
   id="stop25"
   style="stop-color:#FBCA0C"
   offset="0" />
		<stop
   id="stop27"
   style="stop-color:#FBCB0E"
   offset="0.6279" />
		<stop
   id="stop29"
   style="stop-color:#FBCD15"
   offset="0.8538" />
		<stop
   id="stop31"
   style="stop-color:#FAD01F"
   offset="1" />
	</linearGradient>
	<ellipse
   ry="155.389"
   rx="153.915"
   cy="302.031"
   cx="378.326"
   style="fill:#fbca0c;fill-opacity:1"
   id="cerchio_x5F_up_5_" />
	<linearGradient
   y2="158.183"
   x2="380.3674"
   y1="356.8502"
   x1="380.3674"
   gradientUnits="userSpaceOnUse"
   id="ovale_x5F_luce_1_">
		<stop
   id="stop35"
   style="stop-color:#FBCD12"
   offset="0" />
		<stop
   id="stop37"
   style="stop-color:#FBCF18"
   offset="0.1227" />
		<stop
   id="stop39"
   style="stop-color:#FCD328"
   offset="0.2834" />
		<stop
   id="stop41"
   style="stop-color:#FCDA43"
   offset="0.4651" />
		<stop
   id="stop43"
   style="stop-color:#FDE469"
   offset="0.6623" />
		<stop
   id="stop45"
   style="stop-color:#FEF099"
   offset="0.8697" />
		<stop
   id="stop47"
   style="stop-color:#FFF9BB"
   offset="1" />
	</linearGradient>
	<ellipse
   ry="99.334"
   rx="119.212"
   cy="257.517"
   cx="380.367"
   style="fill:#fbc212;fill-opacity:1"
   id="ovale_x5F_luce_5_" />
</g>
</svg>
