<svg xmlns="http://www.w3.org/2000/svg" xml:space="preserve" style="enable-background:new 0 0 750 600" viewBox="0 0 750 600"><path d="M682.715 102.906c6.783 0 12.285 14.547 12.285 32.478s-5.504 32.478-12.285 32.478l-72.966 24.586c5.828-3.764 10.27-23.694 10.27-47.685 0-26.7-5.504-48.346-12.285-48.346l.078-.826 74.903 7.315z" style="fill:#f2f2f2"/><path d="m607.796 193.108-72.854 24.536c6.332-5.779 13.396-32.412 13.396-64.394 0-32.807-7.442-59.969-13.882-64.807l73.356 7.15-.078.826c6.783 0 12.285 21.646 12.285 48.346 0 23.991-4.442 43.92-10.27 47.685l-1.953.658z" style="fill:#e22527;fill-opacity:1"/><path d="M534.456 88.442c6.44 4.838 13.882 32 13.882 64.807 0 31.983-7.067 58.615-13.396 64.394l-76.591 25.808c6.252-3.847 11.145-38.687 11.145-81.104 0-44.267-5.327-80.312-11.97-81.418l76.919 7.496.011.017z" style="fill:#f2f2f2"/><path d="m457.366 243.781-75.465 25.427-.498-1.651c6.987-2.179 20.006-37.728 20.006-89.789 0-50.475-12.237-98.523-19.349-104.203l75.151 7.331c.108 0 .22.016.313.033 6.643 1.106 11.97 37.151 11.97 81.418 0 42.418-4.892 77.257-11.144 81.104l-.984.33z" style="fill:#e22527;fill-opacity:1"/><path d="m381.401 267.557.498 1.651-83.234 28.037-.313-1.057c8.349-2.889 23.339-50.162 23.339-112.096 0-59.904-14.023-112.262-22.495-118.618l82.861 8.09c7.112 5.68 19.351 53.728 19.351 104.203.001 52.062-13.02 87.611-20.007 89.79z" style="fill:#f2f2f2"/><path d="m298.355 296.189.313 1.057-64.305 21.662c11.332-7.496 20.117-62.66 20.117-129.564 0-70.785-9.832-128.376-22.086-130.391l66.804 6.522c8.473 6.356 22.495 58.714 22.495 118.618-.001 61.933-14.991 109.206-23.338 112.096z" style="fill:#e22527;fill-opacity:1"/><path d="M209.275 167.862c1.782-61.835 11.161-108.975 22.444-108.975l.674.066c12.254 2.015 22.086 59.606 22.086 130.391 0 66.904-8.785 122.068-20.117 129.564l-2.641.892c-12.567 0-22.759-58.417-22.759-130.456l.313-21.482z" style="fill:#88181c"/><path d="M232.361 323.686h-.641c-5.452 0-13.449-4.295-19.928-41.433-4.336-24.856-6.724-57.852-6.724-92.91l.313-21.538c.876-30.39 3.623-58.211 7.737-78.394C219.406 58.567 226.745 55 231.719 55l.383.019.925.099c2.955.486 11.946 1.964 18.844 42.592 4.194 24.696 6.503 57.239 6.503 91.634 0 56.998-6.841 122.869-21.86 132.804l-.423.28-3.73 1.258zm-.735-260.904c-1.272.249-6.228 5.376-10.876 28.179-4.028 19.759-6.721 47.11-7.582 77.013l-.312 21.426c0 34.568 2.348 67.091 6.609 91.52 4.705 26.966 10.114 34.02 11.906 34.895l1.163-.393c1.732-1.469 7.422-8.512 12.289-39.618 3.716-23.75 5.762-54.456 5.762-86.461 0-33.973-2.27-66.054-6.393-90.335-4.832-28.459-10.482-35.734-12.358-36.206l-.208-.02z"/><path d="M228.397 323.383a4.86 4.86 0 0 1-3.772-1.785L114.074 186.542l109.99-128.721a4.875 4.875 0 0 1 6.862-.545 4.85 4.85 0 0 1 .546 6.848L126.754 186.675l105.41 128.777a4.85 4.85 0 0 1-.69 6.835 4.85 4.85 0 0 1-3.077 1.096z"/><path d="M126.448 187.27c0 5.478-6.229 9.919-13.913 9.919s-21.148-9.919-21.148-9.919 13.464-9.919 21.148-9.919 13.913 4.441 13.913 9.919z"/><path d="M93.595 198.18H61.354c-3.299 0-5.997-2.699-5.997-5.997v-5.528c0-3.299 2.699-5.997 5.997-5.997h32.241c3.299 0 5.997 2.699 5.997 5.997v5.528c.001 3.298-2.698 5.997-5.997 5.997z"/><path d="M84.256 545h-14.66c-3.923 0-7.132-3.209-7.132-7.132V132.245c0-3.923 3.209-7.132 7.132-7.132h14.66c3.923 0 7.132 3.209 7.132 7.132v405.623c0 3.923-3.21 7.132-7.132 7.132z" style="fill:#999;fill-opacity:1"/><path d="M62.464 189.303h28.924v7.505H62.464z"/><path d="M92.94 173.383H61.653c-3.659 0-6.653 2.752-6.653 6.116v12.233c0 1.512.608 2.897 1.606 3.967 1.223-1.312 3.032-2.149 5.047-2.149H92.94c2.015 0 3.824.837 5.047 2.149.998-1.07 1.606-2.456 1.606-3.967V179.5c0-3.364-2.994-6.117-6.653-6.117z" style="fill:#4d4d4d"/><g><path d="M563.266 367.013s7.198 108.198-4.399 134.813c-9.37 21.505-32.539 35.369-62.577 29.051-20.878-4.391-59.601-32.045-44.484-72.826 15.47-41.735 111.46-91.038 111.46-91.038z" style="fill:#626b6e"/><path d="M558.395 374.88s6.061 88.346-3.705 110.077c-7.891 17.559-27.403 28.885-52.696 23.721-26.713-5.454-50.19-26.165-37.46-59.464 13.027-34.077 93.861-74.334 93.861-74.334z" style="fill:#949fa2"/><path d="M543.146 389.847s-8.684 51.514-14.841 65.177c-8.993 19.956-19.906 24.77-36.874 22.324-11.794-1.7-25.263-12.236-17.723-33.275 7.718-21.532 69.438-54.226 69.438-54.226z" style="fill:#fff"/></g><g><path d="M339.334 351.3s7.198 108.198-4.399 134.813c-9.37 21.505-32.539 35.369-62.577 29.051-20.878-4.391-59.601-32.045-44.484-72.826 15.47-41.735 111.46-91.038 111.46-91.038z" style="fill:#626b6e"/><path d="M334.464 359.167s6.061 88.346-3.705 110.077c-7.891 17.559-27.403 28.885-52.696 23.721-26.713-5.454-50.19-26.165-37.46-59.464 13.027-34.077 93.861-74.334 93.861-74.334z" style="fill:#949fa2"/><path d="M319.215 374.134s-8.684 51.514-14.841 65.177c-8.993 19.956-19.906 24.77-36.874 22.324-11.794-1.7-25.263-12.236-17.723-33.275 7.718-21.532 69.438-54.226 69.438-54.226z" style="fill:#fff"/></g><g><path d="M470.087 279.575s5.863 88.137-3.583 109.817c-7.633 17.518-26.506 28.811-50.975 23.665-17.007-3.577-48.55-26.103-36.236-59.323 12.602-33.998 90.794-74.159 90.794-74.159z" style="fill:#626b6e"/><path d="M466.12 285.983s4.937 71.966-3.018 89.668c-6.428 14.304-22.322 23.529-42.926 19.323-21.76-4.443-40.884-21.314-30.515-48.438 10.613-27.76 76.459-60.553 76.459-60.553z" style="fill:#949fa2"/><path d="M453.698 298.175s-7.074 41.963-12.089 53.092c-7.326 16.256-16.215 20.177-30.037 18.185-9.607-1.385-20.579-9.967-14.437-27.106 6.286-17.539 56.563-44.171 56.563-44.171z" style="fill:#fff"/></g><g><path d="M660.148 229.363s5.863 88.137-3.583 109.817c-7.633 17.518-26.506 28.811-50.975 23.665-17.007-3.577-48.55-26.103-36.236-59.323 12.601-33.998 90.794-74.159 90.794-74.159z" style="fill:#626b6e"/><path d="M656.18 235.771s4.937 71.965-3.018 89.668c-6.428 14.304-22.322 23.529-42.926 19.323-21.76-4.443-40.884-21.314-30.515-48.438 10.613-27.76 76.459-60.553 76.459-60.553z" style="fill:#949fa2"/><path d="M643.759 247.963s-7.074 41.963-12.089 53.092c-7.326 16.256-16.215 20.177-30.037 18.185-9.607-1.385-20.579-9.967-14.437-27.106 6.286-17.539 56.563-44.171 56.563-44.171z" style="fill:#fff"/></g></svg>