<svg xmlns="http://www.w3.org/2000/svg" xml:space="preserve" style="enable-background:new 0 0 750 600" viewBox="0 0 750 600"><path d="M682.715 102.906c6.783 0 12.285 14.547 12.285 32.478s-5.504 32.478-12.285 32.478l-72.966 24.586c5.828-3.764 10.27-23.694 10.27-47.685 0-26.7-5.504-48.346-12.285-48.346l.078-.826 74.903 7.315z" style="fill:#f2f2f2"/><path d="m607.796 193.108-72.854 24.536c6.332-5.779 13.396-32.412 13.396-64.394 0-32.807-7.442-59.969-13.882-64.807l73.356 7.15-.078.826c6.783 0 12.285 21.646 12.285 48.346 0 23.991-4.442 43.92-10.27 47.685l-1.953.658z" style="fill:#e22527;fill-opacity:1"/><path d="M534.456 88.442c6.44 4.838 13.882 32 13.882 64.807 0 31.983-7.067 58.615-13.396 64.394l-76.591 25.808c6.252-3.847 11.145-38.687 11.145-81.104 0-44.267-5.327-80.312-11.97-81.418l76.919 7.496.011.017z" style="fill:#f2f2f2"/><path d="m457.366 243.781-75.465 25.427-.498-1.651c6.987-2.179 20.006-37.728 20.006-89.789 0-50.475-12.237-98.523-19.349-104.203l75.151 7.331c.108 0 .22.016.313.033 6.643 1.106 11.97 37.151 11.97 81.418 0 42.418-4.892 77.257-11.144 81.104l-.984.33z" style="fill:#e22527;fill-opacity:1"/><path d="m381.401 267.557.498 1.651-83.234 28.037-.313-1.057c8.349-2.889 23.339-50.162 23.339-112.096 0-59.904-14.023-112.262-22.495-118.618l82.861 8.09c7.112 5.68 19.351 53.728 19.351 104.203.001 52.062-13.02 87.611-20.007 89.79z" style="fill:#f2f2f2"/><path d="m298.355 296.189.313 1.057-64.305 21.662c11.332-7.496 20.117-62.66 20.117-129.564 0-70.785-9.832-128.376-22.086-130.391l66.804 6.522c8.473 6.356 22.495 58.714 22.495 118.618-.001 61.933-14.991 109.206-23.338 112.096z" style="fill:#e22527;fill-opacity:1"/><path d="M209.275 167.862c1.782-61.835 11.161-108.975 22.444-108.975l.674.066c12.254 2.015 22.086 59.606 22.086 130.391 0 66.904-8.785 122.068-20.117 129.564l-2.641.892c-12.567 0-22.759-58.417-22.759-130.456l.313-21.482z" style="fill:#88181c"/><path d="M232.361 323.686h-.641c-5.452 0-13.449-4.295-19.928-41.433-4.336-24.856-6.724-57.852-6.724-92.91l.313-21.538c.876-30.39 3.623-58.211 7.737-78.394C219.406 58.567 226.745 55 231.719 55l.383.019.925.099c2.955.486 11.946 1.964 18.844 42.592 4.194 24.696 6.503 57.239 6.503 91.634 0 56.998-6.841 122.869-21.86 132.804l-.423.28-3.73 1.258zm-.735-260.904c-1.272.249-6.228 5.376-10.876 28.179-4.028 19.759-6.721 47.11-7.582 77.013l-.312 21.426c0 34.568 2.348 67.091 6.609 91.52 4.705 26.966 10.114 34.02 11.906 34.895l1.163-.393c1.732-1.469 7.422-8.512 12.289-39.618 3.716-23.75 5.762-54.456 5.762-86.461 0-33.973-2.27-66.054-6.393-90.335-4.832-28.459-10.482-35.734-12.358-36.206l-.208-.02z"/><path d="M228.397 323.383a4.86 4.86 0 0 1-3.772-1.785L114.074 186.542l109.99-128.721a4.875 4.875 0 0 1 6.862-.545 4.85 4.85 0 0 1 .546 6.848L126.754 186.675l105.41 128.777a4.85 4.85 0 0 1-.69 6.835 4.85 4.85 0 0 1-3.077 1.096z"/><path d="M126.448 187.27c0 5.478-6.229 9.919-13.913 9.919s-21.148-9.919-21.148-9.919 13.464-9.919 21.148-9.919 13.913 4.441 13.913 9.919z"/><path d="M93.595 198.18H61.354c-3.299 0-5.997-2.699-5.997-5.997v-5.528c0-3.299 2.699-5.997 5.997-5.997h32.241c3.299 0 5.997 2.699 5.997 5.997v5.528c.001 3.298-2.698 5.997-5.997 5.997z"/><path d="M84.256 545h-14.66c-3.923 0-7.132-3.209-7.132-7.132V132.245c0-3.923 3.209-7.132 7.132-7.132h14.66c3.923 0 7.132 3.209 7.132 7.132v405.623c0 3.923-3.21 7.132-7.132 7.132z" style="fill:#999"/><path d="M62.464 189.303h28.924v7.505H62.464z"/><path d="M92.94 173.383H61.653c-3.659 0-6.653 2.752-6.653 6.116v12.233c0 1.512.608 2.897 1.606 3.967 1.223-1.312 3.032-2.149 5.047-2.149H92.94c2.015 0 3.824.837 5.047 2.149.998-1.07 1.606-2.456 1.606-3.967V179.5c0-3.364-2.994-6.117-6.653-6.117z" style="fill:#4d4d4d"/><g><path d="M595.877 297.162c4.029-10.116 7.026-18.456 10.635-26.523 6.16-13.77 17.283-18.891 29.314-13.944 12.064 4.96 16.341 16.618 11.044 30.552-3.146 8.277-6.529 16.463-10.415 26.22 10.371-1.419 19.104-2.793 27.88-3.775 15.098-1.689 26.335 5.963 27.875 18.711 1.531 12.679-6.457 22.017-21.333 24.781-4.226.785-8.511 1.245-12.763 1.892-4.243.646-8.479 1.34-14.904 2.36 6.339 8.106 12.041 15.126 17.438 22.373 6.229 8.365 8.799 17.534 2.874 27.011-8.146 13.027-25.153 14.062-35.747 2.182-6.579-7.377-12.482-15.357-19.694-24.315-4.044 10.154-7.283 18.794-10.907 27.27-5.532 12.937-16.767 18.143-28.609 13.551-11.57-4.487-16.538-15.223-12.258-28.196 2.995-9.079 6.982-17.831 11.294-28.66-10.518 1.385-18.864 2.533-27.223 3.575-15.76 1.965-26.736-4.825-28.499-17.56-1.9-13.722 6.295-23.383 22.352-26.087 8.088-1.362 16.227-2.418 26.404-3.915-5.996-7.735-11.145-14.239-16.145-20.855-9.938-13.15-9.47-25.941 1.154-34.372 10.218-8.109 23.343-5.308 33.67 7.252 5.137 6.246 10.179 12.573 16.563 20.472z" style="fill:#fff"/><path d="M576.929 430c-3.095 0-6.256-.617-9.395-1.835-13.145-5.097-18.615-17.559-13.934-31.747 2.064-6.259 4.621-12.435 7.33-18.973.719-1.736 1.451-3.505 2.196-5.327l-4.812.641c-6.405.854-11.935 1.591-17.584 2.295a45.12 45.12 0 0 1-5.563.357c-14.367 0-24.373-7.799-26.112-20.354-2.129-15.376 7.105-26.325 24.702-29.289 5.485-.924 10.868-1.69 17.1-2.576 1.469-.209 2.973-.423 4.523-.646l-2.536-3.252c-3.714-4.762-7.222-9.26-10.628-13.767-10.784-14.269-10.149-28.954 1.656-38.324 4.286-3.401 9.244-5.199 14.339-5.199 8.202 0 16.478 4.572 23.304 12.873 3.477 4.229 6.841 8.407 10.735 13.244.899 1.117 1.82 2.262 2.77 3.439.636-1.63 1.251-3.215 1.85-4.763 2.351-6.071 4.572-11.806 7.04-17.323C608.878 258.369 617.306 252 627.034 252c3.232 0 6.554.693 9.877 2.059 13.463 5.535 18.418 18.959 12.625 34.201-2.146 5.645-4.426 11.309-6.84 17.305l-1.77 4.402c1.594-.225 3.152-.447 4.682-.666 6.384-.911 12.415-1.771 18.412-2.443a39.703 39.703 0 0 1 4.397-.25c14.601 0 25.052 8.421 26.626 21.453 1.713 14.197-7.346 24.898-23.643 27.925-2.751.511-5.538.889-8.234 1.255-1.542.209-3.084.418-4.621.652-2.829.431-5.656.883-9.134 1.44l-.962.154a2058.3 2058.3 0 0 0 2.807 3.553c4.093 5.177 7.959 10.067 11.682 15.066 7.9 10.609 8.911 20.778 3.004 30.225-4.693 7.504-12.219 11.808-20.651 11.809-7.35 0-14.325-3.281-19.64-9.24-4.532-5.083-8.753-10.454-13.221-16.141-1.145-1.456-2.309-2.938-3.505-4.449-.634 1.611-1.251 3.187-1.856 4.732-2.462 6.288-4.788 12.228-7.271 18.035C595.195 423.832 586.861 430 576.929 430zm-4.883-64.809-1.798 4.515a766.217 766.217 0 0 1-4.053 9.921c-2.666 6.438-5.184 12.519-7.183 18.578-3.762 11.404.194 20.618 10.583 24.647 2.478.961 4.946 1.449 7.333 1.449 7.541 0 13.965-4.907 17.623-13.464 2.448-5.726 4.759-11.626 7.204-17.872a1781.67 1781.67 0 0 1 3.676-9.332l1.806-4.536 3.062 3.803c2.315 2.876 4.496 5.651 6.608 8.338 4.412 5.615 8.579 10.918 12.994 15.868 4.218 4.73 9.682 7.334 15.385 7.334 6.424 0 12.19-3.329 15.817-9.131 4.601-7.357 3.704-15.141-2.743-23.797-3.674-4.934-7.515-9.792-11.582-14.936a1716.119 1716.119 0 0 1-5.816-7.384l-2.981-3.812 10.523-1.676c3.495-.559 6.334-1.014 9.177-1.446a312.28 312.28 0 0 1 4.713-.666c2.628-.356 5.345-.725 7.96-1.211 13.448-2.498 20.382-10.385 19.024-21.637-1.224-10.137-9.258-16.435-20.966-16.435-1.224 0-2.489.072-3.762.215-5.911.662-11.9 1.516-18.241 2.421-3.058.436-6.229.889-9.57 1.346l-4.842.663 1.808-4.541c1.249-3.136 2.446-6.11 3.6-8.976 2.403-5.97 4.672-11.608 6.798-17.202 4.737-12.462 1.2-22.52-9.463-26.903-2.631-1.082-5.225-1.631-7.709-1.631-7.487 0-13.851 5.008-17.92 14.102-2.408 5.384-4.503 10.792-6.928 17.054-1.149 2.967-2.351 6.07-3.661 9.36l-1.803 4.525-3.062-3.789c-2.076-2.568-4.009-4.97-5.85-7.257-3.885-4.825-7.239-8.991-10.698-13.198-5.723-6.96-12.436-10.793-18.901-10.793-3.85 0-7.482 1.334-10.795 3.964-9.392 7.454-9.631 18.542-.652 30.422 3.379 4.472 6.874 8.953 10.575 13.698 1.777 2.279 3.619 4.641 5.548 7.129l2.989 3.856-4.827.711c-3.323.489-6.431.931-9.39 1.352-6.194.881-11.543 1.642-16.957 2.554-14.39 2.423-21.68 10.765-20.002 22.885 1.358 9.81 8.818 15.436 20.465 15.436 1.558 0 3.193-.105 4.858-.313 5.624-.701 11.144-1.437 17.536-2.289 3.042-.405 6.24-.832 9.668-1.283l4.822-.636z" style="fill:#808184"/></g><g><path d="M265.877 389.162c4.029-10.116 7.026-18.456 10.635-26.523 6.16-13.77 17.283-18.891 29.314-13.944 12.064 4.96 16.34 16.618 11.044 30.552-3.146 8.277-6.529 16.463-10.415 26.22 10.371-1.419 19.104-2.793 27.88-3.775 15.098-1.689 26.335 5.963 27.875 18.711 1.531 12.679-6.457 22.017-21.333 24.781-4.226.785-8.511 1.245-12.763 1.892-4.243.646-8.479 1.34-14.904 2.36 6.339 8.106 12.041 15.126 17.438 22.373 6.229 8.365 8.799 17.534 2.874 27.011-8.146 13.027-25.153 14.062-35.747 2.182-6.579-7.377-12.482-15.357-19.694-24.315-4.044 10.154-7.283 18.794-10.907 27.27-5.532 12.937-16.767 18.143-28.609 13.551-11.57-4.487-16.538-15.223-12.258-28.196 2.995-9.079 6.982-17.831 11.294-28.66-10.518 1.385-18.864 2.533-27.223 3.575-15.76 1.965-26.736-4.825-28.499-17.56-1.9-13.722 6.295-23.383 22.352-26.087 8.088-1.362 16.227-2.418 26.404-3.915-5.996-7.735-11.145-14.239-16.145-20.855-9.938-13.15-9.47-25.941 1.154-34.372 10.218-8.109 23.343-5.308 33.67 7.252 5.137 6.246 10.179 12.573 16.563 20.472z" style="fill:#fff"/><path d="M246.929 522c-3.095 0-6.256-.617-9.395-1.835-13.145-5.097-18.615-17.559-13.934-31.747 2.064-6.259 4.621-12.435 7.33-18.973.719-1.736 1.451-3.505 2.196-5.327-1.652.219-3.252.433-4.812.641-6.405.854-11.935 1.591-17.584 2.295a45.12 45.12 0 0 1-5.563.357c-14.367 0-24.373-7.799-26.112-20.354-2.129-15.376 7.105-26.325 24.702-29.289 5.485-.924 10.868-1.69 17.1-2.576 1.469-.209 2.973-.423 4.523-.646l-2.536-3.252c-3.714-4.762-7.222-9.26-10.628-13.767-10.784-14.269-10.149-28.954 1.656-38.324 4.286-3.401 9.244-5.199 14.339-5.199 8.202 0 16.478 4.572 23.304 12.873 3.477 4.229 6.841 8.407 10.735 13.244.899 1.117 1.82 2.262 2.77 3.439.637-1.63 1.251-3.215 1.85-4.763 2.351-6.071 4.572-11.806 7.04-17.323C278.878 350.369 287.306 344 297.034 344c3.232 0 6.554.693 9.877 2.059 13.463 5.535 18.418 18.959 12.625 34.201-2.146 5.645-4.426 11.309-6.84 17.305l-1.77 4.402c1.594-.225 3.152-.447 4.682-.666 6.384-.911 12.415-1.771 18.412-2.443a39.703 39.703 0 0 1 4.397-.25c14.601 0 25.052 8.421 26.626 21.453 1.713 14.197-7.346 24.898-23.643 27.925-2.751.511-5.538.889-8.234 1.255-1.542.209-3.084.418-4.621.652-2.829.431-5.656.883-9.134 1.44l-.962.154a2058.3 2058.3 0 0 0 2.807 3.553c4.093 5.177 7.959 10.067 11.682 15.066 7.9 10.609 8.911 20.778 3.004 30.225-4.693 7.504-12.219 11.808-20.651 11.809-7.35 0-14.325-3.281-19.64-9.24-4.532-5.083-8.753-10.454-13.221-16.141-1.145-1.456-2.309-2.938-3.505-4.449-.634 1.611-1.251 3.187-1.856 4.732-2.462 6.288-4.788 12.228-7.271 18.035C265.195 515.832 256.861 522 246.929 522zm-4.883-64.809-1.798 4.515a766.217 766.217 0 0 1-4.053 9.921c-2.666 6.438-5.184 12.519-7.183 18.578-3.762 11.404.194 20.618 10.583 24.647 2.478.961 4.946 1.449 7.333 1.449 7.541 0 13.965-4.907 17.623-13.464 2.449-5.726 4.759-11.626 7.204-17.872a1781.67 1781.67 0 0 1 3.676-9.332l1.806-4.536 3.062 3.803c2.315 2.876 4.496 5.651 6.608 8.338 4.412 5.615 8.579 10.918 12.994 15.868 4.218 4.73 9.682 7.334 15.385 7.334 6.424 0 12.19-3.329 15.817-9.131 4.601-7.357 3.704-15.141-2.743-23.797-3.674-4.934-7.515-9.792-11.582-14.936a1716.119 1716.119 0 0 1-5.816-7.384l-2.981-3.812 10.523-1.676c3.495-.559 6.334-1.014 9.177-1.446a312.28 312.28 0 0 1 4.713-.666c2.628-.356 5.345-.725 7.96-1.211 13.448-2.498 20.382-10.385 19.024-21.637-1.224-10.137-9.258-16.435-20.966-16.435-1.224 0-2.489.072-3.762.215-5.911.662-11.9 1.516-18.241 2.421-3.058.436-6.229.889-9.57 1.346l-4.842.663 1.808-4.541c1.249-3.136 2.446-6.11 3.6-8.976 2.403-5.97 4.673-11.608 6.798-17.202 4.737-12.462 1.2-22.52-9.463-26.903-2.631-1.082-5.225-1.631-7.709-1.631-7.487 0-13.851 5.008-17.92 14.102-2.408 5.384-4.503 10.792-6.928 17.054-1.149 2.967-2.351 6.07-3.661 9.36l-1.803 4.525-3.062-3.789c-2.076-2.568-4.009-4.97-5.85-7.257-3.885-4.825-7.239-8.991-10.698-13.198-5.723-6.96-12.436-10.793-18.901-10.793-3.85 0-7.482 1.334-10.795 3.964-9.392 7.454-9.631 18.542-.652 30.422 3.379 4.472 6.874 8.953 10.575 13.698 1.777 2.279 3.618 4.641 5.548 7.129l2.989 3.856-4.827.711c-3.323.489-6.431.931-9.39 1.352-6.194.881-11.543 1.642-16.957 2.554-14.39 2.423-21.68 10.765-20.002 22.885 1.358 9.81 8.818 15.436 20.465 15.436 1.558 0 3.193-.105 4.858-.313 5.624-.701 11.144-1.437 17.536-2.289 3.042-.405 6.24-.832 9.668-1.283l4.822-.636z" style="fill:#808184"/></g><g><path d="M455.944 429.8c3.327-8.354 5.802-15.241 8.782-21.902 5.087-11.371 14.271-15.599 24.207-11.515 9.962 4.096 13.493 13.723 9.12 25.229-2.598 6.835-5.392 13.595-8.6 21.651 8.564-1.172 15.775-2.306 23.023-3.117 12.468-1.395 21.747 4.924 23.018 15.451 1.264 10.47-5.332 18.181-17.616 20.463-3.489.648-7.028 1.028-10.539 1.563-3.504.533-7.001 1.107-12.307 1.949 5.234 6.694 9.943 12.49 14.4 18.475 5.144 6.908 7.266 14.479 2.373 22.305-6.726 10.757-20.77 11.612-29.519 1.802-5.433-6.092-10.307-12.681-16.263-20.079-3.339 8.385-6.014 15.52-9.007 22.519-4.568 10.683-13.846 14.982-23.624 11.19-9.554-3.705-13.656-12.571-10.122-23.284 2.473-7.497 5.765-14.724 9.326-23.666-8.685 1.144-15.577 2.091-22.48 2.952-13.014 1.623-22.077-3.984-23.534-14.501-1.569-11.332 5.198-19.309 18.458-21.542 6.679-1.125 13.4-1.996 21.804-3.233-4.951-6.387-9.203-11.758-13.332-17.221-8.206-10.859-7.82-21.421.953-28.384 8.438-6.696 19.275-4.383 27.803 5.988 4.241 5.16 8.404 10.384 13.676 16.907z" style="fill:#fff"/><path d="M440.297 539.493c-2.556 0-5.166-.51-7.758-1.515-10.855-4.209-15.371-14.5-11.506-26.216 1.705-5.168 3.816-10.268 6.053-15.667.594-1.434 1.198-2.895 1.814-4.399l-3.973.529c-5.289.705-9.856 1.314-14.52 1.895a37.409 37.409 0 0 1-4.594.295c-11.864 0-20.126-6.44-21.562-16.808-1.758-12.697 5.867-21.739 20.398-24.186 4.53-.763 8.974-1.395 14.12-2.127 1.213-.172 2.455-.349 3.735-.533l-2.094-2.686c-3.067-3.932-5.964-7.647-8.776-11.368-8.905-11.783-8.381-23.909 1.368-31.646 3.539-2.808 7.633-4.293 11.841-4.293 6.773 0 13.607 3.775 19.244 10.63 2.872 3.493 5.649 6.942 8.864 10.937l2.287 2.84c.526-1.346 1.033-2.655 1.528-3.933 1.941-5.013 3.776-9.749 5.814-14.305 4.102-9.171 11.062-14.43 19.094-14.43 2.669 0 5.412.572 8.156 1.7 11.117 4.571 15.209 15.656 10.425 28.242-1.772 4.662-3.655 9.338-5.648 14.29l-1.462 3.635c1.316-.186 2.603-.369 3.866-.55 5.272-.752 10.252-1.463 15.204-2.017a32.785 32.785 0 0 1 3.631-.206c12.057 0 20.687 6.954 21.987 17.715 1.414 11.724-6.066 20.56-19.523 23.06-2.272.422-4.573.734-6.8 1.037-1.273.173-2.547.346-3.816.539-2.336.356-4.671.729-7.543 1.189l-.795.127c.784.994 1.555 1.971 2.318 2.934 3.38 4.275 6.572 8.313 9.647 12.441 6.524 8.761 7.358 17.158 2.481 24.958-3.875 6.196-10.09 9.751-17.053 9.751-6.07 0-11.829-2.71-16.218-7.63-3.743-4.197-7.228-8.633-10.918-13.329-.945-1.202-1.907-2.426-2.895-3.674-.523 1.33-1.033 2.631-1.532 3.907-2.033 5.193-3.954 10.098-6.004 14.893-3.802 8.881-10.683 13.974-18.885 13.974zm-4.032-53.517-1.485 3.728a634.118 634.118 0 0 1-3.347 8.192c-2.201 5.316-4.281 10.338-5.932 15.341-3.107 9.417.16 17.026 8.739 20.352 2.046.794 4.084 1.196 6.056 1.196 6.227 0 11.531-4.052 14.552-11.118 2.022-4.728 3.93-9.6 5.949-14.758.965-2.465 1.967-5.021 3.036-7.706l1.492-3.746 2.528 3.141a739.848 739.848 0 0 1 5.457 6.885c3.643 4.636 7.084 9.016 10.73 13.104 3.483 3.906 7.995 6.056 12.704 6.056 5.305 0 10.066-2.749 13.061-7.54 3.799-6.075 3.059-12.503-2.265-19.651-3.034-4.074-6.206-8.086-9.564-12.334a1387.497 1387.497 0 0 1-4.802-6.097l-2.462-3.148 8.69-1.384c2.886-.462 5.231-.837 7.578-1.194a242.78 242.78 0 0 1 3.892-.55c2.17-.294 4.414-.599 6.573-1 11.105-2.063 16.831-8.575 15.709-17.867-1.011-8.371-7.645-13.572-17.313-13.572-1.011 0-2.056.06-3.107.177-4.881.546-9.827 1.252-15.063 1.999-2.525.36-5.144.734-7.903 1.111l-3.999.547 1.493-3.75c1.031-2.59 2.02-5.045 2.973-7.412 1.984-4.93 3.858-9.586 5.614-14.205 3.912-10.291.991-18.596-7.814-22.216-2.173-.894-4.315-1.347-6.366-1.347-6.183 0-11.438 4.136-14.798 11.645-1.988 4.446-3.718 8.912-5.721 14.082-.949 2.45-1.941 5.012-3.023 7.729l-1.489 3.737-2.528-3.129a3254.22 3254.22 0 0 1-4.831-5.993c-3.208-3.984-5.978-7.425-8.834-10.899-4.726-5.747-10.269-8.913-15.607-8.913-3.179 0-6.178 1.101-8.914 3.273-7.756 6.155-7.953 15.311-.539 25.121 2.79 3.693 5.676 7.393 8.733 11.311 1.467 1.882 2.988 3.832 4.582 5.887l2.469 3.184-3.986.587c-2.744.404-5.31.769-7.754 1.116-5.115.728-9.532 1.356-14.002 2.109-11.882 2.001-17.903 8.889-16.517 18.898 1.122 8.101 7.282 12.747 16.899 12.747 1.286 0 2.636-.087 4.012-.259 4.644-.579 9.202-1.187 14.48-1.89 2.512-.335 5.152-.687 7.983-1.06l3.981-.517z" style="fill:#808184"/></g></svg>