<svg xmlns="http://www.w3.org/2000/svg" xml:space="preserve" style="enable-background:new 0 0 750 600" viewBox="0 0 750 600"><path style="fill:#f3a51e;fill-opacity:1" d="m320.761 35.356 57.157 74.191 60.202-74.191 11.652 92.326 83.285-46.163-16.33 89.029 81.652-18.135-40.826 84.083 81.652 14.838-71.854 50.285 71.854 55.231-91.45 21.663 48.991 70.664-86.551-9.892 14.697 82.434-71.854-42.866-14.918 85.732-60.202-72.542-50.625 72.542-17.963-85.732-83.286 46.164 21.23-85.732-97.983 11.541 55.524-72.313-86.552-20.014 68.588-56.88-76.753-53.582 94.717-23.082-53.891-77.488 96.35 16.486-31.028-87.38 91.451 42.866z"/><path d="m324.97 576-18.867-90.045-87.095 48.274 22.173-89.539-102.265 12.045 57.827-75.312-88.667-20.503 71.123-58.982L99 245.951l98.147-23.918-56.349-81.023 99.473 17.021-32.091-90.373 95.909 44.955L317.856 24l60.155 78.083 63.33-78.045 12.151 96.271 85.871-47.598-16.835 91.78 84.204-18.702-42.348 87.217L651 248.746l-75.804 53.049 74.587 57.333-94.343 22.348 50.95 73.49-90.558-10.351 15.383 86.285-74.787-44.615-15.48 88.96-62.714-75.57L324.97 576zm52.632-91.589 57.689 69.515 14.356-82.504 68.921 41.116-14.012-78.584 82.546 9.435-47.032-67.839 88.557-20.978-69.12-53.13 67.902-47.52-76.689-13.937 39.305-80.95-79.101 17.569 15.826-86.278-80.698 44.729-11.154-88.382-57.073 70.336-54.159-70.299-12.36 79.553-86.994-40.777 29.965 84.387-93.227-15.953 51.432 73.955-91.286 22.245 73.308 51.177-66.054 54.779 84.435 19.524-53.221 69.314 93.702-11.037-20.287 81.925 79.477-44.052 17.059 81.419 47.987-68.758z" style="fill:#f7ee85"/><ellipse ry="163.22" rx="161.672" cy="301.619" cx="377.918" style="fill:#ff0;fill-opacity:.6062718"/><ellipse ry="155.389" rx="153.915" cy="302.031" cx="378.326" style="fill:#fbcd12;fill-opacity:.97560972"/><g style="opacity:.8;fill:#f2f2f2;fill-opacity:1"><path d="M730.899 434.359c-3.266-10.121-36.336-32.554-55.937-22.577-11.659-21.304-54.683-10.363-62.091-6.591-4.748-14.28-38.719-11.571-43.829-5.726-6.91-13.509-20.84-14.054-29.466-14.582-10.006-.613-23.628.517-30.764 6.748-7.524-8.768-21.029-9.52-33.206-9.52-14.417 0-21.974 4.394-29.101 12.619-7.333-11.707-23.693-14.6-30.962-15.182-3.399-.272-29.265-.565-36.624 10.984-6.779-13.93-31.128-12.555-38.577-12.449-3.951.056-20.097 1.141-27.619 9.863-4.594-3.502-10.215-5.587-16.307-5.587-11.412 0-21.209 7.246-25.562 17.621a49.607 49.607 0 0 0-7.243-.541c-18.118 0-30.712 4.365-30.712 16.187 0 .024-26.784-6.774-30.836 26.626-.14 1.156 0 6.12 0 7.536 0 11.116 8.96 20.211 19.911 20.211H718.09c10.95.001 19.91-9.094 19.91-20.21a20.304 20.304 0 0 0-7.101-15.43z" style="fill-rule:evenodd;clip-rule:evenodd;fill:#f2f2f2;fill-opacity:1"/><path d="M674.695 414.139c-1.104-.022-2.191.028-3.272.062-6.03-5.164-19.778-8.777-35.793-8.777-10.627 0-20.25 1.594-27.293 4.172-4.66-5.86-13.089-9.789-22.745-9.789-7.715 0-14.642 2.515-19.5 6.509-6.57-9.231-19.542-15.52-34.485-15.52-9.545 0-18.281 2.571-25.066 6.828-7.154-5.991-17.523-9.785-29.1-9.785-13.707 0-25.745 5.298-32.717 13.297-6.972-8-19.01-13.297-32.717-13.297-13.597 0-25.561 5.208-32.557 13.1-6.445-9.519-19.604-16.057-34.831-16.057-11.542 0-21.882 3.771-29.034 9.731-4.368-2.393-9.712-3.818-15.504-3.818-10.85 0-20.165 4.951-24.304 12.041a65.345 65.345 0 0 0-6.887-.37c-17.226 0-31.19 6.549-31.19 14.628 0 0 .005.032.005.049-15.258.498-27.334 6.825-27.334 14.579 0 .793.161 1.566.405 2.325a10.175 10.175 0 0 0-.405 2.825c0 7.596 8.519 13.81 18.931 13.81h471.695c10.412 0 18.931-6.215 18.931-13.81-.002-4.217-2.36-21.884-45.233-22.733z" style="fill-rule:evenodd;clip-rule:evenodd;fill:#f2f2f2;fill-opacity:1"/><path d="M721.767 444.646c-3.155-6.171-19.432-10.877-39.092-10.877-1.122 0-2.226.025-3.324.055-6.126-4.608-20.093-7.831-36.363-7.831-10.796 0-20.573 1.422-27.728 3.722-4.734-5.228-13.298-8.734-23.108-8.734-7.838 0-14.875 2.244-19.811 5.808-6.675-8.236-19.853-13.847-35.034-13.847-9.697 0-18.572 2.294-25.465 6.093-7.268-5.346-17.802-8.73-29.563-8.73-13.926 0-26.155 4.727-33.238 11.865-7.083-7.138-19.312-11.865-33.238-11.865-13.814 0-25.968 4.647-33.076 11.689-6.548-8.493-19.916-14.327-35.385-14.327-11.725 0-22.231 3.365-29.496 8.682-4.437-2.135-9.866-3.406-15.751-3.406-11.023 0-20.486 4.418-24.691 10.743a75.382 75.382 0 0 0-6.996-.33c-17.5 0-31.687 5.843-31.687 13.052 0 0 .005.029.005.043-15.501.444-27.769 6.09-27.769 13.008v4.595c0 6.777 8.655 12.322 19.233 12.322h479.206c10.578 0 19.232-5.545 19.232-12.322-.002-3.763-2.676-7.143-6.861-9.408z" style="fill-rule:evenodd;clip-rule:evenodd;fill:#f2f2f2;fill-opacity:1"/><path d="M721.767 440.253c-3.155-6.171-19.432-10.877-39.092-10.877-1.122 0-2.226.025-3.324.055-6.126-4.608-20.093-7.831-36.363-7.831-10.796 0-20.573 1.422-27.728 3.722-4.734-5.228-13.298-8.734-23.108-8.734-7.838 0-14.875 2.244-19.811 5.808-6.675-8.236-19.853-13.847-35.034-13.847-9.697 0-18.572 2.294-25.465 6.093-7.268-5.346-17.802-8.73-29.563-8.73-13.926 0-26.155 4.727-33.238 11.865-7.083-7.138-19.312-11.865-33.238-11.865-13.814 0-25.968 4.647-33.076 11.689-6.548-8.493-19.916-14.327-35.385-14.327-11.725 0-22.231 3.365-29.496 8.682-4.437-2.135-9.866-3.406-15.751-3.406-11.023 0-20.486 4.418-24.691 10.743a75.382 75.382 0 0 0-6.996-.33c-17.5 0-31.687 5.843-31.687 13.052 0 .015.005.029.005.029-15.501.459-27.769 6.105-27.769 13.023v4.595c0 6.777 8.655 12.322 19.233 12.322h479.206c10.578 0 19.232-5.545 19.232-12.322-.002-3.765-2.676-7.144-6.861-9.409z" style="fill-rule:evenodd;clip-rule:evenodd;fill:#f2f2f2;fill-opacity:1"/><path d="M709.582 434.026c.366-7.702-15.541-10.677-34.893-10.677-1.104 0-2.191.023-3.272.05-6.03-4.216-19.778-7.165-35.793-7.165-10.627 0-20.25 1.301-27.293 3.406-4.66-4.784-13.089-7.992-22.745-7.992-7.715 0-14.642 2.053-19.5 5.314-6.57-7.536-19.542-12.67-34.485-12.67-9.545 0-18.281 2.099-25.066 5.574-7.154-4.891-17.523-7.988-29.1-7.988-13.707 0-25.745 4.325-32.717 10.856-6.972-6.531-19.01-10.856-32.717-10.856-13.597 0-25.561 4.252-32.557 10.695-6.445-7.771-19.604-13.108-34.831-13.108-11.542 0-21.882 3.078-29.034 7.944-4.368-1.953-9.712-3.117-15.504-3.117-10.85 0-20.165 4.042-24.304 9.83a79.848 79.848 0 0 0-6.887-.302c-17.226 0-31.19 5.346-31.19 11.942 0 0 .005.026.005.04-15.258.406-27.334 5.572-27.334 11.902 0 .648.161 1.278.404 1.898a6.897 6.897 0 0 0-.404 2.306c0 6.201 8.519 11.274 18.931 11.274h471.695c10.412 0 18.931-5.073 18.931-11.274-.002-3.443.808-7.882-10.34-7.882z" style="fill-rule:evenodd;clip-rule:evenodd;fill:#f2f2f2;fill-opacity:1"/></g><g style="opacity:.8;fill:#f2f2f2;fill-opacity:1"><path d="M488.101 292.346c-2.943-9.131-32.743-29.369-50.406-20.368-10.506-19.22-49.276-9.349-55.951-5.946-4.279-12.883-34.89-10.439-39.495-5.166-6.227-12.187-18.779-12.679-26.552-13.156-9.016-.553-21.291.466-27.722 6.088-6.78-7.91-18.95-8.588-29.922-8.588-12.992 0-19.801 3.964-26.224 11.384-6.608-10.562-21.35-13.171-27.9-13.697-3.063-.246-26.371-.51-33.002 9.91-6.109-12.567-28.05-11.327-34.763-11.231-3.56.051-18.11 1.029-24.888 8.898-4.14-3.159-9.205-5.04-14.695-5.04-10.283 0-19.112 6.537-23.034 15.897a44.705 44.705 0 0 0-6.527-.488c-16.326 0-27.676 3.938-27.676 14.604 0 .022-24.136-6.111-27.787 24.021-.126 1.043 0 5.521 0 6.799 0 10.028 8.074 18.233 17.942 18.233h447.06c9.868 0 17.942-8.205 17.942-18.233a18.33 18.33 0 0 0-6.4-13.921z" style="fill-rule:evenodd;clip-rule:evenodd;fill:#f2f2f2;fill-opacity:1"/><path d="M437.455 274.104c-.995-.02-1.974.025-2.949.056-5.434-4.659-17.822-7.918-32.254-7.918-9.576 0-18.248 1.438-24.594 3.764-4.199-5.286-11.795-8.832-20.496-8.832-6.952 0-13.194 2.269-17.572 5.872-5.92-8.328-17.61-14.001-31.075-14.001-8.601 0-16.474 2.319-22.588 6.16-6.446-5.405-15.79-8.828-26.222-8.828-12.352 0-23.2 4.779-29.482 11.996-6.282-7.217-17.13-11.996-29.482-11.996-12.253 0-23.033 4.699-29.338 11.819-5.808-8.588-17.666-14.486-31.387-14.486-10.4 0-19.718 3.402-26.163 8.779-3.936-2.159-8.751-3.444-13.971-3.444-9.777 0-18.171 4.467-21.901 10.863a58.808 58.808 0 0 0-6.206-.333c-15.522 0-28.106 5.908-28.106 13.197 0 0 .005.029.005.044-13.749.449-24.631 6.158-24.631 13.153 0 .716.145 1.413.365 2.098a9.183 9.183 0 0 0-.365 2.548c0 6.853 7.677 12.459 17.059 12.459h425.053c9.383 0 17.059-5.607 17.059-12.459-.001-3.807-2.126-19.745-40.759-20.511z" style="fill-rule:evenodd;clip-rule:evenodd;fill:#f2f2f2;fill-opacity:1"/><path d="M479.872 301.627c-2.843-5.567-17.511-9.813-35.227-9.813-1.011 0-2.005.023-2.996.05-5.521-4.157-18.106-7.065-32.768-7.065-9.729 0-18.538 1.283-24.986 3.358-4.266-4.717-11.983-7.88-20.823-7.88-7.063 0-13.404 2.025-17.852 5.24-6.015-7.431-17.89-12.493-31.57-12.493-8.738 0-16.736 2.069-22.947 5.497-6.549-4.823-16.041-7.876-26.64-7.876-12.549 0-23.569 4.264-29.952 10.704-6.382-6.439-17.403-10.704-29.952-10.704-12.448 0-23.4 4.193-29.805 10.545-5.9-7.662-17.947-12.925-31.886-12.925-10.566 0-20.032 3.035-26.579 7.833-3.998-1.926-8.891-3.073-14.194-3.073-9.933 0-18.461 3.985-22.249 9.692a68.01 68.01 0 0 0-6.305-.297c-15.77 0-28.554 5.272-28.554 11.775 0 0 .005.026.005.039-13.968.401-25.023 5.494-25.023 11.736v4.145c0 6.114 7.799 11.117 17.331 11.117h431.822c9.532 0 17.33-5.003 17.33-11.117.001-3.396-2.409-6.445-6.18-8.488z" style="fill-rule:evenodd;clip-rule:evenodd;fill:#f2f2f2;fill-opacity:1"/><path d="M479.872 297.663c-2.843-5.567-17.511-9.813-35.227-9.813-1.011 0-2.005.023-2.996.05-5.521-4.157-18.106-7.065-32.768-7.065-9.729 0-18.538 1.283-24.986 3.358-4.266-4.717-11.983-7.88-20.823-7.88-7.063 0-13.404 2.025-17.852 5.24-6.015-7.431-17.89-12.493-31.57-12.493-8.738 0-16.736 2.069-22.947 5.497-6.549-4.823-16.041-7.876-26.64-7.876-12.549 0-23.569 4.264-29.952 10.704-6.382-6.439-17.403-10.704-29.952-10.704-12.448 0-23.4 4.193-29.805 10.545-5.9-7.662-17.947-12.925-31.886-12.925-10.566 0-20.032 3.035-26.579 7.833-3.998-1.926-8.891-3.073-14.194-3.073-9.933 0-18.461 3.985-22.249 9.692a68.004 68.004 0 0 0-6.305-.298c-15.77 0-28.554 5.272-28.554 11.775 0 .013.005.026.005.026-13.968.414-25.023 5.507-25.023 11.749v4.145c0 6.114 7.799 11.117 17.331 11.117h431.822c9.532 0 17.33-5.003 17.33-11.117.001-3.395-2.409-6.444-6.18-8.487z" style="fill-rule:evenodd;clip-rule:evenodd;fill:#f2f2f2;fill-opacity:1"/><path d="M468.892 292.045c.33-6.949-14.005-9.633-31.443-9.633-.995 0-1.974.021-2.949.046-5.434-3.804-17.822-6.464-32.254-6.464-9.576 0-18.248 1.174-24.594 3.073-4.199-4.316-11.795-7.21-20.496-7.21-6.952 0-13.194 1.853-17.572 4.794-5.92-6.799-17.61-11.43-31.075-11.43-8.601 0-16.474 1.893-22.588 5.029-6.446-4.413-15.79-7.207-26.222-7.207-12.352 0-23.2 3.902-29.482 9.794-6.282-5.892-17.13-9.794-29.482-9.794-12.253 0-23.033 3.836-29.338 9.648-5.808-7.011-17.666-11.826-31.387-11.826-10.4 0-19.718 2.777-26.163 7.167-3.936-1.762-8.751-2.812-13.971-2.812-9.777 0-18.171 3.647-21.901 8.868a71.942 71.942 0 0 0-6.206-.272c-15.522 0-28.106 4.823-28.106 10.773 0 0 .005.024.005.036-13.749.367-24.631 5.027-24.631 10.738 0 .584.145 1.153.365 1.712a6.23 6.23 0 0 0-.365 2.08c0 5.594 7.677 10.171 17.059 10.171h425.053c9.383 0 17.059-4.577 17.059-10.171 0-3.105.73-7.11-9.316-7.11z" style="fill-rule:evenodd;clip-rule:evenodd;fill:#f2f2f2;fill-opacity:1"/></g></svg>