<?xml version="1.0" encoding="iso-8859-1"?>
<!-- Generator: Adobe Illustrator 18.1.0, SVG Export Plug-In . SVG Version: 6.00 Build 0)  -->
<svg version="1.1" id="NEBBIA" xmlns="http://www.w3.org/2000/svg" xmlns:xlink="http://www.w3.org/1999/xlink" x="0px" y="0px"
	 viewBox="0 0 750 600" style="enable-background:new 0 0 750 600;" xml:space="preserve">
<g id="_x34__x5F_DOWN">
	<path id="rettangolo_x5F_piccolo_x5F_NB_1_" style="fill:#FFFFFF;" d="M657.539,478.304H93.244
		c-8.259,0-15.017-6.758-15.017-15.017v-4.084c0-8.259,6.758-15.017,15.017-15.017h564.295c8.259,0,15.017,6.758,15.017,15.017
		v4.084C672.556,471.546,665.798,478.304,657.539,478.304z"/>
	<path id="bordo_x5F_ret_x5F_piccolo_x5F_NB" style="fill:#676767;" d="M657.811,481.245H92.972c-9.694,0-17.58-8.18-17.58-18.235
		v-3.529c0-10.055,7.886-18.235,17.58-18.235h564.839c9.694,0,17.58,8.18,17.58,18.235v3.529
		C675.392,473.065,667.505,481.245,657.811,481.245z M92.972,447.128c-6.567,0-11.909,5.541-11.909,12.353v3.529
		c0,6.812,5.342,12.353,11.909,12.353h564.839c6.567,0,11.909-5.541,11.909-12.353v-3.529c0-6.812-5.342-12.353-11.909-12.353
		H92.972z"/>
</g>
<g id="_x33__x5F_DOWN_x5F_MID">
	<path id="rettangolo_x5F_medio_x5F_NB_1_" style="fill:#F2F2F2;" d="M647.831,404.64H102.168c-13.383,0-24.333-10.95-24.333-24.333
		v-3.419c0-13.383,10.95-24.333,24.333-24.333h545.663c13.383,0,24.333,10.95,24.333,24.333v3.419
		C672.164,393.69,661.214,404.64,647.831,404.64z"/>
	<path id="bordo_x5F_ret_x5F_medio_x5F_NB" style="fill:#676767;" d="M648.346,407.599H101.654C86.957,407.599,75,395.12,75,379.781
		v-2.367c0-15.339,11.957-27.818,26.654-27.818h546.692c14.697,0,26.654,12.479,26.654,27.818v2.367
		C675,395.12,663.043,407.599,648.346,407.599z M101.654,355.514c-11.57,0-20.983,9.824-20.983,21.899v2.367
		c0,12.076,9.413,21.899,20.983,21.899h546.692c11.57,0,20.983-9.824,20.983-21.899v-2.367c0-12.076-9.413-21.899-20.983-21.899
		H101.654z"/>
</g>
<g id="_x32__x5F_UP_x5F_MID">
	<path id="rettangolo_x5F_grande_x5F_NB_1_" style="fill:#DDDDDC;" d="M642.894,317.269H106.322
		c-15.883,0-28.879-12.995-28.879-28.879v-16.36c0-15.883,12.995-28.879,28.879-28.879h536.571
		c15.883,0,28.879,12.995,28.879,28.879v16.36C671.773,304.274,658.777,317.269,642.894,317.269z"/>
	<path id="bordo_x5F_ret_x5F_grande_x5F_NB" style="fill:#676767;" d="M643.418,320.211H105.799
		c-17.198,0-31.191-14.514-31.191-32.353v-15.294c0-17.839,13.993-32.353,31.191-32.353h537.618
		c17.198,0,31.191,14.513,31.191,32.353v15.294C674.608,305.697,660.616,320.211,643.418,320.211z M105.799,246.093
		c-14.071,0-25.52,11.874-25.52,26.471v15.294c0,14.596,11.448,26.471,25.52,26.471h537.618c14.071,0,25.52-11.875,25.52-26.471
		v-15.294c0-14.596-11.448-26.471-25.52-26.471H105.799z"/>
</g>
<g id="_x31__x5F_UP">
	<path id="rettangolo_x5F_maxi_x5F_NB_1_" style="fill:#CCCBCB;" d="M637.499,208.983H112.501
		c-19.066,0-34.665-15.599-34.665-34.665v-17.783c0-19.066,15.599-34.665,34.665-34.665h524.998
		c19.066,0,34.665,15.599,34.665,34.665v17.783C672.164,193.384,656.565,208.983,637.499,208.983z"/>
	<path id="bordo_x5F_ret_x5F_maxi_x5F_NB" style="fill:#676767;" d="M638.138,211.926H111.862C91.536,211.926,75,194.763,75,173.666
		v-16.481c0-21.096,16.536-38.259,36.862-38.259h526.276c20.326,0,36.862,17.163,36.862,38.259v16.481
		C675,194.763,658.464,211.926,638.138,211.926z M111.862,124.812c-17.198,0-31.191,14.523-31.191,32.373v16.481
		c0,17.851,13.993,32.373,31.191,32.373h526.276c17.198,0,31.191-14.523,31.191-32.373v-16.481
		c0-17.851-13.993-32.373-31.191-32.373H111.862z"/>
</g>
</svg>
