<svg xmlns="http://www.w3.org/2000/svg" viewBox="0 0 750 600" style="enable-background:new 0 0 750 600" xml:space="preserve"><path style="fill:#f3a51e;fill-opacity:1" d="m408.56 128.44 43.696 56.718 46.024-56.718 8.908 70.583 63.671-35.292-12.484 68.063 62.422-13.865-31.211 64.281 62.423 11.344-54.932 38.442 54.932 42.224-69.914 16.561 37.454 54.022-66.168-7.562 11.236 63.02-54.932-32.77-11.405 65.541-46.024-55.458-38.702 55.458-13.733-65.541-63.671 35.291 16.23-65.541-74.907 8.823 42.447-55.283-66.168-15.301 52.435-43.484-58.677-40.963 72.41-17.646-41.199-59.239 73.659 12.604-23.721-66.802 69.914 32.771z"/><path style="fill:#f7ee85" d="m411.778 541.758-14.424-68.839-66.583 36.905 16.951-68.452-78.181 9.209 44.209-57.575-67.786-15.674 54.373-45.091-61.311-42.802 75.033-18.285-43.078-61.941 76.047 13.013-24.534-69.09 73.321 34.368 10.525-67.744 45.988 59.694 48.415-59.665 9.29 73.598 65.648-36.388-12.87 70.165 64.373-14.298-32.374 66.676 66.217 12.034-57.952 40.556 57.021 43.83-72.125 17.085 38.951 56.182-69.231-7.913 11.761 65.964-57.174-34.108-11.834 68.009-47.945-57.773-40.721 58.35zm40.236-70.019 44.103 53.144 10.975-63.074 52.69 31.433-10.712-60.077 63.106 7.213-35.956-51.862 67.701-16.038-52.841-40.618 51.911-36.329-58.628-10.654 30.048-61.886-60.472 13.432 12.099-65.959-61.693 34.195-8.527-67.567-43.632 53.771-41.404-53.743-9.449 60.818-66.506-31.173 22.908 64.514-71.271-12.196 39.319 56.538-69.787 17.006 56.043 39.124-50.499 41.879 64.55 14.926-40.687 52.99 71.635-8.438-15.51 62.631 60.76-33.677 13.042 62.244 36.684-52.567z"/><ellipse style="fill:#ff0;fill-opacity:.61672473" cx="452.256" cy="331.996" rx="123.597" ry="124.781"/><ellipse style="fill:#fbca0c;fill-opacity:1" cx="452.568" cy="332.311" rx="117.667" ry="118.794"/><g><path style="fill:#f2f2f2" d="M682.715 102.906c6.783 0 12.285 14.547 12.285 32.478s-5.504 32.478-12.285 32.478l-72.966 24.586c5.828-3.764 10.27-23.694 10.27-47.685 0-26.7-5.504-48.346-12.285-48.346l.078-.826 74.903 7.315z"/><path style="fill:#e22527;fill-opacity:1" d="m607.796 193.108-72.854 24.536c6.332-5.779 13.396-32.412 13.396-64.394 0-32.807-7.442-59.969-13.882-64.807l73.356 7.15-.078.826c6.783 0 12.285 21.646 12.285 48.346 0 23.991-4.442 43.92-10.27 47.685l-1.953.658z"/><path style="fill:#f2f2f2" d="M534.456 88.442c6.44 4.838 13.882 32 13.882 64.807 0 31.983-7.067 58.615-13.396 64.394l-76.591 25.808c6.252-3.847 11.145-38.687 11.145-81.104 0-44.267-5.327-80.312-11.97-81.418l76.919 7.496.011.017z"/><path style="fill:#e22527;fill-opacity:1" d="m457.366 243.781-75.465 25.427-.498-1.651c6.987-2.179 20.006-37.728 20.006-89.789 0-50.475-12.237-98.523-19.349-104.203l75.151 7.331c.108 0 .22.016.313.033 6.643 1.106 11.97 37.151 11.97 81.418 0 42.418-4.892 77.257-11.144 81.104l-.984.33z"/><path style="fill:#f2f2f2" d="m381.401 267.557.498 1.651-83.234 28.037-.313-1.057c8.349-2.889 23.339-50.162 23.339-112.096 0-59.904-14.023-112.262-22.495-118.618l82.861 8.09c7.112 5.68 19.351 53.728 19.351 104.203.001 52.062-13.02 87.611-20.007 89.79z"/><path style="fill:#e22527;fill-opacity:1" d="m298.355 296.189.313 1.057-64.305 21.662c11.332-7.496 20.117-62.66 20.117-129.564 0-70.785-9.832-128.376-22.086-130.391l66.804 6.522c8.473 6.356 22.495 58.714 22.495 118.618-.001 61.933-14.991 109.206-23.338 112.096z"/><path style="fill:#88181c" d="M209.275 167.862c1.782-61.835 11.161-108.975 22.444-108.975l.674.066c12.254 2.015 22.086 59.606 22.086 130.391 0 66.904-8.785 122.068-20.117 129.564l-2.641.892c-12.567 0-22.759-58.417-22.759-130.456l.313-21.482z"/><path d="M232.361 323.686h-.641c-5.452 0-13.449-4.295-19.928-41.433-4.336-24.856-6.724-57.852-6.724-92.91l.313-21.538c.876-30.39 3.623-58.211 7.737-78.394C219.406 58.567 226.745 55 231.719 55l.383.019.925.099c2.955.486 11.946 1.964 18.844 42.592 4.194 24.696 6.503 57.239 6.503 91.634 0 56.998-6.841 122.869-21.86 132.804l-.423.28-3.73 1.258zm-.735-260.904c-1.272.249-6.228 5.376-10.876 28.179-4.028 19.759-6.721 47.11-7.582 77.013l-.312 21.426c0 34.568 2.348 67.091 6.609 91.52 4.705 26.966 10.114 34.02 11.906 34.895l1.163-.393c1.732-1.469 7.422-8.512 12.289-39.618 3.716-23.75 5.762-54.456 5.762-86.461 0-33.973-2.27-66.054-6.393-90.335-4.832-28.459-10.482-35.734-12.358-36.206l-.208-.02z"/><path d="M228.397 323.383a4.86 4.86 0 0 1-3.772-1.785L114.074 186.542l109.99-128.721a4.875 4.875 0 0 1 6.862-.545 4.85 4.85 0 0 1 .546 6.848L126.754 186.675l105.41 128.777a4.85 4.85 0 0 1-.69 6.835 4.85 4.85 0 0 1-3.077 1.096z"/><path d="M126.448 187.27c0 5.478-6.229 9.919-13.913 9.919s-21.148-9.919-21.148-9.919 13.464-9.919 21.148-9.919 13.913 4.441 13.913 9.919z"/><path d="M93.595 198.18H61.354c-3.299 0-5.997-2.699-5.997-5.997v-5.528c0-3.299 2.699-5.997 5.997-5.997h32.241c3.299 0 5.997 2.699 5.997 5.997v5.528c.001 3.298-2.698 5.997-5.997 5.997z"/><path style="fill:#999" d="M84.256 545h-14.66c-3.923 0-7.132-3.209-7.132-7.132V132.245c0-3.923 3.209-7.132 7.132-7.132h14.66c3.923 0 7.132 3.209 7.132 7.132v405.623c0 3.923-3.21 7.132-7.132 7.132z"/><path d="M62.464 189.303h28.924v7.505H62.464z"/><path style="fill:#4d4d4d" d="M92.94 173.383H61.653c-3.659 0-6.653 2.752-6.653 6.116v12.233c0 1.512.608 2.897 1.606 3.967 1.223-1.312 3.032-2.149 5.047-2.149H92.94c2.015 0 3.824.837 5.047 2.149.998-1.07 1.606-2.456 1.606-3.967V179.5c0-3.364-2.994-6.117-6.653-6.117z"/></g></svg>