<svg xmlns="http://www.w3.org/2000/svg" xml:space="preserve" style="enable-background:new 0 0 750 600" viewBox="0 0 750 600"><path d="M510.314 281.611s-25.732-41.629-84.519-41.629c-115.717 0-127.901 98.718-127.901 98.718s-71.367 8.062-71.413 82.946c-.031 51.102 26.58 73.628 44.152 83.878 7.569 4.415 14.902 9.461 45.413 9.461h280.049c41.629 0 49.866-8.076 56.767-12.615 15.813-10.401 38.476-33.366 38.475-82.563-.001-74.723-79.165-82.193-79.165-82.193s-.18-26.966-31.846-48.434c-35.071-23.776-70.012-7.569-70.012-7.569z" style="fill-rule:evenodd;clip-rule:evenodd;fill:#999;fill-opacity:1"/><path d="M503.376 301.795s-39.731-54.545-119.637-32.06c-71.852 20.22-68.955 79.996-68.955 79.996s-70.344 7.849-72.463 73.489c-1.965 60.858 35.249 70.95 40.295 73.473 6.285 3.143 12.615 5.046 27.706 5.068l302.802-.022c8.2 0 8.2 0 16.399-2.523 8.694-2.675 50.459-20.814 46.044-68.751-6.01-65.257-73.797-71.274-73.797-71.274s3.771-28.631-26.491-50.459c-32.656-23.554-71.903-6.937-71.903-6.937z" style="fill-rule:evenodd;clip-rule:evenodd;fill:#f1f1f2;fill-opacity:1"/><path d="M507.584 297.38s-39.879-65.061-117.39-44.486c-69.699 18.502-77.345 93.053-77.345 93.053s-70.847 6.14-69.969 66.228c.609 41.723 33.666 60.772 49.852 67.71 6.201 2.658 12.977 4.195 19.896 4.195h301.817c7.642 0 14.794-2.38 21.387-5.677 6.307-3.154 38.736-15.139 39.106-58.028.629-72.857-69.381-66.858-69.381-66.858s.236-33.337-29.119-53.31c-31.68-21.555-68.854-2.827-68.854-2.827z" style="fill-rule:evenodd;clip-rule:evenodd;fill:#a8abad;fill-opacity:1"/><path d="M350.736 426.681s15.784 25.904 52.351 25.23c38.674-.714 56.767-28.383 56.767-28.383s6.835 30.232 50.459 30.906c35.922.556 44.152-24.599 44.152-24.599s9.175 41.218 63.705 37.844c14.155-.876 48.227-14.074 48.567-47.016.642-62.08-70.012-58.948-70.012-58.948s0-21.445-19.553-42.26c-28.86-30.722-75.689-10.092-75.689-10.092s-22.51-44.077-89.043-42.212c-80.493 2.254-91.98 88.256-91.98 88.256s-69.036-2.567-66.228 58.508c1.892 41.149 34.564 44.934 55.505 44.934 28.87 0 40.999-32.168 40.999-32.168z" style="fill-rule:evenodd;clip-rule:evenodd;fill:#dfd8d9;fill-opacity:1"/><path d="M353.257 447.842s20.219 20.109 54.956 19.468c36.739-.678 50.582-19.871 50.582-19.871s14.936 20.872 54.672 20.872c34.303 0 48.567-20.814 48.567-20.814s7.569 21.445 46.044 20.814c37.845-.62 49.828-18.922 49.828-39.106 0-48.119-67.489-40.367-67.489-40.367s2.996-33.594-20.184-53.613c-27.753-23.968-69.381-6.307-69.381-6.307s-22.553-39.737-85.781-39.737c-80.104 0-92.719 89.565-92.719 89.565s-62.443-13.278-62.443 41.629c0 34.691 29.305 44.152 49.198 44.152 27.425-.001 44.15-16.685 44.15-16.685z" style="fill-rule:evenodd;clip-rule:evenodd;fill:#bbc3c9;fill-opacity:1"/><g><path d="M682.715 102.906c6.783 0 12.285 14.547 12.285 32.478s-5.504 32.478-12.285 32.478l-72.966 24.586c5.828-3.764 10.27-23.694 10.27-47.685 0-26.7-5.504-48.346-12.285-48.346l.078-.826 74.903 7.315z" style="fill:#f2f2f2"/><path d="m607.796 193.108-72.854 24.536c6.332-5.779 13.396-32.412 13.396-64.394 0-32.807-7.442-59.969-13.882-64.807l73.356 7.15-.078.826c6.783 0 12.285 21.646 12.285 48.346 0 23.991-4.442 43.92-10.27 47.685l-1.953.658z" style="fill:#e22527;fill-opacity:1"/><path d="M534.456 88.442c6.44 4.838 13.882 32 13.882 64.807 0 31.983-7.067 58.615-13.396 64.394l-76.591 25.808c6.252-3.847 11.145-38.687 11.145-81.104 0-44.267-5.327-80.312-11.97-81.418l76.919 7.496.011.017z" style="fill:#f2f2f2"/><path d="m457.366 243.781-75.465 25.427-.498-1.651c6.987-2.179 20.006-37.728 20.006-89.789 0-50.475-12.237-98.523-19.349-104.203l75.151 7.331c.108 0 .22.016.313.033 6.643 1.106 11.97 37.151 11.97 81.418 0 42.418-4.892 77.257-11.144 81.104l-.984.33z" style="fill:#e22527;fill-opacity:1"/><path d="m381.401 267.557.498 1.651-83.234 28.037-.313-1.057c8.349-2.889 23.339-50.162 23.339-112.096 0-59.904-14.023-112.262-22.495-118.618l82.861 8.09c7.112 5.68 19.351 53.728 19.351 104.203.001 52.062-13.02 87.611-20.007 89.79z" style="fill:#f2f2f2"/><path d="m298.355 296.189.313 1.057-64.305 21.662c11.332-7.496 20.117-62.66 20.117-129.564 0-70.785-9.832-128.376-22.086-130.391l66.804 6.522c8.473 6.356 22.495 58.714 22.495 118.618-.001 61.933-14.991 109.206-23.338 112.096z" style="fill:#e22527;fill-opacity:1"/><path d="M209.275 167.862c1.782-61.835 11.161-108.975 22.444-108.975l.674.066c12.254 2.015 22.086 59.606 22.086 130.391 0 66.904-8.785 122.068-20.117 129.564l-2.641.892c-12.567 0-22.759-58.417-22.759-130.456l.313-21.482z" style="fill:#88181c"/><path d="M232.361 323.686h-.641c-5.452 0-13.449-4.295-19.928-41.433-4.336-24.856-6.724-57.852-6.724-92.91l.313-21.538c.876-30.39 3.623-58.211 7.737-78.394C219.406 58.567 226.745 55 231.719 55l.383.019.925.099c2.955.486 11.946 1.964 18.844 42.592 4.194 24.696 6.503 57.239 6.503 91.634 0 56.998-6.841 122.869-21.86 132.804l-.423.28-3.73 1.258zm-.735-260.904c-1.272.249-6.228 5.376-10.876 28.179-4.028 19.759-6.721 47.11-7.582 77.013l-.312 21.426c0 34.568 2.348 67.091 6.609 91.52 4.705 26.966 10.114 34.02 11.906 34.895l1.163-.393c1.732-1.469 7.422-8.512 12.289-39.618 3.716-23.75 5.762-54.456 5.762-86.461 0-33.973-2.27-66.054-6.393-90.335-4.832-28.459-10.482-35.734-12.358-36.206l-.208-.02z"/><path d="M228.397 323.383a4.86 4.86 0 0 1-3.772-1.785L114.074 186.542l109.99-128.721a4.875 4.875 0 0 1 6.862-.545 4.85 4.85 0 0 1 .546 6.848L126.754 186.675l105.41 128.777a4.85 4.85 0 0 1-.69 6.835 4.85 4.85 0 0 1-3.077 1.096z"/><path d="M126.448 187.27c0 5.478-6.229 9.919-13.913 9.919s-21.148-9.919-21.148-9.919 13.464-9.919 21.148-9.919 13.913 4.441 13.913 9.919z"/><path d="M93.595 198.18H61.354c-3.299 0-5.997-2.699-5.997-5.997v-5.528c0-3.299 2.699-5.997 5.997-5.997h32.241c3.299 0 5.997 2.699 5.997 5.997v5.528c.001 3.298-2.698 5.997-5.997 5.997z"/><path d="M84.256 545h-14.66c-3.923 0-7.132-3.209-7.132-7.132V132.245c0-3.923 3.209-7.132 7.132-7.132h14.66c3.923 0 7.132 3.209 7.132 7.132v405.623c0 3.923-3.21 7.132-7.132 7.132z" style="fill:#999"/><path d="M62.464 189.303h28.924v7.505H62.464z"/><path d="M92.94 173.383H61.653c-3.659 0-6.653 2.752-6.653 6.116v12.233c0 1.512.608 2.897 1.606 3.967 1.223-1.312 3.032-2.149 5.047-2.149H92.94c2.015 0 3.824.837 5.047 2.149.998-1.07 1.606-2.456 1.606-3.967V179.5c0-3.364-2.994-6.117-6.653-6.117z" style="fill:#4d4d4d"/></g></svg>