<svg xmlns="http://www.w3.org/2000/svg" xml:space="preserve" style="enable-background:new 0 0 750 600" viewBox="0 0 750 600">
    <path d="m328.924 516.821-16.434-78.436-75.779 42.005 19.286-77.885-88.935 10.476 50.263-65.465-76.747-17.748 61.751-51.213-69.764-48.708 85.199-20.763-49.027-70.499 86.269 14.763-27.843-78.418 83.508 39.145 12.003-77.255 52.423 68.051 55.184-68.011 10.565 83.708L515.293 79.3l-14.594 79.574 73.006-16.216-36.771 75.734 75.63 13.745-66.1 46.263 64.777 49.793-81.805 19.38 44.269 63.856-78.802-9.007 13.387 75.097-64.993-38.775L429.853 516l-54.514-65.693-46.415 66.514zm45.727-83.124 49.045 59.103 12.221-70.23 58.61 34.967-11.894-66.717 70.083 8.011-40.006-57.706 75.509-17.889-58.828-45.22 57.504-40.245-64.829-11.781 33.459-68.915-67.453 14.982 13.496-73.585-68.818 38.147-9.481-75.123-48.376 59.621-45.899-59.581-10.471 67.395-73.807-34.598 25.53 71.903-79.472-13.6 43.676 62.807-77.734 18.944 62.266 43.473-56.235 46.638 72.141 16.684-45.25 58.936 79.617-9.379-17.233 69.6 67.489-37.41 14.468 69.05 40.672-58.282z" style="fill:#fcfae2"/>
    <path d="m325.834 49.178 49.161 63.816 51.78-63.816 10.022 79.416 71.634-39.708-14.046 76.579 70.23-15.599-35.115 72.325 70.23 12.763-61.803 43.253 61.803 47.508-78.658 18.633 42.138 60.782-74.443-8.509 12.641 70.907-61.802-36.871-12.831 73.743-51.78-62.398-43.543 62.398-15.45-73.743-71.635 39.707 18.26-73.743-84.276 9.927 47.757-62.2-74.444-17.215 58.993-48.926-66.016-46.089 81.467-19.854-46.352-66.653 82.871 14.182-26.687-75.161 78.657 36.871z" style="fill:#fded40;fill-opacity:1"/>
    <linearGradient id="a" x1="374.995" x2="374.995" y1="418.603" y2="137.812" gradientUnits="userSpaceOnUse">
        <stop offset="0" style="stop-color:#faef65"/>
        <stop offset="1" style="stop-color:#fff6ad"/>
    </linearGradient>
    <ellipse cx="374.995" cy="278.207" rx="139.055" ry="140.395" style="fill:url(#a)"/>
    <ellipse cx="375.346" cy="278.562" rx="132.383" ry="133.659" style="fill:#fdf171;fill-opacity:1"/>
    <ellipse cx="377.101" cy="240.272" rx="102.535" ry="85.443" style="fill:#fdf7c4;fill-opacity:1"/>
    <path d="M620.918 560.769H129.082c-9.223 0-16.769-7.546-16.769-16.769 0-9.223 7.546-16.769 16.769-16.769h491.836c9.223 0 16.769 7.546 16.769 16.769 0 9.223-7.546 16.769-16.769 16.769z" style="fill:#fff"/>
    <path d="M620.918 563.563H129.082c-10.787 0-19.563-8.776-19.563-19.563s8.776-19.563 19.563-19.563h491.837c10.787 0 19.563 8.776 19.563 19.563s-8.776 19.563-19.564 19.563zm-491.836-33.537c-7.705 0-13.974 6.269-13.974 13.974s6.269 13.974 13.974 13.974h491.837c7.705 0 13.974-6.269 13.974-13.974s-6.269-13.974-13.974-13.974H129.082z" style="fill:#979797"/>
    <path d="M616.469 439.358H133.532c-11.682 0-21.24-9.558-21.24-21.24v-2.236c0-11.682 9.558-21.24 21.24-21.24h482.937c11.682 0 21.24 9.558 21.24 21.24v2.236c0 11.682-9.558 21.24-21.24 21.24z" style="fill:#f2f2f2"/>
    <path d="M616.469 442.153H133.531c-13.253 0-24.035-10.782-24.035-24.035v-2.236c0-13.253 10.782-24.035 24.035-24.035h482.937c13.253 0 24.035 10.782 24.035 24.035v2.236c.001 13.253-10.781 24.035-24.034 24.035zm-482.938-44.716c-10.17 0-18.446 8.275-18.446 18.445v2.236c0 10.17 8.275 18.445 18.446 18.445h482.937c10.17 0 18.445-8.275 18.445-18.445v-2.236c0-10.17-8.275-18.445-18.445-18.445H133.531z" style="fill:#979797"/>
    <path d="M613.115 317.948h-476.23c-13.527 0-24.594-11.067-24.594-24.594v-6.707c0-13.527 11.067-24.594 24.594-24.594h476.23c13.527 0 24.594 11.067 24.594 24.594v6.707c0 13.527-11.067 24.594-24.594 24.594z" style="fill:#dddddc"/>
    <path d="M613.115 320.743h-476.23c-15.103 0-27.389-12.286-27.389-27.389v-6.707c0-15.103 12.286-27.389 27.389-27.389h476.23c15.103 0 27.389 12.286 27.389 27.389v6.707c0 15.102-12.286 27.389-27.389 27.389zm-476.23-55.896c-12.02 0-21.799 9.78-21.799 21.799v6.707c0 12.02 9.78 21.799 21.799 21.799h476.23c12.02 0 21.799-9.78 21.799-21.799v-6.707c0-12.02-9.779-21.799-21.799-21.799h-476.23z" style="fill:#979797"/>
</svg>
