<?xml version="1.0" encoding="UTF-8" standalone="no"?>
<svg
   xmlns:dc="http://purl.org/dc/elements/1.1/"
   xmlns:cc="http://creativecommons.org/ns#"
   xmlns:rdf="http://www.w3.org/1999/02/22-rdf-syntax-ns#"
   xmlns:svg="http://www.w3.org/2000/svg"
   xmlns="http://www.w3.org/2000/svg"
   xmlns:sodipodi="http://sodipodi.sourceforge.net/DTD/sodipodi-0.dtd"
   xmlns:inkscape="http://www.inkscape.org/namespaces/inkscape"
   inkscape:version="1.0beta2 (2b71d25, 2019-12-03)"
   sodipodi:docname="5.svg"
   xml:space="preserve"
   style="enable-background:new 0 0 750 600;"
   viewBox="0 0 750 600"
   y="0px"
   x="0px"
   id="FOSCHIA"
   version="1.1"><metadata
   id="metadata942"><rdf:RDF><cc:Work
       rdf:about=""><dc:format>image/svg+xml</dc:format><dc:type
         rdf:resource="http://purl.org/dc/dcmitype/StillImage" /></cc:Work></rdf:RDF></metadata><defs
   id="defs940" /><sodipodi:namedview
   inkscape:current-layer="sole_x5F_pallido_1_"
   inkscape:window-maximized="0"
   inkscape:window-y="25"
   inkscape:window-x="0"
   inkscape:cy="300"
   inkscape:cx="375"
   inkscape:zoom="0.91666667"
   showgrid="false"
   id="namedview938"
   inkscape:window-height="704"
   inkscape:window-width="1440"
   inkscape:pageshadow="2"
   inkscape:pageopacity="0"
   guidetolerance="10"
   gridtolerance="10"
   objecttolerance="10"
   borderopacity="1"
   inkscape:document-rotation="0"
   bordercolor="#666666"
   pagecolor="#ffffff" />
	 
	
<g
   id="sole_x5F_pallido_1_">
	<path
   d="M328.924,516.821l-16.434-78.436l-75.779,42.005l19.286-77.885   l-88.935,10.476l50.263-65.465l-76.747-17.748l61.751-51.213l-69.764-48.708l85.199-20.763l-49.027-70.499l86.269,14.763   L227.163,74.93l83.508,39.145l12.003-77.255l52.423,68.051l55.184-68.011l10.565,83.708L515.293,79.3l-14.594,79.574l73.006-16.216   l-36.771,75.734l75.63,13.745L546.464,278.4l64.777,49.793l-81.805,19.38l44.269,63.856l-78.802-9.007l13.387,75.097   l-64.993-38.775L429.853,516l-54.514-65.693L328.924,516.821z M374.651,433.697l49.045,59.103l12.221-70.23l58.61,34.967   l-11.894-66.717l70.083,8.011l-40.006-57.706l75.509-17.889l-58.828-45.22l57.504-40.245l-64.829-11.781l33.459-68.915   l-67.453,14.982l13.496-73.585l-68.818,38.147l-9.481-75.123l-48.376,59.621l-45.899-59.581l-10.471,67.395l-73.807-34.598   l25.53,71.903l-79.472-13.6l43.676,62.807l-77.734,18.944l62.266,43.473l-56.235,46.638l72.141,16.684l-45.25,58.936l79.617-9.379   l-17.233,69.6l67.489-37.41l14.468,69.05L374.651,433.697z"
   style="fill:#FCFAE2;"
   id="bordo_x5F_corona_x5F_pallida" />
	
		<linearGradient
   y2="49.1781"
   x2="372.1854"
   y1="504.3997"
   x1="372.1854"
   gradientUnits="userSpaceOnUse"
   id="corona_x5F_pallida_1_">
		<stop
   id="stop899"
   style="stop-color:#FDED40"
   offset="0" />
		<stop
   id="stop901"
   style="stop-color:#FCEE35"
   offset="0.5" />
		<stop
   id="stop903"
   style="stop-color:#FCEC2C"
   offset="1" />
	</linearGradient>
	<polygon
   points="325.834,49.178 374.995,112.994    426.775,49.178 436.797,128.594 508.431,88.886 494.385,165.465 564.615,149.866 529.5,222.191 599.73,234.954 537.927,278.207    599.73,325.715 521.072,344.348 563.21,405.13 488.767,396.621 501.408,467.528 439.606,430.657 426.775,504.4 374.995,442.002    331.452,504.4 316.002,430.657 244.367,470.364 262.627,396.621 178.351,406.548 226.108,344.348 151.664,327.133 210.657,278.207    144.641,232.118 226.108,212.264 179.756,145.611 262.627,159.793 235.94,84.632 314.597,121.503  "
   style="fill:#fded40;fill-opacity:1"
   id="corona_x5F_pallida" />
	
		<linearGradient
   y2="137.8116"
   x2="374.9945"
   y1="418.6025"
   x1="374.9945"
   gradientUnits="userSpaceOnUse"
   id="cerchio_x5F_down_x5F_pallido_2_">
		<stop
   id="stop907"
   style="stop-color:#FAEF65"
   offset="0" />
		<stop
   id="stop909"
   style="stop-color:#FFF6AD"
   offset="1" />
	</linearGradient>
	
		<ellipse
   ry="140.395"
   rx="139.055"
   cy="278.207"
   cx="374.995"
   style="fill:url(#cerchio_x5F_down_x5F_pallido_2_);"
   id="cerchio_x5F_down_x5F_pallido_1_" />
	
		<linearGradient
   y2="278.5616"
   x2="507.7287"
   y1="278.5616"
   x1="242.9627"
   gradientUnits="userSpaceOnUse"
   id="cerchio_x5F_up_x5F_pallido_2_">
		<stop
   id="stop913"
   style="stop-color:#FDF171"
   offset="0" />
		<stop
   id="stop915"
   style="stop-color:#FCF7C0"
   offset="0.5" />
		<stop
   id="stop917"
   style="stop-color:#FDF171"
   offset="1" />
	</linearGradient>
	
		<ellipse
   ry="133.659"
   rx="132.383"
   cy="278.562"
   cx="375.346"
   style="fill:#fdf171;fill-opacity:1"
   id="cerchio_x5F_up_x5F_pallido_1_" />
	
		<linearGradient
   y2="154.8292"
   x2="377.1014"
   y1="325.7146"
   x1="377.1014"
   gradientUnits="userSpaceOnUse"
   id="ovale_x5F_luce_x5F_pallido_2_">
		<stop
   id="stop921"
   style="stop-color:#FDF7C4"
   offset="0" />
		<stop
   id="stop923"
   style="stop-color:#FDFADC"
   offset="1" />
	</linearGradient>
	
		<ellipse
   ry="85.443"
   rx="102.535"
   cy="240.272"
   cx="377.101"
   style="fill:#fdf7c4;fill-opacity:1"
   id="ovale_x5F_luce_x5F_pallido_1_" />
</g>
<g
   id="_x33__x5F_down_x5F_fosc">
	<path
   d="M620.918,560.769H129.082   c-9.223,0-16.769-7.546-16.769-16.769v0c0-9.223,7.546-16.769,16.769-16.769h491.836c9.223,0,16.769,7.546,16.769,16.769v0   C637.687,553.223,630.141,560.769,620.918,560.769z"
   style="fill:#FFFFFF;"
   id="rettangolo_x5F_piccolo_x5F_FC_2_" />
	<path
   d="M620.918,563.563H129.082   c-10.787,0-19.563-8.776-19.563-19.563s8.776-19.563,19.563-19.563h491.837c10.787,0,19.563,8.776,19.563,19.563   S631.706,563.563,620.918,563.563z M129.082,530.026c-7.705,0-13.974,6.269-13.974,13.974s6.269,13.974,13.974,13.974h491.837   c7.705,0,13.974-6.269,13.974-13.974s-6.269-13.974-13.974-13.974H129.082z"
   style="fill:#979797;"
   id="bordo_x5F_ret_x5F_piccolo_x5F_FC" />
</g>
<g
   id="_x32__x5F_mid_x5F_fosc">
	<path
   d="M616.469,439.358H133.532c-11.682,0-21.24-9.558-21.24-21.24   v-2.236c0-11.682,9.558-21.24,21.24-21.24h482.937c11.682,0,21.24,9.558,21.24,21.24v2.236   C637.709,429.8,628.151,439.358,616.469,439.358z"
   style="fill:#F2F2F2;"
   id="rettangolo_x5F_medio_x5F_FC_2_" />
	<path
   d="M616.469,442.153H133.531   c-13.253,0-24.035-10.782-24.035-24.035v-2.236c0-13.253,10.782-24.035,24.035-24.035h482.937   c13.253,0,24.035,10.782,24.035,24.035v2.236C640.504,431.371,629.722,442.153,616.469,442.153z M133.531,397.437   c-10.17,0-18.446,8.275-18.446,18.445v2.236c0,10.17,8.275,18.445,18.446,18.445h482.937c10.17,0,18.445-8.275,18.445-18.445   v-2.236c0-10.17-8.275-18.445-18.445-18.445H133.531z"
   style="fill:#979797;"
   id="bordo_x5F_ret_x5F_medio_x5F_FC" />
</g>
<g
   id="_x31__x5F_up_x5F_fosc">
	<path
   d="M613.115,317.948h-476.23   c-13.527,0-24.594-11.067-24.594-24.594v-6.707c0-13.527,11.067-24.594,24.594-24.594h476.23c13.527,0,24.594,11.067,24.594,24.594   v6.707C637.709,306.881,626.642,317.948,613.115,317.948z"
   style="fill:#DDDDDC;"
   id="rettangolo_x5F_grande_x5F_FC_3_" />
	<path
   d="M613.115,320.743h-476.23   c-15.103,0-27.389-12.286-27.389-27.389v-6.707c0-15.103,12.286-27.389,27.389-27.389h476.23c15.103,0,27.389,12.286,27.389,27.389   v6.707C640.504,308.456,628.218,320.743,613.115,320.743z M136.885,264.847c-12.02,0-21.799,9.78-21.799,21.799v6.707   c0,12.02,9.78,21.799,21.799,21.799h476.23c12.02,0,21.799-9.78,21.799-21.799v-6.707c0-12.02-9.779-21.799-21.799-21.799H136.885z   "
   style="fill:#979797;"
   id="bordo_x5F_ret_x5F_grande_x5F_FC" />
</g>
</svg>
