<svg xmlns="http://www.w3.org/2000/svg" xml:space="preserve" style="enable-background:new 0 0 750 600" viewBox="0 0 750 600"><path d="M432.888 127.813s-28.977-45.11-95.177-45.11c-130.309 0-144.029 106.973-144.029 106.973s-80.366 8.737-80.419 89.882c-.035 55.376 29.932 79.785 49.719 90.892 8.523 4.784 16.781 10.252 51.14 10.252h315.363c46.878 0 56.154-8.751 63.925-13.67 17.807-11.271 43.328-36.156 43.327-89.468-.001-80.972-89.148-89.066-89.148-89.066s-.202-29.221-35.861-52.484c-39.492-25.763-78.84-8.201-78.84-8.201z" style="fill-rule:evenodd;clip-rule:evenodd;fill:#e6e6e6;fill-opacity:1"/><path d="M425.075 149.669s-44.741-59.092-134.723-34.732c-80.913 21.905-77.65 86.665-77.65 86.665s-79.214 8.504-81.601 79.616c-2.212 65.932 39.694 76.865 45.376 79.598 7.078 3.405 14.206 5.467 31.199 5.49l340.986-.023c9.234 0 9.234 0 18.467-2.733 9.791-2.898 56.822-22.55 51.85-74.482-6.768-70.697-83.103-77.215-83.103-77.215s4.246-31.018-29.832-54.666c-36.773-25.52-80.969-7.518-80.969-7.518z" style="fill-rule:evenodd;clip-rule:evenodd;fill:#b3b3b3;fill-opacity:1"/><path d="M429.813 144.885s-45.304-65.339-132.589-43.049c-78.488 20.044-86.703 95.665-86.703 95.665s-79.78 6.652-78.792 71.749c.686 45.201 37.911 65.838 56.138 73.354 6.982 2.879 14.613 4.544 22.404 4.544h339.877c8.605 0 16.66-2.578 24.084-6.15 7.103-3.417 44.037-16.4 44.037-62.866 0-64.964-78.131-72.432-78.131-72.432s-1.747-31.66-34.804-53.299c-35.671-23.349-75.521-7.516-75.521-7.516z" style="fill-rule:evenodd;clip-rule:evenodd;fill:#58595b;fill-opacity:.81533098"/><linearGradient y2="110.025" x2="376.731" y1="327.545" x1="376.731" gradientUnits="userSpaceOnUse" id="a"><stop style="stop-color:#dfd8d9" offset=".25"/><stop style="stop-color:#e0dbdc" offset=".297"/><stop style="stop-color:#e2e2e3" offset=".495"/><stop style="stop-color:#e3e4e5" offset="1"/></linearGradient><path d="M253.187 284.966s17.775 28.064 58.953 27.333c43.551-.773 63.925-30.749 63.925-30.749s7.697 32.752 56.822 33.483c40.452.602 49.719-26.65 49.719-26.65s10.332 44.654 71.738 40.999c15.94-.949 54.308-15.247 54.691-50.936.722-67.255-78.841-63.862-78.841-63.862s0-23.233-22.019-45.783c-32.5-33.284-85.233-10.933-85.233-10.933s-25.349-47.751-100.271-45.731c-90.643 2.442-103.579 95.613-103.579 95.613s-77.742-2.781-74.579 63.385c2.131 44.58 38.922 48.68 62.504 48.68 32.511.001 46.17-34.849 46.17-34.849z" style="fill-rule:evenodd;clip-rule:evenodd;fill:url(#a)"/><path d="M256.026 307.89s22.768 21.785 61.886 21.09c41.372-.734 56.961-21.528 56.961-21.528s16.819 22.612 61.567 22.612c38.629 0 54.691-22.55 54.691-22.55s8.523 23.233 51.85 22.55c42.617-.672 56.112-20.5 56.112-42.366 0-52.13-76-43.733-76-43.733s3.374-36.395-22.729-58.082c-31.252-25.966-78.131-6.833-78.131-6.833s-25.397-43.049-96.598-43.049c-90.205 0-104.411 97.032-104.411 97.032s-70.318-14.385-70.318 45.099c0 37.583 33 47.832 55.402 47.832 30.883.001 49.718-18.074 49.718-18.074z" style="fill-rule:evenodd;clip-rule:evenodd;fill:#8d9498;fill-opacity:1"/><g><path d="M398.303 390.134s5.533 83.169-3.382 103.628c-7.203 16.531-25.012 27.187-48.102 22.331-16.048-3.375-45.814-24.632-34.194-55.98 11.892-32.082 85.678-69.979 85.678-69.979z" style="fill:#626b6e"/><path d="M394.559 396.181s4.659 67.909-2.848 84.614c-6.065 13.497-21.064 22.203-40.506 18.234-20.534-4.192-38.58-20.113-28.795-45.708 10.014-26.196 72.149-57.14 72.149-57.14z" style="fill:#949fa2"/><path d="M382.837 407.685s-6.675 39.598-11.408 50.1c-6.913 15.34-15.301 19.04-28.344 17.16-9.065-1.307-19.419-9.406-13.623-25.578 5.933-16.55 53.375-41.682 53.375-41.682z" style="fill:#fff"/></g></svg>