<svg xmlns="http://www.w3.org/2000/svg" xml:space="preserve" style="enable-background:new 0 0 750 600" viewBox="0 0 750 600"><path d="M432.888 101.712s-28.977-45.11-95.177-45.11c-130.309 0-144.029 106.973-144.029 106.973s-80.366 8.737-80.419 89.882c-.035 55.376 29.932 79.785 49.719 90.892 8.523 4.784 16.781 10.252 51.14 10.252h315.363c46.878 0 56.154-8.751 63.925-13.67 17.807-11.271 43.328-36.156 43.327-89.468-.001-80.972-89.148-89.066-89.148-89.066s-.202-29.221-35.861-52.484c-39.492-25.764-78.84-8.201-78.84-8.201z" style="fill-rule:evenodd;clip-rule:evenodd;fill:#ccc"/><path d="M425.075 123.567s-44.741-59.092-134.723-34.732c-80.913 21.905-77.65 86.665-77.65 86.665s-79.214 8.504-81.601 79.616c-2.212 65.932 39.694 76.865 45.376 79.598 7.078 3.405 14.206 5.467 31.199 5.49l340.986-.023c9.234 0 9.234 0 18.467-2.733 9.791-2.898 56.822-22.55 51.85-74.482-6.768-70.697-83.103-77.215-83.103-77.215s4.246-31.018-29.832-54.666c-36.773-25.52-80.969-7.518-80.969-7.518z" style="fill-rule:evenodd;clip-rule:evenodd;fill:#e6e6e6;fill-opacity:1"/><path d="M429.813 118.784s-45.304-65.339-132.589-43.049c-78.488 20.044-86.703 95.665-86.703 95.665s-79.78 6.652-78.792 71.749c.686 45.201 37.911 65.838 56.138 73.354 6.982 2.879 14.613 4.544 22.404 4.544h339.877c8.605 0 16.66-2.578 24.084-6.15 7.103-3.417 44.037-16.4 44.037-62.866 0-64.964-78.131-72.432-78.131-72.432s-1.747-31.66-34.804-53.299c-35.671-23.35-75.521-7.516-75.521-7.516z" style="fill-rule:evenodd;clip-rule:evenodd;fill:#58595b;fill-opacity:.83275259"/><linearGradient y2="83.924" x2="376.731" y1="301.443" x1="376.731" gradientUnits="userSpaceOnUse" id="a"><stop style="stop-color:#dfd8d9" offset=".25"/><stop style="stop-color:#e0dbdc" offset=".297"/><stop style="stop-color:#e2e2e3" offset=".495"/><stop style="stop-color:#e3e4e5" offset="1"/></linearGradient><path d="M253.187 258.865s17.775 28.064 58.953 27.333c43.551-.773 63.925-30.749 63.925-30.749s7.697 32.752 56.822 33.483c40.452.602 49.719-26.65 49.719-26.65s10.332 44.654 71.738 40.999c15.94-.949 54.308-15.247 54.691-50.936.722-67.255-78.841-63.862-78.841-63.862s0-23.233-22.019-45.783c-32.5-33.284-85.233-10.933-85.233-10.933s-25.349-47.751-100.271-45.731c-90.643 2.442-103.579 95.613-103.579 95.613s-77.742-2.781-74.579 63.385c2.131 44.58 38.922 48.68 62.504 48.68 32.511 0 46.17-34.849 46.17-34.849z" style="fill-rule:evenodd;clip-rule:evenodd;fill:url(#a)"/><path d="M256.026 281.789s22.768 21.785 61.886 21.09c41.372-.734 56.961-21.528 56.961-21.528s16.819 22.612 61.567 22.612c38.629 0 54.691-22.55 54.691-22.55s8.523 23.233 51.85 22.55c42.617-.672 56.112-20.5 56.112-42.366 0-52.13-76-43.733-76-43.733s3.374-36.395-22.729-58.082c-31.252-25.966-78.131-6.833-78.131-6.833S396.836 109.9 325.635 109.9c-90.205 0-104.411 97.032-104.411 97.032s-70.318-14.385-70.318 45.099c0 37.583 33 47.832 55.402 47.832 30.883.001 49.718-18.074 49.718-18.074z" style="fill-rule:evenodd;clip-rule:evenodd;fill:#8d9498;fill-opacity:1"/><g><path d="M361.98 412.799c3.961-9.946 6.908-18.145 10.456-26.076 6.056-13.538 16.991-18.572 28.82-13.709 11.861 4.876 16.065 16.338 10.858 30.037-3.093 8.137-6.419 16.186-10.239 25.778 10.196-1.395 18.782-2.746 27.411-3.711 14.844-1.661 25.892 5.863 27.405 18.396 1.505 12.465-6.348 21.646-20.974 24.363-4.154.772-8.368 1.224-12.548 1.86-4.171.635-8.336 1.317-14.652 2.32 6.232 7.97 11.838 14.871 17.144 21.996 6.124 8.224 8.651 17.239 2.825 26.556-8.008 12.807-24.729 13.825-35.145 2.146-6.468-7.253-12.272-15.098-19.362-23.906-3.976 9.983-7.161 18.477-10.724 26.81-5.438 12.719-16.485 17.837-28.127 13.323-11.375-4.411-16.259-14.967-12.051-27.721 2.945-8.926 6.864-17.531 11.104-28.177-10.341 1.362-18.546 2.49-26.764 3.515-15.494 1.932-26.285-4.743-28.019-17.264-1.868-13.491 6.188-22.989 21.975-25.648 7.951-1.339 15.954-2.377 25.959-3.849-5.895-7.604-10.957-13.999-15.873-20.504-9.77-12.928-9.31-25.504 1.135-33.793 10.046-7.972 22.949-5.219 33.102 7.13 5.051 6.142 10.008 12.362 16.284 20.128z" style="fill:#fff"/><path d="M343.351 543.398c-3.043 0-6.151-.607-9.237-1.804-12.924-5.012-18.301-17.263-13.699-31.212 2.03-6.153 4.544-12.225 7.206-18.653.707-1.707 1.427-3.446 2.159-5.237l-4.731.63c-6.297.839-11.734 1.564-17.288 2.257a44.355 44.355 0 0 1-5.469.351c-14.125 0-23.962-7.668-25.672-20.011-2.093-15.117 6.986-25.882 24.286-28.795 5.393-.908 10.684-1.661 16.811-2.533 1.444-.205 2.923-.416 4.447-.635l-2.493-3.198c-3.651-4.682-7.1-9.104-10.449-13.535-10.602-14.029-9.978-28.466 1.628-37.678 4.213-3.344 9.088-5.111 14.098-5.111 8.064 0 16.2 4.495 22.911 12.657 3.419 4.158 6.726 8.265 10.554 13.021l2.723 3.381a1629.6 1629.6 0 0 0 1.819-4.683c2.311-5.969 4.495-11.607 6.922-17.031 4.884-10.918 13.17-17.18 22.733-17.18 3.177 0 6.444.681 9.71 2.024 13.236 5.442 18.108 18.64 12.412 33.624-2.11 5.55-4.351 11.118-6.725 17.013l-1.74 4.328c1.567-.221 3.099-.44 4.603-.654 6.277-.896 12.206-1.741 18.101-2.401a39.084 39.084 0 0 1 4.323-.246c14.355 0 24.63 8.279 26.177 21.091 1.684 13.958-7.223 24.478-23.244 27.454-2.705.503-5.445.874-8.096 1.234-1.516.206-3.032.411-4.544.641-2.781.424-5.561.868-8.98 1.416l-.946.151c.933 1.184 1.852 2.346 2.759 3.493 4.024 5.09 7.825 9.898 11.485 14.812 7.767 10.43 8.761 20.428 2.954 29.715-4.614 7.377-12.013 11.609-20.303 11.61-7.226 0-14.083-3.226-19.309-9.084-4.456-4.997-8.605-10.278-12.999-15.869-1.126-1.432-2.27-2.889-3.446-4.374-.623 1.584-1.23 3.133-1.824 4.652-2.421 6.182-4.708 12.022-7.149 17.731-4.52 10.574-12.713 16.638-22.478 16.638zm-4.8-63.716-1.768 4.439a755.232 755.232 0 0 1-3.984 9.753c-2.621 6.33-5.096 12.308-7.062 18.265-3.699 11.212.191 20.27 10.404 24.231 2.436.945 4.863 1.424 7.21 1.424 7.414 0 13.729-4.825 17.326-13.237 2.407-5.63 4.679-11.43 7.083-17.571 1.149-2.935 2.342-5.978 3.614-9.174l1.776-4.46 3.01 3.739c2.276 2.827 4.42 5.556 6.497 8.197 4.337 5.52 8.434 10.734 12.775 15.601 4.147 4.65 9.519 7.21 15.126 7.21 6.316 0 11.984-3.272 15.551-8.977 4.523-7.233 3.641-14.886-2.696-23.396-3.612-4.851-7.389-9.627-11.387-14.684a1750.004 1750.004 0 0 1-5.718-7.259l-2.931-3.748 10.346-1.647c3.436-.55 6.227-.997 9.022-1.422a290.01 290.01 0 0 1 4.634-.654c2.583-.35 5.255-.713 7.826-1.191 13.221-2.456 20.039-10.21 18.703-21.272-1.203-9.966-9.102-16.158-20.613-16.158-1.203 0-2.447.071-3.699.211-5.811.65-11.7 1.49-17.933 2.38-3.007.429-6.124.874-9.409 1.323l-4.761.652 1.778-4.465c1.228-3.083 2.405-6.007 3.539-8.825 2.363-5.869 4.594-11.413 6.684-16.912 4.658-12.252 1.179-22.14-9.303-26.45-2.587-1.064-5.137-1.603-7.579-1.603-7.361 0-13.618 4.924-17.618 13.865-2.367 5.293-4.427 10.61-6.811 16.766a1008.428 1008.428 0 0 1-3.599 9.202l-1.772 4.449-3.01-3.725a3473.414 3473.414 0 0 1-5.751-7.135c-3.819-4.743-7.117-8.84-10.517-12.976-5.626-6.843-12.226-10.611-18.582-10.611-3.785 0-7.356 1.311-10.613 3.897-9.234 7.328-9.468 18.229-.641 29.909 3.322 4.396 6.758 8.803 10.397 13.467 1.747 2.24 3.557 4.562 5.455 7.009l2.939 3.791-4.746.699c-3.267.481-6.322.915-9.231 1.329-6.09.867-11.348 1.615-16.671 2.511-14.147 2.382-21.315 10.583-19.665 22.499 1.335 9.644 8.669 15.176 20.12 15.176 1.532 0 3.139-.104 4.776-.308 5.53-.69 10.956-1.413 17.24-2.25 2.991-.399 6.134-.818 9.505-1.262l4.734-.622z" style="fill:#808184"/></g></svg>