<svg id="dato_mancante" xmlns="http://www.w3.org/2000/svg" xmlns:xlink="http://www.w3.org/1999/xlink" width="750" height="600" viewBox="0 0 750 600">
  <defs>
    <style>
      .cls-1 {
        fill: url(#Sfumatura_senza_nome_3);
      }

      .cls-2 {
        fill: #9d9fa0;
      }

      .cls-3 {
        fill: #b4b6b7;
      }
    </style>
    <radialGradient id="Sfumatura_senza_nome_3" data-name="Sfumatura senza nome 3" cx="220.22" cy="237.5" r="193.49" gradientUnits="userSpaceOnUse">
      <stop offset="0" stop-color="#bfe5f7"/>
      <stop offset="1" stop-color="#fff"/>
    </radialGradient>
  </defs>
  <title>12_non_disponibile</title>
  <g id="nd">
    <rect id="interno-rettangolo" class="cls-1" x="53.79" y="20.3" width="332.86" height="434.4" rx="69" ry="69"/>
    <g id="ombra_cornice">
      <path class="cls-2" d="M466.86,68.3h-206c-59.12,0-107.5,48.38-107.5,107.5v260c0,59.13,48.38,107.5,107.5,107.5h206c59.13,0,107.5-48.37,107.5-107.5v-260C574.36,116.67,526,68.3,466.86,68.3ZM200.59,183a72.89,72.89,0,0,1,72.68-72.68H456a72.17,72.17,0,0,1,42.39,13.76L201.63,445.75a72.34,72.34,0,0,1-1-12.13ZM528.72,433.62A72.89,72.89,0,0,1,456,506.3H273.27a72.14,72.14,0,0,1-40.93-12.72l296-317.94a72.68,72.68,0,0,1,.37,7.33Z" transform="translate(-153.36 -68.3)"/>
    </g>
    <g id="cornice">
      <path class="cls-3" d="M497.14,68.3h-206c-59.13,0-107.5,48.38-107.5,107.5v260c0,59.13,48.38,107.5,107.5,107.5h206c59.12,0,107.5-48.37,107.5-107.5v-260C604.64,116.67,556.26,68.3,497.14,68.3ZM230.86,183a72.89,72.89,0,0,1,72.68-72.68H486.32a72.17,72.17,0,0,1,42.39,13.76L231.9,445.75a72.34,72.34,0,0,1-1-12.13ZM559,433.62a72.89,72.89,0,0,1-72.68,72.68H303.54a72.14,72.14,0,0,1-40.93-12.72l296-317.94A72.68,72.68,0,0,1,559,183Z" transform="translate(-153.36 -68.3)"/>
    </g>
    <g id="N-testo-tracciato">
      <path d="M260.13,258.28V167.94H279.7l40.76,60.33V167.94h18.68v90.35H319l-40.15-58.92v58.92Z" transform="translate(-153.36 -68.3)"/>
    </g>
    <g id="D-testo-tracciato">
      <path d="M425.86,372.26h36.76q12.43,0,19,1.85a33.49,33.49,0,0,1,15,8.93,42.21,42.21,0,0,1,9.51,15.72q3.26,9.3,3.26,22.93a62.23,62.23,0,0,1-3.06,20.65,42.6,42.6,0,0,1-10.67,17.14q-5.23,5-14.13,7.74-6.66,2.05-17.8,2.05H425.86ZM446,388.67v64.26h15q8.42,0,12.16-.93a18.75,18.75,0,0,0,8.12-4q3.23-2.84,5.27-9.36t2-17.77q0-11.25-2-17.27a22.09,22.09,0,0,0-5.71-9.4,19.33,19.33,0,0,0-9.31-4.57q-4.21-.93-16.51-.93Z" transform="translate(-153.36 -68.3)"/>
    </g>
  </g>
</svg>
