<?xml version="1.0" encoding="iso-8859-1"?>
<!-- Generator: Adobe Illustrator 18.1.0, SVG Export Plug-In . SVG Version: 6.00 Build 0)  -->
<svg version="1.1" id="PIOGGIA_x5F_NEVE" xmlns="http://www.w3.org/2000/svg" xmlns:xlink="http://www.w3.org/1999/xlink" x="0px"
	 y="0px" viewBox="0 0 750 600" style="enable-background:new 0 0 750 600;" xml:space="preserve">
<g id="nube_x5F_grande_x5F_scura_8_">
	
		<linearGradient id="nube_x5F_5_x5F_down_x5F_GR-SC_1_" gradientUnits="userSpaceOnUse" x1="375" y1="316.8671" x2="375" y2="18.8671">
		<stop  offset="0" style="stop-color:#555658"/>
		<stop  offset="0.3555" style="stop-color:#CFD0D2"/>
		<stop  offset="0.6505" style="stop-color:#D8D0D4"/>
		<stop  offset="1" style="stop-color:#F1F1F2"/>
	</linearGradient>
	
		<path id="nube_x5F_5_x5F_down_x5F_GR-SC_8_" style="fill-rule:evenodd;clip-rule:evenodd;fill:url(#nube_x5F_5_x5F_down_x5F_GR-SC_1_);" d="
		M432.888,63.977c0,0-28.977-45.11-95.177-45.11c-130.309,0-144.029,106.973-144.029,106.973s-80.366,8.737-80.419,89.882
		c-0.035,55.376,29.932,79.785,49.719,90.892c8.523,4.784,16.781,10.252,51.14,10.252c7.813,0,267.065,0,315.363,0
		c46.878,0,56.154-8.751,63.925-13.67c17.807-11.271,43.328-36.156,43.327-89.468c-0.001-80.972-89.148-89.066-89.148-89.066
		s-0.202-29.221-35.861-52.484C472.236,46.415,432.888,63.977,432.888,63.977z"/>
	
		<linearGradient id="nube_x5F_4_x5F_GR-SC_1_" gradientUnits="userSpaceOnUse" x1="375.1819" y1="302.4688" x2="375.1819" y2="45.2118">
		<stop  offset="0" style="stop-color:#838587"/>
		<stop  offset="0.2491" style="stop-color:#E3EFF5"/>
	</linearGradient>
	<path id="nube_x5F_4_x5F_GR-SC_8_" style="fill-rule:evenodd;clip-rule:evenodd;fill:url(#nube_x5F_4_x5F_GR-SC_1_);" d="
		M425.075,85.833c0,0-44.741-59.092-134.723-34.732c-80.913,21.905-77.65,86.665-77.65,86.665s-79.214,8.504-81.601,79.616
		c-2.212,65.932,39.694,76.865,45.376,79.598c7.078,3.405,14.206,5.467,31.199,5.49l340.986-0.023c9.234,0,9.234,0,18.467-2.733
		c9.791-2.898,56.822-22.55,51.85-74.482c-6.768-70.697-83.103-77.215-83.103-77.215s4.246-31.018-29.832-54.666
		C469.271,67.831,425.075,85.833,425.075,85.833z"/>
	
		<linearGradient id="nube_x5F_3_x5F_GR-SC_1_" gradientUnits="userSpaceOnUse" x1="374.9955" y1="283.3123" x2="374.9955" y2="33.3648">
		<stop  offset="0" style="stop-color:#58595B"/>
		<stop  offset="0.0563" style="stop-color:#5F5F61"/>
		<stop  offset="0.1359" style="stop-color:#717072"/>
		<stop  offset="0.2296" style="stop-color:#908C8F"/>
		<stop  offset="0.3331" style="stop-color:#BAB3B6"/>
		<stop  offset="0.3691" style="stop-color:#CAC2C5"/>
		<stop  offset="0.71" style="stop-color:#B1ADAE"/>
		<stop  offset="0.8042" style="stop-color:#ABAAAC"/>
		<stop  offset="1" style="stop-color:#A4A7A9"/>
	</linearGradient>
	<path id="nube_x5F_3_x5F_GR-SC_8_" style="fill-rule:evenodd;clip-rule:evenodd;fill:url(#nube_x5F_3_x5F_GR-SC_1_);" d="
		M429.813,81.049c0,0-45.304-65.339-132.589-43.049c-78.488,20.044-86.703,95.665-86.703,95.665s-79.78,6.652-78.792,71.749
		c0.686,45.201,37.911,65.838,56.138,73.354c6.982,2.879,14.613,4.544,22.404,4.544h339.877c8.605,0,16.66-2.578,24.084-6.15
		c7.103-3.417,44.037-16.4,44.037-62.866c0-64.964-78.131-72.432-78.131-72.432s-1.747-31.66-34.804-53.299
		C469.663,65.215,429.813,81.049,429.813,81.049z"/>
	
		<linearGradient id="nube_x5F_2_x5F_GR-SC_1_" gradientUnits="userSpaceOnUse" x1="376.7311" y1="263.7088" x2="376.7311" y2="46.1891">
		<stop  offset="0.25" style="stop-color:#DFD8D9"/>
		<stop  offset="0.2968" style="stop-color:#E0DBDC"/>
		<stop  offset="0.4947" style="stop-color:#E2E2E3"/>
		<stop  offset="1" style="stop-color:#E3E4E5"/>
	</linearGradient>
	<path id="nube_x5F_2_x5F_GR-SC_8_" style="fill-rule:evenodd;clip-rule:evenodd;fill:url(#nube_x5F_2_x5F_GR-SC_1_);" d="
		M253.187,221.13c0,0,17.775,28.064,58.953,27.333c43.551-0.773,63.925-30.749,63.925-30.749s7.697,32.752,56.822,33.483
		c40.452,0.602,49.719-26.65,49.719-26.65s10.332,44.654,71.738,40.999c15.94-0.949,54.308-15.247,54.691-50.936
		c0.722-67.255-78.841-63.862-78.841-63.862s0-23.233-22.019-45.783c-32.5-33.284-85.233-10.933-85.233-10.933
		s-25.349-47.751-100.271-45.731c-90.643,2.442-103.579,95.613-103.579,95.613s-77.742-2.781-74.579,63.385
		c2.131,44.58,38.922,48.68,62.504,48.68C239.528,255.98,253.187,221.13,253.187,221.13z"/>
	
		<linearGradient id="nube_x5F_1_x5F_up_x5F_GR-SC_1_" gradientUnits="userSpaceOnUse" x1="375" y1="266.5852" x2="375" y2="72.8481">
		<stop  offset="0.0074" style="stop-color:#8D9498"/>
		<stop  offset="0.2497" style="stop-color:#9DA2A6"/>
		<stop  offset="0.7168" style="stop-color:#B6B9BD"/>
		<stop  offset="1" style="stop-color:#BFC2C5"/>
	</linearGradient>
	
		<path id="nube_x5F_1_x5F_up_x5F_GR-SC_8_" style="fill-rule:evenodd;clip-rule:evenodd;fill:url(#nube_x5F_1_x5F_up_x5F_GR-SC_1_);" d="
		M256.026,244.054c0,0,22.768,21.785,61.886,21.09c41.372-0.734,56.961-21.528,56.961-21.528s16.819,22.612,61.567,22.612
		c38.629,0,54.691-22.55,54.691-22.55s8.523,23.233,51.85,22.55c42.617-0.672,56.112-20.5,56.112-42.366
		c0-52.13-76-43.733-76-43.733s3.374-36.395-22.729-58.082c-31.252-25.966-78.131-6.833-78.131-6.833s-25.397-43.049-96.598-43.049
		c-90.205,0-104.411,97.032-104.411,97.032s-70.318-14.385-70.318,45.099c0,37.583,33,47.832,55.402,47.832
		C237.191,262.129,256.026,244.054,256.026,244.054z"/>
</g>
<g id="goccia_x5F_flat_x5F_DX_1_">
	<path id="goccia_x5F_scura_x5F_down_20_" style="fill:#626B6E;" d="M555.303,326.298c0,0,5.533,83.169-3.382,103.628
		c-7.203,16.53-25.012,27.187-48.102,22.331c-16.048-3.375-45.814-24.632-34.194-55.98
		C481.517,364.195,555.303,326.298,555.303,326.298z"/>
	<path id="goccia_x5F_intermedia_20_" style="fill:#949FA2;" d="M551.559,332.345c0,0,4.659,67.909-2.848,84.614
		c-6.065,13.497-21.064,22.203-40.506,18.234c-20.534-4.192-38.58-20.113-28.795-45.708
		C489.424,363.289,551.559,332.345,551.559,332.345z"/>
	<path id="goccia_x5F_luce_x5F_up_20_" style="fill:#FFFFFF;" d="M539.837,343.849c0,0-6.675,39.598-11.408,50.1
		c-6.913,15.34-15.301,19.04-28.344,17.16c-9.065-1.307-19.419-9.406-13.623-25.578C492.395,368.98,539.837,343.849,539.837,343.849
		z"/>
</g>
<g id="goccia_x5F_flat_x5F_MID_1_">
	<path id="goccia_x5F_scura_x5F_down_19_" style="fill:#626B6E;" d="M306.975,451.564c0,0,5.533,83.169-3.382,103.628
		c-7.203,16.53-25.012,27.187-48.102,22.331c-16.048-3.375-45.814-24.632-34.194-55.98
		C233.19,489.461,306.975,451.564,306.975,451.564z"/>
	<path id="goccia_x5F_intermedia_19_" style="fill:#949FA2;" d="M303.231,457.611c0,0,4.659,67.909-2.848,84.614
		c-6.065,13.497-21.064,22.203-40.506,18.234c-20.534-4.192-38.58-20.113-28.795-45.708
		C241.096,488.555,303.231,457.611,303.231,457.611z"/>
	<path id="goccia_x5F_luce_x5F_up_19_" style="fill:#FFFFFF;" d="M291.51,469.115c0,0-6.675,39.598-11.408,50.1
		c-6.913,15.34-15.301,19.04-28.344,17.16c-9.065-1.307-19.419-9.406-13.623-25.578C244.067,494.246,291.51,469.115,291.51,469.115z
		"/>
</g>
<g id="goccia_x5F_flat_x5F_SX_1_">
	<path id="goccia_x5F_scura_x5F_down_18_" style="fill:#626B6E;" d="M239.303,325.298c0,0,5.533,83.169-3.382,103.628
		c-7.203,16.53-25.012,27.187-48.102,22.331c-16.048-3.375-45.814-24.632-34.194-55.98
		C165.517,363.195,239.303,325.298,239.303,325.298z"/>
	<path id="goccia_x5F_intermedia_18_" style="fill:#949FA2;" d="M235.559,331.345c0,0,4.659,67.909-2.848,84.614
		c-6.065,13.497-21.064,22.203-40.506,18.234c-20.534-4.192-38.58-20.113-28.795-45.708
		C173.424,362.289,235.559,331.345,235.559,331.345z"/>
	<path id="goccia_x5F_luce_x5F_up_18_" style="fill:#FFFFFF;" d="M223.837,342.849c0,0-6.675,39.598-11.408,50.1
		c-6.913,15.34-15.301,19.04-28.344,17.16c-9.065-1.307-19.419-9.406-13.623-25.578C176.394,367.98,223.837,342.849,223.837,342.849
		z"/>
</g>
<g id="fiocco_x5F_grande_x5F_UP">
	<path id="riempimento_x5F_fiocco_12_" style="fill:#FFFFFF;" d="M360.328,309.158c3.961-9.946,6.908-18.145,10.456-26.076
		c6.056-13.538,16.991-18.572,28.82-13.709c11.861,4.876,16.065,16.338,10.858,30.037c-3.093,8.137-6.419,16.186-10.239,25.778
		c10.196-1.395,18.782-2.746,27.411-3.711c14.844-1.661,25.892,5.863,27.405,18.396c1.505,12.465-6.348,21.646-20.974,24.363
		c-4.154,0.772-8.368,1.224-12.548,1.86c-4.171,0.635-8.336,1.317-14.652,2.32c6.232,7.97,11.838,14.871,17.144,21.996
		c6.124,8.224,8.651,17.239,2.825,26.556c-8.008,12.807-24.729,13.825-35.145,2.146c-6.468-7.253-12.272-15.098-19.362-23.906
		c-3.976,9.983-7.161,18.477-10.724,26.81c-5.438,12.719-16.485,17.837-28.127,13.323c-11.375-4.411-16.259-14.967-12.051-27.721
		c2.945-8.926,6.864-17.531,11.104-28.177c-10.341,1.362-18.546,2.49-26.764,3.515c-15.494,1.932-26.285-4.743-28.019-17.264
		c-1.868-13.491,6.188-22.989,21.975-25.648c7.951-1.339,15.954-2.377,25.959-3.849c-5.895-7.604-10.957-13.999-15.873-20.504
		c-9.77-12.928-9.31-25.504,1.135-33.793c10.046-7.972,22.949-5.219,33.102,7.13C349.095,295.172,354.051,301.392,360.328,309.158z"
		/>
	<path id="bordo_x5F_fiocco_12_" style="fill:#808184;" d="M341.699,439.757c-3.043,0-6.151-0.607-9.237-1.804
		c-12.924-5.012-18.301-17.263-13.699-31.212c2.03-6.153,4.544-12.225,7.206-18.653c0.707-1.707,1.427-3.446,2.159-5.237
		c-1.624,0.216-3.197,0.426-4.731,0.63c-6.297,0.839-11.734,1.564-17.288,2.257c-1.866,0.233-3.707,0.351-5.469,0.351
		c-14.125,0-23.962-7.668-25.672-20.011c-2.093-15.117,6.986-25.882,24.286-28.795c5.393-0.908,10.684-1.661,16.811-2.533
		c1.444-0.205,2.923-0.416,4.447-0.635c-0.846-1.086-1.677-2.151-2.493-3.198c-3.651-4.682-7.1-9.104-10.449-13.535
		c-10.602-14.029-9.978-28.466,1.628-37.678c4.213-3.344,9.088-5.111,14.098-5.111c8.064,0,16.2,4.495,22.911,12.657
		c3.419,4.158,6.726,8.265,10.554,13.021c0.884,1.098,1.79,2.223,2.723,3.381c0.626-1.603,1.23-3.161,1.819-4.683
		c2.311-5.969,4.495-11.607,6.922-17.031c4.884-10.918,13.17-17.18,22.733-17.18c3.177,0,6.444,0.681,9.71,2.024
		c13.236,5.442,18.108,18.64,12.412,33.624c-2.11,5.55-4.351,11.118-6.725,17.013c-0.568,1.414-1.148,2.854-1.74,4.328
		c1.567-0.221,3.099-0.44,4.603-0.654c6.277-0.896,12.206-1.741,18.101-2.401c1.458-0.163,2.913-0.246,4.323-0.246
		c14.355,0,24.63,8.279,26.177,21.091c1.684,13.958-7.223,24.478-23.244,27.454c-2.705,0.503-5.445,0.874-8.096,1.234
		c-1.516,0.206-3.032,0.411-4.544,0.641c-2.781,0.424-5.561,0.868-8.98,1.416l-0.946,0.151c0.933,1.184,1.852,2.346,2.759,3.493
		c4.024,5.09,7.825,9.898,11.485,14.812c7.767,10.43,8.761,20.428,2.954,29.715c-4.614,7.377-12.013,11.609-20.303,11.61
		c-7.226,0-14.083-3.226-19.309-9.084c-4.456-4.997-8.605-10.278-12.999-15.869c-1.126-1.432-2.27-2.889-3.446-4.374
		c-0.623,1.584-1.23,3.133-1.824,4.652c-2.421,6.182-4.708,12.022-7.149,17.731C359.657,433.693,351.464,439.757,341.699,439.757z
		 M336.899,376.041l-1.768,4.439c-1.371,3.442-2.699,6.651-3.984,9.753c-2.621,6.33-5.096,12.308-7.062,18.265
		c-3.699,11.212,0.191,20.27,10.404,24.231c2.436,0.945,4.863,1.424,7.21,1.424c7.414,0,13.729-4.825,17.326-13.237
		c2.407-5.63,4.679-11.43,7.083-17.571c1.149-2.935,2.342-5.978,3.614-9.174l1.776-4.46l3.01,3.739
		c2.276,2.827,4.42,5.556,6.497,8.197c4.337,5.52,8.434,10.734,12.775,15.601c4.147,4.65,9.519,7.21,15.126,7.21
		c6.316,0,11.984-3.272,15.551-8.977c4.523-7.233,3.641-14.886-2.696-23.396c-3.612-4.85-7.389-9.627-11.387-14.684
		c-1.851-2.341-3.753-4.747-5.718-7.259l-2.931-3.748l10.346-1.647c3.436-0.55,6.227-0.997,9.022-1.422
		c1.543-0.234,3.088-0.445,4.634-0.654c2.583-0.35,5.255-0.713,7.826-1.191c13.221-2.456,20.039-10.21,18.703-21.272
		c-1.203-9.966-9.102-16.158-20.613-16.158c-1.203,0-2.447,0.071-3.699,0.211c-5.811,0.65-11.7,1.491-17.933,2.38
		c-3.007,0.429-6.124,0.874-9.409,1.323l-4.761,0.652l1.778-4.465c1.228-3.083,2.405-6.007,3.539-8.825
		c2.363-5.869,4.594-11.413,6.684-16.912c4.658-12.252,1.179-22.14-9.303-26.45c-2.587-1.064-5.137-1.603-7.579-1.603
		c-7.361,0-13.618,4.924-17.618,13.865c-2.367,5.293-4.427,10.61-6.811,16.766c-1.129,2.917-2.311,5.967-3.599,9.202l-1.772,4.449
		l-3.01-3.725c-2.041-2.524-3.942-4.886-5.751-7.135c-3.819-4.743-7.117-8.84-10.517-12.976
		c-5.626-6.843-12.226-10.611-18.582-10.611c-3.785,0-7.356,1.311-10.613,3.897c-9.234,7.328-9.468,18.229-0.641,29.909
		c3.322,4.396,6.758,8.803,10.397,13.467c1.747,2.24,3.557,4.562,5.455,7.009l2.939,3.791l-4.746,0.699
		c-3.267,0.481-6.322,0.915-9.231,1.329c-6.09,0.867-11.348,1.615-16.671,2.511c-14.147,2.382-21.315,10.583-19.665,22.499
		c1.335,9.644,8.669,15.176,20.12,15.176c1.532,0,3.139-0.104,4.776-0.308c5.53-0.69,10.956-1.413,17.24-2.25
		c2.991-0.399,6.134-0.818,9.505-1.262L336.899,376.041z"/>
</g>
<g id="fiocco_x5F_piccolo_x5F_DW">
	<path id="riempimento_x5F_fiocco_11_" style="fill:#FFFFFF;" d="M414.882,478.146c3.123-7.843,5.447-14.309,8.245-20.563
		c4.776-10.675,13.399-14.646,22.727-10.811c9.353,3.845,12.668,12.884,8.562,23.686c-2.439,6.417-5.062,12.764-8.074,20.328
		c8.04-1.1,14.811-2.165,21.615-2.927c11.705-1.31,20.417,4.623,21.611,14.507c1.187,9.829-5.006,17.07-16.539,19.212
		c-3.276,0.609-6.598,0.965-9.895,1.467c-3.289,0.501-6.573,1.039-11.554,1.83c4.914,6.285,9.335,11.727,13.519,17.345
		c4.829,6.486,6.822,13.594,2.228,20.941c-6.315,10.099-19.501,10.902-27.714,1.692c-5.101-5.719-9.677-11.906-15.269-18.851
		c-3.135,7.872-5.647,14.571-8.456,21.142c-4.288,10.03-12.999,14.066-22.18,10.506c-8.97-3.478-12.821-11.802-9.503-21.86
		c2.322-7.039,5.413-13.824,8.756-22.22c-8.154,1.074-14.625,1.964-21.105,2.772c-12.218,1.523-20.728-3.741-22.095-13.614
		c-1.473-10.639,4.88-18.128,17.329-20.225c6.27-1.056,12.581-1.874,20.471-3.035c-4.649-5.997-8.64-11.039-12.517-16.169
		c-7.705-10.195-7.342-20.111,0.895-26.648c7.922-6.287,18.097-4.115,26.104,5.622C406.024,467.117,409.933,472.022,414.882,478.146
		z"/>
	<path id="bordo_x5F_fiocco_11_" style="fill:#808184;" d="M400.192,581.133c-2.4,0-4.85-0.479-7.284-1.422
		c-10.191-3.952-14.432-13.613-10.803-24.613c1.6-4.852,3.583-9.64,5.683-14.709c0.557-1.346,1.125-2.718,1.703-4.13
		c-1.28,0.17-2.521,0.336-3.73,0.497c-4.965,0.662-9.253,1.234-13.633,1.78c-1.472,0.183-2.923,0.277-4.313,0.277
		c-11.139,0-18.896-6.047-20.244-15.78c-1.651-11.921,5.509-20.41,19.151-22.707c4.253-0.716,8.425-1.31,13.257-1.997
		c1.139-0.162,2.305-0.328,3.507-0.501c-0.668-0.857-1.322-1.696-1.966-2.522c-2.879-3.692-5.599-7.179-8.24-10.673
		c-8.361-11.063-7.869-22.447,1.284-29.711c3.323-2.637,7.167-4.031,11.117-4.031c6.359,0,12.775,3.544,18.067,9.981
		c2.696,3.279,5.304,6.518,8.323,10.268c0.697,0.866,1.411,1.753,2.147,2.667c0.493-1.264,0.97-2.492,1.434-3.693
		c1.823-4.707,3.545-9.153,5.458-13.43c3.851-8.61,10.386-13.548,17.927-13.548c2.505,0,5.081,0.537,7.657,1.596
		c10.437,4.291,14.279,14.699,9.788,26.515c-1.664,4.377-3.431,8.767-5.303,13.416c-0.448,1.115-0.906,2.251-1.372,3.413
		c1.236-0.174,2.444-0.347,3.63-0.516c4.95-0.706,9.625-1.373,14.274-1.894c1.149-0.128,2.297-0.194,3.409-0.194
		c11.32,0,19.422,6.529,20.642,16.632c1.328,11.007-5.696,19.303-18.33,21.65c-2.133,0.396-4.294,0.689-6.384,0.973
		c-1.195,0.162-2.391,0.324-3.583,0.506c-2.193,0.334-4.385,0.685-7.082,1.116l-0.746,0.119c0.736,0.933,1.46,1.85,2.176,2.755
		c3.173,4.014,6.17,7.805,9.057,11.681c6.125,8.225,6.908,16.109,2.329,23.433c-3.638,5.818-9.473,9.155-16.011,9.155
		c-5.698,0-11.106-2.544-15.227-7.164c-3.514-3.941-6.786-8.105-10.25-12.514c-0.888-1.129-1.79-2.278-2.718-3.449
		c-0.491,1.249-0.97,2.47-1.439,3.669c-1.909,4.875-3.712,9.48-5.637,13.982C414.353,576.351,407.892,581.133,400.192,581.133z
		 M396.407,530.888l-1.394,3.5c-1.081,2.714-2.128,5.245-3.142,7.691c-2.067,4.991-4.019,9.706-5.569,14.403
		c-2.917,8.842,0.15,15.985,8.205,19.108c1.921,0.745,3.835,1.123,5.686,1.123c5.847,0,10.826-3.805,13.663-10.438
		c1.898-4.439,3.689-9.013,5.586-13.856c0.906-2.314,1.846-4.714,2.85-7.235l1.401-3.517l2.374,2.948
		c1.795,2.23,3.486,4.381,5.123,6.464c3.42,4.353,6.651,8.465,10.074,12.303c3.27,3.667,7.506,5.686,11.928,5.686
		c4.981,0,9.45-2.581,12.263-7.079c3.567-5.704,2.872-11.739-2.126-18.449c-2.849-3.825-5.826-7.592-8.979-11.58
		c-1.46-1.846-2.959-3.743-4.509-5.724l-2.311-2.955l8.159-1.299c2.71-0.433,4.911-0.786,7.115-1.121
		c1.216-0.185,2.435-0.351,3.654-0.516c2.037-0.276,4.144-0.562,6.171-0.939c10.426-1.937,15.802-8.051,14.749-16.775
		c-0.949-7.859-7.177-12.742-16.254-12.742c-0.949,0-1.93,0.056-2.917,0.167c-4.583,0.513-9.226,1.175-14.142,1.877
		c-2.371,0.338-4.83,0.689-7.42,1.043l-3.754,0.514l1.402-3.521c0.968-2.431,1.896-4.737,2.791-6.959
		c1.863-4.628,3.622-9,5.27-13.336c3.673-9.662,0.93-17.459-7.336-20.857c-2.04-0.839-4.051-1.264-5.977-1.264
		c-5.805,0-10.739,3.883-13.893,10.933c-1.867,4.174-3.491,8.367-5.371,13.221c-0.891,2.3-1.823,4.706-2.838,7.257l-1.398,3.508
		l-2.374-2.937c-1.609-1.991-3.108-3.853-4.535-5.626c-3.012-3.74-5.612-6.971-8.294-10.232c-4.437-5.396-9.641-8.368-14.653-8.368
		c-2.984,0-5.801,1.034-8.369,3.073c-7.282,5.779-7.467,14.375-0.506,23.585c2.62,3.467,5.329,6.941,8.199,10.62
		c1.378,1.767,2.805,3.598,4.302,5.527l2.318,2.989l-3.743,0.551c-2.577,0.379-4.986,0.722-7.28,1.048
		c-4.802,0.683-8.949,1.273-13.146,1.98c-11.156,1.879-16.808,8.346-15.507,17.742c1.053,7.605,6.836,11.967,15.866,11.967
		c1.208,0,2.475-0.082,3.766-0.243c4.361-0.544,8.64-1.114,13.595-1.775c2.359-0.314,4.837-0.645,7.495-0.995L396.407,530.888z"/>
</g>
</svg>
