<?xml version="1.0" encoding="iso-8859-1"?>
<!-- Generator: Adobe Illustrator 18.1.0, SVG Export Plug-In . SVG Version: 6.00 Build 0)  -->
<svg version="1.1" id="TEMPORALE" xmlns="http://www.w3.org/2000/svg" xmlns:xlink="http://www.w3.org/1999/xlink" x="0px" y="0px"
	 viewBox="0 0 750 600" style="enable-background:new 0 0 750 600;" xml:space="preserve">
<g id="nube_x5F_grande_x5F_TEMPOR">
	
		<linearGradient id="nube_x5F_5_x5F_down_x1F__x5F_GR-TEMP_1_" gradientUnits="userSpaceOnUse" x1="310.8653" y1="345.0858" x2="310.8653" y2="47.0857">
		<stop  offset="0" style="stop-color:#555658"/>
		<stop  offset="0.3555" style="stop-color:#CFD0D2"/>
		<stop  offset="0.6505" style="stop-color:#D8D0D4"/>
		<stop  offset="1" style="stop-color:#F1F1F2"/>
	</linearGradient>
	
		<path id="nube_x5F_5_x5F_down_x1F__x5F_GR-TEMP" style="fill-rule:evenodd;clip-rule:evenodd;fill:url(#nube_x5F_5_x5F_down_x1F__x5F_GR-TEMP_1_);" d="
		M368.753,92.196c0,0-28.977-45.11-95.177-45.11c-130.309,0-144.029,106.973-144.029,106.973s-80.366,8.737-80.419,89.882
		c-0.035,55.376,29.932,79.785,49.719,90.892c8.523,4.784,16.781,10.252,51.14,10.252c7.813,0,267.065,0,315.363,0
		c46.878,0,56.154-8.751,63.925-13.67c17.807-11.271,43.328-36.156,43.327-89.468c-0.001-80.972-89.148-89.066-89.148-89.066
		s-0.202-29.221-35.861-52.484C408.101,74.633,368.753,92.196,368.753,92.196z"/>
	
		<linearGradient id="nube_x5F_4_x1F__x5F_GR-TEMP_1_" gradientUnits="userSpaceOnUse" x1="311.0473" y1="330.756" x2="311.0473" y2="73.4368">
		<stop  offset="0" style="stop-color:#838587"/>
		<stop  offset="0.2491" style="stop-color:#E3EFF5"/>
	</linearGradient>
	
		<path id="nube_x5F_4_x1F__x5F_GR-TEMP" style="fill-rule:evenodd;clip-rule:evenodd;fill:url(#nube_x5F_4_x1F__x5F_GR-TEMP_1_);" d="
		M360.94,114.067c0,0-44.741-59.106-134.723-34.741c-80.913,21.91-77.65,86.686-77.65,86.686s-79.214,8.506-81.601,79.635
		c-2.212,65.948,39.694,76.883,45.376,79.617c7.078,3.405,14.206,5.468,31.199,5.491l340.986-0.023c9.234,0,9.234,0,18.467-2.734
		c9.791-2.899,56.822-22.555,51.85-74.5c-6.768-70.714-83.103-77.234-83.103-77.234s4.246-31.025-29.832-54.679
		C405.137,96.061,360.94,114.067,360.94,114.067z"/>
	
		<linearGradient id="nube_x5F_3_x5F_GR-TEMP_1_" gradientUnits="userSpaceOnUse" x1="310.8632" y1="311.5949" x2="310.8632" y2="56.7186">
		<stop  offset="0" style="stop-color:#444446"/>
		<stop  offset="0.0506" style="stop-color:#4B4A4C"/>
		<stop  offset="0.1222" style="stop-color:#5D5C5E"/>
		<stop  offset="0.2064" style="stop-color:#7C787B"/>
		<stop  offset="0.2994" style="stop-color:#A6A0A3"/>
		<stop  offset="0.3691" style="stop-color:#CAC2C5"/>
		<stop  offset="0.71" style="stop-color:#B1ADAE"/>
		<stop  offset="0.8042" style="stop-color:#ABAAAC"/>
		<stop  offset="1" style="stop-color:#A4A7A9"/>
	</linearGradient>
	<path id="nube_x5F_3_x5F_GR-TEMP" style="fill-rule:evenodd;clip-rule:evenodd;fill:url(#nube_x5F_3_x5F_GR-TEMP_1_);" d="
		M365.679,109.283c0,0-44.908-70.501-132.193-48.206c-78.488,20.049-87.099,100.835-87.099,100.835s-79.78,6.653-78.792,71.766
		c0.686,45.212,37.911,65.854,56.138,73.372c6.982,2.88,14.613,4.545,22.404,4.545h339.877c8.605,0,16.66-2.579,24.084-6.151
		c7.103-3.417,43.62-16.405,44.037-62.881c0.708-78.95-78.131-72.45-78.131-72.45s0.266-36.124-32.791-57.768
		C407.541,88.989,365.679,109.283,365.679,109.283z"/>
	
		<linearGradient id="nube_x5F_2_x5F_GR-TEMP_1_" gradientUnits="userSpaceOnUse" x1="312.5965" y1="291.9866" x2="312.5965" y2="74.4144">
		<stop  offset="0.25" style="stop-color:#D2CCCE"/>
		<stop  offset="0.3109" style="stop-color:#DAD6D8"/>
		<stop  offset="0.4279" style="stop-color:#E3E2E3"/>
		<stop  offset="0.589" style="stop-color:#E8E9EA"/>
		<stop  offset="1" style="stop-color:#EAEBEC"/>
	</linearGradient>
	<path id="nube_x5F_2_x5F_GR-TEMP" style="fill-rule:evenodd;clip-rule:evenodd;fill:url(#nube_x5F_2_x5F_GR-TEMP_1_);" d="
		M189.053,249.398c0,0,17.775,28.071,58.953,27.339c43.551-0.773,63.925-30.757,63.925-30.757s7.697,32.76,56.822,33.491
		c40.452,0.602,49.719-26.656,49.719-26.656s10.332,44.665,71.738,41.009c15.94-0.949,54.308-15.251,54.691-50.948
		c0.722-67.271-78.841-63.878-78.841-63.878s0-23.239-22.019-45.794c-32.5-33.292-85.233-10.936-85.233-10.936
		S333.46,74.507,258.538,76.527c-90.643,2.442-103.579,95.637-103.579,95.637s-77.742-2.782-74.579,63.4
		c2.131,44.59,38.922,48.691,62.504,48.691C175.394,284.255,189.053,249.398,189.053,249.398z"/>
	
		<linearGradient id="nube_x5F_1_x5F_up_x5F_GR-TEMP_1_" gradientUnits="userSpaceOnUse" x1="310.8653" y1="294.8638" x2="310.8653" y2="101.0798">
		<stop  offset="0.0074" style="stop-color:#676D70"/>
		<stop  offset="0.1319" style="stop-color:#767B7E"/>
		<stop  offset="0.5146" style="stop-color:#9FA3A6"/>
		<stop  offset="0.8172" style="stop-color:#B8BBBE"/>
		<stop  offset="1" style="stop-color:#C1C4C7"/>
	</linearGradient>
	
		<path id="nube_x5F_1_x5F_up_x5F_GR-TEMP" style="fill-rule:evenodd;clip-rule:evenodd;fill:url(#nube_x5F_1_x5F_up_x5F_GR-TEMP_1_);" d="
		M191.891,272.327c0,0,22.768,21.79,61.886,21.096c41.372-0.735,56.961-21.533,56.961-21.533s16.819,22.618,61.567,22.618
		c38.629,0,54.691-22.555,54.691-22.555s8.523,23.239,51.85,22.555c42.617-0.672,56.112-20.505,56.112-42.376
		c0-52.143-76-43.743-76-43.743s3.374-36.403-22.729-58.096c-31.252-25.972-78.131-6.835-78.131-6.835s-25.397-43.06-96.598-43.06
		c-90.205,0-104.411,97.055-104.411,97.055s-70.318-14.389-70.318,45.11c0,37.592,33,47.844,55.402,47.844
		C173.057,290.407,191.891,272.327,191.891,272.327z"/>
</g>
<g id="fulmine">
	<linearGradient id="saetta_1_" gradientUnits="userSpaceOnUse" x1="199.0001" y1="554.4863" x2="199.0001" y2="252.9087">
		<stop  offset="0.6" style="stop-color:#F2A21E"/>
		<stop  offset="0.652" style="stop-color:#F7B716"/>
		<stop  offset="0.69" style="stop-color:#FAC112"/>
	</linearGradient>
	<polygon id="saetta_5_" style="fill-rule:evenodd;clip-rule:evenodd;fill:url(#saetta_1_);" points="218.222,252.909 
		314.728,252.909 232.109,377.436 270.085,377.227 83.273,554.486 175.934,394.348 124.193,392.514 	"/>
	<path id="bordo_x5F_tracciato" style="fill:#FBF396;" d="M83.273,557.698c-0.682,0-1.365-0.258-1.916-0.774
		c-1.108-1.037-1.351-2.805-0.572-4.152l89.917-155.396l-46.604-1.652c-1.104-0.04-2.095-0.75-2.566-1.84
		c-0.471-1.09-0.343-2.376,0.331-3.33l94.029-139.605c0.557-0.789,1.418-1.251,2.33-1.251h96.505c1.119,0,2.141,0.692,2.637,1.786
		c0.496,1.095,0.381,2.402-0.298,3.373l-78.99,119.335l31.993-0.176h0.015c1.225,0,2.321,0.828,2.753,2.079
		c0.434,1.257,0.106,2.676-0.823,3.556L85.203,556.91C84.65,557.435,83.961,557.698,83.273,557.698z M130.032,389.508l45.997,1.629
		c1.054,0.038,2.01,0.689,2.504,1.706c0.494,1.017,0.452,2.245-0.111,3.219L96.449,537.729L262.17,380.483l-30.046,0.164
		c-0.005,0-0.01,0-0.01,0c-1.121,0-2.141-0.689-2.638-1.78c-0.5-1.095-0.386-2.406,0.294-3.379l79.013-119.368h-89.113
		L130.032,389.508z"/>
	
		<linearGradient id="trapezio_x5F_luce_1_" gradientUnits="userSpaceOnUse" x1="303.7246" y1="432.4322" x2="303.7246" y2="307.8658" gradientTransform="matrix(0.916 0.4011 -0.4011 0.916 109.3147 -167.319)">
		<stop  offset="0.749" style="stop-color:#FDDA50"/>
		<stop  offset="0.8787" style="stop-color:#FBCA4D"/>
		<stop  offset="1" style="stop-color:#F9C04B"/>
	</linearGradient>
	<polygon id="trapezio_x5F_luce_4_" style="fill-rule:evenodd;clip-rule:evenodd;fill:url(#trapezio_x5F_luce_1_);" points="
		219.669,256.12 169.325,331.037 269.633,315.264 308.783,256.12 	"/>
	
		<linearGradient id="triangolo_x5F_luce_1_" gradientUnits="userSpaceOnUse" x1="160.38" y1="526.4567" x2="145.4592" y2="441.8365">
		<stop  offset="0" style="stop-color:#F89C2C"/>
		<stop  offset="0.2164" style="stop-color:#F9A82A"/>
		<stop  offset="0.83" style="stop-color:#FCC725"/>
	</linearGradient>
	<polygon id="triangolo_x5F_luce_4_" style="fill-rule:evenodd;clip-rule:evenodd;fill:url(#triangolo_x5F_luce_1_);" points="
		209.39,430.564 96.449,537.729 149.052,446.819 	"/>
</g>
<g id="nube_x5F_piccola_x5F_TEMPOR">
	
		<linearGradient id="nube_x5F_5_x5F_down_x5F_PI-TEMP_1_" gradientUnits="userSpaceOnUse" x1="-1371.6003" y1="345.086" x2="-1371.6003" y2="136.625" gradientTransform="matrix(1 0 0 1 1889.2163 0)">
		<stop  offset="0" style="stop-color:#5E5F61"/>
		<stop  offset="0.3555" style="stop-color:#CFD0D2"/>
		<stop  offset="0.6505" style="stop-color:#D8D0D4"/>
		<stop  offset="1" style="stop-color:#F1F1F2"/>
	</linearGradient>
	
		<path id="nube_x5F_5_x5F_down_x5F_PI-TEMP" style="fill-rule:evenodd;clip-rule:evenodd;fill:url(#nube_x5F_5_x5F_down_x5F_PI-TEMP_1_);" d="
		M412.16,343.717c51.049,3.08,204.569,0,204.569,0c12.741,0,30.438-3.277,33.269-3.932c0,0,51.673-19.005,46.718-80.609
		c-4.684-58.235-74.37-56.623-74.37-56.623s-13.445-65.929-101.177-65.929c-71.771,0-87.066,40.632-87.066,40.632
		s-95.49-8.661-95.92,75.661C337.934,301.766,358.957,340.507,412.16,343.717z"/>
	
		<linearGradient id="nube_x5F_4_x5F_PI-TEMP_1_" gradientUnits="userSpaceOnUse" x1="-1370.6478" y1="337.1877" x2="-1370.6478" y2="173.3248" gradientTransform="matrix(1 0 0 1 1889.2163 0)">
		<stop  offset="0" style="stop-color:#838587"/>
		<stop  offset="0.2491" style="stop-color:#E3EFF5"/>
	</linearGradient>
	<path id="nube_x5F_4_x5F_PI-TEMP" style="fill-rule:evenodd;clip-rule:evenodd;fill:url(#nube_x5F_4_x5F_PI-TEMP_1_);" d="
		M427.507,337.181c46.365-0.524,185.472,0,185.472,0c34.014,0,76.439-22.076,71.704-72.762
		c-4.476-47.915-76.448-41.943-76.448-41.943s-3.225-49.152-87.066-49.152c-68.587,0-77.864,35.389-77.864,35.389
		s-77.871-2.422-89.963,39.151C348.028,266.137,357.273,337.976,427.507,337.181z"/>
	
		<linearGradient id="nube_x5F_3_x5F_PI-TEMP_1_" gradientUnits="userSpaceOnUse" x1="-1370.8263" y1="321.435" x2="-1370.8263" y2="145.7999" gradientTransform="matrix(1 0 0 1 1889.2163 0)">
		<stop  offset="0" style="stop-color:#444446"/>
		<stop  offset="0.0506" style="stop-color:#4B4A4C"/>
		<stop  offset="0.1222" style="stop-color:#5D5C5E"/>
		<stop  offset="0.2064" style="stop-color:#7C787B"/>
		<stop  offset="0.2994" style="stop-color:#A6A0A3"/>
		<stop  offset="0.3691" style="stop-color:#CAC2C5"/>
		<stop  offset="0.71" style="stop-color:#B1ADAE"/>
		<stop  offset="0.8042" style="stop-color:#ABAAAC"/>
		<stop  offset="1" style="stop-color:#A4A7A9"/>
	</linearGradient>
	<path id="nube_x5F_3_x5F_PI-TEMP" style="fill-rule:evenodd;clip-rule:evenodd;fill:url(#nube_x5F_3_x5F_PI-TEMP_1_);" d="
		M424.764,321.435c47.041,0,188.162,0,188.162,0c11.719,0,27.996-2.696,30.601-3.235c0,0,47.529-15.637,42.971-66.324
		c-4.308-47.915-70.154-41.708-70.154-41.708S604.697,145.8,524.001,145.8c-66.015,0-82.507,44.795-82.507,44.795
		s-91.612-23.017-91.519,64.661C350.006,285.506,377.486,321.435,424.764,321.435z"/>
	
		<linearGradient id="nube_x5F_2_x5F_PI_x5F_TEMP_1_" gradientUnits="userSpaceOnUse" x1="518.0179" y1="305.7126" x2="518.0179" y2="160.1866">
		<stop  offset="0.25" style="stop-color:#D2CCCE"/>
		<stop  offset="0.3109" style="stop-color:#DAD6D8"/>
		<stop  offset="0.4279" style="stop-color:#E3E2E3"/>
		<stop  offset="0.589" style="stop-color:#E8E9EA"/>
		<stop  offset="1" style="stop-color:#EAEBEC"/>
	</linearGradient>
	<path id="nube_x5F_2_x5F_PI_x5F_TEMP" style="fill-rule:evenodd;clip-rule:evenodd;fill:url(#nube_x5F_2_x5F_PI_x5F_TEMP_1_);" d="
		M617.683,217.81c-3.284,0-6.496,0.234-9.625,0.658c-2.779-32.534-39.085-58.282-83.474-58.282
		c-36.879,0-68.183,17.773-79.313,42.445c-7.725-3.69-16.443-5.78-25.678-5.78c-31.631,0-57.274,24.369-57.274,54.431
		c0,30.061,25.642,54.431,57.274,54.431c24.147,0,44.789-14.209,53.212-34.303c14.243,8.37,32.227,13.367,51.779,13.367
		c14.72,0,28.548-2.835,40.563-7.806c7.925,16.697,28.454,28.595,52.536,28.595c30.947,0,56.035-19.645,56.035-43.878
		C673.718,237.455,648.63,217.81,617.683,217.81z"/>
	
		<linearGradient id="nube_x5F_1_x5F_up_x5F_PI_x5F_TEMP_1_" gradientUnits="userSpaceOnUse" x1="236.1462" y1="308.8943" x2="236.1462" y2="171.8626" gradientTransform="matrix(-1 0 0 1 755.5457 0)">
		<stop  offset="0.0074" style="stop-color:#676D70"/>
		<stop  offset="0.1319" style="stop-color:#767B7E"/>
		<stop  offset="0.5146" style="stop-color:#9FA3A6"/>
		<stop  offset="0.8172" style="stop-color:#B8BBBE"/>
		<stop  offset="1" style="stop-color:#C1C4C7"/>
	</linearGradient>
	
		<path id="nube_x5F_1_x5F_up_x5F_PI_x5F_TEMP" style="fill-rule:evenodd;clip-rule:evenodd;fill:url(#nube_x5F_1_x5F_up_x5F_PI_x5F_TEMP_1_);" d="
		M424.186,211.762c8.614,0,16.603,2.24,23.713,5.855c10.752-26.618,40.081-45.754,74.672-45.754
		c38.978,0,71.295,24.279,77.836,56.21c4.537-1.066,9.24-1.816,14.206-1.816c28.068,0,50.822,18.262,50.822,40.79
		s-22.754,40.79-50.822,40.79c-16.584,0-31.171-6.471-40.447-16.335c-13.858,10.283-31.862,16.54-51.595,16.54
		c-22.093,0-42.048-7.81-56.402-20.376c-9.151,12.807-24.53,21.228-41.983,21.228c-28.068,0-50.822-21.744-50.822-48.566
		S396.118,211.762,424.186,211.762z"/>
</g>
<g id="goccia_x5F_flat_x5F_DX_4_">
	<path id="goccia_x5F_scura_x5F_down_21_" style="fill:#626B6E;" d="M588.303,366.431c0,0,5.533,83.169-3.382,103.628
		c-7.203,16.53-25.012,27.187-48.102,22.331c-16.048-3.375-45.814-24.632-34.194-55.98
		C514.517,404.328,588.303,366.431,588.303,366.431z"/>
	<path id="goccia_x5F_intermedia_21_" style="fill:#949FA2;" d="M584.559,372.478c0,0,4.659,67.909-2.848,84.614
		c-6.065,13.497-21.064,22.203-40.506,18.234c-20.534-4.192-38.58-20.113-28.795-45.708
		C522.424,403.422,584.559,372.478,584.559,372.478z"/>
	<path id="goccia_x5F_luce_x5F_up_21_" style="fill:#FFFFFF;" d="M572.837,383.982c0,0-6.675,39.598-11.408,50.1
		c-6.913,15.34-15.301,19.04-28.344,17.16c-9.065-1.307-19.419-9.406-13.623-25.578
		C525.394,409.113,572.837,383.982,572.837,383.982z"/>
</g>
<g id="goccia_x5F_flat_x5F_MID_2_">
	<path id="goccia_x5F_scura_x5F_down_22_" style="fill:#626B6E;" d="M473.303,431.431c0,0,5.533,83.169-3.382,103.628
		c-7.203,16.531-25.012,27.187-48.102,22.331c-16.048-3.375-45.814-24.632-34.194-55.98
		C399.517,469.328,473.303,431.431,473.303,431.431z"/>
	<path id="goccia_x5F_intermedia_22_" style="fill:#949FA2;" d="M469.559,437.478c0,0,4.659,67.909-2.848,84.614
		c-6.065,13.497-21.064,22.203-40.506,18.234c-20.534-4.192-38.58-20.113-28.795-45.708
		C407.424,468.422,469.559,437.478,469.559,437.478z"/>
	<path id="goccia_x5F_luce_x5F_up_22_" style="fill:#FFFFFF;" d="M457.837,448.982c0,0-6.675,39.598-11.408,50.1
		c-6.913,15.34-15.301,19.04-28.344,17.16c-9.065-1.307-19.419-9.406-13.623-25.578
		C410.395,474.113,457.837,448.982,457.837,448.982z"/>
</g>
<g id="goccia_x5F_flat_x5F_SX_2_">
	<path id="goccia_x5F_scura_x5F_down_23_" style="fill:#626B6E;" d="M381.303,366.431c0,0,5.533,83.169-3.382,103.628
		c-7.203,16.53-25.012,27.187-48.102,22.331c-16.048-3.375-45.814-24.632-34.194-55.98
		C307.517,404.328,381.303,366.431,381.303,366.431z"/>
	<path id="goccia_x5F_intermedia_23_" style="fill:#949FA2;" d="M377.559,372.478c0,0,4.659,67.909-2.848,84.614
		c-6.065,13.497-21.064,22.203-40.506,18.234c-20.534-4.192-38.58-20.113-28.795-45.708
		C315.424,403.422,377.559,372.478,377.559,372.478z"/>
	<path id="goccia_x5F_luce_x5F_up_23_" style="fill:#FFFFFF;" d="M365.837,383.982c0,0-6.675,39.598-11.408,50.1
		c-6.913,15.34-15.301,19.04-28.344,17.16c-9.065-1.307-19.419-9.406-13.623-25.578
		C318.395,409.113,365.837,383.982,365.837,383.982z"/>
</g>
</svg>
