<?xml version="1.0" encoding="iso-8859-1"?>
<!-- Generator: Adobe Illustrator 18.1.0, SVG Export Plug-In . SVG Version: 6.00 Build 0)  -->
<svg version="1.1" id="PIOGGIA_x5F_MOLTO_x5F_FORTE"
	 xmlns="http://www.w3.org/2000/svg" xmlns:xlink="http://www.w3.org/1999/xlink" x="0px" y="0px" viewBox="0 0 750 600"
	 style="enable-background:new 0 0 750 600;" xml:space="preserve">
<g id="goccia_x5F_flat_x5F_DW_x5F_DX_2_">
	<path id="goccia_x5F_scura_x5F_down_17_" style="fill:#626B6E;" d="M525.803,462.431c0,0,5.533,83.169-3.382,103.628
		c-7.203,16.531-25.012,27.187-48.102,22.331c-16.048-3.375-45.814-24.632-34.194-55.98
		C452.017,500.328,525.803,462.431,525.803,462.431z"/>
	<path id="goccia_x5F_intermedia_17_" style="fill:#949FA2;" d="M522.059,468.478c0,0,4.659,67.91-2.848,84.614
		c-6.065,13.497-21.064,22.203-40.506,18.234c-20.534-4.192-38.58-20.113-28.795-45.708
		C459.924,499.422,522.059,468.478,522.059,468.478z"/>
	<path id="goccia_x5F_luce_x5F_up_17_" style="fill:#FFFFFF;" d="M510.337,479.982c0,0-6.675,39.598-11.408,50.1
		c-6.913,15.34-15.301,19.04-28.344,17.16c-9.065-1.307-19.419-9.406-13.623-25.578
		C462.895,505.113,510.337,479.982,510.337,479.982z"/>
</g>
<g id="goccia_x5F_flat_x5F_DW_x5F_MIDDX">
	<path id="goccia_x5F_scura_x5F_down_15_" style="fill:#626B6E;" d="M410.803,462.431c0,0,5.533,83.169-3.382,103.628
		c-7.203,16.531-25.012,27.187-48.102,22.331c-16.048-3.375-45.814-24.632-34.194-55.98
		C337.017,500.328,410.803,462.431,410.803,462.431z"/>
	<path id="goccia_x5F_intermedia_15_" style="fill:#949FA2;" d="M407.059,468.478c0,0,4.659,67.91-2.848,84.614
		c-6.065,13.497-21.064,22.203-40.506,18.234c-20.534-4.192-38.58-20.113-28.795-45.708
		C344.924,499.422,407.059,468.478,407.059,468.478z"/>
	<path id="goccia_x5F_luce_x5F_up_15_" style="fill:#FFFFFF;" d="M395.337,479.982c0,0-6.675,39.598-11.408,50.1
		c-6.913,15.34-15.301,19.04-28.344,17.16c-9.065-1.307-19.419-9.406-13.623-25.578
		C347.895,505.113,395.337,479.982,395.337,479.982z"/>
</g>
<g id="goccia_x5F_flat_x5F_DW_x5F_MIDSX">
	<path id="goccia_x5F_scura_x5F_down_14_" style="fill:#626B6E;" d="M295.803,462.431c0,0,5.533,83.169-3.382,103.628
		c-7.203,16.531-25.012,27.187-48.102,22.331c-16.048-3.375-45.814-24.632-34.194-55.98
		C222.017,500.328,295.803,462.431,295.803,462.431z"/>
	<path id="goccia_x5F_intermedia_14_" style="fill:#949FA2;" d="M292.059,468.478c0,0,4.659,67.91-2.848,84.614
		c-6.065,13.497-21.064,22.203-40.506,18.234c-20.534-4.192-38.58-20.113-28.795-45.708
		C229.924,499.422,292.059,468.478,292.059,468.478z"/>
	<path id="goccia_x5F_luce_x5F_up_14_" style="fill:#FFFFFF;" d="M280.337,479.982c0,0-6.675,39.598-11.408,50.1
		c-6.913,15.34-15.301,19.04-28.344,17.16c-9.065-1.307-19.419-9.406-13.623-25.578
		C232.894,505.113,280.337,479.982,280.337,479.982z"/>
</g>
<g id="goccia_x5F_flat_x5F_DW_x5F_SX_1_">
	<path id="goccia_x5F_scura_x5F_down_13_" style="fill:#626B6E;" d="M180.803,462.431c0,0,5.533,83.169-3.382,103.628
		c-7.203,16.531-25.012,27.187-48.102,22.331c-16.048-3.375-45.814-24.632-34.194-55.98
		C107.017,500.328,180.803,462.431,180.803,462.431z"/>
	<path id="goccia_x5F_intermedia_13_" style="fill:#949FA2;" d="M177.059,468.478c0,0,4.659,67.91-2.848,84.614
		c-6.065,13.497-21.064,22.203-40.506,18.234c-20.534-4.192-38.58-20.113-28.795-45.708
		C114.924,499.422,177.059,468.478,177.059,468.478z"/>
	<path id="goccia_x5F_luce_x5F_up_13_" style="fill:#FFFFFF;" d="M165.337,479.982c0,0-6.675,39.598-11.408,50.1
		c-6.913,15.34-15.301,19.04-28.344,17.16c-9.065-1.307-19.419-9.406-13.623-25.578
		C117.894,505.113,165.337,479.982,165.337,479.982z"/>
</g>
<g id="goccia_x5F_flat_x5F_UP_x5F_DX_3_">
	<path id="goccia_x5F_scura_x5F_down_16_" style="fill:#626B6E;" d="M595.803,321.431c0,0,5.533,83.169-3.382,103.628
		c-7.203,16.53-25.012,27.187-48.102,22.331c-16.048-3.375-45.814-24.632-34.194-55.98
		C522.017,359.328,595.803,321.431,595.803,321.431z"/>
	<path id="goccia_x5F_intermedia_16_" style="fill:#949FA2;" d="M592.059,327.478c0,0,4.659,67.909-2.848,84.614
		c-6.065,13.497-21.064,22.203-40.506,18.234c-20.534-4.192-38.58-20.113-28.795-45.708
		C529.924,358.422,592.059,327.478,592.059,327.478z"/>
	<path id="goccia_x5F_luce_x5F_up_16_" style="fill:#FFFFFF;" d="M580.337,338.982c0,0-6.675,39.598-11.408,50.1
		c-6.913,15.34-15.301,19.04-28.344,17.16c-9.065-1.307-19.419-9.406-13.623-25.578
		C532.894,364.113,580.337,338.982,580.337,338.982z"/>
</g>
<g id="goccia_x5F_flat_x5F_UP_x5F_MIDDX">
	<path id="goccia_x5F_scura_x5F_down_12_" style="fill:#626B6E;" d="M480.803,321.431c0,0,5.533,83.169-3.382,103.628
		c-7.203,16.53-25.012,27.187-48.102,22.331c-16.048-3.375-45.814-24.632-34.194-55.98
		C407.017,359.328,480.803,321.431,480.803,321.431z"/>
	<path id="goccia_x5F_intermedia_12_" style="fill:#949FA2;" d="M477.059,327.478c0,0,4.659,67.909-2.848,84.614
		c-6.065,13.497-21.064,22.203-40.506,18.234c-20.534-4.192-38.58-20.113-28.795-45.708
		C414.924,358.422,477.059,327.478,477.059,327.478z"/>
	<path id="goccia_x5F_luce_x5F_up_12_" style="fill:#FFFFFF;" d="M465.337,338.982c0,0-6.675,39.598-11.408,50.1
		c-6.913,15.34-15.301,19.04-28.344,17.16c-9.065-1.307-19.419-9.406-13.623-25.578
		C417.895,364.113,465.337,338.982,465.337,338.982z"/>
</g>
<g id="goccia_x5F_flat_x5F_UP_x5F_MIDSX">
	<path id="goccia_x5F_scura_x5F_down_11_" style="fill:#626B6E;" d="M365.803,321.431c0,0,5.533,83.169-3.382,103.628
		c-7.203,16.53-25.012,27.187-48.102,22.331c-16.048-3.375-45.814-24.632-34.194-55.98
		C292.017,359.328,365.803,321.431,365.803,321.431z"/>
	<path id="goccia_x5F_intermedia_11_" style="fill:#949FA2;" d="M362.059,327.478c0,0,4.659,67.909-2.848,84.614
		c-6.065,13.497-21.064,22.203-40.506,18.234c-20.534-4.192-38.58-20.113-28.795-45.708
		C299.924,358.422,362.059,327.478,362.059,327.478z"/>
	<path id="goccia_x5F_luce_x5F_up_11_" style="fill:#FFFFFF;" d="M350.337,338.982c0,0-6.675,39.598-11.408,50.1
		c-6.913,15.34-15.301,19.04-28.344,17.16c-9.065-1.307-19.419-9.406-13.623-25.578
		C302.895,364.113,350.337,338.982,350.337,338.982z"/>
</g>
<g id="goccia_x5F_flat_x5F_UP_x5F_SX_2_">
	<path id="goccia_x5F_scura_x5F_down_9_" style="fill:#626B6E;" d="M250.803,321.431c0,0,5.533,83.169-3.382,103.628
		c-7.203,16.53-25.012,27.187-48.102,22.331c-16.048-3.375-45.814-24.632-34.194-55.98
		C177.017,359.328,250.803,321.431,250.803,321.431z"/>
	<path id="goccia_x5F_intermedia_9_" style="fill:#949FA2;" d="M247.059,327.478c0,0,4.659,67.909-2.848,84.614
		c-6.065,13.497-21.064,22.203-40.506,18.234c-20.534-4.192-38.58-20.113-28.795-45.708
		C184.924,358.422,247.059,327.478,247.059,327.478z"/>
	<path id="goccia_x5F_luce_x5F_up_9_" style="fill:#FFFFFF;" d="M235.337,338.982c0,0-6.675,39.598-11.408,50.1
		c-6.913,15.34-15.301,19.04-28.344,17.16c-9.065-1.307-19.419-9.406-13.623-25.578
		C187.894,364.113,235.337,338.982,235.337,338.982z"/>
</g>
<g id="nube_x5F_grande_x5F_MOLTOscura">
	<linearGradient id="nube_x5F_5_x5F_down_x5F_GR-MOLSC_1_" gradientUnits="userSpaceOnUse" x1="296" y1="292.5" x2="296" y2="17.5">
		<stop  offset="0" style="stop-color:#505153"/>
		<stop  offset="0.3555" style="stop-color:#CFD0D2"/>
		<stop  offset="0.6505" style="stop-color:#D8D0D4"/>
		<stop  offset="1" style="stop-color:#F1F1F2"/>
	</linearGradient>
	
		<path id="nube_x5F_5_x5F_down_x5F_GR-MOLSC" style="fill-rule:evenodd;clip-rule:evenodd;fill:url(#nube_x5F_5_x5F_down_x5F_GR-MOLSC_1_);" d="
		M349.42,59.128c0,0-26.741-41.628-87.831-41.628c-120.252,0-132.913,98.717-132.913,98.717s-74.164,8.062-74.212,82.945
		c-0.033,51.102,27.622,73.627,45.882,83.877c7.865,4.415,15.486,9.461,47.193,9.461c7.21,0,246.452,0,291.023,0
		c43.26,0,51.82-8.075,58.991-12.615c16.433-10.401,39.984-33.366,39.983-82.562c-0.001-74.722-82.267-82.192-82.267-82.192
		s-0.187-26.966-33.093-48.433C385.731,42.922,349.42,59.128,349.42,59.128z"/>
	
		<linearGradient id="nube_x5F_4_x5F_GR-MOLSC_1_" gradientUnits="userSpaceOnUse" x1="296.1679" y1="279.213" x2="296.1679" y2="41.8114">
		<stop  offset="0" style="stop-color:#838587"/>
		<stop  offset="0.2491" style="stop-color:#E3EFF5"/>
	</linearGradient>
	<path id="nube_x5F_4_x5F_GR-MOLSC" style="fill-rule:evenodd;clip-rule:evenodd;fill:url(#nube_x5F_4_x5F_GR-MOLSC_1_);" d="
		M342.21,79.297c0,0-41.288-54.531-124.325-32.052c-74.668,20.214-71.657,79.976-71.657,79.976s-73.101,7.847-75.303,73.471
		c-2.042,60.843,36.63,70.932,41.874,73.455c6.532,3.142,13.109,5.045,28.791,5.066l314.669-0.022c8.521,0,8.521,0,17.042-2.522
		c9.035-2.675,52.437-20.809,47.848-68.733c-6.246-65.241-76.689-71.256-76.689-71.256s3.919-28.624-27.529-50.447
		C382.995,62.684,342.21,79.297,342.21,79.297z"/>
	
		<linearGradient id="nube_x5F_3_x5F_GR-MOLSC_1_" gradientUnits="userSpaceOnUse" x1="295.9958" y1="261.5351" x2="295.9958" y2="30.8787">
		<stop  offset="0" style="stop-color:#46484A"/>
		<stop  offset="0.0658" style="stop-color:#4D4E50"/>
		<stop  offset="0.159" style="stop-color:#5F5F61"/>
		<stop  offset="0.2679" style="stop-color:#7D7B7E"/>
		<stop  offset="0.3691" style="stop-color:#A09B9E"/>
		<stop  offset="0.71" style="stop-color:#B1ADAE"/>
		<stop  offset="0.7866" style="stop-color:#A19FA1"/>
		<stop  offset="0.9081" style="stop-color:#8C8E90"/>
		<stop  offset="0.9896" style="stop-color:#85888A"/>
	</linearGradient>
	<path id="nube_x5F_3_x5F_GR-MOLSC" style="fill-rule:evenodd;clip-rule:evenodd;fill:url(#nube_x5F_3_x5F_GR-MOLSC_1_);" d="
		M346.583,74.883c0,0-41.807-60.296-122.355-39.727c-72.43,18.497-80.011,88.281-80.011,88.281s-73.623,6.138-72.711,66.211
		c0.633,41.713,34.985,60.757,51.805,67.693c6.443,2.657,13.486,4.194,20.675,4.194h313.644c7.941,0,15.374-2.379,22.225-5.675
		c6.555-3.153,40.638-15.134,40.638-58.014c0-59.95-72.1-66.842-72.1-66.842s-1.612-29.217-32.117-49.185
		C383.357,60.271,346.583,74.883,346.583,74.883z"/>
	
		<linearGradient id="nube_x5F_2_x5F_GR-MOLSC_1_" gradientUnits="userSpaceOnUse" x1="297.5975" y1="243.4445" x2="297.5975" y2="42.7133">
		<stop  offset="0.25" style="stop-color:#DFD8D9"/>
		<stop  offset="0.2514" style="stop-color:#DFD8D9"/>
		<stop  offset="0.4621" style="stop-color:#D8D7D8"/>
		<stop  offset="1" style="stop-color:#D6D7D8"/>
	</linearGradient>
	<path id="nube_x5F_2_x5F_GR-MOLSC" style="fill-rule:evenodd;clip-rule:evenodd;fill:url(#nube_x5F_2_x5F_GR-MOLSC_1_);" d="
		M183.589,204.152c0,0,16.403,25.898,54.403,25.223c40.19-0.714,58.991-28.376,58.991-28.376s7.103,30.224,52.437,30.898
		c37.33,0.555,45.882-24.593,45.882-24.593s9.534,41.208,66.201,37.835c14.71-0.876,50.116-14.071,50.47-47.004
		c0.667-62.064-72.756-58.933-72.756-58.933s0-21.44-20.319-42.249c-29.991-30.715-78.655-10.089-78.655-10.089
		s-23.392-44.066-92.532-42.201c-83.647,2.253-95.584,88.234-95.584,88.234s-71.742-2.567-68.823,58.493
		c1.966,41.139,35.918,44.922,57.68,44.922C170.984,236.312,183.589,204.152,183.589,204.152z"/>
	
		<linearGradient id="nube_x5F_1_x5F_up_x5F_GR-MOLSC_1_" gradientUnits="userSpaceOnUse" x1="296" y1="246.099" x2="296" y2="67.3147">
		<stop  offset="0.0074" style="stop-color:#7D8488"/>
		<stop  offset="0.2283" style="stop-color:#858B8F"/>
		<stop  offset="0.568" style="stop-color:#9AA0A3"/>
		<stop  offset="0.9824" style="stop-color:#BDC0C3"/>
		<stop  offset="1" style="stop-color:#BFC2C5"/>
	</linearGradient>
	
		<path id="nube_x5F_1_x5F_up_x5F_GR-MOLSC" style="fill-rule:evenodd;clip-rule:evenodd;fill:url(#nube_x5F_1_x5F_up_x5F_GR-MOLSC_1_);" d="
		M186.208,225.307c0,0,21.011,20.104,57.11,19.463c38.178-0.678,52.564-19.866,52.564-19.866s15.521,20.867,56.815,20.867
		c35.648,0,50.47-20.809,50.47-20.809s7.866,21.44,47.848,20.809c39.328-0.62,51.781-18.917,51.781-39.096
		c0-48.107-70.134-40.357-70.134-40.357s3.113-33.586-20.975-53.599c-28.84-23.962-72.1-6.306-72.1-6.306
		s-23.437-39.727-89.142-39.727c-83.243,0-96.352,89.543-96.352,89.543s-64.89-13.275-64.89,41.618
		c0,34.682,30.453,44.141,51.126,44.141C168.827,241.987,186.208,225.307,186.208,225.307z"/>
</g>
<g id="nube_x5F_piccola_x5F_MOLTOscura">
	
		<linearGradient id="nube_x5F_5_x5F_down_x5F_PI-MOLSC_1_" gradientUnits="userSpaceOnUse" x1="-1343.2163" y1="314" x2="-1343.2163" y2="140" gradientTransform="matrix(1 0 0 1 1889.2163 0)">
		<stop  offset="0" style="stop-color:#505153"/>
		<stop  offset="0.3555" style="stop-color:#CFD0D2"/>
		<stop  offset="0.6505" style="stop-color:#D8D0D4"/>
		<stop  offset="1" style="stop-color:#F1F1F2"/>
	</linearGradient>
	
		<path id="nube_x5F_5_x5F_down_x5F_PI-MOLSC" style="fill-rule:evenodd;clip-rule:evenodd;fill:url(#nube_x5F_5_x5F_down_x5F_PI-MOLSC_1_);" d="
		M457.977,312.857c42.61,2.571,170.751,0,170.751,0c10.635,0,25.406-2.735,27.769-3.282c0,0,43.131-15.863,38.995-67.283
		c-3.91-48.608-62.076-47.262-62.076-47.262S622.195,140,548.966,140c-59.906,0-72.673,33.915-72.673,33.915
		s-79.705-7.229-80.064,63.153C396.021,277.841,413.57,310.178,457.977,312.857z"/>
	
		<linearGradient id="nube_x5F_4_x5F_PI-MOLSC_1_" gradientUnits="userSpaceOnUse" x1="-1342.4213" y1="307.4074" x2="-1342.4213" y2="170.6329" gradientTransform="matrix(1 0 0 1 1889.2163 0)">
		<stop  offset="0" style="stop-color:#838587"/>
		<stop  offset="0.2491" style="stop-color:#E3EFF5"/>
	</linearGradient>
	<path id="nube_x5F_4_x5F_PI-MOLSC" style="fill-rule:evenodd;clip-rule:evenodd;fill:url(#nube_x5F_4_x5F_PI-MOLSC_1_);" d="
		M470.787,307.402c38.7-0.438,154.812,0,154.812,0c28.391,0,63.803-18.426,59.85-60.734c-3.736-39.994-63.81-35.009-63.81-35.009
		s-2.692-41.026-72.673-41.026c-57.249,0-64.992,29.539-64.992,29.539s-64.998-2.022-75.091,32.679
		C404.447,248.102,412.164,308.065,470.787,307.402z"/>
	
		<linearGradient id="nube_x5F_3_x5F_PI-MOLSC_1_" gradientUnits="userSpaceOnUse" x1="-1342.5702" y1="294.2588" x2="-1342.5702" y2="147.6582" gradientTransform="matrix(1 0 0 1 1889.2163 0)">
		<stop  offset="0" style="stop-color:#46484A"/>
		<stop  offset="0.0658" style="stop-color:#4D4E50"/>
		<stop  offset="0.159" style="stop-color:#5F5F61"/>
		<stop  offset="0.2679" style="stop-color:#7D7B7E"/>
		<stop  offset="0.3691" style="stop-color:#A09B9E"/>
		<stop  offset="0.71" style="stop-color:#B1ADAE"/>
		<stop  offset="0.7866" style="stop-color:#A19FA1"/>
		<stop  offset="0.9081" style="stop-color:#8C8E90"/>
		<stop  offset="0.9896" style="stop-color:#85888A"/>
	</linearGradient>
	<path id="nube_x5F_3_x5F_PI-MOLSC" style="fill-rule:evenodd;clip-rule:evenodd;fill:url(#nube_x5F_3_x5F_PI-MOLSC_1_);" d="
		M468.497,294.259c39.264,0,157.057,0,157.057,0c9.782,0,23.368-2.25,25.542-2.7c0,0,39.672-13.052,35.868-55.36
		c-3.596-39.994-58.556-34.813-58.556-34.813s-9.722-53.728-77.078-53.728c-55.102,0-68.868,37.39-68.868,37.39
		s-76.468-19.212-76.39,53.972C406.098,264.269,429.035,294.259,468.497,294.259z"/>
	
		<linearGradient id="nube_x5F_2_x5F_PI_x5F_MOLSC_1_" gradientUnits="userSpaceOnUse" x1="546.3354" y1="281.1355" x2="546.3354" y2="159.6666">
		<stop  offset="0.25" style="stop-color:#DFD8D9"/>
		<stop  offset="0.2514" style="stop-color:#DFD8D9"/>
		<stop  offset="0.4621" style="stop-color:#D8D7D8"/>
		<stop  offset="1" style="stop-color:#D6D7D8"/>
	</linearGradient>
	
		<path id="nube_x5F_2_x5F_PI_x5F_MOLSC" style="fill-rule:evenodd;clip-rule:evenodd;fill:url(#nube_x5F_2_x5F_PI_x5F_MOLSC_1_);" d="
		M629.524,207.765c-2.741,0-5.422,0.195-8.034,0.549c-2.319-27.156-32.624-48.647-69.675-48.647
		c-30.783,0-56.912,14.835-66.202,35.428c-6.448-3.08-13.725-4.825-21.434-4.825c-26.402,0-47.806,20.341-47.806,45.433
		s21.403,45.433,47.806,45.433c20.155,0,37.385-11.86,44.416-28.632c11.888,6.987,26.899,11.157,43.219,11.157
		c12.286,0,23.829-2.366,33.858-6.515c6.615,13.937,23.75,23.868,43.851,23.868c25.831,0,46.772-16.397,46.772-36.624
		C676.296,224.162,655.356,207.765,629.524,207.765z"/>
	
		<linearGradient id="nube_x5F_1_x5F_up_x5F_PI_x5F_MOLSC_1_" gradientUnits="userSpaceOnUse" x1="208.057" y1="283.7912" x2="208.057" y2="169.4125" gradientTransform="matrix(-1 0 0 1 755.5457 0)">
		<stop  offset="0.0074" style="stop-color:#7D8488"/>
		<stop  offset="0.2283" style="stop-color:#858B8F"/>
		<stop  offset="0.568" style="stop-color:#9AA0A3"/>
		<stop  offset="0.9824" style="stop-color:#BDC0C3"/>
		<stop  offset="1" style="stop-color:#BFC2C5"/>
	</linearGradient>
	
		<path id="nube_x5F_1_x5F_up_x5F_PI_x5F_MOLSC" style="fill-rule:evenodd;clip-rule:evenodd;fill:url(#nube_x5F_1_x5F_up_x5F_PI_x5F_MOLSC_1_);" d="
		M468.015,202.716c7.19,0,13.858,1.87,19.793,4.887c8.975-22.218,33.455-38.19,62.328-38.19c32.534,0,59.509,20.265,64.969,46.918
		c3.787-0.89,7.713-1.516,11.858-1.516c23.428,0,42.42,15.243,42.42,34.047s-18.992,34.047-42.42,34.047
		c-13.843,0-26.018-5.401-33.761-13.635c-11.567,8.583-26.594,13.806-43.066,13.806c-18.44,0-35.097-6.519-47.078-17.008
		c-7.638,10.69-20.475,17.719-35.042,17.719c-23.428,0-42.42-18.149-42.42-40.538S444.587,202.716,468.015,202.716z"/>
</g>
</svg>
