<?xml version="1.0" encoding="iso-8859-1"?>
<!-- Generator: Adobe Illustrator 18.1.0, SVG Export Plug-In . SVG Version: 6.00 Build 0)  -->
<svg version="1.1" id="NVE_x5F_MOLTO_x5F_FORTE" xmlns="http://www.w3.org/2000/svg" xmlns:xlink="http://www.w3.org/1999/xlink"
	 x="0px" y="0px" viewBox="0 0 750 600" style="enable-background:new 0 0 750 600;" xml:space="preserve">
<g id="nube_x5F_grande_x5F_MOLTOscura_1_">
	
		<linearGradient id="nube_x5F_5_x5F_down_x5F_GR-MOLSC_2_" gradientUnits="userSpaceOnUse" x1="295.882" y1="295.3776" x2="295.882" y2="20.3776">
		<stop  offset="0" style="stop-color:#505153"/>
		<stop  offset="0.3555" style="stop-color:#CFD0D2"/>
		<stop  offset="0.6505" style="stop-color:#D8D0D4"/>
		<stop  offset="1" style="stop-color:#F1F1F2"/>
	</linearGradient>
	
		<path id="nube_x5F_5_x5F_down_x5F_GR-MOLSC_1_" style="fill-rule:evenodd;clip-rule:evenodd;fill:url(#nube_x5F_5_x5F_down_x5F_GR-MOLSC_2_);" d="
		M349.302,62.006c0,0-26.741-41.628-87.831-41.628c-120.252,0-132.913,98.717-132.913,98.717s-74.164,8.062-74.212,82.945
		c-0.033,51.102,27.622,73.627,45.882,83.877c7.865,4.415,15.486,9.461,47.193,9.461c7.21,0,246.452,0,291.023,0
		c43.26,0,51.82-8.075,58.991-12.615c16.433-10.401,39.984-33.366,39.983-82.563c-0.001-74.722-82.267-82.192-82.267-82.192
		s-0.187-26.966-33.094-48.433C385.613,45.799,349.302,62.006,349.302,62.006z"/>
	
		<linearGradient id="nube_x5F_4_x5F_GR-MOLSC_2_" gradientUnits="userSpaceOnUse" x1="296.0498" y1="282.0906" x2="296.0498" y2="44.689">
		<stop  offset="0" style="stop-color:#838587"/>
		<stop  offset="0.2491" style="stop-color:#E3EFF5"/>
	</linearGradient>
	<path id="nube_x5F_4_x5F_GR-MOLSC_1_" style="fill-rule:evenodd;clip-rule:evenodd;fill:url(#nube_x5F_4_x5F_GR-MOLSC_2_);" d="
		M342.092,82.175c0,0-41.288-54.531-124.325-32.052c-74.668,20.214-71.657,79.976-71.657,79.976s-73.101,7.847-75.303,73.471
		c-2.042,60.843,36.63,70.932,41.874,73.455c6.532,3.142,13.109,5.045,28.791,5.066l314.669-0.022c8.521,0,8.521,0,17.042-2.522
		c9.035-2.675,52.437-20.809,47.848-68.733c-6.246-65.241-76.689-71.256-76.689-71.256s3.919-28.624-27.529-50.447
		C382.877,65.562,342.092,82.175,342.092,82.175z"/>
	
		<linearGradient id="nube_x5F_3_x5F_GR-MOLSC_2_" gradientUnits="userSpaceOnUse" x1="295.8777" y1="264.4127" x2="295.8777" y2="33.7564">
		<stop  offset="0" style="stop-color:#46484A"/>
		<stop  offset="0.0658" style="stop-color:#4D4E50"/>
		<stop  offset="0.159" style="stop-color:#5F5F61"/>
		<stop  offset="0.2679" style="stop-color:#7D7B7E"/>
		<stop  offset="0.3691" style="stop-color:#A09B9E"/>
		<stop  offset="0.71" style="stop-color:#B1ADAE"/>
		<stop  offset="0.7866" style="stop-color:#A19FA1"/>
		<stop  offset="0.9081" style="stop-color:#8C8E90"/>
		<stop  offset="0.9896" style="stop-color:#85888A"/>
	</linearGradient>
	<path id="nube_x5F_3_x5F_GR-MOLSC_1_" style="fill-rule:evenodd;clip-rule:evenodd;fill:url(#nube_x5F_3_x5F_GR-MOLSC_2_);" d="
		M346.465,77.761c0,0-41.807-60.296-122.355-39.727c-72.43,18.497-80.011,88.281-80.011,88.281s-73.623,6.138-72.711,66.211
		c0.633,41.713,34.985,60.757,51.805,67.693c6.443,2.657,13.486,4.194,20.675,4.194h313.644c7.941,0,15.374-2.379,22.225-5.675
		c6.555-3.153,40.638-15.134,40.638-58.014c0-59.95-72.1-66.842-72.1-66.842s-1.612-29.217-32.117-49.185
		C383.239,63.149,346.465,77.761,346.465,77.761z"/>
	
		<linearGradient id="nube_x5F_2_x5F_GR-MOLSC_2_" gradientUnits="userSpaceOnUse" x1="297.4795" y1="246.3221" x2="297.4795" y2="45.5909">
		<stop  offset="0.25" style="stop-color:#DFD8D9"/>
		<stop  offset="0.2514" style="stop-color:#DFD8D9"/>
		<stop  offset="0.4621" style="stop-color:#D8D7D8"/>
		<stop  offset="1" style="stop-color:#D6D7D8"/>
	</linearGradient>
	<path id="nube_x5F_2_x5F_GR-MOLSC_1_" style="fill-rule:evenodd;clip-rule:evenodd;fill:url(#nube_x5F_2_x5F_GR-MOLSC_2_);" d="
		M183.471,207.03c0,0,16.403,25.898,54.403,25.223c40.19-0.714,58.991-28.376,58.991-28.376s7.103,30.224,52.437,30.898
		c37.329,0.555,45.882-24.593,45.882-24.593s9.534,41.208,66.201,37.835c14.71-0.876,50.116-14.071,50.47-47.004
		c0.667-62.064-72.756-58.933-72.756-58.933s0-21.44-20.319-42.249c-29.991-30.715-78.655-10.089-78.655-10.089
		s-23.392-44.066-92.532-42.201c-83.647,2.253-95.584,88.234-95.584,88.234s-71.742-2.567-68.823,58.493
		c1.966,41.139,35.918,44.922,57.68,44.922C170.866,239.189,183.471,207.03,183.471,207.03z"/>
	
		<linearGradient id="nube_x5F_1_x5F_up_x5F_GR-MOLSC_2_" gradientUnits="userSpaceOnUse" x1="295.882" y1="248.9766" x2="295.882" y2="70.1923">
		<stop  offset="0.0074" style="stop-color:#7D8488"/>
		<stop  offset="0.2283" style="stop-color:#858B8F"/>
		<stop  offset="0.568" style="stop-color:#9AA0A3"/>
		<stop  offset="0.9824" style="stop-color:#BDC0C3"/>
		<stop  offset="1" style="stop-color:#BFC2C5"/>
	</linearGradient>
	
		<path id="nube_x5F_1_x5F_up_x5F_GR-MOLSC_1_" style="fill-rule:evenodd;clip-rule:evenodd;fill:url(#nube_x5F_1_x5F_up_x5F_GR-MOLSC_2_);" d="
		M186.09,228.185c0,0,21.011,20.104,57.11,19.463c38.178-0.678,52.564-19.866,52.564-19.866s15.521,20.867,56.815,20.867
		c35.648,0,50.47-20.809,50.47-20.809s7.865,21.44,47.848,20.809c39.328-0.62,51.781-18.917,51.781-39.096
		c0-48.107-70.134-40.357-70.134-40.357s3.113-33.586-20.975-53.599c-28.84-23.962-72.1-6.306-72.1-6.306
		s-23.437-39.727-89.142-39.727c-83.243,0-96.352,89.543-96.352,89.543s-64.89-13.275-64.89,41.618
		c0,34.682,30.453,44.141,51.126,44.141C168.709,244.865,186.09,228.185,186.09,228.185z"/>
</g>
<g id="nube_x5F_piccola_x5F_MOLTOscura_1_">
	
		<linearGradient id="nube_x5F_5_x5F_down_x5F_PI-MOLSC_2_" gradientUnits="userSpaceOnUse" x1="-1343.3345" y1="316.8776" x2="-1343.3345" y2="142.8776" gradientTransform="matrix(1 0 0 1 1889.2163 0)">
		<stop  offset="0" style="stop-color:#505153"/>
		<stop  offset="0.3555" style="stop-color:#CFD0D2"/>
		<stop  offset="0.6505" style="stop-color:#D8D0D4"/>
		<stop  offset="1" style="stop-color:#F1F1F2"/>
	</linearGradient>
	
		<path id="nube_x5F_5_x5F_down_x5F_PI-MOLSC_1_" style="fill-rule:evenodd;clip-rule:evenodd;fill:url(#nube_x5F_5_x5F_down_x5F_PI-MOLSC_2_);" d="
		M457.859,315.735c42.61,2.571,170.751,0,170.751,0c10.635,0,25.406-2.735,27.769-3.282c0,0,43.131-15.863,38.995-67.283
		c-3.91-48.608-62.076-47.262-62.076-47.262s-11.222-55.03-84.451-55.03c-59.906,0-72.673,33.915-72.673,33.915
		s-79.705-7.229-80.064,63.153C395.903,280.719,413.451,313.056,457.859,315.735z"/>
	
		<linearGradient id="nube_x5F_4_x5F_PI-MOLSC_2_" gradientUnits="userSpaceOnUse" x1="-1342.5393" y1="310.285" x2="-1342.5393" y2="173.5106" gradientTransform="matrix(1 0 0 1 1889.2163 0)">
		<stop  offset="0" style="stop-color:#838587"/>
		<stop  offset="0.2491" style="stop-color:#E3EFF5"/>
	</linearGradient>
	<path id="nube_x5F_4_x5F_PI-MOLSC_1_" style="fill-rule:evenodd;clip-rule:evenodd;fill:url(#nube_x5F_4_x5F_PI-MOLSC_2_);" d="
		M470.669,310.28c38.7-0.438,154.812,0,154.812,0c28.391,0,63.803-18.426,59.85-60.734c-3.736-39.994-63.81-35.009-63.81-35.009
		s-2.692-41.026-72.673-41.026c-57.249,0-64.992,29.539-64.992,29.539s-64.998-2.022-75.091,32.679
		C404.329,250.98,412.046,310.943,470.669,310.28z"/>
	
		<linearGradient id="nube_x5F_3_x5F_PI-MOLSC_2_" gradientUnits="userSpaceOnUse" x1="-1342.6884" y1="297.1364" x2="-1342.6884" y2="150.5359" gradientTransform="matrix(1 0 0 1 1889.2163 0)">
		<stop  offset="0" style="stop-color:#46484A"/>
		<stop  offset="0.0658" style="stop-color:#4D4E50"/>
		<stop  offset="0.159" style="stop-color:#5F5F61"/>
		<stop  offset="0.2679" style="stop-color:#7D7B7E"/>
		<stop  offset="0.3691" style="stop-color:#A09B9E"/>
		<stop  offset="0.71" style="stop-color:#B1ADAE"/>
		<stop  offset="0.7866" style="stop-color:#A19FA1"/>
		<stop  offset="0.9081" style="stop-color:#8C8E90"/>
		<stop  offset="0.9896" style="stop-color:#85888A"/>
	</linearGradient>
	<path id="nube_x5F_3_x5F_PI-MOLSC_1_" style="fill-rule:evenodd;clip-rule:evenodd;fill:url(#nube_x5F_3_x5F_PI-MOLSC_2_);" d="
		M468.379,297.136c39.264,0,157.057,0,157.057,0c9.782,0,23.368-2.25,25.542-2.7c0,0,39.672-13.052,35.868-55.36
		c-3.596-39.994-58.557-34.813-58.557-34.813s-9.722-53.728-77.078-53.728c-55.102,0-68.868,37.39-68.868,37.39
		s-76.468-19.212-76.39,53.972C405.98,267.147,428.917,297.136,468.379,297.136z"/>
	
		<linearGradient id="nube_x5F_2_x5F_PI_x5F_MOLSC_2_" gradientUnits="userSpaceOnUse" x1="546.2174" y1="284.0131" x2="546.2174" y2="162.5442">
		<stop  offset="0.25" style="stop-color:#DFD8D9"/>
		<stop  offset="0.2514" style="stop-color:#DFD8D9"/>
		<stop  offset="0.4621" style="stop-color:#D8D7D8"/>
		<stop  offset="1" style="stop-color:#D6D7D8"/>
	</linearGradient>
	
		<path id="nube_x5F_2_x5F_PI_x5F_MOLSC_1_" style="fill-rule:evenodd;clip-rule:evenodd;fill:url(#nube_x5F_2_x5F_PI_x5F_MOLSC_2_);" d="
		M629.406,210.642c-2.741,0-5.422,0.195-8.034,0.549c-2.319-27.156-32.624-48.647-69.675-48.647
		c-30.783,0-56.912,14.835-66.202,35.428c-6.448-3.08-13.725-4.825-21.434-4.825c-26.402,0-47.806,20.341-47.806,45.433
		c0,25.092,21.403,45.433,47.806,45.433c20.155,0,37.385-11.86,44.416-28.632c11.888,6.987,26.899,11.157,43.219,11.157
		c12.286,0,23.829-2.366,33.858-6.515c6.615,13.937,23.75,23.868,43.851,23.868c25.831,0,46.772-16.397,46.772-36.624
		C676.178,227.039,655.238,210.642,629.406,210.642z"/>
	
		<linearGradient id="nube_x5F_1_x5F_up_x5F_PI_x5F_MOLSC_2_" gradientUnits="userSpaceOnUse" x1="208.1751" y1="286.6688" x2="208.1751" y2="172.2901" gradientTransform="matrix(-1 0 0 1 755.5457 0)">
		<stop  offset="0.0074" style="stop-color:#7D8488"/>
		<stop  offset="0.2283" style="stop-color:#858B8F"/>
		<stop  offset="0.568" style="stop-color:#9AA0A3"/>
		<stop  offset="0.9824" style="stop-color:#BDC0C3"/>
		<stop  offset="1" style="stop-color:#BFC2C5"/>
	</linearGradient>
	
		<path id="nube_x5F_1_x5F_up_x5F_PI_x5F_MOLSC_1_" style="fill-rule:evenodd;clip-rule:evenodd;fill:url(#nube_x5F_1_x5F_up_x5F_PI_x5F_MOLSC_2_);" d="
		M467.897,205.594c7.19,0,13.858,1.87,19.793,4.887c8.975-22.218,33.455-38.19,62.328-38.19c32.534,0,59.509,20.265,64.969,46.918
		c3.787-0.89,7.713-1.516,11.858-1.516c23.428,0,42.42,15.243,42.42,34.047s-18.992,34.047-42.42,34.047
		c-13.843,0-26.018-5.401-33.761-13.635c-11.567,8.583-26.594,13.806-43.066,13.806c-18.44,0-35.097-6.519-47.078-17.008
		c-7.638,10.69-20.475,17.719-35.042,17.719c-23.428,0-42.42-18.149-42.42-40.538S444.469,205.594,467.897,205.594z"/>
</g>
<g id="fiocco_x5F_piccolo_x5F_UP_x5F_SX_1_">
	<path id="riempimento_x5F_fiocco_18_" style="fill:#FFFFFF;" d="M309.533,476.635c3.123-7.843,5.447-14.309,8.245-20.563
		c4.776-10.675,13.399-14.646,22.727-10.811c9.353,3.845,12.668,12.884,8.562,23.686c-2.439,6.417-5.062,12.764-8.074,20.328
		c8.04-1.1,14.811-2.165,21.615-2.927c11.705-1.31,20.417,4.623,21.611,14.507c1.187,9.829-5.006,17.07-16.539,19.212
		c-3.276,0.609-6.598,0.965-9.895,1.467c-3.289,0.501-6.573,1.039-11.555,1.83c4.914,6.285,9.335,11.727,13.519,17.345
		c4.829,6.485,6.822,13.594,2.228,20.941c-6.315,10.099-19.501,10.902-27.714,1.692c-5.101-5.719-9.677-11.906-15.269-18.851
		c-3.135,7.872-5.647,14.571-8.456,21.142c-4.288,10.03-12.999,14.066-22.18,10.506c-8.97-3.478-12.821-11.802-9.503-21.86
		c2.322-7.039,5.413-13.824,8.756-22.22c-8.154,1.074-14.625,1.963-21.105,2.772c-12.218,1.523-20.728-3.741-22.095-13.614
		c-1.473-10.639,4.88-18.128,17.329-20.225c6.27-1.056,12.581-1.874,20.471-3.035c-4.649-5.997-8.64-11.039-12.517-16.169
		c-7.705-10.195-7.342-20.111,0.895-26.648c7.922-6.287,18.097-4.115,26.104,5.622C300.675,465.606,304.584,470.512,309.533,476.635
		z"/>
	<path id="bordo_x5F_fiocco_18_" style="fill:#808184;" d="M294.843,579.622c-2.4,0-4.85-0.479-7.284-1.422
		c-10.191-3.952-14.432-13.613-10.803-24.613c1.6-4.852,3.583-9.64,5.683-14.709c0.557-1.346,1.125-2.718,1.703-4.13
		c-1.28,0.17-2.521,0.336-3.73,0.497c-4.965,0.662-9.253,1.234-13.633,1.78c-1.472,0.183-2.923,0.277-4.313,0.277
		c-11.139,0-18.896-6.047-20.244-15.78c-1.651-11.921,5.509-20.41,19.151-22.707c4.253-0.716,8.425-1.31,13.257-1.997
		c1.139-0.162,2.305-0.328,3.507-0.501c-0.668-0.857-1.322-1.696-1.966-2.522c-2.879-3.692-5.599-7.179-8.24-10.673
		c-8.361-11.063-7.869-22.447,1.284-29.711c3.323-2.637,7.167-4.031,11.117-4.031c6.359,0,12.775,3.544,18.067,9.981
		c2.696,3.279,5.304,6.518,8.323,10.268c0.697,0.866,1.411,1.753,2.147,2.667c0.493-1.264,0.97-2.492,1.434-3.693
		c1.823-4.707,3.545-9.153,5.458-13.43c3.851-8.61,10.386-13.548,17.927-13.548c2.505,0,5.081,0.537,7.657,1.596
		c10.437,4.291,14.279,14.699,9.788,26.515c-1.664,4.377-3.431,8.767-5.303,13.416c-0.448,1.115-0.906,2.251-1.372,3.413
		c1.236-0.174,2.444-0.347,3.63-0.516c4.95-0.706,9.625-1.373,14.274-1.894c1.149-0.128,2.297-0.194,3.409-0.194
		c11.32,0,19.422,6.529,20.642,16.632c1.328,11.007-5.696,19.303-18.33,21.65c-2.133,0.396-4.294,0.689-6.384,0.973
		c-1.196,0.162-2.391,0.324-3.583,0.506c-2.193,0.334-4.385,0.685-7.082,1.116l-0.746,0.119c0.736,0.933,1.46,1.85,2.176,2.755
		c3.173,4.014,6.17,7.805,9.057,11.681c6.125,8.225,6.908,16.109,2.329,23.433c-3.638,5.818-9.473,9.155-16.011,9.155
		c-5.698,0-11.106-2.544-15.227-7.164c-3.514-3.941-6.786-8.105-10.25-12.514c-0.888-1.129-1.79-2.278-2.718-3.449
		c-0.491,1.249-0.97,2.471-1.439,3.669c-1.909,4.875-3.712,9.48-5.637,13.983C309.004,574.84,302.543,579.622,294.843,579.622z
		 M291.058,529.377l-1.394,3.5c-1.081,2.714-2.128,5.245-3.142,7.691c-2.067,4.991-4.019,9.706-5.569,14.403
		c-2.917,8.841,0.15,15.985,8.205,19.108c1.921,0.745,3.835,1.123,5.685,1.123c5.847,0,10.826-3.804,13.663-10.438
		c1.898-4.439,3.689-9.013,5.586-13.856c0.906-2.314,1.846-4.714,2.85-7.235l1.401-3.517l2.374,2.948
		c1.795,2.23,3.486,4.381,5.123,6.464c3.42,4.353,6.651,8.465,10.074,12.302c3.27,3.667,7.506,5.686,11.928,5.686
		c4.981,0,9.45-2.581,12.263-7.079c3.567-5.704,2.872-11.739-2.126-18.449c-2.849-3.825-5.827-7.592-8.979-11.58
		c-1.46-1.846-2.959-3.743-4.509-5.724l-2.311-2.955l8.159-1.299c2.71-0.433,4.911-0.786,7.115-1.121
		c1.216-0.185,2.435-0.351,3.654-0.516c2.037-0.276,4.144-0.562,6.171-0.939c10.426-1.937,15.802-8.051,14.749-16.775
		c-0.949-7.859-7.177-12.742-16.254-12.742c-0.949,0-1.93,0.056-2.917,0.167c-4.583,0.513-9.226,1.175-14.142,1.877
		c-2.371,0.338-4.829,0.689-7.42,1.043l-3.754,0.514l1.402-3.521c0.968-2.431,1.896-4.737,2.791-6.959
		c1.863-4.628,3.622-9,5.27-13.336c3.673-9.662,0.93-17.459-7.336-20.857c-2.04-0.839-4.051-1.264-5.977-1.264
		c-5.805,0-10.739,3.883-13.893,10.933c-1.867,4.174-3.491,8.367-5.371,13.221c-0.891,2.3-1.823,4.706-2.838,7.257l-1.398,3.508
		l-2.374-2.937c-1.609-1.991-3.108-3.853-4.535-5.626c-3.012-3.74-5.612-6.971-8.294-10.232c-4.437-5.396-9.641-8.368-14.653-8.368
		c-2.984,0-5.801,1.034-8.369,3.073c-7.282,5.779-7.467,14.375-0.506,23.585c2.62,3.467,5.329,6.941,8.199,10.62
		c1.378,1.767,2.805,3.598,4.302,5.527l2.318,2.989l-3.743,0.551c-2.577,0.379-4.986,0.722-7.28,1.048
		c-4.802,0.683-8.949,1.273-13.146,1.98c-11.156,1.878-16.808,8.346-15.507,17.742c1.053,7.605,6.836,11.967,15.866,11.967
		c1.208,0,2.475-0.082,3.766-0.243c4.361-0.544,8.64-1.114,13.595-1.775c2.359-0.314,4.837-0.645,7.495-0.995L291.058,529.377z"/>
</g>
<g id="fiocco_x5F_piccolo_x5F_UP_x5F_SX_4_">
	<path id="riempimento_x5F_fiocco_31_" style="fill:#FFFFFF;" d="M572.844,476.635c3.123-7.843,5.448-14.309,8.245-20.563
		c4.776-10.675,13.399-14.646,22.727-10.811c9.353,3.845,12.668,12.884,8.562,23.686c-2.439,6.417-5.062,12.764-8.074,20.328
		c8.04-1.1,14.811-2.165,21.615-2.927c11.705-1.31,20.417,4.623,21.611,14.507c1.187,9.829-5.006,17.069-16.539,19.212
		c-3.276,0.609-6.598,0.965-9.895,1.467c-3.289,0.501-6.573,1.039-11.555,1.83c4.914,6.285,9.335,11.727,13.519,17.345
		c4.829,6.486,6.822,13.594,2.228,20.941c-6.315,10.099-19.501,10.902-27.714,1.692c-5.101-5.719-9.677-11.906-15.269-18.851
		c-3.135,7.872-5.647,14.571-8.456,21.142c-4.288,10.03-12.999,14.066-22.18,10.506c-8.97-3.478-12.821-11.802-9.503-21.86
		c2.322-7.039,5.413-13.824,8.756-22.22c-8.154,1.074-14.625,1.963-21.105,2.772c-12.218,1.523-20.728-3.741-22.095-13.614
		c-1.473-10.639,4.88-18.128,17.329-20.225c6.27-1.056,12.581-1.874,20.471-3.035c-4.649-5.997-8.64-11.039-12.517-16.169
		c-7.705-10.195-7.342-20.111,0.895-26.648c7.922-6.287,18.097-4.115,26.104,5.622C563.986,465.606,567.895,470.512,572.844,476.635
		z"/>
	<path id="bordo_x5F_fiocco_31_" style="fill:#808184;" d="M558.154,579.622c-2.4,0-4.85-0.479-7.284-1.422
		c-10.191-3.952-14.432-13.613-10.803-24.613c1.6-4.852,3.583-9.64,5.683-14.709c0.557-1.346,1.125-2.718,1.703-4.13
		c-1.28,0.17-2.521,0.336-3.73,0.497c-4.965,0.662-9.253,1.234-13.633,1.78c-1.472,0.183-2.923,0.277-4.313,0.277
		c-11.139,0-18.896-6.047-20.244-15.78c-1.651-11.921,5.509-20.41,19.151-22.707c4.253-0.716,8.425-1.31,13.257-1.997
		c1.139-0.162,2.305-0.328,3.507-0.501c-0.668-0.857-1.322-1.696-1.966-2.522c-2.879-3.692-5.599-7.179-8.24-10.673
		c-8.361-11.063-7.869-22.447,1.284-29.711c3.323-2.637,7.167-4.031,11.117-4.031c6.359,0,12.775,3.544,18.067,9.981
		c2.696,3.279,5.304,6.518,8.323,10.268c0.697,0.866,1.411,1.753,2.147,2.667c0.493-1.264,0.97-2.492,1.434-3.693
		c1.823-4.707,3.545-9.153,5.458-13.43c3.851-8.61,10.386-13.548,17.927-13.548c2.505,0,5.081,0.537,7.657,1.596
		c10.437,4.291,14.279,14.699,9.788,26.515c-1.664,4.377-3.431,8.767-5.303,13.416c-0.448,1.115-0.906,2.251-1.372,3.413
		c1.236-0.174,2.444-0.347,3.63-0.516c4.95-0.706,9.625-1.373,14.274-1.894c1.149-0.128,2.297-0.194,3.409-0.194
		c11.32,0,19.422,6.529,20.642,16.632c1.328,11.007-5.696,19.303-18.33,21.65c-2.133,0.396-4.294,0.689-6.384,0.973
		c-1.196,0.162-2.391,0.324-3.583,0.506c-2.193,0.334-4.385,0.685-7.082,1.116l-0.746,0.119c0.736,0.933,1.46,1.85,2.176,2.755
		c3.173,4.014,6.17,7.805,9.057,11.681c6.125,8.225,6.908,16.109,2.329,23.433c-3.638,5.817-9.473,9.155-16.011,9.155
		c-5.698,0-11.106-2.544-15.227-7.164c-3.514-3.941-6.786-8.105-10.25-12.514c-0.888-1.129-1.79-2.278-2.718-3.449
		c-0.491,1.249-0.97,2.471-1.439,3.669c-1.909,4.875-3.712,9.48-5.637,13.982C572.315,574.84,565.854,579.622,558.154,579.622z
		 M554.369,529.377l-1.394,3.5c-1.081,2.714-2.128,5.245-3.142,7.691c-2.067,4.991-4.019,9.706-5.569,14.403
		c-2.917,8.841,0.15,15.985,8.205,19.108c1.921,0.745,3.835,1.123,5.685,1.123c5.847,0,10.826-3.805,13.663-10.438
		c1.898-4.439,3.689-9.013,5.586-13.856c0.906-2.314,1.846-4.714,2.85-7.235l1.401-3.517l2.374,2.948
		c1.795,2.229,3.486,4.381,5.123,6.464c3.42,4.353,6.651,8.465,10.074,12.302c3.27,3.667,7.506,5.686,11.928,5.686
		c4.981,0,9.45-2.581,12.263-7.079c3.567-5.704,2.872-11.739-2.126-18.449c-2.849-3.825-5.827-7.592-8.979-11.58
		c-1.459-1.846-2.959-3.743-4.509-5.724l-2.311-2.955l8.159-1.299c2.71-0.433,4.911-0.786,7.115-1.121
		c1.216-0.185,2.435-0.351,3.654-0.516c2.037-0.276,4.144-0.562,6.171-0.939c10.426-1.937,15.802-8.051,14.749-16.775
		c-0.949-7.859-7.177-12.742-16.254-12.742c-0.949,0-1.93,0.056-2.917,0.167c-4.583,0.513-9.226,1.175-14.142,1.877
		c-2.371,0.338-4.83,0.689-7.42,1.043l-3.754,0.514l1.402-3.521c0.968-2.431,1.896-4.737,2.791-6.959
		c1.863-4.628,3.622-9,5.27-13.336c3.673-9.662,0.93-17.459-7.336-20.857c-2.04-0.839-4.051-1.264-5.977-1.264
		c-5.805,0-10.739,3.883-13.893,10.933c-1.867,4.174-3.491,8.367-5.371,13.221c-0.891,2.3-1.823,4.706-2.838,7.257l-1.398,3.508
		l-2.374-2.937c-1.609-1.991-3.108-3.853-4.535-5.626c-3.012-3.74-5.612-6.971-8.294-10.232c-4.437-5.396-9.641-8.368-14.653-8.368
		c-2.984,0-5.801,1.034-8.369,3.073c-7.282,5.779-7.467,14.375-0.506,23.585c2.62,3.467,5.329,6.941,8.199,10.62
		c1.378,1.767,2.805,3.598,4.302,5.527l2.318,2.989l-3.743,0.551c-2.577,0.379-4.986,0.722-7.28,1.048
		c-4.802,0.683-8.949,1.273-13.146,1.98c-11.156,1.879-16.808,8.346-15.507,17.742c1.053,7.605,6.836,11.967,15.866,11.967
		c1.208,0,2.475-0.082,3.766-0.243c4.361-0.544,8.64-1.114,13.595-1.775c2.359-0.314,4.837-0.645,7.495-0.995L554.369,529.377z"/>
</g>
<g id="fiocco_x5F_grande_x5F_UP_x5F_DX_1_">
	<path id="riempimento_x5F_fiocco_21_" style="fill:#FFFFFF;" d="M571.569,311.023c3.961-9.946,6.908-18.145,10.456-26.076
		c6.056-13.538,16.991-18.572,28.82-13.709c11.861,4.876,16.065,16.338,10.858,30.037c-3.093,8.137-6.419,16.186-10.239,25.778
		c10.196-1.395,18.782-2.746,27.411-3.711c14.844-1.661,25.891,5.863,27.405,18.396c1.505,12.465-6.348,21.646-20.974,24.363
		c-4.154,0.772-8.368,1.224-12.548,1.86c-4.171,0.635-8.336,1.317-14.652,2.32c6.232,7.97,11.838,14.871,17.144,21.996
		c6.124,8.224,8.651,17.239,2.825,26.556c-8.008,12.807-24.729,13.825-35.145,2.146c-6.468-7.253-12.272-15.098-19.362-23.906
		c-3.976,9.983-7.161,18.478-10.724,26.81c-5.438,12.719-16.485,17.837-28.127,13.323c-11.375-4.411-16.259-14.967-12.051-27.721
		c2.945-8.926,6.864-17.531,11.104-28.177c-10.341,1.362-18.546,2.49-26.764,3.515c-15.494,1.932-26.285-4.743-28.019-17.264
		c-1.868-13.491,6.188-22.989,21.975-25.648c7.951-1.339,15.954-2.377,25.959-3.849c-5.895-7.604-10.957-13.999-15.873-20.504
		c-9.77-12.928-9.31-25.504,1.135-33.793c10.046-7.972,22.949-5.219,33.102,7.13C560.336,297.037,565.293,303.257,571.569,311.023z"
		/>
	<path id="bordo_x5F_fiocco_21_" style="fill:#808184;" d="M552.94,441.622c-3.043,0-6.151-0.607-9.237-1.804
		c-12.924-5.012-18.301-17.263-13.699-31.212c2.03-6.153,4.544-12.225,7.206-18.653c0.707-1.707,1.427-3.446,2.159-5.237
		c-1.624,0.216-3.197,0.426-4.731,0.63c-6.297,0.839-11.734,1.564-17.288,2.257c-1.866,0.233-3.707,0.351-5.469,0.351
		c-14.125,0-23.962-7.668-25.672-20.011c-2.093-15.117,6.986-25.882,24.286-28.795c5.393-0.908,10.684-1.661,16.811-2.533
		c1.444-0.205,2.923-0.416,4.447-0.635c-0.846-1.086-1.677-2.151-2.493-3.198c-3.651-4.682-7.1-9.104-10.449-13.535
		c-10.602-14.029-9.978-28.466,1.628-37.678c4.213-3.344,9.088-5.111,14.098-5.111c8.064,0,16.2,4.495,22.911,12.656
		c3.419,4.158,6.726,8.265,10.554,13.021c0.884,1.098,1.79,2.223,2.723,3.381c0.626-1.603,1.23-3.161,1.819-4.683
		c2.311-5.969,4.495-11.607,6.922-17.031c4.884-10.918,13.17-17.18,22.733-17.18c3.177,0,6.444,0.681,9.71,2.024
		c13.236,5.442,18.108,18.64,12.412,33.624c-2.11,5.55-4.351,11.118-6.725,17.013c-0.568,1.414-1.148,2.854-1.74,4.328
		c1.567-0.221,3.099-0.44,4.603-0.654c6.277-0.896,12.206-1.741,18.101-2.401c1.458-0.163,2.913-0.246,4.323-0.246
		c14.355,0,24.63,8.279,26.177,21.091c1.684,13.958-7.223,24.478-23.244,27.454c-2.705,0.503-5.445,0.874-8.096,1.234
		c-1.516,0.206-3.032,0.411-4.544,0.641c-2.781,0.424-5.561,0.868-8.98,1.416l-0.946,0.151c0.933,1.184,1.852,2.346,2.759,3.493
		c4.024,5.09,7.825,9.898,11.485,14.812c7.767,10.43,8.761,20.428,2.954,29.715c-4.614,7.377-12.013,11.609-20.303,11.61
		c-7.226,0-14.083-3.226-19.309-9.084c-4.456-4.997-8.606-10.278-12.999-15.869c-1.126-1.432-2.27-2.889-3.446-4.374
		c-0.623,1.584-1.23,3.133-1.824,4.652c-2.421,6.182-4.708,12.022-7.149,17.731C570.898,435.558,562.705,441.622,552.94,441.622z
		 M548.14,377.906l-1.768,4.439c-1.371,3.442-2.699,6.651-3.984,9.753c-2.621,6.33-5.096,12.308-7.062,18.265
		c-3.699,11.212,0.191,20.27,10.404,24.231c2.436,0.945,4.863,1.424,7.21,1.424c7.414,0,13.729-4.825,17.326-13.237
		c2.407-5.63,4.679-11.43,7.083-17.571c1.149-2.935,2.342-5.978,3.614-9.174l1.776-4.46l3.01,3.739
		c2.276,2.827,4.42,5.556,6.497,8.197c4.337,5.52,8.434,10.734,12.775,15.601c4.147,4.65,9.519,7.21,15.126,7.21
		c6.316,0,11.984-3.272,15.551-8.977c4.523-7.233,3.641-14.886-2.696-23.396c-3.612-4.851-7.389-9.627-11.387-14.684
		c-1.851-2.341-3.753-4.747-5.718-7.259l-2.931-3.748l10.346-1.647c3.436-0.55,6.227-0.997,9.022-1.422
		c1.542-0.234,3.088-0.445,4.634-0.654c2.583-0.35,5.255-0.713,7.826-1.191c13.221-2.456,20.039-10.21,18.703-21.272
		c-1.203-9.966-9.102-16.158-20.613-16.158c-1.203,0-2.447,0.071-3.699,0.211c-5.812,0.65-11.7,1.49-17.933,2.38
		c-3.007,0.429-6.124,0.874-9.409,1.323l-4.761,0.652l1.778-4.465c1.228-3.083,2.404-6.007,3.539-8.825
		c2.363-5.869,4.594-11.413,6.684-16.912c4.658-12.252,1.179-22.14-9.303-26.45c-2.587-1.064-5.137-1.603-7.579-1.603
		c-7.361,0-13.618,4.924-17.618,13.865c-2.367,5.293-4.427,10.61-6.811,16.766c-1.129,2.917-2.311,5.967-3.599,9.202l-1.772,4.449
		l-3.01-3.725c-2.041-2.524-3.942-4.886-5.751-7.135c-3.819-4.743-7.117-8.84-10.517-12.976
		c-5.626-6.843-12.226-10.611-18.582-10.611c-3.785,0-7.356,1.311-10.613,3.897c-9.234,7.328-9.468,18.229-0.641,29.909
		c3.322,4.396,6.758,8.803,10.397,13.467c1.747,2.24,3.557,4.562,5.455,7.009l2.939,3.791l-4.746,0.699
		c-3.267,0.481-6.322,0.915-9.231,1.329c-6.09,0.867-11.348,1.615-16.671,2.511c-14.147,2.382-21.315,10.583-19.665,22.499
		c1.335,9.644,8.669,15.176,20.12,15.176c1.532,0,3.139-0.104,4.776-0.308c5.53-0.69,10.956-1.413,17.24-2.25
		c2.991-0.399,6.134-0.818,9.505-1.262L548.14,377.906z"/>
</g>
<g id="fiocco_x5F_grande_x5F_MID_2_">
	<path id="riempimento_x5F_fiocco_20_" style="fill:#FFFFFF;" d="M308.258,267.185c3.961-9.946,6.908-18.145,10.456-26.076
		c6.056-13.538,16.991-18.572,28.82-13.709c11.861,4.876,16.065,16.338,10.858,30.037c-3.093,8.137-6.419,16.186-10.239,25.778
		c10.196-1.395,18.782-2.746,27.411-3.711c14.844-1.661,25.892,5.863,27.405,18.396c1.505,12.465-6.348,21.646-20.974,24.363
		c-4.154,0.772-8.368,1.224-12.548,1.86c-4.171,0.635-8.336,1.317-14.652,2.32c6.232,7.97,11.838,14.871,17.144,21.996
		c6.124,8.224,8.651,17.239,2.825,26.556c-8.008,12.807-24.729,13.825-35.145,2.146c-6.468-7.253-12.272-15.098-19.362-23.906
		c-3.976,9.983-7.161,18.477-10.724,26.81c-5.438,12.719-16.485,17.837-28.127,13.323c-11.375-4.411-16.259-14.967-12.051-27.721
		c2.945-8.926,6.864-17.531,11.104-28.177c-10.341,1.362-18.546,2.49-26.764,3.515c-15.494,1.932-26.285-4.743-28.019-17.264
		c-1.868-13.491,6.188-22.989,21.975-25.648c7.951-1.339,15.954-2.377,25.959-3.849c-5.895-7.604-10.957-13.999-15.873-20.504
		c-9.77-12.928-9.31-25.504,1.135-33.793c10.046-7.972,22.949-5.219,33.102,7.13C297.025,253.199,301.981,259.42,308.258,267.185z"
		/>
	<path id="bordo_x5F_fiocco_20_" style="fill:#808184;" d="M289.629,397.785c-3.043,0-6.151-0.607-9.237-1.804
		c-12.924-5.012-18.301-17.263-13.699-31.212c2.03-6.153,4.544-12.225,7.206-18.653c0.707-1.707,1.427-3.446,2.159-5.237
		c-1.624,0.216-3.197,0.426-4.731,0.63c-6.297,0.839-11.734,1.564-17.288,2.257c-1.866,0.233-3.707,0.351-5.469,0.351
		c-14.125,0-23.962-7.668-25.671-20.011c-2.093-15.117,6.985-25.882,24.286-28.795c5.393-0.908,10.684-1.661,16.811-2.533
		c1.444-0.205,2.923-0.416,4.447-0.635c-0.846-1.086-1.677-2.151-2.493-3.198c-3.651-4.682-7.1-9.104-10.449-13.535
		c-10.602-14.029-9.978-28.466,1.628-37.678c4.213-3.344,9.088-5.111,14.098-5.111c8.064,0,16.2,4.495,22.911,12.656
		c3.419,4.158,6.725,8.265,10.554,13.021c0.884,1.098,1.79,2.223,2.723,3.381c0.626-1.603,1.23-3.161,1.819-4.683
		c2.311-5.969,4.495-11.607,6.922-17.031c4.884-10.918,13.17-17.18,22.733-17.18c3.177,0,6.444,0.681,9.71,2.024
		c13.236,5.442,18.108,18.64,12.412,33.624c-2.11,5.55-4.351,11.118-6.725,17.013c-0.568,1.414-1.148,2.854-1.74,4.328
		c1.567-0.221,3.099-0.44,4.603-0.654c6.277-0.896,12.206-1.741,18.101-2.401c1.458-0.163,2.913-0.246,4.323-0.246
		c14.355,0,24.63,8.279,26.177,21.091c1.684,13.958-7.223,24.478-23.244,27.454c-2.705,0.503-5.445,0.874-8.096,1.234
		c-1.516,0.206-3.032,0.411-4.544,0.641c-2.781,0.424-5.561,0.868-8.98,1.416l-0.946,0.151c0.933,1.184,1.852,2.346,2.759,3.493
		c4.024,5.09,7.825,9.898,11.485,14.812c7.767,10.43,8.761,20.428,2.954,29.715c-4.614,7.377-12.013,11.609-20.303,11.61
		c-7.226,0-14.083-3.226-19.309-9.084c-4.456-4.997-8.606-10.278-12.999-15.869c-1.126-1.432-2.27-2.889-3.446-4.374
		c-0.623,1.584-1.23,3.133-1.824,4.652c-2.421,6.182-4.708,12.022-7.149,17.731C307.587,391.721,299.394,397.785,289.629,397.785z
		 M284.829,334.068l-1.768,4.439c-1.371,3.442-2.699,6.651-3.984,9.754c-2.621,6.33-5.096,12.308-7.062,18.265
		c-3.699,11.212,0.191,20.27,10.404,24.231c2.436,0.945,4.863,1.424,7.21,1.424c7.414,0,13.729-4.825,17.326-13.237
		c2.407-5.63,4.679-11.43,7.083-17.571c1.149-2.935,2.342-5.978,3.614-9.174l1.776-4.46l3.01,3.739
		c2.276,2.827,4.42,5.556,6.497,8.197c4.337,5.52,8.434,10.734,12.775,15.601c4.147,4.65,9.519,7.21,15.126,7.21
		c6.316,0,11.984-3.272,15.551-8.977c4.524-7.233,3.641-14.886-2.696-23.396c-3.612-4.851-7.389-9.627-11.387-14.684
		c-1.851-2.341-3.753-4.747-5.718-7.259l-2.931-3.748l10.346-1.647c3.436-0.55,6.227-0.997,9.022-1.422
		c1.542-0.234,3.088-0.445,4.634-0.655c2.583-0.35,5.255-0.713,7.826-1.191c13.221-2.456,20.039-10.21,18.703-21.272
		c-1.203-9.966-9.102-16.158-20.613-16.158c-1.203,0-2.447,0.071-3.699,0.211c-5.811,0.65-11.7,1.491-17.933,2.38
		c-3.007,0.429-6.124,0.874-9.409,1.323l-4.761,0.652l1.778-4.465c1.228-3.083,2.405-6.007,3.539-8.825
		c2.363-5.869,4.594-11.413,6.684-16.912c4.658-12.252,1.179-22.14-9.303-26.45c-2.587-1.064-5.137-1.603-7.579-1.603
		c-7.361,0-13.618,4.924-17.618,13.865c-2.367,5.293-4.427,10.61-6.811,16.766c-1.129,2.917-2.311,5.967-3.599,9.202l-1.772,4.449
		l-3.01-3.725c-2.041-2.524-3.942-4.886-5.751-7.135c-3.819-4.743-7.117-8.84-10.517-12.976
		c-5.626-6.843-12.226-10.611-18.582-10.611c-3.785,0-7.356,1.311-10.613,3.897c-9.234,7.328-9.468,18.229-0.641,29.909
		c3.322,4.396,6.758,8.803,10.397,13.467c1.747,2.24,3.557,4.562,5.455,7.009l2.939,3.791l-4.746,0.699
		c-3.267,0.481-6.322,0.915-9.231,1.329c-6.09,0.867-11.348,1.615-16.671,2.511c-14.147,2.382-21.315,10.583-19.665,22.499
		c1.335,9.645,8.669,15.176,20.12,15.176c1.532,0,3.139-0.104,4.776-0.308c5.53-0.69,10.956-1.413,17.24-2.25
		c2.991-0.399,6.134-0.818,9.505-1.262L284.829,334.068z"/>
</g>
<g id="fiocco_x5F_piccolo_x5F_UP_x5F_SX_3_">
	<path id="riempimento_x5F_fiocco_19_" style="fill:#FFFFFF;" d="M122.366,251.502c2.811-7.059,4.903-12.878,7.421-18.506
		c4.298-9.608,12.059-13.181,20.454-9.73c8.418,3.461,11.402,11.596,7.706,21.318c-2.195,5.775-4.556,11.487-7.267,18.295
		c7.236-0.99,13.33-1.949,19.454-2.634c10.535-1.179,18.376,4.161,19.45,13.056c1.068,8.846-4.506,15.363-14.885,17.291
		c-2.948,0.548-5.939,0.869-8.906,1.32c-2.961,0.451-5.916,0.935-10.399,1.647c4.423,5.656,8.402,10.554,12.167,15.611
		c4.346,5.837,6.14,12.235,2.005,18.847c-5.684,9.089-17.55,9.811-24.943,1.523c-4.591-5.147-8.71-10.715-13.742-16.966
		c-2.822,7.085-5.082,13.114-7.611,19.028c-3.86,9.027-11.7,12.659-19.962,9.455c-8.073-3.131-11.539-10.622-8.553-19.674
		c2.09-6.335,4.871-12.442,7.881-19.998c-7.339,0.967-13.162,1.767-18.995,2.494c-10.996,1.371-18.655-3.366-19.885-12.253
		c-1.326-9.575,4.392-16.315,15.596-18.202c5.643-0.95,11.323-1.687,18.424-2.732c-4.184-5.397-7.776-9.935-11.265-14.552
		c-6.934-9.175-6.608-18.1,0.805-23.983c7.13-5.658,16.287-3.704,23.493,5.06C114.394,241.576,117.911,245.991,122.366,251.502z"/>
	<path id="bordo_x5F_fiocco_19_" style="fill:#808184;" d="M109.144,344.191c-2.16,0-4.365-0.431-6.555-1.28
		c-9.172-3.557-12.989-12.252-9.722-22.152c1.44-4.367,3.225-8.676,5.114-13.238c0.502-1.212,1.013-2.446,1.532-3.717
		c-1.152,0.153-2.269,0.302-3.357,0.447c-4.469,0.596-8.328,1.11-12.269,1.602c-1.325,0.165-2.631,0.249-3.882,0.249
		c-10.025,0-17.006-5.442-18.219-14.202c-1.486-10.729,4.958-18.369,17.236-20.436c3.827-0.644,7.583-1.179,11.931-1.797
		c1.025-0.146,2.074-0.295,3.156-0.451c-0.601-0.771-1.19-1.527-1.769-2.269c-2.591-3.323-5.039-6.461-7.416-9.606
		c-7.525-9.957-7.082-20.203,1.156-26.74c2.99-2.373,6.45-3.628,10.005-3.628c5.723,0,11.498,3.19,16.26,8.982
		c2.426,2.951,4.773,5.866,7.49,9.241c0.627,0.779,1.27,1.578,1.932,2.4c0.444-1.137,0.873-2.243,1.291-3.324
		c1.64-4.236,3.19-8.238,4.912-12.087c3.466-7.749,9.347-12.193,16.134-12.193c2.255,0,4.573,0.483,6.891,1.437
		c9.394,3.862,12.851,13.229,8.809,23.864c-1.497,3.939-3.088,7.891-4.773,12.074c-0.403,1.003-0.815,2.026-1.235,3.072
		c1.112-0.157,2.199-0.312,3.267-0.464c4.455-0.636,8.663-1.236,12.847-1.704c1.035-0.116,2.067-0.174,3.068-0.174
		c10.188,0,17.48,5.876,18.578,14.969c1.195,9.906-5.126,17.372-16.497,19.485c-1.92,0.357-3.864,0.621-5.746,0.876
		c-1.076,0.146-2.152,0.292-3.225,0.455c-1.974,0.301-3.946,0.616-6.374,1.005l-0.671,0.107c0.662,0.84,1.314,1.665,1.958,2.479
		c2.856,3.612,5.553,7.024,8.151,10.513c5.512,7.403,6.218,14.498,2.096,21.089c-3.274,5.236-8.526,8.239-14.41,8.24
		c-5.129,0-9.995-2.289-13.704-6.447c-3.162-3.547-6.107-7.294-9.225-11.262c-0.799-1.016-1.611-2.05-2.446-3.104
		c-0.442,1.124-0.873,2.223-1.295,3.302c-1.718,4.388-3.341,8.532-5.074,12.584C121.89,339.887,116.075,344.19,109.144,344.191z
		 M105.738,298.97l-1.255,3.15c-0.973,2.443-1.916,4.72-2.828,6.922c-1.86,4.492-3.617,8.735-5.012,12.963
		c-2.625,7.957,0.135,14.386,7.384,17.197c1.729,0.671,3.451,1.011,5.117,1.011c5.262,0,9.744-3.424,12.296-9.394
		c1.708-3.995,3.32-8.112,5.027-12.47c0.816-2.083,1.662-4.243,2.565-6.511l1.26-3.165l2.136,2.654
		c1.615,2.007,3.137,3.943,4.611,5.818c3.078,3.918,5.986,7.618,9.067,11.072c2.943,3.3,6.755,5.117,10.735,5.117
		c4.483,0,8.505-2.323,11.037-6.371c3.21-5.133,2.584-10.565-1.914-16.605c-2.564-3.443-5.244-6.833-8.081-10.422
		c-1.314-1.661-2.663-3.369-4.058-5.152l-2.08-2.66l7.343-1.169c2.439-0.39,4.42-0.707,6.403-1.009
		c1.095-0.166,2.191-0.316,3.289-0.465c1.833-0.249,3.73-0.506,5.554-0.845c9.383-1.743,14.222-7.246,13.274-15.097
		c-0.854-7.073-6.46-11.468-14.629-11.468c-0.854,0-1.737,0.051-2.625,0.15c-4.125,0.462-8.303,1.058-12.728,1.689
		c-2.134,0.304-4.347,0.62-6.678,0.939l-3.379,0.463l1.262-3.169c0.871-2.188,1.707-4.263,2.512-6.263
		c1.677-4.165,3.26-8.1,4.743-12.003c3.306-8.695,0.837-15.713-6.603-18.772c-1.836-0.755-3.646-1.138-5.379-1.138
		c-5.224,0-9.665,3.495-12.504,9.84c-1.68,3.756-3.142,7.53-4.834,11.899c-0.801,2.07-1.64,4.235-2.555,6.531l-1.258,3.158
		l-2.136-2.644c-1.448-1.792-2.797-3.468-4.082-5.064c-2.711-3.366-5.051-6.274-7.464-9.209c-3.993-4.856-8.677-7.531-13.188-7.531
		c-2.686,0-5.221,0.931-7.532,2.766c-6.554,5.201-6.72,12.938-0.455,21.227c2.358,3.12,4.796,6.247,7.379,9.558
		c1.24,1.59,2.525,3.238,3.871,4.975l2.086,2.69l-3.368,0.496c-2.319,0.341-4.487,0.65-6.552,0.943
		c-4.322,0.615-8.054,1.146-11.832,1.782c-10.04,1.691-15.128,7.511-13.956,15.968c0.948,6.845,6.153,10.771,14.279,10.771
		c1.087,0,2.228-0.073,3.39-0.219c3.924-0.489,7.776-1.003,12.236-1.597c2.123-0.283,4.354-0.58,6.746-0.895L105.738,298.97z"/>
</g>
<g id="fiocco_x5F_grande_x5F_DW_x5F_SX_1_">
	<path id="riempimento_x5F_fiocco_17_" style="fill:#FFFFFF;" d="M162.74,395.72c3.961-9.946,6.908-18.145,10.456-26.076
		c6.056-13.538,16.991-18.572,28.82-13.709c11.861,4.876,16.065,16.338,10.858,30.037c-3.093,8.137-6.419,16.186-10.239,25.778
		c10.196-1.395,18.782-2.746,27.411-3.711c14.844-1.661,25.892,5.863,27.405,18.396c1.505,12.465-6.348,21.646-20.974,24.363
		c-4.154,0.772-8.368,1.224-12.548,1.86c-4.171,0.635-8.336,1.317-14.652,2.32c6.232,7.97,11.838,14.871,17.144,21.996
		c6.124,8.224,8.651,17.239,2.825,26.556c-8.008,12.807-24.729,13.825-35.145,2.146c-6.468-7.253-12.272-15.098-19.362-23.906
		c-3.976,9.983-7.161,18.477-10.724,26.81c-5.438,12.719-16.485,17.837-28.127,13.323c-11.375-4.411-16.259-14.967-12.051-27.721
		c2.945-8.926,6.864-17.531,11.104-28.177c-10.341,1.362-18.546,2.49-26.764,3.515c-15.494,1.932-26.285-4.743-28.019-17.264
		c-1.868-13.491,6.188-22.989,21.975-25.648c7.951-1.339,15.954-2.377,25.959-3.849c-5.895-7.604-10.957-13.999-15.873-20.504
		c-9.77-12.928-9.31-25.504,1.135-33.793c10.046-7.972,22.949-5.219,33.102,7.13C151.507,381.734,156.464,387.955,162.74,395.72z"/>
	<path id="bordo_x5F_fiocco_17_" style="fill:#808184;" d="M144.111,526.32c-3.043,0-6.151-0.607-9.237-1.804
		c-12.924-5.012-18.301-17.263-13.699-31.212c2.03-6.153,4.544-12.225,7.206-18.653c0.707-1.707,1.427-3.446,2.159-5.237
		c-1.624,0.216-3.197,0.426-4.731,0.63c-6.297,0.839-11.734,1.564-17.288,2.257c-1.866,0.233-3.707,0.351-5.469,0.351
		c-14.125,0-23.962-7.668-25.671-20.011c-2.093-15.117,6.985-25.882,24.286-28.795c5.393-0.908,10.684-1.661,16.811-2.533
		c1.444-0.205,2.923-0.416,4.447-0.635c-0.847-1.086-1.677-2.151-2.493-3.198c-3.651-4.682-7.1-9.104-10.449-13.535
		c-10.602-14.029-9.978-28.466,1.628-37.678c4.213-3.344,9.088-5.111,14.098-5.111c8.064,0,16.2,4.495,22.911,12.656
		c3.419,4.158,6.726,8.265,10.554,13.021c0.884,1.098,1.79,2.223,2.723,3.381c0.626-1.603,1.23-3.161,1.819-4.683
		c2.311-5.969,4.495-11.607,6.922-17.031c4.884-10.918,13.17-17.18,22.733-17.18c3.177,0,6.444,0.681,9.71,2.024
		c13.236,5.442,18.108,18.64,12.412,33.624c-2.11,5.55-4.351,11.118-6.725,17.013c-0.568,1.414-1.148,2.854-1.74,4.328
		c1.567-0.221,3.099-0.44,4.603-0.655c6.277-0.896,12.206-1.741,18.101-2.401c1.458-0.163,2.913-0.246,4.323-0.246
		c14.355,0,24.63,8.279,26.177,21.091c1.684,13.958-7.223,24.478-23.244,27.454c-2.705,0.503-5.445,0.874-8.096,1.234
		c-1.516,0.206-3.032,0.411-4.544,0.641c-2.781,0.424-5.561,0.868-8.98,1.416l-0.946,0.151c0.933,1.184,1.852,2.346,2.759,3.493
		c4.024,5.09,7.825,9.898,11.485,14.812c7.767,10.43,8.761,20.428,2.954,29.715c-4.614,7.377-12.013,11.609-20.303,11.61
		c-7.226,0-14.083-3.226-19.309-9.084c-4.456-4.997-8.606-10.278-12.999-15.869c-1.126-1.432-2.27-2.889-3.446-4.374
		c-0.623,1.584-1.23,3.133-1.824,4.652c-2.421,6.182-4.708,12.022-7.149,17.731C162.069,520.256,153.876,526.319,144.111,526.32z
		 M139.311,462.603l-1.768,4.439c-1.371,3.442-2.699,6.651-3.984,9.754c-2.621,6.33-5.096,12.308-7.062,18.265
		c-3.699,11.212,0.191,20.27,10.404,24.231c2.436,0.945,4.863,1.424,7.21,1.424c7.414,0,13.729-4.825,17.326-13.237
		c2.407-5.63,4.679-11.43,7.083-17.571c1.149-2.935,2.342-5.978,3.614-9.174l1.776-4.46l3.01,3.739
		c2.276,2.827,4.42,5.556,6.497,8.197c4.337,5.52,8.434,10.734,12.775,15.601c4.147,4.65,9.519,7.21,15.126,7.21
		c6.316,0,11.984-3.272,15.551-8.977c4.523-7.233,3.641-14.886-2.696-23.396c-3.612-4.851-7.389-9.627-11.387-14.684
		c-1.851-2.341-3.753-4.747-5.718-7.259l-2.931-3.748l10.346-1.647c3.436-0.55,6.227-0.997,9.022-1.422
		c1.542-0.234,3.088-0.445,4.634-0.655c2.583-0.35,5.255-0.713,7.826-1.191c13.221-2.456,20.039-10.21,18.703-21.272
		c-1.203-9.966-9.102-16.158-20.613-16.158c-1.203,0-2.447,0.071-3.699,0.211c-5.812,0.65-11.7,1.491-17.933,2.38
		c-3.007,0.429-6.124,0.874-9.409,1.323l-4.761,0.652l1.778-4.465c1.228-3.083,2.405-6.007,3.539-8.825
		c2.363-5.869,4.594-11.413,6.684-16.912c4.658-12.252,1.179-22.14-9.303-26.45c-2.587-1.064-5.137-1.603-7.579-1.603
		c-7.361,0-13.618,4.924-17.618,13.865c-2.367,5.293-4.427,10.61-6.811,16.766c-1.129,2.917-2.311,5.967-3.599,9.202l-1.772,4.449
		l-3.01-3.725c-2.041-2.524-3.942-4.886-5.751-7.135c-3.819-4.743-7.117-8.84-10.517-12.976
		c-5.626-6.843-12.226-10.611-18.582-10.611c-3.785,0-7.356,1.311-10.613,3.897c-9.234,7.328-9.468,18.229-0.641,29.909
		c3.322,4.396,6.758,8.803,10.397,13.467c1.747,2.24,3.558,4.562,5.455,7.009l2.939,3.791l-4.746,0.699
		c-3.267,0.481-6.322,0.915-9.231,1.329c-6.09,0.867-11.348,1.615-16.671,2.511c-14.147,2.382-21.315,10.583-19.665,22.499
		c1.335,9.645,8.669,15.176,20.12,15.176c1.532,0,3.139-0.104,4.776-0.308c5.53-0.69,10.956-1.413,17.24-2.25
		c2.991-0.399,6.134-0.818,9.505-1.262L139.311,462.603z"/>
</g>
<g id="fiocco_x5F_piccolo_x5F_DW_x5F_DX_1_">
	<path id="riempimento_x5F_fiocco_16_" style="fill:#FFFFFF;" d="M428.114,406.034c2.811-7.059,4.903-12.878,7.421-18.506
		c4.298-9.608,12.059-13.181,20.454-9.73c8.418,3.461,11.402,11.596,7.706,21.318c-2.195,5.775-4.556,11.487-7.267,18.295
		c7.236-0.99,13.33-1.949,19.454-2.634c10.535-1.179,18.376,4.161,19.45,13.056c1.068,8.846-4.506,15.363-14.885,17.291
		c-2.948,0.548-5.939,0.869-8.906,1.32c-2.961,0.451-5.916,0.935-10.399,1.647c4.423,5.656,8.402,10.554,12.167,15.611
		c4.346,5.837,6.14,12.234,2.005,18.847c-5.684,9.089-17.55,9.811-24.943,1.523c-4.591-5.147-8.71-10.715-13.742-16.966
		c-2.822,7.085-5.082,13.114-7.611,19.028c-3.86,9.027-11.7,12.659-19.962,9.455c-8.073-3.131-11.539-10.622-8.553-19.674
		c2.09-6.335,4.871-12.442,7.881-19.998c-7.339,0.967-13.162,1.767-18.995,2.494c-10.996,1.371-18.655-3.367-19.885-12.253
		c-1.326-9.575,4.392-16.315,15.596-18.202c5.643-0.95,11.323-1.687,18.424-2.732c-4.184-5.397-7.776-9.935-11.265-14.552
		c-6.934-9.175-6.608-18.1,0.805-23.983c7.13-5.658,16.287-3.704,23.493,5.06C420.142,396.108,423.66,400.523,428.114,406.034z"/>
	<path id="bordo_x5F_fiocco_16_" style="fill:#808184;" d="M414.893,498.722c-2.16,0-4.365-0.431-6.555-1.28
		c-9.172-3.557-12.989-12.252-9.722-22.152c1.44-4.367,3.225-8.676,5.114-13.238c0.502-1.212,1.013-2.446,1.532-3.717
		c-1.152,0.153-2.269,0.302-3.357,0.447c-4.469,0.596-8.328,1.11-12.269,1.602c-1.325,0.165-2.631,0.249-3.882,0.249
		c-10.025,0-17.006-5.442-18.219-14.202c-1.486-10.729,4.958-18.369,17.236-20.436c3.827-0.644,7.583-1.179,11.931-1.797
		c1.025-0.146,2.074-0.295,3.156-0.451c-0.601-0.771-1.19-1.527-1.769-2.269c-2.591-3.323-5.039-6.461-7.416-9.606
		c-7.525-9.957-7.082-20.203,1.156-26.74c2.99-2.373,6.45-3.628,10.005-3.628c5.723,0,11.498,3.19,16.26,8.982
		c2.426,2.951,4.773,5.866,7.49,9.241c0.627,0.779,1.27,1.578,1.932,2.4c0.444-1.137,0.873-2.243,1.291-3.324
		c1.64-4.236,3.19-8.238,4.912-12.087c3.466-7.749,9.347-12.193,16.134-12.193c2.255,0,4.573,0.483,6.891,1.437
		c9.394,3.862,12.851,13.229,8.809,23.864c-1.497,3.939-3.088,7.891-4.773,12.074c-0.403,1.003-0.815,2.026-1.235,3.072
		c1.112-0.157,2.199-0.312,3.267-0.464c4.455-0.636,8.663-1.236,12.847-1.704c1.035-0.116,2.067-0.174,3.068-0.174
		c10.188,0,17.48,5.876,18.578,14.969c1.195,9.906-5.126,17.372-16.497,19.485c-1.919,0.357-3.864,0.621-5.746,0.876
		c-1.076,0.146-2.152,0.292-3.225,0.455c-1.974,0.301-3.946,0.616-6.374,1.005l-0.671,0.107c0.662,0.84,1.314,1.665,1.958,2.479
		c2.856,3.612,5.553,7.024,8.151,10.513c5.513,7.403,6.217,14.498,2.096,21.089c-3.274,5.236-8.526,8.239-14.41,8.24
		c-5.129,0-9.995-2.289-13.704-6.447c-3.163-3.547-6.107-7.294-9.225-11.262c-0.799-1.016-1.611-2.05-2.446-3.104
		c-0.442,1.124-0.873,2.223-1.295,3.302c-1.718,4.388-3.341,8.532-5.074,12.584C427.638,494.419,421.823,498.722,414.893,498.722z
		 M411.486,453.502l-1.255,3.15c-0.973,2.443-1.916,4.72-2.828,6.922c-1.86,4.492-3.617,8.735-5.012,12.963
		c-2.625,7.957,0.135,14.386,7.384,17.197c1.729,0.671,3.451,1.011,5.117,1.011c5.262,0,9.744-3.424,12.296-9.394
		c1.708-3.995,3.32-8.112,5.027-12.47c0.816-2.083,1.662-4.243,2.565-6.511l1.26-3.165l2.136,2.654
		c1.615,2.007,3.137,3.943,4.611,5.818c3.078,3.918,5.986,7.618,9.067,11.072c2.943,3.3,6.755,5.117,10.735,5.117
		c4.483,0,8.505-2.323,11.037-6.371c3.21-5.133,2.584-10.565-1.914-16.605c-2.564-3.443-5.244-6.833-8.081-10.422
		c-1.314-1.661-2.663-3.369-4.058-5.152l-2.08-2.66l7.343-1.169c2.439-0.39,4.42-0.707,6.403-1.009
		c1.095-0.166,2.191-0.316,3.289-0.465c1.833-0.249,3.73-0.506,5.554-0.845c9.383-1.743,14.222-7.246,13.274-15.097
		c-0.854-7.073-6.46-11.468-14.629-11.468c-0.854,0-1.737,0.051-2.625,0.15c-4.124,0.462-8.303,1.058-12.728,1.689
		c-2.134,0.304-4.347,0.62-6.678,0.939l-3.379,0.463l1.262-3.169c0.871-2.188,1.707-4.263,2.512-6.263
		c1.677-4.165,3.26-8.1,4.743-12.003c3.306-8.695,0.837-15.713-6.603-18.772c-1.836-0.755-3.646-1.138-5.379-1.138
		c-5.224,0-9.665,3.495-12.504,9.84c-1.68,3.756-3.142,7.53-4.834,11.899c-0.801,2.07-1.64,4.235-2.555,6.531l-1.258,3.158
		l-2.136-2.644c-1.448-1.792-2.797-3.468-4.082-5.064c-2.711-3.366-5.051-6.274-7.464-9.209c-3.993-4.856-8.677-7.531-13.188-7.531
		c-2.686,0-5.221,0.931-7.532,2.766c-6.553,5.201-6.72,12.938-0.455,21.227c2.358,3.12,4.797,6.247,7.379,9.558
		c1.24,1.59,2.525,3.238,3.871,4.975l2.086,2.69l-3.368,0.496c-2.319,0.341-4.487,0.65-6.552,0.943
		c-4.322,0.615-8.054,1.146-11.832,1.782c-10.04,1.691-15.128,7.511-13.956,15.968c0.948,6.845,6.153,10.771,14.279,10.771
		c1.087,0,2.228-0.073,3.39-0.219c3.924-0.489,7.776-1.003,12.236-1.597c2.123-0.283,4.354-0.58,6.746-0.895L411.486,453.502z"/>
</g>
</svg>
