<svg id="neve_forte" xmlns="http://www.w3.org/2000/svg" xmlns:xlink="http://www.w3.org/1999/xlink" width="750" height="600" viewBox="0 0 750 600">
  <defs>
    <style>
      .cls-1, .cls-2 {
        fill: none;
        stroke: #3e5d72;
        stroke-linecap: round;
        stroke-miterlimit: 10;
      }

      .cls-1 {
        stroke-width: 12px;
      }

      .cls-2 {
        stroke-width: 9px;
      }

      .cls-10, .cls-11, .cls-12, .cls-3, .cls-4, .cls-5, .cls-6, .cls-7, .cls-8, .cls-9 {
        fill-rule: evenodd;
      }

      .cls-3 {
        fill: url(#Sfumatura_senza_nome_1318);
      }

      .cls-4 {
        fill: url(#Sfumatura_senza_nome_1009);
      }

      .cls-5 {
        fill: url(#Sfumatura_senza_nome_642);
      }

      .cls-6 {
        fill: url(#Sfumatura_senza_nome_1310);
      }

      .cls-7 {
        fill: url(#Sfumatura_senza_nome_527);
      }

      .cls-8 {
        fill: url(#Sfumatura_senza_nome_298);
      }

      .cls-9 {
        fill: url(#Sfumatura_senza_nome_283);
      }

      .cls-10 {
        fill: url(#Sfumatura_senza_nome_279);
      }

      .cls-11 {
        fill: url(#Sfumatura_senza_nome_178);
      }

      .cls-12 {
        fill: url(#Sfumatura_senza_nome_175);
      }
    </style>
    <linearGradient id="Sfumatura_senza_nome_1318" data-name="Sfumatura senza nome 1318" x1="290.93" y1="278.29" x2="290.93" y2="20.42" gradientUnits="userSpaceOnUse">
      <stop offset="0" stop-color="#506572"/>
      <stop offset="0.42" stop-color="#717e89"/>
      <stop offset="0.77" stop-color="#c7ccd1"/>
      <stop offset="0.87" stop-color="#cfd6d9"/>
      <stop offset="1" stop-color="#deeae8"/>
    </linearGradient>
    <linearGradient id="Sfumatura_senza_nome_1009" data-name="Sfumatura senza nome 1009" x1="291.08" y1="268.68" x2="291.08" y2="43.48" gradientUnits="userSpaceOnUse">
      <stop offset="0" stop-color="#a6c1ce"/>
      <stop offset="0.03" stop-color="#a0bbc8"/>
      <stop offset="0.1" stop-color="#97b1be"/>
      <stop offset="0.19" stop-color="#94aebb"/>
    </linearGradient>
    <linearGradient id="Sfumatura_senza_nome_642" data-name="Sfumatura senza nome 642" x1="290.93" y1="251.91" x2="290.93" y2="33.11" gradientUnits="userSpaceOnUse">
      <stop offset="0" stop-color="#5d7381"/>
      <stop offset="0.18" stop-color="#5f7583"/>
      <stop offset="0.28" stop-color="#687c89"/>
      <stop offset="0.31" stop-color="#6b7f8b"/>
      <stop offset="0.65" stop-color="#97a5ac"/>
      <stop offset="0.83" stop-color="#a6b4ba"/>
      <stop offset="1" stop-color="#b9c6cb"/>
    </linearGradient>
    <linearGradient id="Sfumatura_senza_nome_1310" data-name="Sfumatura senza nome 1310" x1="292.39" y1="234.75" x2="292.39" y2="44.33" gradientUnits="userSpaceOnUse">
      <stop offset="0.13" stop-color="#a1b0b8"/>
      <stop offset="0.37" stop-color="#dbe4e8"/>
    </linearGradient>
    <linearGradient id="Sfumatura_senza_nome_527" data-name="Sfumatura senza nome 527" x1="290.93" y1="237.26" x2="290.93" y2="67.67" gradientUnits="userSpaceOnUse">
      <stop offset="0.31" stop-color="#8da8b9"/>
      <stop offset="0.59" stop-color="#a4bac5"/>
      <stop offset="1" stop-color="#c3d1d6"/>
    </linearGradient>
    <linearGradient id="Sfumatura_senza_nome_298" data-name="Sfumatura senza nome 298" x1="553.85" y1="232.62" x2="553.85" y2="34.84" gradientUnits="userSpaceOnUse">
      <stop offset="0" stop-color="#475860"/>
      <stop offset="0.42" stop-color="#4e5a63"/>
      <stop offset="0.77" stop-color="#bdc2c6"/>
      <stop offset="1" stop-color="#bcc4c7"/>
    </linearGradient>
    <linearGradient id="Sfumatura_senza_nome_283" data-name="Sfumatura senza nome 283" x1="554.01" y1="220.1" x2="554.01" y2="69.89" gradientUnits="userSpaceOnUse">
      <stop offset="0" stop-color="#7d939b"/>
      <stop offset="0.01" stop-color="#7a9098"/>
      <stop offset="0.09" stop-color="#71868f"/>
      <stop offset="0.19" stop-color="#6e838c"/>
    </linearGradient>
    <linearGradient id="Sfumatura_senza_nome_279" data-name="Sfumatura senza nome 279" x1="555.13" y1="211.34" x2="555.13" y2="48.61" gradientUnits="userSpaceOnUse">
      <stop offset="0" stop-color="#41525d"/>
      <stop offset="0.1" stop-color="#465761"/>
      <stop offset="0.21" stop-color="#55646d"/>
      <stop offset="0.33" stop-color="#6d7982"/>
      <stop offset="0.46" stop-color="#8e979d"/>
      <stop offset="0.51" stop-color="#9da5aa"/>
      <stop offset="0.84" stop-color="#a4acb0"/>
      <stop offset="1" stop-color="#a9b1b4"/>
    </linearGradient>
    <linearGradient id="Sfumatura_senza_nome_178" data-name="Sfumatura senza nome 178" x1="553.96" y1="196.36" x2="553.96" y2="57.37" gradientUnits="userSpaceOnUse">
      <stop offset="0.13" stop-color="#818c93"/>
      <stop offset="0.37" stop-color="#b9bfc2"/>
    </linearGradient>
    <linearGradient id="Sfumatura_senza_nome_175" data-name="Sfumatura senza nome 175" x1="555.21" y1="200.07" x2="555.21" y2="73.98" gradientUnits="userSpaceOnUse">
      <stop offset="0.31" stop-color="#657b88"/>
      <stop offset="0.68" stop-color="#8fa0a8"/>
      <stop offset="1" stop-color="#aebbc0"/>
    </linearGradient>
  </defs>
  <title>26_neve_molto_forte</title>
  <g id="fiocco_scuro_dx">
    <polyline id="steli_ore11_SC" class="cls-1" points="484.63 195.38 516.61 192.38 522.36 165.77"/>
    <polyline id="steli_ore9_SC" class="cls-1" points="475.15 210.29 495 228.27 492.09 253.93"/>
    <polyline id="steli_ore7_SC" class="cls-1" points="499.74 267.63 523.62 263.53 539.5 283.05"/>
    <polyline id="steli_ore5_SC" class="cls-1" points="592.28 252 565.92 254.12 562.41 277.2"/>
    <polyline id="steli_ore3_SC" class="cls-1" points="592.43 192.31 581.62 215.2 598.24 232.65"/>
    <polyline id="steli_ore1_SC" class="cls-1" points="539.8 165.82 555.36 182.75 581.72 174.37"/>
    <line id="braccio_ore11_SC" class="cls-1" x1="525.33" y1="203.57" x2="495.16" y2="165.7"/>
    <line id="braccio_ore9_SC" class="cls-1" x1="516.74" y1="225.06" x2="467.57" y2="232.32"/>
    <line id="braccio_ore7_SC" class="cls-1" x1="531.07" y1="243.25" x2="513.12" y2="292.13"/>
    <line id="braccio_ore5_SC" class="cls-1" x1="553.98" y1="239.93" x2="585.38" y2="277.26"/>
    <line id="braccio_ore3_SC" class="cls-1" x1="562.56" y1="218.43" x2="608.52" y2="210.63"/>
    <line id="braccio_ore1_SC" class="cls-1" x1="548.24" y1="200.25" x2="566.17" y2="156.21"/>
    <polygon id="esagono_SC" class="cls-1" points="552.85 235.15 533.1 238.01 520.75 222.34 528.15 203.81 547.9 200.94 560.25 216.62 552.85 235.15"/>
  </g>
  <g id="fiocco_scuro_md_dx">
    <polyline id="steli_ore11_SC-2" data-name="steli_ore11_SC" class="cls-1" points="343.94 282.51 375.92 279.51 381.68 252.91"/>
    <polyline id="steli_ore9_SC-2" data-name="steli_ore9_SC" class="cls-1" points="334.47 297.42 354.32 315.41 351.4 341.07"/>
    <polyline id="steli_ore7_SC-2" data-name="steli_ore7_SC" class="cls-1" points="359.06 354.76 382.94 350.67 398.81 370.19"/>
    <polyline id="steli_ore5_SC-2" data-name="steli_ore5_SC" class="cls-1" points="451.59 339.13 425.24 341.26 421.73 364.33"/>
    <polyline id="steli_ore3_SC-2" data-name="steli_ore3_SC" class="cls-1" points="451.75 279.44 440.93 302.33 457.56 319.79"/>
    <polyline id="steli_ore1_SC-2" data-name="steli_ore1_SC" class="cls-1" points="399.11 252.96 414.68 269.89 441.04 261.51"/>
    <line id="braccio_ore11_SC-2" data-name="braccio_ore11_SC" class="cls-1" x1="384.64" y1="290.7" x2="354.48" y2="252.84"/>
    <line id="braccio_ore9_SC-2" data-name="braccio_ore9_SC" class="cls-1" x1="376.06" y1="312.2" x2="326.88" y2="319.45"/>
    <line id="braccio_ore7_SC-2" data-name="braccio_ore7_SC" class="cls-1" x1="390.39" y1="330.38" x2="372.44" y2="379.26"/>
    <line id="braccio_ore5_SC-2" data-name="braccio_ore5_SC" class="cls-1" x1="413.3" y1="327.06" x2="444.69" y2="364.39"/>
    <line id="braccio_ore3_SC-2" data-name="braccio_ore3_SC" class="cls-1" x1="421.88" y1="305.57" x2="467.83" y2="297.77"/>
    <line id="braccio_ore1_SC-2" data-name="braccio_ore1_SC" class="cls-1" x1="407.55" y1="287.38" x2="425.49" y2="243.34"/>
    <polygon id="esagono_SC-2" data-name="esagono_SC" class="cls-1" points="412.17 322.29 392.42 325.15 380.07 309.47 387.47 290.94 407.22 288.08 419.57 303.75 412.17 322.29"/>
  </g>
  <g id="fiocco_scuro_md_sx">
    <polyline id="steli_ore11_SC-3" data-name="steli_ore11_SC" class="cls-1" points="182.82 350.58 214.8 347.58 220.56 320.97"/>
    <polyline id="steli_ore9_SC-3" data-name="steli_ore9_SC" class="cls-1" points="173.35 365.49 193.2 383.47 190.28 409.13"/>
    <polyline id="steli_ore7_SC-3" data-name="steli_ore7_SC" class="cls-1" points="197.94 422.83 221.82 418.73 237.69 438.25"/>
    <polyline id="steli_ore5_SC-3" data-name="steli_ore5_SC" class="cls-1" points="290.47 407.19 264.12 409.32 260.61 432.39"/>
    <polyline id="steli_ore3_SC-3" data-name="steli_ore3_SC" class="cls-1" points="290.63 347.5 279.81 370.39 296.44 387.85"/>
    <polyline id="steli_ore1_SC-3" data-name="steli_ore1_SC" class="cls-1" points="237.99 321.02 253.56 337.95 279.92 329.57"/>
    <line id="braccio_ore11_SC-3" data-name="braccio_ore11_SC" class="cls-1" x1="223.52" y1="358.76" x2="193.36" y2="320.9"/>
    <line id="braccio_ore9_SC-3" data-name="braccio_ore9_SC" class="cls-1" x1="214.94" y1="380.26" x2="165.76" y2="387.51"/>
    <line id="braccio_ore7_SC-3" data-name="braccio_ore7_SC" class="cls-1" x1="229.27" y1="398.44" x2="211.32" y2="447.32"/>
    <line id="braccio_ore5_SC-3" data-name="braccio_ore5_SC" class="cls-1" x1="252.18" y1="395.13" x2="283.57" y2="432.45"/>
    <line id="braccio_ore3_SC-3" data-name="braccio_ore3_SC" class="cls-1" x1="260.76" y1="373.63" x2="306.71" y2="365.83"/>
    <line id="braccio_ore1_SC-3" data-name="braccio_ore1_SC" class="cls-1" x1="246.43" y1="355.45" x2="264.37" y2="311.41"/>
    <polygon id="esagono_SC-3" data-name="esagono_SC" class="cls-1" points="251.05 390.35 231.3 393.21 218.95 377.54 226.35 359 246.1 356.14 258.45 371.82 251.05 390.35"/>
  </g>
  <g id="fiocco_scuro_sx">
    <polyline id="steli_ore11_SC-4" data-name="steli_ore11_SC" class="cls-1" points="36.48 437.62 68.46 434.62 74.22 408.01"/>
    <polyline id="steli_ore9_SC-4" data-name="steli_ore9_SC" class="cls-1" points="27.01 452.52 46.86 470.51 43.95 496.17"/>
    <polyline id="steli_ore7_SC-4" data-name="steli_ore7_SC" class="cls-1" points="51.6 509.87 75.48 505.77 91.35 525.29"/>
    <polyline id="steli_ore5_SC-4" data-name="steli_ore5_SC" class="cls-1" points="144.13 494.24 117.78 496.36 114.27 519.43"/>
    <polyline id="steli_ore3_SC-4" data-name="steli_ore3_SC" class="cls-1" points="144.29 434.54 133.47 457.43 150.1 474.89"/>
    <polyline id="steli_ore1_SC-4" data-name="steli_ore1_SC" class="cls-1" points="91.66 408.06 107.22 424.99 133.58 416.61"/>
    <line id="braccio_ore11_SC-4" data-name="braccio_ore11_SC" class="cls-1" x1="77.18" y1="445.8" x2="47.02" y2="407.94"/>
    <line id="braccio_ore9_SC-4" data-name="braccio_ore9_SC" class="cls-1" x1="68.6" y1="467.3" x2="19.42" y2="474.55"/>
    <line id="braccio_ore7_SC-4" data-name="braccio_ore7_SC" class="cls-1" x1="82.93" y1="485.48" x2="64.98" y2="534.36"/>
    <line id="braccio_ore5_SC-4" data-name="braccio_ore5_SC" class="cls-1" x1="105.84" y1="482.17" x2="137.24" y2="519.49"/>
    <line id="braccio_ore3_SC-4" data-name="braccio_ore3_SC" class="cls-1" x1="114.42" y1="460.67" x2="160.37" y2="452.87"/>
    <line id="braccio_ore1_SC-4" data-name="braccio_ore1_SC" class="cls-1" x1="100.09" y1="442.48" x2="118.03" y2="398.44"/>
    <polygon id="esagono_SC-4" data-name="esagono_SC" class="cls-1" points="104.71 477.39 84.96 480.25 72.61 464.57 80.01 446.04 99.76 443.18 112.11 458.86 104.71 477.39"/>
  </g>
  <g id="fiocco_scuro_picc_dx">
    <polyline id="steli_ore11_SC-5" data-name="steli_ore11_SC" class="cls-2" points="474.64 368.67 493.71 359.99 491.58 342.36"/>
    <polyline id="steli_ore9_SC-5" data-name="steli_ore9_SC" class="cls-2" points="471.97 379.88 488.05 386.73 491.73 403.17"/>
    <polyline id="steli_ore7_SC-5" data-name="steli_ore7_SC" class="cls-2" points="499.37 409.98 513.22 402.36 527.17 411.01"/>
    <polyline id="steli_ore5_SC-5" data-name="steli_ore5_SC" class="cls-2" points="553.08 380.61 537.29 387.54 540.04 402.51"/>
    <polyline id="steli_ore3_SC-5" data-name="steli_ore3_SC" class="cls-2" points="540.44 343.77 538.66 360.19 552.63 367.41"/>
    <polyline id="steli_ore1_SC-5" data-name="steli_ore1_SC" class="cls-2" points="502.34 338.67 515.55 345.79 530.01 335"/>
    <line id="braccio_ore11_SC-5" data-name="braccio_ore11_SC" class="cls-2" x1="501.47" y1="365.03" x2="474.8" y2="348.12"/>
    <line id="braccio_ore9_SC-5" data-name="braccio_ore9_SC" class="cls-2" x1="500.77" y1="380.12" x2="472" y2="395.08"/>
    <line id="braccio_ore7_SC-5" data-name="braccio_ore7_SC" class="cls-2" x1="513.48" y1="388.27" x2="512.84" y2="422.23"/>
    <line id="braccio_ore5_SC-5" data-name="braccio_ore5_SC" class="cls-2" x1="526.9" y1="381.34" x2="554.22" y2="397.65"/>
    <line id="braccio_ore3_SC-5" data-name="braccio_ore3_SC" class="cls-2" x1="527.6" y1="366.25" x2="554.27" y2="351.64"/>
    <line id="braccio_ore1_SC-5" data-name="braccio_ore1_SC" class="cls-2" x1="514.89" y1="358.1" x2="516.55" y2="327.12"/>
    <polygon id="esagono_SC-5" data-name="esagono_SC" class="cls-2" points="525.18 378.63 513.62 384.61 502.66 377.58 503.27 364.57 514.83 358.6 525.79 365.63 525.18 378.63"/>
  </g>
  <g id="fiocco_scuro_picc_md_dx">
    <polyline id="steli_ore11_SC-6" data-name="steli_ore11_SC" class="cls-2" points="327.32 440.31 346.4 431.64 344.27 414.01"/>
    <polyline id="steli_ore9_SC-6" data-name="steli_ore9_SC" class="cls-2" points="324.66 451.53 340.74 458.38 344.42 474.82"/>
    <polyline id="steli_ore7_SC-6" data-name="steli_ore7_SC" class="cls-2" points="352.05 481.63 365.9 474.01 379.85 482.66"/>
    <polyline id="steli_ore5_SC-6" data-name="steli_ore5_SC" class="cls-2" points="405.77 452.25 389.97 459.19 392.73 474.16"/>
    <polyline id="steli_ore3_SC-6" data-name="steli_ore3_SC" class="cls-2" points="393.13 415.42 391.35 431.84 405.32 439.06"/>
    <polyline id="steli_ore1_SC-6" data-name="steli_ore1_SC" class="cls-2" points="355.03 410.32 368.24 417.44 382.7 406.65"/>
    <line id="braccio_ore11_SC-6" data-name="braccio_ore11_SC" class="cls-2" x1="354.16" y1="436.68" x2="327.49" y2="419.77"/>
    <line id="braccio_ore9_SC-6" data-name="braccio_ore9_SC" class="cls-2" x1="353.46" y1="451.76" x2="324.68" y2="466.73"/>
    <line id="braccio_ore7_SC-6" data-name="braccio_ore7_SC" class="cls-2" x1="366.17" y1="459.92" x2="365.53" y2="493.88"/>
    <line id="braccio_ore5_SC-6" data-name="braccio_ore5_SC" class="cls-2" x1="379.58" y1="452.98" x2="406.9" y2="469.3"/>
    <line id="braccio_ore3_SC-6" data-name="braccio_ore3_SC" class="cls-2" x1="380.29" y1="437.9" x2="406.96" y2="423.29"/>
    <line id="braccio_ore1_SC-6" data-name="braccio_ore1_SC" class="cls-2" x1="367.58" y1="429.75" x2="369.24" y2="398.77"/>
    <polygon id="esagono_SC-6" data-name="esagono_SC" class="cls-2" points="377.87 450.28 366.31 456.26 355.35 449.23 355.95 436.22 367.52 430.25 378.48 437.28 377.87 450.28"/>
  </g>
  <g id="fiocco_scuro_picc_md_sx">
    <polyline id="steli_ore11_SC-7" data-name="steli_ore11_SC" class="cls-2" points="190.78 517.28 209.86 508.61 207.73 490.98"/>
    <polyline id="steli_ore9_SC-7" data-name="steli_ore9_SC" class="cls-2" points="188.12 528.49 204.19 535.34 207.87 551.79"/>
    <polyline id="steli_ore7_SC-7" data-name="steli_ore7_SC" class="cls-2" points="215.51 558.6 229.36 550.98 243.31 559.63"/>
    <polyline id="steli_ore5_SC-7" data-name="steli_ore5_SC" class="cls-2" points="269.23 529.22 253.43 536.15 256.19 551.13"/>
    <polyline id="steli_ore3_SC-7" data-name="steli_ore3_SC" class="cls-2" points="256.59 492.39 254.8 508.81 268.78 516.02"/>
    <polyline id="steli_ore1_SC-7" data-name="steli_ore1_SC" class="cls-2" points="218.49 487.29 231.7 494.41 246.16 483.62"/>
    <line id="braccio_ore11_SC-7" data-name="braccio_ore11_SC" class="cls-2" x1="217.62" y1="513.64" x2="190.95" y2="496.74"/>
    <line id="braccio_ore9_SC-7" data-name="braccio_ore9_SC" class="cls-2" x1="216.91" y1="528.73" x2="188.14" y2="543.69"/>
    <line id="braccio_ore7_SC-7" data-name="braccio_ore7_SC" class="cls-2" x1="229.63" y1="536.88" x2="228.99" y2="570.85"/>
    <line id="braccio_ore5_SC-7" data-name="braccio_ore5_SC" class="cls-2" x1="243.04" y1="529.95" x2="270.36" y2="546.26"/>
    <line id="braccio_ore3_SC-7" data-name="braccio_ore3_SC" class="cls-2" x1="243.75" y1="514.86" x2="270.41" y2="500.25"/>
    <line id="braccio_ore1_SC-7" data-name="braccio_ore1_SC" class="cls-2" x1="231.04" y1="506.71" x2="232.7" y2="475.73"/>
    <polygon id="esagono_SC-7" data-name="esagono_SC" class="cls-2" points="241.33 527.25 229.76 533.22 218.81 526.19 219.41 513.19 230.98 507.21 241.94 514.24 241.33 527.25"/>
  </g>
  <g id="fiocco_scuro_picc_sx">
    <polyline id="steli_ore11_SC-8" data-name="steli_ore11_SC" class="cls-2" points="71.62 309.81 90.7 301.14 88.57 283.51"/>
    <polyline id="steli_ore9_SC-8" data-name="steli_ore9_SC" class="cls-2" points="68.96 321.03 85.04 327.88 88.72 344.32"/>
    <polyline id="steli_ore7_SC-8" data-name="steli_ore7_SC" class="cls-2" points="96.35 351.13 110.2 343.51 124.15 352.16"/>
    <polyline id="steli_ore5_SC-8" data-name="steli_ore5_SC" class="cls-2" points="150.07 321.76 134.27 328.69 137.03 343.66"/>
    <polyline id="steli_ore3_SC-8" data-name="steli_ore3_SC" class="cls-2" points="137.43 284.92 135.65 301.34 149.62 308.56"/>
    <polyline id="steli_ore1_SC-8" data-name="steli_ore1_SC" class="cls-2" points="99.33 279.82 112.54 286.94 127 276.15"/>
    <line id="braccio_ore11_SC-8" data-name="braccio_ore11_SC" class="cls-2" x1="98.46" y1="306.18" x2="71.79" y2="289.27"/>
    <line id="braccio_ore9_SC-8" data-name="braccio_ore9_SC" class="cls-2" x1="97.76" y1="321.27" x2="68.98" y2="336.23"/>
    <line id="braccio_ore7_SC-8" data-name="braccio_ore7_SC" class="cls-2" x1="110.47" y1="329.42" x2="109.83" y2="363.38"/>
    <line id="braccio_ore5_SC-8" data-name="braccio_ore5_SC" class="cls-2" x1="123.89" y1="322.49" x2="151.2" y2="338.8"/>
    <line id="braccio_ore3_SC-8" data-name="braccio_ore3_SC" class="cls-2" x1="124.59" y1="307.4" x2="151.26" y2="292.79"/>
    <line id="braccio_ore1_SC-8" data-name="braccio_ore1_SC" class="cls-2" x1="111.88" y1="299.25" x2="113.54" y2="268.27"/>
    <polygon id="esagono_SC-8" data-name="esagono_SC" class="cls-2" points="122.17 319.78 110.61 325.76 99.65 318.73 100.25 305.73 111.82 299.75 122.78 306.78 122.17 319.78"/>
  </g>
  <g id="nube_grande_scura">
    <path id="nube_5_down_GR-SC" class="cls-3" d="M339.6,59.45s-24.36-39-80-39C150,20.42,138.48,113,138.48,113s-67.57,7.56-67.62,77.78c0,47.92,25.17,69,41.8,78.65,7.17,4.14,14.11,8.87,43,8.87H420.82c39.42,0,47.21-7.57,53.75-11.83,15-9.75,36.43-31.29,36.43-77.42C511,119,436,112,436,112s-.17-25.29-30.15-45.42C372.69,44.25,339.6,59.45,339.6,59.45Z" transform="translate(-70.86 -20.42)"/>
    <path id="nube_4_GR-SC" class="cls-4" d="M333,79s-37.62-51.73-113.27-30.4c-68,19.18-65.29,75.86-65.29,75.86s-66.6,7.44-68.61,69.69C84,251.91,119.24,261.48,124,263.87c6,3,11.94,4.79,26.23,4.81l286.7,0c7.76,0,7.76,0,15.53-2.39,8.23-2.54,47.78-19.74,43.6-65.2-5.69-61.89-69.87-67.59-69.87-67.59s3.57-27.15-25.08-47.85C370.2,63.28,333,79,333,79Z" transform="translate(-70.86 -20.42)"/>
    <path id="nube_3_GR-SC" class="cls-5" d="M337,74.85s-38.09-57.2-111.48-37.68c-66,17.55-72.9,83.74-72.9,83.74s-67.08,5.82-66.25,62.81c.58,39.57,31.88,57.63,47.2,64.21a47.89,47.89,0,0,0,18.84,4H438.2c7.24,0,14-2.26,20.25-5.38,6-3,37-14.36,37-55,0-56.87-65.69-63.41-65.69-63.41s-1.47-27.71-29.26-46.66C370.52,61,337,74.85,337,74.85Z" transform="translate(-70.86 -20.42)"/>
    <path id="nube_2_GR-SC" class="cls-6" d="M188.51,197.47S203.46,222,238.08,221.4c36.62-.68,53.75-26.92,53.75-26.92s6.47,28.67,47.78,29.31c34,.53,41.8-23.33,41.8-23.33s8.69,39.09,60.32,35.89c13.4-.83,45.66-13.35,46-44.59.61-58.87-66.29-55.9-66.29-55.9s0-20.34-18.51-40.08c-27.33-29.14-71.66-9.57-71.66-9.57s-21.31-41.8-84.31-40c-76.21,2.14-87.09,83.7-87.09,83.7s-65.37-2.43-62.71,55.49c1.79,39,32.73,42.61,52.55,42.61C177,228,188.51,197.47,188.51,197.47Z" transform="translate(-70.86 -20.42)"/>
    <path id="nube_1_up_GR-SC" class="cls-7" d="M190.9,217.54s19.14,19.07,52,18.46c34.79-.64,47.89-18.85,47.89-18.85S305,237,342.59,237c32.48,0,46-19.74,46-19.74s7.17,20.34,43.6,19.74c35.83-.59,47.18-17.95,47.18-37.09,0-45.63-63.9-38.28-63.9-38.28s2.84-31.86-19.11-50.84c-26.28-22.73-65.69-6-65.69-6s-21.35-37.68-81.22-37.68c-75.84,0-87.79,84.94-87.79,84.94s-59.12-12.59-59.12,39.48c0,32.9,27.75,41.87,46.58,41.87A62.8,62.8,0,0,0,190.9,217.54Z" transform="translate(-70.86 -20.42)"/>
  </g>
  <g id="nube_piccola_extrascura">
    <path id="nube_5_down_PI-EXSC" class="cls-8" d="M459.14,232.62H640c11.27,0,26.91-3.13,29.42-3.76,0,0,45.69-18.15,41.31-77C706.6,96.27,650,94.3,650,94.3s-16.93-59.46-94.51-59.46c-63.46,0-77,38.8-77,38.8s-64.79-3.38-78.86,57.58c-11.27,48.82,11.52,82,28.16,92C440.36,230.74,454.22,232.62,459.14,232.62Z" transform="translate(-70.86 -20.42)"/>
    <path id="nube_4_PI-EXSC" class="cls-9" d="M464.39,220.1H637.24c10.77,0,25.72-2.57,28.11-3.09,0,0,38.94-11.72,34.75-60.12-4-45.76-67.59-40.06-67.59-40.06s-2.85-46.94-77-46.94c-60.64,0-68.85,33.8-68.85,33.8S430,92.94,410.95,141.24c-9.39,23.78,1.88,55.7,23.53,71.13C445.45,220.19,459.68,220.1,464.39,220.1Z" transform="translate(-70.86 -20.42)"/>
    <path id="nube_3_PI-EXSC" class="cls-10" d="M470.28,211.34H636.65c10.36,0,24.75-2.57,27.06-3.09,0,0,42-14.93,38-63.34-3.81-45.76-58.56-44.35-58.56-44.35s-12.86-51.95-84.21-51.95c-58.37,0-70.38,33.17-70.38,33.17s-69.46,1-78.86,51.95c-7.51,40.68,16.49,61.67,31.8,69.88A68.92,68.92,0,0,0,470.28,211.34Z" transform="translate(-70.86 -20.42)"/>
    <path id="nube_2_PI-EXSC" class="cls-11" d="M561.78,160.64s22.47,35.67,73.23,35.67c30,0,53.82-10,53.82-38.18,0-50.7-51.95-45.69-51.95-45.69S624.17,57.82,563,57.37c-57.9-.43-74.69,39.57-74.69,39.57s-69.26-9.53-69.26,51.81c0,15,11.27,46.31,50.7,47.57C516.65,197.8,561.78,160.64,561.78,160.64Z" transform="translate(-70.86 -20.42)"/>
    <path id="nube_1_up_PI-EXSC" class="cls-12" d="M554.27,166.9s31.9,33.17,78.23,33.17c8.76,0,53.2-3.12,53.2-35.67,0-38.18-55.7-35.67-55.7-35.67S618,79.2,562.41,74.27c-47.24-4.18-68.83,38.59-68.83,38.59s-68.86-9.8-68.86,38.39c0,41.93,34.42,48.82,63,48.6C530.49,199.54,554.27,166.9,554.27,166.9Z" transform="translate(-70.86 -20.42)"/>
  </g>
</svg>
