<?xml version="1.0" encoding="iso-8859-1"?>
<!-- Generator: Adobe Illustrator 18.1.0, SVG Export Plug-In . SVG Version: 6.00 Build 0)  -->
<svg version="1.1" id="MOLTO_x5F_NUVOLOSO" xmlns="http://www.w3.org/2000/svg" xmlns:xlink="http://www.w3.org/1999/xlink" x="0px"
	 y="0px" viewBox="0 0 750 600" style="enable-background:new 0 0 750 600;" xml:space="preserve">
<g id="nube_x5F_grande_x5F_grigia_x5F_DX">
	
		<linearGradient id="nube_x5F_5_x5F_down_x1F__x5F_GRA-GRI_2_" gradientUnits="userSpaceOnUse" x1="437.0368" y1="385.4577" x2="437.0368" y2="80.4076">
		<stop  offset="0" style="stop-color:#5E5F61"/>
		<stop  offset="0.3555" style="stop-color:#CFD0D2"/>
		<stop  offset="0.6505" style="stop-color:#D8D0D4"/>
		<stop  offset="1" style="stop-color:#F1F1F2"/>
	</linearGradient>
	
		<path id="nube_x5F_5_x5F_down_x1F__x5F_GRA-GRI_1_" style="fill-rule:evenodd;clip-rule:evenodd;fill:url(#nube_x5F_5_x5F_down_x1F__x5F_GRA-GRI_2_);" d="
		M494.098,126.585c0,0-28.564-46.177-93.818-46.177c-128.449,0-141.972,109.504-141.972,109.504s-79.219,8.943-79.27,92.009
		c-0.035,56.686,29.505,81.672,49.009,93.042c8.402,4.898,16.542,10.495,50.41,10.495c7.702,0,263.251,0,310.86,0
		c46.209,0,55.352-8.958,63.012-13.993c17.553-11.538,42.709-37.012,42.708-91.584c-0.001-82.888-87.875-91.174-87.875-91.174
		s-0.199-29.912-35.349-53.726C532.884,108.607,494.098,126.585,494.098,126.585z"/>
	
		<linearGradient id="nube_x5F_4_x1F__x5F_GRA-GRI_2_" gradientUnits="userSpaceOnUse" x1="437.2161" y1="370.7889" x2="437.2161" y2="107.382">
		<stop  offset="0" style="stop-color:#989A9D"/>
		<stop  offset="0.2491" style="stop-color:#E3EFF5"/>
	</linearGradient>
	
		<path id="nube_x5F_4_x1F__x5F_GRA-GRI_1_" style="fill-rule:evenodd;clip-rule:evenodd;fill:url(#nube_x5F_4_x1F__x5F_GRA-GRI_2_);" d="
		M486.396,148.974c0,0-44.102-60.504-132.799-35.563c-79.758,22.429-76.541,88.736-76.541,88.736s-78.083,8.707-80.435,81.519
		c-2.181,67.508,39.127,78.702,44.728,81.501c6.977,3.486,14.003,5.597,30.754,5.621l336.117-0.024c9.102,0,9.102,0,18.204-2.799
		c9.651-2.968,56.011-23.089,51.11-76.263c-6.672-72.387-81.916-79.061-81.916-79.061s4.186-31.759-29.406-55.972
		C529.962,130.542,486.396,148.974,486.396,148.974z"/>
	
		<linearGradient id="nube_x5F_3_x5F_GRA-GRI_2_" gradientUnits="userSpaceOnUse" x1="437.0346" y1="351.1745" x2="437.0346" y2="90.2684">
		<stop  offset="0" style="stop-color:#7A7C7F"/>
		<stop  offset="0.0711" style="stop-color:#818285"/>
		<stop  offset="0.1718" style="stop-color:#939295"/>
		<stop  offset="0.2896" style="stop-color:#B1ACAF"/>
		<stop  offset="0.3691" style="stop-color:#CAC2C5"/>
		<stop  offset="0.71" style="stop-color:#B1ADAE"/>
		<stop  offset="0.8042" style="stop-color:#ABAAAC"/>
		<stop  offset="1" style="stop-color:#A4A7A9"/>
	</linearGradient>
	<path id="nube_x5F_3_x5F_GRA-GRI_1_" style="fill-rule:evenodd;clip-rule:evenodd;fill:url(#nube_x5F_3_x5F_GRA-GRI_2_);" d="
		M491.067,144.076c0,0-44.266-72.169-130.305-49.347c-77.367,20.523-85.855,103.22-85.855,103.22s-78.641,6.811-77.667,73.464
		c0.676,46.282,37.37,67.412,55.336,75.108c6.883,2.948,14.405,4.653,22.085,4.653h335.023c8.482,0,16.422-2.64,23.74-6.297
		c7.001-3.498,42.998-16.794,43.408-64.368c0.698-80.818-77.015-74.164-77.015-74.164s0.262-36.979-32.323-59.135
		C532.332,123.302,491.067,144.076,491.067,144.076z"/>
	
		<linearGradient id="nube_x5F_2_x5F_GRA-GRI_2_" gradientUnits="userSpaceOnUse" x1="438.7432" y1="331.1023" x2="438.7432" y2="108.3828">
		<stop  offset="0.25" style="stop-color:#DFD8D9"/>
		<stop  offset="0.3297" style="stop-color:#EAE6E6"/>
		<stop  offset="0.4469" style="stop-color:#F4F2F2"/>
		<stop  offset="0.607" style="stop-color:#F9F9F9"/>
		<stop  offset="1" style="stop-color:#FBFBFB"/>
	</linearGradient>
	<path id="nube_x5F_2_x5F_GRA-GRI_1_" style="fill-rule:evenodd;clip-rule:evenodd;fill:url(#nube_x5F_2_x5F_GRA-GRI_2_);" d="
		M316.964,287.506c0,0,17.521,28.735,58.111,27.986c42.929-0.792,63.012-31.485,63.012-31.485s7.587,33.535,56.011,34.283
		c39.874,0.616,49.009-27.287,49.009-27.287s10.184,45.722,70.714,41.979c15.712-0.971,53.532-15.612,53.91-52.153
		c0.712-68.863-77.715-65.389-77.715-65.389s0-23.788-21.704-46.877c-32.036-34.079-84.016-11.195-84.016-11.195
		s-24.987-48.893-98.839-46.824c-89.349,2.5-102.099,97.899-102.099,97.899s-76.632-2.848-73.514,64.9
		c2.1,45.645,38.367,49.843,61.612,49.843C303.5,323.188,316.964,287.506,316.964,287.506z"/>
	
		<linearGradient id="nube_x5F_1_x5F_up_x5F_GRA-GRI_2_" gradientUnits="userSpaceOnUse" x1="437.0368" y1="334.0476" x2="437.0368" y2="135.6791">
		<stop  offset="0.0128" style="stop-color:#A2A9AE"/>
		<stop  offset="0.021" style="stop-color:#A3AAAF"/>
		<stop  offset="0.2091" style="stop-color:#B9BEC2"/>
		<stop  offset="0.4157" style="stop-color:#C8CCCF"/>
		<stop  offset="0.655" style="stop-color:#D1D4D7"/>
		<stop  offset="1" style="stop-color:#D4D7D9"/>
	</linearGradient>
	
		<path id="nube_x5F_1_x5F_up_x5F_GRA-GRI_1_" style="fill-rule:evenodd;clip-rule:evenodd;fill:url(#nube_x5F_1_x5F_up_x5F_GRA-GRI_2_);" d="
		M319.761,310.978c0,0,22.443,22.306,61.002,21.595c40.781-0.752,56.147-22.043,56.147-22.043s16.579,23.153,60.687,23.153
		c38.078,0,53.91-23.089,53.91-23.089s8.402,23.788,51.11,23.089c42.008-0.688,55.311-20.99,55.311-43.379
		c0-53.377-74.914-44.778-74.914-44.778s3.326-37.265-22.404-59.471c-30.806-26.587-77.015-6.997-77.015-6.997
		s-25.034-44.078-95.218-44.078c-88.917,0-102.92,99.351-102.92,99.351s-69.313-14.729-69.313,46.177
		c0,38.481,32.529,48.976,54.611,48.976C301.196,329.485,319.761,310.978,319.761,310.978z"/>
</g>
<g id="nube_x5F_grande_x5F_grigia_x5F_SX">
	
		<linearGradient id="nube_x5F_5_x5F_down_x1F__x5F_GRA-GRI_3_" gradientUnits="userSpaceOnUse" x1="304.4632" y1="519.5924" x2="304.4632" y2="224.5924">
		<stop  offset="0" style="stop-color:#5E5F61"/>
		<stop  offset="0.3555" style="stop-color:#CFD0D2"/>
		<stop  offset="0.6505" style="stop-color:#D8D0D4"/>
		<stop  offset="1" style="stop-color:#F1F1F2"/>
	</linearGradient>
	
		<path id="nube_x5F_5_x5F_down_x1F__x5F_GRA-GRI" style="fill-rule:evenodd;clip-rule:evenodd;fill:url(#nube_x5F_5_x5F_down_x1F__x5F_GRA-GRI_3_);" d="
		M359.644,269.248c0,0-27.623-44.656-90.727-44.656c-124.217,0-137.295,105.896-137.295,105.896s-76.609,8.649-76.659,88.978
		c-0.034,54.818,28.533,78.982,47.395,89.977c8.125,4.736,15.997,10.149,48.749,10.149c7.448,0,254.578,0,300.619,0
		c44.687,0,53.528-8.663,60.936-13.532c16.975-11.158,41.302-35.792,41.301-88.567c-0.001-80.157-84.98-88.17-84.98-88.17
		s-0.193-28.927-34.185-51.956C397.153,251.863,359.644,269.248,359.644,269.248z"/>
	
		<linearGradient id="nube_x5F_4_x1F__x5F_GRA-GRI_3_" gradientUnits="userSpaceOnUse" x1="304.6367" y1="505.4069" x2="304.6367" y2="250.6782">
		<stop  offset="0" style="stop-color:#989A9D"/>
		<stop  offset="0.2491" style="stop-color:#E3EFF5"/>
	</linearGradient>
	
		<path id="nube_x5F_4_x1F__x5F_GRA-GRI" style="fill-rule:evenodd;clip-rule:evenodd;fill:url(#nube_x5F_4_x1F__x5F_GRA-GRI_3_);" d="
		M352.197,290.9c0,0-42.649-58.511-128.424-34.391c-77.13,21.69-74.02,85.813-74.02,85.813s-75.511,8.42-77.785,78.833
		c-2.109,65.284,37.838,76.109,43.255,78.816c6.747,3.371,13.541,5.413,29.741,5.436l325.044-0.023c8.802,0,8.802,0,17.604-2.706
		c9.333-2.87,54.166-22.328,49.426-73.75c-6.452-70.003-79.217-76.456-79.217-76.456s4.048-30.713-28.437-54.128
		C394.327,273.075,352.197,290.9,352.197,290.9z"/>
	
		<linearGradient id="nube_x5F_3_x5F_GRA-GRI_3_" gradientUnits="userSpaceOnUse" x1="304.4612" y1="486.4388" x2="304.4612" y2="234.1283">
		<stop  offset="0" style="stop-color:#7A7C7F"/>
		<stop  offset="0.0711" style="stop-color:#818285"/>
		<stop  offset="0.1718" style="stop-color:#939295"/>
		<stop  offset="0.2896" style="stop-color:#B1ACAF"/>
		<stop  offset="0.3691" style="stop-color:#CAC2C5"/>
		<stop  offset="0.71" style="stop-color:#B1ADAE"/>
		<stop  offset="0.8042" style="stop-color:#ABAAAC"/>
		<stop  offset="1" style="stop-color:#A4A7A9"/>
	</linearGradient>
	<path id="nube_x5F_3_x5F_GRA-GRI" style="fill-rule:evenodd;clip-rule:evenodd;fill:url(#nube_x5F_3_x5F_GRA-GRI_3_);" d="
		M356.714,286.164c0,0-42.808-69.792-126.012-47.721c-74.818,19.847-83.026,99.82-83.026,99.82s-76.05,6.586-75.108,71.044
		c0.654,44.757,36.139,65.191,53.513,72.633c6.656,2.851,13.93,4.5,21.357,4.5h323.986c8.203,0,15.881-2.553,22.958-6.089
		c6.771-3.383,41.581-16.24,41.978-62.248c0.675-78.155-74.478-71.72-74.478-71.72s0.253-35.761-31.258-57.187
		C396.619,266.074,356.714,286.164,356.714,286.164z"/>
	
		<linearGradient id="nube_x5F_2_x5F_GRA-GRI_3_" gradientUnits="userSpaceOnUse" x1="306.1134" y1="467.0278" x2="306.1134" y2="251.6459">
		<stop  offset="0.25" style="stop-color:#DFD8D9"/>
		<stop  offset="0.3297" style="stop-color:#EAE6E6"/>
		<stop  offset="0.4469" style="stop-color:#F4F2F2"/>
		<stop  offset="0.607" style="stop-color:#F9F9F9"/>
		<stop  offset="1" style="stop-color:#FBFBFB"/>
	</linearGradient>
	<path id="nube_x5F_2_x5F_GRA-GRI" style="fill-rule:evenodd;clip-rule:evenodd;fill:url(#nube_x5F_2_x5F_GRA-GRI_3_);" d="
		M188.346,424.868c0,0,16.944,27.788,56.197,27.064c41.515-0.766,60.936-30.447,60.936-30.447s7.337,32.43,54.166,33.154
		c38.56,0.596,47.395-26.388,47.395-26.388s9.849,44.216,68.384,40.596c15.195-0.939,51.769-15.098,52.134-50.435
		c0.689-66.594-75.155-63.235-75.155-63.235s0-23.005-20.989-45.333c-30.98-32.956-81.248-10.826-81.248-10.826
		s-24.164-47.282-95.583-45.282c-86.405,2.418-98.736,94.674-98.736,94.674s-74.107-2.754-71.092,62.762
		c2.031,44.141,37.103,48.201,59.582,48.201C175.326,459.375,188.346,424.868,188.346,424.868z"/>
	
		<linearGradient id="nube_x5F_1_x5F_up_x5F_GRA-GRI_3_" gradientUnits="userSpaceOnUse" x1="304.4633" y1="469.876" x2="304.4633" y2="278.0429">
		<stop  offset="0.0128" style="stop-color:#A2A9AE"/>
		<stop  offset="0.021" style="stop-color:#A3AAAF"/>
		<stop  offset="0.2091" style="stop-color:#B9BEC2"/>
		<stop  offset="0.4157" style="stop-color:#C8CCCF"/>
		<stop  offset="0.655" style="stop-color:#D1D4D7"/>
		<stop  offset="1" style="stop-color:#D4D7D9"/>
	</linearGradient>
	
		<path id="nube_x5F_1_x5F_up_x5F_GRA-GRI" style="fill-rule:evenodd;clip-rule:evenodd;fill:url(#nube_x5F_1_x5F_up_x5F_GRA-GRI_3_);" d="
		M191.052,447.567c0,0,21.704,21.571,58.992,20.883c39.437-0.727,54.298-21.316,54.298-21.316s16.033,22.39,58.688,22.39
		c36.823,0,52.134-22.328,52.134-22.328s8.125,23.005,49.426,22.328c40.624-0.665,53.488-20.298,53.488-41.95
		c0-51.618-72.446-43.303-72.446-43.303s3.216-36.037-21.666-57.511c-29.791-25.711-74.478-6.766-74.478-6.766
		s-24.21-42.626-92.081-42.626c-85.988,0-99.529,96.078-99.529,96.078s-67.03-14.244-67.03,44.656
		c0,37.213,31.457,47.362,52.811,47.362C173.098,465.464,191.052,447.567,191.052,447.567z"/>
</g>
</svg>
