<?xml version="1.0" encoding="iso-8859-1"?>
<!-- Generator: Adobe Illustrator 18.1.0, SVG Export Plug-In . SVG Version: 6.00 Build 0)  -->
<svg version="1.1" id="VENTO_E_PIOGGIA" xmlns="http://www.w3.org/2000/svg" xmlns:xlink="http://www.w3.org/1999/xlink" x="0px"
	 y="0px" viewBox="0 0 750 600" style="enable-background:new 0 0 750 600;" xml:space="preserve">
<g id="manica_x5F_completa_3_">
	<g id="manica_3_">
		
			<linearGradient id="anello6_x5F_white_1_" gradientUnits="userSpaceOnUse" x1="448.5503" y1="224.7482" x2="446.9414" y2="316.9186" gradientTransform="matrix(1 0 0 1 202.3198 -79.9756)">
			<stop  offset="0" style="stop-color:#FFFFFF"/>
			<stop  offset="0.3268" style="stop-color:#CFD0D1"/>
			<stop  offset="0.7859" style="stop-color:#949699"/>
			<stop  offset="1" style="stop-color:#808184"/>
		</linearGradient>
		<path id="anello6_x5F_white_3_" style="fill:url(#anello6_x5F_white_1_);" d="M682.715,102.906
			c6.783,0,12.285,14.547,12.285,32.478c0,17.931-5.504,32.478-12.285,32.478l-72.966,24.586c5.828-3.764,10.27-23.694,10.27-47.685
			c0-26.7-5.504-48.346-12.285-48.346l0.078-0.826L682.715,102.906z"/>
		
			<linearGradient id="anello5_x5F_red_1_" gradientUnits="userSpaceOnUse" x1="374.9181" y1="234.5258" x2="374.9181" y2="324.9096" gradientTransform="matrix(1 0 0 1 202.3198 -79.9756)">
			<stop  offset="0" style="stop-color:#E22527"/>
			<stop  offset="0.1137" style="stop-color:#D22327"/>
			<stop  offset="0.7185" style="stop-color:#89191B"/>
			<stop  offset="1" style="stop-color:#711212"/>
		</linearGradient>
		<path id="anello5_x5F_red_3_" style="fill:url(#anello5_x5F_red_1_);" d="M607.796,193.108l-72.854,24.536
			c6.332-5.779,13.396-32.412,13.396-64.394c0-32.807-7.442-59.969-13.882-64.807l73.356,7.15l-0.078,0.826
			c6.783,0,12.285,21.646,12.285,48.346c0,23.991-4.442,43.92-10.27,47.685L607.796,193.108z"/>
		
			<linearGradient id="anello4_x5F_white_1_" gradientUnits="userSpaceOnUse" x1="299.8274" y1="242.9453" x2="298.1532" y2="338.8629" gradientTransform="matrix(1 0 0 1 202.3198 -79.9756)">
			<stop  offset="0" style="stop-color:#FFFFFF"/>
			<stop  offset="0.3268" style="stop-color:#CFD0D1"/>
			<stop  offset="0.7859" style="stop-color:#949699"/>
			<stop  offset="1" style="stop-color:#808184"/>
		</linearGradient>
		<path id="anello4_x5F_white_3_" style="fill:url(#anello4_x5F_white_1_);" d="M534.456,88.442c6.44,4.838,13.882,32,13.882,64.807
			c0,31.983-7.067,58.615-13.396,64.394l-76.591,25.808c6.252-3.847,11.145-38.687,11.145-81.104
			c0-44.267-5.327-80.312-11.97-81.418l76.919,7.496L534.456,88.442z"/>
		
			<linearGradient id="anello3_x5F_red_1_" gradientUnits="userSpaceOnUse" x1="223.1286" y1="265.889" x2="223.1286" y2="358.9451" gradientTransform="matrix(1 0 0 1 202.3198 -79.9756)">
			<stop  offset="0" style="stop-color:#E22527"/>
			<stop  offset="0.1137" style="stop-color:#D22327"/>
			<stop  offset="0.7185" style="stop-color:#89191B"/>
			<stop  offset="1" style="stop-color:#711212"/>
		</linearGradient>
		<path id="anello3_x5F_red_3_" style="fill:url(#anello3_x5F_red_1_);" d="M457.366,243.781l-75.465,25.427l-0.498-1.651
			c6.987-2.179,20.006-37.728,20.006-89.789c0-50.475-12.237-98.523-19.349-104.203l75.151,7.331c0.108,0,0.22,0.016,0.313,0.033
			c6.643,1.106,11.97,37.151,11.97,81.418c0,42.418-4.892,77.257-11.144,81.104L457.366,243.781z"/>
		
			<linearGradient id="anello2_x5F_white_1_" gradientUnits="userSpaceOnUse" x1="147.5611" y1="264.8893" x2="147.5611" y2="373.7497" gradientTransform="matrix(1 0 0 1 202.3198 -79.9756)">
			<stop  offset="0" style="stop-color:#FFFFFF"/>
			<stop  offset="0.3268" style="stop-color:#CFD0D1"/>
			<stop  offset="0.7859" style="stop-color:#949699"/>
			<stop  offset="1" style="stop-color:#808184"/>
		</linearGradient>
		<path id="anello2_x5F_white_3_" style="fill:url(#anello2_x5F_white_1_);" d="M381.401,267.557l0.498,1.651l-83.234,28.037
			l-0.313-1.057c8.349-2.889,23.339-50.162,23.339-112.096c0-59.904-14.023-112.262-22.495-118.618l82.861,8.09
			c7.112,5.68,19.351,53.728,19.351,104.203C401.409,229.829,388.388,265.378,381.401,267.557z"/>
		
			<linearGradient id="anello1_x5F_red_1_" gradientUnits="userSpaceOnUse" x1="74.7227" y1="276.3492" x2="74.7227" y2="370.6792" gradientTransform="matrix(1 0 0 1 202.3198 -79.9756)">
			<stop  offset="0" style="stop-color:#E22527"/>
			<stop  offset="0.1137" style="stop-color:#D22327"/>
			<stop  offset="0.7185" style="stop-color:#89191B"/>
			<stop  offset="1" style="stop-color:#711212"/>
		</linearGradient>
		<path id="anello1_x5F_red_3_" style="fill:url(#anello1_x5F_red_1_);" d="M298.355,296.189l0.313,1.057l-64.305,21.662
			c11.332-7.496,20.117-62.66,20.117-129.564c0-70.785-9.832-128.376-22.086-130.391l66.804,6.522
			c8.473,6.356,22.495,58.714,22.495,118.618C321.692,246.026,306.702,293.299,298.355,296.189z"/>
		<path id="buco_3_" style="fill:#88181C;" d="M209.275,167.862c1.782-61.835,11.161-108.975,22.444-108.975l0.674,0.066
			c12.254,2.015,22.086,59.606,22.086,130.391c0,66.904-8.785,122.068-20.117,129.564l-2.641,0.892
			c-12.567,0-22.759-58.417-22.759-130.456L209.275,167.862z"/>
		<path id="anello_x5F_aggancio_3_" d="M232.361,323.686h-0.641c-5.452,0-13.449-4.295-19.928-41.433
			c-4.336-24.856-6.724-57.852-6.724-92.91l0.313-21.538c0.876-30.39,3.623-58.211,7.737-78.394
			C219.406,58.567,226.745,55,231.719,55l0.383,0.019l0.925,0.099c2.955,0.486,11.946,1.964,18.844,42.592
			c4.194,24.696,6.503,57.239,6.503,91.634c0,56.998-6.841,122.869-21.86,132.804l-0.423,0.28L232.361,323.686z M231.626,62.782
			c-1.272,0.249-6.228,5.376-10.876,28.179c-4.028,19.759-6.721,47.11-7.582,77.013l-0.312,21.426
			c0,34.568,2.348,67.091,6.609,91.52c4.705,26.966,10.114,34.02,11.906,34.895l1.163-0.393c1.732-1.469,7.422-8.512,12.289-39.618
			c3.716-23.75,5.762-54.456,5.762-86.461c0-33.973-2.27-66.054-6.393-90.335c-4.832-28.459-10.482-35.734-12.358-36.206
			L231.626,62.782z"/>
	</g>
	<path id="cordino_3_" d="M228.397,323.383c-1.411,0-2.81-0.609-3.772-1.785L114.074,186.542L224.064,57.821
		c1.745-2.041,4.817-2.286,6.862-0.545c2.046,1.741,2.29,4.807,0.546,6.848L126.754,186.675l105.41,128.777
		c1.701,2.078,1.392,5.138-0.69,6.835C230.569,323.025,229.48,323.383,228.397,323.383z"/>
	<path id="gancio_3_" d="M126.448,187.27c0,5.478-6.229,9.919-13.913,9.919s-21.148-9.919-21.148-9.919s13.464-9.919,21.148-9.919
		S126.448,181.792,126.448,187.27z"/>
	<path id="ombra2_x5F_attacco_3_" d="M93.595,198.18H61.354c-3.299,0-5.997-2.699-5.997-5.997v-5.528
		c0-3.299,2.699-5.997,5.997-5.997h32.241c3.299,0,5.997,2.699,5.997,5.997v5.528C99.593,195.481,96.894,198.18,93.595,198.18z"/>
	<linearGradient id="palo_1_" gradientUnits="userSpaceOnUse" x1="62.4636" y1="335.0565" x2="91.3876" y2="335.0565">
		<stop  offset="0" style="stop-color:#FFFFFF"/>
		<stop  offset="0.2983" style="stop-color:#9B9B9B"/>
		<stop  offset="0.4649" style="stop-color:#676767"/>
		<stop  offset="0.5156" style="stop-color:#585858"/>
		<stop  offset="0.6129" style="stop-color:#313131"/>
		<stop  offset="0.7191" style="stop-color:#000000"/>
		<stop  offset="1" style="stop-color:#4D4E4E"/>
	</linearGradient>
	<path id="palo_3_" style="fill:url(#palo_1_);" d="M84.256,545h-14.66c-3.923,0-7.132-3.209-7.132-7.132V132.245
		c0-3.923,3.209-7.132,7.132-7.132h14.66c3.923,0,7.132,3.209,7.132,7.132v405.623C91.388,541.791,88.178,545,84.256,545z"/>
	<rect id="ombra1_x5F_attacco_3_" x="62.464" y="189.303" width="28.924" height="7.505"/>
	<linearGradient id="attacco_1_" gradientUnits="userSpaceOnUse" x1="55" y1="184.5419" x2="99.5926" y2="184.5419">
		<stop  offset="0" style="stop-color:#FFFFFF"/>
		<stop  offset="0.0179" style="stop-color:#EEEEEE"/>
		<stop  offset="0.0671" style="stop-color:#C5C5C5"/>
		<stop  offset="0.1176" style="stop-color:#A3A3A3"/>
		<stop  offset="0.1687" style="stop-color:#898989"/>
		<stop  offset="0.221" style="stop-color:#767676"/>
		<stop  offset="0.2749" style="stop-color:#6B6B6B"/>
		<stop  offset="0.3332" style="stop-color:#676767"/>
		<stop  offset="0.4102" style="stop-color:#585858"/>
		<stop  offset="0.5578" style="stop-color:#313131"/>
		<stop  offset="0.7191" style="stop-color:#000000"/>
		<stop  offset="1" style="stop-color:#4D4E4E"/>
	</linearGradient>
	<path id="attacco_3_" style="fill:url(#attacco_1_);" d="M92.94,173.383H61.653c-3.659,0-6.653,2.752-6.653,6.116v12.233
		c0,1.512,0.608,2.897,1.606,3.967c1.223-1.312,3.032-2.149,5.047-2.149H92.94c2.015,0,3.824,0.837,5.047,2.149
		c0.998-1.07,1.606-2.456,1.606-3.967V179.5C99.593,176.136,96.599,173.383,92.94,173.383z"/>
</g>
<g id="goccia_x5F_flat_x5F_giuDX">
	<path id="goccia_x5F_scura_x5F_down_x5F_DX_15_" style="fill:#626B6E;" d="M563.266,367.013c0,0,7.198,108.198-4.399,134.813
		c-9.37,21.505-32.539,35.369-62.577,29.051c-20.878-4.391-59.601-32.045-44.484-72.826
		C467.276,416.316,563.266,367.013,563.266,367.013z"/>
	<path id="goccia_x5F_intermedia_x5F_DX_15_" style="fill:#949FA2;" d="M558.395,374.88c0,0,6.061,88.346-3.705,110.077
		c-7.891,17.559-27.403,28.885-52.696,23.721c-26.713-5.454-50.19-26.165-37.46-59.464
		C477.561,415.137,558.395,374.88,558.395,374.88z"/>
	<path id="goccia_x5F_luce_x5F_up_x5F_DX_15_" style="fill:#FFFFFF;" d="M543.146,389.847c0,0-8.684,51.514-14.841,65.177
		c-8.993,19.956-19.906,24.77-36.874,22.324c-11.794-1.7-25.263-12.236-17.723-33.275
		C481.426,422.541,543.146,389.847,543.146,389.847z"/>
</g>
<g id="goccia_x5F_flat_x5F_SX_5_">
	<path id="goccia_x5F_scura_x5F_down_x5F_SX_1_" style="fill:#626B6E;" d="M339.334,351.3c0,0,7.198,108.198-4.399,134.813
		c-9.37,21.505-32.539,35.369-62.577,29.051c-20.878-4.391-59.601-32.045-44.484-72.826
		C243.344,400.603,339.334,351.3,339.334,351.3z"/>
	<path id="goccia_x5F_intermedia_x5F_SX_1_" style="fill:#949FA2;" d="M334.464,359.167c0,0,6.061,88.346-3.705,110.077
		c-7.891,17.559-27.403,28.885-52.696,23.721c-26.713-5.454-50.19-26.165-37.46-59.464
		C253.63,399.424,334.464,359.167,334.464,359.167z"/>
	<path id="goccia_x5F_luce_x5F_up_x5F_SX_1_" style="fill:#FFFFFF;" d="M319.215,374.134c0,0-8.684,51.514-14.841,65.177
		c-8.993,19.956-19.906,24.77-36.874,22.324c-11.794-1.7-25.263-12.236-17.723-33.275
		C257.495,406.828,319.215,374.134,319.215,374.134z"/>
</g>
<g id="goccia_x5F_flat_x5F_suMID">
	<path id="goccia_x5F_scura_x5F_down_x5F_MID" style="fill:#626B6E;" d="M470.087,279.575c0,0,5.863,88.137-3.583,109.817
		c-7.633,17.518-26.506,28.811-50.975,23.665c-17.007-3.577-48.55-26.103-36.236-59.323
		C391.895,319.736,470.087,279.575,470.087,279.575z"/>
	<path id="goccia_x5F_intermedia_x5F_MID" style="fill:#949FA2;" d="M466.12,285.983c0,0,4.937,71.966-3.018,89.668
		c-6.428,14.304-22.322,23.529-42.926,19.323c-21.76-4.443-40.884-21.314-30.515-48.438
		C400.274,318.776,466.12,285.983,466.12,285.983z"/>
	<path id="goccia_x5F_luce_x5F_up_x5F_MID" style="fill:#FFFFFF;" d="M453.698,298.175c0,0-7.074,41.963-12.089,53.092
		c-7.326,16.256-16.215,20.177-30.037,18.185c-9.607-1.385-20.579-9.967-14.437-27.106
		C403.421,324.807,453.698,298.175,453.698,298.175z"/>
</g>
<g id="goccia_x5F_flat_x5F_suDX">
	<path id="goccia_x5F_scura_x5F_down_x5F_DX_7_" style="fill:#626B6E;" d="M660.148,229.363c0,0,5.863,88.137-3.583,109.817
		c-7.633,17.518-26.506,28.811-50.975,23.665c-17.007-3.577-48.55-26.103-36.236-59.323
		C581.955,269.524,660.148,229.363,660.148,229.363z"/>
	<path id="goccia_x5F_intermedia_x5F_DX_7_" style="fill:#949FA2;" d="M656.18,235.771c0,0,4.937,71.965-3.018,89.668
		c-6.428,14.304-22.322,23.529-42.926,19.323c-21.76-4.443-40.884-21.314-30.515-48.438
		C590.334,268.564,656.18,235.771,656.18,235.771z"/>
	<path id="goccia_x5F_luce_x5F_up_x5F_DX_7_" style="fill:#FFFFFF;" d="M643.759,247.963c0,0-7.074,41.963-12.089,53.092
		c-7.326,16.256-16.215,20.177-30.037,18.185c-9.607-1.385-20.579-9.967-14.437-27.106
		C593.482,274.595,643.759,247.963,643.759,247.963z"/>
</g>
</svg>
