<?xml version="1.0" encoding="iso-8859-1"?>
<!-- Generator: Adobe Illustrator 18.1.0, SVG Export Plug-In . SVG Version: 6.00 Build 0)  -->
<svg version="1.1" id="VENTO_E_NEVE" xmlns="http://www.w3.org/2000/svg" xmlns:xlink="http://www.w3.org/1999/xlink" x="0px"
	 y="0px" viewBox="0 0 750 600" style="enable-background:new 0 0 750 600;" xml:space="preserve">
<g id="manica_x5F_completa_4_">
	<g id="manica_4_">
		
			<linearGradient id="anello6_x5F_white_1_" gradientUnits="userSpaceOnUse" x1="448.5503" y1="224.7482" x2="446.9414" y2="316.9186" gradientTransform="matrix(1 0 0 1 202.3198 -79.9756)">
			<stop  offset="0" style="stop-color:#FFFFFF"/>
			<stop  offset="0.3268" style="stop-color:#CFD0D1"/>
			<stop  offset="0.7859" style="stop-color:#949699"/>
			<stop  offset="1" style="stop-color:#808184"/>
		</linearGradient>
		<path id="anello6_x5F_white_4_" style="fill:url(#anello6_x5F_white_1_);" d="M682.715,102.906
			c6.783,0,12.285,14.547,12.285,32.478c0,17.931-5.504,32.478-12.285,32.478l-72.966,24.586c5.828-3.764,10.27-23.694,10.27-47.685
			c0-26.7-5.504-48.346-12.285-48.346l0.078-0.826L682.715,102.906z"/>
		
			<linearGradient id="anello5_x5F_red_1_" gradientUnits="userSpaceOnUse" x1="374.9181" y1="234.5258" x2="374.9181" y2="324.9096" gradientTransform="matrix(1 0 0 1 202.3198 -79.9756)">
			<stop  offset="0" style="stop-color:#E22527"/>
			<stop  offset="0.1137" style="stop-color:#D22327"/>
			<stop  offset="0.7185" style="stop-color:#89191B"/>
			<stop  offset="1" style="stop-color:#711212"/>
		</linearGradient>
		<path id="anello5_x5F_red_4_" style="fill:url(#anello5_x5F_red_1_);" d="M607.796,193.108l-72.854,24.536
			c6.332-5.779,13.396-32.412,13.396-64.394c0-32.807-7.442-59.969-13.882-64.807l73.356,7.15l-0.078,0.826
			c6.783,0,12.285,21.646,12.285,48.346c0,23.991-4.442,43.92-10.27,47.685L607.796,193.108z"/>
		
			<linearGradient id="anello4_x5F_white_1_" gradientUnits="userSpaceOnUse" x1="299.8274" y1="242.9453" x2="298.1532" y2="338.8629" gradientTransform="matrix(1 0 0 1 202.3198 -79.9756)">
			<stop  offset="0" style="stop-color:#FFFFFF"/>
			<stop  offset="0.3268" style="stop-color:#CFD0D1"/>
			<stop  offset="0.7859" style="stop-color:#949699"/>
			<stop  offset="1" style="stop-color:#808184"/>
		</linearGradient>
		<path id="anello4_x5F_white_4_" style="fill:url(#anello4_x5F_white_1_);" d="M534.456,88.442c6.44,4.838,13.882,32,13.882,64.807
			c0,31.983-7.067,58.615-13.396,64.394l-76.591,25.808c6.252-3.847,11.145-38.687,11.145-81.104
			c0-44.267-5.327-80.312-11.97-81.418l76.919,7.496L534.456,88.442z"/>
		
			<linearGradient id="anello3_x5F_red_1_" gradientUnits="userSpaceOnUse" x1="223.1286" y1="265.889" x2="223.1286" y2="358.9451" gradientTransform="matrix(1 0 0 1 202.3198 -79.9756)">
			<stop  offset="0" style="stop-color:#E22527"/>
			<stop  offset="0.1137" style="stop-color:#D22327"/>
			<stop  offset="0.7185" style="stop-color:#89191B"/>
			<stop  offset="1" style="stop-color:#711212"/>
		</linearGradient>
		<path id="anello3_x5F_red_4_" style="fill:url(#anello3_x5F_red_1_);" d="M457.366,243.781l-75.465,25.427l-0.498-1.651
			c6.987-2.179,20.006-37.728,20.006-89.789c0-50.475-12.237-98.523-19.349-104.203l75.151,7.331c0.108,0,0.22,0.016,0.313,0.033
			c6.643,1.106,11.97,37.151,11.97,81.418c0,42.418-4.892,77.257-11.144,81.104L457.366,243.781z"/>
		
			<linearGradient id="anello2_x5F_white_1_" gradientUnits="userSpaceOnUse" x1="147.5611" y1="264.8893" x2="147.5611" y2="373.7497" gradientTransform="matrix(1 0 0 1 202.3198 -79.9756)">
			<stop  offset="0" style="stop-color:#FFFFFF"/>
			<stop  offset="0.3268" style="stop-color:#CFD0D1"/>
			<stop  offset="0.7859" style="stop-color:#949699"/>
			<stop  offset="1" style="stop-color:#808184"/>
		</linearGradient>
		<path id="anello2_x5F_white_4_" style="fill:url(#anello2_x5F_white_1_);" d="M381.401,267.557l0.498,1.651l-83.234,28.037
			l-0.313-1.057c8.349-2.889,23.339-50.162,23.339-112.096c0-59.904-14.023-112.262-22.495-118.618l82.861,8.09
			c7.112,5.68,19.351,53.728,19.351,104.203C401.409,229.829,388.388,265.378,381.401,267.557z"/>
		
			<linearGradient id="anello1_x5F_red_1_" gradientUnits="userSpaceOnUse" x1="74.7227" y1="276.3492" x2="74.7227" y2="370.6792" gradientTransform="matrix(1 0 0 1 202.3198 -79.9756)">
			<stop  offset="0" style="stop-color:#E22527"/>
			<stop  offset="0.1137" style="stop-color:#D22327"/>
			<stop  offset="0.7185" style="stop-color:#89191B"/>
			<stop  offset="1" style="stop-color:#711212"/>
		</linearGradient>
		<path id="anello1_x5F_red_4_" style="fill:url(#anello1_x5F_red_1_);" d="M298.355,296.189l0.313,1.057l-64.305,21.662
			c11.332-7.496,20.117-62.66,20.117-129.564c0-70.785-9.832-128.376-22.086-130.391l66.804,6.522
			c8.473,6.356,22.495,58.714,22.495,118.618C321.692,246.026,306.702,293.299,298.355,296.189z"/>
		<path id="buco_4_" style="fill:#88181C;" d="M209.275,167.862c1.782-61.835,11.161-108.975,22.444-108.975l0.674,0.066
			c12.254,2.015,22.086,59.606,22.086,130.391c0,66.904-8.785,122.068-20.117,129.564l-2.641,0.892
			c-12.567,0-22.759-58.417-22.759-130.456L209.275,167.862z"/>
		<path id="anello_x5F_aggancio_4_" d="M232.361,323.686h-0.641c-5.452,0-13.449-4.295-19.928-41.433
			c-4.336-24.856-6.724-57.852-6.724-92.91l0.313-21.538c0.876-30.39,3.623-58.211,7.737-78.394
			C219.406,58.567,226.745,55,231.719,55l0.383,0.019l0.925,0.099c2.955,0.486,11.946,1.964,18.844,42.592
			c4.194,24.696,6.503,57.239,6.503,91.634c0,56.998-6.841,122.869-21.86,132.804l-0.423,0.28L232.361,323.686z M231.626,62.782
			c-1.272,0.249-6.228,5.376-10.876,28.179c-4.028,19.759-6.721,47.11-7.582,77.013l-0.312,21.426
			c0,34.568,2.348,67.091,6.609,91.52c4.705,26.966,10.114,34.02,11.906,34.895l1.163-0.393c1.732-1.469,7.422-8.512,12.289-39.618
			c3.716-23.75,5.762-54.456,5.762-86.461c0-33.973-2.27-66.054-6.393-90.335c-4.832-28.459-10.482-35.734-12.358-36.206
			L231.626,62.782z"/>
	</g>
	<path id="cordino_4_" d="M228.397,323.383c-1.411,0-2.81-0.609-3.772-1.785L114.074,186.542L224.064,57.821
		c1.745-2.041,4.817-2.286,6.862-0.545c2.046,1.741,2.29,4.807,0.546,6.848L126.754,186.675l105.41,128.777
		c1.701,2.078,1.392,5.138-0.69,6.835C230.569,323.025,229.48,323.383,228.397,323.383z"/>
	<path id="gancio_4_" d="M126.448,187.27c0,5.478-6.229,9.919-13.913,9.919s-21.148-9.919-21.148-9.919s13.464-9.919,21.148-9.919
		S126.448,181.792,126.448,187.27z"/>
	<path id="ombra2_x5F_attacco_4_" d="M93.595,198.18H61.354c-3.299,0-5.997-2.699-5.997-5.997v-5.528
		c0-3.299,2.699-5.997,5.997-5.997h32.241c3.299,0,5.997,2.699,5.997,5.997v5.528C99.593,195.481,96.894,198.18,93.595,198.18z"/>
	<linearGradient id="palo_1_" gradientUnits="userSpaceOnUse" x1="62.4636" y1="335.0565" x2="91.3876" y2="335.0565">
		<stop  offset="0" style="stop-color:#FFFFFF"/>
		<stop  offset="0.2983" style="stop-color:#9B9B9B"/>
		<stop  offset="0.4649" style="stop-color:#676767"/>
		<stop  offset="0.5156" style="stop-color:#585858"/>
		<stop  offset="0.6129" style="stop-color:#313131"/>
		<stop  offset="0.7191" style="stop-color:#000000"/>
		<stop  offset="1" style="stop-color:#4D4E4E"/>
	</linearGradient>
	<path id="palo_4_" style="fill:url(#palo_1_);" d="M84.256,545h-14.66c-3.923,0-7.132-3.209-7.132-7.132V132.245
		c0-3.923,3.209-7.132,7.132-7.132h14.66c3.923,0,7.132,3.209,7.132,7.132v405.623C91.388,541.791,88.178,545,84.256,545z"/>
	<rect id="ombra1_x5F_attacco_4_" x="62.464" y="189.303" width="28.924" height="7.505"/>
	<linearGradient id="attacco_1_" gradientUnits="userSpaceOnUse" x1="55" y1="184.5419" x2="99.5926" y2="184.5419">
		<stop  offset="0" style="stop-color:#FFFFFF"/>
		<stop  offset="0.0179" style="stop-color:#EEEEEE"/>
		<stop  offset="0.0671" style="stop-color:#C5C5C5"/>
		<stop  offset="0.1176" style="stop-color:#A3A3A3"/>
		<stop  offset="0.1687" style="stop-color:#898989"/>
		<stop  offset="0.221" style="stop-color:#767676"/>
		<stop  offset="0.2749" style="stop-color:#6B6B6B"/>
		<stop  offset="0.3332" style="stop-color:#676767"/>
		<stop  offset="0.4102" style="stop-color:#585858"/>
		<stop  offset="0.5578" style="stop-color:#313131"/>
		<stop  offset="0.7191" style="stop-color:#000000"/>
		<stop  offset="1" style="stop-color:#4D4E4E"/>
	</linearGradient>
	<path id="attacco_4_" style="fill:url(#attacco_1_);" d="M92.94,173.383H61.653c-3.659,0-6.653,2.752-6.653,6.116v12.233
		c0,1.512,0.608,2.897,1.606,3.967c1.223-1.312,3.032-2.149,5.047-2.149H92.94c2.015,0,3.824,0.837,5.047,2.149
		c0.998-1.07,1.606-2.456,1.606-3.967V179.5C99.593,176.136,96.599,173.383,92.94,173.383z"/>
</g>
<g id="fiocco_x5F_DX">
	<path id="riempimento_x5F_fiocco_13_" style="fill:#FFFFFF;" d="M595.877,297.162c4.029-10.116,7.026-18.456,10.635-26.523
		c6.16-13.77,17.283-18.891,29.314-13.944c12.064,4.96,16.341,16.618,11.044,30.552c-3.146,8.277-6.529,16.463-10.415,26.22
		c10.371-1.419,19.104-2.793,27.88-3.775c15.098-1.689,26.335,5.963,27.875,18.711c1.531,12.679-6.457,22.017-21.333,24.781
		c-4.226,0.785-8.511,1.245-12.763,1.892c-4.243,0.646-8.479,1.34-14.904,2.36c6.339,8.106,12.041,15.126,17.438,22.373
		c6.229,8.365,8.799,17.534,2.874,27.011c-8.146,13.027-25.153,14.062-35.747,2.182c-6.579-7.377-12.482-15.357-19.694-24.315
		c-4.044,10.154-7.283,18.794-10.907,27.27c-5.532,12.937-16.767,18.143-28.609,13.551c-11.57-4.487-16.538-15.223-12.258-28.196
		c2.995-9.079,6.982-17.831,11.294-28.66c-10.518,1.385-18.864,2.533-27.223,3.575c-15.76,1.965-26.736-4.825-28.499-17.56
		c-1.9-13.722,6.295-23.383,22.352-26.087c8.088-1.362,16.227-2.418,26.404-3.915c-5.996-7.735-11.145-14.239-16.145-20.855
		c-9.938-13.15-9.47-25.941,1.154-34.372c10.218-8.109,23.343-5.308,33.67,7.252C584.451,282.936,589.493,289.263,595.877,297.162z"
		/>
	<path id="bordo_x5F_fiocco_13_" style="fill:#808184;" d="M576.929,430c-3.095,0-6.256-0.617-9.395-1.835
		c-13.145-5.097-18.615-17.559-13.934-31.747c2.064-6.259,4.621-12.435,7.33-18.973c0.719-1.736,1.451-3.505,2.196-5.327
		c-1.651,0.219-3.252,0.433-4.812,0.641c-6.405,0.854-11.935,1.591-17.584,2.295c-1.898,0.237-3.771,0.357-5.563,0.357
		c-14.367,0-24.373-7.799-26.112-20.354c-2.129-15.376,7.105-26.325,24.702-29.289c5.485-0.924,10.868-1.69,17.1-2.576
		c1.469-0.209,2.973-0.423,4.523-0.646c-0.861-1.105-1.705-2.188-2.536-3.252c-3.714-4.762-7.222-9.26-10.628-13.767
		c-10.784-14.269-10.149-28.954,1.656-38.324c4.286-3.401,9.244-5.199,14.339-5.199c8.202,0,16.478,4.572,23.304,12.873
		c3.477,4.229,6.841,8.407,10.735,13.244c0.899,1.117,1.82,2.262,2.77,3.439c0.636-1.63,1.251-3.215,1.85-4.763
		c2.351-6.071,4.572-11.806,7.04-17.323C608.878,258.369,617.306,252,627.034,252c3.232,0,6.554,0.693,9.877,2.059
		c13.463,5.535,18.418,18.959,12.625,34.201c-2.146,5.645-4.426,11.309-6.84,17.305c-0.578,1.438-1.168,2.903-1.77,4.402
		c1.594-0.225,3.152-0.447,4.682-0.666c6.384-0.911,12.415-1.771,18.412-2.443c1.483-0.166,2.963-0.25,4.397-0.25
		c14.601,0,25.052,8.421,26.626,21.453c1.713,14.197-7.346,24.898-23.643,27.925c-2.751,0.511-5.538,0.889-8.234,1.255
		c-1.542,0.209-3.084,0.418-4.621,0.652c-2.829,0.431-5.656,0.883-9.134,1.44l-0.962,0.154c0.949,1.204,1.883,2.386,2.807,3.553
		c4.093,5.177,7.959,10.067,11.682,15.066c7.9,10.609,8.911,20.778,3.004,30.225c-4.693,7.504-12.219,11.808-20.651,11.809
		c-7.35,0-14.325-3.281-19.64-9.24c-4.532-5.083-8.753-10.454-13.221-16.141c-1.145-1.456-2.309-2.938-3.505-4.449
		c-0.634,1.611-1.251,3.187-1.856,4.732c-2.462,6.288-4.788,12.228-7.271,18.035C595.195,423.832,586.861,430,576.929,430z
		 M572.046,365.191l-1.798,4.515c-1.395,3.501-2.745,6.765-4.053,9.921c-2.666,6.438-5.184,12.519-7.183,18.578
		c-3.762,11.404,0.194,20.618,10.583,24.647c2.478,0.961,4.946,1.449,7.333,1.449c7.541,0,13.965-4.907,17.623-13.464
		c2.448-5.726,4.759-11.626,7.204-17.872c1.169-2.985,2.382-6.081,3.676-9.332l1.806-4.536l3.062,3.803
		c2.315,2.876,4.496,5.651,6.608,8.338c4.412,5.615,8.579,10.918,12.994,15.868c4.218,4.73,9.682,7.334,15.385,7.334
		c6.424,0,12.19-3.329,15.817-9.131c4.601-7.357,3.704-15.141-2.743-23.797c-3.674-4.934-7.515-9.792-11.582-14.936
		c-1.883-2.381-3.817-4.828-5.816-7.384l-2.981-3.812l10.523-1.676c3.495-0.559,6.334-1.014,9.177-1.446
		c1.569-0.238,3.141-0.452,4.713-0.666c2.628-0.356,5.345-0.725,7.96-1.211c13.448-2.498,20.382-10.385,19.024-21.637
		c-1.224-10.137-9.258-16.435-20.966-16.435c-1.224,0-2.489,0.072-3.762,0.215c-5.911,0.662-11.9,1.516-18.241,2.421
		c-3.058,0.436-6.229,0.889-9.57,1.346l-4.842,0.663l1.808-4.541c1.249-3.136,2.446-6.11,3.6-8.976
		c2.403-5.97,4.672-11.608,6.798-17.202c4.737-12.462,1.2-22.52-9.463-26.903c-2.631-1.082-5.225-1.631-7.709-1.631
		c-7.487,0-13.851,5.008-17.92,14.102c-2.408,5.384-4.503,10.792-6.928,17.054c-1.149,2.967-2.351,6.07-3.661,9.36l-1.803,4.525
		l-3.062-3.789c-2.076-2.568-4.009-4.97-5.85-7.257c-3.885-4.825-7.239-8.991-10.698-13.198
		c-5.723-6.96-12.436-10.793-18.901-10.793c-3.85,0-7.482,1.334-10.795,3.964c-9.392,7.454-9.631,18.542-0.652,30.422
		c3.379,4.472,6.874,8.953,10.575,13.698c1.777,2.279,3.619,4.641,5.548,7.129l2.989,3.856l-4.827,0.711
		c-3.323,0.489-6.431,0.931-9.39,1.352c-6.194,0.881-11.543,1.642-16.957,2.554c-14.39,2.423-21.68,10.765-20.002,22.885
		c1.358,9.81,8.818,15.436,20.465,15.436c1.558,0,3.193-0.105,4.858-0.313c5.624-0.701,11.144-1.437,17.536-2.289
		c3.042-0.405,6.24-0.832,9.668-1.283L572.046,365.191z"/>
</g>
<g id="fiocco_x5F_SX">
	<path id="riempimento_x5F_fiocco_14_" style="fill:#FFFFFF;" d="M265.877,389.162c4.029-10.116,7.026-18.456,10.635-26.523
		c6.16-13.77,17.283-18.891,29.314-13.944c12.064,4.96,16.34,16.618,11.044,30.552c-3.146,8.277-6.529,16.463-10.415,26.22
		c10.371-1.419,19.104-2.793,27.88-3.775c15.098-1.689,26.335,5.963,27.875,18.711c1.531,12.679-6.457,22.017-21.333,24.781
		c-4.226,0.785-8.511,1.245-12.763,1.892c-4.243,0.646-8.479,1.34-14.904,2.36c6.339,8.106,12.041,15.126,17.438,22.373
		c6.229,8.365,8.799,17.534,2.874,27.011c-8.146,13.027-25.153,14.062-35.747,2.182c-6.579-7.377-12.482-15.357-19.694-24.315
		c-4.044,10.154-7.283,18.794-10.907,27.27c-5.532,12.937-16.767,18.143-28.609,13.551c-11.57-4.487-16.538-15.223-12.258-28.196
		c2.995-9.079,6.982-17.831,11.294-28.66c-10.518,1.385-18.864,2.533-27.223,3.575c-15.76,1.965-26.736-4.825-28.499-17.56
		c-1.9-13.722,6.295-23.383,22.352-26.087c8.088-1.362,16.227-2.418,26.404-3.915c-5.996-7.735-11.145-14.239-16.145-20.855
		c-9.938-13.15-9.47-25.941,1.154-34.372c10.218-8.109,23.343-5.308,33.67,7.252C254.451,374.936,259.493,381.263,265.877,389.162z"
		/>
	<path id="bordo_x5F_fiocco_14_" style="fill:#808184;" d="M246.929,522c-3.095,0-6.256-0.617-9.395-1.835
		c-13.145-5.097-18.615-17.559-13.934-31.747c2.064-6.259,4.621-12.435,7.33-18.973c0.719-1.736,1.451-3.505,2.196-5.327
		c-1.652,0.219-3.252,0.433-4.812,0.641c-6.405,0.854-11.935,1.591-17.584,2.295c-1.898,0.237-3.771,0.357-5.563,0.357
		c-14.367,0-24.373-7.799-26.112-20.354c-2.129-15.376,7.105-26.325,24.702-29.289c5.485-0.924,10.868-1.69,17.1-2.576
		c1.469-0.209,2.973-0.423,4.523-0.646c-0.861-1.105-1.705-2.188-2.536-3.252c-3.714-4.762-7.222-9.26-10.628-13.767
		c-10.784-14.269-10.149-28.954,1.656-38.324c4.286-3.401,9.244-5.199,14.339-5.199c8.202,0,16.478,4.572,23.304,12.873
		c3.477,4.229,6.841,8.407,10.735,13.244c0.899,1.117,1.82,2.262,2.77,3.439c0.637-1.63,1.251-3.215,1.85-4.763
		c2.351-6.071,4.572-11.806,7.04-17.323C278.878,350.369,287.306,344,297.034,344c3.232,0,6.554,0.693,9.877,2.059
		c13.463,5.535,18.418,18.959,12.625,34.201c-2.146,5.645-4.426,11.309-6.84,17.305c-0.578,1.438-1.168,2.903-1.77,4.402
		c1.594-0.225,3.152-0.447,4.682-0.666c6.384-0.911,12.415-1.771,18.412-2.443c1.483-0.166,2.963-0.25,4.397-0.25
		c14.601,0,25.052,8.421,26.626,21.453c1.713,14.197-7.346,24.898-23.643,27.925c-2.751,0.511-5.538,0.889-8.234,1.255
		c-1.542,0.209-3.084,0.418-4.621,0.652c-2.829,0.431-5.656,0.883-9.134,1.44l-0.962,0.154c0.949,1.204,1.883,2.386,2.807,3.553
		c4.093,5.177,7.959,10.067,11.682,15.066c7.9,10.609,8.911,20.778,3.004,30.225c-4.693,7.504-12.219,11.808-20.651,11.809
		c-7.35,0-14.325-3.281-19.64-9.24c-4.532-5.083-8.753-10.454-13.221-16.141c-1.145-1.456-2.309-2.938-3.505-4.449
		c-0.634,1.611-1.251,3.187-1.856,4.732c-2.462,6.288-4.788,12.228-7.271,18.035C265.195,515.832,256.861,522,246.929,522z
		 M242.046,457.191l-1.798,4.515c-1.395,3.501-2.745,6.765-4.053,9.921c-2.666,6.438-5.184,12.519-7.183,18.578
		c-3.762,11.404,0.194,20.618,10.583,24.647c2.478,0.961,4.946,1.449,7.333,1.449c7.541,0,13.965-4.907,17.623-13.464
		c2.449-5.726,4.759-11.626,7.204-17.872c1.169-2.985,2.382-6.081,3.676-9.332l1.806-4.536l3.062,3.803
		c2.315,2.876,4.496,5.651,6.608,8.338c4.412,5.615,8.579,10.918,12.994,15.868c4.218,4.73,9.682,7.334,15.385,7.334
		c6.424,0,12.19-3.329,15.817-9.131c4.601-7.357,3.704-15.141-2.743-23.797c-3.674-4.934-7.515-9.792-11.582-14.936
		c-1.883-2.381-3.817-4.828-5.816-7.384l-2.981-3.812l10.523-1.676c3.495-0.559,6.334-1.014,9.177-1.446
		c1.569-0.238,3.141-0.452,4.713-0.666c2.628-0.356,5.345-0.725,7.96-1.211c13.448-2.498,20.382-10.385,19.024-21.637
		c-1.224-10.137-9.258-16.435-20.966-16.435c-1.224,0-2.489,0.072-3.762,0.215c-5.911,0.662-11.9,1.516-18.241,2.421
		c-3.058,0.436-6.229,0.889-9.57,1.346l-4.842,0.663l1.808-4.541c1.249-3.136,2.446-6.11,3.6-8.976
		c2.403-5.97,4.673-11.608,6.798-17.202c4.737-12.462,1.2-22.52-9.463-26.903c-2.631-1.082-5.225-1.631-7.709-1.631
		c-7.487,0-13.851,5.008-17.92,14.102c-2.408,5.384-4.503,10.792-6.928,17.054c-1.149,2.967-2.351,6.07-3.661,9.36l-1.803,4.525
		l-3.062-3.789c-2.076-2.568-4.009-4.97-5.85-7.257c-3.885-4.825-7.239-8.991-10.698-13.198
		c-5.723-6.96-12.436-10.793-18.901-10.793c-3.85,0-7.482,1.334-10.795,3.964c-9.392,7.454-9.631,18.542-0.652,30.422
		c3.379,4.472,6.874,8.953,10.575,13.698c1.777,2.279,3.618,4.641,5.548,7.129l2.989,3.856l-4.827,0.711
		c-3.323,0.489-6.431,0.931-9.39,1.352c-6.194,0.881-11.543,1.642-16.957,2.554c-14.39,2.423-21.68,10.765-20.002,22.885
		c1.358,9.81,8.818,15.436,20.465,15.436c1.558,0,3.193-0.105,4.858-0.313c5.624-0.701,11.144-1.437,17.536-2.289
		c3.042-0.405,6.24-0.832,9.668-1.283L242.046,457.191z"/>
</g>
<g id="fiocco_x5F_MID">
	<path id="riempimento_x5F_fiocco_15_" style="fill:#FFFFFF;" d="M455.944,429.8c3.327-8.354,5.802-15.241,8.782-21.902
		c5.087-11.371,14.271-15.599,24.207-11.515c9.962,4.096,13.493,13.723,9.12,25.229c-2.598,6.835-5.392,13.595-8.6,21.651
		c8.564-1.172,15.775-2.306,23.023-3.117c12.468-1.395,21.747,4.924,23.018,15.451c1.264,10.47-5.332,18.181-17.616,20.463
		c-3.489,0.648-7.028,1.028-10.539,1.563c-3.504,0.533-7.001,1.107-12.307,1.949c5.234,6.694,9.943,12.49,14.4,18.475
		c5.144,6.908,7.266,14.479,2.373,22.305c-6.726,10.757-20.77,11.612-29.519,1.802c-5.433-6.092-10.307-12.681-16.263-20.079
		c-3.339,8.385-6.014,15.52-9.007,22.519c-4.568,10.683-13.846,14.982-23.624,11.19c-9.554-3.705-13.656-12.571-10.122-23.284
		c2.473-7.497,5.765-14.724,9.326-23.666c-8.685,1.144-15.577,2.091-22.48,2.952c-13.014,1.623-22.077-3.984-23.534-14.501
		c-1.569-11.332,5.198-19.309,18.458-21.542c6.679-1.125,13.4-1.996,21.804-3.233c-4.951-6.387-9.203-11.758-13.332-17.221
		c-8.206-10.859-7.82-21.421,0.953-28.384c8.438-6.696,19.275-4.383,27.803,5.988C446.509,418.053,450.672,423.277,455.944,429.8z"
		/>
	<path id="bordo_x5F_fiocco_15_" style="fill:#808184;" d="M440.297,539.493c-2.556,0-5.166-0.51-7.758-1.515
		c-10.855-4.209-15.371-14.5-11.506-26.216c1.705-5.168,3.816-10.268,6.053-15.667c0.594-1.434,1.198-2.895,1.814-4.399
		c-1.364,0.181-2.685,0.357-3.973,0.529c-5.289,0.705-9.856,1.314-14.52,1.895c-1.568,0.195-3.114,0.295-4.594,0.295
		c-11.864,0-20.126-6.44-21.562-16.808c-1.758-12.697,5.867-21.739,20.398-24.186c4.53-0.763,8.974-1.395,14.12-2.127
		c1.213-0.172,2.455-0.349,3.735-0.533c-0.711-0.912-1.408-1.807-2.094-2.686c-3.067-3.932-5.964-7.647-8.776-11.368
		c-8.905-11.783-8.381-23.909,1.368-31.646c3.539-2.808,7.633-4.293,11.841-4.293c6.773,0,13.607,3.775,19.244,10.63
		c2.872,3.493,5.649,6.942,8.864,10.937c0.742,0.922,1.503,1.868,2.287,2.84c0.526-1.346,1.033-2.655,1.528-3.933
		c1.941-5.013,3.776-9.749,5.814-14.305c4.102-9.171,11.062-14.43,19.094-14.43c2.669,0,5.412,0.572,8.156,1.7
		c11.117,4.571,15.209,15.656,10.425,28.242c-1.772,4.662-3.655,9.338-5.648,14.29c-0.477,1.188-0.965,2.397-1.462,3.635
		c1.316-0.186,2.603-0.369,3.866-0.55c5.272-0.752,10.252-1.463,15.204-2.017c1.224-0.137,2.446-0.206,3.631-0.206
		c12.057,0,20.687,6.954,21.987,17.715c1.414,11.724-6.066,20.56-19.523,23.06c-2.272,0.422-4.573,0.734-6.8,1.037
		c-1.273,0.173-2.547,0.346-3.816,0.539c-2.336,0.356-4.671,0.729-7.543,1.189l-0.795,0.127c0.784,0.994,1.555,1.971,2.318,2.934
		c3.38,4.275,6.572,8.313,9.647,12.441c6.524,8.761,7.358,17.158,2.481,24.958c-3.875,6.196-10.09,9.751-17.053,9.751
		c-6.07,0-11.829-2.71-16.218-7.63c-3.743-4.197-7.228-8.633-10.918-13.329c-0.945-1.202-1.907-2.426-2.895-3.674
		c-0.523,1.33-1.033,2.631-1.532,3.907c-2.033,5.193-3.954,10.098-6.004,14.893C455.38,534.4,448.499,539.493,440.297,539.493z
		 M436.265,485.976l-1.485,3.728c-1.152,2.891-2.267,5.586-3.347,8.192c-2.201,5.316-4.281,10.338-5.932,15.341
		c-3.107,9.417,0.16,17.026,8.739,20.352c2.046,0.794,4.084,1.196,6.056,1.196c6.227,0,11.531-4.052,14.552-11.118
		c2.022-4.728,3.93-9.6,5.949-14.758c0.965-2.465,1.967-5.021,3.036-7.706l1.492-3.746l2.528,3.141
		c1.912,2.375,3.713,4.666,5.457,6.885c3.643,4.636,7.084,9.016,10.73,13.104c3.483,3.906,7.995,6.056,12.704,6.056
		c5.305,0,10.066-2.749,13.061-7.54c3.799-6.075,3.059-12.503-2.265-19.651c-3.034-4.074-6.206-8.086-9.564-12.334
		c-1.555-1.966-3.152-3.987-4.802-6.097l-2.462-3.148l8.69-1.384c2.886-0.462,5.231-0.837,7.578-1.194
		c1.296-0.197,2.593-0.374,3.892-0.55c2.17-0.294,4.414-0.599,6.573-1c11.105-2.063,16.831-8.575,15.709-17.867
		c-1.011-8.371-7.645-13.572-17.313-13.572c-1.011,0-2.056,0.06-3.107,0.177c-4.881,0.546-9.827,1.252-15.063,1.999
		c-2.525,0.36-5.144,0.734-7.903,1.111l-3.999,0.547l1.493-3.75c1.031-2.59,2.02-5.045,2.973-7.412
		c1.984-4.93,3.858-9.586,5.614-14.205c3.912-10.291,0.991-18.596-7.814-22.216c-2.173-0.894-4.315-1.347-6.366-1.347
		c-6.183,0-11.438,4.136-14.798,11.645c-1.988,4.446-3.718,8.912-5.721,14.082c-0.949,2.45-1.941,5.012-3.023,7.729l-1.489,3.737
		l-2.528-3.129c-1.714-2.12-3.311-4.104-4.831-5.993c-3.208-3.984-5.978-7.425-8.834-10.899c-4.726-5.747-10.269-8.913-15.607-8.913
		c-3.179,0-6.178,1.101-8.914,3.273c-7.756,6.155-7.953,15.311-0.539,25.121c2.79,3.693,5.676,7.393,8.733,11.311
		c1.467,1.882,2.988,3.832,4.582,5.887l2.469,3.184l-3.986,0.587c-2.744,0.404-5.31,0.769-7.754,1.116
		c-5.115,0.728-9.532,1.356-14.002,2.109c-11.882,2.001-17.903,8.889-16.517,18.898c1.122,8.101,7.282,12.747,16.899,12.747
		c1.286,0,2.636-0.087,4.012-0.259c4.644-0.579,9.202-1.187,14.48-1.89c2.512-0.335,5.152-0.687,7.983-1.06L436.265,485.976z"/>
</g>
</svg>
