<?xml version="1.0" encoding="iso-8859-1"?>
<!-- Generator: Adobe Illustrator 18.1.0, SVG Export Plug-In . SVG Version: 6.00 Build 0)  -->
<svg version="1.1" id="VELATURE" xmlns="http://www.w3.org/2000/svg" xmlns:xlink="http://www.w3.org/1999/xlink" x="0px" y="0px"
	 viewBox="0 0 750 600" style="enable-background:new 0 0 750 600;" xml:space="preserve">
<g id="sole_1_">
	<linearGradient id="corona_2_" gradientUnits="userSpaceOnUse" x1="374.6517" y1="564.5852" x2="374.6517" y2="35.3556">
		<stop  offset="0" style="stop-color:#F3A51E"/>
		<stop  offset="0.5" style="stop-color:#F3B01B"/>
		<stop  offset="1" style="stop-color:#F6BE18"/>
	</linearGradient>
	<polygon id="corona_1_" style="fill:url(#corona_2_);" points="320.761,35.356 377.918,109.547 438.12,35.356 449.772,127.682 
		533.057,81.519 516.727,170.548 598.379,152.413 557.553,236.496 639.205,251.334 567.351,301.619 639.205,356.85 547.755,378.513 
		596.746,449.177 510.195,439.285 524.892,521.719 453.038,478.853 438.12,564.585 377.918,492.043 327.293,564.585 309.33,478.853 
		226.044,525.017 247.274,439.285 149.291,450.826 204.815,378.513 118.263,358.499 186.851,301.619 110.098,248.037 
		204.815,224.955 150.924,147.467 247.274,163.953 216.246,76.573 307.697,119.439 	"/>
	<path id="bordo_x5F_corona_1_" style="fill:#F7EE85;" d="M324.97,576l-18.867-90.045l-87.095,48.274l22.173-89.539l-102.265,12.045
		l57.827-75.312l-88.667-20.503l71.123-58.982L99,245.951l98.147-23.918l-56.349-81.023l99.473,17.021L208.18,67.658l95.909,44.955
		L317.856,24l60.155,78.083l63.33-78.045l12.151,96.271l85.871-47.598l-16.835,91.78l84.204-18.702l-42.348,87.217L651,248.746
		l-75.804,53.049l74.587,57.333l-94.343,22.348l50.95,73.49l-90.558-10.351l15.383,86.285l-74.787-44.615l-15.48,88.96
		l-62.714-75.57L324.97,576z M377.602,484.411l57.689,69.515l14.356-82.504l68.921,41.116l-14.012-78.584l82.546,9.435
		L540.07,375.55l88.557-20.978l-69.12-53.13l67.902-47.52l-76.689-13.937l39.305-80.95l-79.101,17.569l15.826-86.278l-80.698,44.729
		l-11.154-88.382l-57.073,70.336l-54.159-70.299l-12.36,79.553l-86.994-40.777l29.965,84.387l-93.227-15.953l51.432,73.955
		l-91.286,22.245l73.308,51.177l-66.054,54.779l84.435,19.524l-53.221,69.314l93.702-11.037l-20.287,81.925l79.477-44.052
		l17.059,81.419L377.602,484.411z"/>
	
		<linearGradient id="cerchio_x5F_down_2_" gradientUnits="userSpaceOnUse" x1="377.9178" y1="464.8394" x2="377.9178" y2="138.3988">
		<stop  offset="0" style="stop-color:#FBCD0E"/>
		<stop  offset="1" style="stop-color:#FBEB3F"/>
	</linearGradient>
	<ellipse id="cerchio_x5F_down_1_" style="fill:url(#cerchio_x5F_down_2_);" cx="377.918" cy="301.619" rx="161.672" ry="163.22"/>
	<linearGradient id="cerchio_x5F_up_2_" gradientUnits="userSpaceOnUse" x1="378.326" y1="457.4203" x2="378.326" y2="146.6422">
		<stop  offset="0" style="stop-color:#FBCA0C"/>
		<stop  offset="0.6279" style="stop-color:#FBCB0E"/>
		<stop  offset="0.8538" style="stop-color:#FBCD15"/>
		<stop  offset="1" style="stop-color:#FAD01F"/>
	</linearGradient>
	<ellipse id="cerchio_x5F_up_1_" style="fill:url(#cerchio_x5F_up_2_);" cx="378.326" cy="302.031" rx="153.915" ry="155.389"/>
	<linearGradient id="ovale_x5F_luce_2_" gradientUnits="userSpaceOnUse" x1="380.3674" y1="356.8502" x2="380.3674" y2="158.183">
		<stop  offset="0" style="stop-color:#FBCD12"/>
		<stop  offset="0.1227" style="stop-color:#FBCF18"/>
		<stop  offset="0.2834" style="stop-color:#FCD328"/>
		<stop  offset="0.4651" style="stop-color:#FCDA43"/>
		<stop  offset="0.6623" style="stop-color:#FDE469"/>
		<stop  offset="0.8697" style="stop-color:#FEF099"/>
		<stop  offset="1" style="stop-color:#FFF9BB"/>
	</linearGradient>
	<ellipse id="ovale_x5F_luce_1_" style="fill:url(#ovale_x5F_luce_2_);" cx="380.367" cy="257.517" rx="119.212" ry="99.334"/>
</g>
<g id="velatura_x5F_bassa" style="opacity:0.8;">
	<linearGradient id="velatura_x5F_5_x5F_down_2_" gradientUnits="userSpaceOnUse" x1="470" y1="470" x2="470" y2="378">
		<stop  offset="0" style="stop-color:#7D7E80"/>
		<stop  offset="0.3555" style="stop-color:#DFE0E1"/>
		<stop  offset="0.6505" style="stop-color:#D8D0D4"/>
		<stop  offset="1" style="stop-color:#FFFFFF"/>
	</linearGradient>
	<path id="velatura_x5F_5_x5F_down" style="fill-rule:evenodd;clip-rule:evenodd;fill:url(#velatura_x5F_5_x5F_down_2_);" d="
		M730.899,434.359c-3.266-10.121-36.336-32.554-55.937-22.577c-11.659-21.304-54.683-10.363-62.091-6.591
		c-4.748-14.28-38.719-11.571-43.829-5.726c-6.91-13.509-20.84-14.054-29.466-14.582c-10.006-0.613-23.628,0.517-30.764,6.748
		c-7.524-8.768-21.029-9.52-33.206-9.52c-14.417,0-21.974,4.394-29.101,12.619c-7.333-11.707-23.693-14.6-30.962-15.182
		c-3.399-0.272-29.265-0.565-36.624,10.984c-6.779-13.93-31.128-12.555-38.577-12.449c-3.951,0.056-20.097,1.141-27.619,9.863
		c-4.594-3.502-10.215-5.587-16.307-5.587c-11.412,0-21.209,7.246-25.562,17.621c-2.333-0.344-4.751-0.541-7.243-0.541
		c-18.118,0-30.712,4.365-30.712,16.187c0,0.024-26.784-6.774-30.836,26.626c-0.14,1.156,0,6.12,0,7.536
		c0,11.116,8.96,20.211,19.911,20.211h496.116C729.04,470,738,460.905,738,449.789C738,443.617,735.231,438.074,730.899,434.359z"/>
	<linearGradient id="velatura_x5F_4_2_" gradientUnits="userSpaceOnUse" x1="210.3698" y1="417.7835" x2="719.9263" y2="417.7835">
		<stop  offset="0.14" style="stop-color:#B5B7B9"/>
		<stop  offset="0.2209" style="stop-color:#BCBCBE"/>
		<stop  offset="0.3351" style="stop-color:#CEC8CA"/>
		<stop  offset="0.3691" style="stop-color:#D5CDCF"/>
		<stop  offset="0.71" style="stop-color:#B1ADAE"/>
		<stop  offset="0.7627" style="stop-color:#B9B6B7"/>
		<stop  offset="0.9047" style="stop-color:#CACBCC"/>
		<stop  offset="1" style="stop-color:#D0D2D3"/>
	</linearGradient>
	<path id="velatura_x5F_4" style="fill-rule:evenodd;clip-rule:evenodd;fill:url(#velatura_x5F_4_2_);" d="M674.695,414.139
		c-1.104-0.022-2.191,0.028-3.272,0.062c-6.03-5.164-19.778-8.777-35.793-8.777c-10.627,0-20.25,1.594-27.293,4.172
		c-4.66-5.86-13.089-9.789-22.745-9.789c-7.715,0-14.642,2.515-19.5,6.509c-6.57-9.231-19.542-15.52-34.485-15.52
		c-9.545,0-18.281,2.571-25.066,6.828c-7.154-5.991-17.523-9.785-29.1-9.785c-13.707,0-25.745,5.298-32.717,13.297
		c-6.972-8-19.01-13.297-32.717-13.297c-13.597,0-25.561,5.208-32.557,13.1c-6.445-9.519-19.604-16.057-34.831-16.057
		c-11.542,0-21.882,3.771-29.034,9.731c-4.368-2.393-9.712-3.818-15.504-3.818c-10.85,0-20.165,4.951-24.304,12.041
		c-2.219-0.235-4.517-0.37-6.887-0.37c-17.226,0-31.19,6.549-31.19,14.628c0,0,0.005,0.032,0.005,0.049
		c-15.258,0.498-27.334,6.825-27.334,14.579c0,0.793,0.161,1.566,0.405,2.325c-0.263,0.913-0.405,1.857-0.405,2.825
		c0,7.596,8.519,13.81,18.931,13.81h471.695c10.412,0,18.931-6.215,18.931-13.81C719.926,432.655,717.568,414.988,674.695,414.139z"
		/>
	<linearGradient id="velatura_x5F_3_2_" gradientUnits="userSpaceOnUse" x1="469.7909" y1="466.3762" x2="469.7909" y2="407.6665">
		<stop  offset="0" style="stop-color:#F1F1F2"/>
		<stop  offset="0.0047" style="stop-color:#F0F1F2"/>
		<stop  offset="0.0872" style="stop-color:#E6EFF4"/>
		<stop  offset="0.19" style="stop-color:#E3EFF5"/>
	</linearGradient>
	<path id="velatura_x5F_3" style="fill-rule:evenodd;clip-rule:evenodd;fill:url(#velatura_x5F_3_2_);" d="M721.767,444.646
		c-3.155-6.171-19.432-10.877-39.092-10.877c-1.122,0-2.226,0.025-3.324,0.055c-6.126-4.608-20.093-7.831-36.363-7.831
		c-10.796,0-20.573,1.422-27.728,3.722c-4.734-5.228-13.298-8.734-23.108-8.734c-7.838,0-14.875,2.244-19.811,5.808
		c-6.675-8.236-19.853-13.847-35.034-13.847c-9.697,0-18.572,2.294-25.465,6.093c-7.268-5.346-17.802-8.73-29.563-8.73
		c-13.926,0-26.155,4.727-33.238,11.865c-7.083-7.138-19.312-11.865-33.238-11.865c-13.814,0-25.968,4.647-33.076,11.689
		c-6.548-8.493-19.916-14.327-35.385-14.327c-11.725,0-22.231,3.365-29.496,8.682c-4.437-2.135-9.866-3.406-15.751-3.406
		c-11.023,0-20.486,4.418-24.691,10.743c-2.254-0.21-4.589-0.33-6.996-0.33c-17.5,0-31.687,5.843-31.687,13.052
		c0,0,0.005,0.029,0.005,0.043c-15.501,0.444-27.769,6.09-27.769,13.008c0,0.708,0,3.731,0,4.595
		c0,6.777,8.655,12.322,19.233,12.322h479.206c10.578,0,19.232-5.545,19.232-12.322
		C728.626,450.291,725.952,446.911,721.767,444.646z"/>
	<linearGradient id="velatura_x5F_2_2_" gradientUnits="userSpaceOnUse" x1="469.7909" y1="461.9825" x2="469.7909" y2="403.2728">
		<stop  offset="0.14" style="stop-color:#B5B7B9"/>
		<stop  offset="0.2209" style="stop-color:#BCBCBE"/>
		<stop  offset="0.3351" style="stop-color:#CEC8CA"/>
		<stop  offset="0.3691" style="stop-color:#D5CDCF"/>
		<stop  offset="0.71" style="stop-color:#B1ADAE"/>
		<stop  offset="0.7627" style="stop-color:#B9B6B7"/>
		<stop  offset="0.9047" style="stop-color:#CACBCC"/>
		<stop  offset="1" style="stop-color:#D0D2D3"/>
	</linearGradient>
	<path id="velatura_x5F_2" style="fill-rule:evenodd;clip-rule:evenodd;fill:url(#velatura_x5F_2_2_);" d="M721.767,440.253
		c-3.155-6.171-19.432-10.877-39.092-10.877c-1.122,0-2.226,0.025-3.324,0.055c-6.126-4.608-20.093-7.831-36.363-7.831
		c-10.796,0-20.573,1.422-27.728,3.722c-4.734-5.228-13.298-8.734-23.108-8.734c-7.838,0-14.875,2.244-19.811,5.808
		c-6.675-8.236-19.853-13.847-35.034-13.847c-9.697,0-18.572,2.294-25.465,6.093c-7.268-5.346-17.802-8.73-29.563-8.73
		c-13.926,0-26.155,4.727-33.238,11.865c-7.083-7.138-19.312-11.865-33.238-11.865c-13.814,0-25.968,4.647-33.076,11.689
		c-6.548-8.493-19.916-14.327-35.385-14.327c-11.725,0-22.231,3.365-29.496,8.682c-4.437-2.135-9.866-3.406-15.751-3.406
		c-11.023,0-20.486,4.418-24.691,10.743c-2.254-0.21-4.589-0.33-6.996-0.33c-17.5,0-31.687,5.843-31.687,13.052
		c0,0.015,0.005,0.029,0.005,0.029c-15.501,0.459-27.769,6.105-27.769,13.023c0,0.708,0,3.731,0,4.595
		c0,6.777,8.655,12.322,19.233,12.322h479.206c10.578,0,19.232-5.545,19.232-12.322
		C728.626,445.897,725.952,442.518,721.767,440.253z"/>
	
		<linearGradient id="velatura_x5F_1_x5F_up_2_" gradientUnits="userSpaceOnUse" x1="465.1481" y1="453.1826" x2="465.1481" y2="399.4659">
		<stop  offset="0.0182" style="stop-color:#DAE2E7"/>
		<stop  offset="0.096" style="stop-color:#E2E8EC"/>
		<stop  offset="0.3637" style="stop-color:#F7F9FA"/>
		<stop  offset="0.5376" style="stop-color:#FFFFFF"/>
		<stop  offset="1" style="stop-color:#E3E5E7"/>
	</linearGradient>
	<path id="velatura_x5F_1_x5F_up" style="fill-rule:evenodd;clip-rule:evenodd;fill:url(#velatura_x5F_1_x5F_up_2_);" d="
		M709.582,434.026c0.366-7.702-15.541-10.677-34.893-10.677c-1.104,0-2.191,0.023-3.272,0.05c-6.03-4.216-19.778-7.165-35.793-7.165
		c-10.627,0-20.25,1.301-27.293,3.406c-4.66-4.784-13.089-7.992-22.745-7.992c-7.715,0-14.642,2.053-19.5,5.314
		c-6.57-7.536-19.542-12.67-34.485-12.67c-9.545,0-18.281,2.099-25.066,5.574c-7.154-4.891-17.523-7.988-29.1-7.988
		c-13.707,0-25.745,4.325-32.717,10.856c-6.972-6.531-19.01-10.856-32.717-10.856c-13.597,0-25.561,4.252-32.557,10.695
		c-6.445-7.771-19.604-13.108-34.831-13.108c-11.542,0-21.882,3.078-29.034,7.944c-4.368-1.953-9.712-3.117-15.504-3.117
		c-10.85,0-20.165,4.042-24.304,9.83c-2.219-0.192-4.517-0.302-6.887-0.302c-17.226,0-31.19,5.346-31.19,11.942
		c0,0,0.005,0.026,0.005,0.04c-15.258,0.406-27.334,5.572-27.334,11.902c0,0.648,0.161,1.278,0.404,1.898
		c-0.263,0.745-0.404,1.516-0.404,2.306c0,6.201,8.519,11.274,18.931,11.274h471.695c10.412,0,18.931-5.073,18.931-11.274
		C719.92,438.465,720.73,434.026,709.582,434.026z"/>
</g>
<g id="velatura_x5F_bassa_1_" style="opacity:0.8;">
	<linearGradient id="velatura_x5F_5_x5F_down_3_" gradientUnits="userSpaceOnUse" x1="253" y1="324.5" x2="253" y2="241.5">
		<stop  offset="0" style="stop-color:#7D7E80"/>
		<stop  offset="0.3555" style="stop-color:#DFE0E1"/>
		<stop  offset="0.6505" style="stop-color:#D8D0D4"/>
		<stop  offset="1" style="stop-color:#FFFFFF"/>
	</linearGradient>
	<path id="velatura_x5F_5_x5F_down_1_" style="fill-rule:evenodd;clip-rule:evenodd;fill:url(#velatura_x5F_5_x5F_down_3_);" d="
		M488.101,292.346c-2.943-9.131-32.743-29.369-50.406-20.368c-10.506-19.22-49.276-9.349-55.951-5.946
		c-4.279-12.883-34.89-10.439-39.495-5.166c-6.227-12.187-18.779-12.679-26.552-13.156c-9.016-0.553-21.291,0.466-27.722,6.088
		c-6.78-7.91-18.95-8.588-29.922-8.588c-12.992,0-19.801,3.964-26.224,11.384c-6.608-10.562-21.35-13.171-27.9-13.697
		c-3.063-0.246-26.371-0.51-33.002,9.91c-6.109-12.567-28.05-11.327-34.763-11.231c-3.56,0.051-18.11,1.029-24.888,8.898
		c-4.14-3.159-9.205-5.04-14.695-5.04c-10.283,0-19.112,6.537-23.034,15.897c-2.103-0.31-4.281-0.488-6.527-0.488
		c-16.326,0-27.676,3.938-27.676,14.604c0,0.022-24.136-6.111-27.787,24.021c-0.126,1.043,0,5.521,0,6.799
		c0,10.028,8.074,18.233,17.942,18.233h447.06c9.868,0,17.942-8.205,17.942-18.233C494.5,300.698,492.005,295.698,488.101,292.346z"
		/>
	<linearGradient id="velatura_x5F_4_3_" gradientUnits="userSpaceOnUse" x1="19.0422" y1="277.3916" x2="478.2135" y2="277.3916">
		<stop  offset="0.14" style="stop-color:#B5B7B9"/>
		<stop  offset="0.2209" style="stop-color:#BCBCBE"/>
		<stop  offset="0.3351" style="stop-color:#CEC8CA"/>
		<stop  offset="0.3691" style="stop-color:#D5CDCF"/>
		<stop  offset="0.71" style="stop-color:#B1ADAE"/>
		<stop  offset="0.7627" style="stop-color:#B9B6B7"/>
		<stop  offset="0.9047" style="stop-color:#CACBCC"/>
		<stop  offset="1" style="stop-color:#D0D2D3"/>
	</linearGradient>
	<path id="velatura_x5F_4_1_" style="fill-rule:evenodd;clip-rule:evenodd;fill:url(#velatura_x5F_4_3_);" d="M437.455,274.104
		c-0.995-0.02-1.974,0.025-2.949,0.056c-5.434-4.659-17.822-7.918-32.254-7.918c-9.576,0-18.248,1.438-24.594,3.764
		c-4.199-5.286-11.795-8.832-20.496-8.832c-6.952,0-13.194,2.269-17.572,5.872c-5.92-8.328-17.61-14.001-31.075-14.001
		c-8.601,0-16.474,2.319-22.588,6.16c-6.446-5.405-15.79-8.828-26.222-8.828c-12.352,0-23.2,4.779-29.482,11.996
		c-6.282-7.217-17.13-11.996-29.482-11.996c-12.253,0-23.033,4.699-29.338,11.819c-5.808-8.588-17.666-14.486-31.387-14.486
		c-10.4,0-19.718,3.402-26.163,8.779c-3.936-2.159-8.751-3.444-13.971-3.444c-9.777,0-18.171,4.467-21.901,10.863
		c-1.999-0.212-4.07-0.333-6.206-0.333c-15.522,0-28.106,5.908-28.106,13.197c0,0,0.005,0.029,0.005,0.044
		c-13.749,0.449-24.631,6.158-24.631,13.153c0,0.716,0.145,1.413,0.365,2.098c-0.237,0.823-0.365,1.675-0.365,2.548
		c0,6.853,7.677,12.459,17.059,12.459h425.053c9.383,0,17.059-5.607,17.059-12.459C478.213,290.808,476.088,274.87,437.455,274.104z
		"/>
	<linearGradient id="velatura_x5F_3_3_" gradientUnits="userSpaceOnUse" x1="252.8116" y1="321.2307" x2="252.8116" y2="268.2644">
		<stop  offset="0" style="stop-color:#F1F1F2"/>
		<stop  offset="0.0047" style="stop-color:#F0F1F2"/>
		<stop  offset="0.0872" style="stop-color:#E6EFF4"/>
		<stop  offset="0.19" style="stop-color:#E3EFF5"/>
	</linearGradient>
	<path id="velatura_x5F_3_1_" style="fill-rule:evenodd;clip-rule:evenodd;fill:url(#velatura_x5F_3_3_);" d="M479.872,301.627
		c-2.843-5.567-17.511-9.813-35.227-9.813c-1.011,0-2.005,0.023-2.996,0.05c-5.521-4.157-18.106-7.065-32.768-7.065
		c-9.729,0-18.538,1.283-24.986,3.358c-4.266-4.717-11.983-7.88-20.823-7.88c-7.063,0-13.404,2.025-17.852,5.24
		c-6.015-7.431-17.89-12.493-31.57-12.493c-8.738,0-16.736,2.069-22.947,5.497c-6.549-4.823-16.041-7.876-26.64-7.876
		c-12.549,0-23.569,4.264-29.952,10.704c-6.382-6.439-17.403-10.704-29.952-10.704c-12.448,0-23.4,4.193-29.805,10.545
		c-5.9-7.662-17.947-12.925-31.886-12.925c-10.566,0-20.032,3.035-26.579,7.833c-3.998-1.926-8.891-3.073-14.194-3.073
		c-9.933,0-18.461,3.985-22.249,9.692c-2.031-0.189-4.135-0.297-6.305-0.297c-15.77,0-28.554,5.272-28.554,11.775
		c0,0,0.005,0.026,0.005,0.039c-13.968,0.401-25.023,5.494-25.023,11.736c0,0.639,0,3.366,0,4.145
		c0,6.114,7.799,11.117,17.331,11.117h431.822c9.532,0,17.33-5.003,17.33-11.117C486.053,306.719,483.643,303.67,479.872,301.627z"
		/>
	<linearGradient id="velatura_x5F_2_3_" gradientUnits="userSpaceOnUse" x1="252.8116" y1="317.2668" x2="252.8116" y2="264.3004">
		<stop  offset="0.14" style="stop-color:#B5B7B9"/>
		<stop  offset="0.2209" style="stop-color:#BCBCBE"/>
		<stop  offset="0.3351" style="stop-color:#CEC8CA"/>
		<stop  offset="0.3691" style="stop-color:#D5CDCF"/>
		<stop  offset="0.71" style="stop-color:#B1ADAE"/>
		<stop  offset="0.7627" style="stop-color:#B9B6B7"/>
		<stop  offset="0.9047" style="stop-color:#CACBCC"/>
		<stop  offset="1" style="stop-color:#D0D2D3"/>
	</linearGradient>
	<path id="velatura_x5F_2_1_" style="fill-rule:evenodd;clip-rule:evenodd;fill:url(#velatura_x5F_2_3_);" d="M479.872,297.663
		c-2.843-5.567-17.511-9.813-35.227-9.813c-1.011,0-2.005,0.023-2.996,0.05c-5.521-4.157-18.106-7.065-32.768-7.065
		c-9.729,0-18.538,1.283-24.986,3.358c-4.266-4.717-11.983-7.88-20.823-7.88c-7.063,0-13.404,2.025-17.852,5.24
		c-6.015-7.431-17.89-12.493-31.57-12.493c-8.738,0-16.736,2.069-22.947,5.497c-6.549-4.823-16.041-7.876-26.64-7.876
		c-12.549,0-23.569,4.264-29.952,10.704c-6.382-6.439-17.403-10.704-29.952-10.704c-12.448,0-23.4,4.193-29.805,10.545
		c-5.9-7.662-17.947-12.925-31.886-12.925c-10.566,0-20.032,3.035-26.579,7.833c-3.998-1.926-8.891-3.073-14.194-3.073
		c-9.933,0-18.461,3.985-22.249,9.692c-2.031-0.189-4.135-0.298-6.305-0.298c-15.77,0-28.554,5.272-28.554,11.775
		c0,0.013,0.005,0.026,0.005,0.026c-13.968,0.414-25.023,5.507-25.023,11.749c0,0.639,0,3.366,0,4.145
		c0,6.114,7.799,11.117,17.331,11.117h431.822c9.532,0,17.33-5.003,17.33-11.117C486.053,302.755,483.643,299.706,479.872,297.663z"
		/>
	
		<linearGradient id="velatura_x5F_1_x5F_up_3_" gradientUnits="userSpaceOnUse" x1="248.6278" y1="309.3278" x2="248.6278" y2="260.866">
		<stop  offset="0.0182" style="stop-color:#DAE2E7"/>
		<stop  offset="0.096" style="stop-color:#E2E8EC"/>
		<stop  offset="0.3637" style="stop-color:#F7F9FA"/>
		<stop  offset="0.5376" style="stop-color:#FFFFFF"/>
		<stop  offset="1" style="stop-color:#E3E5E7"/>
	</linearGradient>
	<path id="velatura_x5F_1_x5F_up_1_" style="fill-rule:evenodd;clip-rule:evenodd;fill:url(#velatura_x5F_1_x5F_up_3_);" d="
		M468.892,292.045c0.33-6.949-14.005-9.633-31.443-9.633c-0.995,0-1.974,0.021-2.949,0.046c-5.434-3.804-17.822-6.464-32.254-6.464
		c-9.576,0-18.248,1.174-24.594,3.073c-4.199-4.316-11.795-7.21-20.496-7.21c-6.952,0-13.194,1.853-17.572,4.794
		c-5.92-6.799-17.61-11.43-31.075-11.43c-8.601,0-16.474,1.893-22.588,5.029c-6.446-4.413-15.79-7.207-26.222-7.207
		c-12.352,0-23.2,3.902-29.482,9.794c-6.282-5.892-17.13-9.794-29.482-9.794c-12.253,0-23.033,3.836-29.338,9.648
		c-5.808-7.011-17.666-11.826-31.387-11.826c-10.4,0-19.718,2.777-26.163,7.167c-3.936-1.762-8.751-2.812-13.971-2.812
		c-9.777,0-18.171,3.647-21.901,8.868c-1.999-0.173-4.07-0.272-6.206-0.272c-15.522,0-28.106,4.823-28.106,10.773
		c0,0,0.005,0.024,0.005,0.036c-13.749,0.367-24.631,5.027-24.631,10.738c0,0.584,0.145,1.153,0.365,1.712
		c-0.237,0.672-0.365,1.368-0.365,2.08c0,5.594,7.677,10.171,17.059,10.171h425.053c9.383,0,17.059-4.577,17.059-10.171
		C478.208,296.05,478.938,292.045,468.892,292.045z"/>
</g>
</svg>
