<?xml version="1.0" encoding="iso-8859-1"?>
<!-- Generator: Adobe Illustrator 18.1.0, SVG Export Plug-In . SVG Version: 6.00 Build 0)  -->
<svg version="1.1" id="VENTO_E_SOLE" xmlns="http://www.w3.org/2000/svg" xmlns:xlink="http://www.w3.org/1999/xlink" x="0px"
	 y="0px" viewBox="0 0 750 600" style="enable-background:new 0 0 750 600;" xml:space="preserve">
<g id="sole_8_">
	<linearGradient id="corona_1_" gradientUnits="userSpaceOnUse" x1="449.7592" y1="533.0319" x2="449.7592" y2="128.4397">
		<stop  offset="0" style="stop-color:#F3A51E"/>
		<stop  offset="0.5" style="stop-color:#F3B01B"/>
		<stop  offset="1" style="stop-color:#F6BE18"/>
	</linearGradient>
	<polygon id="corona_8_" style="fill:url(#corona_1_);" points="408.56,128.44 452.256,185.158 498.28,128.44 507.188,199.023 
		570.859,163.731 558.375,231.794 620.797,217.929 589.586,282.21 652.009,293.554 597.077,331.996 652.009,374.22 582.095,390.781 
		619.549,444.803 553.381,437.241 564.617,500.261 509.685,467.491 498.28,533.032 452.256,477.574 413.554,533.032 
		399.821,467.491 336.15,502.782 352.38,437.241 277.473,446.064 319.92,390.781 253.752,375.48 306.187,331.996 247.51,291.033 
		319.92,273.387 278.721,214.148 352.38,226.752 328.659,159.95 398.573,192.721 	"/>
	<path id="bordo_x5F_corona_8_" style="fill:#F7EE85;" d="M411.778,541.758l-14.424-68.839l-66.583,36.905l16.951-68.452
		l-78.181,9.209l44.209-57.575l-67.786-15.674l54.373-45.091l-61.311-42.802l75.033-18.285l-43.078-61.941l76.047,13.013
		l-24.534-69.09l73.321,34.368l10.525-67.744l45.988,59.694l48.415-59.665l9.29,73.598l65.648-36.388l-12.87,70.165l64.373-14.298
		l-32.374,66.676l66.217,12.034l-57.952,40.556l57.021,43.83l-72.125,17.085l38.951,56.182l-69.231-7.913l11.761,65.964
		l-57.174-34.108l-11.834,68.009l-47.945-57.773L411.778,541.758z M452.014,471.739l44.103,53.144l10.975-63.074l52.69,31.433
		l-10.712-60.077l63.106,7.213l-35.956-51.862l67.701-16.038l-52.841-40.618l51.911-36.329l-58.628-10.654l30.048-61.886
		l-60.472,13.432l12.099-65.959l-61.693,34.195l-8.527-67.567l-43.632,53.771l-41.404-53.743l-9.449,60.818l-66.506-31.173
		l22.908,64.514l-71.271-12.196l39.319,56.538l-69.787,17.006l56.043,39.124L261.54,373.63l64.55,14.926l-40.687,52.99l71.635-8.438
		l-15.51,62.631l60.76-33.677l13.042,62.244L452.014,471.739z"/>
	<linearGradient id="cerchio_x5F_down_1_" gradientUnits="userSpaceOnUse" x1="452.2561" y1="456.777" x2="452.2561" y2="207.2155">
		<stop  offset="0" style="stop-color:#FBCD0E"/>
		<stop  offset="1" style="stop-color:#FBEB3F"/>
	</linearGradient>
	<ellipse id="cerchio_x5F_down_8_" style="fill:url(#cerchio_x5F_down_1_);" cx="452.256" cy="331.996" rx="123.597" ry="124.781"/>
	<linearGradient id="cerchio_x5F_up_1_" gradientUnits="userSpaceOnUse" x1="452.5682" y1="451.1051" x2="452.5682" y2="213.5175">
		<stop  offset="0" style="stop-color:#FBCA0C"/>
		<stop  offset="0.6279" style="stop-color:#FBCB0E"/>
		<stop  offset="0.8538" style="stop-color:#FBCD15"/>
		<stop  offset="1" style="stop-color:#FAD01F"/>
	</linearGradient>
	<ellipse id="cerchio_x5F_up_8_" style="fill:url(#cerchio_x5F_up_1_);" cx="452.568" cy="332.311" rx="117.667" ry="118.794"/>
	<linearGradient id="ovale_x5F_luce_1_" gradientUnits="userSpaceOnUse" x1="454.1288" y1="374.22" x2="454.1288" y2="222.3404">
		<stop  offset="0" style="stop-color:#FBCD12"/>
		<stop  offset="0.1227" style="stop-color:#FBCF18"/>
		<stop  offset="0.2834" style="stop-color:#FCD328"/>
		<stop  offset="0.4651" style="stop-color:#FCDA43"/>
		<stop  offset="0.6623" style="stop-color:#FDE469"/>
		<stop  offset="0.8697" style="stop-color:#FEF099"/>
		<stop  offset="1" style="stop-color:#FFF9BB"/>
	</linearGradient>
	<ellipse id="ovale_x5F_luce_8_" style="fill:url(#ovale_x5F_luce_1_);" cx="454.129" cy="298.28" rx="91.137" ry="75.94"/>
</g>
<g id="manica_x5F_completa_1_">
	<g id="manica_1_">
		
			<linearGradient id="anello6_x5F_white_2_" gradientUnits="userSpaceOnUse" x1="448.5503" y1="224.7482" x2="446.9414" y2="316.9186" gradientTransform="matrix(1 0 0 1 202.3198 -79.9756)">
			<stop  offset="0" style="stop-color:#FFFFFF"/>
			<stop  offset="0.3268" style="stop-color:#CFD0D1"/>
			<stop  offset="0.7859" style="stop-color:#949699"/>
			<stop  offset="1" style="stop-color:#808184"/>
		</linearGradient>
		<path id="anello6_x5F_white_1_" style="fill:url(#anello6_x5F_white_2_);" d="M682.715,102.906
			c6.783,0,12.285,14.547,12.285,32.478c0,17.931-5.504,32.478-12.285,32.478l-72.966,24.586c5.828-3.764,10.27-23.694,10.27-47.685
			c0-26.7-5.504-48.346-12.285-48.346l0.078-0.826L682.715,102.906z"/>
		
			<linearGradient id="anello5_x5F_red_2_" gradientUnits="userSpaceOnUse" x1="374.9181" y1="234.5258" x2="374.9181" y2="324.9096" gradientTransform="matrix(1 0 0 1 202.3198 -79.9756)">
			<stop  offset="0" style="stop-color:#E22527"/>
			<stop  offset="0.1137" style="stop-color:#D22327"/>
			<stop  offset="0.7185" style="stop-color:#89191B"/>
			<stop  offset="1" style="stop-color:#711212"/>
		</linearGradient>
		<path id="anello5_x5F_red_1_" style="fill:url(#anello5_x5F_red_2_);" d="M607.796,193.108l-72.854,24.536
			c6.332-5.779,13.396-32.412,13.396-64.394c0-32.807-7.442-59.969-13.882-64.807l73.356,7.15l-0.078,0.826
			c6.783,0,12.285,21.646,12.285,48.346c0,23.991-4.442,43.92-10.27,47.685L607.796,193.108z"/>
		
			<linearGradient id="anello4_x5F_white_2_" gradientUnits="userSpaceOnUse" x1="299.8274" y1="242.9453" x2="298.1532" y2="338.8629" gradientTransform="matrix(1 0 0 1 202.3198 -79.9756)">
			<stop  offset="0" style="stop-color:#FFFFFF"/>
			<stop  offset="0.3268" style="stop-color:#CFD0D1"/>
			<stop  offset="0.7859" style="stop-color:#949699"/>
			<stop  offset="1" style="stop-color:#808184"/>
		</linearGradient>
		<path id="anello4_x5F_white_1_" style="fill:url(#anello4_x5F_white_2_);" d="M534.456,88.442c6.44,4.838,13.882,32,13.882,64.807
			c0,31.983-7.067,58.615-13.396,64.394l-76.591,25.808c6.252-3.847,11.145-38.687,11.145-81.104
			c0-44.267-5.327-80.312-11.97-81.418l76.919,7.496L534.456,88.442z"/>
		
			<linearGradient id="anello3_x5F_red_2_" gradientUnits="userSpaceOnUse" x1="223.1286" y1="265.889" x2="223.1286" y2="358.9451" gradientTransform="matrix(1 0 0 1 202.3198 -79.9756)">
			<stop  offset="0" style="stop-color:#E22527"/>
			<stop  offset="0.1137" style="stop-color:#D22327"/>
			<stop  offset="0.7185" style="stop-color:#89191B"/>
			<stop  offset="1" style="stop-color:#711212"/>
		</linearGradient>
		<path id="anello3_x5F_red_1_" style="fill:url(#anello3_x5F_red_2_);" d="M457.366,243.781l-75.465,25.427l-0.498-1.651
			c6.987-2.179,20.006-37.728,20.006-89.789c0-50.475-12.237-98.523-19.349-104.203l75.151,7.331c0.108,0,0.22,0.016,0.313,0.033
			c6.643,1.106,11.97,37.151,11.97,81.418c0,42.418-4.892,77.257-11.144,81.104L457.366,243.781z"/>
		
			<linearGradient id="anello2_x5F_white_2_" gradientUnits="userSpaceOnUse" x1="147.5611" y1="264.8893" x2="147.5611" y2="373.7497" gradientTransform="matrix(1 0 0 1 202.3198 -79.9756)">
			<stop  offset="0" style="stop-color:#FFFFFF"/>
			<stop  offset="0.3268" style="stop-color:#CFD0D1"/>
			<stop  offset="0.7859" style="stop-color:#949699"/>
			<stop  offset="1" style="stop-color:#808184"/>
		</linearGradient>
		<path id="anello2_x5F_white_1_" style="fill:url(#anello2_x5F_white_2_);" d="M381.401,267.557l0.498,1.651l-83.234,28.037
			l-0.313-1.057c8.349-2.889,23.339-50.162,23.339-112.096c0-59.904-14.023-112.262-22.495-118.618l82.861,8.09
			c7.112,5.68,19.351,53.728,19.351,104.203C401.409,229.829,388.388,265.378,381.401,267.557z"/>
		
			<linearGradient id="anello1_x5F_red_2_" gradientUnits="userSpaceOnUse" x1="74.7227" y1="276.3492" x2="74.7227" y2="370.6792" gradientTransform="matrix(1 0 0 1 202.3198 -79.9756)">
			<stop  offset="0" style="stop-color:#E22527"/>
			<stop  offset="0.1137" style="stop-color:#D22327"/>
			<stop  offset="0.7185" style="stop-color:#89191B"/>
			<stop  offset="1" style="stop-color:#711212"/>
		</linearGradient>
		<path id="anello1_x5F_red_1_" style="fill:url(#anello1_x5F_red_2_);" d="M298.355,296.189l0.313,1.057l-64.305,21.662
			c11.332-7.496,20.117-62.66,20.117-129.564c0-70.785-9.832-128.376-22.086-130.391l66.804,6.522
			c8.473,6.356,22.495,58.714,22.495,118.618C321.692,246.026,306.702,293.299,298.355,296.189z"/>
		<path id="buco_1_" style="fill:#88181C;" d="M209.275,167.862c1.782-61.835,11.161-108.975,22.444-108.975l0.674,0.066
			c12.254,2.015,22.086,59.606,22.086,130.391c0,66.904-8.785,122.068-20.117,129.564l-2.641,0.892
			c-12.567,0-22.759-58.417-22.759-130.456L209.275,167.862z"/>
		<path id="anello_x5F_aggancio_1_" d="M232.361,323.686h-0.641c-5.452,0-13.449-4.295-19.928-41.433
			c-4.336-24.856-6.724-57.852-6.724-92.91l0.313-21.538c0.876-30.39,3.623-58.211,7.737-78.394
			C219.406,58.567,226.745,55,231.719,55l0.383,0.019l0.925,0.099c2.955,0.486,11.946,1.964,18.844,42.592
			c4.194,24.696,6.503,57.239,6.503,91.634c0,56.998-6.841,122.869-21.86,132.804l-0.423,0.28L232.361,323.686z M231.626,62.782
			c-1.272,0.249-6.228,5.376-10.876,28.179c-4.028,19.759-6.721,47.11-7.582,77.013l-0.312,21.426
			c0,34.568,2.348,67.091,6.609,91.52c4.705,26.966,10.114,34.02,11.906,34.895l1.163-0.393c1.732-1.469,7.422-8.512,12.289-39.618
			c3.716-23.75,5.762-54.456,5.762-86.461c0-33.973-2.27-66.054-6.393-90.335c-4.832-28.459-10.482-35.734-12.358-36.206
			L231.626,62.782z"/>
	</g>
	<path id="cordino_1_" d="M228.397,323.383c-1.411,0-2.81-0.609-3.772-1.785L114.074,186.542L224.064,57.821
		c1.745-2.041,4.817-2.286,6.862-0.545c2.046,1.741,2.29,4.807,0.546,6.848L126.754,186.675l105.41,128.777
		c1.701,2.078,1.392,5.138-0.69,6.835C230.569,323.025,229.48,323.383,228.397,323.383z"/>
	<path id="gancio_1_" d="M126.448,187.27c0,5.478-6.229,9.919-13.913,9.919s-21.148-9.919-21.148-9.919s13.464-9.919,21.148-9.919
		S126.448,181.792,126.448,187.27z"/>
	<path id="ombra2_x5F_attacco_1_" d="M93.595,198.18H61.354c-3.299,0-5.997-2.699-5.997-5.997v-5.528
		c0-3.299,2.699-5.997,5.997-5.997h32.241c3.299,0,5.997,2.699,5.997,5.997v5.528C99.593,195.481,96.894,198.18,93.595,198.18z"/>
	<linearGradient id="palo_2_" gradientUnits="userSpaceOnUse" x1="62.4636" y1="335.0565" x2="91.3876" y2="335.0565">
		<stop  offset="0" style="stop-color:#FFFFFF"/>
		<stop  offset="0.2983" style="stop-color:#9B9B9B"/>
		<stop  offset="0.4649" style="stop-color:#676767"/>
		<stop  offset="0.5156" style="stop-color:#585858"/>
		<stop  offset="0.6129" style="stop-color:#313131"/>
		<stop  offset="0.7191" style="stop-color:#000000"/>
		<stop  offset="1" style="stop-color:#4D4E4E"/>
	</linearGradient>
	<path id="palo_1_" style="fill:url(#palo_2_);" d="M84.256,545h-14.66c-3.923,0-7.132-3.209-7.132-7.132V132.245
		c0-3.923,3.209-7.132,7.132-7.132h14.66c3.923,0,7.132,3.209,7.132,7.132v405.623C91.388,541.791,88.178,545,84.256,545z"/>
	<rect id="ombra1_x5F_attacco_1_" x="62.464" y="189.303" width="28.924" height="7.505"/>
	<linearGradient id="attacco_2_" gradientUnits="userSpaceOnUse" x1="55" y1="184.5419" x2="99.5926" y2="184.5419">
		<stop  offset="0" style="stop-color:#FFFFFF"/>
		<stop  offset="0.0179" style="stop-color:#EEEEEE"/>
		<stop  offset="0.0671" style="stop-color:#C5C5C5"/>
		<stop  offset="0.1176" style="stop-color:#A3A3A3"/>
		<stop  offset="0.1687" style="stop-color:#898989"/>
		<stop  offset="0.221" style="stop-color:#767676"/>
		<stop  offset="0.2749" style="stop-color:#6B6B6B"/>
		<stop  offset="0.3332" style="stop-color:#676767"/>
		<stop  offset="0.4102" style="stop-color:#585858"/>
		<stop  offset="0.5578" style="stop-color:#313131"/>
		<stop  offset="0.7191" style="stop-color:#000000"/>
		<stop  offset="1" style="stop-color:#4D4E4E"/>
	</linearGradient>
	<path id="attacco_1_" style="fill:url(#attacco_2_);" d="M92.94,173.383H61.653c-3.659,0-6.653,2.752-6.653,6.116v12.233
		c0,1.512,0.608,2.897,1.606,3.967c1.223-1.312,3.032-2.149,5.047-2.149H92.94c2.015,0,3.824,0.837,5.047,2.149
		c0.998-1.07,1.606-2.456,1.606-3.967V179.5C99.593,176.136,96.599,173.383,92.94,173.383z"/>
</g>
</svg>
