<?xml version="1.0" encoding="iso-8859-1"?>
<!-- Generator: Adobe Illustrator 18.1.0, SVG Export Plug-In . SVG Version: 6.00 Build 0)  -->
<svg version="1.1" id="VENTO_E_NUVOLA" xmlns="http://www.w3.org/2000/svg" xmlns:xlink="http://www.w3.org/1999/xlink" x="0px"
	 y="0px" viewBox="0 0 750 600" style="enable-background:new 0 0 750 600;" xml:space="preserve">
<g id="nube_x5F_grande_x5F_vento">
	
		<linearGradient id="nube_x5F_5_x5F_down_x1F__x5F_GR-VE_1_" gradientUnits="userSpaceOnUse" x1="458.9083" y1="514.9851" x2="458.9083" y2="239.9822">
		<stop  offset="0" style="stop-color:#7D7E80"/>
		<stop  offset="0.3555" style="stop-color:#DFE0E1"/>
		<stop  offset="0.6505" style="stop-color:#D8D0D4"/>
		<stop  offset="1" style="stop-color:#F1F1F2"/>
	</linearGradient>
	
		<path id="nube_x5F_5_x5F_down_x1F__x5F_GR-VE" style="fill-rule:evenodd;clip-rule:evenodd;fill:url(#nube_x5F_5_x5F_down_x1F__x5F_GR-VE_1_);" d="
		M510.314,281.611c0,0-25.732-41.629-84.519-41.629c-115.717,0-127.901,98.718-127.901,98.718s-71.367,8.062-71.413,82.946
		c-0.031,51.102,26.58,73.628,44.152,83.878c7.569,4.415,14.902,9.461,45.413,9.461c6.938,0,237.158,0,280.049,0
		c41.629,0,49.866-8.076,56.767-12.615c15.813-10.401,38.476-33.366,38.475-82.563c-0.001-74.723-79.165-82.193-79.165-82.193
		s-0.18-26.966-31.846-48.434C545.255,265.404,510.314,281.611,510.314,281.611z"/>
	
		<linearGradient id="nube_x5F_4_x1F__x5F_GR-VE_1_" gradientUnits="userSpaceOnUse" x1="459.0699" y1="501.7612" x2="459.0699" y2="264.2997">
		<stop  offset="0" style="stop-color:#F1F1F2"/>
		<stop  offset="0.0047" style="stop-color:#F0F1F2"/>
		<stop  offset="0.0872" style="stop-color:#E6EFF4"/>
		<stop  offset="0.19" style="stop-color:#E3EFF5"/>
	</linearGradient>
	<path id="nube_x5F_4_x1F__x5F_GR-VE" style="fill-rule:evenodd;clip-rule:evenodd;fill:url(#nube_x5F_4_x1F__x5F_GR-VE_1_);" d="
		M503.376,301.795c0,0-39.731-54.545-119.637-32.06c-71.852,20.22-68.955,79.996-68.955,79.996s-70.344,7.849-72.463,73.489
		c-1.965,60.858,35.249,70.95,40.295,73.473c6.285,3.143,12.615,5.046,27.706,5.068l302.802-0.022c8.2,0,8.2,0,16.399-2.523
		c8.694-2.675,50.459-20.814,46.044-68.751c-6.01-65.257-73.797-71.274-73.797-71.274s3.771-28.631-26.491-50.459
		C542.623,285.178,503.376,301.795,503.376,301.795z"/>
	
		<linearGradient id="nube_x5F_3_x5F_GR-VE_1_" gradientUnits="userSpaceOnUse" x1="458.9064" y1="484.0788" x2="458.9064" y2="248.8717">
		<stop  offset="0.14" style="stop-color:#A8ABAD"/>
		<stop  offset="0.2046" style="stop-color:#AFB0B2"/>
		<stop  offset="0.2957" style="stop-color:#C1BEC0"/>
		<stop  offset="0.3691" style="stop-color:#D5CDCF"/>
		<stop  offset="0.71" style="stop-color:#B1ADAE"/>
		<stop  offset="0.7627" style="stop-color:#B9B6B7"/>
		<stop  offset="0.9047" style="stop-color:#CACBCC"/>
		<stop  offset="1" style="stop-color:#D0D2D3"/>
	</linearGradient>
	<path id="nube_x5F_3_x5F_GR-VE" style="fill-rule:evenodd;clip-rule:evenodd;fill:url(#nube_x5F_3_x5F_GR-VE_1_);" d="
		M507.584,297.38c0,0-39.879-65.061-117.39-44.486c-69.699,18.502-77.345,93.053-77.345,93.053s-70.847,6.14-69.969,66.228
		c0.609,41.723,33.666,60.772,49.852,67.71c6.201,2.658,12.977,4.195,19.896,4.195h301.817c7.642,0,14.794-2.38,21.387-5.677
		c6.307-3.154,38.736-15.139,39.106-58.028c0.629-72.857-69.381-66.858-69.381-66.858s0.236-33.337-29.119-53.31
		C544.758,278.652,507.584,297.38,507.584,297.38z"/>
	
		<linearGradient id="nube_x5F_2_x5F_GR-VE_1_" gradientUnits="userSpaceOnUse" x1="460.4456" y1="465.9837" x2="460.4456" y2="265.2019">
		<stop  offset="0.25" style="stop-color:#DFD8D9"/>
		<stop  offset="0.2536" style="stop-color:#E0D9DA"/>
		<stop  offset="0.3445" style="stop-color:#EEEAEB"/>
		<stop  offset="0.4557" style="stop-color:#F8F6F6"/>
		<stop  offset="0.609" style="stop-color:#FDFDFD"/>
		<stop  offset="1" style="stop-color:#FFFFFF"/>
	</linearGradient>
	<path id="nube_x5F_2_x5F_GR-VE" style="fill-rule:evenodd;clip-rule:evenodd;fill:url(#nube_x5F_2_x5F_GR-VE_1_);" d="
		M350.736,426.681c0,0,15.784,25.904,52.351,25.23c38.674-0.714,56.767-28.383,56.767-28.383s6.835,30.232,50.459,30.906
		c35.922,0.556,44.152-24.599,44.152-24.599s9.175,41.218,63.705,37.844c14.155-0.876,48.227-14.074,48.567-47.016
		c0.642-62.08-70.012-58.948-70.012-58.948s0-21.445-19.553-42.26c-28.86-30.722-75.689-10.092-75.689-10.092
		s-22.51-44.077-89.043-42.212c-80.493,2.254-91.98,88.256-91.98,88.256s-69.036-2.567-66.228,58.508
		c1.892,41.149,34.564,44.934,55.505,44.934C338.607,458.849,350.736,426.681,350.736,426.681z"/>
	
		<linearGradient id="nube_x5F_1_x5F_up_x5F_GR-VE_1_" gradientUnits="userSpaceOnUse" x1="458.9083" y1="468.6389" x2="458.9083" y2="289.8095">
		<stop  offset="0.0182" style="stop-color:#BBC3C9"/>
		<stop  offset="0.21" style="stop-color:#C6CCD1"/>
		<stop  offset="0.6888" style="stop-color:#DBDEE1"/>
		<stop  offset="1" style="stop-color:#E3E5E7"/>
	</linearGradient>
	
		<path id="nube_x5F_1_x5F_up_x5F_GR-VE" style="fill-rule:evenodd;clip-rule:evenodd;fill:url(#nube_x5F_1_x5F_up_x5F_GR-VE_1_);" d="
		M353.257,447.842c0,0,20.219,20.109,54.956,19.468c36.739-0.678,50.582-19.871,50.582-19.871s14.936,20.872,54.672,20.872
		c34.303,0,48.567-20.814,48.567-20.814s7.569,21.445,46.044,20.814c37.845-0.62,49.828-18.922,49.828-39.106
		c0-48.119-67.489-40.367-67.489-40.367s2.996-33.594-20.184-53.613c-27.753-23.968-69.381-6.307-69.381-6.307
		s-22.553-39.737-85.781-39.737c-80.104,0-92.719,89.565-92.719,89.565s-62.443-13.278-62.443,41.629
		c0,34.691,29.305,44.152,49.198,44.152C336.532,464.526,353.257,447.842,353.257,447.842z"/>
</g>
<g id="manica_x5F_completa_2_">
	<g id="manica_2_">
		
			<linearGradient id="anello6_x5F_white_1_" gradientUnits="userSpaceOnUse" x1="448.5503" y1="224.7482" x2="446.9414" y2="316.9186" gradientTransform="matrix(1 0 0 1 202.3198 -79.9756)">
			<stop  offset="0" style="stop-color:#FFFFFF"/>
			<stop  offset="0.3268" style="stop-color:#CFD0D1"/>
			<stop  offset="0.7859" style="stop-color:#949699"/>
			<stop  offset="1" style="stop-color:#808184"/>
		</linearGradient>
		<path id="anello6_x5F_white_2_" style="fill:url(#anello6_x5F_white_1_);" d="M682.715,102.906
			c6.783,0,12.285,14.547,12.285,32.478c0,17.931-5.504,32.478-12.285,32.478l-72.966,24.586c5.828-3.764,10.27-23.694,10.27-47.685
			c0-26.7-5.504-48.346-12.285-48.346l0.078-0.826L682.715,102.906z"/>
		
			<linearGradient id="anello5_x5F_red_1_" gradientUnits="userSpaceOnUse" x1="374.9181" y1="234.5258" x2="374.9181" y2="324.9096" gradientTransform="matrix(1 0 0 1 202.3198 -79.9756)">
			<stop  offset="0" style="stop-color:#E22527"/>
			<stop  offset="0.1137" style="stop-color:#D22327"/>
			<stop  offset="0.7185" style="stop-color:#89191B"/>
			<stop  offset="1" style="stop-color:#711212"/>
		</linearGradient>
		<path id="anello5_x5F_red_2_" style="fill:url(#anello5_x5F_red_1_);" d="M607.796,193.108l-72.854,24.536
			c6.332-5.779,13.396-32.412,13.396-64.394c0-32.807-7.442-59.969-13.882-64.807l73.356,7.15l-0.078,0.826
			c6.783,0,12.285,21.646,12.285,48.346c0,23.991-4.442,43.92-10.27,47.685L607.796,193.108z"/>
		
			<linearGradient id="anello4_x5F_white_1_" gradientUnits="userSpaceOnUse" x1="299.8274" y1="242.9453" x2="298.1532" y2="338.8629" gradientTransform="matrix(1 0 0 1 202.3198 -79.9756)">
			<stop  offset="0" style="stop-color:#FFFFFF"/>
			<stop  offset="0.3268" style="stop-color:#CFD0D1"/>
			<stop  offset="0.7859" style="stop-color:#949699"/>
			<stop  offset="1" style="stop-color:#808184"/>
		</linearGradient>
		<path id="anello4_x5F_white_2_" style="fill:url(#anello4_x5F_white_1_);" d="M534.456,88.442c6.44,4.838,13.882,32,13.882,64.807
			c0,31.983-7.067,58.615-13.396,64.394l-76.591,25.808c6.252-3.847,11.145-38.687,11.145-81.104
			c0-44.267-5.327-80.312-11.97-81.418l76.919,7.496L534.456,88.442z"/>
		
			<linearGradient id="anello3_x5F_red_1_" gradientUnits="userSpaceOnUse" x1="223.1286" y1="265.889" x2="223.1286" y2="358.9451" gradientTransform="matrix(1 0 0 1 202.3198 -79.9756)">
			<stop  offset="0" style="stop-color:#E22527"/>
			<stop  offset="0.1137" style="stop-color:#D22327"/>
			<stop  offset="0.7185" style="stop-color:#89191B"/>
			<stop  offset="1" style="stop-color:#711212"/>
		</linearGradient>
		<path id="anello3_x5F_red_2_" style="fill:url(#anello3_x5F_red_1_);" d="M457.366,243.781l-75.465,25.427l-0.498-1.651
			c6.987-2.179,20.006-37.728,20.006-89.789c0-50.475-12.237-98.523-19.349-104.203l75.151,7.331c0.108,0,0.22,0.016,0.313,0.033
			c6.643,1.106,11.97,37.151,11.97,81.418c0,42.418-4.892,77.257-11.144,81.104L457.366,243.781z"/>
		
			<linearGradient id="anello2_x5F_white_1_" gradientUnits="userSpaceOnUse" x1="147.5611" y1="264.8893" x2="147.5611" y2="373.7497" gradientTransform="matrix(1 0 0 1 202.3198 -79.9756)">
			<stop  offset="0" style="stop-color:#FFFFFF"/>
			<stop  offset="0.3268" style="stop-color:#CFD0D1"/>
			<stop  offset="0.7859" style="stop-color:#949699"/>
			<stop  offset="1" style="stop-color:#808184"/>
		</linearGradient>
		<path id="anello2_x5F_white_2_" style="fill:url(#anello2_x5F_white_1_);" d="M381.401,267.557l0.498,1.651l-83.234,28.037
			l-0.313-1.057c8.349-2.889,23.339-50.162,23.339-112.096c0-59.904-14.023-112.262-22.495-118.618l82.861,8.09
			c7.112,5.68,19.351,53.728,19.351,104.203C401.409,229.829,388.388,265.378,381.401,267.557z"/>
		
			<linearGradient id="anello1_x5F_red_1_" gradientUnits="userSpaceOnUse" x1="74.7227" y1="276.3492" x2="74.7227" y2="370.6792" gradientTransform="matrix(1 0 0 1 202.3198 -79.9756)">
			<stop  offset="0" style="stop-color:#E22527"/>
			<stop  offset="0.1137" style="stop-color:#D22327"/>
			<stop  offset="0.7185" style="stop-color:#89191B"/>
			<stop  offset="1" style="stop-color:#711212"/>
		</linearGradient>
		<path id="anello1_x5F_red_2_" style="fill:url(#anello1_x5F_red_1_);" d="M298.355,296.189l0.313,1.057l-64.305,21.662
			c11.332-7.496,20.117-62.66,20.117-129.564c0-70.785-9.832-128.376-22.086-130.391l66.804,6.522
			c8.473,6.356,22.495,58.714,22.495,118.618C321.692,246.026,306.702,293.299,298.355,296.189z"/>
		<path id="buco_2_" style="fill:#88181C;" d="M209.275,167.862c1.782-61.835,11.161-108.975,22.444-108.975l0.674,0.066
			c12.254,2.015,22.086,59.606,22.086,130.391c0,66.904-8.785,122.068-20.117,129.564l-2.641,0.892
			c-12.567,0-22.759-58.417-22.759-130.456L209.275,167.862z"/>
		<path id="anello_x5F_aggancio_2_" d="M232.361,323.686h-0.641c-5.452,0-13.449-4.295-19.928-41.433
			c-4.336-24.856-6.724-57.852-6.724-92.91l0.313-21.538c0.876-30.39,3.623-58.211,7.737-78.394
			C219.406,58.567,226.745,55,231.719,55l0.383,0.019l0.925,0.099c2.955,0.486,11.946,1.964,18.844,42.592
			c4.194,24.696,6.503,57.239,6.503,91.634c0,56.998-6.841,122.869-21.86,132.804l-0.423,0.28L232.361,323.686z M231.626,62.782
			c-1.272,0.249-6.228,5.376-10.876,28.179c-4.028,19.759-6.721,47.11-7.582,77.013l-0.312,21.426
			c0,34.568,2.348,67.091,6.609,91.52c4.705,26.966,10.114,34.02,11.906,34.895l1.163-0.393c1.732-1.469,7.422-8.512,12.289-39.618
			c3.716-23.75,5.762-54.456,5.762-86.461c0-33.973-2.27-66.054-6.393-90.335c-4.832-28.459-10.482-35.734-12.358-36.206
			L231.626,62.782z"/>
	</g>
	<path id="cordino_2_" d="M228.397,323.383c-1.411,0-2.81-0.609-3.772-1.785L114.074,186.542L224.064,57.821
		c1.745-2.041,4.817-2.286,6.862-0.545c2.046,1.741,2.29,4.807,0.546,6.848L126.754,186.675l105.41,128.777
		c1.701,2.078,1.392,5.138-0.69,6.835C230.569,323.025,229.48,323.383,228.397,323.383z"/>
	<path id="gancio_2_" d="M126.448,187.27c0,5.478-6.229,9.919-13.913,9.919s-21.148-9.919-21.148-9.919s13.464-9.919,21.148-9.919
		S126.448,181.792,126.448,187.27z"/>
	<path id="ombra2_x5F_attacco_2_" d="M93.595,198.18H61.354c-3.299,0-5.997-2.699-5.997-5.997v-5.528
		c0-3.299,2.699-5.997,5.997-5.997h32.241c3.299,0,5.997,2.699,5.997,5.997v5.528C99.593,195.481,96.894,198.18,93.595,198.18z"/>
	<linearGradient id="palo_1_" gradientUnits="userSpaceOnUse" x1="62.4636" y1="335.0565" x2="91.3876" y2="335.0565">
		<stop  offset="0" style="stop-color:#FFFFFF"/>
		<stop  offset="0.2983" style="stop-color:#9B9B9B"/>
		<stop  offset="0.4649" style="stop-color:#676767"/>
		<stop  offset="0.5156" style="stop-color:#585858"/>
		<stop  offset="0.6129" style="stop-color:#313131"/>
		<stop  offset="0.7191" style="stop-color:#000000"/>
		<stop  offset="1" style="stop-color:#4D4E4E"/>
	</linearGradient>
	<path id="palo_2_" style="fill:url(#palo_1_);" d="M84.256,545h-14.66c-3.923,0-7.132-3.209-7.132-7.132V132.245
		c0-3.923,3.209-7.132,7.132-7.132h14.66c3.923,0,7.132,3.209,7.132,7.132v405.623C91.388,541.791,88.178,545,84.256,545z"/>
	<rect id="ombra1_x5F_attacco_2_" x="62.464" y="189.303" width="28.924" height="7.505"/>
	<linearGradient id="attacco_1_" gradientUnits="userSpaceOnUse" x1="55" y1="184.5419" x2="99.5926" y2="184.5419">
		<stop  offset="0" style="stop-color:#FFFFFF"/>
		<stop  offset="0.0179" style="stop-color:#EEEEEE"/>
		<stop  offset="0.0671" style="stop-color:#C5C5C5"/>
		<stop  offset="0.1176" style="stop-color:#A3A3A3"/>
		<stop  offset="0.1687" style="stop-color:#898989"/>
		<stop  offset="0.221" style="stop-color:#767676"/>
		<stop  offset="0.2749" style="stop-color:#6B6B6B"/>
		<stop  offset="0.3332" style="stop-color:#676767"/>
		<stop  offset="0.4102" style="stop-color:#585858"/>
		<stop  offset="0.5578" style="stop-color:#313131"/>
		<stop  offset="0.7191" style="stop-color:#000000"/>
		<stop  offset="1" style="stop-color:#4D4E4E"/>
	</linearGradient>
	<path id="attacco_2_" style="fill:url(#attacco_1_);" d="M92.94,173.383H61.653c-3.659,0-6.653,2.752-6.653,6.116v12.233
		c0,1.512,0.608,2.897,1.606,3.967c1.223-1.312,3.032-2.149,5.047-2.149H92.94c2.015,0,3.824,0.837,5.047,2.149
		c0.998-1.07,1.606-2.456,1.606-3.967V179.5C99.593,176.136,96.599,173.383,92.94,173.383z"/>
</g>
</svg>
