<?xml version="1.0" encoding="iso-8859-1"?>
<!-- Generator: Adobe Illustrator 18.1.0, SVG Export Plug-In . SVG Version: 6.00 Build 0)  -->
<svg version="1.1" id="PIOGGIA_x5F_DEBOLE" xmlns="http://www.w3.org/2000/svg" xmlns:xlink="http://www.w3.org/1999/xlink" x="0px"
	 y="0px" viewBox="0 0 750 600" style="enable-background:new 0 0 750 600;" xml:space="preserve">
<g id="nube_x5F_grande_x5F_scura_2_">
	
		<linearGradient id="nube_x5F_5_x5F_down_x5F_GR-SC_1_" gradientUnits="userSpaceOnUse" x1="375" y1="380.7032" x2="375" y2="82.7031">
		<stop  offset="0" style="stop-color:#555658"/>
		<stop  offset="0.3555" style="stop-color:#CFD0D2"/>
		<stop  offset="0.6505" style="stop-color:#D8D0D4"/>
		<stop  offset="1" style="stop-color:#F1F1F2"/>
	</linearGradient>
	
		<path id="nube_x5F_5_x5F_down_x5F_GR-SC_2_" style="fill-rule:evenodd;clip-rule:evenodd;fill:url(#nube_x5F_5_x5F_down_x5F_GR-SC_1_);" d="
		M432.888,127.813c0,0-28.977-45.11-95.177-45.11c-130.309,0-144.029,106.973-144.029,106.973s-80.366,8.737-80.419,89.882
		c-0.035,55.376,29.932,79.785,49.719,90.892c8.523,4.784,16.781,10.252,51.14,10.252c7.813,0,267.065,0,315.363,0
		c46.878,0,56.154-8.751,63.925-13.67c17.807-11.271,43.328-36.156,43.327-89.468c-0.001-80.972-89.148-89.066-89.148-89.066
		s-0.202-29.221-35.861-52.484C472.236,110.251,432.888,127.813,432.888,127.813z"/>
	
		<linearGradient id="nube_x5F_4_x5F_GR-SC_1_" gradientUnits="userSpaceOnUse" x1="375.1819" y1="366.3048" x2="375.1819" y2="109.0478">
		<stop  offset="0" style="stop-color:#838587"/>
		<stop  offset="0.2491" style="stop-color:#E3EFF5"/>
	</linearGradient>
	<path id="nube_x5F_4_x5F_GR-SC_2_" style="fill-rule:evenodd;clip-rule:evenodd;fill:url(#nube_x5F_4_x5F_GR-SC_1_);" d="
		M425.075,149.669c0,0-44.741-59.092-134.723-34.732c-80.913,21.905-77.65,86.665-77.65,86.665s-79.214,8.504-81.601,79.616
		c-2.212,65.932,39.694,76.865,45.376,79.598c7.078,3.405,14.206,5.467,31.199,5.49l340.986-0.023c9.234,0,9.234,0,18.467-2.733
		c9.791-2.898,56.822-22.55,51.85-74.482c-6.768-70.697-83.103-77.215-83.103-77.215s4.246-31.018-29.832-54.666
		C469.271,131.667,425.075,149.669,425.075,149.669z"/>
	
		<linearGradient id="nube_x5F_3_x5F_GR-SC_1_" gradientUnits="userSpaceOnUse" x1="374.9955" y1="347.1484" x2="374.9955" y2="97.2008">
		<stop  offset="0" style="stop-color:#58595B"/>
		<stop  offset="0.0563" style="stop-color:#5F5F61"/>
		<stop  offset="0.1359" style="stop-color:#717072"/>
		<stop  offset="0.2296" style="stop-color:#908C8F"/>
		<stop  offset="0.3331" style="stop-color:#BAB3B6"/>
		<stop  offset="0.3691" style="stop-color:#CAC2C5"/>
		<stop  offset="0.71" style="stop-color:#B1ADAE"/>
		<stop  offset="0.8042" style="stop-color:#ABAAAC"/>
		<stop  offset="1" style="stop-color:#A4A7A9"/>
	</linearGradient>
	<path id="nube_x5F_3_x5F_GR-SC_2_" style="fill-rule:evenodd;clip-rule:evenodd;fill:url(#nube_x5F_3_x5F_GR-SC_1_);" d="
		M429.813,144.885c0,0-45.304-65.339-132.589-43.049c-78.488,20.044-86.703,95.665-86.703,95.665s-79.78,6.652-78.792,71.749
		c0.686,45.201,37.911,65.838,56.138,73.354c6.982,2.879,14.613,4.544,22.404,4.544h339.877c8.605,0,16.66-2.578,24.084-6.15
		c7.103-3.417,44.037-16.4,44.037-62.866c0-64.964-78.131-72.432-78.131-72.432s-1.747-31.66-34.804-53.299
		C469.663,129.052,429.813,144.885,429.813,144.885z"/>
	
		<linearGradient id="nube_x5F_2_x5F_GR-SC_1_" gradientUnits="userSpaceOnUse" x1="376.7311" y1="327.5448" x2="376.7311" y2="110.0252">
		<stop  offset="0.25" style="stop-color:#DFD8D9"/>
		<stop  offset="0.2968" style="stop-color:#E0DBDC"/>
		<stop  offset="0.4947" style="stop-color:#E2E2E3"/>
		<stop  offset="1" style="stop-color:#E3E4E5"/>
	</linearGradient>
	<path id="nube_x5F_2_x5F_GR-SC_2_" style="fill-rule:evenodd;clip-rule:evenodd;fill:url(#nube_x5F_2_x5F_GR-SC_1_);" d="
		M253.187,284.966c0,0,17.775,28.064,58.953,27.333c43.551-0.773,63.925-30.749,63.925-30.749s7.697,32.752,56.822,33.483
		c40.452,0.602,49.719-26.65,49.719-26.65s10.332,44.654,71.738,40.999c15.94-0.949,54.308-15.247,54.691-50.936
		c0.722-67.255-78.841-63.862-78.841-63.862s0-23.233-22.019-45.783c-32.5-33.284-85.233-10.933-85.233-10.933
		s-25.349-47.751-100.271-45.731c-90.643,2.442-103.579,95.613-103.579,95.613s-77.742-2.781-74.579,63.385
		c2.131,44.58,38.922,48.68,62.504,48.68C239.528,319.816,253.187,284.966,253.187,284.966z"/>
	
		<linearGradient id="nube_x5F_1_x5F_up_x5F_GR-SC_1_" gradientUnits="userSpaceOnUse" x1="375" y1="330.4213" x2="375" y2="136.6842">
		<stop  offset="0.0074" style="stop-color:#8D9498"/>
		<stop  offset="0.2497" style="stop-color:#9DA2A6"/>
		<stop  offset="0.7168" style="stop-color:#B6B9BD"/>
		<stop  offset="1" style="stop-color:#BFC2C5"/>
	</linearGradient>
	
		<path id="nube_x5F_1_x5F_up_x5F_GR-SC_2_" style="fill-rule:evenodd;clip-rule:evenodd;fill:url(#nube_x5F_1_x5F_up_x5F_GR-SC_1_);" d="
		M256.026,307.89c0,0,22.768,21.785,61.886,21.09c41.372-0.734,56.961-21.528,56.961-21.528s16.819,22.612,61.567,22.612
		c38.629,0,54.691-22.55,54.691-22.55s8.523,23.233,51.85,22.55c42.617-0.672,56.112-20.5,56.112-42.366
		c0-52.13-76-43.733-76-43.733s3.374-36.395-22.729-58.082c-31.252-25.966-78.131-6.833-78.131-6.833s-25.397-43.049-96.598-43.049
		c-90.205,0-104.411,97.032-104.411,97.032s-70.318-14.385-70.318,45.099c0,37.583,33,47.832,55.402,47.832
		C237.191,325.965,256.026,307.89,256.026,307.89z"/>
</g>
<g id="goccia_x5F_flat">
	<path id="goccia_x5F_scura_x5F_down_10_" style="fill:#626B6E;" d="M398.303,390.134c0,0,5.533,83.169-3.382,103.628
		c-7.203,16.531-25.012,27.187-48.102,22.331c-16.048-3.375-45.814-24.632-34.194-55.98
		C324.517,428.031,398.303,390.134,398.303,390.134z"/>
	<path id="goccia_x5F_intermedia_10_" style="fill:#949FA2;" d="M394.559,396.181c0,0,4.659,67.909-2.848,84.614
		c-6.065,13.497-21.064,22.203-40.506,18.234c-20.534-4.192-38.58-20.113-28.795-45.708
		C332.424,427.125,394.559,396.181,394.559,396.181z"/>
	<path id="goccia_x5F_luce_x5F_up_10_" style="fill:#FFFFFF;" d="M382.837,407.685c0,0-6.675,39.598-11.408,50.1
		c-6.913,15.34-15.301,19.04-28.344,17.16c-9.065-1.307-19.419-9.406-13.623-25.578
		C335.395,432.817,382.837,407.685,382.837,407.685z"/>
</g>
</svg>
