<?xml version="1.0" encoding="iso-8859-1"?>
<!-- Generator: Adobe Illustrator 18.1.0, SVG Export Plug-In . SVG Version: 6.00 Build 0)  -->
<svg version="1.1" id="NEVE_x5F_DEBOLE" xmlns="http://www.w3.org/2000/svg" xmlns:xlink="http://www.w3.org/1999/xlink" x="0px"
	 y="0px" viewBox="0 0 750 600" style="enable-background:new 0 0 750 600;" xml:space="preserve">
<g id="nube_x5F_grande_x5F_scura_4_">
	
		<linearGradient id="nube_x5F_5_x5F_down_x5F_GR-SC_1_" gradientUnits="userSpaceOnUse" x1="375" y1="354.6016" x2="375" y2="56.6016">
		<stop  offset="0" style="stop-color:#555658"/>
		<stop  offset="0.3555" style="stop-color:#CFD0D2"/>
		<stop  offset="0.6505" style="stop-color:#D8D0D4"/>
		<stop  offset="1" style="stop-color:#F1F1F2"/>
	</linearGradient>
	
		<path id="nube_x5F_5_x5F_down_x5F_GR-SC_4_" style="fill-rule:evenodd;clip-rule:evenodd;fill:url(#nube_x5F_5_x5F_down_x5F_GR-SC_1_);" d="
		M432.888,101.712c0,0-28.977-45.11-95.177-45.11c-130.309,0-144.029,106.973-144.029,106.973s-80.366,8.737-80.419,89.882
		c-0.035,55.376,29.932,79.785,49.719,90.892c8.523,4.784,16.781,10.252,51.14,10.252c7.813,0,267.065,0,315.363,0
		c46.878,0,56.154-8.751,63.925-13.67c17.807-11.271,43.328-36.156,43.327-89.468c-0.001-80.972-89.148-89.066-89.148-89.066
		s-0.202-29.221-35.861-52.484C472.236,84.149,432.888,101.712,432.888,101.712z"/>
	
		<linearGradient id="nube_x5F_4_x5F_GR-SC_1_" gradientUnits="userSpaceOnUse" x1="375.1819" y1="340.2032" x2="375.1819" y2="82.9463">
		<stop  offset="0" style="stop-color:#838587"/>
		<stop  offset="0.2491" style="stop-color:#E3EFF5"/>
	</linearGradient>
	<path id="nube_x5F_4_x5F_GR-SC_4_" style="fill-rule:evenodd;clip-rule:evenodd;fill:url(#nube_x5F_4_x5F_GR-SC_1_);" d="
		M425.075,123.567c0,0-44.741-59.092-134.723-34.732c-80.913,21.905-77.65,86.665-77.65,86.665s-79.214,8.504-81.601,79.616
		c-2.212,65.932,39.694,76.865,45.376,79.598c7.078,3.405,14.206,5.467,31.199,5.49l340.986-0.023c9.234,0,9.234,0,18.467-2.733
		c9.791-2.898,56.822-22.55,51.85-74.482c-6.768-70.697-83.103-77.215-83.103-77.215s4.246-31.018-29.832-54.666
		C469.271,105.565,425.075,123.567,425.075,123.567z"/>
	
		<linearGradient id="nube_x5F_3_x5F_GR-SC_1_" gradientUnits="userSpaceOnUse" x1="374.9955" y1="321.0468" x2="374.9955" y2="71.0993">
		<stop  offset="0" style="stop-color:#58595B"/>
		<stop  offset="0.0563" style="stop-color:#5F5F61"/>
		<stop  offset="0.1359" style="stop-color:#717072"/>
		<stop  offset="0.2296" style="stop-color:#908C8F"/>
		<stop  offset="0.3331" style="stop-color:#BAB3B6"/>
		<stop  offset="0.3691" style="stop-color:#CAC2C5"/>
		<stop  offset="0.71" style="stop-color:#B1ADAE"/>
		<stop  offset="0.8042" style="stop-color:#ABAAAC"/>
		<stop  offset="1" style="stop-color:#A4A7A9"/>
	</linearGradient>
	<path id="nube_x5F_3_x5F_GR-SC_4_" style="fill-rule:evenodd;clip-rule:evenodd;fill:url(#nube_x5F_3_x5F_GR-SC_1_);" d="
		M429.813,118.784c0,0-45.304-65.339-132.589-43.049c-78.488,20.044-86.703,95.665-86.703,95.665s-79.78,6.652-78.792,71.749
		c0.686,45.201,37.911,65.838,56.138,73.354c6.982,2.879,14.613,4.544,22.404,4.544h339.877c8.605,0,16.66-2.578,24.084-6.15
		c7.103-3.417,44.037-16.4,44.037-62.866c0-64.964-78.131-72.432-78.131-72.432s-1.747-31.66-34.804-53.299
		C469.663,102.95,429.813,118.784,429.813,118.784z"/>
	
		<linearGradient id="nube_x5F_2_x5F_GR-SC_1_" gradientUnits="userSpaceOnUse" x1="376.7311" y1="301.4433" x2="376.7311" y2="83.9236">
		<stop  offset="0.25" style="stop-color:#DFD8D9"/>
		<stop  offset="0.2968" style="stop-color:#E0DBDC"/>
		<stop  offset="0.4947" style="stop-color:#E2E2E3"/>
		<stop  offset="1" style="stop-color:#E3E4E5"/>
	</linearGradient>
	<path id="nube_x5F_2_x5F_GR-SC_4_" style="fill-rule:evenodd;clip-rule:evenodd;fill:url(#nube_x5F_2_x5F_GR-SC_1_);" d="
		M253.187,258.865c0,0,17.775,28.064,58.953,27.333c43.551-0.773,63.925-30.749,63.925-30.749s7.697,32.752,56.822,33.483
		c40.452,0.602,49.719-26.65,49.719-26.65s10.332,44.654,71.738,40.999c15.94-0.949,54.308-15.247,54.691-50.936
		c0.722-67.255-78.841-63.862-78.841-63.862s0-23.233-22.019-45.783c-32.5-33.284-85.233-10.933-85.233-10.933
		s-25.349-47.751-100.271-45.731c-90.643,2.442-103.579,95.613-103.579,95.613s-77.742-2.781-74.579,63.385
		c2.131,44.58,38.922,48.68,62.504,48.68C239.528,293.714,253.187,258.865,253.187,258.865z"/>
	
		<linearGradient id="nube_x5F_1_x5F_up_x5F_GR-SC_1_" gradientUnits="userSpaceOnUse" x1="375" y1="304.3197" x2="375" y2="110.5826">
		<stop  offset="0.0074" style="stop-color:#8D9498"/>
		<stop  offset="0.2497" style="stop-color:#9DA2A6"/>
		<stop  offset="0.7168" style="stop-color:#B6B9BD"/>
		<stop  offset="1" style="stop-color:#BFC2C5"/>
	</linearGradient>
	
		<path id="nube_x5F_1_x5F_up_x5F_GR-SC_4_" style="fill-rule:evenodd;clip-rule:evenodd;fill:url(#nube_x5F_1_x5F_up_x5F_GR-SC_1_);" d="
		M256.026,281.789c0,0,22.768,21.785,61.886,21.09c41.372-0.734,56.961-21.528,56.961-21.528s16.819,22.612,61.567,22.612
		c38.629,0,54.691-22.55,54.691-22.55s8.523,23.233,51.85,22.55c42.617-0.672,56.112-20.5,56.112-42.366
		c0-52.13-76-43.733-76-43.733s3.374-36.395-22.729-58.082c-31.252-25.966-78.131-6.833-78.131-6.833s-25.397-43.049-96.598-43.049
		c-90.205,0-104.411,97.032-104.411,97.032s-70.318-14.385-70.318,45.099c0,37.583,33,47.832,55.402,47.832
		C237.191,299.864,256.026,281.789,256.026,281.789z"/>
</g>
<g id="fiocco_x5F_grande">
	<path id="riempimento_x5F_fiocco" style="fill:#FFFFFF;" d="M361.98,412.799c3.961-9.946,6.908-18.145,10.456-26.076
		c6.056-13.538,16.991-18.572,28.82-13.709c11.861,4.876,16.065,16.338,10.858,30.037c-3.093,8.137-6.419,16.186-10.239,25.778
		c10.196-1.395,18.782-2.746,27.411-3.711c14.844-1.661,25.892,5.863,27.405,18.396c1.505,12.465-6.348,21.646-20.974,24.363
		c-4.154,0.772-8.368,1.224-12.548,1.86c-4.171,0.635-8.336,1.317-14.652,2.32c6.232,7.97,11.838,14.871,17.144,21.996
		c6.124,8.224,8.651,17.239,2.825,26.556c-8.008,12.807-24.729,13.825-35.145,2.146c-6.468-7.253-12.272-15.098-19.362-23.906
		c-3.976,9.983-7.161,18.477-10.724,26.81c-5.438,12.719-16.485,17.837-28.127,13.323c-11.375-4.411-16.259-14.967-12.051-27.721
		c2.945-8.926,6.864-17.531,11.104-28.177c-10.341,1.362-18.546,2.49-26.764,3.515c-15.494,1.932-26.285-4.743-28.019-17.264
		c-1.868-13.491,6.188-22.989,21.975-25.648c7.951-1.339,15.954-2.377,25.959-3.849c-5.895-7.604-10.957-13.999-15.873-20.504
		c-9.77-12.928-9.31-25.504,1.135-33.793c10.046-7.972,22.949-5.219,33.102,7.13C350.747,398.813,355.704,405.033,361.98,412.799z"
		/>
	<path id="bordo_x5F_fiocco" style="fill:#808184;" d="M343.351,543.398c-3.043,0-6.151-0.607-9.237-1.804
		c-12.924-5.012-18.301-17.263-13.699-31.212c2.03-6.153,4.544-12.225,7.206-18.653c0.707-1.707,1.427-3.446,2.159-5.237
		c-1.624,0.216-3.197,0.426-4.731,0.63c-6.297,0.839-11.734,1.564-17.288,2.257c-1.866,0.233-3.707,0.351-5.469,0.351
		c-14.125,0-23.962-7.668-25.672-20.011c-2.093-15.117,6.986-25.882,24.286-28.795c5.393-0.908,10.684-1.661,16.811-2.533
		c1.444-0.205,2.923-0.416,4.447-0.635c-0.846-1.086-1.677-2.151-2.493-3.198c-3.651-4.682-7.1-9.104-10.449-13.535
		c-10.602-14.029-9.978-28.466,1.628-37.678c4.213-3.344,9.088-5.111,14.098-5.111c8.064,0,16.2,4.495,22.911,12.657
		c3.419,4.158,6.726,8.265,10.554,13.021c0.884,1.098,1.79,2.223,2.723,3.381c0.626-1.603,1.23-3.161,1.819-4.683
		c2.311-5.969,4.495-11.607,6.922-17.031c4.884-10.918,13.17-17.18,22.733-17.18c3.177,0,6.444,0.681,9.71,2.024
		c13.236,5.442,18.108,18.64,12.412,33.624c-2.11,5.55-4.351,11.118-6.725,17.013c-0.568,1.414-1.148,2.854-1.74,4.328
		c1.567-0.221,3.099-0.44,4.603-0.654c6.277-0.896,12.206-1.741,18.101-2.401c1.458-0.163,2.913-0.246,4.323-0.246
		c14.355,0,24.63,8.279,26.177,21.091c1.684,13.958-7.223,24.478-23.244,27.454c-2.705,0.503-5.445,0.874-8.096,1.234
		c-1.516,0.206-3.032,0.411-4.544,0.641c-2.781,0.424-5.561,0.868-8.98,1.416l-0.946,0.151c0.933,1.184,1.852,2.346,2.759,3.493
		c4.024,5.09,7.825,9.898,11.485,14.812c7.767,10.43,8.761,20.428,2.954,29.715c-4.614,7.377-12.013,11.609-20.303,11.61
		c-7.226,0-14.083-3.226-19.309-9.084c-4.456-4.997-8.605-10.278-12.999-15.869c-1.126-1.432-2.27-2.889-3.446-4.374
		c-0.623,1.584-1.23,3.133-1.824,4.652c-2.421,6.182-4.708,12.022-7.149,17.731C361.309,537.334,353.116,543.398,343.351,543.398z
		 M338.551,479.682l-1.768,4.439c-1.371,3.442-2.699,6.651-3.984,9.753c-2.621,6.33-5.096,12.308-7.062,18.265
		c-3.699,11.212,0.191,20.27,10.404,24.231c2.436,0.945,4.863,1.424,7.21,1.424c7.414,0,13.729-4.825,17.326-13.237
		c2.407-5.63,4.679-11.43,7.083-17.571c1.149-2.935,2.342-5.978,3.614-9.174l1.776-4.46l3.01,3.739
		c2.276,2.827,4.42,5.556,6.497,8.197c4.337,5.52,8.434,10.734,12.775,15.601c4.147,4.65,9.519,7.21,15.126,7.21
		c6.316,0,11.984-3.272,15.551-8.977c4.523-7.233,3.641-14.886-2.696-23.396c-3.612-4.851-7.389-9.627-11.387-14.684
		c-1.851-2.341-3.753-4.747-5.718-7.259l-2.931-3.748l10.346-1.647c3.436-0.55,6.227-0.997,9.022-1.422
		c1.543-0.234,3.088-0.445,4.634-0.654c2.583-0.35,5.255-0.713,7.826-1.191c13.221-2.456,20.039-10.21,18.703-21.272
		c-1.203-9.966-9.102-16.158-20.613-16.158c-1.203,0-2.447,0.071-3.699,0.211c-5.811,0.65-11.7,1.49-17.933,2.38
		c-3.007,0.429-6.124,0.874-9.409,1.323l-4.761,0.652l1.778-4.465c1.228-3.083,2.405-6.007,3.539-8.825
		c2.363-5.869,4.594-11.413,6.684-16.912c4.658-12.252,1.179-22.14-9.303-26.45c-2.587-1.064-5.137-1.603-7.579-1.603
		c-7.361,0-13.618,4.924-17.618,13.865c-2.367,5.293-4.427,10.61-6.811,16.766c-1.129,2.917-2.311,5.967-3.599,9.202l-1.772,4.449
		l-3.01-3.725c-2.041-2.524-3.942-4.886-5.751-7.135c-3.819-4.743-7.117-8.84-10.517-12.976
		c-5.626-6.843-12.226-10.611-18.582-10.611c-3.785,0-7.356,1.311-10.613,3.897c-9.234,7.328-9.468,18.229-0.641,29.909
		c3.322,4.396,6.758,8.803,10.397,13.467c1.747,2.24,3.557,4.562,5.455,7.009l2.939,3.791l-4.746,0.699
		c-3.267,0.481-6.322,0.915-9.231,1.329c-6.09,0.867-11.348,1.615-16.671,2.511c-14.147,2.382-21.315,10.583-19.665,22.499
		c1.335,9.644,8.669,15.176,20.12,15.176c1.532,0,3.139-0.104,4.776-0.308c5.53-0.69,10.956-1.413,17.24-2.25
		c2.991-0.399,6.134-0.818,9.505-1.262L338.551,479.682z"/>
</g>
</svg>
