<?xml version="1.0" encoding="UTF-8"?>
<svg width="20" height="20" version="1.0" viewBox="0 0 1091 1215" xmlns="http://www.w3.org/2000/svg">
<!--<g fill="#2e9d53" stroke="#2e9d53" stroke-width="2.6384">-->
<g transform="translate(-150.000000,1352.000000) scale(0.200000,-0.200000)"
fill="#2e9d53" stroke="#2e9d53" stroke-width="2.6384">
<path d="M3331 5604 c-126 -34 -215 -97 -550 -393 -415 -368 -539 -474 -691
-596 -201 -161 -387 -297 -560 -411 l-130 -85 0 -90 0 -91 38 23 c93 55 335
218 455 306 247 180 476 369 812 668 532 475 602 525 727 525 132 0 227 -114
230 -276 2 -104 -86 -442 -169 -654 -160 -406 -404 -743 -701 -969 -43 -32
-129 -91 -192 -132 -511 -327 -720 -570 -696 -806 15 -147 69 -246 178 -328
287 -216 906 -317 1848 -302 377 6 515 15 755 48 684 93 1025 311 1025 654 0
184 -109 346 -347 517 -44 32 -160 108 -259 170 -98 62 -222 142 -274 178
-115 79 -314 269 -423 405 -226 280 -426 658 -562 1064 -19 58 -35 111 -35
118 0 7 55 49 123 95 67 45 146 99 175 120 l53 39 42 -37 c23 -21 87 -79 142
-130 297 -274 782 -662 1201 -961 115 -82 461 -317 512 -347 9 -5 12 14 12 86
l0 93 -62 40 c-457 293 -1253 923 -1712 1354 -77 72 -103 91 -126 91 -34 0
-219 -109 -311 -182 -61 -50 -79 -57 -79 -35 0 29 -81 137 -127 171 -57 43
-157 76 -222 75 -25 0 -70 -7 -100 -15z m513 -1121 c-14 -43 -27 -84 -30 -92
-3 -10 -22 3 -64 44 -33 32 -57 61 -54 64 5 6 151 59 165 60 4 1 -4 -34 -17
-76z m20 -508 c25 -55 42 -102 38 -106 -24 -19 -204 -91 -211 -83 -12 14 -95
204 -90 207 25 17 206 93 211 88 4 -4 28 -51 52 -106z m520 -347 c15 -70 36
-272 29 -278 -11 -10 -283 -43 -291 -36 -7 8 -44 287 -38 293 4 4 230 38 278
42 11 0 20 -8 22 -21z m-962 -340 c40 -76 70 -139 67 -141 -5 -5 -450 41 -456
47 -2 2 53 83 123 180 l128 175 34 -62 c18 -34 65 -124 104 -199z m-534 -457
c40 -120 72 -222 72 -227 0 -5 -96 -40 -213 -78 -116 -38 -217 -71 -224 -73
-7 -3 -37 76 -82 216 -39 120 -71 223 -71 228 0 6 406 146 441 152 3 1 38 -97
77 -218z m2264 82 c115 -68 126 -77 117 -95 -9 -17 -179 -301 -183 -305 0 0
-74 42 -162 96 l-161 96 96 162 96 162 35 -21 c19 -11 92 -54 162 -95z m-927
-50 c-39 -104 -262 -602 -268 -600 -4 1 -90 115 -191 252 -149 202 -181 251
-168 257 18 7 583 105 616 107 13 1 16 -4 11 -16z"/>
</g>
</svg>