<?xml version="1.0" encoding="UTF-8" standalone="no"?>
<!-- Generator: Adobe Illustrator 18.1.0, SVG Export Plug-In . SVG Version: 6.00 Build 0)  -->

<svg
   version="1.1"
   id="PIOGGIA_x5F_MODERATA"
   x="0px"
   y="0px"
   viewBox="-247 380.9 67.699997 59.200001"
   enable-background="new -247 380.9 100 80"
   xml:space="preserve"
   width="67.699997"
   height="59.200001"
   xmlns="http://www.w3.org/2000/svg"
   xmlns:svg="http://www.w3.org/2000/svg"><defs
   id="defs187" />
<g
   id="nube_x5F_grande_x5F_scura_2_"
   transform="translate(-16.2,-11.1)">
	<g
   id="nube_x5F_5_x5F_down_x5F_GR-SC_2_">
		<linearGradient
   id="SVGID_1_"
   gradientUnits="userSpaceOnUse"
   x1="-197.095"
   y1="430.67151"
   x2="-197.095"
   y2="392.48611">
			<stop
   offset="0"
   style="stop-color:#555658"
   id="stop115" />
			<stop
   offset="0.3555"
   style="stop-color:#CFD0D2"
   id="stop117" />
			<stop
   offset="0.6505"
   style="stop-color:#D8D0D4"
   id="stop119" />
			<stop
   offset="1"
   style="stop-color:#F1F1F2"
   id="stop121" />
		</linearGradient>
		<path
   fill-rule="evenodd"
   clip-rule="evenodd"
   fill="url(#SVGID_1_)"
   d="m -189.7,398.3 c 0,0 -3.7,-5.8 -12.2,-5.8 -16.7,0 -18.5,13.7 -18.5,13.7 0,0 -10.3,1.1 -10.3,11.5 0,7.1 3.8,10.2 6.4,11.6 1.1,0.6 2.2,1.3 6.6,1.3 1,0 34.2,0 40.4,0 6,0 7.2,-1.1 8.2,-1.8 2.3,-1.4 5.6,-4.6 5.6,-11.5 0,-10.4 -11.4,-11.4 -11.4,-11.4 0,0 0,-3.7 -4.6,-6.7 -5.1,-3.2 -10.2,-0.9 -10.2,-0.9 z"
   id="path124"
   style="fill:url(#SVGID_1_)" />
		<path
   d="m -177.3,430.9 h -40.4 c -4.3,0 -5.5,-0.7 -6.5,-1.3 l -0.1,-0.1 c -4.3,-2.4 -6.5,-6.4 -6.5,-11.9 0,-5.5 2.9,-8.4 5.3,-9.9 2.2,-1.4 4.4,-1.8 5.1,-1.9 0.1,-0.8 0.8,-3.8 3,-6.8 1.5,-2 3.4,-3.6 5.7,-4.8 2.8,-1.4 6.2,-2.2 10,-2.2 4.5,0 7.6,1.6 9.4,2.9 1.6,1.2 2.5,2.3 2.9,2.8 0.5,-0.2 2,-0.7 4,-0.7 2.2,0 4.3,0.6 6.2,1.8 4,2.6 4.6,5.8 4.7,6.7 0.7,0.1 3.1,0.5 5.6,1.8 2.7,1.5 5.8,4.3 5.8,9.8 0,6.7 -3.1,10 -5.7,11.7 -0.1,0 -0.2,0.1 -0.2,0.2 -1.2,0.9 -2.7,1.9 -8.3,1.9 z m -24.6,-38.2 c -8.5,0 -13,3.7 -15.3,6.7 -2.5,3.3 -2.9,6.7 -2.9,6.8 v 0.2 h -0.2 c 0,0 -2.6,0.3 -5.1,1.8 -3.3,2 -5,5.2 -5,9.4 0,5.3 2.1,9.1 6.2,11.4 l 0.1,0.1 c 1.1,0.6 2.1,1.2 6.3,1.2 h 40.4 c 5.5,0 6.9,-0.9 7.8,-1.6 0.1,-0.1 0.2,-0.1 0.2,-0.2 2.5,-1.6 5.4,-4.8 5.4,-11.2 0,-4.2 -1.9,-7.3 -5.6,-9.4 -2.8,-1.5 -5.6,-1.8 -5.6,-1.8 h -0.2 v -0.2 c 0,0 -0.1,-3.6 -4.5,-6.5 -1.8,-1.2 -3.8,-1.8 -5.9,-1.8 -2.3,0 -3.9,0.7 -4,0.7 l -0.2,0.1 -0.1,-0.2 c 0.2,0.1 -3.5,-5.5 -11.8,-5.5 z"
   id="path126" />
	</g>
	
		<linearGradient
   id="nube_x5F_4_x5F_GR-SC_1_"
   gradientUnits="userSpaceOnUse"
   x1="-197.0717"
   y1="428.8266"
   x2="-197.0717"
   y2="395.86191">
		<stop
   offset="0"
   style="stop-color:#838587"
   id="stop129" />
		<stop
   offset="0.2491"
   style="stop-color:#E3EFF5"
   id="stop131" />
	</linearGradient>
	<path
   id="nube_x5F_4_x5F_GR-SC_2_"
   fill-rule="evenodd"
   clip-rule="evenodd"
   fill="url(#nube_x5F_4_x5F_GR-SC_1_)"
   d="m -190.7,401.1 c 0,0 -5.7,-7.6 -17.3,-4.5 -10.4,2.8 -9.9,11.1 -9.9,11.1 0,0 -10.2,1.1 -10.5,10.2 -0.3,8.4 5.1,9.8 5.8,10.2 0.9,0.4 1.8,0.7 4,0.7 h 43.7 c 1.2,0 1.2,0 2.4,-0.4 1.3,-0.4 7.3,-2.9 6.6,-9.5 -0.9,-9.1 -10.6,-9.9 -10.6,-9.9 0,0 0.5,-4 -3.8,-7 -4.7,-3.2 -10.4,-0.9 -10.4,-0.9 z"
   style="fill:url(#nube_x5F_4_x5F_GR-SC_1_)" />
	
		<linearGradient
   id="nube_x5F_3_x5F_GR-SC_1_"
   gradientUnits="userSpaceOnUse"
   x1="-197.0956"
   y1="426.37189"
   x2="-197.0956"
   y2="394.3439">
		<stop
   offset="0"
   style="stop-color:#58595B"
   id="stop135" />
		<stop
   offset="5.626146e-002"
   style="stop-color:#5F5F61"
   id="stop137" />
		<stop
   offset="0.1359"
   style="stop-color:#717072"
   id="stop139" />
		<stop
   offset="0.2296"
   style="stop-color:#908C8F"
   id="stop141" />
		<stop
   offset="0.3331"
   style="stop-color:#BAB3B6"
   id="stop143" />
		<stop
   offset="0.3691"
   style="stop-color:#CAC2C5"
   id="stop145" />
		<stop
   offset="0.71"
   style="stop-color:#B1ADAE"
   id="stop147" />
		<stop
   offset="0.8042"
   style="stop-color:#ABAAAC"
   id="stop149" />
		<stop
   offset="1"
   style="stop-color:#A4A7A9"
   id="stop151" />
	</linearGradient>
	<path
   id="nube_x5F_3_x5F_GR-SC_2_"
   fill-rule="evenodd"
   clip-rule="evenodd"
   fill="url(#nube_x5F_3_x5F_GR-SC_1_)"
   d="m -190.1,400.5 c 0,0 -5.8,-8.4 -17,-5.5 -10.1,2.6 -11.1,12.3 -11.1,12.3 0,0 -10.2,0.9 -10.1,9.2 0.1,5.8 4.9,8.4 7.2,9.4 0.9,0.4 1.9,0.6 2.9,0.6 h 43.6 c 1.1,0 2.1,-0.3 3.1,-0.8 0.9,-0.4 5.6,-2.1 5.6,-8.1 0,-8.3 -10,-9.3 -10,-9.3 0,0 -0.2,-4.1 -4.5,-6.8 -4.6,-3.1 -9.7,-1 -9.7,-1 z"
   style="fill:url(#nube_x5F_3_x5F_GR-SC_1_)" />
	
		<linearGradient
   id="nube_x5F_2_x5F_GR-SC_1_"
   gradientUnits="userSpaceOnUse"
   x1="-196.8732"
   y1="423.85989"
   x2="-196.8732"
   y2="395.98721">
		<stop
   offset="0.25"
   style="stop-color:#DFD8D9"
   id="stop155" />
		<stop
   offset="0.2968"
   style="stop-color:#E0DBDC"
   id="stop157" />
		<stop
   offset="0.4947"
   style="stop-color:#E2E2E3"
   id="stop159" />
		<stop
   offset="1"
   style="stop-color:#E3E4E5"
   id="stop161" />
	</linearGradient>
	<path
   id="nube_x5F_2_x5F_GR-SC_2_"
   fill-rule="evenodd"
   clip-rule="evenodd"
   fill="url(#nube_x5F_2_x5F_GR-SC_1_)"
   d="m -212.7,418.4 c 0,0 2.3,3.6 7.6,3.5 5.6,-0.1 8.2,-3.9 8.2,-3.9 0,0 1,4.2 7.3,4.3 5.2,0.1 6.4,-3.4 6.4,-3.4 0,0 1.3,5.7 9.2,5.3 2,-0.1 7,-2 7,-6.5 0.1,-8.6 -10.1,-8.2 -10.1,-8.2 0,0 0,-3 -2.8,-5.9 -4.2,-4.3 -10.9,-1.4 -10.9,-1.4 0,0 -3.2,-6.1 -12.8,-5.9 -11.6,0.3 -13.3,12.3 -13.3,12.3 0,0 -10,-0.4 -9.6,8.1 0.3,5.7 5,6.2 8,6.2 4,0 5.8,-4.5 5.8,-4.5 z"
   style="fill:url(#nube_x5F_2_x5F_GR-SC_1_)" />
	
		<linearGradient
   id="nube_x5F_1_x5F_up_x5F_GR-SC_1_"
   gradientUnits="userSpaceOnUse"
   x1="-197.095"
   y1="424.22849"
   x2="-197.095"
   y2="399.4032">
		<stop
   offset="7.419340e-003"
   style="stop-color:#8D9498"
   id="stop165" />
		<stop
   offset="0.2497"
   style="stop-color:#9DA2A6"
   id="stop167" />
		<stop
   offset="0.7168"
   style="stop-color:#B6B9BD"
   id="stop169" />
		<stop
   offset="1"
   style="stop-color:#BFC2C5"
   id="stop171" />
	</linearGradient>
	
		<path
   id="nube_x5F_1_x5F_up_x5F_GR-SC_2_"
   fill-rule="evenodd"
   clip-rule="evenodd"
   fill="url(#nube_x5F_1_x5F_up_x5F_GR-SC_1_)"
   d="m -212.3,421.3 c 0,0 2.9,2.8 7.9,2.7 5.3,-0.1 7.3,-2.8 7.3,-2.8 0,0 2.2,2.9 7.9,2.9 4.9,0 7,-2.9 7,-2.9 0,0 1.1,3 6.6,2.9 5.5,-0.1 7.2,-2.6 7.2,-5.4 0,-6.7 -9.7,-5.6 -9.7,-5.6 0,0 0.4,-4.7 -2.9,-7.4 -4,-3.3 -10,-0.9 -10,-0.9 0,0 -3.3,-5.5 -12.4,-5.5 -11.6,0 -13.4,12.4 -13.4,12.4 0,0 -9,-1.8 -9,5.8 0,4.8 4.2,6.1 7.1,6.1 3.9,0.1 6.4,-2.3 6.4,-2.3 z"
   style="fill:url(#nube_x5F_1_x5F_up_x5F_GR-SC_1_)" />
</g>
<g
   id="goccia_x5F_flat_x5F_MID_1_"
   transform="translate(-16.2,-11.1)">
	<g
   id="goccia_x5F_scura_x5F_down_2_">
		<path
   fill="#626b6e"
   d="m -193.8,432.9 c 0,0 0.8,11.8 -0.5,14.7 -1,2.3 -3.5,3.9 -6.8,3.2 -2.3,-0.5 -6.5,-3.5 -4.8,-7.9 1.7,-4.6 12.1,-10 12.1,-10 z"
   id="path176" />
		<path
   d="m -199.5,451.2 c -0.5,0 -1.1,-0.1 -1.6,-0.2 -1.5,-0.3 -3.7,-1.7 -4.7,-3.6 -0.8,-1.5 -0.9,-3.1 -0.3,-4.7 1.7,-4.6 11.8,-9.8 12.3,-10.1 l 0.3,-0.2 v 0.4 c 0,0.5 0.8,11.9 -0.5,14.8 -1,2.3 -3,3.6 -5.5,3.6 z m 5.5,-17.9 c -1.8,1 -10.2,5.7 -11.7,9.6 -0.6,1.5 -0.5,2.9 0.3,4.3 1,1.8 3,3 4.4,3.3 0.5,0.1 1,0.2 1.5,0.2 2.3,0 4.2,-1.2 5,-3.2 1.1,-2.5 0.6,-12.1 0.5,-14.2 z"
   id="path178" />
	</g>
	<path
   id="goccia_x5F_intermedia_2_"
   fill="#949fa2"
   d="m -194.3,433.7 c 0,0 0.7,9.6 -0.4,12 -0.9,1.9 -3,3.1 -5.7,2.6 -2.9,-0.6 -5.5,-2.9 -4.1,-6.5 1.4,-3.7 10.2,-8.1 10.2,-8.1 z" />
	<path
   id="goccia_x5F_luce_x5F_up_2_"
   fill="#ffffff"
   d="m -196,435.4 c 0,0 -0.9,5.6 -1.6,7.1 -1,2.2 -2.2,2.7 -4,2.4 -1.3,-0.2 -2.8,-1.3 -1.9,-3.6 0.8,-2.4 7.5,-5.9 7.5,-5.9 z" />
</g>
</svg>
