<?xml version="1.0" encoding="UTF-8" standalone="no"?>
<!-- Generator: Adobe Illustrator 18.1.0, SVG Export Plug-In . SVG Version: 6.00 Build 0)  -->

<svg
   version="1.1"
   id="PIOGGIA_x5F_MODERATA"
   x="0px"
   y="0px"
   viewBox="-247 380.9 100 39.700001"
   enable-background="new -247 380.9 100 80"
   xml:space="preserve"
   width="100"
   height="39.700001"
   xmlns="http://www.w3.org/2000/svg"
   xmlns:svg="http://www.w3.org/2000/svg"><defs
   id="defs1245" />
<g
   id="g1204">
	<g
   id="g1202">
		<path
   fill="#ca802a"
   stroke="#231f20"
   stroke-width="4"
   stroke-miterlimit="10"
   d="M -76.8,548.5"
   id="path1200" />
	</g>
</g>
<g
   id="g1216"
   transform="translate(0,-19.8)">
	<g
   id="g1210">
		<path
   fill="#b7b7b7"
   d="m -213.7,425.3 c 0,8.2 -6.6,14.8 -14.8,14.8 -8.2,0 -14.8,-6.6 -14.8,-14.8 0,-8.2 14.8,-24.1 14.8,-24.1 0,0 14.8,15.9 14.8,24.1 z"
   id="path1206" />
		<path
   fill="#231f20"
   d="m -228.5,440.4 c -8.3,0 -15.1,-6.8 -15.1,-15.1 0,-8.2 14.3,-23.6 14.9,-24.3 l 0.2,-0.3 0.2,0.3 c 0.6,0.7 14.9,16.1 14.9,24.3 0,8.3 -6.8,15.1 -15.1,15.1 z m 0,-38.7 c -1.9,2.1 -14.5,16.2 -14.5,23.6 0,8 6.5,14.5 14.5,14.5 8,0 14.5,-6.5 14.5,-14.5 0,-7.4 -12.6,-21.5 -14.5,-23.6 z"
   id="path1208" />
	</g>
	<g
   id="g1214">
		<path
   fill="#231f20"
   d="m -233.6,425.3 c -1,0 -1.8,-0.4 -2.4,-1.1 -0.6,-0.8 -0.9,-1.8 -0.9,-3 0,-1.3 0.3,-2.3 0.9,-3 0.6,-0.7 1.4,-1.1 2.4,-1.1 1,0 1.8,0.4 2.4,1.2 0.6,0.8 0.9,1.8 0.9,3 0,1.3 -0.3,2.3 -0.9,3 -0.6,0.6 -1.4,1 -2.4,1 z m 10.6,-8.2 -9.8,16.1 h -2.2 l 9.9,-16.1 z m -10.6,6.4 c 0.6,0 0.8,-0.8 0.8,-2.4 0,-0.7 -0.1,-1.3 -0.2,-1.8 -0.1,-0.4 -0.3,-0.7 -0.7,-0.7 -0.5,0 -0.8,0.8 -0.8,2.3 0,0.9 0.1,1.6 0.2,2 0.2,0.4 0.4,0.6 0.7,0.6 z m 9.1,9.9 c -1,0 -1.8,-0.4 -2.4,-1.1 -0.6,-0.8 -0.9,-1.8 -0.9,-3 0,-1.3 0.3,-2.3 0.9,-3 0.6,-0.7 1.4,-1.1 2.4,-1.1 1,0 1.8,0.4 2.4,1.1 0.6,0.7 0.9,1.8 0.9,3.1 0,1.3 -0.3,2.2 -0.9,3 -0.6,0.6 -1.4,1 -2.4,1 z m 0.1,-1.8 c 0.6,0 0.8,-0.8 0.8,-2.4 0,-0.7 -0.1,-1.3 -0.2,-1.8 -0.1,-0.5 -0.3,-0.7 -0.7,-0.7 -0.6,0 -0.8,0.8 -0.8,2.3 0,1 0.1,1.6 0.2,2 0.1,0.4 0.4,0.6 0.7,0.6 z"
   id="path1212" />
	</g>
</g>
<g
   id="g1228"
   transform="translate(0,-19.8)">
	<g
   id="g1222">
		<path
   fill="#b7b7b7"
   d="m -181.4,425.3 c 0,8.2 -6.6,14.8 -14.8,14.8 -8.2,0 -14.8,-6.6 -14.8,-14.8 0,-8.2 14.8,-24.1 14.8,-24.1 0,0 14.8,15.9 14.8,24.1 z"
   id="path1218" />
		<path
   fill="#231f20"
   d="m -196.2,440.4 c -8.3,0 -15.1,-6.8 -15.1,-15.1 0,-8.2 14.3,-23.6 14.9,-24.3 l 0.2,-0.3 0.2,0.3 c 0.6,0.7 14.9,16.1 14.9,24.3 0,8.3 -6.8,15.1 -15.1,15.1 z m 0,-38.7 c -1.9,2.1 -14.5,16.2 -14.5,23.6 0,8 6.5,14.5 14.5,14.5 8,0 14.5,-6.5 14.5,-14.5 -0.1,-7.4 -12.6,-21.5 -14.5,-23.6 z"
   id="path1220" />
	</g>
	<g
   id="g1226">
		<path
   fill="#231f20"
   d="m -201.4,425.3 c -1,0 -1.8,-0.4 -2.4,-1.1 -0.6,-0.8 -0.9,-1.8 -0.9,-3 0,-1.3 0.3,-2.3 0.9,-3 0.6,-0.7 1.4,-1.1 2.4,-1.1 1,0 1.8,0.4 2.4,1.2 0.6,0.8 0.9,1.8 0.9,3 0,1.3 -0.3,2.3 -0.9,3 -0.6,0.6 -1.4,1 -2.4,1 z m 10.6,-8.2 -9.8,16.1 h -2.2 l 9.9,-16.1 z m -10.6,6.4 c 0.6,0 0.8,-0.8 0.8,-2.4 0,-0.7 -0.1,-1.3 -0.2,-1.8 -0.1,-0.4 -0.3,-0.7 -0.7,-0.7 -0.5,0 -0.8,0.8 -0.8,2.3 0,0.9 0.1,1.6 0.2,2 0.2,0.4 0.4,0.6 0.7,0.6 z m 9.2,9.9 c -1,0 -1.8,-0.4 -2.4,-1.1 -0.6,-0.8 -0.9,-1.8 -0.9,-3 0,-1.3 0.3,-2.3 0.9,-3 0.6,-0.7 1.4,-1.1 2.4,-1.1 1,0 1.8,0.4 2.4,1.1 0.6,0.7 0.9,1.8 0.9,3.1 0,1.3 -0.3,2.2 -0.9,3 -0.6,0.6 -1.4,1 -2.4,1 z m 0,-1.8 c 0.6,0 0.8,-0.8 0.8,-2.4 0,-0.7 -0.1,-1.3 -0.2,-1.8 -0.1,-0.5 -0.3,-0.7 -0.7,-0.7 -0.6,0 -0.8,0.8 -0.8,2.3 0,1 0.1,1.6 0.2,2 0.2,0.4 0.4,0.6 0.7,0.6 z"
   id="path1224" />
	</g>
</g>
<g
   id="g1240"
   transform="translate(0,-19.8)">
	<g
   id="g1234">
		<path
   fill="#b7b7b7"
   d="m -149.3,425.3 c 0,8.2 -6.6,14.8 -14.8,14.8 -8.2,0 -14.8,-6.6 -14.8,-14.8 0,-8.2 14.8,-24.1 14.8,-24.1 0,0 14.8,15.9 14.8,24.1 z"
   id="path1230" />
		<path
   fill="#231f20"
   d="m -164.1,440.4 c -8.3,0 -15.1,-6.8 -15.1,-15.1 0,-8.2 14.3,-23.6 14.9,-24.3 l 0.2,-0.3 0.2,0.3 c 0.6,0.7 14.9,16.1 14.9,24.3 0,8.3 -6.8,15.1 -15.1,15.1 z m 0,-38.7 c -1.9,2.1 -14.5,16.2 -14.5,23.6 0,8 6.5,14.5 14.5,14.5 8,0 14.5,-6.5 14.5,-14.5 -0.1,-7.4 -12.6,-21.5 -14.5,-23.6 z"
   id="path1232" />
	</g>
	<g
   id="g1238">
		<path
   fill="#231f20"
   d="m -169.3,425.3 c -1,0 -1.8,-0.4 -2.4,-1.1 -0.6,-0.8 -0.9,-1.8 -0.9,-3 0,-1.3 0.3,-2.3 0.9,-3 0.6,-0.7 1.4,-1.1 2.4,-1.1 1,0 1.8,0.4 2.4,1.2 0.6,0.8 0.9,1.8 0.9,3 0,1.3 -0.3,2.3 -0.9,3 -0.6,0.6 -1.4,1 -2.4,1 z m 10.6,-8.2 -9.8,16.1 h -2.2 l 9.9,-16.1 z m -10.6,6.4 c 0.6,0 0.8,-0.8 0.8,-2.4 0,-0.7 -0.1,-1.3 -0.2,-1.8 -0.1,-0.4 -0.3,-0.7 -0.7,-0.7 -0.5,0 -0.8,0.8 -0.8,2.3 0,0.9 0.1,1.6 0.2,2 0.2,0.4 0.4,0.6 0.7,0.6 z m 9.2,9.9 c -1,0 -1.8,-0.4 -2.4,-1.1 -0.6,-0.8 -0.9,-1.8 -0.9,-3 0,-1.3 0.3,-2.3 0.9,-3 0.6,-0.7 1.4,-1.1 2.4,-1.1 1,0 1.8,0.4 2.4,1.1 0.6,0.7 0.9,1.8 0.9,3.1 0,1.3 -0.3,2.2 -0.9,3 -0.6,0.6 -1.4,1 -2.4,1 z m 0,-1.8 c 0.6,0 0.8,-0.8 0.8,-2.4 0,-0.7 -0.1,-1.3 -0.2,-1.8 -0.1,-0.5 -0.3,-0.7 -0.7,-0.7 -0.6,0 -0.8,0.8 -0.8,2.3 0,1 0.1,1.6 0.2,2 0.2,0.4 0.4,0.6 0.7,0.6 z"
   id="path1236" />
	</g>
</g>
</svg>
