<?xml version="1.0" encoding="UTF-8" standalone="no"?>
<!-- Generator: Adobe Illustrator 18.1.0, SVG Export Plug-In . SVG Version: 6.00 Build 0)  -->

<svg
   version="1.1"
   id="VENTOSO"
   x="0px"
   y="0px"
   viewBox="-247 380.9 113.6 42.5"
   enable-background="new -247 380.9 127.6 85"
   xml:space="preserve"
   width="113.6"
   height="42.5"
   xmlns="http://www.w3.org/2000/svg"
   xmlns:svg="http://www.w3.org/2000/svg"><defs
   id="defs1506" />
<g
   id="manica_x5F_completa_2_"
   transform="translate(-7,-21.3)">
	<g
   id="manica_2_">
		<g
   id="anello6_x5F_white_2_">
			
				<linearGradient
   id="SVGID_1_"
   gradientUnits="userSpaceOnUse"
   x1="-824.85052"
   y1="422.38379"
   x2="-824.88037"
   y2="420.6723"
   gradientTransform="matrix(4.6652,0,0,-4.6652,3659.7793,2380.4607)">
				<stop
   offset="0"
   style="stop-color:#FFFFFF"
   id="stop1305" />
				<stop
   offset="0.3268"
   style="stop-color:#CFD0D1"
   id="stop1307" />
				<stop
   offset="0.7859"
   style="stop-color:#949699"
   id="stop1309" />
				<stop
   offset="1"
   style="stop-color:#808184"
   id="stop1311" />
			</linearGradient>
			<path
   fill="url(#SVGID_1_)"
   d="m -185.6,406.4 c 0.6,0 1.1,1.3 1.1,2.8 0,1.6 -0.5,2.8 -1.1,2.8 l -6.3,2.1 c 0.5,-0.3 0.9,-2.1 0.9,-4.1 0,-2.3 -0.5,-4.2 -1.1,-4.2 v -0.1 z"
   id="path1314"
   style="fill:url(#SVGID_1_)" />
			<path
   d="m -192.9,414.6 0.9,-0.6 c 0.4,-0.3 0.8,-1.8 0.8,-4 0,-2.5 -0.5,-4.1 -0.9,-4.1 h -0.1 v -0.3 l 6.6,0.6 c 0.7,0 1.2,1.3 1.2,2.9 0,1.7 -0.5,2.9 -1.2,2.9 z m 1.2,-8.7 c 0.5,0.6 0.8,2.4 0.8,4.1 0,1.7 -0.2,3.2 -0.6,3.9 l 5.9,-2 v 0 c 0.4,0 0.9,-1.1 0.9,-2.7 0,-1.6 -0.5,-2.7 -0.9,-2.7 v 0 z"
   id="path1316" />
		</g>
		<g
   id="anello5_x5F_red_2_">
			
				<linearGradient
   id="SVGID_2_"
   gradientUnits="userSpaceOnUse"
   x1="-826.20288"
   y1="422.20239"
   x2="-826.20288"
   y2="420.52411"
   gradientTransform="matrix(4.6652,0,0,-4.6652,3659.7793,2380.4607)">
				<stop
   offset="0"
   style="stop-color:#E22527"
   id="stop1319" />
				<stop
   offset="0.1137"
   style="stop-color:#D22327"
   id="stop1321" />
				<stop
   offset="0.7185"
   style="stop-color:#89191B"
   id="stop1323" />
				<stop
   offset="1"
   style="stop-color:#711212"
   id="stop1325" />
			</linearGradient>
			<path
   fill="url(#SVGID_2_)"
   d="m -192.1,414.2 -6.3,2.1 c 0.5,-0.5 1.2,-2.8 1.2,-5.6 0,-2.8 -0.6,-5.2 -1.2,-5.6 l 6.4,0.6 v 0.1 c 0.6,0 1.1,1.9 1.1,4.2 0,2.1 -0.4,3.8 -0.9,4.1 z"
   id="path1328"
   style="fill:url(#SVGID_2_)" />
			<path
   d="m -199,416.6 0.5,-0.4 c 0.5,-0.4 1.1,-2.6 1.1,-5.5 0,-2.9 -0.7,-5.1 -1.2,-5.5 l -0.4,-0.3 6.9,0.7 v 0.1 c 0.7,0.3 1.1,2.3 1.1,4.3 0,2.1 -0.4,3.9 -0.9,4.2 v 0 l -0.2,0.1 z m 0.9,-11.3 c 0.5,0.8 1,3 1,5.5 0,2.4 -0.5,4.4 -0.9,5.3 l 6.1,-2 c 0.4,-0.3 0.8,-1.9 0.8,-4 0,-2.5 -0.5,-4.1 -0.9,-4.1 h -0.1 v -0.1 z"
   id="path1330" />
		</g>
		<g
   id="anello4_x5F_white_2_">
			
				<linearGradient
   id="SVGID_3_"
   gradientUnits="userSpaceOnUse"
   x1="-827.62207"
   y1="422.04611"
   x2="-827.6532"
   y2="420.26501"
   gradientTransform="matrix(4.6652,0,0,-4.6652,3659.7793,2380.4607)">
				<stop
   offset="0"
   style="stop-color:#FFFFFF"
   id="stop1333" />
				<stop
   offset="0.3268"
   style="stop-color:#CFD0D1"
   id="stop1335" />
				<stop
   offset="0.7859"
   style="stop-color:#949699"
   id="stop1337" />
				<stop
   offset="1"
   style="stop-color:#808184"
   id="stop1339" />
			</linearGradient>
			<path
   fill="url(#SVGID_3_)"
   d="m -198.5,405.1 c 0.6,0.4 1.2,2.8 1.2,5.6 0,2.8 -0.6,5.1 -1.2,5.6 l -6.6,2.2 c 0.5,-0.3 1,-3.3 1,-7 0,-3.8 -0.5,-7 -1,-7 z"
   id="path1342"
   style="fill:url(#SVGID_3_)" />
			<path
   d="m -206.1,419 1,-0.6 c 0.4,-0.3 0.9,-3 0.9,-6.9 0,-1.8 -0.1,-3.6 -0.3,-4.9 -0.3,-1.9 -0.6,-2 -0.6,-2 v -0.3 l 6.7,0.7 v 0 c 0.6,0.5 1.2,2.9 1.2,5.7 0,2.8 -0.6,5.1 -1.2,5.7 v 0 0 z m 1.3,-14.4 c 0.6,1 0.8,4.5 0.8,6.9 0,2.8 -0.3,5.7 -0.8,6.8 l 6.2,-2.1 c 0.5,-0.5 1.1,-2.6 1.1,-5.5 0,-2.8 -0.6,-5.1 -1.1,-5.5 z"
   id="path1344" />
		</g>
		<g
   id="anello3_x5F_red_2_">
			
				<linearGradient
   id="SVGID_4_"
   gradientUnits="userSpaceOnUse"
   x1="-829.03369"
   y1="421.62"
   x2="-829.03369"
   y2="419.89209"
   gradientTransform="matrix(4.6652,0,0,-4.6652,3659.7793,2380.4607)">
				<stop
   offset="0"
   style="stop-color:#E22527"
   id="stop1347" />
				<stop
   offset="0.1137"
   style="stop-color:#D22327"
   id="stop1349" />
				<stop
   offset="0.7185"
   style="stop-color:#89191B"
   id="stop1351" />
				<stop
   offset="1"
   style="stop-color:#711212"
   id="stop1353" />
			</linearGradient>
			<path
   fill="url(#SVGID_4_)"
   d="m -205.1,418.6 -6.5,2.2 v -0.1 c 0.6,-0.2 1.7,-3.3 1.7,-7.8 0,-4.4 -1.1,-8.5 -1.7,-9 l 6.5,0.6 v 0 c 0.6,0.1 1,3.2 1,7 0,3.7 -0.4,6.7 -1,7.1 z"
   id="path1356"
   style="fill:url(#SVGID_4_)" />
			<path
   d="m -211.7,420.9 -0.1,-0.4 h 0.1 c 0.5,-0.1 1.6,-3 1.6,-7.7 0,-4.4 -1.1,-8.5 -1.6,-8.9 l -0.3,-0.3 6.9,0.7 v 0 c 0.8,0.1 1.1,4.4 1.1,7.2 0,3.2 -0.4,6.7 -1,7.1 v 0 h -0.1 z m 0.3,-16.9 c 0.7,1.1 1.5,5 1.5,8.9 0,3.9 -0.9,6.9 -1.5,7.7 l 6.3,-2.1 c 0.4,-0.3 0.9,-3 0.9,-6.9 0,-1.8 -0.1,-3.6 -0.3,-4.9 -0.3,-1.9 -0.6,-2 -0.6,-2 v 0 z"
   id="path1358" />
		</g>
		<g
   id="anello2_x5F_white_2_">
			
				<linearGradient
   id="SVGID_5_"
   gradientUnits="userSpaceOnUse"
   x1="-830.43842"
   y1="421.63861"
   x2="-830.43842"
   y2="419.61719"
   gradientTransform="matrix(4.6652,0,0,-4.6652,3659.7793,2380.4607)">
				<stop
   offset="0"
   style="stop-color:#FFFFFF"
   id="stop1361" />
				<stop
   offset="0.3268"
   style="stop-color:#CFD0D1"
   id="stop1363" />
				<stop
   offset="0.7859"
   style="stop-color:#949699"
   id="stop1365" />
				<stop
   offset="1"
   style="stop-color:#808184"
   id="stop1367" />
			</linearGradient>
			<path
   fill="url(#SVGID_5_)"
   d="m -211.7,420.6 v 0.1 l -7.2,2.4 V 423 c 0.7,-0.3 2,-4.3 2,-9.7 0,-5.2 -1.2,-9.7 -1.9,-10.3 l 7.2,0.7 c 0.6,0.5 1.7,4.7 1.7,9 -0.1,4.7 -1.2,7.7 -1.8,7.9 z"
   id="path1370"
   style="fill:url(#SVGID_5_)" />
			<path
   d="m -219,423.4 -0.1,-0.3 h 0.1 c 0.6,-0.2 1.9,-4 1.9,-9.6 0,-5.3 -1.2,-9.7 -1.9,-10.2 l -0.4,-0.3 7.7,0.7 v 0 c 0.7,0.5 1.7,4.8 1.7,9.1 0,4.2 -1,7.3 -1.7,7.8 v 0.2 z m 0.5,-20.1 c 0.8,1.2 1.8,5.4 1.8,10.1 0,4.6 -1,8.5 -1.8,9.5 l 6.7,-2.3 v -0.1 h 0.1 c 0.5,-0.1 1.6,-3 1.6,-7.7 0,-4.3 -1,-8.3 -1.6,-8.9 z"
   id="path1372" />
		</g>
		<g
   id="anello1_x5F_red_2_">
			
				<linearGradient
   id="SVGID_6_"
   gradientUnits="userSpaceOnUse"
   x1="-831.80011"
   y1="421.42581"
   x2="-831.80011"
   y2="419.67419"
   gradientTransform="matrix(4.6652,0,0,-4.6652,3659.7793,2380.4607)">
				<stop
   offset="0"
   style="stop-color:#E22527"
   id="stop1375" />
				<stop
   offset="0.1137"
   style="stop-color:#D22327"
   id="stop1377" />
				<stop
   offset="0.7185"
   style="stop-color:#89191B"
   id="stop1379" />
				<stop
   offset="1"
   style="stop-color:#711212"
   id="stop1381" />
			</linearGradient>
			<path
   fill="url(#SVGID_6_)"
   d="m -218.9,423.1 v 0 l -5.5,2 c 1,-0.6 1.7,-5.4 1.7,-11.2 0,-6.1 -0.9,-11.1 -1.9,-11.3 l 5.8,0.6 c 0.7,0.6 1.9,5.1 1.9,10.3 0,5.3 -1.3,9.4 -2,9.6 z"
   id="path1384"
   style="fill:url(#SVGID_6_)" />
			<path
   d="m -225.3,425.5 0.8,-0.5 c 0.8,-0.5 1.7,-4.9 1.7,-11.1 0,-6.5 -0.9,-11 -1.8,-11.2 v -0.3 l 5.8,0.6 v 0 c 0.8,0.6 2,5.2 2,10.4 0,5.1 -1.2,9.2 -2,9.8 v 0.1 z m 1.2,-22.8 c 1,1.3 1.6,6.4 1.6,11.1 0,5.2 -0.6,9.5 -1.5,10.9 l 5,-1.7 v -0.1 h 0.1 c 0.6,-0.2 1.9,-4 1.9,-9.6 0,-5.3 -1.2,-9.6 -1.9,-10.1 z"
   id="path1386" />
		</g>
		<path
   id="buco_2_"
   fill="#6d0d15"
   d="m -226.6,412 c 0.2,-5.4 1,-9.4 1.9,-9.4 h 0.1 c 1.1,0.2 1.9,5.2 1.9,11.3 0,5.8 -0.8,10.6 -1.7,11.2 l -0.2,0.1 c -1.1,0 -2,-5.1 -2,-11.3 z" />
		<path
   id="anello_x5F_aggancio_2_"
   d="m -224.6,425.5 v 0 c -0.5,0 -1.2,-0.4 -1.8,-3.6 -0.4,-2.2 -0.6,-5 -0.6,-8 V 412 c 0.1,-2.6 0.3,-5 0.7,-6.8 0.5,-2.7 1.2,-3 1.6,-3 v 0 h 0.1 c 0.3,0 1,0.2 1.6,3.7 0.4,2.1 0.6,5 0.6,7.9 0,4.9 -0.6,10.6 -1.9,11.5 v 0 z m -0.1,-22.6 c -0.1,0 -0.5,0.5 -0.9,2.4 -0.3,1.7 -0.6,4.1 -0.7,6.7 v 1.9 c 0,3 0.2,5.8 0.6,7.9 0.4,2.3 0.9,2.9 1,3 h 0.1 c 0.1,-0.1 0.6,-0.7 1.1,-3.4 0.3,-2.1 0.5,-4.7 0.5,-7.5 0,-2.9 -0.2,-5.7 -0.6,-7.8 -0.4,-2.5 -0.9,-3.2 -1.1,-3.2 z" />
	</g>
	<path
   id="cordino_2_"
   d="m -225,425.5 c -0.1,0 -0.2,-0.1 -0.3,-0.2 l -9.6,-11.7 9.5,-11.1 c 0.2,-0.2 0.4,-0.2 0.6,0 0.2,0.2 0.2,0.4 0,0.6 l -9.1,10.6 9.1,11.2 c 0.1,0.2 0.1,0.4 -0.1,0.6 0.1,-0.1 0,0 -0.1,0 z" />
	<path
   id="gancio_2_"
   d="m -233.8,413.7 c 0,0.5 -0.5,0.9 -1.2,0.9 -0.7,0 -1.8,-0.9 -1.8,-0.9 0,0 1.2,-0.9 1.8,-0.9 0.6,0 1.2,0.4 1.2,0.9 z" />
	<g
   id="palo_6_">
		<path
   fill="#808080"
   d="m -237.4,444.7 h -1.3 c -0.3,0 -0.6,-0.3 -0.6,-0.6 V 409 c 0,-0.3 0.3,-0.6 0.6,-0.6 h 1.3 c 0.3,0 0.6,0.3 0.6,0.6 v 35.1 c 0,0.3 -0.3,0.6 -0.6,0.6 z"
   id="path1394" />
		<path
   d="m -237.4,444.7 h -1.3 c -0.4,0 -0.7,-0.3 -0.7,-0.7 v -35.1 c 0,-0.4 0.3,-0.7 0.7,-0.7 h 1.3 c 0.4,0 0.7,0.3 0.7,0.7 V 444 c 0,0.4 -0.3,0.7 -0.7,0.7 z m -1.3,-36.3 c -0.3,0 -0.5,0.2 -0.5,0.5 V 444 c 0,0.3 0.2,0.5 0.5,0.5 h 1.3 c 0.3,0 0.5,-0.2 0.5,-0.5 v -35.1 c 0,-0.3 -0.2,-0.5 -0.5,-0.5 z"
   id="path1396" />
	</g>
	<path
   id="palo_5_"
   fill="#333333"
   d="m -237.3,444.6 h -0.4 c -0.2,0 -0.4,-0.2 -0.4,-0.5 v -35.3 c 0,-0.2 0.2,-0.4 0.4,-0.4 h 0.4 c 0.2,0 0.4,0.2 0.4,0.4 v 35.3 c 0,0.2 -0.2,0.5 -0.4,0.5 z" />
	<path
   id="ombra2_x5F_attacco_2_"
   d="m -236.6,414.6 h -2.8 c -0.3,0 -0.5,-0.2 -0.5,-0.5 v -0.5 c 0,-0.3 0.2,-0.5 0.5,-0.5 h 2.8 c 0.3,0 0.5,0.2 0.5,0.5 v 0.5 c 0,0.3 -0.2,0.5 -0.5,0.5 z" />
	<rect
   id="ombra1_x5F_attacco_2_"
   x="-239.3"
   y="413.89999"
   width="2.5"
   height="0.60000002" />
	<path
   id="attacco_2_"
   fill="#4d4d4d"
   d="m -236.7,412.5 h -2.7 c -0.3,0 -0.6,0.2 -0.6,0.5 v 1.1 c 0,0.1 0.1,0.3 0.1,0.3 0.1,-0.1 0.3,-0.2 0.4,-0.2 h 2.7 c 0.2,0 0.3,0.1 0.4,0.2 0.1,-0.1 0.1,-0.2 0.1,-0.3 V 413 c 0.2,-0.3 -0.1,-0.5 -0.4,-0.5 z" />
</g>
<g
   id="manica_x5F_completa_3_"
   transform="translate(-7,-21.3)">
	<g
   id="manica_3_">
		<g
   id="anello6_x5F_white_3_">
			
				<linearGradient
   id="SVGID_7_"
   gradientUnits="userSpaceOnUse"
   x1="-812.4552"
   y1="422.384"
   x2="-812.48511"
   y2="420.67249"
   gradientTransform="matrix(4.6652,0,0,-4.6652,3659.7793,2380.4607)">
				<stop
   offset="0"
   style="stop-color:#FFFFFF"
   id="stop1404" />
				<stop
   offset="0.3268"
   style="stop-color:#CFD0D1"
   id="stop1406" />
				<stop
   offset="0.7859"
   style="stop-color:#949699"
   id="stop1408" />
				<stop
   offset="1"
   style="stop-color:#808184"
   id="stop1410" />
			</linearGradient>
			<path
   fill="url(#SVGID_7_)"
   d="m -127.7,406.4 c 0.6,0 1.1,1.3 1.1,2.8 0,1.6 -0.5,2.8 -1.1,2.8 l -6.3,2.1 c 0.5,-0.3 0.9,-2.1 0.9,-4.1 0,-2.3 -0.5,-4.2 -1.1,-4.2 v -0.1 z"
   id="path1413"
   style="fill:url(#SVGID_7_)" />
			<path
   d="m -134.9,414.6 0.9,-0.6 c 0.4,-0.3 0.8,-1.8 0.8,-4 0,-2.5 -0.5,-4.1 -0.9,-4.1 h -0.1 v -0.3 l 6.6,0.6 c 0.7,0 1.2,1.3 1.2,2.9 0,1.7 -0.5,2.9 -1.2,2.9 z m 1.1,-8.7 c 0.5,0.6 0.8,2.4 0.8,4.1 0,1.7 -0.2,3.2 -0.6,3.9 l 5.9,-2 v 0 c 0.4,0 0.9,-1.1 0.9,-2.7 0,-1.6 -0.5,-2.7 -0.9,-2.7 v 0 z"
   id="path1415" />
		</g>
		<g
   id="anello5_x5F_red_3_">
			
				<linearGradient
   id="SVGID_8_"
   gradientUnits="userSpaceOnUse"
   x1="-813.80762"
   y1="422.20239"
   x2="-813.80762"
   y2="420.52411"
   gradientTransform="matrix(4.6652,0,0,-4.6652,3659.7793,2380.4607)">
				<stop
   offset="0"
   style="stop-color:#E22527"
   id="stop1418" />
				<stop
   offset="0.1137"
   style="stop-color:#D22327"
   id="stop1420" />
				<stop
   offset="0.7185"
   style="stop-color:#89191B"
   id="stop1422" />
				<stop
   offset="1"
   style="stop-color:#711212"
   id="stop1424" />
			</linearGradient>
			<path
   fill="url(#SVGID_8_)"
   d="m -134.2,414.2 -6.3,2.1 c 0.5,-0.5 1.2,-2.8 1.2,-5.6 0,-2.8 -0.6,-5.2 -1.2,-5.6 l 6.4,0.6 v 0.1 c 0.6,0 1.1,1.9 1.1,4.2 0,2.1 -0.4,3.8 -0.9,4.1 z"
   id="path1427"
   style="fill:url(#SVGID_8_)" />
			<path
   d="m -141.1,416.6 0.5,-0.4 c 0.5,-0.4 1.1,-2.6 1.1,-5.5 0,-2.9 -0.7,-5.1 -1.2,-5.5 l -0.4,-0.3 6.9,0.7 v 0.1 c 0.7,0.3 1.1,2.3 1.1,4.3 0,2.1 -0.4,3.9 -0.9,4.2 v 0 l -0.2,0.1 z m 0.8,-11.3 c 0.5,0.8 1,3 1,5.5 0,2.4 -0.5,4.4 -0.9,5.3 l 6.1,-2 c 0.4,-0.3 0.8,-1.9 0.8,-4 0,-2.5 -0.5,-4.1 -0.9,-4.1 h -0.1 v -0.1 z"
   id="path1429" />
		</g>
		<g
   id="anello4_x5F_white_3_">
			
				<linearGradient
   id="SVGID_9_"
   gradientUnits="userSpaceOnUse"
   x1="-815.20532"
   y1="422.0459"
   x2="-815.23651"
   y2="420.2648"
   gradientTransform="matrix(4.6652,0,0,-4.6652,3659.7793,2380.4607)">
				<stop
   offset="0"
   style="stop-color:#FFFFFF"
   id="stop1432" />
				<stop
   offset="0.3268"
   style="stop-color:#CFD0D1"
   id="stop1434" />
				<stop
   offset="0.7859"
   style="stop-color:#949699"
   id="stop1436" />
				<stop
   offset="1"
   style="stop-color:#808184"
   id="stop1438" />
			</linearGradient>
			<path
   fill="url(#SVGID_9_)"
   d="m -140.6,405.1 c 0.6,0.4 1.2,2.8 1.2,5.6 0,2.8 -0.6,5.1 -1.2,5.6 l -6.6,2.2 c 0.5,-0.3 1,-3.3 1,-7 0,-3.8 -0.5,-7 -1,-7 z"
   id="path1441"
   style="fill:url(#SVGID_9_)" />
			<path
   d="m -148.2,419 1,-0.6 c 0.4,-0.3 0.9,-3 0.9,-6.9 0,-1.8 -0.1,-3.6 -0.3,-4.9 -0.3,-1.9 -0.6,-2 -0.6,-2 v -0.3 l 6.7,0.7 v 0 c 0.6,0.5 1.2,2.9 1.2,5.7 0,2.8 -0.6,5.1 -1.2,5.7 v 0 0 z m 1.3,-14.4 c 0.6,1 0.8,4.5 0.8,6.9 0,2.8 -0.3,5.7 -0.8,6.8 l 6.2,-2.1 c 0.5,-0.5 1.1,-2.6 1.1,-5.5 0,-2.8 -0.6,-5.1 -1.1,-5.5 z"
   id="path1443" />
		</g>
		<g
   id="anello3_x5F_red_3_">
			
				<linearGradient
   id="SVGID_10_"
   gradientUnits="userSpaceOnUse"
   x1="-816.63702"
   y1="421.62"
   x2="-816.63702"
   y2="419.89209"
   gradientTransform="matrix(4.6652,0,0,-4.6652,3659.7793,2380.4607)">
				<stop
   offset="0"
   style="stop-color:#E22527"
   id="stop1446" />
				<stop
   offset="0.1137"
   style="stop-color:#D22327"
   id="stop1448" />
				<stop
   offset="0.7185"
   style="stop-color:#89191B"
   id="stop1450" />
				<stop
   offset="1"
   style="stop-color:#711212"
   id="stop1452" />
			</linearGradient>
			<path
   fill="url(#SVGID_10_)"
   d="m -147.3,418.6 -6.5,2.2 v -0.1 c 0.6,-0.2 1.7,-3.3 1.7,-7.8 0,-4.4 -1.1,-8.5 -1.7,-9 l 6.5,0.6 v 0 c 0.6,0.1 1,3.2 1,7 0.1,3.7 -0.4,6.7 -1,7.1 z"
   id="path1455"
   style="fill:url(#SVGID_10_)" />
			<path
   d="m -153.9,420.9 -0.1,-0.4 h 0.1 c 0.5,-0.1 1.6,-3 1.6,-7.7 0,-4.4 -1.1,-8.5 -1.6,-8.9 l -0.3,-0.3 6.9,0.7 v 0 c 0.8,0.1 1.1,4.4 1.1,7.2 0,3.2 -0.4,6.7 -1,7.1 v 0 h -0.1 z m 0.4,-16.9 c 0.7,1.1 1.5,5 1.5,8.9 0,3.9 -0.9,6.9 -1.5,7.7 l 6.3,-2.1 c 0.4,-0.3 0.9,-3 0.9,-6.9 0,-1.8 -0.1,-3.6 -0.3,-4.9 -0.3,-1.9 -0.6,-2 -0.6,-2 v 0 z"
   id="path1457" />
		</g>
		<g
   id="anello2_x5F_white_3_">
			
				<linearGradient
   id="SVGID_11_"
   gradientUnits="userSpaceOnUse"
   x1="-818.04303"
   y1="421.63861"
   x2="-818.04303"
   y2="419.61719"
   gradientTransform="matrix(4.6652,0,0,-4.6652,3659.7793,2380.4607)">
				<stop
   offset="0"
   style="stop-color:#FFFFFF"
   id="stop1460" />
				<stop
   offset="0.3268"
   style="stop-color:#CFD0D1"
   id="stop1462" />
				<stop
   offset="0.7859"
   style="stop-color:#949699"
   id="stop1464" />
				<stop
   offset="1"
   style="stop-color:#808184"
   id="stop1466" />
			</linearGradient>
			<path
   fill="url(#SVGID_11_)"
   d="m -153.9,420.6 v 0.1 l -7.2,2.4 V 423 c 0.7,-0.3 2,-4.3 2,-9.7 0,-5.2 -1.2,-9.7 -1.9,-10.3 l 7.2,0.7 c 0.6,0.5 1.7,4.7 1.7,9 0,4.7 -1.2,7.7 -1.8,7.9 z"
   id="path1469"
   style="fill:url(#SVGID_11_)" />
			<path
   d="m -161.1,423.4 -0.1,-0.3 h 0.1 c 0.6,-0.2 1.9,-4 1.9,-9.6 0,-5.3 -1.2,-9.7 -1.9,-10.2 l -0.4,-0.3 7.7,0.7 v 0 c 0.7,0.5 1.7,4.8 1.7,9.1 0,4.2 -1,7.3 -1.7,7.8 v 0.2 z m 0.4,-20.1 c 0.8,1.2 1.8,5.4 1.8,10.1 0,4.6 -1,8.5 -1.8,9.5 l 6.7,-2.3 v -0.1 h 0.1 c 0.5,-0.1 1.6,-3 1.6,-7.7 0,-4.3 -1,-8.3 -1.6,-8.9 z"
   id="path1471" />
		</g>
		<g
   id="anello1_x5F_red_3_">
			
				<linearGradient
   id="SVGID_12_"
   gradientUnits="userSpaceOnUse"
   x1="-819.40417"
   y1="421.42581"
   x2="-819.40417"
   y2="419.67419"
   gradientTransform="matrix(4.6652,0,0,-4.6652,3659.7793,2380.4607)">
				<stop
   offset="0"
   style="stop-color:#E22527"
   id="stop1474" />
				<stop
   offset="0.1137"
   style="stop-color:#D22327"
   id="stop1476" />
				<stop
   offset="0.7185"
   style="stop-color:#89191B"
   id="stop1478" />
				<stop
   offset="1"
   style="stop-color:#711212"
   id="stop1480" />
			</linearGradient>
			<path
   fill="url(#SVGID_12_)"
   d="m -161.1,423.1 v 0 l -5.5,2 c 1,-0.6 1.7,-5.4 1.7,-11.2 0,-6.1 -0.9,-11.1 -1.9,-11.3 l 5.8,0.6 c 0.7,0.6 1.9,5.1 1.9,10.3 0.1,5.3 -1.2,9.4 -2,9.6 z"
   id="path1483"
   style="fill:url(#SVGID_12_)" />
			<path
   d="m -167.5,425.5 0.8,-0.5 c 0.8,-0.5 1.7,-4.9 1.7,-11.1 0,-6.5 -0.9,-11 -1.8,-11.2 v -0.3 l 5.8,0.6 v 0 c 0.8,0.6 2,5.2 2,10.4 0,5.1 -1.2,9.2 -2,9.8 v 0.1 z m 1.2,-22.8 c 1,1.3 1.6,6.4 1.6,11.1 0,5.2 -0.6,9.5 -1.5,10.9 l 5,-1.7 v -0.1 h 0.1 c 0.6,-0.2 1.9,-4 1.9,-9.6 0,-5.3 -1.2,-9.6 -1.9,-10.1 z"
   id="path1485" />
		</g>
		<path
   id="buco_3_"
   fill="#6d0d15"
   d="m -168.8,412 c 0.2,-5.4 1,-9.4 1.9,-9.4 h 0.1 c 1.1,0.2 1.9,5.2 1.9,11.3 0,5.8 -0.8,10.6 -1.7,11.2 l -0.2,0.1 c -1.1,0 -2,-5.1 -2,-11.3 z" />
		<path
   id="anello_x5F_aggancio_3_"
   d="m -166.8,425.5 v 0 c -0.5,0 -1.2,-0.4 -1.8,-3.6 -0.4,-2.2 -0.6,-5 -0.6,-8 V 412 c 0.1,-2.6 0.3,-5 0.7,-6.8 0.5,-2.7 1.2,-3 1.6,-3 v 0 h 0.1 c 0.3,0 1,0.2 1.6,3.7 0.4,2.1 0.6,5 0.6,7.9 0,4.9 -0.6,10.6 -1.9,11.5 v 0 z m 0,-22.6 c -0.1,0 -0.5,0.5 -0.9,2.4 -0.3,1.7 -0.6,4.1 -0.7,6.7 v 1.9 c 0,3 0.2,5.8 0.6,7.9 0.4,2.3 0.9,2.9 1,3 h 0.1 c 0.1,-0.1 0.6,-0.7 1.1,-3.4 0.3,-2.1 0.5,-4.7 0.5,-7.5 0,-2.9 -0.2,-5.7 -0.6,-7.8 -0.5,-2.5 -1,-3.2 -1.1,-3.2 z" />
	</g>
	<path
   id="cordino_3_"
   d="m -167.1,425.5 c -0.1,0 -0.2,-0.1 -0.3,-0.2 l -9.6,-11.7 9.5,-11.1 c 0.2,-0.2 0.4,-0.2 0.6,0 0.2,0.2 0.2,0.4 0,0.6 l -9.1,10.6 9.1,11.2 c 0.1,0.2 0.1,0.4 -0.1,0.6 0.1,-0.1 0,0 -0.1,0 z" />
	<path
   id="gancio_3_"
   d="m -175.9,413.7 c 0,0.5 -0.5,0.9 -1.2,0.9 -0.7,0 -1.8,-0.9 -1.8,-0.9 0,0 1.2,-0.9 1.8,-0.9 0.6,0 1.2,0.4 1.2,0.9 z" />
	<g
   id="palo_8_">
		<path
   fill="#808080"
   d="m -179.6,444.7 h -1.3 c -0.3,0 -0.6,-0.3 -0.6,-0.6 V 409 c 0,-0.3 0.3,-0.6 0.6,-0.6 h 1.3 c 0.3,0 0.6,0.3 0.6,0.6 v 35.1 c 0,0.3 -0.3,0.6 -0.6,0.6 z"
   id="path1493" />
		<path
   d="m -179.6,444.7 h -1.3 c -0.4,0 -0.7,-0.3 -0.7,-0.7 v -35.1 c 0,-0.4 0.3,-0.7 0.7,-0.7 h 1.3 c 0.4,0 0.7,0.3 0.7,0.7 V 444 c 0,0.4 -0.3,0.7 -0.7,0.7 z m -1.3,-36.3 c -0.3,0 -0.5,0.2 -0.5,0.5 V 444 c 0,0.3 0.2,0.5 0.5,0.5 h 1.3 c 0.3,0 0.5,-0.2 0.5,-0.5 v -35.1 c 0,-0.3 -0.2,-0.5 -0.5,-0.5 z"
   id="path1495" />
	</g>
	<path
   id="palo_7_"
   fill="#333333"
   d="m -179.5,444.6 h -0.4 c -0.2,0 -0.4,-0.2 -0.4,-0.5 v -35.3 c 0,-0.2 0.2,-0.4 0.4,-0.4 h 0.4 c 0.2,0 0.4,0.2 0.4,0.4 v 35.3 c 0,0.2 -0.2,0.5 -0.4,0.5 z" />
	<path
   id="ombra2_x5F_attacco_3_"
   d="m -178.8,414.6 h -2.8 c -0.3,0 -0.5,-0.2 -0.5,-0.5 v -0.5 c 0,-0.3 0.2,-0.5 0.5,-0.5 h 2.8 c 0.3,0 0.5,0.2 0.5,0.5 v 0.5 c 0,0.3 -0.2,0.5 -0.5,0.5 z" />
	<rect
   id="ombra1_x5F_attacco_3_"
   x="-181.5"
   y="413.89999"
   width="2.5"
   height="0.60000002" />
	<path
   id="attacco_3_"
   fill="#4d4d4d"
   d="m -178.8,412.5 h -2.7 c -0.3,0 -0.6,0.2 -0.6,0.5 v 1.1 c 0,0.1 0.1,0.3 0.1,0.3 0.1,-0.1 0.3,-0.2 0.4,-0.2 h 2.7 c 0.2,0 0.3,0.1 0.4,0.2 0.1,-0.1 0.1,-0.2 0.1,-0.3 V 413 c 0.1,-0.3 -0.1,-0.5 -0.4,-0.5 z" />
</g>
</svg>
