<?xml version="1.0" encoding="UTF-8" standalone="no"?>
<!-- Generator: Adobe Illustrator 18.1.0, SVG Export Plug-In . SVG Version: 6.00 Build 0)  -->

<svg
   version="1.1"
   id="VENTOSO"
   x="0px"
   y="0px"
   viewBox="-247 380.9 61.700002 42.53923"
   enable-background="new -247 380.9 127.6 85"
   xml:space="preserve"
   width="61.700001"
   height="42.53923"
   xmlns="http://www.w3.org/2000/svg"
   xmlns:svg="http://www.w3.org/2000/svg"><defs
   id="defs1611" />
<g
   id="manica_x5F_completa_5_"
   transform="translate(-33,-21.26077)">
	<g
   id="manica_5_">
		<g
   id="g1521">
			<linearGradient
   id="SVGID_1_"
   gradientUnits="userSpaceOnUse"
   x1="-157.8932"
   y1="425.21591"
   x2="-158.049"
   y2="434.138">
				<stop
   offset="0"
   style="stop-color:#FFFFFF"
   id="stop1508" />
				<stop
   offset="0.3268"
   style="stop-color:#CFD0D1"
   id="stop1510" />
				<stop
   offset="0.7859"
   style="stop-color:#949699"
   id="stop1512" />
				<stop
   offset="1"
   style="stop-color:#808184"
   id="stop1514" />
			</linearGradient>
			<path
   fill="url(#SVGID_1_)"
   d="m -153.1,424.1 -6.4,-3.6 v 0.1 c 0.6,0.3 0.3,2.4 -0.8,4.8 -0.9,2.2 -2.1,3.8 -2.8,3.9 l 7.5,0.6 c 0.6,0.3 1.7,-0.8 2.4,-2.4 0.6,-1.6 0.7,-3.2 0.1,-3.4 z"
   id="path1517"
   style="fill:url(#SVGID_1_)" />
			<path
   d="m -155.4,430.1 v 0 c -0.1,0 -0.2,0 -0.2,0 l -8.7,-0.7 1.2,-0.2 c 0.5,-0.1 1.7,-1.5 2.7,-3.8 0.5,-1.1 0.8,-2.3 1,-3.2 0.2,-1 0,-1.4 -0.1,-1.5 l -0.1,-0.1 0.2,-0.3 6.6,3.6 c 0.4,0.2 0.5,0.6 0.5,1.3 0,0.7 -0.2,1.5 -0.6,2.3 -0.9,1.5 -1.8,2.6 -2.5,2.6 z m -7.2,-0.9 7,0.6 v 0 c 0,0 0.1,0 0.1,0 0.5,0 1.4,-0.9 2,-2.4 0.3,-0.8 0.5,-1.5 0.6,-2.2 0,-0.6 -0.1,-1 -0.3,-1.1 v 0 l -6,-3.3 c 0.1,0.4 0.1,0.9 0,1.3 -0.1,0.9 -0.5,2.1 -1,3.2 -0.8,1.9 -1.7,3.3 -2.4,3.9 z"
   id="path1519" />
		</g>
		<g
   id="anello5_x5F_red_5_">
			
				<linearGradient
   id="SVGID_2_"
   gradientUnits="userSpaceOnUse"
   x1="-321.7439"
   y1="494.0592"
   x2="-321.7439"
   y2="502.90921"
   gradientTransform="matrix(0.918,0.3967,-0.3967,0.918,326.7248,98.712)">
				<stop
   offset="0"
   style="stop-color:#E22527"
   id="stop1523" />
				<stop
   offset="0.1137"
   style="stop-color:#D22327"
   id="stop1525" />
				<stop
   offset="0.7185"
   style="stop-color:#89191B"
   id="stop1527" />
				<stop
   offset="1"
   style="stop-color:#711212"
   id="stop1529" />
			</linearGradient>
			<path
   fill="url(#SVGID_2_)"
   d="m -163.4,429.3 -7.5,-0.6 c 0.8,-0.3 2.5,-2.4 3.7,-5.3 1.3,-2.9 1.7,-5.7 1.3,-6.4 l 6.3,3.5 v 0.1 c 0.6,0.3 0.3,2.4 -0.8,4.8 -0.9,2.2 -2.1,3.8 -2.8,3.9 z"
   id="path1532"
   style="fill:url(#SVGID_2_)" />
			<path
   d="m -163.1,429.4 -8.4,-0.7 0.7,-0.2 c 0.7,-0.2 2.3,-2.2 3.6,-5.2 1.3,-3 1.6,-5.6 1.3,-6.2 l -0.3,-0.5 6.9,3.8 v 0.1 c 0.6,0.6 0,2.9 -0.8,4.9 -1.1,2.3 -2.3,3.9 -3,4 z m -7.3,-0.9 7.2,0.6 c 0.5,-0.1 1.7,-1.6 2.6,-3.8 1.1,-2.6 1.3,-4.5 0.9,-4.6 l -0.1,-0.1 v -0.1 l -5.9,-3.2 c 0.2,1.1 -0.3,3.5 -1.4,6.1 -1,2.5 -2.4,4.4 -3.3,5.1 z"
   id="path1534" />
		</g>
		<g
   id="anello4_x5F_white_5_">
			
				<linearGradient
   id="SVGID_3_"
   gradientUnits="userSpaceOnUse"
   x1="-329.0965"
   y1="494.88361"
   x2="-329.26041"
   y2="504.27551"
   gradientTransform="matrix(0.918,0.3967,-0.3967,0.918,326.7248,98.712)">
				<stop
   offset="0"
   style="stop-color:#FFFFFF"
   id="stop1537" />
				<stop
   offset="0.3268"
   style="stop-color:#CFD0D1"
   id="stop1539" />
				<stop
   offset="0.7859"
   style="stop-color:#949699"
   id="stop1541" />
				<stop
   offset="1"
   style="stop-color:#808184"
   id="stop1543" />
			</linearGradient>
			<path
   fill="url(#SVGID_3_)"
   d="m -165.9,417 c 0.4,0.7 0,3.4 -1.3,6.4 -1.2,2.9 -2.9,5 -3.7,5.3 l -7.9,-0.7 c 0.7,-0.1 2.5,-3 4.2,-6.9 1.7,-4 2.6,-7.4 2.1,-7.8 z"
   id="path1546"
   style="fill:url(#SVGID_3_)" />
			<path
   d="m -170.8,428.8 v 0 l -9.2,-0.8 1.3,-0.2 c 0.6,-0.1 2.3,-2.7 4,-6.8 0.8,-1.9 1.5,-3.8 1.9,-5.2 0.6,-2.1 0.3,-2.4 0.3,-2.4 l 0.2,-0.3 6.7,3.7 v 0 c 0.4,0.8 0,3.5 -1.3,6.5 -1.4,3.1 -3.1,5.2 -3.9,5.5 z m -7.5,-0.9 7.4,0.6 c 0.7,-0.3 2.3,-2.2 3.6,-5.2 1.3,-2.9 1.6,-5.6 1.3,-6.2 l -6.2,-3.4 c 0.2,1.3 -1.2,5 -2.2,7.5 -1.3,2.9 -2.9,5.8 -3.9,6.7 z"
   id="path1548" />
		</g>
		<g
   id="anello3_x5F_red_5_">
			
				<linearGradient
   id="SVGID_4_"
   gradientUnits="userSpaceOnUse"
   x1="-336.60651"
   y1="497.13019"
   x2="-336.60651"
   y2="506.24191"
   gradientTransform="matrix(0.918,0.3967,-0.3967,0.918,326.7248,98.712)">
				<stop
   offset="0"
   style="stop-color:#E22527"
   id="stop1551" />
				<stop
   offset="0.1137"
   style="stop-color:#D22327"
   id="stop1553" />
				<stop
   offset="0.7185"
   style="stop-color:#89191B"
   id="stop1555" />
				<stop
   offset="1"
   style="stop-color:#711212"
   id="stop1557" />
			</linearGradient>
			<path
   fill="url(#SVGID_4_)"
   d="m -178.8,428 -7.8,-0.6 v -0.2 c 0.7,0.1 3.3,-2.6 5.3,-7.3 2,-4.5 2.7,-9.3 2.3,-10.1 l 6.5,3.6 c 0,0 0,0 0,0 0.6,0.4 -0.4,3.8 -2.1,7.8 -1.6,3.8 -3.4,6.8 -4.2,6.9 z"
   id="path1560"
   style="fill:url(#SVGID_4_)" />
			<path
   d="m -178.7,428.1 h -0.1 l -7.9,-0.7 0.1,-0.5 h 0.1 c 0,0 0,0 0,0 0.6,0 3.1,-2.5 5.1,-7.2 2,-4.6 2.7,-9.3 2.3,-10 l -0.2,-0.4 6.9,3.8 c 0,0 0,0 0,0 0.8,0.5 -0.8,5 -2,8 -1.5,3.4 -3.4,6.9 -4.3,7 z m -7.5,-0.9 7.5,0.6 c 0.6,-0.1 2.3,-2.7 4,-6.8 0.8,-1.9 1.5,-3.8 1.9,-5.2 0.6,-2.1 0.3,-2.4 0.3,-2.4 v 0 l -6.2,-3.4 c 0.2,1.5 -0.7,5.9 -2.4,9.9 -1.8,4.1 -4,6.8 -5.1,7.3 z"
   id="path1562" />
		</g>
		<g
   id="anello2_x5F_white_5_">
			
				<linearGradient
   id="SVGID_5_"
   gradientUnits="userSpaceOnUse"
   x1="-344.0058"
   y1="497.03229"
   x2="-344.0058"
   y2="507.6915"
   gradientTransform="matrix(0.918,0.3967,-0.3967,0.918,326.7248,98.712)">
				<stop
   offset="0"
   style="stop-color:#FFFFFF"
   id="stop1565" />
				<stop
   offset="0.3268"
   style="stop-color:#CFD0D1"
   id="stop1567" />
				<stop
   offset="0.7859"
   style="stop-color:#949699"
   id="stop1569" />
				<stop
   offset="1"
   style="stop-color:#808184"
   id="stop1571" />
			</linearGradient>
			<path
   fill="url(#SVGID_5_)"
   d="m -186.6,427.2 v 0.2 l -8.6,-0.7 v -0.1 c 0.9,0.1 4,-3.6 6.5,-9.2 2.3,-5.4 3.1,-10.6 2.6,-11.5 l 7.1,3.9 c 0.4,0.8 -0.3,5.6 -2.3,10.1 -2,4.6 -4.6,7.3 -5.3,7.3 z"
   id="path1574"
   style="fill:url(#SVGID_5_)" />
			<path
   d="m -186.5,427.5 -8.9,-0.7 v -0.4 h 0.2 c 0.7,0 3.9,-3.4 6.3,-9.1 2.4,-5.5 3,-10.6 2.6,-11.4 l -0.3,-0.5 7.6,4.2 v 0 c 0.5,0.9 -0.4,5.8 -2.3,10.2 -1.9,4.3 -4.3,7.2 -5.3,7.4 z m -8.2,-1 8,0.7 V 427 h 0.1 c 0,0 0,0 0,0 0.6,0 3.1,-2.5 5.1,-7.2 1.9,-4.5 2.7,-9.1 2.3,-10 l -6.8,-3.7 c 0.3,1.6 -0.6,6.4 -2.7,11.3 -1.9,4.8 -4.7,8.3 -6,9.1 z"
   id="path1576" />
		</g>
		<g
   id="anello1_x5F_red_5_">
			
				<linearGradient
   id="SVGID_6_"
   gradientUnits="userSpaceOnUse"
   x1="-351.13791"
   y1="498.15439"
   x2="-351.13791"
   y2="507.39081"
   gradientTransform="matrix(0.918,0.3967,-0.3967,0.918,326.7248,98.712)">
				<stop
   offset="0"
   style="stop-color:#E22527"
   id="stop1579" />
				<stop
   offset="0.1137"
   style="stop-color:#D22327"
   id="stop1581" />
				<stop
   offset="0.7185"
   style="stop-color:#89191B"
   id="stop1583" />
				<stop
   offset="1"
   style="stop-color:#711212"
   id="stop1585" />
			</linearGradient>
			<path
   fill="url(#SVGID_6_)"
   d="m -195.2,426.5 v 0.1 l -6.6,-0.6 c 1.3,-0.2 4.2,-4.9 6.8,-10.9 2.7,-6.4 4.1,-11.9 3.1,-12.6 l 5.8,3.2 c 0.5,0.9 -0.3,6.2 -2.6,11.5 -2.4,5.7 -5.6,9.4 -6.5,9.3 z"
   id="path1588"
   style="fill:url(#SVGID_6_)" />
			<path
   d="m -195.1,426.8 -7.9,-0.7 1.1,-0.2 c 1.1,-0.2 3.9,-4.3 6.7,-10.8 2.9,-6.7 4,-11.9 3.1,-12.4 l 0.2,-0.3 5.8,3.2 v 0 c 0.6,1 -0.3,6.3 -2.6,11.7 -2.2,5.2 -5.3,9 -6.5,9.2 z m -6.2,-0.8 5.9,0.5 v -0.1 h 0.2 c 0.7,0 3.9,-3.4 6.3,-9.1 2.4,-5.5 3,-10.5 2.6,-11.4 l -5.2,-2.9 c 0.5,1.8 -1.2,7.3 -3.3,12.2 -2.4,5.5 -4.9,9.7 -6.5,10.8 z"
   id="path1590" />
		</g>
		<path
   id="buco_5_"
   fill="#6d0d15"
   d="m -198.2,411.5 c 2.6,-5.5 5.2,-9.4 6.3,-8.9 h 0.1 c 1,0.7 -0.3,6.2 -3.1,12.6 -2.6,6 -5.5,10.6 -6.8,10.9 h -0.3 c -1.1,-0.5 0.2,-6.1 3,-12.6 z" />
		<path
   id="anello_x5F_aggancio_5_"
   d="m -202.2,426.4 v 0 c -0.5,-0.2 -1.1,-0.9 -0.2,-4.5 0.6,-2.4 1.6,-5.5 3,-8.6 l 0.9,-1.9 c 1.3,-2.7 2.6,-5.1 3.7,-6.7 1.8,-2.5 2.6,-2.6 3,-2.4 v 0 h 0.1 c 0.2,0.2 1,0.6 0,4.6 -0.6,2.4 -1.6,5.4 -3,8.5 -2.2,5.1 -5.4,10.8 -7.1,11.1 v 0 z m 10.1,-23.5 c -0.1,0 -0.8,0.2 -2.1,2.1 -1.1,1.6 -2.4,4 -3.7,6.6 l -0.9,1.9 c -1.3,3.1 -2.4,6.1 -3,8.5 -0.6,2.6 -0.4,3.5 -0.3,3.6 h 0.1 c 0.2,-0.1 1,-0.5 2.6,-3.1 1.3,-2 2.6,-4.7 3.9,-7.5 1.3,-3.1 2.4,-6 2.9,-8.4 0.9,-2.7 0.7,-3.5 0.5,-3.7 z" />
	</g>
	<path
   id="cordino_5_"
   d="m -202.5,426.2 c -0.1,-0.1 -0.2,-0.2 -0.3,-0.3 l -4.7,-16.4 14.9,-7.3 c 0.2,-0.1 0.5,0 0.6,0.2 0.1,0.2 0,0.5 -0.2,0.6 l -14.2,6.9 4.5,15.7 c 0.1,0.3 -0.1,0.5 -0.3,0.6 -0.1,0.1 -0.2,0.1 -0.3,0 z" />
	<path
   id="gancio_5_"
   d="m -206.9,409.5 c 0,0.5 -0.6,1 -1.4,1 -0.8,0 -2.1,-1 -2.1,-1 0,0 1.3,-1 2.1,-1 0.8,0.1 1.4,0.5 1.4,1 z" />
	<path
   id="ombra2_x5F_attacco_5_"
   d="m -210.1,410.6 h -3.2 c -0.3,0 -0.6,-0.3 -0.6,-0.6 v -0.5 c 0,-0.3 0.3,-0.6 0.6,-0.6 h 3.2 c 0.3,0 0.6,0.3 0.6,0.6 v 0.5 c 0,0.3 -0.3,0.6 -0.6,0.6 z" />
	<g
   id="palo_12_">
		<path
   fill="#808080"
   d="m -211,444.6 h -1.4 c -0.4,0 -0.7,-0.3 -0.7,-0.7 v -39.7 c 0,-0.4 0.3,-0.7 0.7,-0.7 h 1.4 c 0.4,0 0.7,0.3 0.7,0.7 v 39.7 c 0,0.4 -0.3,0.7 -0.7,0.7 z"
   id="path1599" />
		<path
   d="m -211,444.7 h -1.4 c -0.4,0 -0.8,-0.4 -0.8,-0.8 v -39.7 c 0,-0.4 0.4,-0.8 0.8,-0.8 h 1.4 c 0.4,0 0.8,0.4 0.8,0.8 v 39.7 c 0,0.4 -0.4,0.8 -0.8,0.8 z m -1.5,-41.1 c -0.3,0 -0.6,0.3 -0.6,0.6 v 39.7 c 0,0.3 0.3,0.6 0.6,0.6 h 1.4 c 0.3,0 0.6,-0.3 0.6,-0.6 v -39.7 c 0,-0.3 -0.3,-0.6 -0.6,-0.6 z"
   id="path1601" />
	</g>
	<path
   id="palo_11_"
   fill="#333333"
   d="m -210.9,444.5 h -0.4 c -0.3,0 -0.5,-0.3 -0.5,-0.5 v -40 c 0,-0.3 0.2,-0.5 0.5,-0.5 h 0.4 c 0.3,0 0.5,0.2 0.5,0.5 v 39.9 c 0,0.3 -0.2,0.6 -0.5,0.6 z" />
	<rect
   id="ombra1_x5F_attacco_5_"
   x="-213.2"
   y="409.70001"
   width="2.8"
   height="0.69999999" />
	<path
   id="attacco_5_"
   fill="#4d4d4d"
   d="m -210.2,408.2 h -3.1 c -0.4,0 -0.7,0.3 -0.7,0.6 v 1.2 c 0,0.1 0.1,0.3 0.2,0.4 0.1,-0.1 0.3,-0.2 0.5,-0.2 h 3.1 c 0.2,0 0.4,0.1 0.5,0.2 0.1,-0.1 0.2,-0.2 0.2,-0.4 v -1.2 c 0,-0.3 -0.3,-0.6 -0.7,-0.6 z" />
</g>
</svg>
