<?xml version="1.0" encoding="utf-8"?>
<!-- Generator: Adobe Illustrator 18.1.0, SVG Export Plug-In . SVG Version: 6.00 Build 0)  -->
<svg version="1.1" id="Livello_8" xmlns="http://www.w3.org/2000/svg" xmlns:xlink="http://www.w3.org/1999/xlink" x="0px" y="0px"
	 viewBox="0 0 750 600" enable-background="new 0 0 750 600" xml:space="preserve">
<g>
	<g>
		<path fill="#8A5D3B" d="M7.9,478c0,0.6,0.1,1.1,0.1,1.7c1.3,0.1,2.6,0.2,3.8,0.2c67.6,0,135.3,0,202.9,0c1,0,1.9-0.1,2.9-0.1
			c0-1.4,0.2-2.8,0.8-4.2c8.3-21,17.6-41.5,27.6-61.6c9-18.2,19.1-35.8,29.4-53.2c0,0,41.8-59.5,41.2-61.6
			c-12.4-18.8-24.8-37.7-38.3-55.7c-0.9-1.1-15.2-19.7-21.6-27.7c-8.9-11.2-18.1-22.2-28.1-32.5c-4.9-5-10.4-8.8-17.7-9.3l0,0
			c-6.6-2.2-12.4,0.5-18.1,3.2c-8,3.9-63.7,75.2-67.2,80.2c-46.4,65.7-84,136.1-114,210.7C10.4,471.5,9.1,474.8,7.9,478z"/>
		<path fill="#231F20" d="M118.1,485.7c-35.4,0-70.8,0-106.2,0c-1,0-2-0.1-3-0.1c-0.4,0-0.8,0-1.2-0.1l-5-0.2L2,477.2l1.7-4.3
			c0.9-2.3,1.7-4.5,2.7-6.8c30.5-76.2,69.1-147.5,114.6-211.9c0.5-0.7,59-76.9,69.4-82c4.2-2.1,9.5-4.6,15.6-4.6
			c2.1,0,4.1,0.3,6.1,0.9c9.8,0.9,16.5,6.6,20.7,10.9c10.8,11,20.5,22.8,28.5,32.9c6.3,7.9,20.7,26.6,21.7,27.8
			c12.6,16.7,24.3,34.4,35.6,51.5l3.5,5.3l0.2,1c0.8,3.2,1,3.8-21.3,36.2c-9.7,14.1-19.5,28.1-20.7,29.9
			c-11.4,19.3-20.7,35.7-29.1,52.6c-10.8,21.9-19.8,41.9-27.4,61.2c-0.3,0.6-0.4,1.3-0.4,2.2l-0.1,5.5l-6.3,0.2
			c-0.7,0-1.5,0.1-2.2,0.1L118.1,485.7z M15.5,474.2c34.2,0,68.3,0,102.5,0l94.7,0c0.1-0.2,0.2-0.4,0.2-0.6
			c7.7-19.6,16.8-39.9,27.8-62.1c8.6-17.3,18-34,29.6-53.6l0.2-0.4c16.4-23.3,34.4-49.6,39.3-57.8l-1.1-1.7
			C297.6,281,286,263.5,273.7,247c-0.9-1.2-15.2-19.7-21.5-27.6c-7.8-9.9-17.3-21.4-27.7-32c-4.9-5-9.1-7.3-13.9-7.6l-0.8,0
			l-0.7-0.2c-4.1-1.4-8.3,0.3-13.6,2.9c-7.6,4.8-59.6,70.5-65.1,78.4C85.4,324.5,47.2,395,17,470.4C16.5,471.6,16,472.9,15.5,474.2z
			"/>
	</g>
	<g>
		<path fill="#C3996B" d="M426.7,479.8c20.8,0.1,41.7,0.2,62.5,0.3c0-0.6,0-1.3,0-1.9c-6.1-13.9-12-27.8-18.3-41.6
			c-11.5-25.2-87-143.8-103-161c-4.4-4.8-10-7.2-16.3-8.2c-12.1-0.6-21.5,3.8-28.9,13.6c-4.4,5.8-78.2,114.7-87.1,132.9
			c-10,20.2-19.3,40.7-27.6,61.6c-0.5,1.4-0.8,2.8-0.8,4.2C234.6,479.9,425.5,479.9,426.7,479.8"/>
		<path fill="#231F20" d="M495,485.9l-68.3-0.3c-8.1,0.1-194.8,0.1-219.4,0l-5.8,0l0.1-5.8c0-2.3,0.4-4.3,1.2-6.2
			c7.7-19.6,16.8-39.9,27.8-62.1c9.6-19.3,83.8-128.7,87.7-133.8c8.4-11.3,19.8-16.6,33.8-16l0.5,0.1c8,1.2,14.7,4.5,19.7,9.9
			c17.4,18.6,92.9,138.1,104,162.5c4.3,9.5,8.6,19.3,12.7,28.7c1.9,4.3,3.7,8.6,5.6,12.9l0.5,1.1V485.9z M426.6,474l0.1,4.3l0-4.3
			l54.5,0.2c-1-2.3-2-4.5-2.9-6.8c-4.1-9.4-8.3-19.1-12.6-28.5c-11.7-25.6-86.9-143.3-101.9-159.4c-3.2-3.4-7.4-5.5-12.7-6.3
			c-10.1-0.4-17.6,3.2-23.7,11.4c-3.8,5-77.6,113.8-86.6,132c-10.1,20.5-18.6,39.4-25.9,57.5C260.3,474.1,424.3,474.1,426.6,474z"/>
	</g>
	<path fill="#E7E6F2" d="M396.2,389.1c-10.7-8.2-21-1.7-24.8,9c-2.1,6-4,12-6.1,18c-1.2,3.2-2.4,6.5-4.1,9.4
		c-6.9,11.8-19.3,10.9-25.6,0c-4.1-7-5.4-15.3-8.4-22.8c-1.7-4.3-3.1-8.6-6.2-12.1c-6-6.6-14.1-7-20.7-0.9c-4.6,4.3-8,9.8-12.1,14.6
		c-1.3,1.5-2.4,3.1-3.8,4.4c-3.9,3.7-8.2,6.5-13.8,3.9c-5.7-2.6-8.1-7.5-8.6-13.6c-0.9-10.6,2.6-15.2,5.9-25.2
		c13-19,23.4-36.1,37.6-57.6c1-1.5,14.7-21.4,19.1-27.3c7.4-10.1,13.9-17.9,25.9-17.3c6.3,0.9,12.4,7.2,16.9,12.1
		c15.9,17.6,65.9,96.5,66.8,102.3c1.1,6.9,1.7,13.4-1.1,19.8c-3.5,8.1-11.4,10-18.6,5c-3.9-2.7-6-7.2-9.6-10.2
		C402.8,396.1,399.1,392.9,396.2,389.1"/>
	<path fill="#DDDAEB" d="M135.2,277.3c0.1,1.4,0.8,2.8,1.4,4.1c4,9.2,8.2,10,15.2,2.9c4.4-4.4,8.5-9.2,13.1-13.3
		c9.9-8.7,19.3-5.8,22.7,6.8c1.9,6.9,3.2,13.9,4.9,20.9c1,4.1,2.7,8,5.8,10.8c7.6,6.8,18.4,4.2,22.9-5.6c3.3-7.3,4.5-15.3,5.9-23.1
		c1.8-10.1,5.8-14.4,14.5-14.8c2.2,1.4,5.1,1.4,6.8,3.7c4.9,2.6,8,7.3,11.8,11c0.3,0.3,0.5,0.8,0.9,1.1c3.3,3.3,6.4,8.7,11.6,6.9
		c5.7-2,7.6-8.2,8.3-14.1c1.2-9.8,3-9.1-0.5-18c-5-9.1-19.2-25.9-25.7-34c-8.9-11.2-20.3-24.8-30.3-35c-4.9-5-12-7.6-19.2-8
		c0,0-5.9,1-11.5,3.8c-8,3.9-38.8,45.6-48.7,57.8c-2.9,3.6-9.6,12.9-10.3,14.6C131.8,263.1,134.4,269.7,135.2,277.3z"/>
</g>
<g>
	<g>
		<g>
			<path fill="#BE1E2D" d="M446.7,251.7C446.7,251.7,446.7,251.7,446.7,251.7c-52.4,0-93.9-16.9-126.7-51.6
				c-10.2-10.7-19-21.7-26.8-31.4c-29.5-36.6-47.2-58.6-100.4-38.2c-38.5,14.7-62.3,50.6-66.6,59.4c-2.3,4.8-8.1,6.8-12.9,4.4
				c-4.8-2.3-6.8-8.1-4.4-12.9c6.1-12.6,33.5-52.2,77-68.9c66.2-25.4,92.2,6.8,122.3,44.1c8,9.9,16.2,20.1,25.8,30.3
				c29,30.6,65.9,45.5,112.8,45.5c36.2,0,60-23.2,64.8-46.1c5-24-9.5-45.9-38.8-58.6c-31-13.5-50.1-1.2-56.9,4.6
				c-9.3,8.1-13.6,19.2-11.1,28.4c2.4,8.6,10.9,14.6,24.1,17c5.2,0.9,8.7,5.9,7.8,11.2c-0.9,5.2-5.9,8.7-11.2,7.8
				c-28.1-5-36.7-21.5-39.2-30.8c-4.5-16.3,2.2-35.1,17.1-48c19.8-17.2,48.7-20.1,77.1-7.8c45.1,19.6,55.4,54.3,50,80.2
				c-3.5,16.7-13.4,32.1-28,43.3C486.8,245.5,467.6,251.7,446.7,251.7z"/>
			<path d="M446.7,252.2L446.7,252.2c-52.6,0-94.2-16.9-127.1-51.7c-10.2-10.8-19-21.7-26.8-31.4c-21.5-26.6-37-45.9-64.6-45.9
				c-10.1,0-21.6,2.5-35.2,7.7c-38.3,14.7-62.1,50.4-66.4,59.1c-1.7,3.5-5.2,5.7-9.1,5.7c-1.5,0-3-0.3-4.4-1
				c-5-2.4-7.1-8.5-4.7-13.5c6.2-12.6,33.6-52.4,77.3-69.1c16-6.1,29.9-9.1,42.8-9.1c37,0,57,24.7,80.1,53.4
				c8,9.9,16.2,20.1,25.8,30.2C363.2,217.1,400,232,446.7,232c36,0,59.5-23,64.3-45.7c4.9-23.7-9.5-45.4-38.6-58.1
				c-9.2-4-18.2-6-26.6-6c-15.3,0-25.2,6.6-29.7,10.6c-9.1,7.9-13.4,18.9-11,27.8c2.3,8.4,10.7,14.3,23.7,16.6
				c5.5,1,9.2,6.3,8.2,11.7c-0.9,4.8-5,8.3-10,8.3c-0.6,0-1.2-0.1-1.8-0.2c-28.4-5.1-37-21.7-39.6-31.2
				c-4.5-16.5,2.2-35.5,17.2-48.5c11.6-10.1,26.5-15.5,42.9-15.5c11.4,0,23.1,2.6,34.8,7.6c45.4,19.7,55.7,54.6,50.3,80.7
				c-3.5,16.9-13.5,32.3-28.2,43.6C487,245.9,467.7,252.2,446.7,252.2z M228.2,122.2c28.1,0,43.7,19.4,65.4,46.2
				c7.8,9.7,16.7,20.7,26.8,31.4c32.7,34.6,74.1,51.4,126.4,51.4l0,0.5v-0.5c20.8,0,39.9-6.2,55.3-18c14.5-11.1,24.4-26.4,27.8-43
				c5.3-25.7-4.9-60.2-49.7-79.6c-11.5-5-23.1-7.5-34.4-7.5c-16.2,0-30.8,5.3-42.2,15.2c-14.7,12.8-21.3,31.4-16.9,47.5
				c2.5,9.2,11,25.5,38.9,30.5c0.5,0.1,1.1,0.1,1.6,0.1c4.4,0,8.2-3.2,9-7.5c0.9-5-2.4-9.7-7.4-10.6c-13.4-2.4-22.1-8.6-24.5-17.4
				c-2.6-9.3,1.8-20.7,11.3-28.9c4.7-4,14.8-10.8,30.4-10.8c8.5,0,17.6,2.1,27,6.1c29.5,12.8,44.2,34.9,39.1,59.2
				c-4.8,23.1-28.7,46.5-65.2,46.5c0,0,0,0,0,0c-47,0-84-15-113.1-45.7c-9.7-10.2-17.9-20.4-25.8-30.3c-22.9-28.5-42.7-53-79.3-53
				c-12.7,0-26.6,3-42.4,9c-43.4,16.6-70.7,56.1-76.8,68.6c-2.2,4.5-0.3,10,4.2,12.2c1.3,0.6,2.6,0.9,4,0.9c3.5,0,6.7-2,8.2-5.1
				c4.3-8.8,28.3-44.8,66.9-59.6C206.3,124.8,217.9,122.2,228.2,122.2z"/>
		</g>
	</g>
	<g>
		<g>
			<path fill="#BE1E2D" d="M661.1,491.4c-6.4,0-11.7-0.5-15.4-0.9c-36.3-3.4-60.1-23.6-70.3-32.2c-20.2-17.1-48.5-64.6-75.9-110.6
				c-17.9-30-34.7-58.3-44.9-70c-3.5-4-3-10.1,1-13.6c4-3.5,10.1-3,13.6,1c11.3,13,27.8,40.7,46.8,72.8
				c25.3,42.5,54.1,90.8,71.8,105.8c8.8,7.4,29.4,24.8,59.7,27.7c11.6,1.1,38.8,3.7,57.2-15.1c2-2,19.4-20.7,14.5-45.3
				c-3.7-18.6-17.5-29.1-25.4-33.8c-1.1-0.6-26.3-15.2-49.7-3.2c-13.1,6.7-26.6,21.4-23.6,29c2.4,6.2,15.3,11.5,30.7,9.3
				c5.3-0.7,10.1,2.9,10.9,8.2c0.7,5.3-2.9,10.1-8.2,10.9c-23.7,3.3-45.3-5.7-51.4-21.5c-8.5-22.1,15.6-44.3,32.8-53.1
				c32.2-16.5,64.7,1.6,68.3,3.7c10.7,6.3,29.4,20.7,34.5,46.6c6.6,33.6-15.2,57.9-19.7,62.5C700.6,488,677.5,491.4,661.1,491.4z"/>
			<path d="M661.1,491.9c-6.4,0-11.8-0.5-15.4-0.9c-36.5-3.5-60.4-23.7-70.6-32.3c-20.3-17.1-48.6-64.7-76-110.7
				c-17.8-30-34.7-58.2-44.8-70c-1.8-2-2.6-4.7-2.4-7.4c0.2-2.7,1.4-5.2,3.5-6.9c1.8-1.6,4.2-2.5,6.6-2.5c2.9,0,5.7,1.3,7.7,3.5
				c11.3,13.1,27.8,40.8,46.9,72.8c25.3,42.5,54,90.7,71.7,105.7c8.8,7.4,29.3,24.7,59.4,27.6c3.4,0.3,8.1,0.8,13.6,0.8
				c18.5,0,33-5.3,43.2-15.7c2-2,19.2-20.5,14.4-44.8c-3.6-18.4-17.3-28.8-25.1-33.4c-0.5-0.3-13.5-7.8-29.2-7.8
				c-7.2,0-14,1.6-20,4.7c-12.9,6.6-26.2,21-23.4,28.4c1.8,4.6,10.5,9.5,23.3,9.5c2.3,0,4.6-0.2,6.9-0.5c0.5-0.1,0.9-0.1,1.4-0.1
				c5,0,9.3,3.8,10,8.7c0.4,2.7-0.3,5.3-1.9,7.5c-1.6,2.2-4,3.6-6.7,3.9c-3.3,0.5-6.5,0.7-9.8,0.7c-20.3,0-36.9-8.8-42.1-22.5
				c-8.6-22.4,15.7-44.8,33-53.7c9-4.6,18.8-6.9,29.2-6.9c20.4,0,36.5,8.9,39.6,10.6c10.8,6.3,29.6,20.8,34.7,47
				c6.7,33.8-15.3,58.3-19.8,62.9C704.7,484.6,685.3,491.9,661.1,491.9z M462,262.4c-2.2,0-4.3,0.8-6,2.2c-1.8,1.6-3,3.8-3.1,6.2
				c-0.2,2.4,0.6,4.8,2.2,6.6c10.2,11.8,27.1,40.1,44.9,70.1c27.4,46,55.7,93.5,75.8,110.5c10.1,8.6,33.9,28.6,70,32
				c3.6,0.3,9,0.9,15.3,0.9c23.9,0,43.1-7.2,57.1-21.5c4.4-4.5,26.1-28.7,19.5-62c-5.1-25.7-23.6-40.1-34.3-46.3
				c-3-1.8-18.9-10.5-39-10.5c-10.2,0-19.9,2.3-28.7,6.8c-17.1,8.7-41,30.7-32.6,52.4c5.1,13.3,21.3,21.8,41.2,21.8
				c3.2,0,6.4-0.2,9.6-0.7c2.4-0.3,4.6-1.6,6-3.5s2.1-4.3,1.8-6.8c-0.6-4.5-4.5-7.9-9-7.9h0c-0.4,0-0.9,0-1.3,0.1
				c-2.4,0.3-4.7,0.5-7.1,0.5c-11.8,0-21.9-4.3-24.2-10.1c-3-7.8,10.6-22.8,23.9-29.6c6.2-3.2,13.1-4.8,20.5-4.8
				c16,0,29.2,7.6,29.7,8c8,4.7,21.9,15.3,25.6,34.1c4.9,24.9-12.7,43.7-14.7,45.7c-10.4,10.6-25.2,16-43.9,16
				c-5.5,0-10.2-0.4-13.7-0.8c-30.4-2.9-51.1-20.4-60-27.8c-17.8-15-46.5-63.3-71.9-105.9c-19.1-32-35.6-59.7-46.8-72.7
				C467.1,263.5,464.6,262.4,462,262.4z"/>
		</g>
	</g>
	<g>
		<g>
			<path fill="#BE1E2D" d="M620.8,308.6c-4.9,0-9.9-0.5-14.8-1.5c-33.6-6.9-58.4-36.4-60.3-71.8c-0.3-5.3,3.8-9.8,9.1-10.1
				c5.3-0.3,9.8,3.8,10.1,9.1c1.4,26.6,19.9,48.8,44.9,53.9c23.2,4.8,47.4-6,59-26.1c6.2-10.9,13.4-33.9,0.6-51.1
				c-7.5-10-16.7-15.9-25.9-16.5c-7.9-0.5-15.6,2.9-22.3,9.8c-6.4,6.6-0.8,17.7,5.6,27.7c1.8,2.8,2.8,4.4,3.3,6.6
				c1.2,5.2-2,10.3-7.2,11.5c-4.7,1.1-9.4-1.5-11.1-5.9c-0.3-0.5-0.8-1.3-1.2-2c-5.2-8.1-20.9-32.9-3.1-51.4
				c10.6-10.9,23.8-16.5,37.4-15.6c15,1,29.2,9.6,40.1,24.2c16.3,22,12.1,52.1,0.6,72.1C672.4,294.7,647.1,308.6,620.8,308.6z"/>
			<path d="M620.8,309.1c-5,0-10.1-0.5-14.9-1.5c-33.8-7-58.8-36.7-60.7-72.2c-0.1-2.7,0.8-5.3,2.6-7.3c1.8-2,4.3-3.2,7-3.3
				c5.6-0.3,10.3,4,10.6,9.6c1.4,26.4,19.7,48.4,44.5,53.5c3.6,0.7,7.3,1.1,11,1.1c19.7,0,37.9-10.4,47.5-27
				c6.2-10.8,13.3-33.5,0.7-50.5c-7.4-9.9-16.5-15.7-25.6-16.3c-7.7-0.5-15.3,2.8-21.9,9.6c-6.2,6.4-0.6,17.2,5.6,27
				c1.8,2.8,2.9,4.5,3.4,6.7c0.6,2.6,0.2,5.3-1.3,7.6c-1.4,2.3-3.7,3.9-6.3,4.5c-0.8,0.2-1.5,0.3-2.3,0.3c-4.1,0-7.9-2.6-9.4-6.4
				c-0.2-0.4-0.7-1.1-1.1-1.8l-0.1-0.1c-5.2-8.2-21.1-33.3-3.1-52c10.6-11,24.2-16.6,37.8-15.7c15.1,1,29.5,9.7,40.5,24.4
				c16.5,22.2,12.2,52.5,0.7,72.6C672.8,294.9,647.9,309.1,620.8,309.1z M555.4,225.7c-0.2,0-0.3,0-0.5,0c-2.4,0.1-4.7,1.2-6.3,3
				c-1.6,1.8-2.5,4.1-2.3,6.6c1.9,35.1,26.5,64.4,59.9,71.3c4.8,1,9.8,1.5,14.7,1.5c26.7,0,51.3-14.1,64.3-36.7
				c11.4-19.9,15.6-49.7-0.6-71.5c-10.8-14.5-24.9-23.1-39.8-24c-13.3-0.9-26.6,4.7-37,15.4c-17.5,18.1-1.9,42.7,3.2,50.7l0.1,0.1
				c0.4,0.7,0.9,1.4,1.2,1.9c1.4,3.5,4.8,5.9,8.5,5.9c0.7,0,1.4-0.1,2.1-0.2c2.4-0.5,4.4-2,5.7-4.1c1.3-2.1,1.7-4.5,1.2-6.9
				c-0.5-2.1-1.5-3.7-3.2-6.4c-6.4-10.1-12.1-21.4-5.5-28.3c6.7-7,14.6-10.4,22.7-9.9c9.4,0.6,18.7,6.5,26.3,16.7
				c12.9,17.4,5.7,40.6-0.6,51.6c-9.7,17-28.2,27.5-48.3,27.5c-3.8,0-7.5-0.4-11.2-1.1c-25.3-5.2-43.9-27.6-45.3-54.4
				C564.2,229.5,560.2,225.7,555.4,225.7z"/>
		</g>
	</g>
</g>
</svg>
