<?xml version="1.0" encoding="UTF-8" standalone="no"?>
<svg
   xmlns:dc="http://purl.org/dc/elements/1.1/"
   xmlns:cc="http://creativecommons.org/ns#"
   xmlns:rdf="http://www.w3.org/1999/02/22-rdf-syntax-ns#"
   xmlns:svg="http://www.w3.org/2000/svg"
   xmlns="http://www.w3.org/2000/svg"
   xmlns:sodipodi="http://sodipodi.sourceforge.net/DTD/sodipodi-0.dtd"
   xmlns:inkscape="http://www.inkscape.org/namespaces/inkscape"
   viewBox="0 150 1091.0354 1215.2997"
   id="widget_01"
   version="1.1"
   width="20"
   height="20"
   sodipodi:docname="logo.svg"
   inkscape:version="1.0.2 (e86c870879, 2021-01-15)">
  <sodipodi:namedview
     pagecolor="#ffffff"
     bordercolor="#666666"
     borderopacity="1"
     objecttolerance="10"
     gridtolerance="10"
     guidetolerance="10"
     inkscape:pageopacity="0"
     inkscape:pageshadow="2"
     inkscape:window-width="1920"
     inkscape:window-height="1021"
     id="namedview22"
     showgrid="false"
     inkscape:zoom="0.50851655"
     inkscape:cx="545.5177"
     inkscape:cy="607.64984"
     inkscape:window-x="0"
     inkscape:window-y="0"
     inkscape:window-maximized="1"
     inkscape:current-layer="widget_01" />
  <metadata
     id="metadata205">
    <rdf:RDF>
      <cc:Work
         rdf:about="">
        <dc:format>image/svg+xml</dc:format>
        <dc:type
           rdf:resource="http://purl.org/dc/dcmitype/StillImage" />
        <dc:title />
      </cc:Work>
    </rdf:RDF>
  </metadata>
  <defs
     id="defs4">
    <style
       id="style2">
      .al-cls-1 {
        fill: #ffffff;
      }
      .al-cls-2 {
        fill: #033162;
      }
	    .al-cls-3 {
        fill: #ffffff;
      }
      .al-cls-4 {
        fill: #9D9D9B;
      }
	    <!-- GRIGIO -->


      .al-cls-5 {
        fill: #dadada;
      }
	    <!-- VERDE -->


      .al-cls-6 {
        fill: #6EBA00;
      }
	    <!-- GIALLO -->


      .al-cls-7 {
        fill: #FFFF00;
      }
      <!-- ARANCIONE -->


      .al-cls-8 {
        fill: #FF6D00;
      }
      <!-- ROSSO -->


      .al-cls-9 {
        fill: #E30711;
      }
    </style>
  </defs>
  <g
     id="campanella"
     data-toggle="popover"
     fill="#777777"
     transform="translate(-147.86192,-385.79793)"
     style="fill:#2e9d53;fill-opacity:1">
    <path
       d="m 247.501,1224.007 c -27.998,0 -56.001,-0.282 -83.993,0.134 -11.841,0.176 -14.423,-6.312 -15.346,-13.732 -0.988,-7.938 0.358,-15.56 5.621,-22.131 6.752,-8.429 13.219,-17.074 20.701,-24.913 4.21,-4.412 4.266,-10.371 4.329,-15.997 0.173,-15.331 -0.002,-30.665 0.074,-45.997 0.078,-15.7 3.485,-30.378 13.752,-42.818 8.157,-9.883 18.725,-15.809 31.122,-18.517 3.675,-0.803 5.987,-1.769 6.677,-6.329 1.263,-8.349 9.045,-14.184 17.438,-14.285 8.186,-0.099 15.776,5.565 17.373,14.333 0.813,4.46 2.956,5.411 6.601,6.23 15.466,3.477 28,11.474 36.133,25.292 6.288,10.682 8.911,22.538 9.003,34.89 0.114,15.332 0.143,30.666 -0.024,45.997 -0.094,8.548 2.325,15.597 8.49,21.983 7.354,7.618 14.313,15.776 19.544,25.114 3.979,7.103 3.755,14.723 1.549,22.289 -1.755,6.019 -5.739,8.481 -13.048,8.485 -28.665,0.018 -57.33,0.01 -85.995,0.01 -0.001,-0.011 -0.001,-0.023 -0.001,-0.035 z"
       id="path54"
       style="fill:#2e9d53;fill-opacity:1" />
    <path
       d="m 248.027,1236.12 c 9.983,0 19.966,0.076 29.947,-0.042 2.995,-0.035 4.128,0.372 3.273,3.902 -2.976,12.289 -9.179,22.115 -21.79,25.521 -13.659,3.688 -26.821,2.379 -37.165,-8.932 -4.478,-4.897 -6.555,-10.991 -8.088,-17.317 -0.773,-3.191 1.202,-3.153 3.377,-3.147 10.149,0.027 20.297,0.012 30.446,0.015 z"
       id="path56"
       style="fill:#2e9d53;fill-opacity:1" />
  </g>
  <g
     id="onda6"
     data-toggle="popover"
     class="al-cls-5"
     transform="translate(-147.86192,-385.79793)"
     style="fill:#2e9d53;fill-opacity:1">
    <path
       d="m 1147.763,1146.841 c -0.397,-67.351 -7.913,-129.869 -23.394,-191.47 -19.569,-77.866 -50.573,-150.805 -92.967,-218.924 -30.263,-48.626 -65.706,-93.189 -105.979,-133.901 -2.394,-2.42 -3.126,-3.855 -0.254,-6.684 19.54,-19.247 38.938,-38.639 58.212,-58.153 2.479,-2.51 3.688,-2.558 6.134,-0.082 34.217,34.631 65.383,71.793 93.415,111.605 31.031,44.07 57.628,90.675 79.795,139.776 24.06,53.293 42.4,108.527 55.205,165.595 7.795,34.738 13.356,69.839 16.824,105.251 4.144,42.311 5.237,84.75 3.019,127.198 -3.553,67.99 -14.719,134.782 -33.999,200.086 -16.281,55.146 -37.854,108.21 -64.871,159.026 -28.444,53.501 -62.063,103.486 -101.094,149.843 -15.546,18.464 -31.804,36.259 -48.699,53.492 -2.231,2.276 -3.262,2.008 -5.339,-0.084 -19.577,-19.715 -39.234,-39.351 -58.982,-58.895 -2.368,-2.343 -2.062,-3.641 0.122,-5.85 34.242,-34.619 65.053,-72.056 92.226,-112.483 30.825,-45.86 56.428,-94.454 76.764,-145.835 18.89,-47.729 32.71,-96.902 41.797,-147.39 3.827,-21.262 6.555,-42.689 8.597,-64.221 2.267,-23.898 2.964,-47.838 3.468,-67.9 z"
       id="path183"
       style="fill:#2e9d53;fill-opacity:1" />
  </g>
  <g
     id="onda5"
     data-toggle="popover"
     class="al-cls-5"
     transform="translate(-147.86192,-385.79793)"
     style="fill:#2e9d53;fill-opacity:1">
    <path
       d="m 1102.921,1130.674 c 0.802,79.902 -9.895,155.161 -32.782,228.627 -17.624,56.573 -41.777,110.21 -72.676,160.803 -29.691,48.616 -64.559,93.149 -104.669,133.601 -1.854,1.87 -2.718,2.035 -4.578,0.163 -19.82,-19.943 -39.669,-39.858 -59.665,-59.624 -2.577,-2.547 -1.59,-3.948 0.328,-5.839 19.091,-18.819 36.499,-39.115 52.793,-60.378 40.37,-52.682 71.613,-110.309 93.808,-172.869 13.543,-38.172 23.303,-77.287 29.312,-117.307 3.508,-23.359 5.45,-46.878 6.545,-70.51 1.726,-37.226 -0.489,-74.219 -5.476,-111.035 -7.032,-51.904 -20.462,-102.195 -40.194,-150.747 -28.651,-70.498 -68.544,-133.906 -120.134,-189.899 -5.522,-5.993 -11.101,-11.939 -16.823,-17.74 -2.123,-2.152 -2.068,-3.525 0.079,-5.655 19.83,-19.664 39.641,-39.348 59.24,-59.24 3.098,-3.145 4.15,-0.62 5.732,0.982 40.158,40.67 75.154,85.368 104.784,134.262 31.81,52.492 56.426,108.178 74.019,166.953 10.774,35.996 18.6,72.636 23.656,109.894 3.991,29.399 6.031,58.912 6.701,85.558 z"
       id="path186"
       style="fill:#2e9d53;fill-opacity:1" />
  </g>
  <g
     id="onda4"
     data-toggle="popover"
     class="al-cls-5"
     transform="translate(-147.86192,-385.79793)"
     style="fill:#2e9d53;fill-opacity:1">
    <path
       d="m 967,1151.221 c -1.155,70.979 -14.198,139.644 -39.949,205.888 -21.123,54.338 -49.802,104.32 -85.759,150.149 -13.463,17.159 -27.971,33.416 -43.191,49.046 -2.657,2.728 -4.089,3.392 -7.241,0.182 -19.23,-19.584 -38.715,-38.921 -58.255,-58.197 -2.492,-2.458 -1.761,-3.844 0.213,-5.846 57.255,-58.058 97.776,-126.117 121.639,-204.065 10.4,-33.97 16.804,-68.699 19.845,-104.12 2.819,-32.83 2.317,-65.59 -1.538,-98.231 -8.334,-70.556 -30.417,-136.562 -66.925,-197.633 -20.493,-34.282 -44.67,-65.715 -72.91,-93.973 -2.522,-2.523 -2.325,-3.993 0.029,-6.328 19.709,-19.548 39.382,-39.135 58.912,-58.861 2.348,-2.371 3.387,-1.848 5.397,0.199 40.594,41.352 74.74,87.449 101.792,138.703 21.263,40.287 37.624,82.49 49.05,126.641 7.129,27.547 12.332,55.423 15.471,83.656 2.688,24.159 4.061,48.433 3.42,72.79 z"
       id="path189"
       style="fill:#2e9d53;fill-opacity:1" />
  </g>
  <g
     id="onda3"
     data-toggle="popover"
     class="al-cls-5"
     transform="translate(-147.86192,-385.79793)"
     style="fill:#2e9d53;fill-opacity:1">
    <path
       d="m 830.999,1144.029 c 0.261,55.628 -9.699,109.463 -29.55,161.374 -17.904,46.818 -42.931,89.556 -75.182,128.013 -8.03,9.575 -16.513,18.722 -25.1,27.788 -1.949,2.058 -3.084,2.539 -5.461,0.133 -19.528,-19.762 -39.208,-39.372 -58.949,-58.922 -2.248,-2.227 -2.322,-3.613 -0.102,-5.855 23.794,-24.036 43.725,-50.96 59.821,-80.701 19.065,-35.227 31.88,-72.589 38.648,-112.099 4.379,-25.566 5.958,-51.306 4.741,-77.117 -2.125,-45.056 -12.218,-88.354 -30.547,-129.679 -17.724,-39.961 -41.85,-75.541 -72.507,-106.679 -2.238,-2.273 -2.316,-3.749 -0.082,-5.969 19.816,-19.68 39.629,-39.365 59.254,-59.234 2.746,-2.78 3.768,-0.901 5.372,0.723 23.835,24.127 44.684,50.62 62.51,79.456 27.534,44.539 46.687,92.481 57.508,143.707 5.888,27.871 9.47,56.034 9.622,84.572 0.02,3.496 0.004,6.993 0.004,10.489 z"
       id="path192"
       style="fill:#2e9d53;fill-opacity:1" />
  </g>
  <g
     id="onda2"
     data-toggle="popover"
     class="al-cls-5"
     transform="translate(-147.86192,-385.79793)"
     style="fill:#2e9d53;fill-opacity:1">
    <path
       d="m 695.394,1143.277 c -0.474,71.682 -22.116,136.203 -65.558,193.334 -7.557,9.938 -15.898,19.196 -24.409,28.321 -2.404,2.577 -3.605,2.504 -6.137,-0.058 -19.406,-19.637 -38.984,-39.106 -58.618,-58.516 -2.329,-2.303 -2.209,-3.7 -0.015,-5.957 35.168,-36.167 55.925,-79.523 62.002,-129.389 6.159,-50.54 -3.677,-98.233 -29.542,-142.354 -9.038,-15.417 -19.692,-29.637 -32.316,-42.301 -2.611,-2.619 -1.984,-4.122 0.258,-6.348 19.693,-19.557 39.354,-39.147 58.889,-58.861 2.198,-2.218 3.245,-1.625 5.036,0.217 31.503,32.407 55.265,69.693 70.968,112.103 9.095,24.562 14.806,49.93 17.805,75.892 1.3,11.23 1.725,22.564 1.637,33.917 z"
       id="path195"
       style="fill:#2e9d53;fill-opacity:1" />
  </g>
  <g
     id="onda1"
     data-toggle="popover"
     class="al-cls-5"
     transform="translate(-147.86192,-385.79793)"
     style="fill:#2e9d53;fill-opacity:1">
    <path
       d="m 559.792,1142.374 c -0.865,48.684 -16.934,89.827 -48.811,124.698 -4.512,4.936 -4.625,4.918 -9.372,0.176 -18.937,-18.922 -37.794,-37.924 -56.819,-56.757 -2.556,-2.53 -2.085,-4.014 0.058,-6.35 11.87,-12.941 19.549,-28.06 22.315,-45.43 4.56,-28.637 -2.713,-54.016 -21.966,-75.748 -2.491,-2.812 -2.872,-4.28 -0.06,-7.058 19.5,-19.262 38.882,-38.644 58.166,-58.122 2.465,-2.49 3.665,-2.431 6.07,0.121 27.184,28.843 43.513,62.801 48.736,102.111 1.053,7.93 1.296,15.899 1.683,22.359 z"
       id="path198"
       style="fill:#2e9d53;fill-opacity:1" />
  </g>
</svg>
