<?xml version="1.0" encoding="UTF-8"?>
<svg width="1091pt" height="1215pt" version="1.0" viewBox="0 0 1091 1215" xmlns="http://www.w3.org/2000/svg">
<g transform="translate(100.000000,978.000000) scale(0.100000,-0.100000)"
fill="#2e9d53" stroke="#2e9d53" stroke-width="2.6384">
<path d="M7 8148 c-9 -791 -9 -8075 -1 -8117 l6 -31 4889 0 c2689 0 4889 3
4888 8 0 6 -3462 3180 -3571 3274 l-43 37 -60 -29 c-79 -39 -219 -84 -330
-107 -126 -25 -488 -25 -625 0 -725 134 -1471 662 -2182 1543 l-90 111 -92 13
c-134 18 -334 71 -471 124 -858 335 -1376 1125 -1480 2256 -36 396 -25 851 31
1281 l6 46 -426 106 c-234 59 -430 107 -434 107 -5 0 -12 -280 -15 -622z"/>
<path d="M1370 8098 c0 -44 42 -702 51 -793 73 -774 239 -1244 549 -1556 165
-167 307 -260 783 -513 467 -248 558 -313 848 -593 439 -425 667 -597 1014
-764 289 -140 716 -266 997 -295 l65 -6 29 58 c24 49 29 74 32 155 5 113 -16
208 -73 342 -152 354 -588 865 -930 1090 -160 105 -306 173 -660 304 -473 176
-670 286 -876 492 -138 139 -199 224 -390 548 -427 723 -536 895 -637 1004
-71 77 -90 90 -372 249 -253 142 -366 216 -405 262 -14 16 -25 23 -25 16z"/>
</g>
</svg>