<svg xmlns="http://www.w3.org/2000/svg" id="svg" width="448" height="448" version="1.1" viewBox="0 0 440 440">
    <defs id="defs4">
        <style id="style2">
            .cls-3,.cls-5{stroke:#fff}.cls-3{stroke-miterlimit:10}.cls-5{fill:#fff}.cls-3,.cls-5{stroke-width:9.34px}.cls-3{fill:none;stroke-linecap:round}.cls-5{stroke-linejoin:round}
        </style>
    </defs>
    <g id="caldo_2">
        <path id="quadrato_nero" d="M73.66 13.4h300.68a62.25 62.25 0 0 1 62.26 62.26v300.68a62.25 62.25 0 0 1-62.25 62.25H73.66a62.25 62.25 0 0 1-62.26-62.25V75.66A62.26 62.26 0 0 1 73.66 13.4Z" style="stroke-width:0;stroke-miterlimit:10;stroke-dasharray:none;stroke:#fff"/>
        <path id="contorno_termometro" d="M156.78 280.56 157 60.19s-2.31-8.44-10.23-12.26c-8.77-4.23-23.25-3.88-23.25-3.88s-13.2 0-21.62 4.65C94.27 52.94 91.35 62 91.35 62l-.93 221.59C67.59 294 52.29 320.75 52.08 341.44c-.33 32.89 26.32 68.5 73 69s72.75-29.28 73.08-62.17c.23-20.72-18.75-56.81-41.38-67.71z" style="stroke-width:11.21px;fill:#fff;stroke-miterlimit:10;stroke:#fff"/>
        <path id="tacca_up_termometro" d="M156.25 106.85h32.71" class="cls-3"/>
        <path id="tacca_middle_termometro" d="M156.25 162.92h32.71" class="cls-3"/>
        <path id="tacca_down_termometro" d="M156.25 223.66h32.71" class="cls-3"/>
        <path id="termometro_rosso" d="m140.83 295.62-.4-218-4.27-2.5c-4.74-2.77-11-3.27-11-3.27s-8.71.17-13.27 3.27a27.09 27.09 0 0 0-5.61 4.67l2.34 216.34c-12.35 6.9-35.09 19.63-35 44.86.07 39.89 28.61 52.54 53.83 52.8 25.22.26 46.68-13.08 50.37-48.13 2.73-26.66-24.82-42.9-36.99-50.04Z" style="fill:red;stroke:red;stroke-width:7.48px;stroke-miterlimit:10"/>
        <path id="freccia_bianca_up" d="m299.53 233.65-2.34-84.34-38.31 1.63 56.85-81.77 54.82 77.33-42.05 1.64-1.4 85.51z" class="cls-5" transform="translate(-26 -24)"/>
        <path id="freccia_bianca_down" d="m363.07 401.86-2.33-86.21-38.32-.23 56.85-81.77 54.83 77.33-42.06 3.5-1.4 87.38z" class="cls-5" transform="translate(-26 -24)"/>
    </g>
</svg>
