<?xml version="1.0" encoding="UTF-8" standalone="no"?>
<svg
   id="svg"
   viewBox="0 0 440 440"
   version="1.1"
   sodipodi:docname="caldo_2.svg"
   inkscape:version="1.1.2 (0a00cf5339, 2022-02-04)"
   width="448"
   height="448"
   xmlns:inkscape="http://www.inkscape.org/namespaces/inkscape"
   xmlns:sodipodi="http://sodipodi.sourceforge.net/DTD/sodipodi-0.dtd"
   xmlns="http://www.w3.org/2000/svg"
   xmlns:svg="http://www.w3.org/2000/svg"
   xmlns:rdf="http://www.w3.org/1999/02/22-rdf-syntax-ns#"
   xmlns:cc="http://creativecommons.org/ns#"
   xmlns:dc="http://purl.org/dc/elements/1.1/">
  <sodipodi:namedview
     id="namedview18"
     pagecolor="#ffffff"
     bordercolor="#666666"
     borderopacity="1.0"
     inkscape:pageshadow="2"
     inkscape:pageopacity="0.0"
     inkscape:pagecheckerboard="0"
     showgrid="false"
     inkscape:zoom="1.688"
     inkscape:cx="249.70379"
     inkscape:cy="250.29621"
     inkscape:window-width="1846"
     inkscape:window-height="1016"
     inkscape:window-x="74"
     inkscape:window-y="27"
     inkscape:window-maximized="1"
     inkscape:current-layer="caldo_2"
     width="448px" />
  <defs
     id="defs4">
    <style
       id="style2">
      .cls-1, .cls-2, .cls-3, .cls-5 {
        stroke: #fff;
      }

      .cls-1, .cls-2, .cls-3, .cls-4 {
        stroke-miterlimit: 10;
      }

      .cls-1 {
        stroke-width: 16.35px;
      }

      .cls-2, .cls-5 {
        fill: #fff;
      }

      .cls-2 {
        stroke-width: 11.21px;
      }

      .cls-3 {
        fill: none;
        stroke-linecap: round;
      }

      .cls-3, .cls-5 {
        stroke-width: 9.34px;
      }

      .cls-4 {
        fill: red;
        stroke: red;
        stroke-width: 7.48px;
      }

      .cls-5 {
        stroke-linejoin: round;
      }
    </style>
  </defs>
  <title
     id="title6">caldo_2</title>
  <g
     id="caldo_2">
    <path
       id="quadrato_nero"
       class="cls-1"
       d="m 73.66,13.4 h 300.68 a 62.25,62.25 0 0 1 62.26,62.26 v 300.68 a 62.25,62.25 0 0 1 -62.25,62.25 H 73.66 A 62.25,62.25 0 0 1 11.4,376.34 V 75.66 A 62.26,62.26 0 0 1 73.66,13.4 Z"
       style="stroke-width:0;stroke-miterlimit:10;stroke-dasharray:none" />
    <path
       id="contorno_termometro"
       class="cls-2"
       d="M 156.78,280.56 157,60.19 c 0,0 -2.31,-8.44 -10.23,-12.26 -8.77,-4.23 -23.25,-3.88 -23.25,-3.88 0,0 -13.2,0 -21.62,4.65 C 94.27,52.94 91.35,62 91.35,62 L 90.42,283.59 C 67.59,294 52.29,320.75 52.08,341.44 c -0.33,32.89 26.32,68.5 73,69 46.68,0.5 72.75,-29.28 73.08,-62.17 0.23,-20.72 -18.75,-56.81 -41.38,-67.71 z" />
    <line
       id="tacca_up_termometro"
       class="cls-3"
       x1="156.25"
       y1="106.85001"
       x2="188.96001"
       y2="106.85001" />
    <line
       id="tacca_middle_termometro"
       class="cls-3"
       x1="156.25"
       y1="162.92"
       x2="188.96001"
       y2="162.92" />
    <line
       id="tacca_down_termometro"
       class="cls-3"
       x1="156.25"
       y1="223.66"
       x2="188.96001"
       y2="223.66" />
    <path
       id="termometro_rosso"
       class="cls-4"
       d="m 140.83,295.62 -0.4,-218 -4.27,-2.5 c -4.74,-2.77 -11,-3.27 -11,-3.27 0,0 -8.71,0.17 -13.27,3.27 a 27.09,27.09 0 0 0 -5.61,4.67 l 2.34,216.34 c -12.35,6.9 -35.09,19.63 -35,44.86 0.07,39.89 28.61,52.54 53.83,52.8 25.22,0.26 46.68,-13.08 50.37,-48.13 C 180.55,319 153,302.76 140.83,295.62 Z" />
    <polygon
       id="freccia_bianca_up"
       class="cls-5"
       points="299.53,233.65 297.19,149.31 258.88,150.94 315.73,69.17 370.55,146.5 328.5,148.14 327.1,233.65 "
       transform="translate(-26,-24)" />
    <polygon
       id="freccia_bianca_down"
       class="cls-5"
       points="363.07,401.86 360.74,315.65 322.42,315.42 379.27,233.65 434.1,310.98 392.04,314.48 390.64,401.86 "
       transform="translate(-26,-24)" />
  </g>
  <metadata
     id="metadata835">
    <rdf:RDF>
      <cc:Work
         rdf:about="">
        <dc:title>caldo_2</dc:title>
      </cc:Work>
    </rdf:RDF>
  </metadata>
</svg>
