<svg xmlns="http://www.w3.org/2000/svg" id="Livello_2" width="448" height="448" data-name="Livello 2" version="1.1" viewBox="0 0 440 440">
    <defs id="defs4">
        <style id="style2">
            .cls-3{stroke:#000;stroke-miterlimit:10;fill:none;stroke-linecap:round;stroke-width:9.34px}
        </style>
    </defs>
    <g id="caldo_1" transform="translate(-26 -24)">
        <path id="quadrato" d="M99.66 37.4h300.68a62.25 62.25 0 0 1 62.26 62.26v300.68a62.25 62.25 0 0 1-62.25 62.25H99.66a62.25 62.25 0 0 1-62.26-62.25V99.66A62.26 62.26 0 0 1 99.66 37.4Z" style="stroke-width:16.35px;stroke-miterlimit:10;stroke:#000;fill:#fff"/>
        <path id="contorno_termometro" d="M210.81 306.43 211 86.06s-2.31-8.44-10.23-12.26c-8.77-4.23-23.25-3.88-23.25-3.88s-13.2 0-21.61 4.65c-7.62 4.24-10.54 13.26-10.54 13.26l-.92 221.59c-22.84 10.44-38.14 37.21-38.34 57.9-.33 32.89 26.32 68.5 73 69s72.75-29.28 73.08-62.17c.23-20.73-18.74-56.82-41.38-67.72z" data-name="contorno termometro" style="stroke-width:11.21px;stroke-miterlimit:10;stroke:#000;fill:#fff"/>
        <path id="tacca_up_termometro" d="M210.28 135.52h32.71" class="cls-3" data-name="tacca up termometro"/>
        <path id="tacca_middle_termometro" d="M210.28 191.59h32.71" class="cls-3" data-name="tacca middle termometro"/>
        <path id="tacca_down_termometro" d="M210.28 252.34h32.71" class="cls-3" data-name="tacca down termometro"/>
        <path id="termometro_rosso" d="m194.87 321.49.47-136.9s1.11-6.72-3.16-9.22c-4.74-2.77-12.56-2.53-12.56-2.53s-7.13 0-11.69 3.08c-4.12 2.8-5.71 8.73-5.71 8.73l.41 137.3c-12.35 6.9-35.09 19.63-35 44.86.07 39.89 28.6 52.54 53.83 52.8 25.23.26 46.68-13.08 50.37-48.13 2.75-26.63-24.75-42.85-36.96-49.99z" data-name="termometro rosso" style="fill:red;stroke:red;stroke-width:7.48px;stroke-miterlimit:10"/>
        <path id="freccia_1_su" d="m362.45 171.97 54.82 77.33-42.05 1.64-1.4 85.5h-27.57l-2.33-84.34-38.32 1.64z" data-name="freccia 1 su" style="stroke-linejoin:round;stroke-width:9.34px;stroke:#000"/>
    </g>
</svg>
