<svg xmlns="http://www.w3.org/2000/svg" id="svg" width="448" height="448" version="1.1" viewBox="0 0 440 440">
    <defs id="defs4">
        <style id="style2">
            .cls-3{stroke:#000;stroke-miterlimit:10;fill:none;stroke-linecap:round;stroke-width:9.34px}
        </style>
    </defs>
    <g id="g15" transform="translate(-26 -24)">
        <rect id="quadrato_bianco" width="425.2" height="425.2" x="37.4" y="37.4" rx="62.26" ry="62.26" style="stroke-width:16.35px;stroke-miterlimit:10;stroke:#000;fill:#fff"/>
        <path id="contorno_termometro" d="M210.81 299.89 211 79.51s-2.31-8.44-10.23-12.26c-8.77-4.25-23.23-3.87-23.23-3.87s-13.2 0-21.61 4.65c-7.62 4.24-10.54 13.25-10.54 13.25l-.92 221.59c-22.84 10.45-38.14 37.22-38.34 57.9-.33 32.89 26.32 68.5 73 69s72.75-29.28 73.08-62.17c.21-20.73-18.76-56.81-41.4-67.71z" style="stroke-width:11.21px;stroke-miterlimit:10;stroke:#000;fill:#fff"/>
        <path id="tacca_up_termometro" d="M210.28 126.18h32.71" class="cls-3"/>
        <path id="tacca_middle_termometro" d="M210.28 182.25h32.71" class="cls-3"/>
        <path id="tacca_down_termometro" d="M210.28 242.99h32.71" class="cls-3"/>
        <path id="termometro_azzurro" d="m194.87 314.95.32-94.86s-1.65-12.45-5.93-14.95a19.15 19.15 0 0 0-10.09-2.34 31.83 31.83 0 0 0-10.47 4.2c-4.12 2.8-5.74 14.52-5.74 14.52l-.34 93.89c-12.35 6.9-35.09 19.63-35 44.86.07 39.89 28.6 52.54 53.83 52.8 25.23.26 46.68-13.08 50.37-48.13 2.76-26.63-24.74-42.85-36.95-49.99z" style="fill:#29abe2;stroke:#29abe2;stroke-width:7.48px;stroke-miterlimit:10"/>
        <path id="freccia_nera" d="m305.6 249.53 56.85 81.77 54.82-77.33-42.05-.93-1.4-84.81h-27.57l-2.33 83.64z" style="stroke-linejoin:round;stroke-width:9.34px;stroke:#000"/>
    </g>
</svg>
