<svg xmlns="http://www.w3.org/2000/svg" id="svg" width="448" height="448" version="1.1" viewBox="0 0 440 440">
    <defs id="defs4">
        <style id="style2">
            .cls-3,.cls-5{stroke:#fff}.cls-3{stroke-miterlimit:10}.cls-5{fill:#fff}.cls-3,.cls-5{stroke-width:9.34px}.cls-3{fill:none;stroke-linecap:round}.cls-5{stroke-linejoin:round}
        </style>
    </defs>
    <g id="g16">
        <path id="quadrato_nero" d="M73.66 13.4h300.68a62.25 62.25 0 0 1 62.26 62.26v300.68a62.25 62.25 0 0 1-62.25 62.25H73.66a62.26 62.26 0 0 1-62.26-62.25V75.66A62.26 62.26 0 0 1 73.66 13.4Z" style="stroke-width:0;stroke-miterlimit:10;stroke-dasharray:none;stroke:#fff"/>
        <path id="contorno_termometro" d="m161.45 274 .21-220.38s-2.31-8.44-10.23-12.25c-8.77-4.23-23.25-3.88-23.25-3.88s-13.2 0-21.62 4.65C98.94 46.4 96 55.41 96 55.41L95.1 277c-22.84 10.44-38.1 37.21-38.34 57.9-.33 32.89 26.32 68.5 73 69s72.75-29.29 73.08-62.18c.22-20.72-18.76-56.8-41.39-67.72Z" style="stroke-width:11.21px;fill:#fff;stroke-miterlimit:10;stroke:#fff"/>
        <path id="tacca_up_termometro" d="M160.92 102.18h32.71" class="cls-3"/>
        <path id="tacca_middle_termometro" d="M160.92 158.25h32.71" class="cls-3"/>
        <path id="tacca_down_termometro" d="M160.92 218.99h32.71" class="cls-3"/>
        <path id="termometro_azzurro" d="m145.5 289.08-.05-29.74s3.08-18.69-1.19-21.19c-4.74-2.77-13.84-4.36-13.84-4.36s-11.51 1.26-16.06 4.36c-4.12 2.8-1.39 23.7-1.39 23.7l.3 27.7c-12.35 6.9-35.09 19.62-35 44.86.07 39.89 28.61 52.54 53.83 52.8 25.22.26 46.68-13.08 50.37-48.13 2.75-26.64-24.75-42.86-36.97-50z" style="fill:#29abe2;stroke:#29abe2;stroke-width:7.48px;stroke-miterlimit:10"/>
        <path id="freccia_bianca_up" d="m304.2 79.45-2.33 84.11-38.32-1.87 56.85 81.77 54.82-77.33-42.05-1.4-1.4-85.28z" class="cls-5" transform="translate(-26 -24)"/>
        <path id="freccia_bianca_down" d="m367.75 261.68-2.34 84.57-38.31-1.4 56.85 81.77 54.82-77.33-42.05-1.87-1.41-85.74z" class="cls-5" transform="translate(-26 -24)"/>
    </g>
</svg>
