<?xml version="1.0" encoding="UTF-8" standalone="no"?>
<svg
   id="svg"
   viewBox="0 0 440 440"
   version="1.1"
   sodipodi:docname="freddo_1.svg"
   width="448"
   height="448"
   inkscape:version="1.1.2 (0a00cf5339, 2022-02-04)"
   xmlns:inkscape="http://www.inkscape.org/namespaces/inkscape"
   xmlns:sodipodi="http://sodipodi.sourceforge.net/DTD/sodipodi-0.dtd"
   xmlns="http://www.w3.org/2000/svg"
   xmlns:svg="http://www.w3.org/2000/svg"
   xmlns:rdf="http://www.w3.org/1999/02/22-rdf-syntax-ns#"
   xmlns:cc="http://creativecommons.org/ns#"
   xmlns:dc="http://purl.org/dc/elements/1.1/">
  <sodipodi:namedview
     id="namedview18"
     pagecolor="#ffffff"
     bordercolor="#666666"
     borderopacity="1.0"
     inkscape:pageshadow="2"
     inkscape:pageopacity="0.0"
     inkscape:pagecheckerboard="0"
     showgrid="false"
     width="10000000px"
     inkscape:zoom="1.688"
     inkscape:cx="249.70379"
     inkscape:cy="250.29621"
     inkscape:window-width="1846"
     inkscape:window-height="1016"
     inkscape:window-x="74"
     inkscape:window-y="27"
     inkscape:window-maximized="1"
     inkscape:current-layer="svg" />
  <defs
     id="defs4">
    <style
       id="style2">
      .cls-1, .cls-2 {
        fill: #fff;
      }

      .cls-1, .cls-2, .cls-3, .cls-5 {
        stroke: #000;
      }

      .cls-1, .cls-2, .cls-3, .cls-4 {
        stroke-miterlimit: 10;
      }

      .cls-1 {
        stroke-width: 16.35px;
      }

      .cls-2 {
        stroke-width: 11.21px;
      }

      .cls-3 {
        fill: none;
        stroke-linecap: round;
      }

      .cls-3, .cls-5 {
        stroke-width: 9.34px;
      }

      .cls-4 {
        fill: #29abe2;
        stroke: #29abe2;
        stroke-width: 7.48px;
      }

      .cls-5 {
        stroke-linejoin: round;
      }
    </style>
  </defs>
  <title
     id="title6">freddo_1</title>
  <g
     id="g15"
     transform="translate(-26,-24)">
    <rect
       id="quadrato_bianco"
       class="cls-1"
       x="37.400002"
       y="37.400002"
       width="425.20001"
       height="425.20001"
       rx="62.259998"
       ry="62.259998" />
    <path
       id="contorno_termometro"
       class="cls-2"
       d="M 210.81,299.89 211,79.51 c 0,0 -2.31,-8.44 -10.23,-12.26 C 192,63 177.54,63.38 177.54,63.38 c 0,0 -13.2,0 -21.61,4.65 -7.62,4.24 -10.54,13.25 -10.54,13.25 l -0.92,221.59 c -22.84,10.45 -38.14,37.22 -38.34,57.9 -0.33,32.89 26.32,68.5 73,69 46.68,0.5 72.75,-29.28 73.08,-62.17 0.21,-20.73 -18.76,-56.81 -41.4,-67.71 z" />
    <line
       id="tacca_up_termometro"
       class="cls-3"
       x1="210.28"
       y1="126.18"
       x2="242.99001"
       y2="126.18" />
    <line
       id="tacca_middle_termometro"
       class="cls-3"
       x1="210.28"
       y1="182.25"
       x2="242.99001"
       y2="182.25" />
    <line
       id="tacca_down_termometro"
       class="cls-3"
       x1="210.28"
       y1="242.99001"
       x2="242.99001"
       y2="242.99001" />
    <path
       id="termometro_azzurro"
       class="cls-4"
       d="m 194.87,314.95 0.32,-94.86 c 0,0 -1.65,-12.45 -5.93,-14.95 A 19.15,19.15 0 0 0 179.17,202.8 31.83,31.83 0 0 0 168.7,207 c -4.12,2.8 -5.74,14.52 -5.74,14.52 l -0.34,93.89 c -12.35,6.9 -35.09,19.63 -35,44.86 0.07,39.89 28.6,52.54 53.83,52.8 25.23,0.26 46.68,-13.08 50.37,-48.13 2.76,-26.63 -24.74,-42.85 -36.95,-49.99 z" />
    <polygon
       id="freccia_nera"
       class="cls-5"
       points="305.6,249.53 362.45,331.3 417.27,253.97 375.22,253.04 373.82,168.23 346.25,168.23 343.92,251.87 " />
  </g>
  <metadata
     id="metadata835">
    <rdf:RDF>
      <cc:Work
         rdf:about="">
        <dc:title>freddo_1</dc:title>
      </cc:Work>
    </rdf:RDF>
  </metadata>
</svg>
