<?xml version="1.0" encoding="UTF-8" standalone="no"?>
<svg
   id="svg"
   viewBox="0 0 440 440"
   version="1.1"
   sodipodi:docname="gelate_1.svg"
   width="448"
   height="448"
   inkscape:version="1.1.2 (0a00cf5339, 2022-02-04)"
   xmlns:inkscape="http://www.inkscape.org/namespaces/inkscape"
   xmlns:sodipodi="http://sodipodi.sourceforge.net/DTD/sodipodi-0.dtd"
   xmlns="http://www.w3.org/2000/svg"
   xmlns:svg="http://www.w3.org/2000/svg"
   xmlns:rdf="http://www.w3.org/1999/02/22-rdf-syntax-ns#"
   xmlns:cc="http://creativecommons.org/ns#"
   xmlns:dc="http://purl.org/dc/elements/1.1/">
  <sodipodi:namedview
     id="namedview31"
     pagecolor="#ffffff"
     bordercolor="#666666"
     borderopacity="1.0"
     inkscape:pageshadow="2"
     inkscape:pageopacity="0.0"
     inkscape:pagecheckerboard="0"
     showgrid="false"
     width="448px"
     inkscape:zoom="1.688"
     inkscape:cx="249.70379"
     inkscape:cy="250.29621"
     inkscape:window-width="1846"
     inkscape:window-height="1016"
     inkscape:window-x="74"
     inkscape:window-y="27"
     inkscape:window-maximized="1"
     inkscape:current-layer="svg" />
  <defs
     id="defs4">
    <style
       id="style2">
      .cls-1, .cls-5 {
        fill: #fff;
      }

      .cls-1, .cls-2, .cls-4, .cls-6 {
        stroke: #000;
      }

      .cls-1, .cls-2, .cls-3, .cls-4, .cls-6 {
        stroke-miterlimit: 10;
      }

      .cls-1 {
        stroke-width: 16.35px;
      }

      .cls-2, .cls-6 {
        fill: none;
      }

      .cls-2, .cls-4 {
        stroke-width: 11.21px;
      }

      .cls-3, .cls-4 {
        fill: #62d7dd;
      }

      .cls-3 {
        stroke: #62d7dd;
        stroke-width: 7.48px;
      }

      .cls-6 {
        stroke-linecap: round;
        stroke-width: 14.02px;
      }
    </style>
  </defs>
  <title
     id="title6">gelate_1</title>
  <g
     id="gelate_1"
     transform="translate(-26,-24)">
    <path
       id="quadrato_bianco"
       class="cls-1"
       d="M 462.6,400.34 A 62.26,62.26 0 0 1 400.35,462.6 H 99.65 A 62.26,62.26 0 0 1 37.4,400.34 V 99.66 A 62.26,62.26 0 0 1 99.65,37.4 h 300.7 a 62.26,62.26 0 0 1 62.25,62.26 z" />
    <path
       id="contorno_termometro"
       class="cls-2"
       d="m 379.74,288.52 0.19,-192.37 c 0,0 -2,-7.37 -8.93,-10.7 -7.66,-3.69 -20.3,-3.39 -20.3,-3.39 0,0 -11.52,0 -18.87,4.06 -6.66,3.7 -9.2,11.57 -9.2,11.57 l -0.81,193.43 c -19.94,9.12 -33.29,32.49 -33.47,50.54 -0.29,28.71 23,59.79 63.73,60.21 40.73,0.42 63.5,-25.56 63.79,-54.27 0.19,-18.06 -16.38,-49.6 -36.13,-59.08 z" />
    <path
       id="termometro_azzurro"
       class="cls-3"
       d="m 365.81,301.67 0.28,-82.8 c 0,0 -1.44,-10.87 -5.18,-13 a 16.71,16.71 0 0 0 -8.81,-2 27.78,27.78 0 0 0 -9.14,3.67 c -3.6,2.45 -5,12.67 -5,12.67 l -0.29,82 c -10.78,6 -30.63,17.13 -30.59,39.16 0.06,34.82 25,45.87 47,46.09 22,0.22 40.75,-11.41 44,-42 2.4,-23.4 -21.6,-37.56 -32.27,-43.79 z" />
    <g
       id="foglia">
      <path
         id="foglia_colorata"
         class="cls-4"
         d="m 260.28,394.42 c 0,0 26.37,-57.85 -24.62,-109.37 -45.89,-46.37 -160.88,-19.11 -160.88,-19.11 0,0 45.27,98.29 79.44,121 37.78,25.19 106.06,7.48 106.06,7.48 z" />
      <g
         id="centrale">
        <path
           d="m 260.9,396.31 c -9.21,-8.33 -17.69,-17.09 -26.18,-25.7 -4.26,-4.29 -8.45,-8.6 -12.74,-12.71 -2.11,-2.09 -4.29,-4.08 -6.45,-6 -0.54,-0.49 -1.08,-1 -1.63,-1.42 -0.55,-0.42 -1.09,-0.93 -1.64,-1.37 -0.55,-0.44 -1.1,-0.89 -1.65,-1.29 l -0.82,-0.63 -0.92,-0.68 Q 194.21,335.67 180,324.17 c -9.44,-7.73 -18.76,-15.61 -27.68,-24.21 5.75,2.35 11.26,5.13 16.7,8 5.44,2.87 10.74,6 16,9.13 q 15.69,9.57 30.5,20.41 l 0.93,0.67 1,0.76 c 0.67,0.51 1.31,1 1.93,1.56 0.62,0.56 1.25,1.05 1.85,1.59 0.6,0.54 1.21,1.07 1.79,1.62 2.34,2.18 4.53,4.45 6.67,6.74 q 6.31,7 11.83,14.38 5.52,7.38 10.44,15.27 a 158.67,158.67 0 0 1 8.94,16.22 z"
           id="path12" />
      </g>
      <path
         d="m 254.94,394.35 a 141.25,141.25 0 0 0 19.36,23.5 c 2.9,2.84 11.44,-0.87 8.26,-4 a 141.25,141.25 0 0 1 -19.36,-23.5 c -2.23,-3.39 -10.84,0.05 -8.26,4 z"
         id="path15" />
    </g>
    <rect
       id="rettangolo_bianco"
       class="cls-5"
       x="303.73001"
       y="135.52"
       width="28.030001"
       height="70.089996" />
    <g
       id="fiocco_nero">
      <line
         id="fiocco9"
         class="cls-6"
         x1="220.97"
         y1="87.339996"
         x2="274.56"
         y2="229.73" />
      <line
         id="fiocco8"
         class="cls-6"
         x1="296.42001"
         y1="100.06"
         x2="199.11"
         y2="217.00999" />
      <line
         id="fiocco7"
         class="cls-6"
         x1="171.06"
         y1="149.3"
         x2="318.70001"
         y2="174.2" />
      <polyline
         id="fiocco6"
         class="cls-6"
         points="276.64 96.16 276.57 123.92 304.95 114.82" />
      <polyline
         id="fiocco5"
         class="cls-6"
         points="242.98 93.64 231.91 116.39 207.87 109.09" />
      <polyline
         id="fiocco4"
         class="cls-6"
         points="188.3 131.84 197.3 150.03 181.78 170.53" />
      <polyline
         id="fiocco3"
         class="cls-6"
         points="193.35 195.2 219.23 192.82 226.06 212.63" />
      <polyline
         id="fiocco2"
         class="cls-6"
         points="253.18 222.85 264.31 202.5 288.69 211.28" />
      <polyline
         id="fiocco1"
         class="cls-6"
         points="317.8 153.67 296.09 167.38 311.85 188.92" />
    </g>
  </g>
  <metadata
     id="metadata848">
    <rdf:RDF>
      <cc:Work
         rdf:about="">
        <dc:title>gelate_1</dc:title>
      </cc:Work>
    </rdf:RDF>
  </metadata>
</svg>
