<svg xmlns="http://www.w3.org/2000/svg" id="svg" width="448" height="448" version="1.1" viewBox="0 0 440 440">
    <defs id="defs4">
        <style id="style2">
            .cls-6{stroke:#000;stroke-miterlimit:10;fill:none;stroke-linecap:round;stroke-width:14.02px}
        </style>
    </defs>
    <g id="gelate_1" transform="translate(-26 -24)">
        <path id="quadrato_bianco" d="M462.6 400.34a62.26 62.26 0 0 1-62.25 62.26H99.65a62.26 62.26 0 0 1-62.25-62.26V99.66A62.26 62.26 0 0 1 99.65 37.4h300.7a62.26 62.26 0 0 1 62.25 62.26z" style="stroke-width:16.35px;stroke-miterlimit:10;stroke:#000;fill:#fff"/>
        <path id="contorno_termometro" d="m379.74 288.52.19-192.37s-2-7.37-8.93-10.7c-7.66-3.69-20.3-3.39-20.3-3.39s-11.52 0-18.87 4.06c-6.66 3.7-9.2 11.57-9.2 11.57l-.81 193.43c-19.94 9.12-33.29 32.49-33.47 50.54-.29 28.71 23 59.79 63.73 60.21 40.73.42 63.5-25.56 63.79-54.27.19-18.06-16.38-49.6-36.13-59.08z" style="stroke-width:11.21px;fill:none;stroke-miterlimit:10;stroke:#000"/>
        <path id="termometro_azzurro" d="m365.81 301.67.28-82.8s-1.44-10.87-5.18-13a16.71 16.71 0 0 0-8.81-2 27.78 27.78 0 0 0-9.14 3.67c-3.6 2.45-5 12.67-5 12.67l-.29 82c-10.78 6-30.63 17.13-30.59 39.16.06 34.82 25 45.87 47 46.09 22 .22 40.75-11.41 44-42 2.4-23.4-21.6-37.56-32.27-43.79z" style="stroke:#62d7dd;stroke-width:7.48px;fill:#62d7dd;stroke-miterlimit:10"/>
        <g id="foglia">
            <path id="foglia_colorata" d="M260.28 394.42s26.37-57.85-24.62-109.37c-45.89-46.37-160.88-19.11-160.88-19.11s45.27 98.29 79.44 121c37.78 25.19 106.06 7.48 106.06 7.48z" style="fill:#62d7dd;stroke-width:11.21px;stroke-miterlimit:10;stroke:#000"/>
            <g id="centrale">
                <path id="path12" d="M260.9 396.31c-9.21-8.33-17.69-17.09-26.18-25.7-4.26-4.29-8.45-8.6-12.74-12.71-2.11-2.09-4.29-4.08-6.45-6-.54-.49-1.08-1-1.63-1.42-.55-.42-1.09-.93-1.64-1.37-.55-.44-1.1-.89-1.65-1.29l-.82-.63-.92-.68q-14.66-10.84-28.87-22.34c-9.44-7.73-18.76-15.61-27.68-24.21 5.75 2.35 11.26 5.13 16.7 8 5.44 2.87 10.74 6 16 9.13q15.69 9.57 30.5 20.41l.93.67 1 .76c.67.51 1.31 1 1.93 1.56.62.56 1.25 1.05 1.85 1.59.6.54 1.21 1.07 1.79 1.62 2.34 2.18 4.53 4.45 6.67 6.74q6.31 7 11.83 14.38 5.52 7.38 10.44 15.27a158.67 158.67 0 0 1 8.94 16.22z"/>
            </g>
            <path id="path15" d="M254.94 394.35a141.25 141.25 0 0 0 19.36 23.5c2.9 2.84 11.44-.87 8.26-4a141.25 141.25 0 0 1-19.36-23.5c-2.23-3.39-10.84.05-8.26 4z"/>
        </g>
        <path id="rettangolo_bianco" d="M303.73 135.52h28.03v70.09h-28.03z" style="fill:#fff"/>
        <g id="fiocco_nero">
            <path id="fiocco9" d="m220.97 87.34 53.59 142.39" class="cls-6"/>
            <path id="fiocco8" d="m296.42 100.06-97.31 116.95" class="cls-6"/>
            <path id="fiocco7" d="m171.06 149.3 147.64 24.9" class="cls-6"/>
            <path id="fiocco6" d="m276.64 96.16-.07 27.76 28.38-9.1" class="cls-6"/>
            <path id="fiocco5" d="m242.98 93.64-11.07 22.75-24.04-7.3" class="cls-6"/>
            <path id="fiocco4" d="m188.3 131.84 9 18.19-15.52 20.5" class="cls-6"/>
            <path id="fiocco3" d="m193.35 195.2 25.88-2.38 6.83 19.81" class="cls-6"/>
            <path id="fiocco2" d="m253.18 222.85 11.13-20.35 24.38 8.78" class="cls-6"/>
            <path id="fiocco1" d="m317.8 153.67-21.71 13.71 15.76 21.54" class="cls-6"/>
        </g>
    </g>
</svg>
