<svg xmlns="http://www.w3.org/2000/svg" id="svg" width="448" height="448" version="1.1" viewBox="0 0 440 440">
    <defs id="defs4">
        <style id="style2">
            .cls-3,.cls-5{stroke:#fff;stroke-miterlimit:10;fill:none;stroke-linecap:round}.cls-3{stroke-width:14.02px}.cls-5{stroke-width:12.13px}.cls-7{fill:#fff}
        </style>
    </defs>
    <g id="gelate_2">
        <path id="quadrato_nero" d="M436.6 376.34a62.26 62.26 0 0 1-62.25 62.26H73.65a62.26 62.26 0 0 1-62.25-62.26V75.66A62.26 62.26 0 0 1 73.65 13.4h300.7a62.26 62.26 0 0 1 62.25 62.26z" style="stroke-width:0;stroke-miterlimit:10;stroke-dasharray:none;stroke:#fff"/>
        <path id="contorno_termometro" d="m377.1 264.52.19-192.37s-2-7.37-8.93-10.7c-7.66-3.69-20.3-3.39-20.3-3.39s-11.52 0-18.87 4.06c-6.66 3.7-9.2 11.57-9.2 11.57l-.81 193.43c-19.94 9.12-33.29 32.49-33.47 50.54-.29 28.71 23 59.79 63.73 60.21 40.73.42 63.5-25.56 63.79-54.27.19-18.06-16.38-49.6-36.13-59.08z" style="stroke-width:11.21px;fill:none;stroke-miterlimit:10;stroke:#fff"/>
        <path id="rettangolo_nero" d="M301.1 78.82h28.03v144.85H301.1z"/>
        <g id="fiocco_gran" transform="translate(-26 -24)">
            <path id="fiocco_gran9" d="m282.71 95.06 11.88 158.19" class="cls-3"/>
            <path id="fiocco_gran8" d="m355.1 130.86-132.9 86.6" class="cls-3"/>
            <path id="fiocco_gran7" d="m213.96 141.45 141.65 70.04" class="cls-3"/>
            <path id="fiocco_gran6" d="m336.29 120.91-8.3 27.62 31.34-.36" class="cls-3"/>
            <path id="fiocco_gran5" d="m303.06 108.09-17.92 19.25-22.11-14.63" class="cls-3"/>
            <path id="fiocco_gran4" d="m236.54 129.35 3.69 20.87-21.75 15.66" class="cls-3"/>
            <path id="fiocco_gran3" d="m222.85 193.98 26.83 5.57 1.03 21.8" class="cls-3"/>
            <path id="fiocco_gran2" d="m275.05 239.84 17.27-16.85 22 16.22" class="cls-3"/>
            <path id="fiocco_gran1" d="m360.79 190.78-25.98 6.99 9.53 26.29" class="cls-3"/>
        </g>
        <path id="termometro_azzurro" d="M364.95 275.12v-26.45s.74-18.12-3.06-20.34c-4.21-2.47-10.3-2.37-10.3-2.37s-10.23 1.12-14.28 3.88c-3.67 2.49-1.24 21.07-1.24 21.07l.27 24.63c-11 6.13-31.2 17.45-31.16 39.88.06 35.47 25.43 46.72 47.86 46.94 22.43.22 41.51-11.63 44.78-42.79 2.44-23.68-22.01-38.1-32.87-44.45z" style="stroke:#62d7dd;stroke-width:7.48px;fill:#62d7dd;stroke-miterlimit:10"/>
        <g id="fiocco_picc" transform="translate(-26 -24)">
            <path id="fiocco_picc9" d="m101.91 75.21 57.83 100.03" class="cls-5"/>
            <path id="fiocco_picc8" d="m159.74 75.21-57.83 100.03" class="cls-5"/>
            <path id="fiocco_picc7" d="M72.21 129.46h112.38" class="cls-3"/>
            <path id="fiocco_picc6" d="m144.5 74.78 3.44 20.84 20.01-10.42" class="cls-5"/>
            <path id="fiocco_picc5" d="m119.1 77.16-5.39 18.46-18.83-2.43" class="cls-5"/>
            <path id="fiocco_picc4" d="m83.15 112.72 9 12.5-9 17.35" class="cls-5"/>
            <path id="fiocco_picc3" d="m94.88 159.61 18.99-5.06 7.58 13.99" class="cls-5"/>
            <path id="fiocco_picc2" d="m142.94 172.78 5.74-16.68 19.27 3.51" class="cls-5"/>
            <path id="fiocco_picc1" d="m182.4 112.72-14.45 13.03 14.45 14.16" class="cls-5"/>
        </g>
        <g id="foglia" transform="translate(-26 -24)">
            <path id="foglia_colorata" d="M265 403.77s26.37-57.85-24.62-109.37C194.45 248 79.45 275.29 79.45 275.29s45.27 98.29 79.44 121c37.8 25.18 106.11 7.48 106.11 7.48z" style="fill:#62d7dd;stroke-width:11.21px;stroke-miterlimit:10;stroke:#fff"/>
            <path id="path33" d="M265.57 405.66c-9.21-8.33-17.69-17.09-26.18-25.7-4.26-4.29-8.45-8.6-12.74-12.71-2.11-2.09-4.29-4.08-6.45-6-.54-.49-1.08-1-1.63-1.42-.55-.42-1.09-.93-1.64-1.37-.55-.44-1.1-.89-1.65-1.29l-.82-.63-.92-.68q-14.66-10.86-28.86-22.35c-9.44-7.73-18.76-15.61-27.68-24.21 5.75 2.35 11.26 5.13 16.7 8 5.44 2.87 10.74 6 16 9.13q15.69 9.57 30.5 20.41l.93.67 1 .76c.67.51 1.31 1 1.93 1.56.62.56 1.25 1.05 1.85 1.59.6.54 1.21 1.07 1.79 1.62 2.34 2.18 4.53 4.45 6.67 6.74q6.31 7 11.83 14.38 5.52 7.38 10.44 15.27a158.67 158.67 0 0 1 8.93 16.23z" class="cls-7"/>
            <path id="path35" d="M259.62 403.7A141.25 141.25 0 0 0 279 427.19c2.9 2.84 11.44-.87 8.26-4a141.25 141.25 0 0 1-19.36-23.5c-2.23-3.39-10.84.05-8.26 4z" class="cls-7"/>
        </g>
    </g>
</svg>
