<?xml version="1.0" encoding="UTF-8" standalone="no"?>
<svg
   id="svg"
   viewBox="0 0 440 440"
   version="1.1"
   sodipodi:docname="gelate_2.svg"
   inkscape:version="1.1.2 (0a00cf5339, 2022-02-04)"
   width="448"
   height="448"
   xmlns:inkscape="http://www.inkscape.org/namespaces/inkscape"
   xmlns:sodipodi="http://sodipodi.sourceforge.net/DTD/sodipodi-0.dtd"
   xmlns="http://www.w3.org/2000/svg"
   xmlns:svg="http://www.w3.org/2000/svg"
   xmlns:rdf="http://www.w3.org/1999/02/22-rdf-syntax-ns#"
   xmlns:cc="http://creativecommons.org/ns#"
   xmlns:dc="http://purl.org/dc/elements/1.1/">
  <sodipodi:namedview
     id="namedview40"
     pagecolor="#ffffff"
     bordercolor="#666666"
     borderopacity="1.0"
     inkscape:pageshadow="2"
     inkscape:pageopacity="0.0"
     inkscape:pagecheckerboard="0"
     showgrid="false"
     inkscape:zoom="1.688"
     inkscape:cx="249.70379"
     inkscape:cy="250.29621"
     inkscape:window-width="1846"
     inkscape:window-height="1016"
     inkscape:window-x="74"
     inkscape:window-y="27"
     inkscape:window-maximized="1"
     inkscape:current-layer="gelate_2" />
  <defs
     id="defs4">
    <style
       id="style2">
      .cls-1, .cls-2, .cls-3, .cls-5, .cls-6 {
        stroke: #fff;
      }

      .cls-1, .cls-2, .cls-3, .cls-4, .cls-5, .cls-6 {
        stroke-miterlimit: 10;
      }

      .cls-1 {
        stroke-width: 16.35px;
      }

      .cls-2, .cls-3, .cls-5 {
        fill: none;
      }

      .cls-2, .cls-6 {
        stroke-width: 11.21px;
      }

      .cls-3, .cls-5 {
        stroke-linecap: round;
      }

      .cls-3 {
        stroke-width: 14.02px;
      }

      .cls-4, .cls-6 {
        fill: #62d7dd;
      }

      .cls-4 {
        stroke: #62d7dd;
        stroke-width: 7.48px;
      }

      .cls-5 {
        stroke-width: 12.13px;
      }

      .cls-7 {
        fill: #fff;
      }
    </style>
  </defs>
  <title
     id="title6">gelate_2</title>
  <g
     id="gelate_2">
    <path
       id="quadrato_nero"
       class="cls-1"
       d="M 436.6,376.34 A 62.26,62.26 0 0 1 374.35,438.6 H 73.65 A 62.26,62.26 0 0 1 11.4,376.34 V 75.66 A 62.26,62.26 0 0 1 73.65,13.4 h 300.7 a 62.26,62.26 0 0 1 62.25,62.26 z"
       style="stroke-width:0;stroke-miterlimit:10;stroke-dasharray:none" />
    <path
       id="contorno_termometro"
       class="cls-2"
       d="m 377.1,264.52 0.19,-192.37 c 0,0 -2,-7.37 -8.93,-10.7 -7.66,-3.69 -20.3,-3.39 -20.3,-3.39 0,0 -11.52,0 -18.87,4.06 -6.66,3.7 -9.2,11.57 -9.2,11.57 l -0.81,193.43 c -19.94,9.12 -33.29,32.49 -33.47,50.54 -0.29,28.71 23,59.79 63.73,60.21 40.73,0.42 63.5,-25.56 63.79,-54.27 0.19,-18.06 -16.38,-49.6 -36.13,-59.08 z" />
    <rect
       id="rettangolo_nero"
       x="301.10001"
       y="78.82"
       width="28.030001"
       height="144.85001" />
    <g
       id="fiocco_gran"
       transform="translate(-26,-24)">
      <line
         id="fiocco_gran9"
         class="cls-3"
         x1="282.70999"
         y1="95.059998"
         x2="294.59"
         y2="253.25" />
      <line
         id="fiocco_gran8"
         class="cls-3"
         x1="355.10001"
         y1="130.86"
         x2="222.2"
         y2="217.46001" />
      <line
         id="fiocco_gran7"
         class="cls-3"
         x1="213.96001"
         y1="141.45"
         x2="355.60999"
         y2="211.49001" />
      <polyline
         id="fiocco_gran6"
         class="cls-3"
         points="336.29 120.91 327.99 148.53 359.33 148.17" />
      <polyline
         id="fiocco_gran5"
         class="cls-3"
         points="303.06 108.09 285.14 127.34 263.03 112.71" />
      <polyline
         id="fiocco_gran4"
         class="cls-3"
         points="236.54 129.35 240.23 150.22 218.48 165.88" />
      <polyline
         id="fiocco_gran3"
         class="cls-3"
         points="222.85 193.98 249.68 199.55 250.71 221.35" />
      <polyline
         id="fiocco_gran2"
         class="cls-3"
         points="275.05 239.84 292.32 222.99 314.32 239.21" />
      <polyline
         id="fiocco_gran1"
         class="cls-3"
         points="360.79 190.78 334.81 197.77 344.34 224.06" />
    </g>
    <path
       id="termometro_azzurro"
       class="cls-4"
       d="m 364.95,275.12 v -26.45 c 0,0 0.74,-18.12 -3.06,-20.34 -4.21,-2.47 -10.3,-2.37 -10.3,-2.37 0,0 -10.23,1.12 -14.28,3.88 -3.67,2.49 -1.24,21.07 -1.24,21.07 l 0.27,24.63 c -11,6.13 -31.2,17.45 -31.16,39.88 0.06,35.47 25.43,46.72 47.86,46.94 22.43,0.22 41.51,-11.63 44.78,-42.79 2.44,-23.68 -22.01,-38.1 -32.87,-44.45 z" />
    <g
       id="fiocco_picc"
       transform="translate(-26,-24)">
      <line
         id="fiocco_picc9"
         class="cls-5"
         x1="101.91"
         y1="75.209999"
         x2="159.74001"
         y2="175.24001" />
      <line
         id="fiocco_picc8"
         class="cls-5"
         x1="159.74001"
         y1="75.209999"
         x2="101.91"
         y2="175.24001" />
      <line
         id="fiocco_picc7"
         class="cls-3"
         x1="72.209999"
         y1="129.46001"
         x2="184.59"
         y2="129.46001" />
      <polyline
         id="fiocco_picc6"
         class="cls-5"
         points="144.5 74.78 147.94 95.62 167.95 85.2" />
      <polyline
         id="fiocco_picc5"
         class="cls-5"
         points="119.1 77.16 113.71 95.62 94.88 93.19" />
      <polyline
         id="fiocco_picc4"
         class="cls-5"
         points="83.15 112.72 92.15 125.22 83.15 142.57" />
      <polyline
         id="fiocco_picc3"
         class="cls-5"
         points="94.88 159.61 113.87 154.55 121.45 168.54" />
      <polyline
         id="fiocco_picc2"
         class="cls-5"
         points="142.94 172.78 148.68 156.1 167.95 159.61" />
      <polyline
         id="fiocco_picc1"
         class="cls-5"
         points="182.4 112.72 167.95 125.75 182.4 139.91" />
    </g>
    <g
       id="foglia"
       transform="translate(-26,-24)">
      <path
         id="foglia_colorata"
         class="cls-6"
         d="m 265,403.77 c 0,0 26.37,-57.85 -24.62,-109.37 C 194.45,248 79.45,275.29 79.45,275.29 c 0,0 45.27,98.29 79.44,121 37.8,25.18 106.11,7.48 106.11,7.48 z" />
      <path
         class="cls-7"
         d="m 265.57,405.66 c -9.21,-8.33 -17.69,-17.09 -26.18,-25.7 -4.26,-4.29 -8.45,-8.6 -12.74,-12.71 -2.11,-2.09 -4.29,-4.08 -6.45,-6 -0.54,-0.49 -1.08,-1 -1.63,-1.42 -0.55,-0.42 -1.09,-0.93 -1.64,-1.37 -0.55,-0.44 -1.1,-0.89 -1.65,-1.29 l -0.82,-0.63 -0.92,-0.68 Q 198.88,345 184.68,333.51 C 175.24,325.78 165.92,317.9 157,309.3 c 5.75,2.35 11.26,5.13 16.7,8 5.44,2.87 10.74,6 16,9.13 q 15.69,9.57 30.5,20.41 l 0.93,0.67 1,0.76 c 0.67,0.51 1.31,1 1.93,1.56 0.62,0.56 1.25,1.05 1.85,1.59 0.6,0.54 1.21,1.07 1.79,1.62 2.34,2.18 4.53,4.45 6.67,6.74 q 6.31,7 11.83,14.38 5.52,7.38 10.44,15.27 a 158.67,158.67 0 0 1 8.93,16.23 z"
         id="path33" />
      <path
         class="cls-7"
         d="M 259.62,403.7 A 141.25,141.25 0 0 0 279,427.19 c 2.9,2.84 11.44,-0.87 8.26,-4 a 141.25,141.25 0 0 1 -19.36,-23.5 c -2.23,-3.39 -10.84,0.05 -8.26,4 z"
         id="path35" />
    </g>
  </g>
  <metadata
     id="metadata857">
    <rdf:RDF>
      <cc:Work
         rdf:about="">
        <dc:title>gelate_2</dc:title>
      </cc:Work>
    </rdf:RDF>
  </metadata>
</svg>
