<svg xmlns="http://www.w3.org/2000/svg" id="svg" width="448" height="448" version="1.1" viewBox="0 0 440 440">
    <defs id="defs4">
        <style id="style2">
            .cls-2,.cls-4{stroke-miterlimit:10;fill:none;stroke-linecap:round}.cls-2{stroke:#2e3192;stroke-width:17.38px}.cls-4{stroke:#005cbc;stroke-width:13.69px}
        </style>
    </defs>
    <g id="neve_2" transform="translate(-26 -24)">
        <path id="rettangolo_bianco" d="M99.66 37.4h300.68a62.25 62.25 0 0 1 62.26 62.26v300.68a62.25 62.25 0 0 1-62.25 62.25H99.66a62.26 62.26 0 0 1-62.26-62.25V99.66A62.25 62.25 0 0 1 99.66 37.4Z" style="stroke-miterlimit:10;fill:#fff;stroke:#000;stroke-width:16.35px"/>
        <g id="fiocco_gran">
            <path id="fiocco_gran9" d="m244.04 252.61 93.04 160.93" class="cls-2"/>
            <path id="fiocco_gran8" d="m337.08 252.61-93.04 160.93" class="cls-2"/>
            <path id="fiocco_gran7" d="M196.27 336.44h182.22" style="stroke-width:18.69px;stroke:#2e3192;fill:none;stroke-linecap:round;stroke-miterlimit:10"/>
            <path id="fiocco_gran6" d="m312.56 251.92 5.53 33.52 32.19-16.75" class="cls-2"/>
            <path id="fiocco_gran5" d="m271.7 255.74-8.68 29.7-30.29-3.91" class="cls-2"/>
            <path id="fiocco_gran4" d="m213.86 312.96 14.47 20.11-14.47 27.91" class="cls-2"/>
            <path id="fiocco_gran3" d="m232.73 388.39 30.55-8.13 12.19 22.5" class="cls-2"/>
            <path id="fiocco_gran2" d="m310.05 409.58 9.23-26.83 31 5.64" class="cls-2"/>
            <path id="fiocco_gran1" d="m373.54 312.96-23.26 20.95 23.26 22.79" class="cls-2"/>
        </g>
        <g id="fiocco_picc">
            <path id="fiocco_picc9" d="m159.13 89.37 73.27 126.74" class="cls-4"/>
            <path id="fiocco_picc8" d="m232.4 89.37-73.27 126.74" class="cls-4"/>
            <path id="fiocco_picc7" d="M121.51 156.55h144.84" style="stroke-width:14.02px;stroke:#005cbc;fill:none;stroke-linecap:round;stroke-miterlimit:10"/>
            <path id="fiocco_picc6" d="m213.09 88.83 4.36 26.4 25.35-13.2" class="cls-4"/>
            <path id="fiocco_picc5" d="m180.92 91.84-6.84 23.39-23.86-3.08" class="cls-4"/>
            <path id="fiocco_picc4" d="m135.37 136.9 11.39 15.84-11.39 21.98" class="cls-4"/>
            <path id="fiocco_picc3" d="m150.22 196.31 24.06-6.41 9.6 17.72" class="cls-4"/>
            <path id="fiocco_picc2" d="m211.11 212.99 7.27-21.12 24.42 4.44" class="cls-4"/>
            <path id="fiocco_picc1" d="m261.11 136.9-18.31 16.5 18.31 17.95" class="cls-4"/>
        </g>
    </g>
</svg>
