<svg xmlns="http://www.w3.org/2000/svg" id="svg" width="448" height="448" version="1.1" viewBox="0 0 440 440">
    <defs id="defs4">
        <style id="style2">
            .cls-2{stroke-miterlimit:10;fill:none;stroke:#005cbc;stroke-linecap:round;stroke-width:18.6px}
        </style>
    </defs>
    <g id="neve_1" transform="translate(-26 -24)">
        <path id="rettangolo_bianco" d="M99.66 37.4h300.68a62.25 62.25 0 0 1 62.26 62.26v300.68a62.25 62.25 0 0 1-62.25 62.25H99.66a62.26 62.26 0 0 1-62.26-62.25V99.66A62.25 62.25 0 0 1 99.66 37.4Z" style="stroke-miterlimit:10;fill:#fff;stroke:#000;stroke-width:16.35px"/>
        <g id="fiocco_blu">
            <path id="fiocco_blu9" d="m200.67 163.88 99.56 172.22" class="cls-2"/>
            <path id="fiocco_blu8" d="M300.23 163.88 200.67 336.1" class="cls-2"/>
            <path id="fiocco_blu7" d="M149.54 252.34h196.25" style="stroke-width:18.69px;fill:none;stroke:#005cbc;stroke-linecap:round;stroke-miterlimit:10"/>
            <path id="fiocco_blu6" d="m273.99 163.15 5.93 35.87 34.44-17.93" class="cls-2"/>
            <path id="fiocco_blu5" d="m230.27 167.23-9.29 31.79-32.42-4.19" class="cls-2"/>
            <path id="fiocco_blu4" d="m168.37 228.46 15.48 21.53-15.48 29.86" class="cls-2"/>
            <path id="fiocco_blu3" d="m188.56 309.19 32.69-8.7 13.05 24.08" class="cls-2"/>
            <path id="fiocco_blu2" d="m271.31 331.86 9.87-28.71 33.18 6.04" class="cls-2"/>
            <path id="fiocco_blu1" d="m339.25 228.46-24.89 22.43 24.89 24.38" class="cls-2"/>
        </g>
    </g>
</svg>
