<?xml version="1.0" encoding="UTF-8" standalone="no"?>
<svg
   id="svg"
   viewBox="0 0 440 440"
   version="1.1"
   sodipodi:docname="neve_3.svg"
   inkscape:version="1.1.2 (0a00cf5339, 2022-02-04)"
   width="448"
   height="448"
   xmlns:inkscape="http://www.inkscape.org/namespaces/inkscape"
   xmlns:sodipodi="http://sodipodi.sourceforge.net/DTD/sodipodi-0.dtd"
   xmlns="http://www.w3.org/2000/svg"
   xmlns:svg="http://www.w3.org/2000/svg"
   xmlns:rdf="http://www.w3.org/1999/02/22-rdf-syntax-ns#"
   xmlns:cc="http://creativecommons.org/ns#"
   xmlns:dc="http://purl.org/dc/elements/1.1/">
  <sodipodi:namedview
     id="namedview41"
     pagecolor="#ffffff"
     bordercolor="#666666"
     borderopacity="1.0"
     inkscape:pageshadow="2"
     inkscape:pageopacity="0.0"
     inkscape:pagecheckerboard="0"
     showgrid="false"
     inkscape:zoom="1.688"
     inkscape:cx="249.70379"
     inkscape:cy="237.85545"
     inkscape:window-width="1846"
     inkscape:window-height="1016"
     inkscape:window-x="74"
     inkscape:window-y="27"
     inkscape:window-maximized="1"
     inkscape:current-layer="neve_3"
     width="448px" />
  <defs
     id="defs4">
    <style
       id="style2">
      .cls-1, .cls-2, .cls-3 {
        stroke: #fff;
      }

      .cls-1, .cls-2, .cls-3, .cls-4, .cls-5, .cls-6, .cls-7 {
        stroke-miterlimit: 10;
      }

      .cls-1 {
        stroke-width: 16.35px;
      }

      .cls-2, .cls-3, .cls-4, .cls-5, .cls-6, .cls-7 {
        fill: none;
        stroke-linecap: round;
      }

      .cls-2 {
        stroke-width: 19.63px;
      }

      .cls-3 {
        stroke-width: 18.69px;
      }

      .cls-4, .cls-5 {
        stroke: #d7eeff;
      }

      .cls-4 {
        stroke-width: 15.67px;
      }

      .cls-5, .cls-7 {
        stroke-width: 14.02px;
      }

      .cls-6, .cls-7 {
        stroke: #a2d0f2;
      }

      .cls-6 {
        stroke-width: 12.13px;
      }
    </style>
  </defs>
  <title
     id="title6">neve_3</title>
  <g
     id="neve_3">
    <path
       id="rettangolo_nero"
       class="cls-1"
       d="M 436.6,374.34 A 62.25,62.25 0 0 1 374.35,436.6 H 73.65 A 62.25,62.25 0 0 1 11.4,374.34 V 73.66 A 62.25,62.25 0 0 1 73.65,11.4 h 300.7 a 62.25,62.25 0 0 1 62.25,62.26 z"
       style="stroke-width:0;stroke-miterlimit:10;stroke-dasharray:none" />
    <g
       id="fiocco_gran"
       transform="translate(-26,-26)">
      <line
         id="fiocco_gran9"
         class="cls-2"
         x1="245.03"
         y1="245.2"
         x2="350.09"
         y2="426.95001" />
      <line
         id="fiocco_gran8"
         class="cls-2"
         x1="350.09"
         y1="245.2"
         x2="245.03"
         y2="426.95001" />
      <line
         id="fiocco_gran7"
         class="cls-3"
         x1="191.59"
         y1="341.10999"
         x2="397.17999"
         y2="341.10999" />
      <polyline
         id="fiocco_gran6"
         class="cls-2"
         points="322.41 244.43 328.66 282.28 365 263.36" />
      <polyline
         id="fiocco_gran5"
         class="cls-2"
         points="276.27 248.74 266.47 282.28 232.25 277.86" />
      <polyline
         id="fiocco_gran4"
         class="cls-2"
         points="210.94 313.36 227.28 336.07 210.94 367.59" />
      <polyline
         id="fiocco_gran3"
         class="cls-2"
         points="232.25 398.55 266.75 389.37 280.52 414.77" />
      <polyline
         id="fiocco_gran2"
         class="cls-2"
         points="319.57 422.48 329.99 392.18 365 398.55" />
      <polyline
         id="fiocco_gran1"
         class="cls-2"
         points="391.27 313.36 365 337.02 391.27 362.76" />
    </g>
    <g
       id="fiocco_med"
       transform="translate(-26,-26)">
      <line
         id="fiocco_med9"
         class="cls-4"
         x1="108.49"
         y1="106.04"
         x2="192.34"
         y2="251.08" />
      <line
         id="fiocco_med8"
         class="cls-4"
         x1="192.34"
         y1="106.04"
         x2="108.49"
         y2="251.08" />
      <line
         id="fiocco_med7"
         class="cls-5"
         x1="65.440002"
         y1="184.59"
         x2="233.64999"
         y2="184.59" />
      <polyline
         id="fiocco_med6"
         class="cls-4"
         points="170.25 105.42 175.24 135.63 204.25 120.53" />
      <polyline
         id="fiocco_med5"
         class="cls-4"
         points="133.43 108.86 125.6 135.63 98.3 132.11" />
      <polyline
         id="fiocco_med4"
         class="cls-4"
         points="81.3 160.43 94.33 178.56 81.3 203.71" />
      <polyline
         id="fiocco_med3"
         class="cls-4"
         points="98.3 228.42 125.83 221.09 136.82 241.37" />
      <polyline
         id="fiocco_med2"
         class="cls-4"
         points="167.99 247.52 176.3 223.34 204.25 228.42" />
      <polyline
         id="fiocco_med1"
         class="cls-4"
         points="225.21 160.43 204.25 179.32 225.21 199.85" />
    </g>
    <g
       id="fiocco_picc"
       transform="translate(-26,-26)">
      <line
         id="fiocco_picc9"
         class="cls-6"
         x1="309.04001"
         y1="72.279999"
         x2="373.95999"
         y2="184.59" />
      <line
         id="fiocco_picc8"
         class="cls-6"
         x1="373.95999"
         y1="72.279999"
         x2="309.04001"
         y2="184.59" />
      <line
         id="fiocco_picc7"
         class="cls-7"
         x1="275.70001"
         y1="133.19"
         x2="401.85999"
         y2="133.19" />
      <polyline
         id="fiocco_picc6"
         class="cls-6"
         points="356.86 71.8 360.71 95.2 383.18 83.5" />
      <polyline
         id="fiocco_picc5"
         class="cls-6"
         points="328.34 74.47 322.29 95.2 301.14 92.47" />
      <polyline
         id="fiocco_picc4"
         class="cls-6"
         points="287.98 114.39 298.08 128.43 287.98 147.91" />
      <polyline
         id="fiocco_picc3"
         class="cls-6"
         points="301.14 167.04 322.46 161.36 330.98 177.06" />
      <polyline
         id="fiocco_picc2"
         class="cls-6"
         points="355.1 181.82 361.54 163.1 383.18 167.04" />
      <polyline
         id="fiocco_picc1"
         class="cls-6"
         points="399.41 114.39 383.18 129.02 399.41 144.92" />
    </g>
  </g>
  <metadata
     id="metadata858">
    <rdf:RDF>
      <cc:Work
         rdf:about="">
        <dc:title>neve_3</dc:title>
      </cc:Work>
    </rdf:RDF>
  </metadata>
</svg>
