<svg xmlns="http://www.w3.org/2000/svg" id="svg" width="448" height="448" version="1.1" viewBox="0 0 440 440">
    <defs id="defs4">
        <style id="style2">
            .cls-2{stroke:#fff}.cls-2,.cls-4,.cls-6{stroke-miterlimit:10;fill:none;stroke-linecap:round}.cls-2{stroke-width:19.63px}.cls-4{stroke:#d7eeff;stroke-width:15.67px}.cls-6{stroke:#a2d0f2;stroke-width:12.13px}
        </style>
    </defs>
    <g id="neve_3">
        <path id="rettangolo_nero" d="M436.6 374.34a62.25 62.25 0 0 1-62.25 62.26H73.65a62.25 62.25 0 0 1-62.25-62.26V73.66A62.25 62.25 0 0 1 73.65 11.4h300.7a62.25 62.25 0 0 1 62.25 62.26z" style="stroke-width:0;stroke-miterlimit:10;stroke-dasharray:none;stroke:#fff"/>
        <g id="fiocco_gran" transform="translate(-26 -26)">
            <path id="fiocco_gran9" d="m245.03 245.2 105.06 181.75" class="cls-2"/>
            <path id="fiocco_gran8" d="M350.09 245.2 245.03 426.95" class="cls-2"/>
            <path id="fiocco_gran7" d="M191.59 341.11h205.59" style="stroke-width:18.69px;fill:none;stroke-linecap:round;stroke-miterlimit:10;stroke:#fff"/>
            <path id="fiocco_gran6" d="m322.41 244.43 6.25 37.85L365 263.36" class="cls-2"/>
            <path id="fiocco_gran5" d="m276.27 248.74-9.8 33.54-34.22-4.42" class="cls-2"/>
            <path id="fiocco_gran4" d="m210.94 313.36 16.34 22.71-16.34 31.52" class="cls-2"/>
            <path id="fiocco_gran3" d="m232.25 398.55 34.5-9.18 13.77 25.4" class="cls-2"/>
            <path id="fiocco_gran2" d="m319.57 422.48 10.42-30.3 35.01 6.37" class="cls-2"/>
            <path id="fiocco_gran1" d="M391.27 313.36 365 337.02l26.27 25.74" class="cls-2"/>
        </g>
        <g id="fiocco_med" transform="translate(-26 -26)">
            <path id="fiocco_med9" d="m108.49 106.04 83.85 145.04" class="cls-4"/>
            <path id="fiocco_med8" d="m192.34 106.04-83.85 145.04" class="cls-4"/>
            <path id="fiocco_med7" d="M65.44 184.59h168.21" style="stroke-width:14.02px;stroke:#d7eeff;fill:none;stroke-linecap:round;stroke-miterlimit:10"/>
            <path id="fiocco_med6" d="m170.25 105.42 4.99 30.21 29.01-15.1" class="cls-4"/>
            <path id="fiocco_med5" d="m133.43 108.86-7.83 26.77-27.3-3.52" class="cls-4"/>
            <path id="fiocco_med4" d="m81.3 160.43 13.03 18.13-13.03 25.15" class="cls-4"/>
            <path id="fiocco_med3" d="m98.3 228.42 27.53-7.33 10.99 20.28" class="cls-4"/>
            <path id="fiocco_med2" d="m167.99 247.52 8.31-24.18 27.95 5.08" class="cls-4"/>
            <path id="fiocco_med1" d="m225.21 160.43-20.96 18.89 20.96 20.53" class="cls-4"/>
        </g>
        <g id="fiocco_picc" transform="translate(-26 -26)">
            <path id="fiocco_picc9" d="m309.04 72.28 64.92 112.31" class="cls-6"/>
            <path id="fiocco_picc8" d="m373.96 72.28-64.92 112.31" class="cls-6"/>
            <path id="fiocco_picc7" d="M275.7 133.19h126.16" style="stroke:#a2d0f2;stroke-width:14.02px;fill:none;stroke-linecap:round;stroke-miterlimit:10"/>
            <path id="fiocco_picc6" d="m356.86 71.8 3.85 23.4 22.47-11.7" class="cls-6"/>
            <path id="fiocco_picc5" d="m328.34 74.47-6.05 20.73-21.15-2.73" class="cls-6"/>
            <path id="fiocco_picc4" d="m287.98 114.39 10.1 14.04-10.1 19.48" class="cls-6"/>
            <path id="fiocco_picc3" d="m301.14 167.04 21.32-5.68 8.52 15.7" class="cls-6"/>
            <path id="fiocco_picc2" d="m355.1 181.82 6.44-18.72 21.64 3.94" class="cls-6"/>
            <path id="fiocco_picc1" d="m399.41 114.39-16.23 14.63 16.23 15.9" class="cls-6"/>
        </g>
    </g>
</svg>
