<?xml version="1.0" encoding="UTF-8" standalone="no"?>
<svg
   id="svg"
   viewBox="0 0 440 440"
   version="1.1"
   sodipodi:docname="neve_1.svg"
   width="448"
   height="448"
   inkscape:version="1.1.2 (0a00cf5339, 2022-02-04)"
   xmlns:inkscape="http://www.inkscape.org/namespaces/inkscape"
   xmlns:sodipodi="http://sodipodi.sourceforge.net/DTD/sodipodi-0.dtd"
   xmlns="http://www.w3.org/2000/svg"
   xmlns:svg="http://www.w3.org/2000/svg"
   xmlns:rdf="http://www.w3.org/1999/02/22-rdf-syntax-ns#"
   xmlns:cc="http://creativecommons.org/ns#"
   xmlns:dc="http://purl.org/dc/elements/1.1/">
  <sodipodi:namedview
     id="namedview21"
     pagecolor="#ffffff"
     bordercolor="#666666"
     borderopacity="1.0"
     inkscape:pageshadow="2"
     inkscape:pageopacity="0.0"
     inkscape:pagecheckerboard="0"
     showgrid="false"
     width="448px"
     inkscape:zoom="1.688"
     inkscape:cx="249.70379"
     inkscape:cy="250.29621"
     inkscape:window-width="1846"
     inkscape:window-height="1016"
     inkscape:window-x="74"
     inkscape:window-y="27"
     inkscape:window-maximized="1"
     inkscape:current-layer="svg" />
  <defs
     id="defs4">
    <style
       id="style2">
      .cls-1 {
        fill: #fff;
        stroke: #000;
        stroke-width: 16.35px;
      }

      .cls-1, .cls-2, .cls-3 {
        stroke-miterlimit: 10;
      }

      .cls-2, .cls-3 {
        fill: none;
        stroke: #005cbc;
        stroke-linecap: round;
      }

      .cls-2 {
        stroke-width: 18.6px;
      }

      .cls-3 {
        stroke-width: 18.69px;
      }
    </style>
  </defs>
  <title
     id="title6">neve_1</title>
  <g
     id="neve_1"
     transform="translate(-26,-24)">
    <path
       id="rettangolo_bianco"
       class="cls-1"
       d="m 99.66,37.4 h 300.68 a 62.25,62.25 0 0 1 62.26,62.26 v 300.68 a 62.25,62.25 0 0 1 -62.25,62.25 H 99.66 A 62.26,62.26 0 0 1 37.4,400.34 V 99.66 A 62.25,62.25 0 0 1 99.66,37.4 Z" />
    <g
       id="fiocco_blu">
      <line
         id="fiocco_blu9"
         class="cls-2"
         x1="200.67"
         y1="163.88"
         x2="300.23001"
         y2="336.10001" />
      <line
         id="fiocco_blu8"
         class="cls-2"
         x1="300.23001"
         y1="163.88"
         x2="200.67"
         y2="336.10001" />
      <line
         id="fiocco_blu7"
         class="cls-3"
         x1="149.53999"
         y1="252.34"
         x2="345.79001"
         y2="252.34" />
      <polyline
         id="fiocco_blu6"
         class="cls-2"
         points="273.99 163.15 279.92 199.02 314.36 181.09" />
      <polyline
         id="fiocco_blu5"
         class="cls-2"
         points="230.27 167.23 220.98 199.02 188.56 194.83" />
      <polyline
         id="fiocco_blu4"
         class="cls-2"
         points="168.37 228.46 183.85 249.99 168.37 279.85" />
      <polyline
         id="fiocco_blu3"
         class="cls-2"
         points="188.56 309.19 221.25 300.49 234.3 324.57" />
      <polyline
         id="fiocco_blu2"
         class="cls-2"
         points="271.31 331.86 281.18 303.15 314.36 309.19" />
      <polyline
         id="fiocco_blu1"
         class="cls-2"
         points="339.25 228.46 314.36 250.89 339.25 275.27" />
    </g>
  </g>
  <metadata
     id="metadata838">
    <rdf:RDF>
      <cc:Work
         rdf:about="">
        <dc:title>neve_1</dc:title>
      </cc:Work>
    </rdf:RDF>
  </metadata>
</svg>
