<?xml version="1.0" encoding="UTF-8" standalone="no"?>
<svg
   id="svg"
   viewBox="0 0 440 440"
   version="1.1"
   sodipodi:docname="temporali_2.svg"
   width="448"
   height="448"
   inkscape:version="1.1.2 (0a00cf5339, 2022-02-04)"
   xmlns:inkscape="http://www.inkscape.org/namespaces/inkscape"
   xmlns:sodipodi="http://sodipodi.sourceforge.net/DTD/sodipodi-0.dtd"
   xmlns="http://www.w3.org/2000/svg"
   xmlns:svg="http://www.w3.org/2000/svg"
   xmlns:rdf="http://www.w3.org/1999/02/22-rdf-syntax-ns#"
   xmlns:cc="http://creativecommons.org/ns#"
   xmlns:dc="http://purl.org/dc/elements/1.1/">
  <sodipodi:namedview
     id="namedview13"
     pagecolor="#ffffff"
     bordercolor="#666666"
     borderopacity="1.0"
     inkscape:pageshadow="2"
     inkscape:pageopacity="0.0"
     inkscape:pagecheckerboard="0"
     showgrid="false"
     width="448px"
     inkscape:zoom="1.688"
     inkscape:cx="249.70379"
     inkscape:cy="250.29621"
     inkscape:window-width="1846"
     inkscape:window-height="1016"
     inkscape:window-x="74"
     inkscape:window-y="27"
     inkscape:window-maximized="1"
     inkscape:current-layer="svg" />
  <defs
     id="defs4">
    <style
       id="style2">
      .cls-1, .cls-2 {
        fill: #fff;
      }

      .cls-1, .cls-2, .cls-3 {
        stroke: #000;
      }

      .cls-1, .cls-3 {
        stroke-miterlimit: 10;
      }

      .cls-1 {
        stroke-width: 16.26px;
      }

      .cls-2 {
        stroke-linecap: square;
        stroke-linejoin: round;
        stroke-width: 14.87px;
      }

      .cls-3 {
        fill: #fcee21;
        stroke-width: 11.15px;
      }
    </style>
  </defs>
  <title
     id="title6">temporali_2</title>
  <g
     id="temporali_2"
     transform="translate(-26,-24)">
    <path
       id="quadrato_bianco"
       class="cls-1"
       d="m 462.6,399.87 c 0,34.38 -29,62.72 -63,62.72 H 101.29 c -34,0 -63.89,-28.34 -63.89,-62.72 V 98.26 C 37.4,63.88 67.28,37.4 101.29,37.4 h 298.35 c 34,0 63,26.47 63,60.86 z" />
    <path
       id="nuvola"
       class="cls-2"
       d="m 261,249.74 c 65.82,0 130.78,-0.38 141.85,-2.58 31,-6.18 43.61,-38.8 21.22,-54.21 -29.78,-20.47 -48.38,-16.3 -81.08,0.91 34.49,-19 31.72,-58.52 6.43,-65.34 -32.88,-8.86 -59.29,11.45 -69.59,40.43 11.65,-24 9.27,-52.61 -6.17,-72.06 -12.1,-15.25 -33.25,-22.14 -48.48,-22.14 -13.61,0 -42.54,11.19 -53.31,24 -15.23,18.12 -22.85,37.14 -13,57.44 -9.41,-13.51 -24,-21.42 -46.59,-14.87 -16.51,4.78 -31.29,28.63 -33.75,47.1 -3.43,25.82 5.46,47.2 19.86,54.8 12.6,6.64 21.44,6.19 35.69,6.19" />
    <polygon
       id="fulmine"
       class="cls-3"
       points="173.73,401.86 211.33,298.8 152.66,291.92 231.49,181.99 199.67,268.65 263.87,277.96 " />
  </g>
  <metadata
     id="metadata830">
    <rdf:RDF>
      <cc:Work
         rdf:about="">
        <dc:title>temporali_2</dc:title>
      </cc:Work>
    </rdf:RDF>
  </metadata>
</svg>
