<svg xmlns="http://www.w3.org/2000/svg" id="svg" width="448" height="448" version="1.1" viewBox="0 0 440 440">
    <defs id="defs4">
        <style id="style2">
            .cls-5,.cls-6{stroke:#000;stroke-miterlimit:10}.cls-5{stroke-width:13.87px}.cls-6{stroke-width:10.4px}.cls-5,.cls-6{fill:none}.cls-5{stroke-linecap:round}
        </style>
    </defs>
    <g id="temporali_1" transform="translate(-26 -24)">
        <rect id="quadrato_bianco" width="425.2" height="425.2" x="37.4" y="37.4" rx="62.26" ry="62.26" style="stroke-width:16.35px;stroke-miterlimit:10;stroke:#000;fill:#fff"/>
        <path id="sole" d="M225.27 153.73c15.79-25.83 44.28-42.5 76.14-41.19 47.3 1.95 84.1 42.8 82.2 91.24a88.78 88.78 0 0 1-15.5 46.94" style="stroke-width:13.87px;stroke-miterlimit:10;stroke:#000;fill:#fff"/>
        <path id="nuvola" d="M210.64 303.72c55.65 0 110.57-.32 119.93-2.21 26.17-5.3 36.87-33.23 17.94-46.42-25.18-17.53-40.91-14-68.55.78 29.16-16.29 20.25-42.64-1.14-48.49-27.8-7.59-43.56 2.33-52.27 27.15 9.85-20.56 7.83-45.06-5.21-61.72-10.24-13.06-28.12-19-41-19-11.51 0-36 9.58-45.07 20.56-12.87 15.52-19.32 31.81-11 49.2-8-11.57-20.25-18.35-39.39-12.74C71 215 58.46 235.39 56.38 251.21c-2.9 22.11 4.62 40.43 16.79 46.93 10.65 5.69 18.12 5.3 30.17 5.3" style="stroke-linecap:square;stroke-linejoin:round;stroke-width:13.87px;stroke:#000;fill:#fff"/>
        <path id="fulmine" d="m107.49 331.1 62.93-83.44-25.4 65.78 51.25 7.07-71.95 94.03 30.01-78.22z" style="stroke-width:10.4px;fill:#fcee21;stroke-miterlimit:10;stroke:#000"/>
        <path id="raggio5" d="m387.75 262.06 21.21 22.84" class="cls-5"/>
        <path id="raggio4" d="m402.74 192.65 42.91-2.32" class="cls-5"/>
        <path id="raggio3" d="m378.9 118.4 32.24-31.8" class="cls-5"/>
        <path id="raggio2" d="m290.98 89.9-3.65-33.34" class="cls-5"/>
        <path id="raggio1" d="m218.07 118.55-20.56-23.47" class="cls-5"/>
        <g id="g27">
            <path id="path17" d="M268.07 338.38c20.67 13.19 34.48 49.61 4.14 61.91-14.91 5.23-26.65-3.13-24.52-18.8 3.1-15.16 21.15-25.42 20.38-43.11z"/>
            <g id="g25">
                <path id="path19" d="M268.07 338.38c0-.6-.06-1.19-.13-1.8" class="cls-6"/>
                <path id="path21" d="M268.07 338.38c20.67 13.19 34.48 49.61 4.14 61.91-14.91 5.23-26.65-3.13-24.52-18.8 3.1-15.16 21.15-25.42 20.38-43.11z" class="cls-6"/>
                <path id="path23" d="M266.89 337.64c.4.23.8.49 1.18.74" class="cls-6"/>
            </g>
        </g>
    </g>
</svg>
