<?xml version="1.0" encoding="UTF-8" standalone="no"?>
<svg
   id="svg"
   viewBox="0 0 440 440"
   version="1.1"
   sodipodi:docname="temporali_3.svg"
   inkscape:version="1.1.2 (0a00cf5339, 2022-02-04)"
   width="448"
   height="448"
   xmlns:inkscape="http://www.inkscape.org/namespaces/inkscape"
   xmlns:sodipodi="http://sodipodi.sourceforge.net/DTD/sodipodi-0.dtd"
   xmlns="http://www.w3.org/2000/svg"
   xmlns:svg="http://www.w3.org/2000/svg"
   xmlns:rdf="http://www.w3.org/1999/02/22-rdf-syntax-ns#"
   xmlns:cc="http://creativecommons.org/ns#"
   xmlns:dc="http://purl.org/dc/elements/1.1/">
  <sodipodi:namedview
     id="namedview14"
     pagecolor="#ffffff"
     bordercolor="#666666"
     borderopacity="1.0"
     inkscape:pageshadow="2"
     inkscape:pageopacity="0.0"
     inkscape:pagecheckerboard="0"
     showgrid="false"
     inkscape:zoom="1.688"
     inkscape:cx="249.70379"
     inkscape:cy="250.29621"
     inkscape:window-width="1846"
     inkscape:window-height="1016"
     inkscape:window-x="74"
     inkscape:window-y="27"
     inkscape:window-maximized="1"
     inkscape:current-layer="temporali_3"
     width="448px" />
  <defs
     id="defs4">
    <style
       id="style2">
      .cls-1, .cls-2, .cls-3 {
        stroke: #fff;
      }

      .cls-1, .cls-3 {
        stroke-miterlimit: 10;
      }

      .cls-1 {
        stroke-width: 16.35px;
      }

      .cls-2 {
        fill: none;
        stroke-linecap: square;
        stroke-linejoin: round;
        stroke-width: 14.95px;
      }

      .cls-3 {
        fill: #fbb03b;
        stroke-width: 11.21px;
      }
    </style>
  </defs>
  <title
     id="title6">temporali_3</title>
  <g
     id="temporali_3">
    <rect
       id="quadrato_nero"
       class="cls-1"
       x="11.400002"
       y="13.400002"
       width="425.20001"
       height="425.20001"
       rx="62.259998"
       ry="62.259998"
       style="stroke-width:0;stroke-miterlimit:10;stroke-dasharray:none" />
    <path
       id="nuvola"
       class="cls-2"
       d="m 282.87,218.27 c 66.55,0 75.54,-0.38 86.73,-2.59 31.3,-6.18 44.09,-38.8 21.45,-54.2 -30.11,-20.47 -48.91,-16.31 -82,0.91 34.87,-19 29.26,-60.39 3.7,-67.21 -33.24,-8.86 -57.14,13.32 -67.55,42.3 11.78,-24 9.37,-52.61 -6.23,-72.06 -12.23,-15.25 -33.62,-22.14 -49,-22.14 -13.76,0 -43,11.19 -53.89,24 -15.4,18.11 -23.1,37.14 -13.13,57.44 -9.51,-13.51 -24.23,-21.42 -47.1,-14.87 -16.69,4.78 -31.64,28.63 -34.12,47.1 -3.47,25.82 5.52,47.2 20.08,54.8 12.73,6.63 21.67,6.18 36.08,6.18" />
    <polygon
       id="fulmine_piccolo"
       class="cls-3"
       points="274.83,260.75 323.81,268.81 255.04,376.06 283.73,286.85 238.96,280.9 299.11,185.72 "
       transform="translate(-26,-24)" />
    <polygon
       id="fulmine_grande"
       class="cls-3"
       points="190.9,294.05 240.06,304.85 164.55,408.85 198.48,320.77 153.47,312.32 176.06,260.47 141.01,258.57 205.53,149.65 185.12,237.71 220.17,239.61 "
       transform="translate(-26,-24)" />
  </g>
  <metadata
     id="metadata831">
    <rdf:RDF>
      <cc:Work
         rdf:about="">
        <dc:title>temporali_3</dc:title>
      </cc:Work>
    </rdf:RDF>
  </metadata>
</svg>
