<?xml version="1.0" encoding="UTF-8" standalone="no"?>
<svg
   id="svg"
   viewBox="0 0 440 440"
   version="1.1"
   sodipodi:docname="temporali_1.svg"
   width="448"
   height="448"
   inkscape:version="1.1.2 (0a00cf5339, 2022-02-04)"
   xmlns:inkscape="http://www.inkscape.org/namespaces/inkscape"
   xmlns:sodipodi="http://sodipodi.sourceforge.net/DTD/sodipodi-0.dtd"
   xmlns="http://www.w3.org/2000/svg"
   xmlns:svg="http://www.w3.org/2000/svg"
   xmlns:rdf="http://www.w3.org/1999/02/22-rdf-syntax-ns#"
   xmlns:cc="http://creativecommons.org/ns#"
   xmlns:dc="http://purl.org/dc/elements/1.1/">
  <sodipodi:namedview
     id="namedview31"
     pagecolor="#ffffff"
     bordercolor="#666666"
     borderopacity="1.0"
     inkscape:pageshadow="2"
     inkscape:pageopacity="0.0"
     inkscape:pagecheckerboard="0"
     showgrid="false"
     width="448px"
     inkscape:zoom="1.688"
     inkscape:cx="249.70379"
     inkscape:cy="250.29621"
     inkscape:window-width="1846"
     inkscape:window-height="1016"
     inkscape:window-x="74"
     inkscape:window-y="27"
     inkscape:window-maximized="1"
     inkscape:current-layer="svg" />
  <defs
     id="defs4">
    <style
       id="style2">
      .cls-1, .cls-2, .cls-3 {
        fill: #fff;
      }

      .cls-1, .cls-2, .cls-3, .cls-4, .cls-5, .cls-6 {
        stroke: #000;
      }

      .cls-1, .cls-2, .cls-4, .cls-5, .cls-6 {
        stroke-miterlimit: 10;
      }

      .cls-1 {
        stroke-width: 16.35px;
      }

      .cls-2, .cls-3, .cls-5 {
        stroke-width: 13.87px;
      }

      .cls-3 {
        stroke-linecap: square;
        stroke-linejoin: round;
      }

      .cls-4 {
        fill: #fcee21;
      }

      .cls-4, .cls-6 {
        stroke-width: 10.4px;
      }

      .cls-5, .cls-6 {
        fill: none;
      }

      .cls-5 {
        stroke-linecap: round;
      }
    </style>
  </defs>
  <title
     id="title6">temporali_1</title>
  <g
     id="temporali_1"
     transform="translate(-26,-24)">
    <rect
       id="quadrato_bianco"
       class="cls-1"
       x="37.400002"
       y="37.400002"
       width="425.20001"
       height="425.20001"
       rx="62.259998"
       ry="62.259998" />
    <path
       id="sole"
       class="cls-2"
       d="m 225.27,153.73 c 15.79,-25.83 44.28,-42.5 76.14,-41.19 47.3,1.95 84.1,42.8 82.2,91.24 a 88.78,88.78 0 0 1 -15.5,46.94" />
    <path
       id="nuvola"
       class="cls-3"
       d="m 210.64,303.72 c 55.65,0 110.57,-0.32 119.93,-2.21 26.17,-5.3 36.87,-33.23 17.94,-46.42 -25.18,-17.53 -40.91,-14 -68.55,0.78 29.16,-16.29 20.25,-42.64 -1.14,-48.49 -27.8,-7.59 -43.56,2.33 -52.27,27.15 9.85,-20.56 7.83,-45.06 -5.21,-61.72 -10.24,-13.06 -28.12,-19 -41,-19 -11.51,0 -36,9.58 -45.07,20.56 -12.87,15.52 -19.32,31.81 -11,49.2 -8,-11.57 -20.25,-18.35 -39.39,-12.74 -13.88,4.17 -26.42,24.56 -28.5,40.38 -2.9,22.11 4.62,40.43 16.79,46.93 10.65,5.69 18.12,5.3 30.17,5.3" />
    <polygon
       id="fulmine"
       class="cls-4"
       points="107.49,331.1 170.42,247.66 145.02,313.44 196.27,320.51 124.32,414.54 154.33,336.32 " />
    <line
       id="raggio5"
       class="cls-5"
       x1="387.75"
       y1="262.06"
       x2="408.95999"
       y2="284.89999" />
    <line
       id="raggio4"
       class="cls-5"
       x1="402.73999"
       y1="192.64999"
       x2="445.64999"
       y2="190.33" />
    <line
       id="raggio3"
       class="cls-5"
       x1="378.89999"
       y1="118.4"
       x2="411.14001"
       y2="86.599998" />
    <line
       id="raggio2"
       class="cls-5"
       x1="290.98001"
       y1="89.900002"
       x2="287.32999"
       y2="56.560001" />
    <line
       id="raggio1"
       class="cls-5"
       x1="218.07001"
       y1="118.55"
       x2="197.50999"
       y2="95.080002" />
    <g
       id="g27">
      <path
         d="m 268.07,338.38 c 20.67,13.19 34.48,49.61 4.14,61.91 -14.91,5.23 -26.65,-3.13 -24.52,-18.8 3.1,-15.16 21.15,-25.42 20.38,-43.11 z"
         id="path17" />
      <g
         id="g25">
        <path
           class="cls-6"
           d="m 268.07,338.38 c 0,-0.6 -0.06,-1.19 -0.13,-1.8"
           id="path19" />
        <path
           class="cls-6"
           d="m 268.07,338.38 c 20.67,13.19 34.48,49.61 4.14,61.91 -14.91,5.23 -26.65,-3.13 -24.52,-18.8 3.1,-15.16 21.15,-25.42 20.38,-43.11 z"
           id="path21" />
        <path
           class="cls-6"
           d="m 266.89,337.64 c 0.4,0.23 0.8,0.49 1.18,0.74"
           id="path23" />
      </g>
    </g>
  </g>
  <metadata
     id="metadata848">
    <rdf:RDF>
      <cc:Work
         rdf:about="">
        <dc:title>temporali_1</dc:title>
      </cc:Work>
    </rdf:RDF>
  </metadata>
</svg>
