<svg xmlns="http://www.w3.org/2000/svg" id="svg" width="448" height="448" version="1.1" viewBox="0 0 440 440">
    <defs id="defs4">
        <style id="style2">
            .cls-3{stroke:#fff;stroke-miterlimit:10;fill:#fbb03b;stroke-width:11.21px}
        </style>
    </defs>
    <g id="temporali_3">
        <rect id="quadrato_nero" width="425.2" height="425.2" x="11.4" y="13.4" rx="62.26" ry="62.26" style="stroke-width:0;stroke-miterlimit:10;stroke-dasharray:none;stroke:#fff"/>
        <path id="nuvola" d="M282.87 218.27c66.55 0 75.54-.38 86.73-2.59 31.3-6.18 44.09-38.8 21.45-54.2-30.11-20.47-48.91-16.31-82 .91 34.87-19 29.26-60.39 3.7-67.21-33.24-8.86-57.14 13.32-67.55 42.3 11.78-24 9.37-52.61-6.23-72.06-12.23-15.25-33.62-22.14-49-22.14-13.76 0-43 11.19-53.89 24-15.4 18.11-23.1 37.14-13.13 57.44-9.51-13.51-24.23-21.42-47.1-14.87-16.69 4.78-31.64 28.63-34.12 47.1-3.47 25.82 5.52 47.2 20.08 54.8 12.73 6.63 21.67 6.18 36.08 6.18" style="fill:none;stroke-linecap:square;stroke-linejoin:round;stroke-width:14.95px;stroke:#fff"/>
        <path id="fulmine_piccolo" d="m274.83 260.75 48.98 8.06-68.77 107.25 28.69-89.21-44.77-5.95 60.15-95.18z" class="cls-3" transform="translate(-26 -24)"/>
        <path id="fulmine_grande" d="m190.9 294.05 49.16 10.8-75.51 104 33.93-88.08-45.01-8.45 22.59-51.85-35.05-1.9 64.52-108.92-20.41 88.06 35.05 1.9z" class="cls-3" transform="translate(-26 -24)"/>
    </g>
</svg>
