<svg xmlns="http://www.w3.org/2000/svg" width="448" height="448" viewBox="0 0 440 440">
    <path d="M462.6 400.81c0 34.39-26.47 61.79-60.85 61.79H100.12c-34.38 0-62.72-27.41-62.72-61.79V99.19c0-34.39 28.34-61.79 62.72-61.79h301.63c34.38 0 60.85 27.41 60.85 61.79z" style="fill:#fff;stroke:#000;stroke-miterlimit:10;stroke-width:16.35px" transform="translate(-26 -26)"/>
    <path d="M24.13 239.47a27.72 27.72 0 0 1 12-11.85 32.25 32.25 0 0 1 8.37-2.71 45.07 45.07 0 0 1 8.76-.59A76.25 76.25 0 0 1 70.41 227a148.08 148.08 0 0 1 16.23 5.44 307.53 307.53 0 0 1 30.56 14.49c9.87 5.32 19.56 10.89 29.12 16.6 9.56 5.71 19 11.52 28.48 17.25s18.86 11.5 28.29 17.15c9.43 5.65 18.91 11.07 28.51 16.31q7.18 3.91 14.46 7.55c4.84 2.45 9.7 4.81 14.61 7a252.21 252.21 0 0 0 29.89 11.45c10.11 3 20.36 5.29 30.57 5.84a77.81 77.81 0 0 0 29.79-3.56 68.07 68.07 0 0 0 13.6-6.33 103.81 103.81 0 0 0 12.6-9.28 96.09 96.09 0 0 0 20.65-23.43A78.58 78.58 0 0 0 408.21 274c1.61-10.56 1.45-21.55.93-32.59-.52-11.04-1.34-22.22-.77-33.34 1.05 11.07 3.25 21.9 5 32.91 1.75 11.01 3.08 22.27 2.4 33.8a90.17 90.17 0 0 1-2.68 17.22 84.28 84.28 0 0 1-6.27 16.48 103.7 103.7 0 0 1-21.28 27.81c-2.1 2-4.28 3.92-6.49 5.79s-4.54 3.76-7 5.5a73.77 73.77 0 0 1-7.71 4.82 76.62 76.62 0 0 1-8.26 3.91c-11.32 4.66-23.64 6.39-35.57 6.2a127.61 127.61 0 0 1-17.7-1.68 152.75 152.75 0 0 1-17.11-3.79 233.86 233.86 0 0 1-32.37-11.82q-7.82-3.46-15.41-7.28-7.59-3.82-15-8c-9.88-5.43-19.48-11.24-29-17.17-9.52-5.93-18.77-12.09-28-18.23-9.23-6.14-18.4-12.42-27.52-18.67-9.12-6.25-18.26-12.4-27.5-18.31-4.61-3-9.24-5.9-13.93-8.7-4.69-2.8-9.4-5.53-14.22-8a152 152 0 0 0-14.67-6.83 74.49 74.49 0 0 0-15.29-4.46 33.59 33.59 0 0 0-15.57.68 24.44 24.44 0 0 0-7.13 3.53 31.88 31.88 0 0 0-5.96 5.69z"/>
    <path d="M25.21 192.49a30.76 30.76 0 0 1 10.13-11.35 34.69 34.69 0 0 1 14.83-5.22 61.24 61.24 0 0 1 15.71.26 112.87 112.87 0 0 1 15.17 3.3c4.94 1.43 9.78 3.12 14.55 4.93 4.77 1.81 9.44 3.84 14.06 5.92 9.23 4.2 18.25 8.72 27.11 13.47 17.76 9.43 34.95 19.59 52.18 29.45q12.86 7.49 25.8 14.65c8.6 4.81 17.3 9.38 26 13.78 17.46 8.69 35.31 16.49 53.58 21a102.64 102.64 0 0 0 27.34 3.19q3.37-.14 6.69-.55a65.21 65.21 0 0 0 6.54-1.22 57.75 57.75 0 0 0 12.39-4.64c1-.52 2-1 3-1.67 1-.67 2-1.18 3-1.84 2-1.25 3.85-2.58 5.65-4a56.15 56.15 0 0 0 9.71-9.37 49.34 49.34 0 0 0 6.8-11.58c.45-1.05.83-2.14 1.24-3.22.41-1.08.75-2.2 1-3.33s.65-2.25.91-3.41c.26-1.16.54-2.31.77-3.49 1.85-9.4 2.52-19.32 3.16-29.25.64-9.93 1.16-19.94 2-29.91.9 10 1.86 19.89 2.58 29.88.36 5 .66 10 .76 15.08a132.79 132.79 0 0 1-.42 15.35 73.52 73.52 0 0 1-2.94 15.58 57 57 0 0 1-7 14.8 67.79 67.79 0 0 1-10.76 12.31c-2 1.81-4.09 3.5-6.22 5.09-1.05.83-2.15 1.56-3.23 2.32-1.08.76-2.22 1.51-3.39 2.26a70.92 70.92 0 0 1-31.28 10.19 110.85 110.85 0 0 1-32-2.16q-7.74-1.6-15.23-3.85c-5-1.53-9.87-3.22-14.68-5-9.65-3.63-18.94-7.9-28.07-12.38-36.42-18.11-69.6-40.6-103.16-61.55l-12.63-7.74c-4.22-2.55-8.48-5-12.74-7.43a287.24 287.24 0 0 0-12.93-6.94c-4.36-2.2-8.74-4.3-13.21-6.14a108.79 108.79 0 0 0-13.6-4.77 59 59 0 0 0-14-2.21 32.26 32.26 0 0 0-13.68 2.52 27.59 27.59 0 0 0-6.19 3.7 37.05 37.05 0 0 0-5.3 5.19z"/>
    <path d="M45.55 147.31a33.92 33.92 0 0 1 8-10.1 32.26 32.26 0 0 1 11.7-6.32 45.71 45.71 0 0 1 13.28-1.9 73.26 73.26 0 0 1 13.23 1.18 111.17 111.17 0 0 1 12.78 3c4.19 1.21 8.3 2.62 12.34 4.16 8.1 3 15.93 6.59 23.63 10.32 15.37 7.52 30.16 15.87 44.74 24.33L207 184.73q10.85 6.34 21.7 12.48 10.85 6.14 21.85 11.71c7.33 3.7 14.73 7.11 22.18 10.11 3.73 1.48 7.48 2.82 11.24 4a103.18 103.18 0 0 0 11.26 2.88c7.47 1.4 14.91 1.78 21.59.2a30.67 30.67 0 0 0 4.85-1.55 28.7 28.7 0 0 0 4.53-2.27 29.86 29.86 0 0 0 4.17-3c.68-.54 1.29-1.18 1.94-1.77.65-.59 1.25-1.26 1.82-2a47.33 47.33 0 0 0 3.39-4.31l3.32-5c2.25-3.5 4.53-6.93 6.6-10.43a112.83 112.83 0 0 0 5.72-10.65c.89-1.81 1.63-3.67 2.39-5.54.76-1.87 1.41-3.78 2-5.74.31-1 .61-1.95.84-2.94.23-.99.54-2 .77-3 .41-2 .89-4 1.19-6.09.3-2.09.63-4.13.91-6.22.16-1 .23-2.1.33-3.15.1-1.05.21-2.11.32-3.18a82.36 82.36 0 0 1 2 25.76c-.67 8.8-3.27 17.5-6.55 25.6-1.69 4-3.46 8-5.34 11.82l-1.4 2.86-.35.72-.41.77-.85 1.54a56.83 56.83 0 0 1-3.92 6c-.7 1-1.51 1.89-2.29 2.83-.78.94-1.63 1.83-2.53 2.68a45.54 45.54 0 0 1-19.23 11.39 57 57 0 0 1-14.48 2.27 78.66 78.66 0 0 1-14-.92 130.65 130.65 0 0 1-26-7 241 241 0 0 1-23.94-10.48c-7.75-3.81-15.26-7.94-22.66-12.19-29.59-17-57.24-36.18-85.8-53.18-7.14-4.24-14.36-8.27-21.7-12a153.42 153.42 0 0 0-22.54-9.39c-7.68-2.37-15.67-3.86-23.53-2.83a34.4 34.4 0 0 0-5.78 1.33 30.23 30.23 0 0 0-5.61 2.44 31.06 31.06 0 0 0-5 3.55 46.27 46.27 0 0 0-4.45 4.47z"/>
    <path d="M79.07 106.61a48.13 48.13 0 0 1 2.5-4.14 33 33 0 0 1 3.1-3.82 30.59 30.59 0 0 1 8-6.14 31.86 31.86 0 0 1 4.78-2c.83-.25 1.65-.6 2.5-.76l2.55-.56a21.08 21.08 0 0 1 2.57-.38c.86-.08 1.73-.23 2.59-.25 1.71 0 3.47-.17 5.16 0a79.87 79.87 0 0 1 19.89 3.69c1.6.48 3.16 1 4.74 1.55s3.09 1.16 4.64 1.74c3.06 1.22 6.1 2.47 9.05 3.86 5.93 2.74 11.71 5.7 17.34 8.85 5.63 3.15 11.16 6.41 16.61 9.73 5.45 3.32 10.8 6.78 16.14 10.17l15.87 10.3q7.87 5.17 15.77 10.13c5.23 3.36 10.53 6.55 15.84 9.62 10.61 6.1 21.45 11.67 32.52 15a51.55 51.55 0 0 0 16.53 2.4l2-.12a50.42 50.42 0 0 0 4-.63c.64-.18 1.3-.34 2-.51a12.55 12.55 0 0 0 1.92-.64c.63-.25 1.28-.46 1.91-.73l1.84-.93.93-.46c.3-.17.59-.37.88-.56a45.87 45.87 0 0 0 12.67-12.09 112.89 112.89 0 0 0 9.61-16.18 76.76 76.76 0 0 1-5.24 18.69 47.59 47.59 0 0 1-11.68 16.69c-.33.3-.64.62-1 .9l-1.08.8-2.18 1.6c-.76.49-1.55.93-2.34 1.39a19.89 19.89 0 0 1-2.41 1.28l-2.51 1.11c-.84.38-1.72.59-2.59.88-.87.29-1.74.6-2.63.76l-2.67.56a23.18 23.18 0 0 1-2.68.41q-1.34.16-2.7.29l-2.67.07c-.89 0-1.8.06-2.67 0-1.76-.09-3.55-.12-5.27-.36l-2.6-.31c-.86-.12-1.7-.3-2.55-.45l-2.55-.48-2.5-.58c-.83-.2-1.67-.38-2.49-.61l-2.44-.7c-1.65-.44-3.23-1-4.82-1.54-1.59-.54-3.16-1.12-4.72-1.71a185.44 185.44 0 0 1-18-8.13c-5.83-3-11.44-6.2-17-9.46-5.56-3.26-10.94-6.75-16.3-10.21-5.36-3.46-10.61-7-15.85-10.59l-15.6-10.68c-10.35-7.1-20.67-14.06-31.22-20.38-2.65-1.55-5.29-3.1-8-4.55-2.71-1.45-5.39-2.8-8.1-4.11a82.61 82.61 0 0 0-16.74-6 36.43 36.43 0 0 0-17.22-.14 35.08 35.08 0 0 0-15.43 9.42z"/>
</svg>
