<?xml version="1.0" encoding="UTF-8" standalone="no"?>
<svg
   id="svg"
   viewBox="0 0 440 440"
   version="1.1"
   sodipodi:docname="vento_1.svg"
   width="448"
   height="448"
   inkscape:version="1.1.2 (0a00cf5339, 2022-02-04)"
   xmlns:inkscape="http://www.inkscape.org/namespaces/inkscape"
   xmlns:sodipodi="http://sodipodi.sourceforge.net/DTD/sodipodi-0.dtd"
   xmlns="http://www.w3.org/2000/svg"
   xmlns:svg="http://www.w3.org/2000/svg"
   xmlns:rdf="http://www.w3.org/1999/02/22-rdf-syntax-ns#"
   xmlns:cc="http://creativecommons.org/ns#"
   xmlns:dc="http://purl.org/dc/elements/1.1/">
  <sodipodi:namedview
     id="namedview19"
     pagecolor="#ffffff"
     bordercolor="#666666"
     borderopacity="1.0"
     inkscape:pageshadow="2"
     inkscape:pageopacity="0.0"
     inkscape:pagecheckerboard="0"
     showgrid="false"
     width="448px"
     inkscape:zoom="1.688"
     inkscape:cx="249.70379"
     inkscape:cy="207.04976"
     inkscape:window-width="1846"
     inkscape:window-height="1016"
     inkscape:window-x="74"
     inkscape:window-y="27"
     inkscape:window-maximized="1"
     inkscape:current-layer="svg" />
  <defs
     id="defs4">
    <style
       id="style2">
      .cls-1 {
        fill: #fff;
        stroke: #000;
        stroke-miterlimit: 10;
        stroke-width: 16.35px;
      }
    </style>
  </defs>
  <title
     id="title6">vento_1</title>
  <g
     id="vento_1"
     transform="translate(-26,-26)">
    <path
       id="quadrato_bianco"
       class="cls-1"
       d="m 462.6,400.81 c 0,34.39 -26.47,61.79 -60.85,61.79 H 100.12 C 65.74,462.6 37.4,435.19 37.4,400.81 V 99.19 C 37.4,64.8 65.74,37.4 100.12,37.4 h 301.63 c 34.38,0 60.85,27.41 60.85,61.79 z" />
    <path
       d="m 50.13,265.47 a 27.72,27.72 0 0 1 12,-11.85 32.25,32.25 0 0 1 8.37,-2.71 45.07,45.07 0 0 1 8.76,-0.59 76.25,76.25 0 0 1 17.15,2.68 148.08,148.08 0 0 1 16.23,5.44 307.53,307.53 0 0 1 30.56,14.49 c 9.87,5.32 19.56,10.89 29.12,16.6 9.56,5.71 19,11.52 28.48,17.25 9.48,5.73 18.86,11.5 28.29,17.15 9.43,5.65 18.91,11.07 28.51,16.31 q 7.18,3.91 14.46,7.55 c 4.84,2.45 9.7,4.81 14.61,7 a 252.21,252.21 0 0 0 29.89,11.45 c 10.11,3 20.36,5.29 30.57,5.84 a 77.81,77.81 0 0 0 29.79,-3.56 68.07,68.07 0 0 0 13.6,-6.33 103.81,103.81 0 0 0 12.6,-9.28 96.09,96.09 0 0 0 20.65,-23.43 78.58,78.58 0 0 0 10.44,-29.48 c 1.61,-10.56 1.45,-21.55 0.93,-32.59 -0.52,-11.04 -1.34,-22.22 -0.77,-33.34 1.05,11.07 3.25,21.9 5,32.91 1.75,11.01 3.08,22.27 2.4,33.8 a 90.17,90.17 0 0 1 -2.68,17.22 84.28,84.28 0 0 1 -6.27,16.48 103.7,103.7 0 0 1 -21.28,27.81 c -2.1,2 -4.28,3.92 -6.49,5.79 -2.21,1.87 -4.54,3.76 -7,5.5 a 73.77,73.77 0 0 1 -7.71,4.82 76.62,76.62 0 0 1 -8.26,3.91 c -11.32,4.66 -23.64,6.39 -35.57,6.2 a 127.61,127.61 0 0 1 -17.7,-1.68 152.75,152.75 0 0 1 -17.11,-3.79 233.86,233.86 0 0 1 -32.37,-11.82 q -7.82,-3.46 -15.41,-7.28 -7.59,-3.82 -15,-8 c -9.88,-5.43 -19.48,-11.24 -29,-17.17 -9.52,-5.93 -18.77,-12.09 -28,-18.23 -9.23,-6.14 -18.4,-12.42 -27.52,-18.67 -9.12,-6.25 -18.26,-12.4 -27.5,-18.31 -4.61,-3 -9.24,-5.9 -13.93,-8.7 -4.69,-2.8 -9.4,-5.53 -14.22,-8 a 152,152 0 0 0 -14.67,-6.83 74.49,74.49 0 0 0 -15.29,-4.46 33.59,33.59 0 0 0 -15.57,0.68 24.44,24.44 0 0 0 -7.13,3.53 31.88,31.88 0 0 0 -5.96,5.69 z"
       id="path9" />
    <path
       d="m 51.21,218.49 a 30.76,30.76 0 0 1 10.13,-11.35 34.69,34.69 0 0 1 14.83,-5.22 61.24,61.24 0 0 1 15.71,0.26 112.87,112.87 0 0 1 15.17,3.3 c 4.94,1.43 9.78,3.12 14.55,4.93 4.77,1.81 9.44,3.84 14.06,5.92 9.23,4.2 18.25,8.72 27.11,13.47 17.76,9.43 34.95,19.59 52.18,29.45 q 12.86,7.49 25.8,14.65 c 8.6,4.81 17.3,9.38 26,13.78 17.46,8.69 35.31,16.49 53.58,21 a 102.64,102.64 0 0 0 27.34,3.19 q 3.37,-0.14 6.69,-0.55 a 65.21,65.21 0 0 0 6.54,-1.22 57.75,57.75 0 0 0 12.39,-4.64 c 1,-0.52 2,-1 3,-1.67 1,-0.67 2,-1.18 3,-1.84 2,-1.25 3.85,-2.58 5.65,-4 a 56.15,56.15 0 0 0 9.71,-9.37 49.34,49.34 0 0 0 6.8,-11.58 c 0.45,-1.05 0.83,-2.14 1.24,-3.22 0.41,-1.08 0.75,-2.2 1,-3.33 0.25,-1.13 0.65,-2.25 0.91,-3.41 0.26,-1.16 0.54,-2.31 0.77,-3.49 1.85,-9.4 2.52,-19.32 3.16,-29.25 0.64,-9.93 1.16,-19.94 2,-29.91 0.9,10 1.86,19.89 2.58,29.88 0.36,5 0.66,10 0.76,15.08 a 132.79,132.79 0 0 1 -0.42,15.35 73.52,73.52 0 0 1 -2.94,15.58 57,57 0 0 1 -7,14.8 67.79,67.79 0 0 1 -10.76,12.31 c -2,1.81 -4.09,3.5 -6.22,5.09 -1.05,0.83 -2.15,1.56 -3.23,2.32 -1.08,0.76 -2.22,1.51 -3.39,2.26 a 70.92,70.92 0 0 1 -31.28,10.19 110.85,110.85 0 0 1 -32,-2.16 q -7.74,-1.6 -15.23,-3.85 c -5,-1.53 -9.87,-3.22 -14.68,-5 -9.65,-3.63 -18.94,-7.9 -28.07,-12.38 -36.42,-18.11 -69.6,-40.6 -103.16,-61.55 l -12.63,-7.74 c -4.22,-2.55 -8.48,-5 -12.74,-7.43 -4.26,-2.43 -8.57,-4.74 -12.93,-6.94 -4.36,-2.2 -8.74,-4.3 -13.21,-6.14 a 108.79,108.79 0 0 0 -13.6,-4.77 59,59 0 0 0 -14,-2.21 32.26,32.26 0 0 0 -13.68,2.52 27.59,27.59 0 0 0 -6.19,3.7 37.05,37.05 0 0 0 -5.3,5.19 z"
       id="path11" />
    <path
       d="m 71.55,173.31 a 33.92,33.92 0 0 1 8,-10.1 32.26,32.26 0 0 1 11.7,-6.32 45.71,45.71 0 0 1 13.28,-1.9 73.26,73.26 0 0 1 13.23,1.18 111.17,111.17 0 0 1 12.78,3 c 4.19,1.21 8.3,2.62 12.34,4.16 8.1,3 15.93,6.59 23.63,10.32 15.37,7.52 30.16,15.87 44.74,24.33 L 233,210.73 q 10.85,6.34 21.7,12.48 10.85,6.14 21.85,11.71 c 7.33,3.7 14.73,7.11 22.18,10.11 3.73,1.48 7.48,2.82 11.24,4 a 103.18,103.18 0 0 0 11.26,2.88 c 7.47,1.4 14.91,1.78 21.59,0.2 a 30.67,30.67 0 0 0 4.85,-1.55 28.7,28.7 0 0 0 4.53,-2.27 29.86,29.86 0 0 0 4.17,-3 c 0.68,-0.54 1.29,-1.18 1.94,-1.77 0.65,-0.59 1.25,-1.26 1.82,-2 a 47.33,47.33 0 0 0 3.39,-4.31 l 3.32,-5 c 2.25,-3.5 4.53,-6.93 6.6,-10.43 a 112.83,112.83 0 0 0 5.72,-10.65 c 0.89,-1.81 1.63,-3.67 2.39,-5.54 0.76,-1.87 1.41,-3.78 2,-5.74 0.31,-1 0.61,-1.95 0.84,-2.94 0.23,-0.99 0.54,-2 0.77,-3 0.41,-2 0.89,-4 1.19,-6.09 0.3,-2.09 0.63,-4.13 0.91,-6.22 0.16,-1 0.23,-2.1 0.33,-3.15 0.1,-1.05 0.21,-2.11 0.32,-3.18 a 82.36,82.36 0 0 1 2,25.76 c -0.67,8.8 -3.27,17.5 -6.55,25.6 -1.69,4 -3.46,8 -5.34,11.82 l -1.4,2.86 -0.35,0.72 -0.41,0.77 -0.85,1.54 a 56.83,56.83 0 0 1 -3.92,6 c -0.7,1 -1.51,1.89 -2.29,2.83 -0.78,0.94 -1.63,1.83 -2.53,2.68 a 45.54,45.54 0 0 1 -19.23,11.39 57,57 0 0 1 -14.48,2.27 78.66,78.66 0 0 1 -14,-0.92 130.65,130.65 0 0 1 -26,-7 241,241 0 0 1 -23.94,-10.48 c -7.75,-3.81 -15.26,-7.94 -22.66,-12.19 -29.59,-17 -57.24,-36.18 -85.8,-53.18 -7.14,-4.24 -14.36,-8.27 -21.7,-12 a 153.42,153.42 0 0 0 -22.54,-9.39 c -7.68,-2.37 -15.67,-3.86 -23.53,-2.83 a 34.4,34.4 0 0 0 -5.78,1.33 30.23,30.23 0 0 0 -5.61,2.44 31.06,31.06 0 0 0 -5,3.55 46.27,46.27 0 0 0 -4.45,4.47 z"
       id="path13" />
    <path
       d="m 105.07,132.61 a 48.13,48.13 0 0 1 2.5,-4.14 33,33 0 0 1 3.1,-3.82 30.59,30.59 0 0 1 8,-6.14 31.86,31.86 0 0 1 4.78,-2 c 0.83,-0.25 1.65,-0.6 2.5,-0.76 l 2.55,-0.56 a 21.08,21.08 0 0 1 2.57,-0.38 c 0.86,-0.08 1.73,-0.23 2.59,-0.25 1.71,0 3.47,-0.17 5.16,0 a 79.87,79.87 0 0 1 19.89,3.69 c 1.6,0.48 3.16,1 4.74,1.55 1.58,0.55 3.09,1.16 4.64,1.74 3.06,1.22 6.1,2.47 9.05,3.86 5.93,2.74 11.71,5.7 17.34,8.85 5.63,3.15 11.16,6.41 16.61,9.73 5.45,3.32 10.8,6.78 16.14,10.17 l 15.87,10.3 q 7.87,5.17 15.77,10.13 c 5.23,3.36 10.53,6.55 15.84,9.62 10.61,6.1 21.45,11.67 32.52,15 a 51.55,51.55 0 0 0 16.53,2.4 l 2,-0.12 a 50.42,50.42 0 0 0 4,-0.63 c 0.64,-0.18 1.3,-0.34 2,-0.51 a 12.55,12.55 0 0 0 1.92,-0.64 c 0.63,-0.25 1.28,-0.46 1.91,-0.73 l 1.84,-0.93 0.93,-0.46 c 0.3,-0.17 0.59,-0.37 0.88,-0.56 a 45.87,45.87 0 0 0 12.67,-12.09 112.89,112.89 0 0 0 9.61,-16.18 76.76,76.76 0 0 1 -5.24,18.69 47.59,47.59 0 0 1 -11.68,16.69 c -0.33,0.3 -0.64,0.62 -1,0.9 l -1.08,0.8 -2.18,1.6 c -0.76,0.49 -1.55,0.93 -2.34,1.39 a 19.89,19.89 0 0 1 -2.41,1.28 l -2.51,1.11 c -0.84,0.38 -1.72,0.59 -2.59,0.88 -0.87,0.29 -1.74,0.6 -2.63,0.76 l -2.67,0.56 a 23.18,23.18 0 0 1 -2.68,0.41 q -1.34,0.16 -2.7,0.29 l -2.67,0.07 c -0.89,0 -1.8,0.06 -2.67,0 -1.76,-0.09 -3.55,-0.12 -5.27,-0.36 l -2.6,-0.31 c -0.86,-0.12 -1.7,-0.3 -2.55,-0.45 L 301.5,212.58 299,212 c -0.83,-0.2 -1.67,-0.38 -2.49,-0.61 l -2.44,-0.7 c -1.65,-0.44 -3.23,-1 -4.82,-1.54 -1.59,-0.54 -3.16,-1.12 -4.72,-1.71 a 185.44,185.44 0 0 1 -18,-8.13 c -5.83,-3 -11.44,-6.2 -17,-9.46 -5.56,-3.26 -10.94,-6.75 -16.3,-10.21 -5.36,-3.46 -10.61,-7 -15.85,-10.59 l -15.6,-10.68 c -10.35,-7.1 -20.67,-14.06 -31.22,-20.38 -2.65,-1.55 -5.29,-3.1 -8,-4.55 -2.71,-1.45 -5.39,-2.8 -8.1,-4.11 a 82.61,82.61 0 0 0 -16.74,-6 36.43,36.43 0 0 0 -17.22,-0.14 35.08,35.08 0 0 0 -15.43,9.42 z"
       id="path15" />
  </g>
  <metadata
     id="metadata836">
    <rdf:RDF>
      <cc:Work
         rdf:about="">
        <dc:title>vento_1</dc:title>
      </cc:Work>
    </rdf:RDF>
  </metadata>
</svg>
