<svg xmlns="http://www.w3.org/2000/svg" id="svg" width="448" height="448" version="1.1" viewBox="0 0 440 440">
    <defs id="defs4">
        <style id="style2">
            .cls-2{fill:#fff}
        </style>
    </defs>
    <g id="vento_2">
        <path id="quadrato_nero" d="M73.66 13.4h300.68a62.25 62.25 0 0 1 62.26 62.26v300.68a62.25 62.25 0 0 1-62.25 62.25H73.66a62.26 62.26 0 0 1-62.26-62.25V75.66A62.25 62.25 0 0 1 73.66 13.4Z" style="stroke-width:0;stroke-miterlimit:10;stroke-dasharray:none;stroke:#fff"/>
        <path id="path9" d="M54.71 264.65a35.83 35.83 0 0 1 9.93-7 41.71 41.71 0 0 1 12-3.51c8.34-1.2 16.81-.26 24.9 1.51A142.41 142.41 0 0 1 125 263.3c3.79 1.55 7.49 3.27 11.16 5s7.29 3.6 10.85 5.54c3.56 1.94 7.1 3.9 10.59 5.92s6.93 4.13 10.36 6.24c6.87 4.2 13.56 8.63 20.23 13.07 6.67 4.44 13.19 9.06 19.72 13.62l19.4 13.91 19.23 14c6.37 4.69 12.81 9.25 19.21 13.84s12.87 9 19.35 13.44c6.48 4.44 13 8.52 19.68 12.32a163.43 163.43 0 0 0 20.53 10.05 78 78 0 0 0 21.59 5.5 43.51 43.51 0 0 0 21.68-3.27c6.91-3 13.12-8 18.45-14a53.59 53.59 0 0 1-3.1 5.17 52.63 52.63 0 0 1-3.68 4.87 44.93 44.93 0 0 1-9.28 8.28 44.14 44.14 0 0 1-11.51 5.47 52.73 52.73 0 0 1-12.67 2.19 80.41 80.41 0 0 1-25.13-3.13 123 123 0 0 1-11.87-3.89c-3.87-1.48-7.7-3-11.41-4.81-3.71-1.81-7.38-3.58-11-5.48-3.62-1.9-7.14-4-10.64-6-7-4.06-13.78-8.37-20.52-12.74-6.74-4.37-13.33-8.92-19.92-13.45-6.59-4.53-13-9.24-19.5-13.87L178.41 313c-12.74-9.32-25.53-18.48-38.6-27-3.28-2.11-6.56-4.22-9.88-6.24-3.32-2.02-6.68-4-10.06-5.85A159.84 159.84 0 0 0 99 264.06a71 71 0 0 0-22.12-5 41.74 41.74 0 0 0-11.35 1.08 38.18 38.18 0 0 0-10.82 4.51z" class="cls-2"/>
        <path id="path11" d="M56.29 204.34a26.08 26.08 0 0 1 7.42-4.86 37.39 37.39 0 0 1 4.22-1.6c1.45-.43 2.91-.78 4.4-1.07a72.42 72.42 0 0 1 18-1c12 .72 23.72 3.29 35.12 6.58q8.55 2.49 16.9 5.54 4.17 1.52 8.31 3.13 4.14 1.61 8.2 3.37 8.17 3.44 16.15 7.27c5.32 2.55 10.61 5.15 15.81 7.93a460.69 460.69 0 0 1 60 37.57c4.75 3.56 9.46 7.19 14 11l6.69 5.64 6.65 5.52c8.89 7.32 17.88 14.47 27 21.28a244.27 244.27 0 0 0 28.05 18.5 66.09 66.09 0 0 0 14.14 6 31.61 31.61 0 0 0 3.41.68 29.79 29.79 0 0 0 3.44.3 24.95 24.95 0 0 0 18.25-6.87 37.56 37.56 0 0 0 8.34-11.7 46 46 0 0 0 4.08-14.34c.54-4.91.22-9.84-1.36-13.7a23.29 23.29 0 0 0-8.42-10.23 36 36 0 0 0-13.46-5.65c-9.8-2-20.63-.44-28.5 5.16a28.58 28.58 0 0 0-2.79 2.28c-.45.4-.85.84-1.29 1.26-.44.42-.86.85-1.26 1.28a12.57 12.57 0 0 0-3 4.78 3.11 3.11 0 0 0 0 1.74 5.47 5.47 0 0 0 1.32 2.08 18.68 18.68 0 0 0 6 3.87 45.15 45.15 0 0 0 7.72 2.56 61.39 61.39 0 0 0 8.27 1.48 49.14 49.14 0 0 0 8.45.2 16.58 16.58 0 0 0 4.1-.76 5.49 5.49 0 0 0 1.77-1 2.08 2.08 0 0 0 .75-1.84 2.38 2.38 0 0 1-.3 2.22 5.74 5.74 0 0 1-1.71 1.6 18.11 18.11 0 0 1-4.18 1.88 42 42 0 0 1-8.88 1.71 54.85 54.85 0 0 1-18.33-1.11 26.72 26.72 0 0 1-9.33-4.16 14.37 14.37 0 0 1-4.11-4.65 12.84 12.84 0 0 1-1.53-6.73 17.2 17.2 0 0 1 1.48-6.07 27.64 27.64 0 0 1 2.73-4.74c.5-.7 1-1.39 1.55-2 .55-.61 1.13-1.27 1.74-1.87a40.19 40.19 0 0 1 3.82-3.38 44.51 44.51 0 0 1 18.21-8.21 53.27 53.27 0 0 1 19.67-.31 49.16 49.16 0 0 1 18.68 7.18 39.43 39.43 0 0 1 8 6.84 34.6 34.6 0 0 1 5.82 9.08 36.94 36.94 0 0 1 2.74 10.38 51.08 51.08 0 0 1 .16 10.15 60.78 60.78 0 0 1-4.85 19.18 52.48 52.48 0 0 1-11.43 16.73 41.15 41.15 0 0 1-18.51 10.43 41.6 41.6 0 0 1-10.61 1.32 45.84 45.84 0 0 1-5.25-.34 47.47 47.47 0 0 1-5.15-.9 62.3 62.3 0 0 1-9.51-3.15c-3-1.23-5.79-2.59-8.54-4a259.76 259.76 0 0 1-30.41-19.33c-9.59-6.94-18.84-14.19-28-21.54l-13.52-11c-4.39-3.52-8.87-7-13.46-10.34q-3.44-2.52-6.93-5-3.49-2.48-7-4.92c-4.69-3.25-9.47-6.39-14.25-9.52-4.78-3.13-9.61-6.2-14.49-9.19-4.88-2.99-9.76-6-14.7-8.87-4.94-2.87-9.9-5.74-14.91-8.5s-10.05-5.46-15.13-8.09q-3.81-2-7.66-3.85t-7.71-3.74c-5.17-2.42-10.37-4.76-15.63-6.94-5.26-2.18-10.57-4.24-16-6a151.17 151.17 0 0 0-16.34-4.59 76.92 76.92 0 0 0-16.75-1.94 44.06 44.06 0 0 0-8.4.9 28.25 28.25 0 0 0-7.97 3z" class="cls-2"/>
        <path id="path13" d="M63.63 151.66a22.62 22.62 0 0 1 6.32-7 32.7 32.7 0 0 1 8.75-4.34 48.62 48.62 0 0 1 9.58-2 72.44 72.44 0 0 1 9.68-.31c12.87.47 25.28 3.43 37.21 7.22 3 .94 5.94 2 8.87 3.05 2.93 1.05 5.85 2.18 8.73 3.36 5.75 2.39 11.46 4.85 17 7.57q4.19 2 8.34 4.11c2.76 1.41 5.48 2.88 8.2 4.34 5.45 2.92 10.8 6 16.09 9.2 2.66 1.59 5.27 3.18 7.9 4.86 2.63 1.68 5.39 3.43 8 5.23 5.23 3.6 10.24 7.4 15.11 11.27 9.73 7.72 18.86 15.78 28.2 22.61a98.06 98.06 0 0 0 14.2 8.82 46 46 0 0 0 14.67 4.56 37.93 37.93 0 0 0 7.48.18c1.26-.08 2.5-.25 3.78-.45 1.43-.24 2.86-.49 4.22-.76a49.93 49.93 0 0 0 7.52-2 21.57 21.57 0 0 0 5.8-3.15c3.4-2.57 6.34-6.81 9-11.67 1.31-2.43 2.54-5 3.71-7.65l.87-2 .36-.86c.1-.25.22-.51.3-.78a25.75 25.75 0 0 0 1-3.39 54.14 54.14 0 0 0 .78-15.79 95.49 95.49 0 0 0-2.88-16.6c-.36-1.36-.75-2.71-1.17-4l-.15-.5-.14-.35-.26-.71c-.24-.46-.4-.94-.68-1.4a21.1 21.1 0 0 0-4.13-5.32 37.48 37.48 0 0 0-13-7.78 43.94 43.94 0 0 0-15.32-2.76 31.61 31.61 0 0 0-7.42.86c-.59.14-1.17.29-1.73.48s-1.09.35-1.62.56a25.27 25.27 0 0 0-3.2 1.57 33.39 33.39 0 0 0-10.87 10.18 23.14 23.14 0 0 0-3 6.37 18.73 18.73 0 0 0-.6 3.27l-.05.82V172.61l.06.49a39.49 39.49 0 0 0 4.74 14.9 26.44 26.44 0 0 0 10.17 10.49 26 26 0 0 0 14.39 2.93l2-.18 2-.29c1.25-.22 2.92-.59 3.35-.61a3.3 3.3 0 0 0 1.42-.58 3.46 3.46 0 0 0 1.08-1.84 16.1 16.1 0 0 0-.08-7.15 36.57 36.57 0 0 0-2.63-7.94 33 33 0 0 0-4.47-7.4 15.57 15.57 0 0 0-6.9-5.38 11.2 11.2 0 0 1 4.65.88 21.07 21.07 0 0 1 4.27 2.3 37.13 37.13 0 0 1 7.09 6.66 38.28 38.28 0 0 1 5.26 8.47 29.94 29.94 0 0 1 1.72 5 19.43 19.43 0 0 1 .56 5.8 13.91 13.91 0 0 1-2 6.63 13.31 13.31 0 0 1-5.7 4.93 14.2 14.2 0 0 1-3 1c-.83.18-1.64.4-2.48.55l-2.53.43-2.58.3a40.93 40.93 0 0 1-10.61-.38 36.07 36.07 0 0 1-10.37-3.46A38.55 38.55 0 0 1 263 194.24a52.16 52.16 0 0 1-6.61-19.6l-.09-.64-.07-.72c0-.49-.1-1-.11-1.46V168.89a31.83 31.83 0 0 1 .85-5.73 36.41 36.41 0 0 1 4.35-10.27 46.24 46.24 0 0 1 15.12-15 39.33 39.33 0 0 1 4.93-2.56 28.21 28.21 0 0 1 2.67-1c.88-.31 1.77-.55 2.65-.78a45.8 45.8 0 0 1 10.65-1.43 58.31 58.31 0 0 1 20.47 3.34 52.06 52.06 0 0 1 18.24 10.7 36 36 0 0 1 7.11 9c.51.85.9 1.79 1.34 2.69l.56 1.42.27.71.2.59q.81 2.35 1.49 4.7a110.78 110.78 0 0 1 3.8 19.24 69.59 69.59 0 0 1-.63 20.56 41.87 41.87 0 0 1-1.44 5.41c-.14.45-.32.91-.49 1.36-.17.45-.35.92-.5 1.25l-.93 2.2c-1.27 2.93-2.63 5.87-4.18 8.81a71.27 71.27 0 0 1-5.42 8.8 42 42 0 0 1-7.79 8.19 38.21 38.21 0 0 1-10.1 5.67 65.92 65.92 0 0 1-10.06 2.83c-1.62.34-3.19.62-4.75.9-1.73.28-3.49.55-5.27.68a54.78 54.78 0 0 1-10.74-.15 63 63 0 0 1-20.12-6 110.85 110.85 0 0 1-16.88-10.24c-10.36-7.5-19.53-15.54-28.92-22.87-4.68-3.68-9.39-7.2-14.21-10.48q-3.61-2.45-7.3-4.71l-7.75-4.54c-20.76-12-41.78-23.52-63.4-33.23-10.83-4.74-21.83-9.11-33.14-11.71a61.42 61.42 0 0 0-17.09-1.73 28.65 28.65 0 0 0-8.41 1.69 23.47 23.47 0 0 0-4 1.84 28.74 28.74 0 0 0-3.67 2.62z" class="cls-2"/>
        <path id="path15" d="M63.63 105.62a41.49 41.49 0 0 1 9-9.44 35.32 35.32 0 0 1 12.38-6 41.61 41.61 0 0 1 7-1.13 48.48 48.48 0 0 1 7 0 59.17 59.17 0 0 1 6.83.94q3.35.63 6.56 1.54 3.21.91 6.32 1.93c2.06.71 4.09 1.46 6.1 2.23 4 1.5 7.9 3.24 11.76 4.89 3.86 1.65 7.61 3.47 11.38 5.2l11.18 5.3 11.1 5.29c3.61 1.64 7.26 3.16 10.94 4.52a114.38 114.38 0 0 0 22.37 6 70.37 70.37 0 0 0 22.21.17 56.18 56.18 0 0 0 10.49-2.78 29.17 29.17 0 0 0 4.49-2 22.93 22.93 0 0 0 3.73-2.66c4.58-4 7.43-10.16 8.44-17.11a52.77 52.77 0 0 0-1.61-21.53c-2-7-5.45-13.84-10-17A17 17 0 0 0 233 61a23.79 23.79 0 0 0-9.61 1.17A33.14 33.14 0 0 0 207 74.45a32.62 32.62 0 0 0-4.66 9.43c-.92 3.32-1.8 7.15-1.64 9.92a8.23 8.23 0 0 0 .27 1.78 3.78 3.78 0 0 0 .51 1.14 2.77 2.77 0 0 0 1 .83 5.62 5.62 0 0 0 1.79.57 15.64 15.64 0 0 0 5-.17 32.82 32.82 0 0 0 5.51-1.46 50.52 50.52 0 0 0 10.7-5.27 29.94 29.94 0 0 0 4.71-3.73 10 10 0 0 0 1.78-2.35 2.78 2.78 0 0 0 .13-2.81 2.5 2.5 0 0 1 .78 1.42 4.29 4.29 0 0 1-.05 1.69 11.21 11.21 0 0 1-1.26 3.07 27.73 27.73 0 0 1-4 5.21 48.24 48.24 0 0 1-10.25 8.18 39.51 39.51 0 0 1-6.13 3 23.1 23.1 0 0 1-7.29 1.53 14.56 14.56 0 0 1-4.33-.5 11.82 11.82 0 0 1-4.39-2.3 12.86 12.86 0 0 1-3.11-3.89 17.26 17.26 0 0 1-1.52-4.19 27.91 27.91 0 0 1-.55-7.69 33.31 33.31 0 0 1 1.12-7.08 44.54 44.54 0 0 1 5.77-13.13 45.63 45.63 0 0 1 22.23-17.89A37.13 37.13 0 0 1 234 47.41a30.39 30.39 0 0 1 15.11 5 31.28 31.28 0 0 1 6.06 5.27 41.81 41.81 0 0 1 4.45 6.08 59.88 59.88 0 0 1 5.78 13 66.18 66.18 0 0 1 2.76 27.84 48.84 48.84 0 0 1-3.93 14.25 38.47 38.47 0 0 1-15.32 17.35 46.15 46.15 0 0 1-6.79 3.3 72.59 72.59 0 0 1-13.52 3.9 87.1 87.1 0 0 1-27.51.45 128.59 128.59 0 0 1-25.89-6.5c-4.14-1.47-8.2-3.11-12.19-4.86a820.04 820.04 0 0 1-11.57-5.17c-3.83-1.75-7.56-3.69-11.31-5.55l-11-5.77c-7.27-3.9-14.42-7.76-21.5-11.05-7.08-3.29-14.13-5.78-21.46-5.93A34.94 34.94 0 0 0 75 100.64a66.78 66.78 0 0 0-11.37 4.98Z" class="cls-2"/>
    </g>
</svg>
