<?xml version="1.0" encoding="iso-8859-1"?>
<!-- Generator: Adobe Illustrator 18.1.0, SVG Export Plug-In . SVG Version: 6.00 Build 0)  -->
<svg version="1.1" id="Livello_3" xmlns="http://www.w3.org/2000/svg" xmlns:xlink="http://www.w3.org/1999/xlink" x="0px" y="0px"
	 viewBox="0 0 300 300" style="enable-background:new 0 0 300 300;" xml:space="preserve">
<path style="fill:#009444;" d="M204.288,109.532c-0.33,2.302-0.617,4.611-0.997,6.905c-4.26,25.766-17.44,45.674-39.354,59.827
	c-1.49,0.962-3.05,1.814-4.715,2.798c-1.628-3.01-3.182-5.882-4.758-8.797c23.707-13.806,36.913-34.245,39.689-61.72
	c-6.285,0-12.282,0-18.376,0c0-3.401,0-6.615,0-10.018c6.005,0,12.003,0,18.002,0c-0.717-31.147-26.772-66.7-68.293-70.344
	C79.111,24.114,44.964,60.492,43.19,98.411c5.992,0,11.98,0,18.097,0c0,3.442,0,6.688,0,10.116c-9.531,0-19.004,0-28.478,0
	c0-3.684,0-7.368,0-11.052c0.364-2.697,0.644-5.408,1.105-8.089c2.971-17.275,10.416-32.35,22.54-45.019
	c12.913-13.494,28.578-21.989,47.002-25.275c3.004-0.536,6.041-0.89,9.063-1.328c4.019,0,8.038,0,12.057,0
	c0.483,0.109,0.961,0.281,1.449,0.318c7.881,0.6,15.574,2.195,22.87,5.184c29.614,12.132,47.8,33.824,54.079,65.309
	c0.586,2.937,0.882,5.932,1.313,8.899C204.288,101.494,204.288,105.513,204.288,109.532z"/>
<path style="fill:#009444;" d="M107.161,189.243c0-18.562,0-37.123,0-55.774c3.405,0,6.615,0,9.986,0c0,7.273,0,14.497,0,21.861
	c5.527,0,10.894,0,16.415,0c0-7.242,0-14.473,0-21.826c3.403,0,6.655,0,10.105,0c0,18.616,0,37.178,0,55.739
	c-3.349,0-6.698,0-10.048,0c0-7.83,0-15.66,0-23.491c-5.601,0-10.923,0-16.411,0c0,7.91,0,15.7,0,23.491
	C113.86,189.243,110.511,189.243,107.161,189.243z"/>
<path style="fill:#009444;" d="M64.292,189.243c0.062-2.394,0.045-4.794,0.226-7.179c0.065-0.862,0.434-1.816,0.955-2.51
	c5.622-7.49,11.353-14.899,16.927-22.424c1.241-1.676,2.155-3.653,2.92-5.608c1.282-3.277-0.234-6.661-3.38-8.066
	c-3.103-1.386-6.883-0.094-8.505,2.925c-0.286,0.532-0.491,1.106-0.804,1.821c-3.217-0.631-6.417-1.26-9.79-1.922
	c1.3-5.615,4.402-9.587,9.459-11.955c6.111-2.862,13.244-1.66,18.18,2.943c5.099,4.756,6.905,11.799,4.363,18.19
	c-1.019,2.561-2.441,5.016-4.008,7.294c-3.444,5.006-7.098,9.869-10.665,14.791c-0.318,0.439-0.624,0.887-1.152,1.638
	c3.179,0,6.047,0,8.915,0c2.844,0,5.687,0,8.845,0c0,3.418,0,6.739,0,10.06C85.95,189.243,75.121,189.243,64.292,189.243z"/>
<path style="fill:#009444;" d="M32.809,133.647c6.52,0,13.039,0,19.76,0c0,18.587,0,37.092,0,55.597c-3.349,0-6.698,0-10.048,0
	c0-15.15,0-30.3,0-45.549c-3.372,0-6.542,0-9.713,0C32.809,140.345,32.809,136.996,32.809,133.647z"/>
<path style="fill:#009444;" d="M137.92,60.899c-1.902,1.864-3.852,3.776-5.804,5.686c-0.356,0.349-0.72,0.69-1.068,1.022
	c-2.312-2.363-4.596-4.698-6.88-7.033c-0.149,0.097-0.298,0.194-0.447,0.292c0,8.47,0,16.94,0,25.418
	c9.422,3.163,14.014,11.914,12.438,20.507c-1.556,8.481-8.933,14.552-17.527,14.645c-8.513,0.092-16.146-6.134-17.701-14.646
	c-1.572-8.606,3.02-17.33,12.516-20.53c0-8.437,0-16.889,0-25.73c-2.447,2.622-4.669,5.002-6.785,7.268
	c-2.613-2.62-4.925-4.938-7.106-7.125c6.264-6.264,12.714-12.714,19.082-19.081C124.891,47.853,131.306,54.276,137.92,60.899z
	 M118.683,95.739c-4.379-0.04-7.831,3.258-7.899,7.545c-0.071,4.462,3.256,7.943,7.63,7.984c4.447,0.041,7.885-3.315,7.902-7.715
	C126.331,99.195,122.995,95.779,118.683,95.739z"/>
<path style="fill:#009444;" d="M117.905,233.033c-3.626-9.166-2.301-17.198,5.452-23.344c6.511-5.162,13.699-4.998,20.995-1.224
	c4.375-12.7,12.928-19.591,26.616-18.584c9.562,0.703,19.421,8.112,21.595,21.282c6.376-1.045,12.166,0.236,16.961,4.835
	c4.793,4.598,6.423,10.267,5.572,17.035c2.519,0,4.971,0.045,7.421-0.013c2.446-0.058,4.558,0.726,6.365,2.325
	c2.903,2.568,4.111,5.768,3.189,9.572c-0.929,3.836-3.401,6.291-7.241,7.253c-1.083,0.271-2.24,0.349-3.363,0.35
	c-35.457,0.018-70.914,0.017-106.371,0.014c-6.191-0.001-10.596-3.798-10.889-9.362c-0.289-5.48,4.14-10.135,9.645-10.136
	C115.135,233.033,116.416,233.033,117.905,233.033z"/>
<g id="goccia_x5F_flat_x5F_DX_1_">
	<path id="goccia_x5F_intermedia_1_" style="fill:#009444;" d="M201.165,257.04c0,0,1.292,21.346-0.79,26.597
		c-1.682,4.243-5.841,6.979-11.233,5.732c-5.694-1.318-10.699-6.322-7.985-14.368C183.935,266.767,201.165,257.04,201.165,257.04z"
		/>
</g>
<path style="fill:#009444;" d="M251.277,248.551c5.103,0,9.923,0,15.12,0c-7.006,13.384-13.893,26.54-20.779,39.696
	c-0.106-0.025-0.212-0.049-0.317-0.074c2.872-10.622,5.744-21.243,8.7-32.174c-5.029,0-9.868,0-15.147,0
	c7.077-13.099,13.952-25.822,20.826-38.544c0.102,0.029,0.204,0.058,0.306,0.087C257.11,227.781,254.234,238.02,251.277,248.551z"/>
<g id="goccia_x5F_flat_x5F_DX_2_">
	<path id="goccia_x5F_intermedia_2_" style="fill:#009444;" d="M172.906,256.69c0,0,0.996,16.46-0.609,20.509
		c-1.297,3.272-4.504,5.382-8.662,4.42c-4.391-1.016-8.25-4.875-6.157-11.079C159.62,264.191,172.906,256.69,172.906,256.69z"/>
</g>
<g>
	<path style="fill:#009444;" d="M233.572,170.528c10.024,0.441,18.991,7.096,22.24,18.331c5.923-0.177,11.109,2.076,14.782,5.767
		c2.167-3.886,3.406-8.36,3.406-13.125c0-14.912-12.088-27-27-27c-11.844,0-21.899,7.629-25.539,18.239
		C224.971,171.099,228.998,170.326,233.572,170.528z"/>
	<path style="fill:#009444;" d="M278.224,212.39c-1.638-0.252-3.317-0.23-4.964-0.334c-0.196-10.786-8.957-19.541-20.447-19.198
		c-3.249-11.235-12.216-17.89-22.24-18.331c-11.355-0.5-19.397,4.905-24.292,15.076c-7.079-2.152-13.561-1.225-19.142,3.514
		c0.813,0.746,1.581,1.556,2.314,2.411c0.151-0.126,0.289-0.256,0.445-0.38c5.671-4.499,11.932-4.356,18.287-1.067
		c3.811-11.07,11.261-17.077,23.183-16.2c8.329,0.613,16.916,7.071,18.81,18.551c5.553-0.911,10.597,0.206,14.773,4.214
		c4.175,4.008,5.595,8.95,4.854,14.849c2.194,0,4.33,0.039,6.464-0.011c2.13-0.051,3.97,0.632,5.544,2.026
		c2.529,2.238,3.58,5.028,2.778,8.344c-0.809,3.344-2.963,5.484-6.307,6.322c-0.944,0.237-1.951,0.304-2.929,0.305
		c-14.65,0.007-29.3,0.004-43.951,0.006c1.061,0.901,1.968,1.961,2.696,3.141c14.125-0.002,28.25,0.001,42.375-0.003
		c6.177-0.002,11.074-4.594,11.575-10.798C288.542,218.723,284.319,213.326,278.224,212.39z"/>
	<path style="fill:#009444;" d="M283.827,169.599c2.088-0.49,4.174-0.987,6.264-1.468c1.143-0.263,1.783,0.032,1.942,0.902
		c0.189,1.031-0.467,1.398-1.316,1.597c-4.176,0.978-8.353,1.954-12.527,2.94c-0.887,0.21-1.682,0.222-1.992-0.851
		c-0.241-0.833,0.222-1.378,1.366-1.649C279.65,170.576,281.739,170.089,283.827,169.599z"/>
	<path style="fill:#009444;" d="M288.899,197.838c-0.543-0.121-0.918-0.15-1.248-0.288c-3.989-1.664-7.968-3.351-11.958-5.012
		c-0.842-0.351-1.384-0.89-1.022-1.808c0.363-0.918,1.139-0.945,1.969-0.596c4.088,1.717,8.189,3.405,12.25,5.184
		c0.423,0.185,0.797,0.892,0.843,1.388C289.765,197.054,289.199,197.457,288.899,197.838z"/>
	<path style="fill:#009444;" d="M278.053,145.578c-0.228,0.516-0.321,0.975-0.586,1.286c-2.902,3.402-5.82,6.79-8.762,10.158
		c-0.516,0.59-1.251,0.814-1.898,0.232c-0.621-0.56-0.58-1.275-0.034-1.912c2.911-3.392,5.813-6.794,8.772-10.143
		c0.304-0.345,0.979-0.512,1.47-0.49C277.343,144.725,277.65,145.221,278.053,145.578z"/>
	<path style="fill:#009444;" d="M248.995,149.602c0.029-0.716,0.03-1.131,0.064-1.543c0.344-4.161,0.691-8.322,1.044-12.483
		c0.094-1.111,0.595-1.634,1.537-1.5c0.956,0.136,1.117,0.851,1.046,1.683c-0.37,4.348-0.745,8.696-1.088,13.046
		c-0.066,0.833-0.427,1.45-1.235,1.453C249.875,150.261,249.386,149.803,248.995,149.602z"/>
	<path style="fill:#009444;" d="M223.391,141.646c0.231-0.334,0.434-0.898,0.832-1.14c0.653-0.396,1.329-0.181,1.751,0.499
		c0.972,1.567,1.928,3.143,2.882,4.722c1.264,2.094,2.519,4.193,3.778,6.29c0.097,0.161,0.203,0.318,0.283,0.488
		c0.356,0.756,0.44,1.473-0.428,1.945c-0.829,0.451-1.379-0.039-1.779-0.673c-1.064-1.687-2.085-3.401-3.118-5.107
		c-1.208-1.996-2.412-3.994-3.616-5.992C223.821,142.421,223.68,142.156,223.391,141.646z"/>
	<path style="fill:#009444;" d="M274,165c-0.423-0.251-1.115-0.426-1.252-0.803c-0.162-0.447-0.035-1.349,0.292-1.566
		c1.999-1.334,4.067-2.573,6.176-3.727c0.334-0.183,1.24,0.075,1.436,0.399c0.233,0.385,0.195,1.37-0.088,1.563
		C278.491,162.279,276.327,163.559,274,165z"/>
	<path style="fill:#009444;" d="M218.08,155.112c0.167-0.314,0.294-0.921,0.653-1.13c0.371-0.216,1.133-0.255,1.436-0.012
		c1.843,1.476,3.641,3.015,5.354,4.638c0.302,0.286,0.356,1.226,0.113,1.581c-0.232,0.339-1.233,0.602-1.5,0.392
		c-1.977-1.544-3.857-3.213-5.759-4.853C218.274,155.64,218.245,155.464,218.08,155.112z"/>
	<path style="fill:#009444;" d="M286.103,181.815c0.31,1.21-0.262,2.022-1.174,1.962c-2.366-0.155-4.732-0.357-7.081-0.666
		c-0.381-0.05-0.967-0.772-0.936-1.14c0.038-0.45,0.599-0.881,0.992-1.26c0.12-0.116,0.432-0.059,0.653-0.041
		c2.102,0.171,4.207,0.313,6.301,0.556C285.368,181.285,285.839,181.684,286.103,181.815z"/>
	<path style="fill:#009444;" d="M263.531,144.447c-0.109,0.563-0.121,0.939-0.254,1.265c-0.769,1.883-1.561,3.757-2.359,5.628
		c-0.345,0.809-0.785,1.527-1.856,1.119c-0.796-0.303-0.979-1.04-0.537-2.108c0.791-1.914,1.547-3.847,2.435-5.715
		c0.208-0.437,0.859-0.827,1.359-0.907C262.67,143.673,263.111,144.18,263.531,144.447z"/>
	<path style="fill:#009444;" d="M241.189,146.17c0.25,1.063,0.495,2.127,0.751,3.189c0.204,0.849-0.096,1.406-0.956,1.59
		c-0.826,0.177-1.295-0.266-1.478-1.018c-0.525-2.159-1.02-4.325-1.534-6.487c-0.199-0.836,0.094-1.483,0.906-1.665
		c0.794-0.178,1.361,0.216,1.541,1.091c0.228,1.106,0.509,2.201,0.768,3.301C241.186,146.17,241.187,146.17,241.189,146.17z"/>
</g>
<path style="fill:#009444;" d="M132.721,282.076c0,0.398,0,0.796,0,1.195c0.001,1.045,0.006,2.089,0.001,3.134
	c-0.003,0.554-0.38,0.959-0.945,1.043c-0.639,0.095-1.179-0.138-1.395-0.62c-0.057-0.128-0.068-0.276-0.068-0.414
	c-0.005-1.335-0.003-2.67-0.003-4.005c0-0.115,0-0.23,0-0.44c-0.134,0.135-0.204,0.197-0.263,0.266
	c-0.532,0.619-1.059,1.241-1.592,1.86c-0.468,0.543-1.178,0.68-1.77,0.348c-0.582-0.327-0.678-0.928-0.22-1.469
	c1.218-1.438,2.444-2.872,3.657-4.313c0.1-0.119,0.179-0.277,0.18-0.418c0.012-1.737,0.008-3.473,0.007-5.21
	c0-0.055-0.011-0.11-0.022-0.222c-0.684,0.315-1.324,0.606-1.96,0.904c-1.245,0.583-2.494,1.16-3.725,1.762
	c-0.228,0.112-0.439,0.304-0.556,0.499c-0.9,1.504-1.774,3.018-2.658,4.529c-0.312,0.534-0.736,0.776-1.293,0.742
	c-0.872-0.054-1.364-0.757-0.984-1.432c0.404-0.718,0.831-1.427,1.247-2.141c0.035-0.06,0.06-0.124,0.138-0.287
	c-0.761,0.354-1.418,0.66-2.076,0.966c-0.882,0.411-1.761,0.826-2.646,1.232c-0.713,0.328-1.425,0.202-1.771-0.302
	c-0.353-0.514-0.119-1.076,0.58-1.401c1.398-0.651,2.794-1.304,4.19-1.957c0.136-0.064,0.265-0.136,0.488-0.252
	c-0.276-0.028-0.454-0.052-0.633-0.064c-0.87-0.054-1.741-0.094-2.61-0.159c-0.775-0.059-1.225-0.496-1.168-1.097
	c0.05-0.527,0.615-0.911,1.347-0.867c1.971,0.119,3.942,0.244,5.911,0.392c0.583,0.044,1.09-0.001,1.612-0.256
	c1.655-0.807,3.339-1.574,5.011-2.357c0.098-0.046,0.188-0.102,0.333-0.18c-0.678-0.317-1.316-0.616-1.954-0.915
	c-1.245-0.583-2.486-1.174-3.74-1.744c-0.199-0.09-0.464-0.14-0.691-0.127c-2.175,0.128-4.348,0.275-6.522,0.412
	c-0.666,0.042-1.257-0.358-1.306-0.871c-0.058-0.602,0.417-1.048,1.164-1.095c1.043-0.066,2.086-0.134,3.269-0.21
	c-0.197-0.107-0.288-0.163-0.386-0.209c-1.459-0.683-2.919-1.365-4.379-2.047c-0.472-0.22-0.726-0.544-0.663-0.991
	c0.058-0.411,0.343-0.693,0.833-0.824c0.404-0.108,0.764-0.016,1.12,0.152c1.444,0.681,2.894,1.354,4.343,2.029
	c0.083,0.039,0.168,0.073,0.366,0.157c-0.274-0.474-0.497-0.863-0.723-1.25c-0.218-0.373-0.445-0.741-0.657-1.116
	c-0.338-0.598-0.117-1.154,0.548-1.403c0.649-0.243,1.29-0.026,1.638,0.564c0.908,1.541,1.802,3.087,2.726,4.621
	c0.124,0.206,0.351,0.408,0.594,0.524c1.776,0.851,3.567,1.679,5.355,2.514c0.074,0.034,0.156,0.057,0.275,0.1
	c0.014-0.108,0.035-0.194,0.035-0.28c0.002-1.666,0.01-3.331-0.009-4.997c-0.002-0.207-0.096-0.442-0.239-0.613
	c-1.188-1.426-2.399-2.84-3.6-4.259c-0.364-0.43-0.386-0.865-0.071-1.216c0.49-0.547,1.477-0.549,1.973,0.012
	c0.576,0.652,1.128,1.317,1.692,1.976c0.055,0.064,0.117,0.124,0.257,0.271c0-0.229,0-0.364,0-0.499c0-1.323-0.001-2.646,0-3.969
	c0.001-0.607,0.479-1.049,1.159-1.075c0.682-0.027,1.232,0.412,1.241,1.043c0.018,1.35,0.007,2.7,0.008,4.05
	c0,0.114,0,0.229,0.082,0.368c0.392-0.458,0.783-0.916,1.175-1.374c0.207-0.242,0.409-0.488,0.62-0.728
	c0.444-0.504,1.177-0.63,1.751-0.303c0.564,0.321,0.674,0.898,0.244,1.407c-1.223,1.451-2.456,2.895-3.68,4.345
	c-0.087,0.103-0.185,0.23-0.186,0.346c-0.012,1.821-0.008,3.643-0.008,5.532c0.487-0.227,0.918-0.428,1.35-0.63
	c1.472-0.689,2.947-1.373,4.411-2.074c0.185-0.088,0.358-0.243,0.451-0.4c0.928-1.558,1.837-3.123,2.753-4.686
	c0.351-0.599,1.014-0.818,1.682-0.56c0.645,0.249,0.845,0.818,0.496,1.417c-0.437,0.751-0.875,1.502-1.251,2.305
	c0.797-0.371,1.594-0.742,2.39-1.115c0.755-0.353,1.506-0.711,2.264-1.059c0.687-0.316,1.393-0.186,1.746,0.308
	c0.361,0.506,0.165,1.054-0.523,1.381c-1.391,0.661-2.792,1.31-4.188,1.964c-0.15,0.07-0.299,0.141-0.446,0.287
	c0.649,0.046,1.298,0.094,1.948,0.138c0.435,0.03,0.871,0.045,1.304,0.084c0.666,0.059,1.134,0.53,1.072,1.061
	c-0.064,0.545-0.65,0.943-1.328,0.899c-2.202-0.143-4.405-0.29-6.608-0.428c-0.148-0.009-0.322,0.019-0.45,0.078
	c-1.891,0.875-3.777,1.759-5.663,2.641c-0.048,0.022-0.085,0.06-0.153,0.109c1.516,0.71,3.011,1.41,4.507,2.11
	c0.302,0.141,0.624,0.261,0.901,0.43c0.418,0.254,0.869,0.273,1.361,0.238c1.998-0.143,3.998-0.273,5.996-0.408
	c0.555-0.038,1.015,0.101,1.29,0.508c0.235,0.348,0.205,0.706-0.071,1.038c-0.271,0.326-0.689,0.406-1.139,0.432
	c-0.885,0.05-1.769,0.103-2.654,0.157c-0.099,0.006-0.196,0.028-0.408,0.059c0.193,0.097,0.302,0.155,0.415,0.208
	c1.446,0.678,2.892,1.355,4.338,2.032c0.473,0.222,0.717,0.553,0.659,0.996c-0.056,0.427-0.446,0.785-0.981,0.832
	c-0.293,0.026-0.642-0.036-0.902-0.153c-1.411-0.632-2.802-1.294-4.2-1.945c-0.159-0.074-0.319-0.146-0.543-0.177
	c0.401,0.685,0.806,1.368,1.202,2.055c0.11,0.191,0.235,0.386,0.277,0.589c0.101,0.492-0.25,0.936-0.808,1.082
	c-0.564,0.147-1.148-0.04-1.447-0.479c-0.154-0.226-0.283-0.464-0.42-0.698c-0.802-1.373-1.602-2.746-2.409-4.117
	c-0.072-0.123-0.167-0.267-0.301-0.33c-1.941-0.921-3.891-1.829-5.922-2.779c0,0.297,0,0.537,0,0.777
	c0,1.525-0.008,3.051,0.011,4.576c0.002,0.195,0.094,0.417,0.229,0.58c1.2,1.434,2.42,2.858,3.634,4.285
	c0.307,0.36,0.38,0.738,0.085,1.124c-0.259,0.339-0.642,0.504-1.138,0.475c-0.464-0.027-0.761-0.259-1.008-0.553
	c-0.565-0.67-1.134-1.337-1.701-2.006C132.794,282.06,132.758,282.068,132.721,282.076z"/>
</svg>
