<?xml version="1.0" encoding="iso-8859-1"?>
<!-- Generator: Adobe Illustrator 18.1.0, SVG Export Plug-In . SVG Version: 6.00 Build 0)  -->
<svg version="1.1" id="Livello_2" xmlns="http://www.w3.org/2000/svg" xmlns:xlink="http://www.w3.org/1999/xlink" x="0px" y="0px"
	 viewBox="0 0 300 300" style="enable-background:new 0 0 300 300;" xml:space="preserve">
<g>
	<path style="fill:#2D9D52;" d="M84.859,40.845c0-1.917,0-3.588,0-5.461c-6.816,0-13.518,0-20.26,0
		c-0.011-1.563-0.014-3.126-0.028-4.689c-0.083-9.281-9.48-16.358-18.535-14.344C37.7,18.206,33.09,24.218,33.079,33.428
		c-0.028,22.122-0.035,44.245,0.031,66.367c0.006,2.135-0.602,3.415-2.42,4.712c-16.328,11.653-17.265,35.713-2.112,48.842
		c4.854,4.206,10.607,6.181,16.647,7.666c2.365,0,4.729,0,7.094,0c0.493-0.184,0.971-0.453,1.481-0.54
		c12.318-2.107,20.781-9.145,24.692-20.832c3.953-11.811,1.94-23.298-7.493-31.546c-4.638-4.056-6.49-8.091-6.523-13.141
		c6.791,0,13.486,0,20.331,0c0-2.041,0-3.903,0-5.926c-6.782,0-13.414,0-20.127,0c-0.006-0.223-0.012-0.446-0.012-0.668
		c-0.002-2.277,0.001-4.554,0.001-6.831c3.369,0,6.675,0,10.064,0c0-2.007,0-3.861,0-5.868c-3.406,0-6.711,0-10.063,0
		c0.002-2.554,0.002-5.107,0.004-7.661c6.715,0,13.348,0,20.153,0c0-2.092,0-3.859,0-5.698c-6.816,0-13.488,0-20.15,0
		c0.001-2.619-0.003-5.238-0.006-7.858c3.398,0,6.706,0,10.072,0c0-1.943,0-3.699,0-5.633c-3.403,0-6.712,0-10.081,0
		c-0.006-2.657-0.018-5.313-0.031-7.97C71.45,40.845,78.146,40.845,84.859,40.845z M74.079,132.26
		c-1.541,11.039-8.498,18.989-19.071,21.794c-11.751,3.118-24.083-2.983-29.116-14.405c-4.86-11.028-0.984-24.533,9.345-30.764
		c3.372-2.034,4.187-4.251,4.161-7.909c-0.159-22.67-0.097-45.341-0.068-68.012c0.009-6.773,4.36-11.259,10.329-10.807
		c5.325,0.404,9.031,4.498,9.054,10.214c0.048,11.926,0.015,23.853,0.015,35.779c0.001,11.819,0.057,23.638-0.051,35.456
		c-0.019,2.101,0.63,3.173,2.475,4.218C70.181,112.944,75.377,122.959,74.079,132.26z"/>
	<path style="fill:#2D9D52;" d="M45.13,41.709c2.785,0,5.111,0,7.824,0c0,1.276,0,2.422,0,3.568c0,20.521,0.044,41.042-0.059,61.563
		c-0.012,2.394,0.557,3.559,2.939,4.389c9.317,3.247,14.394,12.547,12.609,22.6c-1.591,8.956-10.09,15.711-19.708,15.663
		c-9.798-0.049-17.637-6.799-19.452-16.75c-1.636-8.974,3.954-18.486,12.971-21.567c2.423-0.828,2.942-2.029,2.931-4.399
		C45.089,86.47,45.13,66.164,45.13,45.857C45.13,44.585,45.13,43.313,45.13,41.709z M32.344,128.577
		c-0.162,2.443,0.676,4.306,3.26,4.733c2.706,0.447,4.396-0.915,4.674-3.594c0.476-4.587,2.854-7.35,7.231-8.769
		c2.181-0.707,3.089-2.589,2.295-4.902c-0.785-2.288-2.547-3.082-4.83-2.651C38.304,114.65,32.45,121.72,32.344,128.577z"/>
</g>
<g>
	<path style="fill:#2D9D52;" d="M134.148,47.862c-2.254,2.112-4.501,4.231-6.764,6.334c-1.238,1.15-2.249,1.241-3.073,0.27
		c-0.977-1.152-0.422-2.081,0.495-2.94c4.51-4.221,9.021-8.442,13.523-12.672c0.957-0.899,1.939-1.486,3.098-0.37
		c0.899,0.866,0.712,1.88-0.52,3.04C138.659,43.641,136.402,45.75,134.148,47.862z"/>
	<path style="fill:#2D9D52;" d="M107.524,16.259c0.765-0.238,1.254-0.473,1.765-0.538c6.174-0.79,12.354-1.543,18.527-2.336
		c1.303-0.167,2.367,0.116,2.574,1.522c0.207,1.407-0.743,1.998-2.029,2.159c-6.337,0.794-12.669,1.636-19.016,2.333
		c-0.661,0.073-1.636-0.54-2.05-1.127C107.006,17.86,107.423,16.95,107.524,16.259z"/>
	<path style="fill:#2D9D52;" d="M158.616,73.696c-0.086-0.808-0.3-1.447-0.192-2.027c1.177-6.332,2.385-12.659,3.637-18.976
		c0.219-1.107,0.977-1.916,2.202-1.653c1.177,0.252,1.64,1.175,1.416,2.362c-1.197,6.326-2.373,12.657-3.661,18.965
		c-0.132,0.649-0.854,1.342-1.483,1.667C160.115,74.25,159.376,73.852,158.616,73.696z"/>
	<path style="fill:#2D9D52;" d="M191.995,47.792c0.479,0.915,0.776,1.433,1.029,1.972c2.561,5.441,5.118,10.884,7.667,16.331
		c0.681,1.455,0.431,2.468-0.84,2.977c-1.29,0.517-2.006-0.26-2.515-1.349c-2.663-5.693-5.319-11.39-8.017-17.066
		c-0.517-1.087-0.509-2.116,0.497-2.701C190.423,47.602,191.363,47.822,191.995,47.792z"/>
	<path style="fill:#2D9D52;" d="M229.67,39.323c-0.049,0.583,0.104,1.433-0.22,2.021c-0.53,0.963-1.528,1.181-2.544,0.635
		c-2.339-1.257-4.666-2.538-6.99-3.823c-3.082-1.705-6.157-3.423-9.235-5.136c-0.237-0.132-0.483-0.251-0.704-0.406
		c-0.987-0.688-1.607-1.523-0.863-2.736c0.711-1.158,1.75-0.942,2.704-0.439c2.54,1.341,5.046,2.747,7.561,4.134
		c2.942,1.623,5.881,3.252,8.819,4.881C228.577,38.665,228.944,38.894,229.67,39.323z"/>
	<path style="fill:#2D9D52;" d="M149.718,46.541c0.708,0.009,1.698-0.269,2.14,0.102c0.524,0.441,1.013,1.658,0.761,2.165
		c-1.537,3.102-3.227,6.134-5.03,9.09c-0.286,0.469-1.602,0.798-2.079,0.534c-0.568-0.314-1.228-1.57-1.013-2.014
		C146.068,53.164,147.849,50.012,149.718,46.541z"/>
	<path style="fill:#2D9D52;" d="M226.624,18.698c0.018,0.512,0.295,1.36-0.003,1.879c-0.307,0.536-1.231,1.133-1.784,1.047
		c-3.361-0.519-6.712-1.146-10.017-1.942c-0.582-0.14-1.326-1.274-1.277-1.892c0.046-0.589,1.106-1.637,1.591-1.568
		c3.577,0.507,7.123,1.239,10.675,1.919C226.002,18.179,226.164,18.377,226.624,18.698z"/>
	<path style="fill:#2D9D52;" d="M122.528,34.25c-1.257-1.287-1.126-2.712,0.056-3.293c3.065-1.506,6.163-2.955,9.318-4.257
		c0.511-0.211,1.762,0.269,1.988,0.751c0.276,0.588-0.115,1.53-0.333,2.286c-0.066,0.231-0.497,0.384-0.785,0.52
		c-2.747,1.297-5.477,2.633-8.264,3.834C123.827,34.383,122.952,34.223,122.528,34.25z"/>
	<path style="fill:#2D9D52;" d="M177.555,64.671c-0.269-0.781-0.524-1.259-0.592-1.762c-0.393-2.903-0.751-5.811-1.1-8.72
		c-0.151-1.257-0.117-2.47,1.512-2.73c1.211-0.193,1.969,0.595,2.186,2.245c0.388,2.958,0.834,5.913,1.068,8.884
		c0.055,0.695-0.478,1.65-1.045,2.109C179.186,65.019,178.272,64.703,177.555,64.671z"/>
	<path style="fill:#2D9D52;" d="M204.205,46.466c-1.076-1.148-2.147-2.299-3.229-3.442c-0.865-0.913-0.89-1.824,0.051-2.672
		c0.904-0.815,1.808-0.598,2.576,0.209c2.206,2.318,4.382,4.665,6.576,6.994c0.849,0.901,0.948,1.919,0.066,2.73
		c-0.863,0.793-1.854,0.708-2.707-0.254c-1.079-1.217-2.218-2.382-3.33-3.569C204.208,46.464,204.207,46.465,204.205,46.466z"/>
	<path style="fill:#2D9D52;" d="M138.789,7.717c-0.114,7.076,1.917,14.252,6.293,20.489c11.023,15.711,32.694,19.512,48.405,8.489
		c9.786-6.866,14.948-17.863,14.789-28.978H138.789z"/>
</g>
<g>
	<path style="fill:#2D9D52;" d="M88.43,203.358c0.296,11.054,4.739,19.629,15.551,24.033c0.754,0.307,1.552,1.514,1.617,2.358
		c1.222,15.817,9.049,27.868,18.906,40.239c4.619,5.797,21.815,13.667,25.1,14.345c11.63,2.398,25.947,2.355,34.192,0.097
		c16.339-4.476,26.644-15.968,28.671-18.017c5.46-5.52,9.56-12.131,11.849-19.539c2.043-6.61,3.217-13.489,4.898-20.786
		c4.562-0.649,9.21-2.858,12.619-7.308c3.441-4.492,5.036-9.687,5.946-15.15c0.916-5.494,1.619-11.219-2.085-15.835
		c-2.477-3.088-2.736-6.198-2.607-9.697c0.04-1.097-0.018-2.198,0.011-3.296c0.337-12.918-2.389-25.139-8.178-36.704
		c-0.458-0.915-0.431-2.307-0.128-3.329c1.174-3.962,1.389-7.932-0.192-11.736c-4.092-9.848-8.289-19.656-12.62-29.402
		c-1.789-4.026-6.395-5.748-10.021-3.544c-1.85,1.125-3.336,3.335-4.263,5.382c-1.491,3.294-2.383,6.86-3.57,10.438
		c-1.343-0.655-2.328-1.119-3.298-1.611c-11.352-5.753-23.44-8.529-36.108-8.082c-20.17,0.711-37.895,7.826-52,22.385
		c-17.292,17.848-25.665,38.907-20.839,64.107c0.236,1.234,0.763,2.94,0.191,3.717C88.283,191.569,88.273,197.511,88.43,203.358z
		 M206.839,126.654c2.596-8.558,5.437-17.042,8.176-25.556l0.692-0.095c3.593,8.484,7.34,16.908,10.708,25.48
		c1.517,3.861-0.391,8.398-3.785,10.824c-3.473,2.482-7.944,2.58-11.502,0.252C207.462,135.162,205.568,130.843,206.839,126.654z
		 M112.468,132.016c14.607-19.383,34.635-27.905,58.697-26.857c9.974,0.435,19.37,3.415,28.158,8.251
		c1.659,0.913,1.971,1.792,1.292,3.561c-1.031,2.686-1.941,5.46-2.501,8.276c-1.576,7.928,1.076,14.519,7.484,19.187
		c6.449,4.698,13.513,4.835,20.588,1.057c0.523-0.28,1.026-0.598,2.182-1.277c1.488,4.587,3.51,8.874,4.192,13.365
		c1.088,7.165,1.329,14.462,1.792,21.713c0.045,0.709-0.699,1.828-1.37,2.152c-1.753,0.848-3.668,1.36-5.779,2.097
		c0.309-4.322,0.679-8.476,0.884-12.638c0.197-3.994-1.657-5.871-5.641-5.239c-17.025,2.703-30.338-4.049-41.682-16.02
		c-3.828-4.04-5.269-4.087-9.396-0.331c-2.584,2.351-5.269,4.599-7.747,7.056c-1.32,1.309-2.366,1.165-3.896,0.426
		c-7.926-3.826-12.797-9.905-14.33-18.639c-0.773-4.403-3.016-5.54-7.259-3.874c-19.215,7.543-30.598,24.325-30.528,45.005
		c0.005,1.588,0.001,3.177,0.001,5.147c-0.846-0.187-1.325-0.387-1.804-0.385c-5.112,0.013-5.64-3.54-6.116-7.458
		C97.665,159.906,102.623,145.081,112.468,132.016z M97.908,194.949c0.268-2.695,1.939-3.914,4.31-2.717
		c2.073,1.047,3.954,2.933,5.278,4.885c1.485,2.189,2.927,3.93,5.717,3.207c2.831-0.734,3.265-3.039,3.303-5.644
		c0.113-7.775-0.333-15.644,0.728-23.298c1.646-11.874,8.51-20.616,18.915-26.543c0.417-0.237,0.911-0.337,1.607-0.587
		c3.658,11.77,11.958,18.342,22.737,22.444c2.377,0.904,4.239,0.468,6.015-1.144c3.019-2.741,6.047-5.472,9.053-8.192
		c21.667,15.936,21.667,15.936,43.33,17.928c-0.206,3.01-0.377,6.045-0.631,9.073c-0.275,3.279-0.614,6.553-0.953,9.826
		c-0.26,2.51,0.311,4.614,2.885,5.602c2.501,0.959,4.078-0.452,5.625-2.222c1.826-2.088,3.673-4.24,5.857-5.912
		c3.525-2.699,7.09-1.358,7.575,3.065c0.758,6.906-0.461,13.56-4.892,19.21c-2.052,2.617-5.003,3.407-8.281,3.348
		c-5.565-0.1-6.557,0.949-6.568,6.579c-0.049,25.18-15.181,45.717-38.553,52.321c-31.219,8.821-63.477-13.066-66.207-45.313
		c-0.547-6.458-2.311-10.4-8.897-12.462c-5.666-1.773-7.956-7.081-8.426-12.737C97.144,202.13,97.554,198.508,97.908,194.949z"/>
	<path style="fill:#2D9D52;" d="M281.622,179.871c-0.334,6.86-3.135,11.68-8.813,14.465c-5.794,2.842-11.548,2.258-16.547-1.807
		c-5.049-4.106-7.184-9.594-5.325-16.01c2.242-7.734,4.801-15.378,7.319-23.03c0.918-2.791,2.996-4.495,5.943-4.76
		c2.958-0.265,5.385,0.981,6.594,3.706c3.47,7.816,6.815,15.689,10.099,23.586C281.447,177.359,281.453,178.926,281.622,179.871z
		 M265.06,161.011c-2.06,6.399-3.99,12.008-5.646,17.697c-0.877,3.013,0.432,5.924,3.04,7.462c2.426,1.431,4.944,1.388,7.302-0.227
		c2.598-1.78,3.728-4.467,2.687-7.296C270.329,172.905,267.742,167.336,265.06,161.011z"/>
	<path style="fill:#2D9D52;" d="M275.424,248.709c-0.334,6.86-3.135,11.68-8.813,14.465c-5.794,2.842-11.548,2.258-16.547-1.807
		c-5.049-4.106-7.184-9.594-5.325-16.01c2.242-7.734,4.801-15.378,7.319-23.03c0.918-2.791,2.996-4.495,5.943-4.76
		c2.958-0.265,5.385,0.981,6.594,3.706c3.47,7.816,6.815,15.689,10.099,23.586C275.249,246.198,275.256,247.765,275.424,248.709z
		 M258.863,229.85c-2.06,6.399-3.99,12.008-5.646,17.697c-0.877,3.013,0.432,5.924,3.04,7.462c2.426,1.431,4.944,1.388,7.302-0.227
		c2.598-1.78,3.728-4.467,2.687-7.296C264.131,241.743,261.545,236.175,258.863,229.85z"/>
	<path style="fill:#2D9D52;" d="M143.729,251.131c14.023-9.296,31.751-10.601,46.849-3.027c3.809,1.911,7.176-3.815,3.352-5.734
		c-17.16-8.609-37.494-7.619-53.552,3.027C136.832,247.748,140.154,253.502,143.729,251.131L143.729,251.131z"/>
</g>
</svg>
