<?xml version="1.0" encoding="UTF-8"?>
<svg width="20" height="20" version="1.0" viewBox="0 0 1091 1215" xmlns="http://www.w3.org/2000/svg">
 <g transform="translate(0 1215) scale(.1 -.1)">
  <path d="m2624 10852c-36-23-53-46-123-164-39-66-91-129-218-261l-167-175-58 29c-201 101-477 144-676 103-276-55-699-249-1282-587l-95-55-3-4231-2-4231h4622c4997 0 4699-3 4874 51 136 42 214 93 234 155 16 47-9 97-76 160l-56 51-19 174c-107 974-341 1320-979 1448-132 26-368 56-571 72l-156 12-91 186c-377 768-852 1478-1348 2016-193 209-555 547-570 532-2-2 9-62 25-133 38-162 170-727 210-897 17-71 31-140 31-153 0-24-104-390-476-1669-148-511-179-608-168-540 2 17 20 149 39 295 151 1160 209 1599 230 1750l23 175-105 690c-80 527-109 694-121 707-32 33-242 146-365 196-116 48-269 91-386 109l-53 8-63 185c-228 676-525 1247-924 1778-115 152-339 417-347 410-4-4 7-52 179-783 190-808 174-714 153-863-69-510-271-1861-279-1868-2-3-7 62-11 143-4 82-29 591-56 1133l-49 985-91 590c-158 1027-146 965-183 1003-35 37-35 37 31 73 18 11 44 43 67 85 21 38 76 134 123 214 154 261 181 344 190 570l4 136-53 41c-88 66-160 109-327 192-327 164-423 194-488 153z"/>
  <path d="m6313 10055c-128-28-208-77-336-209-145-150-213-248-268-390-29-75-32-90-32-206 0-193 50-357 190-619 166-310 241-387 411-416 42-7 206-19 363-26 411-17 616 3 754 73 97 50 128 109 145 273 14 137 22 175 60 271 44 109 61 199 67 354 9 219-20 392-88 536-56 119-107 154-226 154-80 0-173 23-435 109-329 107-459 128-605 96z"/>
  <path d="m9955 9216c-33-13-117-48-186-79-312-137-565-175-868-130l-114 17-52-28c-105-55-215-167-270-276-55-108-70-184-69-345 1-177 18-256 88-402 83-173 184-295 278-338 115-52 172-60 458-59 271 0 393 11 517 49 49 14 53 19 91 88 57 102 123 179 237 277 204 174 241 222 266 349 32 163-35 609-118 777-15 30-44 71-65 90-32 29-45 34-86 33-26 0-74-10-107-23z"/>
  <path d="m4740 9058c-278-9-349-16-367-36-22-26-130-172-164-222-87-130-75-309 34-495 47-82 154-193 215-224 27-14 99-30 200-46 235-37 250-35 327 45 22 23 103 93 180 155 168 134 259 229 276 285 11 38 6 110-26 378-12 101-143 156-390 164-44 2-172 0-285-4z"/>
  <path d="m5900 7168c-97-133-107-189-52-301 56-113 112-147 272-164l55-5 112 96c161 138 156 131 148 246-8 109-14 123-58 147-27 15-65 18-239 21l-207 4-31-44z"/>
  <path d="m8110 7161c-19-5-60-20-90-33-30-14-116-46-190-72-265-92-448-225-499-362-44-117-47-396-6-587 27-130 87-222 168-260 18-9 71-33 119-55 103-47 160-98 258-227 56-73 82-98 133-127 34-19 98-56 143-81 44-25 123-61 175-79 90-31 100-32 244-32 134 1 159 3 240 28 279 85 476 275 540 521 26 102 38 242 33 397-5 147-5 148-43 224-54 110-161 214-348 338-80 53-205 144-279 201-149 116-236 167-323 190-71 18-226 27-275 16z"/>
  <path d="m9945 4727c-74-16-133-45-156-78-18-24-49-246-49-348 0-82 48-140 245-296 55-43 130-107 167-142 66-63 66-63 125-63 86 0 302 38 351 61 92 45 199 180 250 317 34 92 36 217 4 282-29 60-164 249-185 261-28 16-681 21-752 6z"/>
  <path d="m8269 4497c-67-28-90-44-153-105-129-125-152-200-126-412 16-129 23-143 88-183 31-19 107-71 167-116 133-97 199-132 253-133 26 0 86 18 172 52 160 64 166 72 163 200-1 98-24 192-107 451-57 176-57 177-94 192-199 81-272 92-363 54z"/>
  <path d="m9990 3070c-79-17-93-35-109-138-12-85-12-93 6-123 10-18 65-74 123-125 118-104 124-106 258-83 54 10 73 18 110 52 54 51 92 123 99 192 6 58-5 86-69 173-37 50-40 52-87 52-26 0-101 2-167 5-65 2-139 0-164-5z"/>
 </g>
 <g fill="#2e9d53" stroke="#2e9d53" stroke-width="2.6384">
  <path transform="scale(.75)" d="m1.7633 884.53v-562.74l41.555-22.933c83.239-45.936 127.82-63.254 162.78-63.237 23.004 0.0108 48.956 5.6348 65.907 14.282l10.673 5.4452 20.833-22.138c11.458-12.176 26.375-30.449 33.148-40.607 12.258-18.385 12.368-18.468 24.059-18.213 13.021 0.28396 60.439 21.761 87.599 39.676l15.171 10.007v17.426c0 9.5844-1.8808 23.875-4.1795 31.757-5.4007 18.518-33.92 69.809-45.158 81.215-9.9962 10.146-10.059 10.361-4.7312 16.248 2.6653 2.9451 9.2234 37.826 19.882 105.75l15.904 101.35 7.5942 151.26c4.1768 83.194 8.1774 151.85 8.8901 152.56 2.3063 2.3062 8.0267-32.825 29.41-180.62l11.95-82.597-4.1819-20.302c-2.3001-11.166-12.403-55.214-22.452-97.884-10.048-42.67-17.775-78.077-17.171-78.681 0.60436-0.60438 7.3586 6.4061 15.009 15.579 63.833 76.532 109.96 159.11 146.2 261.72l11.065 31.332 24.819 6.266c25.127 6.3437 73.226 27.456 79.939 35.088 4.7809 5.4354 5.1435 7.3135 20.034 103.77l12.727 82.443-19.535 148.55c-10.744 81.702-19.535 149.32-19.535 150.26 0 0.9405 1.0551 0.5821 2.3446-0.7965 2.3584-2.5212 15.725-47.453 62.036-208.53l25.098-87.294-17.119-73.563c-9.4154-40.46-16.751-75.384-16.3-77.608 1.282-6.3358 86.954 81.09 114.97 117.32 47.855 61.892 87.015 123.54 126.89 199.77l21.582 41.258 17.686 1.6779c87.271 8.2798 124.64 18.888 151.47 43.002 29.871 26.845 46.144 70.715 56.119 151.29 3.763 30.395 4.4011 32.431 13.223 42.196 5.098 5.6429 9.2691 11.561 9.2691 13.151 0 5.1067-14.666 16.724-27.974 22.158-12.78 5.2189-19.815 5.2846-640.21 5.9792l-627.29 0.7022z"/>
  <path transform="scale(.75)" d="m854.67 525.09c-15.949-1.4058-27.345-3.8854-32.98-7.1765-11.208-6.5449-24.86-24.825-39.711-53.17-15.983-30.507-22.988-54.316-22.988-78.132 0-26.134 11.135-48.567 37.614-75.78 25.293-25.994 33.694-29.887 63.966-29.642 20.608 0.16678 28.966 1.829 63.248 12.578 21.726 6.8124 46.066 13.122 54.088 14.021 8.0222 0.89908 16.665 2.7021 19.207 4.0067 6.2989 3.2334 16.478 24.114 20.438 41.923 5.1578 23.199 2.3466 67.879-5.9659 94.82-3.8058 12.335-7.6678 29.266-8.5822 37.625-3.4134 31.205-19.885 39.204-83.068 40.34-22.493 0.40437-51.862-0.23135-65.265-1.4127z"/>
  <path transform="scale(.75)" d="m620.52 547.16c-24.059-4.3419-34.165-10.227-47.461-27.64-16.689-21.856-21.934-48.954-12.869-66.483 9.5468-18.461 24.674-35.505 32.99-37.168 13.337-2.6674 95.09-1.8265 105.58 1.0859 18.383 5.106 21.104 9.3638 24.194 37.862 2.4011 22.147 2.2055 26.654-1.4225 32.784-4.474 7.5591-50.832 49.958-64.116 58.64-9.1184 5.9596-8.9784 5.9561-36.892 0.91866z"/>
  <path transform="scale(.75)" d="m1190.3 607.06c-25.416-4.0965-40.903-17.494-56.244-48.655-10.764-21.865-14.565-40.861-12.812-64.036 1.7564-23.224 8.3937-38.931 23.273-55.073 17.359-18.832 20.278-19.733 58.166-17.943 39.697 1.8757 60.018-1.9263 102.82-19.236 31.608-12.784 41.438-14.138 48.219-6.6453 16.482 18.212 29.066 99.126 19.038 122.41-2.0113 4.6696-14.646 19.176-28.078 32.236s-28.378 29.874-33.213 37.364c-7.9908 12.378-10.06 13.893-22.712 16.634-17.779 3.8517-81.077 5.7446-98.452 2.9442z"/>
  <path transform="scale(.75)" d="m804.4 722.97c-10.044-2.3798-18.008-8.8996-23.248-19.032-5.4374-10.515-4.5255-20.011 3.1853-33.168l6.8728-11.728 28.996 0.99246c33.565 1.1488 36.412 2.9864 36.412 23.5 0 11.897-0.64039 12.928-16.896 27.199-17.102 15.015-19.739 15.928-35.321 12.236z"/>
  <path transform="scale(.75)" d="m1088.9 904.63c-22.197-11.314-28.803-16.209-40.06-29.682-15.84-18.958-19.034-21.497-40.218-31.964-26.351-13.02-33.28-29.442-33.174-78.623 0.10421-48.402 11.254-60.771 79.095-87.747 20.663-8.2165 28.157-9.9271 42.669-9.7405 26.655 0.34276 29.57 1.982 112.4 63.206 34.036 25.157 41.779 41.42 39.307 82.564-1.8332 30.519-7.2276 48.087-19.957 64.997-20.13 26.74-50.306 40.541-88.645 40.541-24.685 0-25.005-0.0844-51.42-13.549z"/>
  <path transform="scale(.75)" d="m1335.7 1087.6c-38.232-33.592-37.579-32.399-33.86-61.863 2.2263-17.638 4.3503-25.284 7.7048-27.737 9.758-7.1352 26.279-9.0536 70.195-8.1506l44.475 0.91449 7.608 9.2345c4.1843 5.079 10.778 15.012 14.652 22.073 5.9009 10.755 6.7946 14.945 5.5067 25.82-1.8203 15.37-12.116 35.388-24.249 47.148-9.8076 9.5059-30.889 15.747-52.71 15.605-12.776-0.083-14.017-0.8104-39.323-23.045z"/>
  <path transform="scale(.75)" d="m1100.1 1127.6c-14.19-9.593-27.203-19.206-28.916-21.362-4.9821-6.2692-7.1466-35.838-3.4446-47.055 4.4158-13.38 19.99-30.012 33.874-36.175 12.79-5.6768 22.047-4.9423 41.204 3.2691l11.577 4.9627 9.7413 29.857c11.93 36.564 14.689 62.049 7.4239 68.565-6.3907 5.7324-31.003 15.38-39.236 15.38-3.5546 0-17.943-7.7882-32.223-17.442z"/>
  <path transform="scale(.75)" d="m1340.4 1264.3c-21.074-16.785-22.969-19.758-21.41-33.589 0.7542-6.6919 2.7517-13.548 4.4388-15.236 3.367-3.3684 43.989-5.8812 54.09-3.346 7.8191 1.9625 17.319 16.769 17.306 26.973-0.012 9.1749-8.0404 23.054-16.354 28.272-3.3343 2.0927-10.374 4.5591-15.643 5.481-8.4068 1.4707-11.154 0.4227-22.427-8.5557z"/>
 </g>
</svg>
