<?xml version="1.0" encoding="UTF-8"?>
<svg width="512" height="512" version="1.0" viewBox="0 0 512 512" xmlns="http://www.w3.org/2000/svg">
 <g fill-opacity="1" stroke-width="1.87018" fill="#2e9d53" stroke="#2e9d53" transform="translate(0.000000,512.000000) scale(0.100000,-0.100000)">
<path d="M2440 4970 c-926 -73 -1712 -660 -2055 -1534 -55 -142 -116 -374
-141 -541 -22 -149 -25 -504 -5 -645 42 -303 119 -551 254 -815 54 -106 205
-346 225 -358 10 -7 197 19 320 44 275 55 450 138 493 233 43 95 17 179 -97
323 -99 124 -130 180 -150 272 -28 135 -15 202 56 271 138 134 404 217 1050
325 415 69 540 101 540 138 0 42 -76 71 -358 137 -323 75 -433 115 -512 186
-49 44 -66 91 -51 137 34 103 193 163 596 226 236 37 305 52 340 75 62 41 15
85 -185 175 -65 29 293 -22 411 -58 74 -23 119 -54 119 -80 0 -41 -54 -70
-258 -142 -278 -97 -380 -148 -408 -201 -19 -36 -10 -50 56 -83 62 -31 188
-64 480 -125 299 -63 468 -102 580 -136 267 -81 351 -180 217 -258 -84 -50
-193 -79 -595 -161 -664 -135 -796 -223 -681 -453 16 -33 57 -88 92 -124 53
-54 316 -281 380 -328 37 -27 159 -175 198 -240 49 -82 75 -159 89 -258 21
-154 -24 -268 -159 -403 -139 -138 -372 -279 -646 -390 l-110 -44 65 -3 c82
-4 301 14 422 34 749 127 1403 618 1741 1306 146 298 224 592 247 932 11 167
2 367 -26 536 -169 1057 -995 1870 -2046 2014 -137 19 -358 26 -488 16z"/>
</g>
</svg>
