<svg xmlns="http://www.w3.org/2000/svg" width="20" height="20" viewBox="0 0 5.292 5.292">
    <defs>
        <path id="a" d="M27.662 37.017h135.673v12.436H27.662z"/>
        <path id="b" d="M27.662 37.017h135.673v12.436H27.662z"/>
    </defs>
    <path d="M1172.992-217.193a116.22 116.22 0 0 0-115.875 116.218 116.22 116.22 0 0 0 116.22 116.221 116.22 116.22 0 0 0 116.22-116.22 116.22 116.22 0 0 0-116.22-116.22 116.22 116.22 0 0 0-.345 0zm7.904 22.314a94.488 94.488 0 0 1 7.102.818 152.424 152.424 0 0 1 14.1 21.834 142.518 142.518 0 0 1-21.202 2.692zm-15.119.047v25.27a142.518 142.518 0 0 1-21.15-2.762 152.424 152.424 0 0 1 13.965-21.63 94.488 94.488 0 0 1 7.185-.878zm47.881 8.568a94.488 94.488 0 0 1 12.332 6.934 142.518 142.518 0 0 1-7.152 2.607 169.36 169.36 0 0 0-5.18-9.54zm-80.87.393a169.36 169.36 0 0 0-4.878 9.002 142.518 142.518 0 0 1-6.658-2.44 94.488 94.488 0 0 1 11.535-6.562zm107.087 17.816a94.488 94.488 0 0 1 27.924 59.522h-31.147a169.36 169.36 0 0 0-11.359-53.66 158.354 158.354 0 0 0 14.582-5.862zm-132.502.028a158.354 158.354 0 0 0 14.068 5.675 169.36 169.36 0 0 0-11.42 53.819h-30.543a94.488 94.488 0 0 1 27.895-59.494zm30.412 10.408a158.354 158.354 0 0 0 27.992 3.912v45.174h-38.799a152.424 152.424 0 0 1 10.807-49.086zm71.149.11a152.424 152.424 0 0 1 10.76 48.976h-38.798v-45.15a158.354 158.354 0 0 0 28.038-3.827zM1079.43-93.415h30.574a169.36 169.36 0 0 0 11.166 53.549 158.354 158.354 0 0 0-14.543 5.806 94.488 94.488 0 0 1-27.197-59.355zm47.527 0h38.82v45.125a158.354 158.354 0 0 0-28.24 3.773 152.424 152.424 0 0 1-10.58-48.898zm53.94 0h38.82a152.424 152.424 0 0 1-10.715 49.234 158.354 158.354 0 0 0-28.105-4.033zm55.773 0h31.176a94.488 94.488 0 0 1-27.89 60.047 158.354 158.354 0 0 0-14.64-6.014 169.36 169.36 0 0 0 11.354-54.033zm-70.893 60.976v25.926a94.488 94.488 0 0 1-7.033-.853 152.424 152.424 0 0 1-14.426-22.41 142.518 142.518 0 0 1 21.46-2.663zm15.12.084a142.518 142.518 0 0 1 21.302 2.875 152.424 152.424 0 0 1-14.353 22.22 94.488 94.488 0 0 1-6.95.796zm-53.323 7.036a169.36 169.36 0 0 0 5.35 9.912 94.488 94.488 0 0 1-12.623-7.272 142.518 142.518 0 0 1 7.273-2.64zm91.297.459a142.518 142.518 0 0 1 7.291 2.73 94.488 94.488 0 0 1-12.64 7.113 169.36 169.36 0 0 0 5.35-9.843z" style="fill:#2e9d53;fill-opacity:1;stroke-width:1.00014" transform="matrix(.009 0 0 .009 -7.956 3.565)"/>
    <path d="M1173.068-318.096a217.323 217.323 0 0 0-216.853 217.323 217.323 217.323 0 0 0 217.322 217.322 217.323 217.323 0 0 0 217.322-217.322 217.323 217.323 0 0 0-1.359-24.27 170.178 170.178 0 0 1-15.162.678 170.178 170.178 0 0 1-6.654-.131 195.59 195.59 0 0 1 1.443 23.723 195.59 195.59 0 0 1-195.59 195.59 195.59 195.59 0 0 1-195.59-195.59 195.59 195.59 0 0 1 195.59-195.592 195.59 195.59 0 0 1 30.625 2.412 170.178 170.178 0 0 1 0-.59 170.178 170.178 0 0 1 1.326-21.191 217.323 217.323 0 0 0-31.949-2.362 217.323 217.323 0 0 0-.469 0z" style="fill:#2e9d53;fill-opacity:1;stroke-width:1.87018" transform="matrix(.009 0 0 .009 -7.956 3.565)"/>
    <text xml:space="preserve" style="font-style:normal;font-weight:400;font-size:10.5833px;line-height:1.25;font-family:sans-serif;white-space:pre;shape-inside:url(#a);fill:#009857;fill-opacity:1;stroke:none" transform="matrix(.11917 0 0 .11917 -.113 -3.914)"><tspan x="27.662" y="46.381"><tspan style="font-style:normal;font-variant:normal;font-weight:700;font-stretch:normal;font-family:&quot;Titillium Web&quot;">O</tspan></tspan></text>
    <text xml:space="preserve" style="font-style:normal;font-weight:400;font-size:10.5833px;line-height:1.25;font-family:sans-serif;white-space:pre;shape-inside:url(#b);fill:#009857;fill-opacity:1;stroke:none" transform="matrix(.09778 0 0 .10541 1.3 -2.766)"><tspan x="27.662" y="46.381"><tspan style="font-style:normal;font-variant:normal;font-weight:700;font-stretch:normal;font-family:&quot;Titillium Web&quot;">3</tspan></tspan></text>
</svg>
