<svg
   xmlns:dc="http://purl.org/dc/elements/1.1/"
   xmlns:cc="http://creativecommons.org/ns#"
   xmlns:rdf="http://www.w3.org/1999/02/22-rdf-syntax-ns#"
   xmlns:svg="http://www.w3.org/2000/svg"
   xmlns="http://www.w3.org/2000/svg"
   xmlns:sodipodi="http://sodipodi.sourceforge.net/DTD/sodipodi-0.dtd"
   xmlns:inkscape="http://www.inkscape.org/namespaces/inkscape"
   width="20"
   height="20"
   viewBox="0 0 5.2916663 5.2916666"
   version="1.1"
   id="svg1198"
   inkscape:version="1.0.2 (e86c870879, 2021-01-15)"
   sodipodi:docname="ozono_logo.svg">
  <defs
     id="defs1192">
    <rect
       x="27.662395"
       y="37.01683"
       width="135.67294"
       height="12.436333"
       id="rect2887-9" />
    <rect
       x="27.662395"
       y="37.01683"
       width="135.67294"
       height="12.436333"
       id="rect1299" />
    <rect
       x="27.662395"
       y="37.01683"
       width="135.67294"
       height="12.436333"
       id="rect2887-9-2" />
    <rect
       x="27.662395"
       y="37.01683"
       width="135.67294"
       height="12.436333"
       id="rect1302" />
  </defs>
  <sodipodi:namedview
     id="base"
     pagecolor="#ffffff"
     bordercolor="#666666"
     borderopacity="1.0"
     inkscape:pageopacity="0.0"
     inkscape:pageshadow="2"
     inkscape:zoom="44.8"
     inkscape:cx="9.9148328"
     inkscape:cy="8.2818214"
     inkscape:document-units="mm"
     inkscape:current-layer="layer1"
     inkscape:document-rotation="0"
     showgrid="false"
     units="px"
     width="49px"
     inkscape:window-width="1920"
     inkscape:window-height="948"
     inkscape:window-x="0"
     inkscape:window-y="27"
     inkscape:window-maximized="1" />
  <metadata
     id="metadata1195">
    <rdf:RDF>
      <cc:Work
         rdf:about="">
        <dc:format>image/svg+xml</dc:format>
        <dc:type
           rdf:resource="http://purl.org/dc/dcmitype/StillImage" />
        <dc:title></dc:title>
      </cc:Work>
    </rdf:RDF>
  </metadata>
  <g
     inkscape:label="Livello 1"
     inkscape:groupmode="layer"
     id="layer1">
    <g
       id="g650"
       transform="matrix(0.03401009,0,0,0.03400991,-7.9564049,3.5654418)">
      <path
         id="path6844"
         style="fill:#2e9d53;fill-opacity:1;stroke-width:1.00014"
         d="m 1172.9922,-217.19336 a 116.22047,116.22047 0 0 0 -115.875,116.21875 116.22047,116.22047 0 0 0 116.2207,116.220704 116.22047,116.22047 0 0 0 116.2187,-116.220704 116.22047,116.22047 0 0 0 -116.2187,-116.21875 116.22047,116.22047 0 0 0 -0.3457,0 z m 7.9043,22.31445 a 94.488182,94.488182 0 0 1 7.1015,0.81836 152.4244,152.4244 0 0 1 14.0997,21.83399 142.51836,142.51836 0 0 1 -21.2012,2.6914 z m -15.1192,0.0469 v 25.26953 a 142.51836,142.51836 0 0 1 -21.1503,-2.76172 152.4244,152.4244 0 0 1 13.9648,-21.6289 94.488182,94.488182 0 0 1 7.1855,-0.87891 z m 47.8809,8.56836 a 94.488182,94.488182 0 0 1 12.332,6.93359 142.51836,142.51836 0 0 1 -7.1523,2.60742 169.36044,169.36044 0 0 0 -5.1797,-9.54101 z m -80.8711,0.39258 a 169.36044,169.36044 0 0 0 -4.8769,9.00195 142.51836,142.51836 0 0 1 -6.6582,-2.43945 94.488182,94.488182 0 0 1 11.5351,-6.5625 z m 107.0879,17.8164 a 94.488182,94.488182 0 0 1 27.9238,59.52149 h -31.1465 a 169.36044,169.36044 0 0 0 -11.3593,-53.66016 158.35372,158.35372 0 0 0 14.582,-5.86133 z m -132.502,0.0273 a 158.35372,158.35372 0 0 0 14.0684,5.67578 169.36044,169.36044 0 0 0 -11.4199,53.81836 h -30.543 a 94.488182,94.488182 0 0 1 27.8945,-59.49414 z m 30.4122,10.4082 a 158.35372,158.35372 0 0 0 27.9921,3.91211 v 45.17383 h -38.7988 a 152.4244,152.4244 0 0 1 10.8067,-49.08594 z m 71.1484,0.10937 a 152.4244,152.4244 0 0 1 10.7598,48.97657 h -38.7969 v -45.15039 a 158.35372,158.35372 0 0 0 28.0371,-3.82618 z m -129.5039,64.095708 h 30.5742 a 169.36044,169.36044 0 0 0 11.166,53.548828 158.35372,158.35372 0 0 0 -14.5429,5.80664 94.488182,94.488182 0 0 1 -27.1973,-59.355468 z m 47.5273,0 h 38.8203 v 45.125 a 158.35372,158.35372 0 0 0 -28.2402,3.773437 152.4244,152.4244 0 0 1 -10.5801,-48.898437 z m 53.9395,0 h 38.8203 a 152.4244,152.4244 0 0 1 -10.7148,49.234374 158.35372,158.35372 0 0 0 -28.1055,-4.033203 z m 55.7734,0 h 31.1758 a 94.488182,94.488182 0 0 1 -27.8906,60.046874 158.35372,158.35372 0 0 0 -14.6387,-6.013671 169.36044,169.36044 0 0 0 11.3535,-54.033203 z m -70.8926,60.976562 v 25.9257812 a 94.488182,94.488182 0 0 1 -7.0332,-0.8535156 152.4244,152.4244 0 0 1 -14.4257,-22.4101566 142.51836,142.51836 0 0 1 21.4589,-2.662109 z m 15.1192,0.08398 a 142.51836,142.51836 0 0 1 21.3027,2.875 152.4244,152.4244 0 0 1 -14.3535,22.2187504 94.488182,94.488182 0 0 1 -6.9492,0.796875 z m -53.3223,7.035157 a 169.36044,169.36044 0 0 0 5.3496,9.912109 94.488182,94.488182 0 0 1 -12.623,-7.271484 142.51836,142.51836 0 0 1 7.2734,-2.640625 z m 91.2969,0.458984 a 142.51836,142.51836 0 0 1 7.291,2.730469 94.488182,94.488182 0 0 1 -12.6406,7.113281 169.36044,169.36044 0 0 0 5.3496,-9.84375 z"
         transform="scale(0.26458333)" />
      <path
         id="path6844-7"
         style="fill:#2e9d53;fill-opacity:1;stroke-width:1.87018"
         d="m 1173.0684,-318.0957 a 217.32283,217.32283 0 0 0 -216.85356,217.32226 217.32283,217.32283 0 0 0 217.32226,217.32227 217.32283,217.32283 0 0 0 217.3223,-217.32227 217.32283,217.32283 0 0 0 -1.3594,-24.26953 170.17756,170.17756 0 0 1 -15.1621,0.67774 170.17756,170.17756 0 0 1 -6.6543,-0.13086 195.59055,195.59055 0 0 1 1.4434,23.72265 195.59055,195.59055 0 0 1 -195.5899,195.589846 195.59055,195.59055 0 0 1 -195.58983,-195.589846 195.59055,195.59055 0 0 1 195.58983,-195.59179 195.59055,195.59055 0 0 1 30.625,2.41211 170.17756,170.17756 0 0 1 0,-0.58985 170.17756,170.17756 0 0 1 1.3261,-21.19141 217.32283,217.32283 0 0 0 -31.9492,-2.36132 217.32283,217.32283 0 0 0 -0.4687,0 z"
         transform="scale(0.26458333)" />
      <text
         xml:space="preserve"
         id="text2885-8"
         style="font-style:normal;font-weight:normal;font-size:10.5833px;line-height:1.25;font-family:sans-serif;white-space:pre;shape-inside:url(#rect2887-9);fill:#009857;fill-opacity:1;stroke:none;"
         transform="matrix(3.5040541,0,0,3.5040541,230.62035,-219.91476)"><tspan
           x="27.662109"
           y="46.381318"><tspan
             style="font-style:normal;font-variant:normal;font-weight:bold;font-stretch:normal;font-family:'Titillium Web';-inkscape-font-specification:'Titillium Web Bold'">O</tspan></tspan></text>
      <text
         xml:space="preserve"
         id="text2885-8-9"
         style="font-style:normal;font-weight:normal;font-size:10.5833px;line-height:1.25;font-family:sans-serif;white-space:pre;shape-inside:url(#rect2887-9-2);fill:#009857;fill-opacity:1;stroke:none;"
         transform="matrix(2.8751624,0,0,3.0995039,272.19398,-186.17202)"><tspan
           x="27.662109"
           y="46.381318"><tspan
             style="font-style:normal;font-variant:normal;font-weight:bold;font-stretch:normal;font-family:'Titillium Web';-inkscape-font-specification:'Titillium Web Bold'">3</tspan></tspan></text>
      <!-- Logo -->
    </g>
  </g>
</svg>
