<?xml version="1.0" standalone="no"?>
<!DOCTYPE svg PUBLIC "-//W3C//DTD SVG 20010904//EN"
 "http://www.w3.org/TR/2001/REC-SVG-20010904/DTD/svg10.dtd">
 <svg width="1091pt" height="1215pt" version="1.0" viewBox="0 0 1091 1215" xmlns="http://www.w3.org/2000/svg">
<!--<svg version="1.0" xmlns="http://www.w3.org/2000/svg"
 width="988.000000pt" height="1260.000000pt" viewBox="0 0 988.000000 1260.000000"
 preserveAspectRatio="xMidYMid meet">-->
<g transform="translate(0.000000,1260.000000) scale(0.100000,-0.100000)"
fill="#2e9d53" stroke="#2e9d53" stroke-width="2.6384">
<path d="M6368 11680 c-83 -15 -247 -128 -310 -214 -24 -32 -60 -77 -80 -101
-21 -23 -38 -49 -38 -58 0 -25 -46 -159 -69 -202 -12 -22 -21 -47 -21 -55 0
-21 -39 -93 -59 -107 -9 -6 -31 -24 -48 -40 -18 -16 -43 -34 -55 -40 -143 -66
-201 -99 -246 -140 -44 -40 -54 -55 -59 -89 -6 -46 18 -130 63 -221 23 -46 26
-62 22 -125 -4 -64 -9 -80 -41 -126 -20 -29 -71 -88 -114 -130 -101 -101 -143
-163 -195 -290 -51 -125 -65 -136 -191 -151 -110 -13 -128 -22 -191 -94 -47
-55 -50 -62 -54 -123 -2 -35 -5 -64 -6 -64 -114 -5 -229 -78 -272 -174 -26
-57 -26 -64 -22 -200 5 -130 8 -148 41 -241 20 -55 46 -140 58 -190 23 -100
47 -153 93 -207 17 -20 40 -50 51 -66 11 -17 38 -56 60 -88 l40 -57 3 -123 c3
-114 1 -129 -27 -220 -17 -53 -36 -102 -41 -109 -5 -6 -16 -31 -25 -54 -27
-79 -95 -153 -172 -188 -29 -13 -57 -22 -61 -19 -5 3 -51 10 -103 16 -90 11
-161 29 -279 72 -30 11 -107 36 -170 56 -114 37 -116 37 -285 37 -154 0 -175
-3 -228 -24 -62 -24 -129 -84 -152 -136 -31 -69 -127 -146 -230 -184 -32 -12
-99 -44 -149 -71 -50 -27 -120 -56 -156 -65 -35 -9 -91 -32 -122 -50 -32 -19
-90 -46 -130 -59 -95 -33 -194 -100 -219 -148 -17 -33 -19 -59 -19 -211 0
-184 -11 -241 -67 -352 -12 -22 -35 -83 -52 -136 -40 -121 -108 -240 -155
-268 -19 -12 -44 -37 -55 -56 -11 -19 -41 -61 -67 -93 l-47 -59 -251 -6 c-261
-6 -396 -21 -501 -56 -33 -10 -86 -27 -117 -36 -40 -12 -78 -35 -133 -81 -42
-35 -81 -64 -86 -64 -5 0 -16 -11 -24 -24 -11 -17 -13 -30 -6 -48 16 -42 198
-196 282 -238 l76 -39 6 -138 c4 -109 10 -154 29 -213 37 -113 107 -228 200
-330 33 -36 67 -78 75 -95 26 -51 55 -75 111 -91 29 -9 97 -36 150 -61 53 -25
120 -56 147 -68 70 -33 82 -49 84 -119 1 -32 5 -66 10 -75 5 -9 11 -34 14 -56
4 -22 29 -95 57 -163 41 -99 50 -133 50 -181 0 -57 -1 -61 -43 -96 -23 -20
-67 -49 -97 -65 -75 -38 -119 -83 -159 -160 -19 -36 -45 -81 -58 -100 -79
-116 -83 -125 -83 -163 0 -63 29 -158 68 -221 l37 -59 -1 -141 c0 -78 -4 -195
-9 -261 -7 -117 -7 -122 17 -170 14 -28 28 -63 32 -80 4 -16 24 -64 45 -105
21 -41 46 -106 55 -145 25 -103 103 -256 141 -275 46 -24 113 -68 120 -80 3
-5 32 -27 63 -47 31 -20 76 -52 98 -72 25 -22 66 -44 100 -55 72 -22 185 -75
283 -134 120 -72 231 -120 347 -149 99 -25 126 -28 294 -28 203 0 178 -5 495
90 61 19 153 45 205 60 52 15 105 31 118 36 13 5 34 9 46 9 28 0 42 -32 51
-113 9 -77 35 -158 59 -182 34 -34 148 -72 316 -105 85 -17 171 -35 190 -40
84 -22 268 -42 335 -35 83 7 201 40 234 64 24 19 42 93 61 256 19 168 54 236
160 315 85 63 138 120 225 244 38 54 102 135 142 179 109 120 201 313 217 452
10 91 47 197 66 189 8 -4 52 -11 96 -17 143 -19 274 18 287 79 3 16 21 45 39
64 18 19 45 50 59 68 l26 34 84 -25 c46 -14 154 -45 239 -68 l155 -44 205 1
c269 0 373 17 488 75 47 24 108 64 136 89 67 60 93 76 141 84 58 11 180 73
220 113 24 24 35 45 37 66 0 18 2 37 3 42 2 6 3 64 4 130 l1 120 46 -53 c25
-28 83 -79 130 -113 46 -34 84 -64 84 -68 0 -3 15 -16 34 -29 108 -74 425
-104 588 -56 28 9 64 29 80 44 24 25 28 36 28 87 0 65 28 184 59 254 17 35 21
65 21 155 0 99 -4 127 -40 258 -25 91 -53 166 -72 199 -47 78 -157 223 -227
302 -224 250 -222 248 -342 298 -78 33 -148 87 -175 135 -15 26 -42 70 -60 98
-19 27 -42 75 -53 105 -31 90 -50 119 -125 191 -108 103 -143 113 -376 112
-102 0 -212 -2 -245 -4 -89 -6 -142 13 -195 71 -35 38 -66 57 -140 89 -52 23
-127 66 -167 96 l-73 55 0 287 c0 313 -1 322 -64 495 -33 93 -35 104 -30 190
3 51 7 103 10 116 5 24 6 24 36 -13 16 -20 53 -48 82 -62 28 -15 60 -34 71
-44 55 -49 281 -66 397 -30 91 28 128 77 128 170 0 28 5 60 10 71 13 24 84 59
179 89 151 46 165 118 61 300 -21 36 -40 74 -44 85 -3 11 -24 45 -46 75 -22
30 -49 72 -60 92 -11 21 -46 66 -79 100 -57 62 -88 111 -119 192 -11 29 -17
102 -23 251 -12 293 -21 363 -71 510 -97 290 -108 318 -142 356 -20 21 -38 51
-41 66 -4 16 -14 44 -23 63 -14 28 -17 74 -20 243 l-3 208 27 37 c16 20 37 46
47 57 33 36 64 99 97 195 17 52 47 128 66 169 31 67 34 82 34 166 0 101 -11
177 -37 243 -17 44 -57 79 -163 139 -79 45 -192 148 -247 225 -64 89 -154 232
-170 269 -7 16 -28 49 -46 72 -19 23 -44 63 -55 88 -30 62 -30 168 -1 241 39
97 49 151 49 268 0 93 -5 133 -26 210 -34 123 -45 144 -91 165 -30 15 -68 19
-188 21 -82 2 -171 -1 -197 -6z m121 -217 c6 -21 11 -99 12 -173 2 -126 0
-140 -26 -210 -22 -58 -30 -97 -32 -172 -5 -108 10 -157 72 -233 18 -22 42
-59 54 -82 27 -54 120 -199 183 -284 59 -80 152 -162 261 -228 114 -70 115
-71 138 -137 25 -74 29 -290 5 -327 -17 -26 -81 -190 -92 -233 -11 -47 -43
-103 -83 -147 -73 -82 -71 -74 -71 -306 0 -182 3 -216 19 -263 11 -29 22 -64
25 -78 3 -14 23 -46 44 -71 28 -35 47 -74 71 -150 18 -57 39 -122 48 -144 32
-84 63 -207 63 -248 0 -23 5 -58 11 -77 7 -19 15 -129 18 -245 7 -209 7 -210
40 -288 24 -56 52 -99 100 -152 65 -72 171 -226 190 -275 5 -14 30 -61 55
-105 34 -59 46 -90 46 -120 0 -54 -8 -63 -66 -75 -104 -22 -244 -113 -244
-158 0 -10 -9 -6 -27 13 -77 77 -156 97 -368 91 -268 -8 -335 -68 -335 -304 0
-84 5 -117 25 -179 40 -117 35 -113 115 -113 l70 0 0 -395 0 -395 48 -30 c26
-16 82 -44 125 -61 59 -24 85 -41 109 -72 36 -46 115 -86 224 -114 55 -14 116
-18 308 -19 l239 -2 52 -50 c64 -63 77 -83 100 -152 9 -30 34 -82 55 -115 20
-33 49 -81 63 -106 15 -26 40 -59 57 -73 40 -33 151 -95 204 -113 27 -10 63
-38 106 -82 219 -227 386 -447 417 -549 76 -250 90 -384 52 -490 -38 -106 -59
-191 -59 -243 l0 -51 -22 16 c-13 9 -54 37 -91 62 -37 26 -93 76 -125 112
-161 186 -212 222 -343 243 -84 13 -256 7 -319 -12 -23 -7 -54 -27 -70 -46
l-30 -34 0 -219 c0 -190 -2 -221 -17 -235 -34 -34 -94 -65 -164 -85 -77 -21
-147 -61 -194 -110 -17 -18 -58 -47 -92 -67 -51 -28 -77 -36 -135 -40 -65 -4
-92 0 -238 41 -91 25 -192 54 -225 66 -165 58 -426 84 -518 52 -21 -8 -63 -40
-96 -73 l-59 -60 -108 7 c-118 7 -243 -7 -281 -31 -11 -8 -29 -29 -38 -47 -61
-117 -76 -153 -95 -219 -11 -40 -20 -90 -20 -110 0 -94 -104 -316 -199 -421
-71 -79 -140 -167 -183 -235 -44 -67 -87 -112 -186 -190 -141 -113 -159 -158
-199 -511 -4 -34 -8 -42 -22 -38 -9 3 -63 15 -121 27 -280 56 -262 48 -284
127 -9 32 -16 71 -16 87 0 16 -7 55 -17 88 -21 75 -57 101 -163 118 -101 15
-427 6 -495 -14 -27 -8 -99 -29 -160 -47 -60 -18 -159 -47 -220 -66 -211 -64
-229 -67 -295 -50 -67 17 -118 42 -267 128 -106 61 -237 121 -290 132 -17 4
-39 16 -49 28 -11 11 -50 42 -89 69 -38 27 -90 65 -115 84 -25 19 -60 43 -78
53 -27 14 -42 37 -73 105 -21 47 -48 121 -59 164 -12 43 -32 96 -45 118 -13
23 -32 68 -44 100 -11 33 -29 82 -41 108 -18 40 -21 61 -16 120 3 40 8 149 12
242 l6 170 -41 79 c-22 44 -48 106 -57 138 -20 70 -11 114 36 173 17 21 49 72
72 114 52 96 88 135 158 171 31 15 79 50 108 77 45 42 52 55 53 89 3 76 -3
119 -23 164 -67 152 -108 295 -108 376 0 42 -5 58 -23 75 -25 25 -317 168
-394 193 -40 13 -57 26 -75 54 -12 20 -50 69 -84 108 -158 182 -214 315 -215
514 0 118 -12 177 -39 191 -8 4 -44 21 -80 37 -101 45 -292 222 -240 222 5 0
40 26 78 59 40 34 82 62 103 66 18 4 57 17 84 28 45 18 82 21 360 27 171 4
324 12 340 18 17 5 49 15 72 21 34 9 53 25 101 84 33 40 68 87 79 104 11 18
35 43 53 55 47 32 124 164 161 278 17 52 47 131 66 174 56 124 63 163 63 347
0 154 2 168 21 193 30 38 82 69 169 100 41 15 96 41 123 57 26 16 69 34 95 39
26 6 106 39 177 74 72 36 154 74 184 86 30 12 69 32 85 43 45 31 166 150 166
163 0 6 11 23 24 39 27 31 24 31 148 -16 43 -16 86 -29 96 -29 10 0 35 -9 56
-19 20 -11 52 -25 69 -31 54 -19 282 -35 502 -35 l210 0 97 43 c126 57 209
136 243 232 8 22 21 53 29 68 8 15 27 64 41 109 24 76 26 94 23 225 l-3 143
-45 63 c-25 35 -54 79 -65 97 -11 17 -37 51 -57 73 -23 25 -43 61 -52 94 -8
29 -26 94 -39 143 -14 50 -37 123 -51 163 -23 66 -26 88 -26 210 1 110 4 143
18 167 l17 30 100 1 c138 1 204 24 174 60 -7 9 -15 53 -17 99 -4 81 -3 86 27
134 31 48 34 50 89 57 77 9 148 34 214 76 52 34 56 40 102 145 58 136 97 193
206 303 47 47 100 111 118 140 29 50 32 62 32 137 0 70 -4 92 -29 145 -39 84
-51 127 -51 175 0 34 6 46 33 70 43 38 90 66 157 94 68 29 143 76 193 123 35
33 87 124 87 153 0 7 11 36 24 65 36 79 66 161 66 179 0 9 7 23 16 30 9 8 43
49 76 91 32 43 63 78 68 78 5 0 14 -17 19 -37z"/>
<path d="M4753 6252 c-621 -731 -1053 -1418 -1164 -1851 -54 -212 -38 -460 46
-692 158 -440 547 -773 1013 -866 62 -12 135 -17 252 -17 117 0 190 5 252 17
407 82 762 348 944 710 142 281 183 582 115 848 -111 433 -543 1120 -1164
1851 -78 92 -144 167 -147 167 -3 0 -69 -75 -147 -167z m270 -454 c517 -650
851 -1218 908 -1545 15 -85 6 -223 -22 -334 -93 -365 -365 -646 -734 -756 -83
-25 -104 -27 -275 -27 -173 0 -191 2 -275 27 -372 113 -641 390 -734 756 -28
111 -37 249 -22 334 48 279 294 726 694 1266 142 192 325 421 337 421 5 0 61
-64 123 -142z"/>
<path d="M5451 4205 c-21 -145 -67 -241 -164 -342 -102 -106 -215 -165 -358
-185 l-79 -11 0 -150 0 -150 88 6 c343 24 663 276 777 612 26 78 45 175 45
238 l0 57 -149 0 -149 0 -11 -75z"/>
</g>
</svg>
