<svg xmlns="http://www.w3.org/2000/svg" viewBox="0 0 500 500"><path d="M462.6 399.87c0 34.38-29 62.72-63 62.72H101.29c-34 0-63.89-28.34-63.89-62.72V98.26c0-34.38 29.88-60.86 63.89-60.86h298.35c34 0 63 26.47 63 60.86z" fill="none" stroke="#2e9d53" stroke-width="25" stroke-miterlimit="10"/><path d="M261 249.74c65.82 0 130.78-.38 141.85-2.58 31-6.18 43.61-38.8 21.22-54.21-29.78-20.47-48.38-16.3-81.08.91 34.49-19 31.72-58.52 6.43-65.34-32.88-8.86-59.29 11.45-69.59 40.43 11.65-24 9.27-52.61-6.17-72.06-12.1-15.25-33.25-22.14-48.48-22.14-13.61 0-42.54 11.19-53.31 24-15.23 18.12-22.85 37.14-13 57.44-9.41-13.51-24-21.42-46.59-14.87-16.51 4.78-31.29 28.63-33.75 47.1-3.43 25.82 5.46 47.2 19.86 54.8 12.6 6.64 21.44 6.19 35.69 6.19" fill="none" stroke="#2e9d53" stroke-width="25" stroke-linecap="square" stroke-linejoin="round"/><path fill="none" stroke="#2e9d53" stroke-width="18" stroke-miterlimit="10" d="M263.87 277.96l-90.14 123.9 37.6-103.06-58.67-6.88 78.83-109.93-31.82 86.66z"/></svg>