<svg xmlns="http://www.w3.org/2000/svg" xml:space="preserve" style="enable-background:new -273 273.93 20 20" width="20" height="20" viewBox="-273 273.93 20 20">
    <path d="M-266.605 284.528c-.349-.08-.682-.187-.963-.414a1.616 1.616 0 0 1 .122-2.637c.105-.07.14-.139.14-.254a855.86 855.86 0 0 1-.002-3.583c.001-.497.267-.822.75-.922.524-.109 1.068.273 1.072.774.01 1.038.005 2.076.005 3.113 0 .064.007.128-.001.191-.044.353.047.613.367.874.546.445.662 1.065.434 1.703-.226.631-.716 1.011-1.429 1.125-.029.005-.057.019-.086.029l-.409.001zm.781-5.014c0-.644.002-1.288-.001-1.932a.537.537 0 0 0-.524-.551c-.345-.024-.597.218-.598.583-.002 1.224-.005 2.448.004 3.672.001.197-.046.317-.241.427a1.282 1.282 0 0 0-.541 1.661c.291.617 1.005.946 1.685.778.612-.151 1.014-.581 1.103-1.177.075-.502-.226-1.043-.748-1.319-.107-.056-.144-.114-.143-.228.007-.638.004-1.276.004-1.914z" style="fill:#808184"/>
    <path d="M-266.611 278.087h.453v.193c0 1.108.003 2.216-.003 3.324-.001.129.032.192.17.237.539.175.833.677.729 1.22-.092.483-.584.848-1.14.846-.567-.003-1.02-.367-1.125-.904-.095-.484.229-.998.75-1.164.14-.045.17-.11.17-.237-.006-1.096-.003-2.193-.003-3.289l-.001-.226zm-.74 4.689c-.009.132.039.232.189.255.157.024.254-.049.27-.194.027-.248.165-.397.418-.473.126-.038.179-.14.133-.265-.045-.124-.147-.166-.279-.143-.386.069-.725.45-.731.82zM-255.859 283.928a.432.432 0 0 0-.296-.132h-.59l.265-.454a.416.416 0 0 0-.735-.389l-.309.528-.329-.555a.407.407 0 0 0-.541-.145.416.416 0 0 0-.151.54l.278.475h-.592a.43.43 0 0 0-.431.433.457.457 0 0 0 .216.389.426.426 0 0 0 .216.043h.644l-.341.584a.436.436 0 0 0 .173.54h.022a.416.416 0 0 0 .541-.151l.314-.537.302.516c.043.086.129.129.173.173a.604.604 0 0 0 .389-.022h.033a.387.387 0 0 0 .176-.398.384.384 0 0 0-.058-.142l-.333-.562h.668a.432.432 0 0 0 .296-.734zM-255.686 289.356l-2.323-1.073.01.889h-2.426v-.954h-.449v.954h-.686v-1.815h-.449v1.815h-.752l-.009-1.863-.449.002.011 2.31h5.214l.009.832zM-257.431 277.44a2.228 2.228 0 0 0-.7.048c-.128-.456-.389-.855-.744-1.134s-.785-.424-1.223-.413c-.984 0-1.749.667-1.858 1.523a.718.718 0 0 0-.235-.024h-.273c-.962.071-1.727.833-1.727 1.761 0 .976.82 1.761 1.858 1.761h4.181c1.006 0 2.055-.428 2.055-1.928.001-.399-.135-.785-.382-1.08s-.586-.478-.952-.514zm.897 1.809c-.109 1.119-1.203 1.214-1.53 1.214h-4.307c-.415 0-1.29-.381-1.367-1.095a1.375 1.375 0 0 1 .046-.507c.047-.164.124-.315.227-.445.114-.147.254-.267.412-.353a1.2 1.2 0 0 1 .507-.146h.224a.882.882 0 0 1 .464.11.971.971 0 0 1 .356.342s.044.048.044.071c.045.1.138.165.24.167a.172.172 0 0 0 .175-.119.421.421 0 0 0-.11-.405c-.109-.119-.175-.167-.219-.214-.044-.048-.087-.072-.109-.143.039-.361.201-.693.454-.931.253-.238.578-.364.912-.354.348-.009.689.108.969.332.281.224.486.542.583.906a1.594 1.594 0 0 0-.651.546 1.794 1.794 0 0 0-.31.828c-.044.214.022.381.175.405h.066c.153 0 .219-.214.241-.381.051-.294.179-.565.37-.781s.434-.366.702-.433h.197c.184-.013.369.016.543.085.173.07.331.179.463.319.109.131.188.289.23.461.042.171.045.351.011.524l-.008-.003zM-261.191 285.931c-.761-.168-1.231-.906-.966-1.559.086-.212.233-.413.396-.582.382-.397.79-.774 1.191-1.155.083-.079.177-.061.222.04.283.628.538 1.263.678 1.93.175.833-.555 1.424-1.325 1.358-.065-.007-.13-.022-.196-.032zm-.143-.344c.123.027.215-.012.24-.092.028-.085-.004-.166-.093-.2-.308-.119-.411-.421-.374-.714.015-.12-.038-.2-.149-.219-.111-.019-.19.04-.208.16-.03.2-.006.397.079.587.103.23.281.392.505.478z" style="fill:#808184"/>
    <path d="m-260.547 279.359-4.137 9.976h-1.729l-4.137-9.976h1.713l3.329 8.281 3.329-8.281h1.632z" style="fill:#009345"/>
</svg>
