<?xml version="1.0" encoding="iso-8859-1"?>
<!-- Generator: Adobe Illustrator 18.1.0, SVG Export Plug-In . SVG Version: 6.00 Build 0)  -->
<svg version="1.1"
	 id="svg1198" xmlns:sodipodi="http://sodipodi.sourceforge.net/DTD/sodipodi-0.dtd" xmlns:dc="http://purl.org/dc/elements/1.1/" xmlns:cc="http://creativecommons.org/ns#" xmlns:svg="http://www.w3.org/2000/svg" xmlns:rdf="http://www.w3.org/1999/02/22-rdf-syntax-ns#" xmlns:inkscape="http://www.inkscape.org/namespaces/inkscape" inkscape:version="1.0.2 (e86c870879, 2021-01-15)" sodipodi:docname="ozono_logo.svg"
	 xmlns="http://www.w3.org/2000/svg" xmlns:xlink="http://www.w3.org/1999/xlink" width="20" height="20" viewBox="-273 273.93 20 20"
	 style="enable-background:new -273 273.93 20 20;" xml:space="preserve">
<sodipodi:namedview  width="49px" id="base" pagecolor="#ffffff" bordercolor="#666666" borderopacity="1.0" inkscape:zoom="44.8" units="px" inkscape:cx="9.9148328" showgrid="false" inkscape:cy="8.2818214" inkscape:window-width="1920" inkscape:document-units="mm" inkscape:pageopacity="0.0" inkscape:window-height="948" inkscape:pageshadow="2" inkscape:document-rotation="0" inkscape:window-y="27" inkscape:window-x="0" inkscape:window-maximized="1" inkscape:current-layer="layer1">
	</sodipodi:namedview>
<g>
	<path style="fill:#808184;" d="M-266.605,284.528c-0.349-0.08-0.682-0.187-0.963-0.414c-0.877-0.709-0.822-2.008,0.122-2.637
		c0.105-0.07,0.14-0.139,0.14-0.254c-0.004-1.194-0.003-2.389-0.002-3.583c0.001-0.497,0.267-0.822,0.75-0.922
		c0.524-0.109,1.068,0.273,1.072,0.774c0.01,1.038,0.005,2.076,0.005,3.113c0,0.064,0.007,0.128-0.001,0.191
		c-0.044,0.353,0.047,0.613,0.367,0.874c0.546,0.445,0.662,1.065,0.434,1.703c-0.226,0.631-0.716,1.011-1.429,1.125
		c-0.029,0.005-0.057,0.019-0.086,0.029C-266.332,284.528-266.469,284.528-266.605,284.528z M-265.824,279.514
		c0-0.644,0.002-1.288-0.001-1.932c-0.001-0.309-0.216-0.53-0.524-0.551c-0.345-0.024-0.597,0.218-0.598,0.583
		c-0.002,1.224-0.005,2.448,0.004,3.672c0.001,0.197-0.046,0.317-0.241,0.427c-0.598,0.336-0.822,1.065-0.541,1.661
		c0.291,0.617,1.005,0.946,1.685,0.778c0.612-0.151,1.014-0.581,1.103-1.177c0.075-0.502-0.226-1.043-0.748-1.319
		c-0.107-0.056-0.144-0.114-0.143-0.228C-265.821,280.79-265.824,280.152-265.824,279.514z"/>
	<path style="fill:#808184;" d="M-266.611,278.087c0.161,0,0.296,0,0.453,0c0,0.069,0,0.131,0,0.193
		c0,1.108,0.003,2.216-0.003,3.324c-0.001,0.129,0.032,0.192,0.17,0.237c0.539,0.175,0.833,0.677,0.729,1.22
		c-0.092,0.483-0.584,0.848-1.14,0.846c-0.567-0.003-1.02-0.367-1.125-0.904c-0.095-0.484,0.229-0.998,0.75-1.164
		c0.14-0.045,0.17-0.11,0.17-0.237c-0.006-1.096-0.003-2.193-0.003-3.289C-266.611,278.242-266.611,278.173-266.611,278.087z
		 M-267.351,282.776c-0.009,0.132,0.039,0.232,0.189,0.255c0.157,0.024,0.254-0.049,0.27-0.194c0.027-0.248,0.165-0.397,0.418-0.473
		c0.126-0.038,0.179-0.14,0.133-0.265c-0.045-0.124-0.147-0.166-0.279-0.143C-267.006,282.025-267.345,282.406-267.351,282.776z"/>
</g>
<g>
	<path style="fill:#808184;" d="M-255.859,283.928c-0.078-0.081-0.184-0.128-0.296-0.132h-0.59l0.265-0.454
		c0.045-0.097,0.051-0.207,0.017-0.308c-0.034-0.101-0.106-0.186-0.2-0.236c-0.094-0.05-0.204-0.062-0.307-0.033
		c-0.103,0.029-0.191,0.096-0.245,0.188l-0.309,0.528l-0.329-0.555c-0.054-0.089-0.141-0.154-0.241-0.181
		c-0.101-0.027-0.208-0.014-0.3,0.036c-0.088,0.055-0.152,0.141-0.18,0.241c-0.028,0.1-0.017,0.207,0.029,0.299l0.278,0.475h-0.592
		c-0.115,0-0.224,0.046-0.305,0.127c-0.081,0.081-0.126,0.191-0.126,0.306c0,0.078,0.019,0.155,0.057,0.223
		c0.038,0.068,0.092,0.125,0.159,0.166c0.067,0.033,0.142,0.048,0.216,0.043h0.644l-0.341,0.584
		c-0.04,0.096-0.045,0.203-0.013,0.302c0.032,0.099,0.098,0.184,0.186,0.238h0.022c0.093,0.047,0.2,0.057,0.3,0.029
		c0.1-0.028,0.186-0.092,0.241-0.18l0.314-0.537l0.302,0.516c0.043,0.086,0.129,0.129,0.173,0.173
		c0.128,0.036,0.265,0.028,0.389-0.022h0.033c0.044-0.027,0.082-0.063,0.112-0.105c0.03-0.042,0.051-0.09,0.062-0.14
		c0.011-0.051,0.012-0.103,0.002-0.153c-0.01-0.051-0.029-0.099-0.058-0.142l-0.333-0.562h0.668
		c0.112-0.004,0.218-0.051,0.296-0.132c0.078-0.081,0.122-0.188,0.122-0.301C-255.737,284.117-255.781,284.009-255.859,283.928z"/>
</g>
<polygon style="fill:#808184;" points="-255.686,289.356 -258.009,288.283 -257.999,289.172 -260.425,289.172 -260.425,288.218 
	-260.874,288.218 -260.874,289.172 -261.56,289.172 -261.56,287.357 -262.009,287.357 -262.009,289.172 -262.761,289.172 
	-262.77,287.309 -263.219,287.311 -263.208,289.621 -257.994,289.621 -257.985,290.453 "/>
<g>
	<path style="fill:#808184;" d="M-257.431,277.44c-0.234-0.021-0.47-0.005-0.7,0.048c-0.128-0.456-0.389-0.855-0.744-1.134
		s-0.785-0.424-1.223-0.413c-0.984,0-1.749,0.667-1.858,1.523c-0.077-0.021-0.156-0.029-0.235-0.024h-0.273
		c-0.962,0.071-1.727,0.833-1.727,1.761c0,0.976,0.82,1.761,1.858,1.761h4.181c1.006,0,2.055-0.428,2.055-1.928
		c0.001-0.399-0.135-0.785-0.382-1.08S-257.065,277.476-257.431,277.44z M-256.534,279.249c-0.109,1.119-1.203,1.214-1.53,1.214
		h-4.307c-0.415,0-1.29-0.381-1.367-1.095c-0.016-0.171-0.001-0.343,0.046-0.507c0.047-0.164,0.124-0.315,0.227-0.445
		c0.114-0.147,0.254-0.267,0.412-0.353c0.158-0.086,0.33-0.136,0.507-0.146h0.224c0.161-0.007,0.32,0.031,0.464,0.11
		c0.144,0.079,0.266,0.197,0.356,0.342c0,0,0.044,0.048,0.044,0.071c0.045,0.1,0.138,0.165,0.24,0.167
		c0.076,0.007,0.147-0.041,0.175-0.119c0.019-0.072,0.019-0.148-0.001-0.22s-0.057-0.136-0.109-0.185
		c-0.109-0.119-0.175-0.167-0.219-0.214c-0.044-0.048-0.087-0.072-0.109-0.143c0.039-0.361,0.201-0.693,0.454-0.931
		c0.253-0.238,0.578-0.364,0.912-0.354c0.348-0.009,0.689,0.108,0.969,0.332c0.281,0.224,0.486,0.542,0.583,0.906
		c-0.258,0.116-0.482,0.304-0.651,0.546c-0.169,0.241-0.276,0.527-0.31,0.828c-0.044,0.214,0.022,0.381,0.175,0.405h0.066
		c0.153,0,0.219-0.214,0.241-0.381c0.051-0.294,0.179-0.565,0.37-0.781s0.434-0.366,0.702-0.433h0.197
		c0.184-0.013,0.369,0.016,0.543,0.085c0.173,0.07,0.331,0.179,0.463,0.319c0.109,0.131,0.188,0.289,0.23,0.461
		c0.042,0.171,0.045,0.351,0.011,0.524L-256.534,279.249z"/>
</g>
<path style="fill:#808184;" d="M-261.191,285.931c-0.761-0.168-1.231-0.906-0.966-1.559c0.086-0.212,0.233-0.413,0.396-0.582
	c0.382-0.397,0.79-0.774,1.191-1.155c0.083-0.079,0.177-0.061,0.222,0.04c0.283,0.628,0.538,1.263,0.678,1.93
	c0.175,0.833-0.555,1.424-1.325,1.358C-261.06,285.956-261.125,285.941-261.191,285.931z M-261.334,285.587
	c0.123,0.027,0.215-0.012,0.24-0.092c0.028-0.085-0.004-0.166-0.093-0.2c-0.308-0.119-0.411-0.421-0.374-0.714
	c0.015-0.12-0.038-0.2-0.149-0.219c-0.111-0.019-0.19,0.04-0.208,0.16c-0.03,0.2-0.006,0.397,0.079,0.587
	C-261.736,285.339-261.558,285.501-261.334,285.587z"/>
<g>
	<path style="fill:#009345;" d="M-260.547,279.359l-4.137,9.976h-1.729l-4.137-9.976h1.713l3.329,8.281l3.329-8.281H-260.547z"/>
</g>
</svg>
