<?xml version="1.0" encoding="UTF-8" standalone="no"?>
<svg
   xmlns:dc="http://purl.org/dc/elements/1.1/"
   xmlns:cc="http://creativecommons.org/ns#"
   xmlns:rdf="http://www.w3.org/1999/02/22-rdf-syntax-ns#"
   xmlns:svg="http://www.w3.org/2000/svg"
   xmlns="http://www.w3.org/2000/svg"
   xmlns:sodipodi="http://sodipodi.sourceforge.net/DTD/sodipodi-0.dtd"
   xmlns:inkscape="http://www.inkscape.org/namespaces/inkscape"
   viewBox="0 0 500 500"
   version="1.1"
   id="svg8"
   sodipodi:docname="logo.svg"
   inkscape:version="1.0.2 (e86c870879, 2021-01-15)">
  <metadata
     id="metadata14">
    <rdf:RDF>
      <cc:Work
         rdf:about="">
        <dc:format>image/svg+xml</dc:format>
        <dc:type
           rdf:resource="http://purl.org/dc/dcmitype/StillImage" />
      </cc:Work>
    </rdf:RDF>
  </metadata>
  <defs
     id="defs12" />
  <sodipodi:namedview
     pagecolor="#ffffff"
     bordercolor="#666666"
     borderopacity="1"
     objecttolerance="10"
     gridtolerance="10"
     guidetolerance="10"
     inkscape:pageopacity="0"
     inkscape:pageshadow="2"
     inkscape:window-width="1920"
     inkscape:window-height="1021"
     id="namedview10"
     showgrid="false"
     inkscape:zoom="1.236"
     inkscape:cx="250"
     inkscape:cy="250"
     inkscape:window-x="0"
     inkscape:window-y="0"
     inkscape:window-maximized="1"
     inkscape:current-layer="svg8" />
  <path
     d="m 205.33039,458.38301 c -23.207,-13.734 -39.781,-37.887 -40.727,-66.30101 -1.4219,-53.043 35.52,-79.09 57.305,-114.61 31.258,-51.148 22.73,-82.875 22.73,-82.875 0,0 26.047,14.67999 41.203,69.145 4.7344,16.102 5.6836,32.203 4.2617,47.359 -2.3672,38.359 -18.941,72.93001 -18.941,72.93001 0,0 28.887,-6.15621 36.938,-58.72301 13.26201,13.734 25.57401,33.62501 26.992,54.461 2.3672,35.98401 -18.94099,69.13701 -51.148,83.34401 55.88301,-12.789 95.664,-60.14501 109.40001,-94.715 17.523,-43.57001 12.785,-82.40201 9.9453,-116.03001 -3.7891,-45.93801 12.312,-80.03501 12.312,-80.03501 0,0 -30.781,8.9961 -53.51601,46.41001 -10.41799,17.05099 -14.67999,42.148 -14.67999,42.148 0,0 2.3672,-22.258 -12.312,-62.98401 -14.68001,-39.78099 -27.94101,-53.988 -35.99201,-83.352 -10.418,-39.309001 12.785,-77.668002 12.785,-77.668002 0,0 -91.875,17.047001 -133.55001,97.082002 -36.938,71.039 -21.78499,113.66 -21.78499,113.66 0,0 -15.629,-14.67999 -23.68001,-35.04699 -8.0508,-20.36301 -6.1562,-38.832 -6.1562,-38.832 0,0 -65.355,71.984 -33.624999,162.44 21.311999,63.46101 62.512009,105.14001 112.240009,122.19001 z"
     id="path2-3"
     style="stroke-width:0.999997;fill:#2e9d53;fill-opacity:1" />
</svg>
