<svg xmlns="http://www.w3.org/2000/svg" width="20" height="20" viewBox="0 0 500 500">
    <path d="M205.33 458.383c-23.207-13.734-39.78-37.887-40.727-66.301-1.422-53.043 35.52-79.09 57.305-114.61 31.258-51.148 22.73-82.875 22.73-82.875s26.047 14.68 41.203 69.145c4.735 16.102 5.684 32.203 4.262 47.359-2.367 38.359-18.94 72.93-18.94 72.93s28.886-6.156 36.937-58.723c13.262 13.734 25.574 33.625 26.992 54.461 2.367 35.984-18.94 69.137-51.148 83.344 55.883-12.789 95.664-60.145 109.4-94.715 17.523-43.57 12.785-82.402 9.945-116.03-3.789-45.938 12.312-80.035 12.312-80.035s-30.78 8.996-53.516 46.41c-10.418 17.051-14.68 42.148-14.68 42.148s2.368-22.258-12.312-62.984c-14.68-39.781-27.94-53.988-35.992-83.352-10.418-39.309 12.785-77.668 12.785-77.668s-91.875 17.047-133.55 97.082c-36.938 71.039-21.785 113.66-21.785 113.66s-15.629-14.68-23.68-35.047c-8.05-20.363-6.156-38.832-6.156-38.832S61.36 245.734 93.09 336.19c21.312 63.461 62.512 105.14 112.24 122.19z" style="stroke-width:.999997;fill:#2e9d53;fill-opacity:1"/>
</svg>
