<?xml version="1.0" encoding="UTF-8" standalone="no"?>
<svg
   viewBox="0 0 352.39999 461.39999"
   version="1.1"
   id="svg34"
   width="352.39999"
   height="461.39999"
   sodipodi:docname="mappa_legenda_macroaree.svg"
   inkscape:version="1.1.2 (0a00cf5339, 2022-02-04)"
   xmlns:inkscape="http://www.inkscape.org/namespaces/inkscape"
   xmlns:sodipodi="http://sodipodi.sourceforge.net/DTD/sodipodi-0.dtd"
   xmlns="http://www.w3.org/2000/svg"
   xmlns:svg="http://www.w3.org/2000/svg">
  <sodipodi:namedview
     id="namedview151"
     pagecolor="#ffffff"
     bordercolor="#666666"
     borderopacity="1.0"
     inkscape:pageshadow="2"
     inkscape:pageopacity="0.0"
     inkscape:pagecheckerboard="0"
     showgrid="false"
     inkscape:zoom="1.6233204"
     inkscape:cx="176.49012"
     inkscape:cy="279.98171"
     inkscape:window-width="1920"
     inkscape:window-height="958"
     inkscape:window-x="0"
     inkscape:window-y="27"
     inkscape:window-maximized="1"
     inkscape:current-layer="g28" />
  <defs
     id="defs38">
    <rect
       x="39.584543"
       y="110.76895"
       width="264.41786"
       height="388.31498"
       id="rect117147" />
    <rect
       x="203.05084"
       y="314.40121"
       width="54.643536"
       height="29.843843"
       id="rect92896" />
    <rect
       x="293.08099"
       y="339.61533"
       width="127.86437"
       height="45.427479"
       id="rect85582" />
    <rect
       x="204.55634"
       y="300.25137"
       width="68.160009"
       height="23.212639"
       id="rect77054" />
    <rect
       x="347"
       y="426"
       width="64.391861"
       height="47.418427"
       id="rect67168" />
    <rect
       x="323.40448"
       y="261.41302"
       width="113.93378"
       height="47.492435"
       id="rect58103" />
    <rect
       x="214.54814"
       y="209.53506"
       width="180.6446"
       height="47.641601"
       id="rect56097" />
    <rect
       x="314.80508"
       y="226.48976"
       width="102.83265"
       height="62.394169"
       id="rect43450" />
    <rect
       x="235.20467"
       y="255.06302"
       width="151.31593"
       height="65.758224"
       id="rect40868" />
    <rect
       x="287.84924"
       y="162.42096"
       width="165.92834"
       height="133.23798"
       id="rect36438" />
    <rect
       x="328.19983"
       y="229.22287"
       width="48.040771"
       height="25.258109"
       id="rect14694" />
    <rect
       x="214.54814"
       y="209.53506"
       width="167.65788"
       height="79.742119"
       id="rect56097-4" />
  </defs>
  <!-- svg generated using QGIS www.qgis.org -->
  <g
     id="aree_bollettino_—_aree_bollettino_new"
     transform="translate(-309.8,-174.8)">
    <g
       stroke="#232323"
       fill="#fff"
       stroke-linejoin="round"
       stroke-width="0.4"
       id="g28">
      <g
         id="aree_bollettino_—_aree_bollettino_new_1">
        <path
           d="m 571,424 v -1 h -1 -1 -1 v 1 h -1 v -1 h -1 v -1 h -1 v -1 h 1 v -1 h -1 v 1 -1 -1 -1 h -1 v 1 -1 1 h -1 v -1 h -1 v -1 1 -1 h -1 -1 v 1 h -1 v -1 1 h -1 -1 v 1 h -1 v -1 h -1 v 1 -1 h -1 v 1 -1 h -1 -1 1 v -1 h -1 v 1 -1 h -1 v 1 h -1 -1 -1 -1 -1 v 1 1 h -1 v 1 h -1 v 1 1 h -1 v 1 h -1 -1 v -1 h -1 v -1 h -1 -1 v 1 -1 1 h -1 v -1 h -1 -1 -1 v -1 h -1 v 1 h -1 -1 v 1 h -1 v 1 h -1 -1 l -1,1 h -1 v -1 -1 h -1 v -1 h -1 -1 v 1 1 h -1 v 1 h -1 -1 v -1 h 1 v -1 h -1 v 1 h -1 -1 v -1 1 h -1 l -1,-1 h 1 -1 v -1 h -1 -1 -1 1 v -1 h -1 -1 -1 -1 v -1 h -1 -1 v 1 h -1 v -1 h -1 l -1,1 h -1 v -1 1 -1 h -1 v -1 h 1 -1 v -1 -1 -1 h -1 v 1 1 -1 h -1 v -1 h -1 -1 v -1 h -1 v -1 h -1 v -1 h -1 v -1 -1 -1 1 h -1 v -1 -1 -1 -1 -1 h -1 1 v -1 h 1 v -1 -1 -1 -1 -1 -1 -1 -1 -1 h -1 v -1 h -1 -1 v 1 h -1 v 1 h -1 -1 v -1 h 1 v -1 -1 -1 l 1,-1 h 1 -1 v -1 -1 h -1 1 v -1 h 1 v 1 h 1 v -1 h 1 1 v 1 h 1 1 v 1 h 1 v 1 h 1 v 1 -1 -1 -1 -1 -1 h 1 v -1 -1 h -1 v -1 h -1 v -1 -1 h -1 1 v -1 -1 -1 -1 -1 h 1 v 1 l 1,-1 v -1 -1 -1 h -1 1 -1 1 v -1 -1 h 1 1 v -1 h -1 1 l -1,-1 h 1 -1 v -1 h -1 -1 v -1 h 1 -1 v -1 h -1 -1 v -1 h -1 -1 v -1 h -1 v -1 h -1 -1 v -1 -1 h -1 v -1 h -1 v -1 h -1 v -1 h -1 v -1 h -1 v -1 h -1 v -1 -1 -1 h -1 -1 v -1 h -1 -1 -1 v -1 -1 h 1 v -1 -1 h 1 v -1 -1 h 1 v -1 h -1 v -1 -1 -1 h -1 v -1 h 1 v -1 h 1 -1 v -1 -1 -1 -1 -1 h 1 v -1 h 1 v -1 -1 h 1 1 v -1 h 1 v 1 -1 h 1 v -1 h -1 v -1 h -1 v -1 -1 h -1 v -1 h 1 l -1,-1 h -1 v -1 -1 h -1 v -1 -1 h 1 v -1 -1 h 1 l 1,-1 v -1 h 1 v -1 -1 h 1 v -1 h -1 v -1 l -1,-1 h 1 v -1 h -1 -1 v -1 h -1 -1 v -1 h -1 v -1 h -1 v -1 l -1,-1 1,-1 h -1 v -1 h -1 v -1 l -1,-1 v -1 -1 -1 -1 -1 -1 -1 h 1 1 v -1 h -1 v -1 h -1 v -1 -1 h 1 v -1 h 1 v -1 -1 -1 h -1 v -1 -1 -1 -1 -1 h -1 v -1 -1 h 1 v -1 h -1 v -1 -1 h 1 1 v -1 -1 -1 h -1 v -1 -1 -1 h 1 v -1 h 1 -1 v -1 h 1 v -1 -1 h -1 v -1 h 1 1 l 1,-1 v -1 h 1 v -1 -1 h 1 1 1 1 1 1 1 1 1 1 1 1 v -1 l 1,-1 v -1 h 1 1 v -1 h -1 1 v -1 -1 -1 l 1,-1 h 1 v -1 1 -1 h 1 -1 v -1 -1 -1 h -1 v -1 -1 -1 l 1,-1 v -1 -1 -1 h 1 v -1 h 1 1 1 1 v -1 h 1 1 1 1 v -1 h 1 1 v -1 -1 h 1 -1 1 v -1 -1 h 1 1 v -1 h 1 v 1 -1 h 1 v -1 h 1 v -1 -1 h -1 v -1 -1 h 1 v -1 -1 h 1 v -1 h 1 -1 v -1 l -1,-1 v -1 -1 -1 h -1 v -1 h -1 v -1 -2 h -1 -1 v -1 -1 h -1 l -1,-1 v -1 h -1 v -1 h -1 -1 v -1 h -1 v -1 h 1 v -1 h 1 v -1 h 1 v -1 h 1 1 v -1 -1 h 1 v -1 h 1 v -1 h 1 1 1 v 1 h 1 1 1 v -1 1 -1 1 h 1 v -1 h 1 v -1 h 1 v 1 -1 l 2,-1 v -1 -1 h 1 v -1 h 1 -1 v -1 h 1 v -1 h 1 v -1 h 1 v 1 -1 1 -1 1 -1 h 1 v -1 h 1 1 -1 1 v -1 -1 -1 h 1 v -1 1 -1 1 h 1 1 v -1 h 1 v -1 h 1 1 v -1 h 1 v -1 -1 -1 -1 h -1 v -1 1 h -1 v -1 h -1 -1 v -1 h 1 v -1 h 1 v -1 -1 h 1 1 1 1 v -1 h 1 v -1 h 1 v -1 h 1 v -1 h 1 l 1,-1 h 1 1 1 1 v -1 1 h 1 v -1 h 1 1 v -1 h 1 1 1 1 v 1 1 h 1 v 1 h 1 -1 1 -1 1 v 1 1 h -1 v 1 1 1 1 h 1 v 1 1 1 1 h 1 -1 v 1 h -1 v 1 h 1 v 1 1 1 1 1 1 h -1 v 1 h 1 v 1 1 h -1 1 v 1 h -1 v 1 h -1 v 1 h -1 v 1 1 h -1 v 1 1 h -1 v 1 1 1 h 1 v 1 h 1 v 1 h 1 v 1 1 1 h -1 v 1 1 h 1 v 1 h 1 1 v 1 1 1 h 1 1 1 1 v 1 h 1 1 v 1 h 1 v -1 1 h 1 1 v 1 1 1 1 h 1 v 1 h 1 v 1 h 1 -1 1 v 1 h 1 v 1 h 1 v 1 1 1 h 1 1 v 1 h 1 1 v 1 h -1 1 -1 v 1 1 h 1 v 1 h 1 v 1 1 1 h 1 1 1 1 v -1 h 1 v 1 h 1 v 1 1 h 1 1 1 v 1 h 1 v 1 h 1 2 l 1,1 h -1 v 1 1 1 1 l 1,1 v 1 1 1 1 1 h 1 v 1 1 h 1 v 1 1 l -1,1 v 1 h -1 v 1 h -1 v 1 h -1 l -2,2 -1,1 -3,4 -5,5 -2,1 -1,1 -1,1 v 1 l -1,1 -1,1 v 1 h -1 v 2 1 h 1 v 1 1 h 1 v 1 1 1 h 1 v 1 1 1 l 1,1 v 1 l -1,1 v 1 1 l -1,1 h -1 v 1 h -1 -1 v 1 l -1,1 v 1 1 1 1 1 h 1 v 1 h 1 v 1 l 1,1 v 1 h 1 v 1 1 h 1 v 1 1 h 1 v 1 h 1 1 1 l 1,1 h 1 v -1 h 1 v 1 h 1 v 1 1 1 1 1 h -1 v 1 1 h -1 v 1 h 1 v 1 h 1 1 1 1 v -1 h 1 v 1 1 h -1 v 1 h -1 l 1,1 v 1 h 1 v 1 l 1,1 v 1 1 h -1 -1 v -1 -1 h -1 -1 v 1 1 h 1 v 1 l -1,1 h 1 1 1 v 1 h 1 v 1 h 1 l -1,1 1,1 v -1 l 1,1 v 1 1 1 h -1 v 1 1 1 h 1 v 1 1 1 1 l 1,1 v 1 1 h 1 v 1 h -1 v 1 1 h 1 v 1 1 h 1 -1 1 v 1 h 1 v 1 h 1 1 1 1 v 1 l 1,1 1,1 v -1 h 1 v 1 h 1 v 1 1 1 h -1 v 1 h 1 v 1 h 1 v 1 h 1 v 1 1 h 1 -1 v 1 h 1 1 v 1 1 1 l 1,1 v 1 h 1 v 1 1 h 1 -1 v 1 h 1 -1 -1 v 1 l -1,-1 -1,1 h -1 v 1 h 1 -1 l -1,1 h -1 -1 v -1 h -1 -1 v -1 h -1 v 1 1 h -1 -1 v 1 -1 h -1 -1 v 1 l -1,-1 h -1 v 1 h 1 v 1 h 1 v 1 h 1 v 1 1 l 1,-1 h 1 1 -1 v 1 h 1 v 1 h -1 v 1 h -1 -1 v 1 1 h -1 v -1 h -1 v 1 1 h -1 1 -1 v 1 h 1 -1 v 1 1 h -1 1 v 1 h -1 v 1 h -1 v -1 1 1 h -1 -1 -1 -1 -1 v 1 -1 h -1 v -1 -1 -1 -1 h -1 v -1 h 1 -1 v -1 h -1 v -1 h -1 v -1 h -1 v -1 -1 -1 1 -1 h -1 v -1 h -1 v 1 -1 h -1 v 1 -1 1 h -1 -1 1 v 1 h -1 v -1 1 -1 h -1 -1 v 1 h -1 v -1 1 -1 h -1 -1 l -1,-2 v 1 1 h -1 v 1 h -1 -1 v 1 1 h 1 v 1 1 1 1 -1 h -1 v 1 h -1 v 1 h -1 v -1 1 h -1 v 1 1 h -1 v 1 l 1,1 h 1 v -1 1 h 1 -1 v 1 1 1 h 1 v -1 h 1 1 v 1 1 h -1 l 1,1 v 1 h 1 v 1 h -1 v 1 -1 h -1 -1 v 1 h 1 l 1,1 h 1 1 1 v 1 h -1 -1 v -1 h -1 -1 v 1 h 1 1 v 1 h -1 -1 l -1,1 v 1 h 1 v 1 h 1 v 1 h 1 v 1 h 1 -1 v 1 h -1 -1 -1 l 1,1 h 1 1 1 v -1 -1 h 1 1 1 1 v 1 h -1 -1 v 1 h -1 v 1 h -1 v 1 h -1 v 1 1 1"
           id="path2" />
      </g>
      <g
         id="aree_bollettino_—_aree_bollettino_new_2">
        <path
           d="m 617,526 v 1 1 h 1 v 1 h 1 1 v 1 1 h 1 -1 v 1 -1 1 1 1 h 1 -1 v 1 1 h 1 v 1 1 1 h 1 v 1 1 h -1 v 1 h -1 -1 -1 v 1 h -1 v -1 h -1 v -1 h -1 v -1 h -1 v 1 h -1 v 1 -1 h -1 -1 -1 -1 v 1 1 1 1 1 h -1 -1 -1 v 1 h -1 v 1 1 1 1 1 l 1,1 h -1 -1 v 1 -1 1 h -1 1 v 1 h -1 -1 -1 v -1 -1 h 1 v -1 -1 h -1 v -1 -1 -1 -1 h -1 v 1 h -1 v -1 -1 h 1 -1 v -1 -1 -1 h -1 -1 v -1 -1 -1 h -1 v -1 h -1 v -1 l -1,-1 h -1 -1 v 1 h -1 v -1 h -1 v 1 h -1 -1 v -1 h -1 v 1 h -1 v -1 h -1 -1 v 1 l -1,-1 h -1 -1 v -1 1 1 h -1 -1 v 1 h 1 v -1 1 1 -1 h -1 l -1,1 h 1 v 1 h -1 v 1 1 h 1 v 1 h 1 v 1 h -1 v 1 -1 h -1 v 1 h -1 v 1 l -1,-1 v 1 h 1 v 1 h -1 -1 -1 v 1 1 h 1 v 1 h -1 1 -1 v 1 -1 h -1 v 1 h -1 -1 v -1 h -1 v -1 h -1 -1 v 1 h -1 -1 -1 -1 -1 -1 -1 v -1 -1 h -1 v -1 1 h -1 v 1 h -1 v 1 1 h -1 v 1 h -1 v -1 h -1 -1 v -1 h -1 v -1 h -1 v 1 h -1 v 1 h -1 v 1 h 1 -1 v 1 h 1 -1 v 1 h -1 v 1 h 1 v 1 h -1 -1 -1 v 1 h -1 v 1 h -1 -1 v -1 -1 h -1 1 v -1 l -1,-1 h -1 -1 -1 -1 v -1 -1 h -1 v -1 h -1 -1 -1 l -1,-1 h -1 l -1,-1 v -1 h -1 v -1 -1 h -1 v -1 -1 -1 h -1 v -1 h -1 v -1 h 1 -1 v -1 h -1 1 v -1 h 1 v -1 -1 -1 -1 h -1 v -1 h -1 v -1 h 1 v -1 h -1 -1 v -1 -1 -1 h -1 -1 -1 -1 1 v -1 -1 h -1 v -1 h 1 v -1 h 1 v -1 -1 h 1 v -1 h 1 v -1 h 1 v -1 l -1,-1 v -1 h 1 l -1,-1 h 1 1 v -1 h 1 v -1 h 1 v -1 h 1 v -1 h 1 v -1 -1 h 1 l -1,-1 v 1 -1 l -1,-1 v -1 -1 h -1 v 1 h -1 -1 l -1,1 v -1 l -1,-1 v 1 h -1 v -1 -1 h -1 v -1 -1 -1 h -1 -1 -1 v 1 1 h -1 v 1 1 h -1 v -1 1 h -1 v 1 h 1 -1 1 v 1 h -1 v -1 1 1 h -1 -1 v -1 -1 h -1 v -1 -1 h -1 1 v -1 -1 h -1 -1 v -1 h -1 v 1 -1 h -1 -1 v -1 h -1 v -1 h 1 v -1 -1 h 1 1 1 v -1 -1 h 1 1 v -1 h -1 v -1 -1 -1 -1 -1 h -1 -1 -1 v 1 -1 h -1 v -1 l -1,-1 v 1 h -1 v 1 h -1 v 1 h -1 -1 -1 v -1 1 -1 l -1,1 v 1 h -1 v 1 -1 h -1 v -1 l -1,-1 v -1 h -1 l -1,1 h -1 v -1 h -1 -1 v -1 -1 l -1,1 v -1 -1 -1 h -1 v -1 -1 -1 1 h -1 v -1 l -1,-1 v 1 h -1 v 1 h -1 -1 v -1 h -1 v -1 h -1 v -1 -1 -1 h -1 v -1 -1 h -1 -1 v 1 h -1 v -1 h -1 v -1 -1 h 1 1 1 1 v 1 -1 h 1 v -1 -1 -1 h -1 v -1 h -1 -1 -1 -1 v -1 -1 -1 l -1,-1 h 1 1 v -1 h 1 v -1 -1 -1 -1 -1 l 1,-1 h 1 v -1 h 1 l 1,-1 v -1 -1 -1 h 1 -1 v -1 h -1 -1 v -1 -1 h 1 -1 v -1 h 1 v -1 h 1 1 1 v -1 h 1 v -1 h 1 v -1 -1 h -1 v -1 h -1 v -1 h -1 v 1 h 1 -1 v 1 1 h -1 v -1 -1 h -1 v -1 h -1 v -1 h -1 v 1 -1 h -1 -1 v -1 -1 h 1 l -1,-1 v -1 h 1 l -1,-1 v -1 h 1 -1 1 v -1 1 -1 h 1 v 1 1 h 1 v 1 1 h 1 v -1 h 1 1 v -1 h 1 -1 v -1 h 1 -1 v -1 -1 h -1 v -1 h 1 v -1 h 1 1 v -1 h 1 1 1 v -1 h 1 1 v -1 h -1 1 1 1 1 v 1 h 1 1 v -1 -1 h 1 v 1 h 1 1 v 1 1 1 1 h 1 v 1 h 1 v 1 h 1 1 1 -1 1 v -1 -1 h 1 v -1 -1 h 1 v -1 h -1 1 v -1 h 1 v 1 h 1 1 1 1 v -1 -1 -1 h 1 v -1 -1 -1 -1 h 1 v -1 h 1 v -1 1 h 1 1 v -1 h 1 v 1 h -1 v 1 h 1 1 v -1 h 1 v -1 -1 h 1 1 v 1 h 1 v 1 1 h 1 l 1,-1 h 1 1 v -1 h 1 v -1 h 1 1 v -1 h 1 v 1 h 1 1 1 v 1 h 1 v -1 1 -1 h 1 1 v 1 h 1 v 1 h 1 1 v -1 h 1 v -1 -1 h 1 v -1 h 1 v -1 -1 h 1 1 1 1 1 v -1 h 1 v 1 -1 h 1 v 1 h -1 1 1 v 1 -1 h 1 v 1 -1 h 1 v 1 h 1 v -1 h 1 1 v -1 1 h 1 v -1 h 1 1 v 1 -1 1 h 1 v 1 h 1 v -1 1 -1 h 1 v 1 1 1 -1 h 1 v 1 h -1 v 1 h 1 v 1 h 1 v 1 h 1 v -1 h 1 1 1 v 1 h 1 1 v 1 h -1 v 1 h 1 l 1,1 h 1 1 v 1 h 1 v 1 1 1 h 1 l 1,1 h 1 v 1 1 1 1 1 h 1 v 1 h 1 v 1 h -1 1 v 1 h 1 v 1 h 1 v 1 h 1 l -1,1 v 1 h -1 1 v 1 h 1 -1 l 1,1 v 1 h -1 v 1 1 h -1 1 v 1 h 1 1 v 1 1 h -1 1 v 1 h 1 l 1,-1 h -1 v -1 h 1 1 1 v 1 h 1 v 1 -1 h 1 1 -1 v -1 -1 h 1 v -1 h 1 v 1 1 h 1 v 1 h 1 1 1 1 v 1 1 1 -1 h 1 v 1 h -1 1 v -1 h 1 v 1 h 1 v -1 h 1 v -1 h -1 1 v -1 h 1 v 1 h 1 1 v -1 -1 h -1 v -1 h 1 1 v 1 h 1 v -1 h -1 -1 l 1,-1 v 1 -1 1 h 1 1 v -1 h -1 v -1 h 1 v 1 h 1 v -1 h 1 v 1 -1 -1 h 1 1 v 1 -1 h 1 v 1 h 1 v -1 h 1 v -1 -1 h 1 1 v 1 h -1 v 1 h 1 1 v 1 1 h 1 v 1 1 1 1 1 1 h -1 1 v 1 1 h 1 v 1 1 h 1 1 v 1 -1 1 h 1 1 v -1 1 h 1 v -1 h 1 1 v 1 1 h 1 v 1 h 1 v 1 1 1 1 h -1 v 1 1 h 1 v 1 h 1 v 1 h 1 v 1 h -1 1 v 1 h 1 v 1 1 1 h 1 l 1,1 h 1 v 1 h 1 v 1 h 1 v 1 h 1 v -1 h 1 1 v 1 1 1 h 1 v 1 h 1 v 1 h -1 v 1 h -1 v 1 h -1 v 1 1 h 1 v 1 h 1 v 1 h 1 v 1 1 1 h 1 1 1 1 v 1 h 1 v 1 h 1 v -1 h 1 v 1 h 1 1 v -1 h 1 v 1 -1 h 1 v -1 h 1 v 1 h -1 v 1 h 1 l 1,1 1,1 v 1 1 1 h -1 v 1 1 h 1 1 l -1,1 h 1 l 1,1 h 1 v 1 h 1 1 v 1 1 1 1 1 h -1 v 1 1 1 1 l 1,1 h -1 v 1 1 1 h -1 v 1 1 h 1 v 1 1 1 1 1 h -1 v 1 1 1 1 h 1 v 1 h -1 1 v 1 1 1 1 1 1 h -1 -1 -1 v 1 h -1 -1 v 1 h -1 v 1 h -1 v 1 h -1 -1 -1 v -1 h -1 v -1 h -1 -1 v -1 h -1 v -1 -1 -1 -1 -1 h -1 -1 v -1 h -1 v -1 h -1 1 -1 -1 v 1 h -1 v -1 1 h -1 v 1 h -1 v -1 -1 -1 -1 h -1 v -1 h -1 v -1 h 1 -1 v -1 h -1 v -1 -1 h -1 v -1 h -1 -1 -1 v 1 h -1 v -1 1 l -1,-1 h -1 v 1 -1 h -1 v -1 -1 h -1 -1 -1 -1 -1 l -1,1 h 1 v 1 h -1 v 1 h -1 v 1 1 h -1 v 1 h -1 v 1 h -1 -1"
           id="path5" />
        <path
           d="m 608,452 v 1 h -1 1 v -1"
           id="path7" />
        <path
           d="m 593,453 v 1 -1 -1 1"
           id="path9" />
      </g>
      <g
         id="aree_bollettino_—_aree_bollettino_new_3">
        <path
           d="m 350,584 h -1 v -1 h -1 v -1 h -1 v -1 l -1,-1 v -1 -1 l -1,-1 h -1 v -1 l -1,1 v -1 h -1 -1 v -1 h 1 v -1 h 1 v -1 -1 -1 -1 -1 -1 -1 -1 -1 h -1 v -1 h 1 1 v 1 -1 h 1 1 v -1 l 1,1 h 1 v -1 h 1 v -1 l 1,1 v -1 h -1 v -1 h -1 v -1 h -1 -1 v -1 h -1 v -1 -1 -1 -1 h -1 -1 -1 v -1 h -1 v -1 -1 -1 h -1 -1 v -1 -1 -1 h -1 v -1 -1 -1 -1 -1 h -1 v -1 h 1 1 1 v -1 h 1 v -1 -1 h 1 1 1 1 v -1 h 1 v -1 -1 h 1 1 v -1 h 1 v -1 -1 -1 -1 -1 h 1 -1 l 1,-1 h 1 v -1 -1 -1 h 1 1 v 1 l 1,-1 v -1 h -1 v -1 l -1,-1 v -1 -1 l -1,-1 v -1 h 1 v -1 h 1 v -1 -1 -1 h 1 1 v -1 h 1 v -1 h 1 1 1 v 1 -1 h 1 1 1 1 1 v 1 h 1 v 1 h 1 1 1 l 1,1 v -1 -1 -1 -1 h -1 v -1 -1 -1 -1 h 1 1 1 l 1,-1 h 1 1 1 v -1 h 1 v -1 -1 h 1 1 1 v -1 -1 h 1 v -1 l 1,-1 h 1 1 1 1 1 1 l 1,-1 h 1 1 v -1 h 1 1 1 1 1 v -1 h 1 1 v -1 h 1 v 1 h 1 v -1 h 1 v 1 h 1 1 1 1 v -1 1 h 1 v -1 h 1 v 1 l 1,1 v 1 1 1 h -1 v 1 h 1 1 1 v -1 h 1 1 v -1 h 1 1 l 1,1 v -1 h 1 1 v -1 1 h 1 1 1 v -1 -1 -1 l 1,1 h 1 1 v -1 1 h 1 -1 -1 -1 v 1 1 h 1 v 1 -1 h 1 v 1 h 1 v 1 h 1 v -1 h -1 1 1 v -1 h 1 v 1 -1 h 1 -1 1 v -1 h 1 v 1 -1 -1 1 h 1 v -1 -1 h 1 v -1 l 1,1 h 1 -1 v -1 h 1 v -1 -1 h 1 v 1 -1 h 1 1 1 v -1 h 1 v -1 h -1 v -1 h 1 v -1 h 1 v 1 1 -1 h 1 v 1 h 1 1 v -1 -1 -1 h -1 1 -1 v -1 h 1 -1 v -1 h 1 v -1 1 h 1 v -1 1 h 1 v 1 h 1 v -1 h -1 v -1 h 1 v -1 -1 1 1 1 h 1 v -1 h 1 v 1 l 1,1 v -1 h -1 1 l -1,-1 h 1 1 v 1 l 1,1 h -1 v 1 h 1 -1 v 1 h 1 v 1 -1 h 1 l 1,1 h 1 l 1,1 1,-1 h 1 1 v -1 1 h 1 1 v 1 -1 h 1 1 1 1 v 1 l 1,-1 v 1 -1 1 h 1 -1 v 1 h -1 1 v 1 1 1 h -1 v 1 1 h 1 v 1 h -1 1 -1 v 1 1 h -1 v 1 h -1 v 1 h -1 v 1 1 1 h 1 l 1,1 h 1 v 1 h 1 1 v 1 h -1 v 1 -1 1 1 1 1 1 h -1 1 v 1 h 1 v 1 l 2,1 v -1 h 1 1 1 1 1 1 v 1 h 1 1 1 1 1 v 1 h 1 1 v 1 l 1,1 h 1 v -1 h -1 1 v -1 -1 l 1,1 v 1 h -1 1 v 1 1 h 1 v 1 1 l -1,1 h 1 v 1 1 h -1 v 1 1 h 1 1 v 1 h 1 v 1 1 h -1 v 1 h -1 l -1,1 h -1 v 1 1 1 h 1 v 1 1 h 1 v 1 h -1 v 1 1 h 1 v 1 l -1,1 h -1 1 -1 v 1 h 1 v 1 h 1 v 1 1 1 h -1 v 1 h -1 v 1 h -1 v 1 1 1 h 1 v 1 1 1 l 1,1 h -1 v 1 h -1 v 1 h -1 v -1 1 h -1 -1 -1 v 1 h -1 -1 -1 v 1 -1 h -1 v 1 h -1 v 1 h -1 -1 l -1,1 v 1 h -1 v 1 l -1,-1 h -1 v 1 h -1 v 1 1 h -1 v 1 h -1 v 1 h -1 v 1 h -1 v 1 -1 h -1 v -1 h -1 v -1 h -1 1 -1 v -1 h -1 v 1 h -1 v 1 h -1 v 1 -1 1 h -1 v 1 h -1 1 v 1 h -1 v 1 1 1 h -1 v 1 -1 1 1 h -1 v 1 1 l -1,1 v 1 l -1,1 v 1 l -1,-1 v -1 -1 h -1 l -1,-1 -1,-1 v -1 -1 h -1 -1 v -1 h -1 -1 v 1 1 1 -1 1 h -1 -1 -1 -1 -1 -1 -1 v 1 h -1 -1 -1 v 1 h -1 v 1 l -1,1 -1,1 -1,1 -1,1 h -2 -1 v 1 h -1 v 1 h -1 v 1 l -1,1 v -1 1 -1 1 l -1,-1 v 1 -1 1 -1 1 -1 1 h -1 v -1 h -1 -1 -1 -1 -1 v 1 1 h -1 v 1 h -1 v -1 h -1 v 1 1 h -1 v 1 h -1 v 1 h -1 l -1,-1 h -1 -1 -1 -1 -1 -1 -1 v 1 1 h -1 v 1 h -1 v 1 -1 h -1 -1 -1 -1 v 1 h -1 -1 -1 v 1 h -1 -1 v 1 1 1 1 l -1,1 v 1 1 1 h -1 v 1 h -1 v 1 h -1 -1 -1 -1 l -1,-1 v -1 l -1,1 h -1 v 1 h -1 l -1,-1 -1,-1 v -1 h -1 -1 v -1 h -1 -1 -1 v -1 -1 h -1 l -1,-1 h -1 v 1 h -1 1 -1 -1 -1 -1 v 1 h -1 -1 l -1,-1 v -1 h -1 v -1 h -1 v -1 -1 h -1 v -1 -1 -1 -1 -1 -1 l -1,-1 h -1 v -1 l -1,1 -1,-1 v -1 l -1,-1 v -1 h -1 l 1,-1 -1,-1 v -1"
           id="path12" />
        <path
           d="m 423,500 v -1 -1 1 h 1 v 1 h -1"
           id="path14" />
      </g>
      <g
         id="aree_bollettino_—_aree_bollettino_new_4">
        <path
           d="m 391,416 h 1 l 1,1 h 1 l 1,-1 h 1 v 1 l 1,-1 h 1 v 1 h 1 v 1 h 1 v 1 l 1,-1 h 1 1 1 1 l 1,1 h 1 1 1 v 1 h 1 1 1 1 1 v 1 h 1 v 1 h 1 v 1 1 1 l 1,1 v 1 h 1 v 1 h 1 l 1,1 1,1 h 1 v 1 1 h 1 1 v -1 h 1 1 v -1 h 1 1 v 1 h 1 v 1 h 1 1 1 v 1 h 1 v 1 1 h 1 v 1 h 1 v 1 -1 h 1 v 1 1 -1 h 1 v 1 h -1 v 1 1 1 1 h 1 v 1 1 h 1 -1 1 v 1 1 l 1,1 v 1 h 1 1 v 1 h 1 v 1 h 1 v -1 1 l -1,1 v 1 -1 h -1 v 1 h 1 v 1 h 1 1 1 v 1 h 1 v -1 h 1 v 1 h 1 1 v -1 1 h 1 l 1,1 h -1 v 1 1 1 1 h -1 v 1 1 h -1 1 v 1 h 1 v -1 1 h 1 v -1 1 -1 h 1 v -1 h 1 1 v -1 1 1 h 1 v 1 l 1,1 v 1 h -1 v 1 h -1 -1 v 1 h 1 1 v 1 h -1 v 1 h 1 1 -1 v 1 h 1 1 v -1 h 1 v -1 h 1 v 1 h 1 v -1 -1 h -1 v 1 l -1,-1 v -1 h 1 v -1 h -1 v -1 l 1,-1 v -1 h 1 v -1 -1 -1 -1 -1 h 1 v -1 h 1 v 1 h 1 v 1 -1 h 1 v 1 h 1 v 1 -1 -1 -1 -1 -1 h 1 1 -1 1 v -1 -1 h 1 v -1 h 1 1 v -1 h 1 -1 l 1,-1 v -1 h 1 1 v 1 -1 h 1 v -1 h -1 v -1 h 1 -1 1 v -1 h 1 v 1 h 1 v 1 h 1 1 1 v 1 h 1 v 1 h 1 v 1 -1 h 1 v 1 -1 -1 h -1 v -1 l 1,-1 v -1 h 1 1 1 v 1 h 1 v 1 h 1 v 1 1 h 1 v -1 -1 h 1 -1 v -1 h 1 v 1 h 1 v 1 h 1 v 1 1 h -1 v 1 h -1 v 1 h -1 -1 -1 v 1 h -1 v 1 h 1 -1 v 1 1 h 1 1 v 1 h 1 -1 v 1 1 1 l -1,1 h -1 v 1 h -1 v 1 h -1 v 1 1 1 1 1 h -1 v 1 h -1 -1 1 v 1 1 1 1 h 1 1 1 1 v 1 h 1 v 1 1 1 h -1 v 1 -1 h -1 -1 -1 -1 v 1 1 h 1 v 1 -1 1 h 1 v -1 h 1 1 v 1 1 h 1 v 1 1 1 h 1 v 1 h 1 v 1 1 h -1 1 -1 v 1 h -1 v 1 h -1 -1 v 1 h -1 v 1 h -1 -1 v -1 h -1 v -1 -1 h -1 v 1 h -1 v 1 1 h -1 v -1 -1 h -1 -1 v -1 h -1 v -1 h -1 -1 v -1 h -1 v -1 h -1 v -1 1 1 1 h -1 -1 v -1 h -1 v 1 h -1 -1 v 1 h 1 -1 v 1 l -1,1 v 1 1 h -1 v -1 1 h -1 -1 -1 -1 v 1 -1 h -1 v 1 -1 h -1 -1 v -1 1 h -1 -1 l -1,1 h -1 v -1 h -1 v -1 h -1 -1 v 1 -1 h -1 v -1 h 1 -1 v -1 h 1 v -1 h -1 v -1 h -1 v -1 1 h -1 1 v 1 h -1 v -1 h -1 v 1 h -1 v -1 -1 -1 1 1 h -1 v 1 h 1 v 1 h -1 v -1 h -1 v -1 1 h -1 v -1 1 h -1 1 l -1,1 h 1 -1 v 1 h 1 -1 1 v 1 1 1 h -1 -1 v -1 h -1 v 1 -1 -1 h -1 v 1 h -1 v 1 h 1 v 1 h -1 v 1 h -1 -1 -1 v 1 -1 h -1 v 1 1 h -1 v 1 h 1 -1 l -1,-1 v 1 h -1 v 1 1 h -1 v -1 1 1 l -1,-1 v 1 h -1 -1 v 1 h -1 -1 v 1 -1 h -1 v -1 h -1 v 1 -1 h -1 v -1 -1 h 1 1 1 -1 v -1 1 h -1 -1 l -1,-1 v 1 1 1 h -1 -1 -1 v -1 1 h -1 -1 v 1 l -1,-1 h -1 -1 v 1 h -1 -1 v 1 h -1 -1 -1 v -1 h 1 v -1 -1 -1 l -1,-1 v -1 h -1 l -1,1 v -1 1 h -1 -1 -1 -1 v -1 h -1 v 1 h -1 -1 -1 v 1 h -1 -1 -1 -1 v 1 h -1 v -1 1 h -1 -1 -1 l -1,1 h -1 -1 -1 -1 -1 -1 -1 v 1 1 h -1 v 1 1 h -1 v 1 h -1 v -1 h -1 v 1 1 h -1 v 1 h -1 v 1 l -1,-1 v 1 h -1 -1 -1 v 1 -1 h -1 -1 -1 v 1 -1 h -1 -1 -1 v -1 -1 h -1 v -1 -1 h -1 v -1 h 1 -1 v -1 -1 -1 -1 -1 -1 l -1,-1 v -1 h -1 l -1,-1 v -1 h 1 v -1 -1 h 1 v -1 h 1 v -1 -1 -1 h -1 -1 v -1 -1 -1 h -1 l 1,-1 h -1 v 1 l -1,-1 h -1 -1 -1 l -1,-1 -1,-1 h -1 l -1,-1 h -1 v -1 1 h -1 v 1 1 h -1 v 1 h -1 -1 v -1 h -1 -1 -1 -1 -1 v -1 h -1 v -1 h -1 -1 -1 v -1 h -1 v -1 h -1 -1 v -1 h -1 v -1 l -1,-1 v -1 h -1 -1 v -1 h -1 v -1 -1 h -1 -1 -1 -1 v -1 -1 h 1 v -1 h -1 v -1 h 1 v -1 h 1 v -1 h -1 v -1 1 h -1 v -1 h 1 v -1 h 1 l 1,-3 v -2 l -2,-1 v -2 h -1 l -1,-1 1,-1 1,-1 v -1 l -1,-1 -1,-1 h -1 -1 l -1,-1 h -1 -1 -1 -1 -1 -1 v -1 -1 h -1 v -1 h 1 v -1 -1 h -1 v -1 -1 -1 -1 -1 h -1 -1 v -1 -1 -1 h -1 l -1,-1 v -1 -1 -1 h 1 v -1 h 1 1 v -1 h 1 1 v -1 h 1 v -1 l 1,-1 v -1 h 1 1 1 l 1,-1 1,1 1,1 h 1 1 1 v -1 l 1,-1 1,-1 1,-1 h 1 1 v 1 h 1 1 v 1 h 1 1 l 1,1 h 1 l 2,2 h 1 v 1 h 1 1 1 v -1 h 1 2 v -1 h 1 l -1,-1 v -1 l -1,-1 v -1 h 1 v -1 h 1 1 1 1 l 1,-1 h 1 1 1 -1 v -1 h 1 v -1 1 h 1 v -1 -1 h -1 1 v -1 h 1 1 v -1 h -1 v -1 -1 h 1 1 1 1 v -1 h 1 v -1 h 1 v 1 h 1 1 v -1 1 h 1 v -1 h 1 v -1 h 1 1 v 1 h 1 v 1 h 1 v 1 1 h 1 l 1,1 h 1 1 v 1 h 1 v 1 h 1 1 1 v 1 h 1 1 1 v -1 h 1 1 1 1 1 1 v -1 h 1 v 1 h 1 1 v -1 h 1"
           id="path17" />
        <path
           d="m 424,500 v -1 h -1 v -1 1 1 h 1"
           id="path19" />
      </g>
      <g
         id="aree_bollettino_—_aree_bollettino_new_5">
        <path
           d="m 451,575 h 1 v -1 -1 -1 h 1 v -1 h -1 1 v -1 h 1 v -1 1 -1 h 1 v -1 h 1 v -1 h 1 v 1 h 1 -1 1 v 1 h 1 l 1,1 v 1 -1 h 1 v 1 -1 -1 h 1 v -1 h 1 1 -1 v -1 h 1 v -1 -1 h 1 v -1 h 1 1 1 v -1 h 1 v -1 h 1 1 v -1 h 1 v -1 h 1 1 1 1 1 v -1 h 1 1 v -1 1 h 1 v -1 l 1,-1 h 1 v -1 h -1 v -1 -1 -1 h -1 v -1 -1 -1 h 1 v -1 h 1 v -1 h 1 v -1 -1 -1 h -1 v -1 h -1 v -1 h 1 -1 1 1 v -1 -1 h -1 v -1 -1 h 1 v -1 h -1 v -1 -1 h -1 v -1 -1 -1 h 1 1 v -1 h 1 v -1 h 1 v -1 -1 h -1 v -1 h -1 -1 v -1 l 1,-1 h -1 1 v -1 -1 h -1 1 v -1 -1 -1 1 -1 h -1 v -1 -1 h -1 v 1 h -1 -1 v -1 h -1 v -1 h -1 v -1 h -1 -1 -1 -1 -1 v -1 h -1 -1 -1 -1 -1 -1 v 1 l -1,-1 h -1 v -1 l -1,-1 h -1 1 -1 1 v -1 -1 -1 -1 -1 h 1 v -1 h -1 -1 v -1 h -1 l -1,-1 h -1 -1 v -1 h 1 v -1 -1 h 1 v -1 h 1 v -1 h 1 v -1 -1 h 1 -1 1 v -1 h -1 v -1 -1 h 1 v -1 -1 -1 h -1 l 1,-1 h 1 -1 v -1 1 -1 h -1 v 1 -1 1 -1 1 -1 h 1 v -1 1 h 1 v -1 -1 l 1,-1 v -1 h 1 v -1 h 1 v -1 h 1 v 1 h 1 1 v -1 -1 -1 1 -1 1 h 1 v 1 h 1 v 1 h 1 l 1,1 v -1 1 h 1 v 1 h 1 v -1 h 1 v 1 1 1 -1 h 1 v -1 h 1 v -1 h 1 v 1 1 h 1 v 1 h 1 1 v -1 h 1 v -1 h 1 1 v -1 h 1 v -1 h 1 v -1 h 1 1 v -1 h 1 v -1 1 h 1 v 1 h 1 v -1 1 1 1 h 1 v 1 1 1 h 1 v -1 1 1 h 1 1 -1 1 v 1 h 1 v -1 h 1 1 v 1 h 1 v 1 1 h 1 v 1 -1 h 1 v -1 -1 h 1 v 1 -1 1 -1 1 h 1 1 1 v -1 h 1 v -1 h 1 v -1 h 1 v 1 1 h 1 -1 v 1 h 1 v -1 h 1 1 1 v 1 1 1 1 h -1 1 v 1 1 h 1 -1 -1 v 1 1 h -1 -1 -1 v 1 h 1 -1 v 1 h -1 v 1 h 1 v 1 h 1 l 1,1 v -1 h 1 v 1 h 1 1 v 1 1 h -1 1 v 1 1 h 1 v 1 1 h 1 1 v -1 -1 1 h 1 v -1 h -1 v -1 -1 h 1 v 1 h 1 v -1 -1 h 1 v -1 -1 h 1 1 1 v 1 h 1 -1 v 1 1 h 1 v 1 1 h 1 v -1 h 1 v 1 h 1 1 1 v -1 h 1 v 1 1 l 1,1 v 1 -1 l 1,1 h -1 v 1 1 h -1 v 1 h -1 v 1 h -1 v 1 h -1 v 1 h -1 -1 v 1 h 1 -1 v 1 h 1 -1 v 1 h 1 v 1 h -1 v 1 h -1 v 1 h -1 v 1 1 h -1 v 1 h -1 v 1 h 1 v 1 1 h 1 1 1 v 1 1 1 h 1 1 -1 v 1 1 1 h 1 1 v 1 1 1 h -1 v 1 1 1 -1 1 h 1 -1 v 1 h 1 v 1 l 1,1 v 1 1 1 h -1 l -1,1 h -1 -1 v 1 1 1 h -1 v 1 1 h 1 v 1 1 h -1 -1 v 1 h -1 v -1 l -1,1 v 1 1 l 1,1 1,1 v 1 h -1 1 v 1 h 1 v 1 1 1 h 1 v 1 h -1 v 1 h -1 v 1 1 1 h -1 -1 v 1 h -1 v 1 -1 h -1 -1 v 1 h -1 v 1 h -1 -1 v 1 -1 l -1,1 h 1 v 1 h -1 v 1 h -1 v 1 h 1 v 1 1 h 1 l -1,1 v 1 l -1,1 v 1 1 h -1 v -1 h -1 1 -1 -1 v 1 1 l -1,1 v 1 1 h -1 v 1 1 -1 h -1 -1 l -1,-1 h -1 v -1 1 h -1 1 -1 v 1 h -1 v 1 h 1 v 1 h -1 v 1 h 1 1 1 v 1 1 h 1 v 1 1 h -1 v 1 h -1 v 1 h -1 v 1 h -1 1 v 1 h 1 v 1 h 1 v 1 h -1 v 1 h -1 v 1 1 1 1 h 1 v 1 h 1 1 v 1 h 1 v 1 h -1 v 1 1 h 1 v 1 1 h -1 v 1 h -1 v 1 1 h -1 v 1 1 h -1 v 1 h -1 -1 -1 -1 v -1 h -1 v -1 h -1 l -1,-1 h -1 v 1 h -1 -1 v 1 h -1 v 1 h -1 v 1 h -1 1 v 1 h 1 v 1 h 1 1 v 1 h 1 -1 v 1 1 -1 h 1 v 1 h 1 -1 v 1 h -1 v 1 -1 h -1 v -1 h -1 -1 -1 v -1 h -1 v 1 h -1 v 1 h -1 -1 v 1 h -1 -1 v -1 -1 h -1 -1 -1 -1 v 1 h -1 -1 -1 v -1 -1 h -1 -1 v -1 h -1 -1 -1 -1 -1 v -1 h -1 v 1 -1 1 -1 h -1 -1 v -1 h -1 -1 v -1 h -1 -1 v -1 h -1 -1 -1 -1 v 1 h -1 v 1 h -1 -1 l -1,1 v 1 1 1 h -1 v 1 h 1 v 1 1 h 1 v 1 1 h 1 1 1 v -1 h 1 v 1 h -1 l -1,1 h -1 v 1 h -1 v 1 1 h -1 -1 -1 1 v -1 -1 -1 -1 -1 h -1 v -1 h -1 v -1 h -1 v -1 -1 h -1 v -1 h -1 v -1 h -1 v -1 -1 h -1 v -1 h 1 v -1 h 1 v -1 -1 h -1 v -1 -1 h 1 v -1 -1 h 1 v -1 h -1 l -1,-1 h -1 1 v 1 h -1 -1 v -1 1 h -1 v -1 h -1 -1 v 1 h -1 v 1 1 1 1 h -1 v 1 h -1 -1 -1 v -1 h -1 -1 -1 -1 -1 v -1 1 1 h -1 -1 -1 -1 -1 v 1 1 h -1 -1 v -1 h -1 v -1 1 h -1 -1 v 1 h -1 l -1,1 v -1 1 h -1 -1 l -1,1 -1,-1 h -1 -1 -1 v 1 l -1,1 v 1 -1 h -1 -1 l -1,-1 -1,-1 v 1 h -1 l -2,1 h -1 -1 v -1 -1 h -1 v -1 -1 -1 h -1 -1 -1 -1 l -1,-1 v 1 h -1 -1 -1 l -1,1 v -1 h -1 v -1 h -1 -1 v -1 h -1 v -1 h -1 v -2 -1 h -1 -1 v 1 h -1 -1 v -1 h -1 l -1,-1 v -1 -1 1 h -1 v -1 -1 l -1,-1 h 1 1 v -1 h 1 v -1 h 1 v -1 -1 -1 l 1,-1 v -1 -1 -1 -1 h 1 1 v -1 h 1 1 1 v -1 h 1 1 1 1 v 1 -1 h 1 v -1 h 1 v -1 -1 h 1 1 1 1 1 1 1 l 1,1 h 1 v -1 h 1 v -1 h 1 v -1 -1 h 1 v 1 h 1 v -1 h 1 v -1 -1 h 1 1 1 1 1 v 1 h 1 v -1 1 -1 1 -1 l 1,1 v -1 1 l 1,-1 v -1 h 1 v -1 h 1 v -1 h 1 1 1 1 v -1 h 1 v -1 h 1 v -1 -1 h 1 v -1 h 1 v -1 h 1 1 1 v -1 h 1 1 1 1 2 1 v -1 1 -1 -1 -1 h 1 1 v 1 h 1 1 v 1 1 l 1,1 v 1 h 2 v 2 h 1 v 1 -1 l 1,-1 v -1 h 1 v -1 -1 l 1,-1 v -1 -1"
           id="path22" />
      </g>
      <g
         id="aree_bollettino_—_aree_bollettino_new_6">
        <path
           d="m 387,376 v -1 h -1 -1 -1 v -1 h -1 v -1 -1 h -1 -1 -1 v -1 h -1 -1 v -1 h -1 1 v -1 h -1 v -1 -1 h -1 v -1 -1 h -1 1 v -1 h 1 v -1 h 1 v -1 -1 -1 -1 h 1 v -1 -1 -1 -1 h 1 1 v -1 1 1 h 1 v 1 h -1 v 1 h 1 v 1 h -1 v 1 1 l 1,1 v -1 h 1 -1 1 v -1 h 1 1 v 1 h 1 1 1 1 v 1 h 1 v 1 h 1 1 v 1 l 1,-1 h 1 v -1 h -1 1 v -1 h 1 v -1 h 1 v -1 h 1 v -1 h 1 v -1 -1 h 1 1 1 l 1,-1 h 1 1 1 1 1 v -1 h 1 1 1 1 v -1 1 h 1 l 1,1 h 1 v -1 h 1 v -1 h 1 v -1 h 1 1 1 v -1 -1 -1 1 h 1 v -1 h 1 1 v -1 h 1 v -1 h 1 v -1 -1 h 1 v -1 h 1 1 v -1 h 1 l 1,-1 h 1 v 1 h 1 1 l 1,1 h 1 1 v -1 h 1 v -1 h 1 1 v -1 h 1 1 v 1 h 1 v 1 h 1 1 v 1 h 1 v 1 h 1 v 1 1 h 1 v -1 h 1 1 v -1 h 1 v 1 h 1 l 1,1 h 1 v 1 h 1 v 1 h 1 1 v -1 h 1 v -1 1 h 1 1 1 1 l 1,1 h 1 1 v -1 h 1 v -1 h 1 1 v -1 h 1 1 v -1 h 1 v -1 h 1 v -1 h 1 v -1 1 -1 h 1 1 v -1 h 1 1 v -1 1 h 1 1 v -1 h 1 1 v 1 h 1 v -1 h 1 1 v 1 h 1 v 1 h 1 l -1,1 v 1 h 1 v 1 1 1 h 1 v 1 h -1 v 1 1 h -1 v 1 1 h -1 v 1 1 h 1 1 1 v 1 h 1 1 v 1 1 1 h 1 v 1 h 1 v 1 h 1 v 1 h 1 v 1 h 1 v 1 h 1 v 1 1 h 1 1 -1 1 v 1 h 1 v 1 h 1 1 v 1 h 1 1 v 1 h 1 -1 1 v 1 h 1 v 1 h 1 -1 v 1 h 1 v 1 h -1 -1 v 1 1 h -1 1 v 1 1 1 1 h -1 v -1 h -1 v 1 1 1 1 1 1 1 h 1 v 1 h 1 v 1 h -1 1 v 1 h -1 v 1 1 1 1 1 -1 h -1 v -1 1 -1 h -1 v -1 h -1 -1 v -1 h -1 -1 v 1 h -1 v -1 h -1 v 1 h -1 1 v 1 1 l -1,1 v 1 1 1 h -1 v 1 h 1 v -1 h 1 1 v -1 h 1 1 v 1 h 1 v 1 1 1 1 1 1 1 1 1 h -1 v 1 h -1 1 v 1 1 2 1 l 1,-1 v 1 1 1 h 1 v 1 h 1 v 1 h 1 v 1 h 1 1 v 1 h 1 v 1 -1 -1 h 1 v 1 1 1 h 1 -1 v 1 h 1 v 1 h 1 1 v -1 h 1 v 1 h 1 v -1 h 1 1 v 1 h 1 1 1 1 v 1 h -1 1 1 1 v 1 h 1 -1 l 1,1 v 1 h -1 v 1 1 1 1 h -1 v 1 1 1 h -1 -1 -1 l -1,-1 h -1 v 1 h -1 1 v 1 h -1 v 1 1 h -1 v 1 1 h -1 1 -1 -1 -1 v -1 h -1 v -1 h -1 v -1 -1 -1 -1 h -1 -1 v -1 h -1 v 1 1 h -1 -1 v -1 h -1 -1 -1 -1 1 v 1 h -1 -1 v 1 h -1 -1 -1 v 1 h -1 -1 v 1 h -1 v 1 l 1,1 v 1 h 1 -1 v 1 h 1 -1 v 1 h -1 -1 v 1 1 l -1,-1 v -1 -1 h -1 v -1 -1 1 -1 h -1 v 1 -1 1 h -1 1 -1 v 1 l 1,1 h -1 v 1 h 1 v 1 h -1 v 1 1 1 l -1,1 1,1 v 1 1 -1 h -1 v 1 -1 h -1 v -1 h -1 v -1 h -1 -1 -1 v -1 h -1 v -1 h -1 v 1 h -1 1 -1 v 1 h 1 v 1 h -1 v 1 -1 h -1 -1 v 1 l -1,1 h 1 -1 v 1 h -1 l -1,1 h -1 v 1 1 h -1 1 -1 -1 v 1 1 1 1 1 -1 h -1 v -1 h -1 v 1 -1 h -1 v -1 h -1 v 1 h -1 v 1 1 1 1 1 h -1 v 1 l -1,1 v 1 h 1 v 1 h -1 v 1 l 1,1 v -1 h 1 v 1 1 h -1 v -1 h -1 v 1 h -1 v 1 h -1 -1 v -1 h 1 -1 -1 v -1 h 1 v -1 h -1 -1 v -1 h 1 1 v -1 h 1 v -1 -1 h -1 v -1 h -1 v -1 -1 1 h -1 -1 v 1 h -1 v 1 -1 1 h -1 v -1 1 h -1 v -1 h -1 1 v -1 -1 h 1 v -1 -1 -1 -1 h 1 l -1,-1 h -1 v -1 1 h -1 -1 v -1 h -1 v 1 h -1 v -1 h -1 -1 -1 v -1 h -1 v -1 h 1 l 1,-1 v -1 1 h -1 v -1 h -1 v -1 h -1 -1 v -1 -1 h -1 v -1 -1 h -1 v -1 -1 -1 h -1 v -1 -1 -1 h 1 v -1 h -1 v 1 -1 -1 h -1 v 1 -1 h -1 v -1 h -1 v -1 -1 h -1 v -1 h -1 -1 -1 v -1 h -1 v -1 h -1 -1 v 1 h -1 -1 v 1 h -1 -1 v -1 -1 h -1 -1 v -1 -1 h -1 -1 v -1 h -1 v -1 l -1,-1 v -1 -1 -1 h -1 v -1 h -1 v -1 h -1 -1 -1 -1 -1 v -1 h -1 -1 -1 l -1,-1 h -1 -1 -1 -1 l -1,1 v -1 h -1 v -1 h -1 v -1 h -1 l -1,1 v -1 h -1 l -1,1 h -1 -1 v -1 h -1 -1 v 1 h -1 v -1 1 h -1 v -1 h -1 v 1 h -1 -1 -1 -1 -1 -1 v 1 h -1 -1 -1 v -1 h -1 -1 -1 v -1 h -1 v -1 h -1 -1 l -1,-1 h -1 v -1 l 2,-1 v -1 -1 h 1 l 1,-1 h 1 v -1 h 1 v -1 -1 h 1 v 1 h 1 v -1 h 1 v -1 h 1 v -1 h -1 v -1 -1 -1 h 1 v -1 -1 h -1 v -1 h -1 v -1 -1 -1 h -1 v -1 -1 l -1,-1 h 1 v -1 h -1 v -1 h 1 l 1,1 h 1 v -1 h 1 v -1 l -1,-1 h 1 v -1 -1 h 1 1 l 1,-1 h 1 l -1,-1 v -1 -1 h 1 v -1 -1 h 1 1 v -1 -1 -1 h 1 v -1"
           id="path25" />
      </g>
      <text
         xml:space="preserve"
         id="text14692"
         style="font-style:normal;font-variant:normal;font-weight:normal;font-stretch:normal;font-size:16px;line-height:1.25;font-family:'Titillium Web';-inkscape-font-specification:'Titillium Web';white-space:pre;shape-inside:url(#rect14694);fill:#000000;fill-opacity:1;stroke:none"
         transform="translate(179.01344,86.888042)"><tspan
           x="328.19922"
           y="243.14113"
           id="tspan75088">Nord</tspan></text>
      <text
         xml:space="preserve"
         id="text36436"
         style="font-style:normal;font-weight:normal;font-size:40px;line-height:1.25;font-family:sans-serif;white-space:pre;shape-inside:url(#rect36438);fill:#000000;fill-opacity:1;stroke:none" />
      <text
         xml:space="preserve"
         id="text40866"
         style="font-style:normal;font-weight:normal;font-size:40px;line-height:1.25;font-family:sans-serif;white-space:pre;shape-inside:url(#rect40868);fill:#000000;fill-opacity:1;stroke:none" />
      <text
         xml:space="preserve"
         style="font-style:normal;font-variant:normal;font-weight:normal;font-stretch:normal;font-size:16px;line-height:1.25;font-family:'Titillium Web';-inkscape-font-specification:'Titillium Web';fill:#000000;fill-opacity:1;stroke:none"
         x="386.74341"
         y="397.93329"
         id="text41512">Torino Nord</text>
      <text
         xml:space="preserve"
         style="font-style:normal;font-variant:normal;font-weight:normal;font-stretch:normal;font-size:16px;line-height:1.25;font-family:'Titillium Web';-inkscape-font-specification:'Titillium Web';fill:#000000;fill-opacity:1;stroke:none"
         x="330.68759"
         y="461.65985"
         id="text41512-4">Torino Ovest</text>
      <text
         xml:space="preserve"
         id="text43448"
         style="font-style:normal;font-weight:normal;font-size:17.3333px;line-height:1.25;font-family:sans-serif;white-space:pre;shape-inside:url(#rect43450);fill:#000000;fill-opacity:1;stroke:none" />
      <text
         xml:space="preserve"
         id="text56095"
         style="font-style:normal;font-variant:normal;font-weight:normal;font-stretch:normal;font-size:16px;line-height:1.25;font-family:'Titillium Web';-inkscape-font-specification:'Titillium Web';white-space:pre;shape-inside:url(#rect56097);fill:#000000;fill-opacity:1;stroke:none"
         transform="translate(230.22861,368.25842)"><tspan
           x="220.54883"
           y="223.45363"
           id="tspan75090">Cuneo 
</tspan><tspan
           x="208.54883"
           y="243.45363"
           id="tspan75092">Sud  Est</tspan></text>
      <text
         xml:space="preserve"
         id="text58101"
         style="font-style:normal;font-weight:normal;font-size:40px;line-height:1.25;font-family:sans-serif;white-space:pre;shape-inside:url(#rect58103);fill:#000000;fill-opacity:1;stroke:none" />
      <text
         xml:space="preserve"
         id="text56095-7"
         style="font-style:normal;font-variant:normal;font-weight:normal;font-stretch:normal;font-size:16px;line-height:1.25;font-family:'Titillium Web';-inkscape-font-specification:'Titillium Web';white-space:pre;shape-inside:url(#rect56097-4);fill:#000000;fill-opacity:1;stroke:none"
         transform="translate(157.26818,318.06575)"><tspan
           x="214.54883"
           y="223.45363"
           id="tspan75094">Cuneo Sud
</tspan><tspan
           x="214.54883"
           y="243.45363"
           id="tspan75096">    Ovest</tspan></text>
      <text
         xml:space="preserve"
         id="text67166"
         style="font-style:normal;font-weight:normal;font-size:40px;line-height:1.25;font-family:sans-serif;white-space:pre;shape-inside:url(#rect67168);fill:#000000;fill-opacity:1;stroke:none" />
      <text
         xml:space="preserve"
         id="text77052"
         style="font-style:normal;font-variant:normal;font-weight:normal;font-stretch:normal;font-size:16px;line-height:1.25;font-family:'Titillium Web';-inkscape-font-specification:'Titillium Web';white-space:pre;shape-inside:url(#rect77054);fill:#000000;fill-opacity:1;stroke:none"
         transform="translate(326.33005,176.45722)"><tspan
           x="204.55664"
           y="314.17043"
           id="tspan75098">Sud Est</tspan></text>
      <text
         xml:space="preserve"
         id="text85580"
         style="font-style:normal;font-weight:normal;font-size:40px;line-height:1.25;font-family:sans-serif;white-space:pre;shape-inside:url(#rect85582);fill:#000000;fill-opacity:1;stroke:none" />
      <text
         xml:space="preserve"
         id="text92894"
         style="font-style:normal;font-weight:normal;font-size:40px;line-height:1.25;font-family:sans-serif;white-space:pre;shape-inside:url(#rect92896);fill:#000000;fill-opacity:1;stroke:none" />
      <text
         xml:space="preserve"
         transform="translate(309.8,174.8)"
         id="text117145"
         style="line-height:1.25;font-family:sans-serif;font-size:16px;white-space:pre;shape-inside:url(#rect117147)" />
    </g>
  </g>
  <!-- QGIS extent for clipping, eg in Inkscape -->
  <g
     id="qgisviewbox"
     stroke="#ff0000"
     stroke-width="1"
     fill="none"
     transform="translate(-309.8,-174.8)">
    <path
       d="M 0,785 H 1046 V 0 H 0 v 785"
       id="path31" />
  </g>
</svg>
