<?xml version="1.0" encoding="utf-8"?>
<!-- Generator: Adobe Illustrator 22.1.0, SVG Export Plug-In . SVG Version: 6.00 Build 0)  -->
<svg version="1.1" id="Livello_1" xmlns="http://www.w3.org/2000/svg" xmlns:xlink="http://www.w3.org/1999/xlink" x="0px" y="0px"
	 viewBox="0 0 718 222" style="enable-background:new 0 0 718 222;" xml:space="preserve">
<style type="text/css">
	.st0{fill:#B3B3B3;}
	.st1{fill:#E30613;}
	.st2{fill:#0075BF;}
</style>
<g>
	<g>
		<rect x="7" y="5.7" class="st0" width="214" height="210.4"/>
		<g>
			<rect x="18.3" y="16.9" class="st1" width="69.4" height="69.4"/>
			<rect x="139.1" y="16.9" class="st1" width="69.4" height="69.4"/>
		</g>
		<g>
			<rect x="18.3" y="136.3" class="st1" width="69.4" height="69.4"/>
			<rect x="139.1" y="136.3" class="st1" width="69.4" height="69.4"/>
		</g>
	</g>
	<g>
		<path d="M307,105.7h-19.2l-24.3-41.8c-1.7,0.1-3.2,0.1-4.3,0.1c-0.4,0-0.9,0-1.4,0c-0.5,0-1-0.1-1.6-0.1V90c0,5.6,0.5,9,1.5,10.4
			c1.3,1.9,3.3,2.9,6,2.9h2.7v2.5h-30.6v-2.5h2.7c3,0,5.2-1.2,6.5-3.7c0.7-1.3,1.1-4.5,1.1-9.6V32c0-5.6-0.5-9-1.4-10.4
			c-1.3-1.9-3.4-2.9-6.1-2.9h-2.7v-2.4h26c7.5,0,13.1,0.7,16.7,2.1c3.6,1.4,6.6,3.9,9.2,7.6c2.5,3.7,3.8,8.1,3.8,13.2
			c0,5.5-1.4,10.3-4.3,14.3c-2.9,4-7.3,6.9-13.3,8.6l14.8,25.7c3.3,5.9,6.2,9.8,8.7,11.7c2.4,1.9,5.6,3.2,9.5,3.7V105.7z
			 M256.3,59.8c0.6,0,1.2,0,1.7,0c0.5,0,0.9,0,1.2,0c6.7,0,11.8-1.8,15.2-5.5c3.4-3.7,5.1-8.4,5.1-14.1c0-5.6-1.4-10.1-4.1-13.6
			c-2.8-3.5-6.4-5.2-11-5.2c-2,0-4.8,0.5-8.2,1.4V59.8z"/>
		<path d="M328.7,21.4v35.1h15.1c4.1,0,6.8-0.8,8.1-2.3c1.8-2,2.9-5.5,3.1-10.6h2v31h-2c-0.5-4.3-1-7.1-1.5-8.3
			c-0.6-1.5-1.7-2.7-3.1-3.6c-1.5-0.9-3.7-1.3-6.6-1.3h-15.1v29.2c0,3.9,0.1,6.3,0.4,7.2c0.3,0.8,0.8,1.5,1.5,2
			c0.7,0.5,2,0.8,3.9,0.8h12c4,0,7-0.3,8.8-1c1.8-0.7,3.6-2.1,5.2-4.1c2.2-2.7,4.4-6.8,6.7-12.2h2.2l-6.2,22.4h-55v-2.5h2.5
			c1.7,0,3.3-0.5,4.8-1.5c1.1-0.7,1.9-1.7,2.3-3.1c0.4-1.4,0.6-4.3,0.6-8.6V32c0-5.7-0.5-9.3-1.4-10.6c-1.2-1.8-3.3-2.7-6.3-2.7
			h-2.5v-2.4h54.9l0.8,19.6h-2.2c-0.7-4.6-1.5-7.8-2.4-9.5c-0.9-1.7-2.2-3-3.9-4c-1.4-0.7-3.8-1-7.3-1H328.7z"/>
		<path d="M438.2,14.3l1.6,28.1h-2c-1.8-7-4.2-12.3-7.2-15.8c-4.2-5.1-9.6-7.7-16.2-7.7c-9.1,0-16,4.5-20.7,13.5
			c-3.9,7.6-5.9,16.6-5.9,27c0,8.5,1.3,16.2,4,23.3c2.6,7,6.1,12.1,10.3,15.4c4.3,3.3,8.7,4.9,13.2,4.9c2.6,0,5.2-0.4,7.6-1.2
			c2.5-0.8,4.8-2,7.1-3.6V72.6c0-4.5-0.3-7.5-0.8-8.9c-0.5-1.4-1.4-2.5-2.5-3.2c-1.1-0.7-3.1-1.1-6-1.1v-2.4h27.7v2.4h-1.3
			c-2.8,0-4.7,1.2-5.7,3.5c-0.7,1.6-1.1,4.9-1.1,9.8v27.2c-4,2.7-8,4.7-11.9,6c-3.9,1.3-8.3,1.9-13.1,1.9
			c-13.8,0-24.2-5.5-31.4-16.6c-5.3-8.3-8-17.9-8-28.7c0-7.8,1.5-15.4,4.5-22.6c3.5-8.6,8.5-15.2,14.7-19.8
			c5.2-3.8,11.4-5.7,18.5-5.7c2.6,0,5,0.3,7.1,0.8c2.1,0.5,5.1,1.7,9,3.5c2,0.9,3.3,1.4,4,1.4c0.6,0,1.2-0.4,1.7-1.2
			c0.5-0.8,0.8-2.3,0.9-4.6H438.2z"/>
		<path d="M483.1,103.2v2.5h-30.6v-2.5h2.6c2.9,0,5.1-1.1,6.4-3.2c0.8-1.4,1.2-4.7,1.2-10.1V32c0-4.5-0.2-7.4-0.7-8.9
			c-0.4-1.1-1.1-2-2.2-2.8c-1.5-1-3.2-1.6-4.8-1.6h-2.6v-2.4h30.6v2.4h-2.5c-2.9,0-5,1.1-6.4,3.2c-0.9,1.4-1.3,4.7-1.3,10.1V90
			c0,4.5,0.2,7.5,0.7,8.9c0.3,1.1,1.1,2,2.2,2.8c1.5,1.1,3.1,1.6,4.8,1.6H483.1z"/>
		<path d="M525.5,14.3c9.3,0,17.3,4.4,24.1,13.2c6.8,8.8,10.2,19.8,10.2,33c0,13.6-3.4,24.8-10.3,33.8c-6.9,9-15.2,13.4-24.9,13.4
			c-9.9,0-18.2-4.4-24.9-13.1c-6.7-8.7-10.1-20-10.1-33.9c0-14.2,3.9-25.8,11.6-34.7C508,18.2,516.1,14.3,525.5,14.3z M524.4,19
			c-6.4,0-11.5,3-15.4,8.9c-4.8,7.4-7.3,18.2-7.3,32.5c0,14.6,2.5,25.8,7.5,33.7c3.8,6,8.9,9,15.2,9c6.8,0,12.3-3.3,16.7-9.8
			c4.4-6.5,6.6-16.9,6.6-31c0-15.3-2.4-26.7-7.2-34.2C536.7,22,531.3,19,524.4,19z"/>
		<path d="M562.5,16.3h19.4l43.7,66.4V31.8c0-5.5-0.5-8.9-1.5-10.3c-1.3-1.8-3.4-2.8-6.3-2.8h-2.5v-2.4h25.1v2.4h-2.5
			c-3.1,0-5.2,1.1-6.5,3.4c-0.8,1.4-1.1,4.6-1.1,9.6v75.3h-1.9l-47.2-72v55.1c0,5.5,0.5,8.9,1.4,10.3c1.4,1.8,3.5,2.8,6.3,2.8h2.5
			v2.5h-25.1v-2.5h2.5c3.1,0,5.3-1.1,6.6-3.4c0.8-1.4,1.1-4.6,1.1-9.6V28c-2.1-3-3.6-5-4.7-5.9c-1.1-1-2.6-1.8-4.7-2.7
			c-1-0.4-2.5-0.6-4.5-0.6V16.3z"/>
		<path d="M664.3,21.4v35.1h15.1c4.1,0,6.8-0.8,8.1-2.3c1.8-2,2.9-5.5,3.1-10.6h2v31h-2c-0.5-4.3-1-7.1-1.5-8.3
			c-0.6-1.5-1.6-2.7-3.1-3.6c-1.4-0.9-3.7-1.3-6.6-1.3h-15.1v29.2c0,3.9,0.1,6.3,0.4,7.2c0.3,0.8,0.8,1.5,1.5,2
			c0.7,0.5,2,0.8,3.9,0.8h12c4,0,6.9-0.3,8.8-1c1.8-0.7,3.6-2.1,5.2-4.1c2.2-2.7,4.4-6.8,6.7-12.2h2.2l-6.2,22.4h-55v-2.5h2.5
			c1.7,0,3.3-0.5,4.8-1.5c1.1-0.7,1.9-1.7,2.3-3.1c0.4-1.4,0.6-4.3,0.6-8.6V32c0-5.7-0.5-9.3-1.4-10.6c-1.2-1.8-3.3-2.7-6.3-2.7
			h-2.5v-2.4h54.8l0.8,19.6h-2.2c-0.7-4.6-1.6-7.8-2.5-9.5c-0.9-1.7-2.2-3-3.9-4c-1.4-0.7-3.8-1-7.3-1H664.3z"/>
		<path d="M253.2,169.5v22.6c0,4.9,0.4,7.9,1.3,9.1c1.1,1.7,2.8,2.5,5.2,2.5h2.3v2h-26.3v-2h2.3c2.6,0,4.5-1.1,5.6-3.2
			c0.6-1.2,0.9-4,0.9-8.4v-50c0-4.9-0.4-7.9-1.3-9.1c-1.2-1.7-2.9-2.5-5.2-2.5h-2.3v-2h22.4c5.5,0,9.8,0.7,13,2.1
			c3.2,1.4,5.8,3.8,8,7.2c2.2,3.4,3.2,7.4,3.2,12c0,6.3-1.6,11.4-4.9,15.4c-3.3,3.9-7.9,5.9-13.9,5.9c-1.5,0-3.1-0.1-4.8-0.4
			C257,170.5,255.2,170.1,253.2,169.5z M253.2,166.3c1.6,0.4,3,0.7,4.2,0.9c1.2,0.2,2.3,0.3,3.2,0.3c3.1,0,5.8-1.5,8-4.6
			c2.2-3.1,3.4-7,3.4-11.9c0-3.3-0.5-6.4-1.6-9.3c-1.1-2.9-2.6-5-4.6-6.4c-2-1.4-4.2-2.1-6.7-2.1c-1.5,0-3.5,0.4-5.9,1.1V166.3z"/>
		<path d="M314.5,203.8v2h-26.3v-2h2.2c2.5,0,4.4-0.9,5.5-2.8c0.7-1.2,1.1-4.2,1.1-8.8v-50c0-3.9-0.2-6.5-0.6-7.8
			c-0.3-1-0.9-1.8-1.9-2.5c-1.3-0.9-2.7-1.4-4.1-1.4h-2.2v-2h26.3v2h-2.2c-2.5,0-4.3,0.9-5.5,2.8c-0.8,1.2-1.1,4.2-1.1,8.8v50
			c0,3.9,0.2,6.5,0.5,7.8c0.3,1,0.9,1.8,1.9,2.5c1.3,0.9,2.6,1.4,4.1,1.4H314.5z"/>
		<path d="M336.5,133v30.2h12.8c3.6,0,5.9-0.7,7.1-1.9c1.6-1.7,2.5-4.7,2.7-9.1h1.6v26.7h-1.6c-0.5-3.7-0.9-6.1-1.3-7.2
			c-0.5-1.3-1.4-2.3-2.7-3.1c-1.3-0.8-3.2-1.1-5.8-1.1h-12.8v25.3c0,3.4,0.1,5.5,0.4,6.2c0.3,0.7,0.7,1.3,1.3,1.8
			c0.6,0.4,1.7,0.6,3.4,0.6H352c3.5,0,6-0.3,7.6-0.9c1.6-0.6,3.1-1.8,4.5-3.5c1.9-2.3,3.8-5.8,5.8-10.5h2l-5.3,19.4H319v-2h2.1
			c1.5,0,2.8-0.4,4.1-1.3c1-0.6,1.6-1.5,2-2.8c0.3-1.2,0.5-3.7,0.5-7.5v-50c0-5-0.4-8.1-1.2-9.3c-1-1.5-2.9-2.3-5.4-2.3H319v-2h47.3
			l0.6,16.9h-2c-0.6-4-1.3-6.7-2.1-8.2c-0.8-1.5-1.9-2.6-3.4-3.4c-1.2-0.6-3.3-0.8-6.3-0.8H336.5z"/>
		<path d="M412.1,205.8l-23.9-65v51.6c0,4.8,0.4,7.8,1.2,9c1.2,1.6,2.9,2.4,5.4,2.4h2.2v2h-21.6v-2h2.2c2.6,0,4.5-1,5.6-3
			c0.7-1.2,1-4,1-8.4V142c0-3.5-0.3-6-0.9-7.5c-0.4-1.1-1.2-2-2.3-2.8c-1.2-0.7-3-1.1-5.5-1.1v-2h18l22,60l22-60h17.5v2h-2.2
			c-2.6,0-4.5,1-5.6,3c-0.7,1.2-1,4-1,8.4v50.4c0,4.8,0.4,7.8,1.3,9c1.1,1.6,2.9,2.4,5.3,2.4h2.2v2h-26.3v-2h2.2c2.7,0,4.5-1,5.6-3
			c0.7-1.2,1-4,1-8.4v-51.6l-23.9,65H412.1z"/>
		<path d="M491.1,126.9c8,0,14.9,3.8,20.8,11.4c5.8,7.6,8.8,17.1,8.8,28.4c0,11.7-3,21.4-8.9,29.1c-5.9,7.7-13.1,11.6-21.4,11.6
			c-8.5,0-15.6-3.8-21.4-11.3c-5.8-7.5-8.7-17.3-8.7-29.3c0-12.2,3.3-22.2,10-29.9C476.1,130.2,483,126.9,491.1,126.9z M490.2,130.9
			c-5.5,0-9.9,2.6-13.2,7.7c-4.2,6.4-6.3,15.7-6.3,28c0,12.6,2.2,22.2,6.5,29c3.3,5.2,7.7,7.7,13.1,7.7c5.8,0,10.6-2.8,14.4-8.5
			c3.8-5.7,5.7-14.6,5.7-26.7c0-13.2-2.1-23-6.2-29.5C500.7,133.5,496.1,130.9,490.2,130.9z"/>
		<path d="M522.9,128.5h16.6l38.1,57.7V142c0-4.8-0.4-7.8-1.3-9c-1.2-1.6-2.9-2.4-5.4-2.4h-2.1v-2h21.6v2h-2.2c-2.6,0-4.5,1-5.6,3
			c-0.7,1.2-1,4-1,8.4V207H580l-41-62.2v47.4c0,4.8,0.4,7.8,1.2,9c1.2,1.6,3,2.4,5.4,2.4h2.2v2h-21.6v-2h2.1c2.7,0,4.6-1,5.7-3
			c0.7-1.2,1-4,1-8.4v-53.6c-1.8-2.7-3.1-4.4-4.1-5.3c-0.9-0.8-2.3-1.6-4.1-2.4c-0.9-0.3-2.2-0.5-3.9-0.5V128.5z"/>
		<path d="M645.5,128.5l0.6,18.2h-1.7c-0.3-3.2-0.8-5.5-1.4-6.8c-0.9-2.2-2.2-3.8-3.7-4.9c-1.5-1.1-3.6-1.6-6.1-1.6h-8.7v58.9
			c0,4.8,0.4,7.8,1.2,9c1.2,1.6,3,2.4,5.4,2.4h2.2v2H607v-2h2.2c2.7,0,4.5-1,5.6-3c0.7-1.2,1-4,1-8.4v-58.9h-7.4
			c-2.9,0-5,0.3-6.2,0.8c-1.6,0.7-3,2.1-4.1,4.2c-1.1,2.1-1.8,4.8-2,8.3h-1.7l0.6-18.2H645.5z"/>
		<path d="M668,133v30.2h12.8c3.6,0,5.9-0.7,7.1-1.9c1.6-1.7,2.5-4.7,2.7-9.1h1.6v26.7h-1.6c-0.5-3.7-0.9-6.1-1.3-7.2
			c-0.5-1.3-1.4-2.3-2.7-3.1c-1.3-0.8-3.2-1.1-5.8-1.1H668v25.3c0,3.4,0.1,5.5,0.4,6.2c0.3,0.7,0.7,1.3,1.3,1.8
			c0.6,0.4,1.7,0.6,3.4,0.6h10.4c3.5,0,6-0.3,7.6-0.9c1.6-0.6,3.1-1.8,4.5-3.5c1.9-2.3,3.8-5.8,5.8-10.5h2l-5.3,19.4h-47.5v-2h2.2
			c1.5,0,2.8-0.4,4.1-1.3c1-0.6,1.6-1.5,2-2.8c0.3-1.2,0.5-3.7,0.5-7.5v-50c0-5-0.4-8.1-1.2-9.3c-1.1-1.5-2.9-2.3-5.4-2.3h-2.2v-2
			h47.3l0.6,16.9h-2c-0.6-4-1.3-6.7-2.1-8.2c-0.8-1.5-1.9-2.6-3.4-3.4c-1.2-0.6-3.3-0.8-6.3-0.8H668z"/>
	</g>
	<polygon class="st2" points="53.1,50.9 60.7,28.1 167.5,28.1 175,50.9 152.1,50.9 154.9,41.3 121.7,41.3 125.1,50.9 102.6,50.9 
		105.9,41.7 72.7,41.7 75.9,50.9 	"/>
</g>
</svg>
