<?xml version="1.0" encoding="UTF-8"?>
<svg version="1.1" id="Livello_1" xmlns="http://www.w3.org/2000/svg" xmlns:xlink="http://www.w3.org/1999/xlink" x="0px" y="0px"
	 viewBox="0 0 394 354" style="enable-background:new 0 0 394 354;" xml:space="preserve">
<path style="fill:#008D39;" d="M42.498,35.63h283.4c6.121,0,11.081,8.234,11.081,18.387v246.287c0,10.153-4.96,18.397-11.081,18.397
	h-283.4c-6.116,0-11.075-8.244-11.075-18.397V54.017C31.423,43.864,36.383,35.63,42.498,35.63"/>
<path style="fill:#FFFFFF;" d="M163.645,108.935l4.886-0.116c6.882-0.803,25.747-3.23,30.608,2.145l0.298,0.671l0.48,4.787
	l-0.141,0.687c-3.702,6.567-13.731,8.017-20.149,8.629c-10.261,0.977-12.207-11.536-15.958-11.536c-1.383,0-2.004,0.422-3.379,2.758
	c-2.65,4.513-6.7,9.342-12.613,8.778c-6.418-0.613-16.447-2.062-20.149-8.629l-0.141-0.687l0.481-4.787l0.298-0.671
	c0.903-0.994,2.112-1.698,3.271-2.087c7.139-2.377,19.826-0.944,27.387-0.05L163.645,108.935"/>
<path style="fill:#FFFFFF;" d="M193.872,90.517l0.447,0.82l20.646,8.985l-1.052,2.037c0,0-23.262-1.689-50.26-1.689
	s-50.261,1.689-50.261,1.689l-1.051-2.037l20.687-9.019l0.364-0.663l7.205-24.53l0.986-0.828c13.598-1.54,28.306-1.54,44.115-0.008
	l1.01,0.836L193.872,90.517"/>
<polyline style="fill:#FFFFFF;" points="309.931,267.893 312.598,267.893 312.598,272.737 304.789,272.737 304.789,284.812 
	319.538,284.812 319.538,289.657 299.456,289.657 299.456,149.417 303.96,149.417 316.871,149.434 319.538,149.434 319.538,154.27 
	304.789,154.27 304.789,166.353 312.598,166.353 312.598,171.198 304.789,171.198 304.789,183.281 312.598,183.281 312.598,188.117 
	304.789,188.117 304.789,200.2 312.598,200.2 312.598,205.044 304.789,205.044 304.789,217.127 319.538,217.127 319.538,221.964 
	304.789,221.964 304.789,234.046 312.598,234.046 312.598,238.891 304.789,238.891 304.789,250.965 312.598,250.965 312.598,255.81 
	304.789,255.81 304.789,267.893 309.931,267.893 "/>
<polyline style="fill:#FFFFFF;" points="187.818,136.43 139.487,136.43 156.713,148.421 157.111,149.473 164.183,169.688 
	170.635,149.117 170.593,148.421 170.932,148.181 171.09,147.684 171.496,147.792 187.818,136.43 "/>
<polyline style="fill:#FFFFFF;" points="195.413,143.776 190.833,137.134 174.37,149.722 192.473,160.438 195.413,143.776 "/>
<polyline style="fill:#FFFFFF;" points="132.076,143.825 134.916,159.916 152.399,149.564 136.506,137.407 132.076,143.825 "/>
<polygon style="fill:#FFFFFF;" points="221.293,155.038 198.146,144.446 194.808,163.353 193.061,164.156 172.44,151.941 
	165.359,176.711 163.132,176.744 155.181,151.759 134.245,164.156 132.498,163.353 129.161,144.438 106.014,155.038 47.579,200.454 
	65.144,225.431 113.923,195.982 115.687,196.885 117.565,219.5 209.741,219.5 211.62,196.885 213.384,195.982 262.162,225.431 
	279.727,200.454 "/>
<g>
	<path style="fill:#FFFFFF;" d="M143.524,277.517c-11.42,0-21.002-6.087-21.002-15.677v-29.143h10.26v28.422
		c0,5.226,4.414,8.257,10.741,8.257c6.335,0,10.75-3.031,10.75-8.257v-28.422h10.261v29.143
		C164.534,271.43,154.952,277.517,143.524,277.517"/>
	<polyline style="fill:#FFFFFF;" points="189.884,264.076 202.323,232.698 213.238,232.698 193.768,277.153 185.992,277.153 
		166.53,232.698 177.437,232.698 189.884,264.076 	"/>
	<rect x="115.566" y="281.302" style="fill:#FFFFFF;" width="4.422" height="22.194"/>
	<path style="fill:#FFFFFF;" d="M140.41,295.025V281.31h4.422v22.186h-3.967c0,0-6.485-10.195-8.571-13.714v13.714h-4.422V281.31
		h3.967C131.839,281.31,138.323,291.505,140.41,295.025"/>
	<path style="fill:#FFFFFF;" d="M160.311,285.55h-3.18v13.706h3.18c1.631,0,2.683-0.547,3.37-1.549
		c0.58-0.878,0.687-1.259,0.687-5.184c0-3.818-0.116-4.505-0.82-5.458C162.712,285.923,161.851,285.55,160.311,285.55
		 M160.451,303.496h-7.735V281.31h7.942c2.973,0,5.449,1.342,6.923,3.834c1.126,1.921,1.201,2.874,1.201,7.263
		c0,4.712-0.224,5.698-1.276,7.329C166.174,301.848,163.806,303.496,160.451,303.496z"/>
	<polyline style="fill:#FFFFFF;" points="190.008,303.496 175.383,303.496 175.383,281.31 190.008,281.31 190.008,285.55 
		179.797,285.55 179.797,290.279 188.509,290.279 188.509,294.345 179.797,294.345 179.797,299.256 190.008,299.256 
		190.008,303.496 	"/>
	<polyline style="fill:#FFFFFF;" points="213.205,303.496 208.17,303.496 203.929,296.3 199.698,303.496 194.663,303.496 
		201.445,292.134 195.077,281.31 200.112,281.31 203.929,287.952 207.747,281.31 212.783,281.31 206.422,292.134 213.205,303.496 	
		"/>
</g>
<path style="fill:#FFFFFF;" d="M320.894,88.505c-22.194-3.279-39.859-20.43-43.917-42.36h43.917V88.505"/>
<polyline style="fill:#FFFFFF;" points="265.541,58.956 239.644,65.896 237.417,57.606 267.462,49.557 269.681,57.847 
	265.541,58.956 "/>
<polyline style="fill:#FFFFFF;" points="273.218,74.567 249.996,87.966 245.707,80.538 272.638,64.985 276.936,72.414 
	273.218,74.567 "/>
<polyline style="fill:#FFFFFF;" points="284.671,87.652 265.714,106.608 259.644,100.538 281.632,78.542 287.702,84.612 
	284.671,87.652 "/>
<polyline style="fill:#FFFFFF;" points="299.122,97.325 285.715,120.546 278.278,116.256 280.431,112.538 293.83,89.316 
	301.267,93.606 299.122,97.325 "/>
<polyline style="fill:#FFFFFF;" points="315.586,102.931 309.756,124.687 308.646,128.827 300.356,126.608 301.466,122.459 
	307.296,100.712 308.406,96.563 316.696,98.79 315.586,102.931 "/>
</svg>
