{% load date_extras_w36 %}
<?xml version="1.0" encoding="iso-8859-1"?>
<!-- Generator: Adobe Illustrator 18.1.0, SVG Export Plug-In . SVG Version: 6.00 Build 0)  -->
<svg version="1.1" xmlns="http://www.w3.org/2000/svg" xmlns:xlink="http://www.w3.org/1999/xlink" x="0px" y="0px"
	 viewBox="0 0 119.128 43.255" style="enable-background:new 0 0 119.128 43.255;" xml:space="preserve">
	<g id="ASSENTE">
		<g id="assente_1_">
			<g>
				<circle style="fill:#C1C1C0;" cx="21.277" cy="21.277" r="17.277"/>
				<polygon style="fill:#FFFFFF;" points="33.57,17.4 25.154,17.4 25.154,8.984 17.4,8.984 17.4,17.4 8.984,17.4 8.984,25.154 
					17.4,25.154 17.4,33.57 25.154,33.57 25.154,25.154 33.57,25.154 			"/>
			</g>
			<g>
				<circle style="fill:#C1C1C0;" cx="59.277" cy="21.277" r="17.277"/>
				<polygon style="fill:#FFFFFF;" points="71.57,17.4 63.154,17.4 63.154,8.984 55.4,8.984 55.4,17.4 46.984,17.4 46.984,25.154 
					55.4,25.154 55.4,33.57 63.154,33.57 63.154,25.154 71.57,25.154 			"/>
			</g>
			<g>
				<circle style="fill:#C1C1C0;" cx="97.277" cy="21.277" r="17.277"/>
				<polygon style="fill:#FFFFFF;" points="109.57,17.4 101.154,17.4 101.154,8.984 93.4,8.984 93.4,17.4 84.984,17.4 84.984,25.154 
					93.4,25.154 93.4,33.57 101.154,33.57 101.154,25.154 109.57,25.154 			"/>
			</g>
		</g>
	</g>
</svg>